<svg width="67" height="67" viewBox="0 0 67 67" fill="none" xmlns="http://www.w3.org/2000/svg">
<g filter="url(#filter0_dd_225_8735)">
<path d="M11 29.5C11 17.0736 21.0736 7 33.5 7C45.9264 7 56 17.0736 56 29.5C56 41.9264 45.9264 52 33.5 52C21.0736 52 11 41.9264 11 29.5Z" fill="white"/>
<path d="M33.5 8C45.3741 8 55 17.6259 55 29.5C55 41.3741 45.3741 51 33.5 51C21.6259 51 12 41.3741 12 29.5C12 17.6259 21.6259 8 33.5 8Z" stroke="#E92E43" stroke-width="2"/>
<path d="M47.4498 31.6871C47.1373 33.5371 45.745 34.8273 44.2794 35.8551C42.3328 37.22 40.2085 38.1433 37.9209 38.7944C37.1907 39.0019 36.5253 39.2048 35.7707 39.2941L34.5523 39.4388C33.8618 39.5208 33.1482 39.5188 32.4577 39.4388L31.226 39.2961C30.4562 39.2068 29.7802 38.99 29.0369 38.7799C26.6019 38.0905 24.3362 37.064 22.307 35.5511C20.4773 34.1882 19.1525 32.51 19.5806 30.0862C19.8211 28.726 20.4436 27.0161 21.3072 25.8931C20.8163 24.4026 20.8282 23.6306 21.4526 22.1732C21.7968 21.3708 22.3228 20.69 23.0239 20.1897C23.9622 19.5201 25.0663 19.3331 26.1658 19.6523C27.2653 19.9716 28.2367 20.5241 28.9972 21.4138C30.5024 20.6761 31.8537 20.6193 33.505 20.4898L35.5659 20.6847C36.4209 20.7654 37.2158 21.0311 37.9883 21.4092C38.8638 20.4223 40.0267 19.7812 41.3377 19.5499C42.3678 19.3681 43.3907 19.6986 44.2028 20.3589C45.118 21.1025 45.6406 22.1276 45.9241 23.2678C46.1408 24.1376 46.0358 25.0008 45.6776 25.8713C46.7487 27.2553 47.7366 29.9871 47.4498 31.6871ZM44.6475 27.1053C44.547 27.1463 44.3059 27.0161 44.288 26.9176C44.2186 26.5256 45.0248 25.5891 45.0836 24.5295C45.151 23.318 44.6495 22.0265 43.7673 21.1963C43.2592 20.7178 42.5958 20.3589 41.8888 20.384C40.4827 20.4342 39.2867 21.2049 38.4264 22.2459L37.5244 23.3372C37.3394 22.8507 37.5086 22.4264 37.6804 21.9346C36.9832 21.7562 36.3066 21.542 35.5989 21.5182L33.9741 21.4634C33.6305 21.4521 33.314 21.4528 32.9711 21.4627L31.6476 21.4997C30.8593 21.5215 30.0987 21.7529 29.3256 21.9221C29.5153 22.431 29.6216 22.8844 29.51 23.3709L28.3596 22.008C27.5878 21.0939 26.4189 20.458 25.1919 20.3886C23.4838 20.2921 22.1226 22.1653 21.9581 23.7946C21.8319 25.0464 22.1312 25.5012 22.6664 26.6056C22.716 26.7081 22.7417 26.8826 22.7034 26.9619C22.5528 27.2705 22.0274 27.0339 21.742 26.6922C20.9808 28.3684 19.9751 30.4531 20.6445 32.2747C20.9345 33.0645 21.4975 33.6693 22.1021 34.2338C23.0411 35.1095 24.1029 35.7275 25.2388 36.3277C27.2984 37.4163 29.4756 38.1103 31.7817 38.419C33.0854 38.5935 34.2596 38.5637 35.5626 38.3707C37.7967 38.0396 39.9078 37.3191 41.904 36.2576C43.4911 35.4142 45.8706 33.9191 46.4124 32.1194C46.9542 30.3196 46.0272 28.2792 45.2574 26.7332C44.9931 26.9216 44.849 27.0247 44.6488 27.106L44.6475 27.1053Z" fill="#E92E43"/>
<path d="M45.3843 32.5317C45.0282 33.0083 43.8533 33.6157 44.2386 33.0876C44.3773 32.8966 44.5452 32.6038 44.6463 32.3962C44.3417 32.2898 44.1362 32.227 43.9029 32.0948C42.9534 31.5562 41.8915 31.2389 40.7947 31.301C39.6092 31.3678 38.774 31.8001 37.6818 32.2812C36.0761 32.9885 34.3588 33.3315 32.6104 33.159C29.6158 32.8635 28.5612 31.5945 26.5763 31.3347C25.3942 31.1801 24.2603 31.4577 23.2348 32.0261C22.9414 32.1887 22.6659 32.2931 22.3586 32.4181L22.841 33.2918C22.3738 33.1934 21.941 32.929 21.6536 32.5668C21.0886 31.8556 21.2386 30.7643 21.9053 30.1833C21.9985 30.1021 22.2013 30.0928 22.2846 30.1305C22.3923 30.1794 22.4498 30.4061 22.4108 30.5462L22.1405 31.5099C22.1267 31.5588 22.1696 31.6989 22.1941 31.7307C22.2185 31.7624 22.3454 31.7174 22.3936 31.6811C23.0385 31.188 23.7977 30.7161 24.6151 30.5145C25.9809 30.1781 27.3408 30.3222 28.6154 30.8714L29.7301 31.3513C30.7325 31.7829 31.7461 32.0135 32.8166 32.1847C33.3009 32.2621 33.7106 32.2594 34.1923 32.1834C36.4461 31.8265 36.6972 31.5588 38.7159 30.7445C39.5346 30.414 40.3519 30.3122 41.2367 30.3433C42.4446 30.3863 43.5309 30.843 44.4824 31.5945C44.5749 31.6672 44.7077 31.7168 44.8458 31.7082C44.9033 31.153 44.3337 30.3241 44.7242 30.1318C45.2595 29.8681 46.1925 31.4544 45.3857 32.5324L45.3843 32.5317Z" fill="#E92E43"/>
<path d="M38.4549 24.9981C37.8893 24.4409 37.9302 25.4482 36.4329 24.5817C36.2155 24.4561 35.9195 24.4013 35.8145 24.2116C35.6823 23.9736 35.6248 23.6868 35.7305 23.4435C35.8838 23.0899 36.2116 22.776 36.6226 22.737C36.4726 23.0945 36.1818 23.388 36.4105 23.7423C36.5975 24.0311 37.7294 24.2763 38.4509 23.5295L39.5075 22.4343C40.2442 21.6708 41.1376 21.5135 42.1287 21.6847C42.8331 21.807 43.4001 22.0271 43.9188 22.583C44.1665 22.8487 44.4203 23.0972 44.5035 23.5123C44.5881 23.9333 44.6628 24.3834 44.5359 24.8031C44.1844 25.9664 42.7466 26.2064 41.6854 26.2024C40.4927 26.1984 39.3059 25.8369 38.4549 24.9981ZM41.7951 25.3491C42.3937 25.472 43.4053 25.2301 43.7172 24.7205C43.9234 24.3834 43.8606 23.9842 43.8203 23.6055C43.7959 23.3788 43.7073 23.2638 43.5745 23.1157C43.1027 22.5909 42.5219 22.3695 41.8215 22.3358C40.3744 22.2657 40.0453 23.3688 38.9954 24.2982C39.2015 24.5387 39.5009 24.7622 39.8286 24.8963C39.783 24.4773 39.7236 24.1527 39.8544 23.8276C40.0156 23.4264 40.2951 23.1223 40.6314 23.0225C41.0338 22.9035 41.4779 22.8778 41.7871 23.1785C42.3792 23.7542 42.3653 24.6828 41.7951 25.3491Z" fill="#E92E43"/>
<path d="M30.5627 24.5784C29.0997 25.4436 29.111 24.4489 28.5559 24.9915C27.6969 25.8309 26.5161 26.1984 25.3235 26.2017C24.2385 26.2044 22.6295 25.9367 22.4438 24.6386C22.3619 24.0642 22.4392 23.4819 22.7187 22.9617C22.8006 22.809 23.063 22.6464 23.1667 22.5215C23.6306 21.9683 24.2206 21.8123 24.8847 21.6927C26.7798 21.3509 27.3322 22.2717 28.5156 23.4977C28.881 23.8765 29.2894 24.0596 29.8134 24.0106C30.0962 23.9842 30.486 23.9769 30.6261 23.6934C30.7827 23.3761 30.5686 23.0522 30.3241 22.7779C30.6816 22.6742 30.9651 22.9736 31.1633 23.2466C31.347 23.4991 31.3483 23.7972 31.2585 24.0781C31.1567 24.396 30.8395 24.4138 30.5627 24.5784ZM27.1644 23.8857C27.2701 24.2228 27.2152 24.5097 27.1941 24.9056C27.535 24.739 27.7934 24.5308 27.9989 24.2909L26.8267 23.0324C26.3675 22.5393 25.8507 22.3047 25.1913 22.3358C24.4314 22.3708 23.8321 22.622 23.3412 23.2274C23.0927 23.5341 22.905 24.7331 23.7039 25.0973C24.1565 25.3035 24.668 25.4284 25.2131 25.3643C24.6653 24.7483 24.6138 23.7952 25.1834 23.2049C25.5072 22.8698 25.9948 22.891 26.425 23.047C26.7481 23.164 27.0381 23.4832 27.1644 23.887V23.8857Z" fill="#E92E43"/>
<path d="M34.9165 24.7159C34.6099 25.0384 34.07 24.9631 33.7826 24.6709C34.0852 24.4872 34.4394 24.3649 34.518 24.0305L34.7169 23.1811C34.7295 23.1269 34.8748 23.0509 34.9237 23.0681C35.2872 23.1957 35.4127 24.1931 34.9165 24.7159Z" fill="#E92E43"/>
<path d="M33.2044 24.6604C33.0194 24.8606 32.7122 24.9611 32.4373 24.9089C32.2285 24.8692 31.9622 24.6505 31.8657 24.3894C31.7164 23.9855 31.7355 23.0827 32.0891 23.0734C32.1736 23.0714 32.3203 23.2234 32.3395 23.312C32.5126 24.1237 32.2912 24.1488 33.2044 24.6604Z" fill="#E92E43"/>
<path d="M43.6703 26.5639C43.6148 27.7794 41.2413 27.2573 40.79 26.6618L42.3805 26.9446C42.847 27.0279 43.2435 26.7827 43.6703 26.5639Z" fill="#E92E43"/>
<path d="M31.8029 25.8898C31.8551 26.1997 31.3992 26.0927 30.7186 26.1667C30.6572 26.1733 30.5224 26.1065 30.4986 26.0504C30.4748 25.9942 30.5019 25.8461 30.5435 25.7906C30.7933 25.4535 31.3054 25.3299 31.6444 25.5956C31.7131 25.6498 31.7897 25.8131 31.8029 25.8898Z" fill="#E92E43"/>
<path d="M36.1362 26.1535L35.3076 26.0927C35.0995 25.9592 35.2488 25.6353 35.4444 25.5355C35.7808 25.3636 36.2598 25.4971 36.4501 25.8005C36.4924 25.8679 36.4878 26.0649 36.4468 26.1224C36.4058 26.1799 36.2658 26.1627 36.1362 26.1535Z" fill="#E92E43"/>
</g>
<defs>
<filter id="filter0_dd_225_8735" x="0" y="0" width="67" height="67" filterUnits="userSpaceOnUse" color-interpolation-filters="sRGB">
<feFlood flood-opacity="0" result="BackgroundImageFix"/>
<feColorMatrix in="SourceAlpha" type="matrix" values="0 0 0 0 0 0 0 0 0 0 0 0 0 0 0 0 0 0 127 0" result="hardAlpha"/>
<feOffset dy="1"/>
<feGaussianBlur stdDeviation="1.5"/>
<feColorMatrix type="matrix" values="0 0 0 0 0 0 0 0 0 0 0 0 0 0 0 0 0 0 0.3 0"/>
<feBlend mode="normal" in2="BackgroundImageFix" result="effect1_dropShadow_225_8735"/>
<feColorMatrix in="SourceAlpha" type="matrix" values="0 0 0 0 0 0 0 0 0 0 0 0 0 0 0 0 0 0 127 0" result="hardAlpha"/>
<feMorphology radius="3" operator="dilate" in="SourceAlpha" result="effect2_dropShadow_225_8735"/>
<feOffset dy="4"/>
<feGaussianBlur stdDeviation="4"/>
<feColorMatrix type="matrix" values="0 0 0 0 0 0 0 0 0 0 0 0 0 0 0 0 0 0 0.15 0"/>
<feBlend mode="normal" in2="effect1_dropShadow_225_8735" result="effect2_dropShadow_225_8735"/>
<feBlend mode="normal" in="SourceGraphic" in2="effect2_dropShadow_225_8735" result="shape"/>
</filter>
</defs>
</svg>
