<svg width="67" height="67" viewBox="0 0 67 67" fill="none" xmlns="http://www.w3.org/2000/svg">
<g filter="url(#filter0_dd_258_8643)">
<path d="M11 29.5C11 17.0736 21.0736 7 33.5 7C45.9264 7 56 17.0736 56 29.5C56 41.9264 45.9264 52 33.5 52C21.0736 52 11 41.9264 11 29.5Z" fill="white"/>
<path d="M33.5 8C45.3741 8 55 17.6259 55 29.5C55 41.3741 45.3741 51 33.5 51C21.6259 51 12 41.3741 12 29.5C12 17.6259 21.6259 8 33.5 8Z" stroke="#71717A" stroke-width="2"/>
<path d="M44.2974 35.8561C42.329 37.2426 40.2079 38.1541 37.921 38.8103C37.1915 39.0193 36.5248 39.2164 35.7702 39.3104C33.7766 39.5578 33.2223 39.5683 31.2261 39.311C30.4748 39.2144 29.8147 39.016 29.0872 38.8103C26.6318 38.1177 24.3501 37.0898 22.3064 35.5637C20.5051 34.2196 19.1691 32.554 19.5715 30.1567C19.8014 28.7875 20.4358 27.0239 21.308 25.8988C21.1018 25.2049 20.8653 24.4852 20.9829 23.7443C21.195 22.4054 21.8934 20.9628 23.0253 20.1901C23.994 19.4929 25.1431 19.3256 26.2723 19.6821C27.3282 20.0155 28.2639 20.542 28.9973 21.4198C30.2019 20.8139 31.5063 20.632 32.8443 20.5407C33.2963 20.5103 33.7159 20.4944 34.1658 20.5467C35.4979 20.6267 36.7838 20.804 37.9897 21.4106C38.85 20.4322 39.9965 19.8032 41.2856 19.5578C42.3316 19.3586 43.375 19.6861 44.2029 20.3588C45.1042 21.0917 45.6235 22.0992 45.913 23.2197C46.1416 24.1048 46.0458 24.9879 45.6777 25.8743C46.7482 27.2594 47.7354 29.9953 47.4512 31.696C47.1453 33.5237 45.7768 34.8142 44.2987 35.8561H44.2974ZM32.1056 30.8513C34.2874 31.3653 32.7221 31.3699 34.9323 30.8453C35.9215 30.6105 36.8453 30.3611 37.8609 30.2718C39.5068 30.127 41.0702 30.2718 42.5959 30.9088C44.1368 31.5518 44.8656 33.267 44.4811 33.273C44.4282 33.2736 44.3099 33.228 44.2769 33.183C43.9538 32.7458 43.5666 32.298 43.0532 32.0883C43.4186 33.4999 43.1866 34.7865 42.3765 35.9963C43.9036 35.2039 45.9017 33.7413 46.4079 32.1266C46.9556 30.3816 46.0306 28.3429 45.2707 26.7349C45.0097 26.9155 44.8438 27.0418 44.5901 27.1212C44.4897 27.1529 44.2743 26.9585 44.3119 26.8685L44.9053 25.4516C45.4603 24.1253 44.8214 22.1819 43.7661 21.1943C43.2388 20.7008 42.5582 20.3429 41.8215 20.3859C40.5013 20.462 39.3271 21.1447 38.521 22.1402L37.5133 23.3844C37.3593 22.883 37.4888 22.4432 37.6811 21.9358C36.982 21.7585 36.3067 21.5449 35.5984 21.5204L33.9174 21.4622C33.6385 21.4522 33.3822 21.4569 33.1013 21.4642L31.5849 21.5052C30.8316 21.5257 30.1101 21.7519 29.3376 21.916C29.4784 22.4088 29.6482 22.8625 29.4975 23.3858L28.361 22.0099C27.5939 21.0812 26.419 20.4673 25.1906 20.3886C24.4228 20.339 23.7442 20.7253 23.205 21.2174C22.1802 22.1547 21.563 24.1954 22.0983 25.4529L22.6665 26.7871C22.6916 26.846 22.6844 27.0001 22.6447 27.0352C22.3969 27.2541 21.9972 26.9737 21.7428 26.6945C20.969 28.3939 19.9587 30.4948 20.6604 32.337C21.1567 33.6394 22.7491 34.8863 23.924 35.6021C25.4331 36.5209 26.9932 37.2426 28.6802 37.7665C29.6832 38.078 30.642 38.2593 31.6714 38.4154C32.9665 38.6112 34.1976 38.5966 35.494 38.3882C36.6259 38.2063 37.7261 38.0231 38.8388 37.5601C37.8483 37.3391 37.0137 36.9284 36.4884 36.1008C36.1105 35.5055 35.9208 34.7752 35.9684 34.0688L36.0272 33.1969C36.0669 32.6062 35.8462 32.0228 35.3466 31.6636C34.7123 31.6689 33.813 32.0889 33.2573 31.9745L31.3972 31.5915L29.5484 31.2158C28.1033 30.9221 25.8541 31.149 24.4836 31.7602C23.7845 32.0724 23.1555 32.5473 22.7458 33.185C22.7035 33.2512 22.5192 33.2968 22.4808 33.2445C22.4498 33.2015 22.4049 33.0606 22.43 32.9866C22.7617 32.0162 23.6141 31.1986 24.5933 30.8288C26.088 30.2646 27.5641 30.1283 29.1519 30.2718C30.1623 30.3631 31.0814 30.6092 32.1069 30.8506L32.1056 30.8513ZM39.6119 31.1476C40.2845 31.997 40.6011 32.9879 40.3255 34.0423C40.2508 34.3267 39.7612 35.1992 39.4236 35.2541C39.3885 35.2601 39.3535 35.1589 39.3648 35.1152C39.45 34.7825 39.526 34.2566 39.5445 33.8835C39.6066 32.6512 39.67 32.1332 38.9161 31.0782C37.9388 31.1371 37.0402 31.229 36.0688 31.5187C36.9113 32.2034 36.9979 33.019 36.8856 34.0463C36.7904 34.9234 37.0957 35.6848 37.812 36.1723C38.5712 36.6882 39.5557 36.9231 40.4253 36.4799C42.1975 35.5763 42.884 33.2062 41.7726 31.5108C41.3471 31.3011 40.1464 31.1291 39.6119 31.1476Z" fill="#71717A"/>
<path d="M25.1325 24.0947C24.8113 24.4255 23.9781 26.0798 23.6484 25.9595C23.2163 25.8014 24.0534 24.2713 24.3422 23.9022C24.1453 23.7851 22.5595 23.5715 22.8092 23.1951C23.059 22.8187 24.2695 23.1772 24.8028 23.2275C25.1959 22.8491 26.2379 21.4475 26.8115 21.808C26.9159 21.8741 26.9509 22.1731 26.8425 22.273C26.4243 22.658 26.0496 23.0125 25.6684 23.4518C26.2789 23.7402 28.3127 24.1298 28.0907 24.911C28.0253 25.1412 27.7736 25.1306 27.5938 25.0446C26.7837 24.6563 26.002 24.3362 25.1325 24.0947Z" fill="#71717A"/>
<path d="M42.6646 23.891C42.8714 24.182 43.8249 25.8232 43.3558 25.9634C43.2732 25.9879 43.1073 25.9085 43.0472 25.8192L41.877 24.0947C40.9816 24.3388 40.1649 24.6729 39.3271 25.0784C39.2332 25.124 39.0337 25.1041 38.9769 25.0406C38.287 24.2707 40.8554 23.6701 41.3318 23.4511C40.9777 23.0271 40.6156 22.6778 40.1933 22.3127C40.0988 22.2307 40.0678 21.9515 40.1385 21.849C40.5323 21.2808 41.9067 22.8749 42.171 23.2209L43.3393 23.0516C43.5765 23.0172 43.9419 23.0066 44.1335 23.1118C44.185 23.1395 44.228 23.3248 44.189 23.3605C43.8936 23.6323 43.1298 23.7329 42.6646 23.891Z" fill="#71717A"/>
<path d="M31.8023 25.894C31.8518 26.2042 31.4058 26.0964 30.7325 26.1691C30.6591 26.1771 30.5224 26.1142 30.4979 26.0567C30.4735 25.9991 30.5005 25.8503 30.5422 25.7928C30.7886 25.4594 31.3093 25.337 31.6397 25.597C31.7117 25.6532 31.7897 25.8172 31.8023 25.894Z" fill="#71717A"/>
<path d="M36.1362 26.1579L35.3063 26.0977C35.1001 25.9614 35.2488 25.6406 35.4451 25.5401C35.7807 25.3674 36.2525 25.4905 36.4534 25.81C36.493 25.8728 36.4884 26.0693 36.4475 26.1261C36.4065 26.183 36.2657 26.1672 36.1362 26.1579Z" fill="#71717A"/>
</g>
<defs>
<filter id="filter0_dd_258_8643" x="0" y="0" width="67" height="67" filterUnits="userSpaceOnUse" color-interpolation-filters="sRGB">
<feFlood flood-opacity="0" result="BackgroundImageFix"/>
<feColorMatrix in="SourceAlpha" type="matrix" values="0 0 0 0 0 0 0 0 0 0 0 0 0 0 0 0 0 0 127 0" result="hardAlpha"/>
<feOffset dy="1"/>
<feGaussianBlur stdDeviation="1.5"/>
<feColorMatrix type="matrix" values="0 0 0 0 0 0 0 0 0 0 0 0 0 0 0 0 0 0 0.3 0"/>
<feBlend mode="normal" in2="BackgroundImageFix" result="effect1_dropShadow_258_8643"/>
<feColorMatrix in="SourceAlpha" type="matrix" values="0 0 0 0 0 0 0 0 0 0 0 0 0 0 0 0 0 0 127 0" result="hardAlpha"/>
<feMorphology radius="3" operator="dilate" in="SourceAlpha" result="effect2_dropShadow_258_8643"/>
<feOffset dy="4"/>
<feGaussianBlur stdDeviation="4"/>
<feColorMatrix type="matrix" values="0 0 0 0 0 0 0 0 0 0 0 0 0 0 0 0 0 0 0.15 0"/>
<feBlend mode="normal" in2="effect1_dropShadow_258_8643" result="effect2_dropShadow_258_8643"/>
<feBlend mode="normal" in="SourceGraphic" in2="effect2_dropShadow_258_8643" result="shape"/>
</filter>
</defs>
</svg>
