<svg width="67" height="67" viewBox="0 0 67 67" fill="none" xmlns="http://www.w3.org/2000/svg">
<g filter="url(#filter0_dd_225_8737)">
<rect x="11" y="7" width="45" height="45" rx="22.5" fill="white"/>
<rect x="12" y="8" width="43" height="43" rx="21.5" stroke="#18C351" stroke-width="2"/>
<path fill-rule="evenodd" clip-rule="evenodd" d="M35.6104 28.1091C36.8791 27.9221 38.132 28.4221 39.3155 28.9616L40.585 29.5407C41.3048 29.8687 44.0182 31.2955 44.5841 30.3044C44.6382 30.2099 44.6167 29.9833 44.5645 29.8669L44.2589 29.1843C44.1155 29.1624 43.8186 29.0796 43.8106 28.9626C43.8159 28.6319 44.2128 28.4575 44.5294 28.4919C44.8707 28.529 45.9338 28.8336 45.7052 29.2428C45.5399 29.5375 45.0577 29.1072 45.0352 29.2936C45.3589 29.8312 45.4978 30.5236 45.003 30.9626C44.4677 31.4367 43.6935 31.4743 43.0128 31.3454C42.8073 31.3065 42.7284 31.4207 42.63 31.5602C41.7054 32.8715 40.4499 33.7827 38.9239 34.36C36.7409 35.1866 34.3119 35.7325 32.0284 35.3932C30.3854 35.1492 28.822 34.7349 27.3223 34.03C26.0357 33.4256 24.9788 32.518 24.2022 31.32C23.3569 31.523 21.8604 31.4211 21.6925 30.4186C21.6178 29.9724 21.7613 29.6662 21.9766 29.238C21.7698 29.2166 21.4152 29.5138 21.2559 29.236C21.0788 28.9265 22.0205 28.4686 22.6602 28.4997C22.9786 28.5151 23.2594 28.7475 23.1632 29.0514L22.6876 29.2331L22.4415 29.8522C22.4013 29.9536 22.3894 30.2188 22.4337 30.3259C22.5933 30.709 23.4481 30.6562 23.7179 30.5973C24.5374 30.4181 25.2655 30.0757 26.0177 29.7272L27.3839 29.0944C31.0755 27.3852 33.0052 28.4926 33.5069 28.4186L35.6104 28.1091ZM33.4854 32.0124C32.1715 31.2777 31.2238 30.8922 29.67 31.2096C28.5201 31.4451 27.5065 31.9603 26.502 32.6823C27.709 33.6153 30.6363 34.3107 32.1114 34.5309C33.0657 34.6737 33.9391 34.6748 34.8927 34.53C36.251 34.3229 39.4094 33.6012 40.4874 32.6696C39.4922 31.9655 38.4759 31.4411 37.338 31.2136C35.7195 30.8895 34.8997 31.2804 33.4854 32.0124Z" fill="#3AC84F"/>
<path d="M30.4903 25.9421C30.6101 25.5425 31.1464 25.3672 31.5118 25.5182C31.7504 25.6168 31.8978 25.9197 31.7042 26.1022L30.9766 26.1491L30.6573 26.1803C30.5806 26.1876 30.4665 26.0221 30.4903 25.9421Z" fill="#3AC84F"/>
<path d="M35.2716 25.6979C35.5829 25.2939 36.2633 25.4489 36.4669 25.8503C36.4957 25.9076 36.481 26.084 36.4454 26.1276C36.3833 26.2042 35.3166 26.1221 35.2491 26.0573C35.1883 25.9978 35.2187 25.7661 35.2716 25.6979Z" fill="#3AC84F"/>
<path d="M40.9366 23.987C42.5876 22.5362 44.8484 23.9689 44.5675 24.3405C44.3606 24.6133 43.9994 23.9805 42.8575 23.9587C41.4505 23.9317 41.0166 25.6306 39.4483 25.3073C39.3263 25.424 39.1805 25.4742 39.0499 25.4118C38.8015 25.2928 38.6296 25.1208 38.5977 24.8776C38.5383 24.4235 39.1369 23.9432 39.2647 24.1344L39.2667 24.5319C39.9544 24.5907 40.3909 24.4662 40.9366 23.987Z" fill="#3AC84F"/>
<path d="M22.4405 24.3434C22.1602 23.9954 24.1986 22.6254 25.8673 23.8512C26.6427 24.4209 26.8524 24.6036 27.7481 24.527C27.7276 24.3465 27.7066 24.1757 27.7628 24.0759C28.0144 24.1157 28.2405 24.318 28.339 24.5387C28.4585 24.8078 28.3922 25.0899 28.1993 25.2585C27.9707 25.4574 27.7762 25.4316 27.4815 25.3503C27.2806 25.2947 26.9341 25.3794 26.7306 25.3034C25.6314 24.8941 25.2022 23.8737 24.0264 23.9596C22.9534 24.0384 22.6414 24.5927 22.4405 24.3434Z" fill="#3AC84F"/>
<path fill-rule="evenodd" clip-rule="evenodd" d="M41.3282 19.5514C42.3221 19.3709 43.2838 19.6797 44.0987 20.2761C45.0333 21.0008 45.5922 22.0243 45.8995 23.1696C46.1419 24.0715 46.0482 24.9707 45.6807 25.8825C46.7328 27.2373 47.7179 29.9567 47.4571 31.6423C47.196 33.3278 46.0585 34.5401 44.7188 35.5466C42.6834 37.0751 40.4298 38.0801 38.0177 38.779C37.2597 38.9985 36.5684 39.2121 35.7813 39.3073L34.6124 39.4479C33.5603 39.5748 32.2626 39.4461 31.2198 39.3073C30.4579 39.2061 29.7684 39.0161 29.0382 38.7966C27.4896 38.3317 26.0117 37.811 24.6007 37.0221C22.5017 35.8491 19.7722 34.1066 19.5196 31.4743C19.3531 29.7385 20.2869 27.2457 21.3106 25.8796C21.0582 25.1457 20.8532 24.4207 20.9874 23.6882C21.1328 22.8948 21.3831 22.1663 21.8126 21.488C22.5046 20.3949 23.6408 19.5361 24.9845 19.5202C26.5462 19.5017 27.9887 20.2876 28.9893 21.4157C30.0209 20.9239 31.0985 20.676 32.2159 20.5993L33.6993 20.4977L34.6778 20.5905C35.8263 20.6996 36.9415 20.8911 37.9962 21.4167C38.8659 20.4202 40.0177 19.7895 41.3282 19.5514ZM25.294 20.3884C23.2652 20.2432 21.7673 22.6093 21.922 24.5798C22.0164 25.7841 22.9289 26.6978 22.6641 27.0036C22.3912 27.317 21.9904 26.9197 21.7266 26.7272C20.9501 28.3929 19.9789 30.4802 20.6339 32.2721C21.2928 34.0741 23.6718 35.5437 25.3155 36.3835C27.014 37.2517 28.7865 37.9141 30.67 38.2487C31.8101 38.4511 33.1552 38.6326 34.2774 38.5221C35.27 38.4243 36.2238 38.3054 37.1866 38.07C38.774 37.6825 40.2455 37.1291 41.6876 36.3805C43.359 35.5123 45.8243 34.0142 46.4093 32.1218C46.8864 30.5781 46.2342 28.8402 45.5577 27.3561L45.2706 26.7389C45.0102 26.9109 44.8841 27.0033 44.6925 27.1032C44.6039 27.1495 44.3549 27.0512 44.3087 26.9606C44.1662 26.6778 44.8363 25.865 45.0186 24.8981C45.4076 22.8423 43.7988 20.3255 41.8809 20.3923C40.5552 20.4385 39.3354 21.1409 38.5245 22.1413L37.5118 23.3913C37.3519 22.8816 37.4922 22.4435 37.6759 21.9411C36.9568 21.7546 36.2597 21.5414 35.5294 21.5182L33.837 21.4655C33.584 21.4576 33.3526 21.4576 33.0997 21.4655L31.5265 21.5134C30.7796 21.5358 30.0605 21.7491 29.3263 21.9343C29.4987 22.4427 29.628 22.8491 29.4972 23.3893L28.3907 22.0534C27.6696 21.1825 26.4031 20.4677 25.294 20.3884Z" fill="#3AC84F"/>
</g>
<defs>
<filter id="filter0_dd_225_8737" x="0" y="0" width="67" height="67" filterUnits="userSpaceOnUse" color-interpolation-filters="sRGB">
<feFlood flood-opacity="0" result="BackgroundImageFix"/>
<feColorMatrix in="SourceAlpha" type="matrix" values="0 0 0 0 0 0 0 0 0 0 0 0 0 0 0 0 0 0 127 0" result="hardAlpha"/>
<feOffset dy="1"/>
<feGaussianBlur stdDeviation="1.5"/>
<feColorMatrix type="matrix" values="0 0 0 0 0 0 0 0 0 0 0 0 0 0 0 0 0 0 0.3 0"/>
<feBlend mode="normal" in2="BackgroundImageFix" result="effect1_dropShadow_225_8737"/>
<feColorMatrix in="SourceAlpha" type="matrix" values="0 0 0 0 0 0 0 0 0 0 0 0 0 0 0 0 0 0 127 0" result="hardAlpha"/>
<feMorphology radius="3" operator="dilate" in="SourceAlpha" result="effect2_dropShadow_225_8737"/>
<feOffset dy="4"/>
<feGaussianBlur stdDeviation="4"/>
<feColorMatrix type="matrix" values="0 0 0 0 0 0 0 0 0 0 0 0 0 0 0 0 0 0 0.15 0"/>
<feBlend mode="normal" in2="effect1_dropShadow_225_8737" result="effect2_dropShadow_225_8737"/>
<feBlend mode="normal" in="SourceGraphic" in2="effect2_dropShadow_225_8737" result="shape"/>
</filter>
</defs>
</svg>
