<svg width="67" height="67" viewBox="0 0 67 67" fill="none" xmlns="http://www.w3.org/2000/svg">
<g filter="url(#filter0_dd_225_8736)">
<rect x="11" y="7" width="45" height="45" rx="22.5" fill="white"/>
<rect x="12" y="8" width="43" height="43" rx="21.5" stroke="#ED9E00" stroke-width="2"/>
<path fill-rule="evenodd" clip-rule="evenodd" d="M26.4234 29.2953C28.2581 29.0175 30.1204 29.5795 31.7682 30.3832C32.3466 30.6655 32.8905 30.8946 33.4986 31.1215C35.4632 30.4111 36.506 29.5345 38.6773 29.2865C40.9057 29.0325 42.8319 29.6438 44.0689 31.6215L44.5777 31.5619C44.8306 31.6889 44.9054 31.9845 44.8434 32.2504C44.7917 32.4706 44.5536 32.7201 44.2486 32.6996C44.1739 32.6942 44.0279 32.6342 43.983 32.5873C43.8912 32.4907 44.0571 31.8537 43.7936 31.9701C43.4673 32.1143 43.2597 32.2668 43.0299 32.4633C42.4084 32.9951 41.8349 33.5424 41.148 33.9955C39.8536 34.8494 38.434 35.3637 36.9137 35.6508C35.5646 35.906 34.2386 36.0224 32.8697 35.9642C29.8165 35.8353 26.8943 35.1336 24.5914 33.017C24.3398 32.7855 23.3975 31.882 23.1305 31.9906C22.9325 32.0719 23.0957 32.3806 23.0348 32.5375C23.0077 32.6076 22.8261 32.6913 22.7369 32.6986C22.4504 32.7203 22.2356 32.516 22.1451 32.2621C22.0547 32.0082 22.1571 31.7232 22.4322 31.5492L22.901 31.6459C23.675 30.3741 24.9224 29.5222 26.4234 29.2953ZM40.276 33.0404C38.294 32.4087 36.5092 32.531 34.6197 33.3988C34.277 33.5562 33.9832 33.6944 33.6432 33.9027C33.5282 33.9727 33.3346 33.9201 33.2125 33.8275C32.9478 33.6273 32.6739 33.5317 32.3775 33.4008C30.4617 32.5535 28.7834 32.3979 26.7652 33.0189C26.6345 33.0593 26.4866 33.1742 26.3473 33.2806C27.4865 34.0559 29.8144 34.6416 31.1148 34.725C31.8267 34.7706 32.4725 34.7416 33.1744 34.85C33.3362 34.8751 33.5936 34.8695 33.7613 34.849C36.2278 34.5521 35.6283 35.0274 38.5465 34.1908C39.3 33.9745 39.9521 33.6947 40.6422 33.2972C40.491 33.1591 40.3862 33.0755 40.276 33.0404Z" fill="#ED9E00"/>
<path d="M22.7603 25.9701C22.8032 25.9166 22.9988 25.9867 23.0455 26.056C23.7489 27.1057 24.4537 26.8728 25.4576 27.1791C24.8997 27.513 24.2251 27.4698 23.6744 27.1908C23.3397 27.0209 22.5495 26.2357 22.7603 25.9701Z" fill="#ED9E00"/>
<path d="M44.0973 25.9535C44.1468 25.929 44.2695 26.0125 44.2789 26.0668C44.2881 26.1209 44.2459 26.2154 44.2057 26.2894C43.6827 27.2391 42.5893 27.7231 41.5123 27.2015C41.7691 27.0984 42.0674 27.0198 42.3414 27.0072C43.4713 26.9543 43.839 26.082 44.0973 25.9535Z" fill="#ED9E00"/>
<path d="M30.4928 25.9213C30.6031 25.6157 31.0613 25.3523 31.4391 25.4965C31.5552 25.5408 31.6936 25.623 31.7457 25.6976C31.7978 25.7724 31.7846 26.0266 31.7193 26.1107L30.8824 26.1527L30.6197 26.1654C30.5603 26.1676 30.4717 25.9808 30.4928 25.9213Z" fill="#ED9E00"/>
<path d="M35.3795 25.5746C35.7069 25.3498 36.2742 25.5144 36.4449 25.7767C36.4931 25.8514 36.4778 26.0847 36.4283 26.1312C36.3722 26.1835 35.3816 26.1109 35.3268 26.0971C35.1044 26.0394 35.2243 25.6811 35.3795 25.5746Z" fill="#ED9E00"/>
<path fill-rule="evenodd" clip-rule="evenodd" d="M24.5465 19.5316C26.0925 19.322 27.9523 20.1633 28.9859 21.4008C30.1397 20.8584 31.357 20.6301 32.6236 20.558C33.1903 20.4925 33.7432 20.4905 34.3092 20.558C35.5824 20.6208 36.8087 20.8357 37.9967 21.4017C39.0322 20.1814 40.8475 19.3249 42.4537 19.5306C43.2238 19.6867 43.8767 20.0514 44.4586 20.5746C45.1824 21.2929 45.6122 22.1812 45.8922 23.1674C46.1483 24.0707 46.014 24.976 45.6812 25.8715C46.656 27.2769 47.2757 28.8705 47.4713 30.5609C47.7156 32.6742 46.3473 34.2896 44.7887 35.4769C42.709 37.0604 40.3554 38.1168 37.8102 38.8285L36.8521 39.0961C36.5443 39.176 36.2396 39.2435 35.9117 39.2865L35.1471 39.3871C34.0047 39.5366 32.9291 39.5409 31.7867 39.3842L31.0865 39.2875C30.3283 39.1836 29.6498 38.9676 28.9107 38.7533C26.5821 38.08 24.3969 37.0916 22.44 35.6537C20.5717 34.2799 19.1419 32.6041 19.5797 30.1039C19.8293 28.6785 20.4393 27.0508 21.3111 25.8939C21.0781 25.1765 20.8691 24.4486 20.9898 23.7113C21.3095 21.7667 22.5025 19.9385 24.5465 19.5316ZM45.0465 24.0883C45.0379 22.1418 43.2994 19.8855 41.1617 20.4672C39.3138 20.9699 38.698 21.8993 37.5191 23.3597C37.3395 22.8684 37.4858 22.4304 37.6832 21.9291C35.8419 21.3742 33.5834 21.3952 31.651 21.5023C30.8578 21.546 30.0933 21.7333 29.3219 21.9271C29.4896 22.441 29.655 22.8528 29.484 23.3607L28.5885 22.2699C28.0984 21.6733 27.5809 21.2004 26.8756 20.8578C26.2681 20.5622 25.6224 20.3286 24.9205 20.39C23.1875 20.5422 22.0056 22.4502 21.9264 24.0238C21.9317 24.0523 22.004 24.14 22.0172 24.1176L22.0787 24.017C22.1119 23.9634 22.271 23.8462 22.3121 23.8939C22.456 24.0598 22.4143 24.2857 22.4986 24.2279C22.7595 24.0487 23.6983 22.6344 25.3248 22.2738C26.2666 22.0648 27.3563 22.2261 27.9566 23.0033C28.0157 23.0288 28.1956 22.9631 28.193 22.9056L28.1812 22.639C28.4296 22.5888 28.7096 22.8255 28.732 23.1185C28.7509 23.3638 28.4615 23.5459 28.2721 23.6742C28.2767 24.0697 28.3019 24.5359 28.1217 24.932C27.3926 26.5345 25.4569 27.1226 23.9195 26.3041C23.3773 26.0157 22.8765 25.6514 22.65 25.0541L22.5191 24.7094C22.2477 24.7576 22.1456 24.6556 21.9283 24.4916C21.9171 25.4189 22.6643 26.3404 22.7311 26.8695C22.7491 27.0175 22.4143 27.1428 22.2809 27.0795C22.088 26.9882 21.9364 26.8687 21.735 26.7133L20.941 28.5463C20.626 29.2732 20.4715 30.0424 20.4332 30.8295C20.3897 31.7243 20.6379 32.5209 21.1715 33.226C21.7051 33.9311 22.3515 34.5306 23.1031 35.0512C25.3769 36.6266 27.9397 37.712 30.6559 38.2465C31.5065 38.4138 33.21 38.6169 34.0289 38.5355L35.2447 38.4144C37.4432 38.1962 39.9259 37.3023 41.8814 36.2719C43.4935 35.4226 45.7595 33.982 46.3805 32.181H46.3785C46.9702 30.4646 46.0163 28.2408 45.2271 26.7142C44.9538 26.9781 44.7331 27.1802 44.3746 27.0414C44.2339 26.9871 44.2668 26.7042 44.3414 26.558C44.6419 25.9667 45.1064 25.0712 45.0377 24.4906C44.8297 24.6863 44.6776 24.7601 44.4293 24.7191C44.3111 25.44 43.7848 25.915 43.1773 26.2543C41.7614 27.046 40.0506 26.686 39.0963 25.3519C38.7436 24.8592 38.6882 24.2301 38.7271 23.6566C38.4445 23.5442 38.2342 23.3177 38.2652 23.0756C38.301 22.8005 38.5639 22.575 38.8082 22.6537C38.7923 22.7489 38.7872 22.927 38.8414 22.9945C39.0824 23.2937 39.1764 22.297 40.6734 22.2064C42.3389 22.1053 43.4543 23.058 44.5162 24.2631L44.6783 23.8461L45.0465 24.0883ZM40.3531 23.1058C39.9789 23.1589 39.7299 23.4236 39.6236 23.6556C39.4712 23.9869 39.5073 24.3062 39.6539 24.6097C40.0469 25.4245 40.8793 25.8549 41.7701 25.8099C42.6049 25.7683 43.3402 25.2012 43.7008 24.3461L42.6891 23.5902C42.7511 24.3673 42.479 24.846 41.8102 24.9916C41.3889 25.0828 41.0698 24.9357 40.7535 24.6957C40.2523 24.3154 40.0588 23.7407 40.3531 23.1058ZM26.6285 23.0873C26.9693 23.7388 26.7209 24.3528 26.1793 24.7504C25.6001 25.1762 24.825 25.1053 24.4176 24.4525C24.2789 24.2303 24.3138 23.9404 24.3053 23.5912L23.2828 24.3705C23.6064 25.0365 24.0514 25.4379 24.6266 25.7045C25.4798 25.9392 26.37 25.7838 26.9723 25.1449C27.3553 24.7388 27.5913 24.2072 27.3687 23.6635C27.2524 23.3806 26.9572 23.1554 26.6285 23.0873Z" fill="#ED9E00"/>
</g>
<defs>
<filter id="filter0_dd_225_8736" x="0" y="0" width="67" height="67" filterUnits="userSpaceOnUse" color-interpolation-filters="sRGB">
<feFlood flood-opacity="0" result="BackgroundImageFix"/>
<feColorMatrix in="SourceAlpha" type="matrix" values="0 0 0 0 0 0 0 0 0 0 0 0 0 0 0 0 0 0 127 0" result="hardAlpha"/>
<feOffset dy="1"/>
<feGaussianBlur stdDeviation="1.5"/>
<feColorMatrix type="matrix" values="0 0 0 0 0 0 0 0 0 0 0 0 0 0 0 0 0 0 0.3 0"/>
<feBlend mode="normal" in2="BackgroundImageFix" result="effect1_dropShadow_225_8736"/>
<feColorMatrix in="SourceAlpha" type="matrix" values="0 0 0 0 0 0 0 0 0 0 0 0 0 0 0 0 0 0 127 0" result="hardAlpha"/>
<feMorphology radius="3" operator="dilate" in="SourceAlpha" result="effect2_dropShadow_225_8736"/>
<feOffset dy="4"/>
<feGaussianBlur stdDeviation="4"/>
<feColorMatrix type="matrix" values="0 0 0 0 0 0 0 0 0 0 0 0 0 0 0 0 0 0 0.15 0"/>
<feBlend mode="normal" in2="effect1_dropShadow_225_8736" result="effect2_dropShadow_225_8736"/>
<feBlend mode="normal" in="SourceGraphic" in2="effect2_dropShadow_225_8736" result="shape"/>
</filter>
</defs>
</svg>
