<svg width="334" height="605" viewBox="0 0 334 605" fill="none" xmlns="http://www.w3.org/2000/svg">
<mask id="path-1-inside-1_192_7039" fill="white">
<path d="M319 0C319 8.28427 325.716 15 334 15V590C325.716 590 319 596.716 319 605H15C15 596.716 8.28427 590 0 590V15C8.28427 15 15 8.28427 15 0H319Z"/>
</mask>
<path d="M319 0H321V-2H319V0ZM334 15H336V13H334V15ZM334 590V592H336V590H334ZM319 605V607H321V605H319ZM15 605H13V607H15V605ZM0 590H-2V592H0V590ZM0 15V13H-2V15H0ZM15 0V-2H13V0H15ZM319 0H317C317 9.38884 324.611 17 334 17V15V13C326.82 13 321 7.1797 321 0H319ZM334 15H332V590H334H336V15H334ZM334 590V588C324.611 588 317 595.611 317 605H319H321C321 597.82 326.82 592 334 592V590ZM319 605V603H15V605V607H319V605ZM15 605H17C17 595.611 9.38884 588 0 588V590V592C7.1797 592 13 597.82 13 605H15ZM0 590H2V15H0H-2V590H0ZM0 15V17C9.38884 17 17 9.38884 17 0H15H13C13 7.1797 7.1797 13 0 13V15ZM15 0V2H319V0V-2H15V0Z" fill="url(#paint0_linear_192_7039)" mask="url(#path-1-inside-1_192_7039)"/>
<rect x="6.5" y="7.5" width="321" height="591" stroke="url(#paint1_linear_192_7039)" stroke-width="3"/>
<defs>
<linearGradient id="paint0_linear_192_7039" x1="167" y1="0" x2="167" y2="605" gradientUnits="userSpaceOnUse">
<stop stop-color="#DDAF4A"/>
<stop offset="1" stop-color="#FFE18F"/>
</linearGradient>
<linearGradient id="paint1_linear_192_7039" x1="167" y1="6" x2="167" y2="600" gradientUnits="userSpaceOnUse">
<stop stop-color="#DDAF4A"/>
<stop offset="1" stop-color="#FFE18F"/>
</linearGradient>
</defs>
</svg>
