<svg width="24" height="24" viewBox="0 0 24 24" fill="none" xmlns="http://www.w3.org/2000/svg">
<path d="M9.38681 23.626C9.34578 23.626 9.30575 23.6133 9.27216 23.5898C9.23856 23.5662 9.21303 23.5329 9.19901 23.4943C9.18499 23.4558 9.18317 23.4138 9.1938 23.3742C9.20442 23.3346 9.22698 23.2992 9.25841 23.2728L9.34641 23.1992C9.30167 23.2142 9.25306 23.2129 9.20918 23.1956C9.1653 23.1782 9.12896 23.1459 9.10661 23.1044C9.08425 23.0628 9.0773 23.0147 9.087 22.9685C9.0967 22.9223 9.12242 22.8811 9.15961 22.852L9.56961 22.532L9.51481 22.5632C9.47108 22.5878 9.41971 22.5951 9.37088 22.5836C9.32205 22.572 9.27932 22.5426 9.25118 22.5011C9.22304 22.4595 9.21154 22.4089 9.21895 22.3593C9.22636 22.3097 9.25215 22.2647 9.29121 22.2332L10.5492 21.24L9.69081 21.7356C9.64672 21.7609 9.59468 21.7684 9.54524 21.7567C9.49581 21.7449 9.45269 21.7149 9.42463 21.6725C9.39658 21.6301 9.3857 21.5787 9.3942 21.5286C9.4027 21.4785 9.42995 21.4335 9.47041 21.4028L11.0424 20.22L9.86881 20.8976C9.82448 20.9228 9.77219 20.9301 9.72264 20.9181C9.67309 20.906 9.63002 20.8755 9.60223 20.8327C9.57444 20.79 9.56403 20.7382 9.57313 20.6881C9.58224 20.6379 9.61017 20.5931 9.65121 20.5628L11.5316 19.2L10.0476 20.0564C10.0029 20.082 9.94997 20.0893 9.89996 20.0768C9.84995 20.0644 9.80669 20.0331 9.77919 19.9895C9.7517 19.9459 9.74209 19.8934 9.75238 19.8428C9.76266 19.7923 9.79205 19.7478 9.83441 19.7184L11.2036 18.7776L10.196 19.36C10.1511 19.3856 10.0979 19.3927 10.0478 19.38C9.9977 19.3672 9.95447 19.3356 9.9272 19.2916C9.89992 19.2477 9.89073 19.1949 9.90154 19.1443C9.91236 19.0938 9.94235 19.0493 9.98521 19.0204L10.97 18.36L10.33 18.73C10.2851 18.756 10.2318 18.7636 10.1814 18.751C10.131 18.7385 10.0875 18.7069 10.06 18.6628C10.0325 18.6188 10.0233 18.5658 10.0342 18.515C10.0451 18.4642 10.0753 18.4197 10.1184 18.3908L12.082 17.0708L10.4868 17.9908C10.4419 18.016 10.3891 18.0229 10.3392 18.0101C10.2894 17.9972 10.2464 17.9657 10.2192 17.9221C10.192 17.8784 10.1827 17.8259 10.1932 17.7755C10.2037 17.7252 10.2332 17.6808 10.2756 17.6516L12.72 16.0196L10.652 17.2132C10.6073 17.2381 10.5548 17.2449 10.5052 17.2322C10.4556 17.2195 10.4128 17.1883 10.3856 17.145C10.3583 17.1017 10.3487 17.0496 10.3586 16.9994C10.3686 16.9492 10.3975 16.9048 10.4392 16.8752L14.7092 13.9484L10.8756 16.162C10.8307 16.1872 10.7779 16.1941 10.728 16.1812C10.6782 16.1684 10.6352 16.1369 10.608 16.0933C10.5808 16.0496 10.5715 15.9971 10.582 15.9467C10.5925 15.8964 10.622 15.852 10.6644 15.8228L13.8804 13.6748L11.0576 15.3048C11.0125 15.3328 10.9582 15.3417 10.9065 15.3295C10.8549 15.3174 10.8102 15.2853 10.7822 15.2402C10.7543 15.1951 10.7454 15.1408 10.7575 15.0891C10.7696 15.0375 10.8017 14.9928 10.8468 14.9648L13.1788 13.4168L11.2188 14.5484C11.1743 14.5741 11.1215 14.5816 11.0716 14.5695C11.0216 14.5573 10.9783 14.5264 10.9505 14.4831C10.9228 14.4398 10.9128 14.3875 10.9226 14.337C10.9324 14.2865 10.9613 14.2417 11.0032 14.212L13.6508 12.3364L10.4924 14.16C10.4476 14.1842 10.3953 14.1904 10.3461 14.1774C10.2969 14.1644 10.2545 14.1331 10.2276 14.0899C10.2006 14.0467 10.1912 13.9948 10.2012 13.9449C10.2111 13.895 10.2397 13.8507 10.2812 13.8212L11.2872 13.146L9.53001 14.16C9.48552 14.1844 9.4334 14.191 9.38422 14.1785C9.33504 14.1659 9.29247 14.1351 9.26516 14.0923C9.23784 14.0496 9.22781 13.998 9.2371 13.9481C9.2464 13.8982 9.27432 13.8537 9.31521 13.8236L11.2628 12.4576L8.31401 14.16C8.26975 14.186 8.2172 14.194 8.16722 14.1823C8.11725 14.1706 8.07367 14.1402 8.04551 14.0973C8.01735 14.0544 8.00676 14.0023 8.01594 13.9518C8.02512 13.9013 8.05335 13.8563 8.09481 13.826L10.64 11.9424L6.80001 14.16C6.75523 14.1842 6.7029 14.1904 6.65369 14.1774C6.60448 14.1644 6.56209 14.1331 6.53515 14.0899C6.50822 14.0467 6.49878 13.9948 6.50875 13.9449C6.51872 13.895 6.54735 13.8507 6.58881 13.8212L7.70881 13.0716L5.82041 14.16C5.77572 14.1843 5.72347 14.1906 5.67428 14.1777C5.62509 14.1649 5.58265 14.1337 5.55559 14.0907C5.52854 14.0476 5.5189 13.9959 5.52863 13.946C5.53837 13.8961 5.56675 13.8517 5.60801 13.822L8.43081 11.902L5.07481 13.84C5.02999 13.866 4.97683 13.8736 4.92653 13.8612C4.87622 13.8488 4.83269 13.8173 4.80511 13.7735C4.77753 13.7296 4.76804 13.6768 4.77866 13.6261C4.78927 13.5753 4.81915 13.5307 4.86201 13.5016L8.65281 10.92L4.98081 13.04C4.93575 13.0656 4.8825 13.0727 4.83229 13.0599C4.78208 13.047 4.73883 13.0151 4.71166 12.971C4.68448 12.9269 4.6755 12.8739 4.68661 12.8233C4.69772 12.7726 4.72805 12.7283 4.77121 12.6996L7.47641 10.92L5.80001 11.8888C5.75526 11.9144 5.70237 11.9217 5.65236 11.9092C5.60235 11.8968 5.55909 11.8655 5.53159 11.8219C5.5041 11.7783 5.49449 11.7257 5.50478 11.6752C5.51506 11.6247 5.54445 11.5802 5.58681 11.5508L9.32961 8.9736L6.92401 10.3628C6.87912 10.3894 6.82562 10.3974 6.77491 10.3851C6.72421 10.3728 6.68032 10.3412 6.65261 10.297C6.62489 10.2528 6.61555 10.1995 6.62657 10.1485C6.6376 10.0975 6.66811 10.0528 6.71161 10.024L8.98921 8.4836L7.80441 9.168C7.78208 9.18187 7.75724 9.1912 7.73131 9.19547C7.70538 9.19974 7.67886 9.19886 7.65327 9.19288C7.62768 9.1869 7.60351 9.17593 7.58216 9.16062C7.5608 9.1453 7.54267 9.12592 7.52881 9.1036C7.51494 9.08127 7.5056 9.05644 7.50134 9.0305C7.49707 9.00457 7.49795 8.97805 7.50393 8.95246C7.50991 8.92687 7.52087 8.90271 7.53619 8.88135C7.55151 8.85999 7.57088 8.84187 7.59321 8.828L8.51641 8.2144L8.49921 8.2244C8.45472 8.24977 8.4022 8.25712 8.35247 8.24492C8.30273 8.23272 8.25957 8.2019 8.23187 8.15883C8.20418 8.11575 8.19407 8.06369 8.20362 8.01338C8.21317 7.96306 8.24165 7.91833 8.28321 7.8884L10.5684 6.2584L9.48841 6.8828C9.44376 6.90842 9.39096 6.91584 9.34098 6.90352C9.291 6.8912 9.2477 6.86008 9.22008 6.81664C9.19247 6.77321 9.18266 6.72079 9.1927 6.67031C9.20274 6.61983 9.23187 6.57516 9.27401 6.5456L10.3276 5.8084L10.2432 5.8572C10.1992 5.88322 10.1469 5.89139 10.097 5.88005C10.0472 5.8687 10.0036 5.8387 9.97517 5.79621C9.94675 5.75371 9.93569 5.70194 9.94425 5.65154C9.95281 5.60114 9.98035 5.55593 10.0212 5.5252L11.9368 4.0452L11.31 4.4052C11.2662 4.42962 11.2148 4.43669 11.166 4.425C11.1172 4.41331 11.0746 4.38372 11.0467 4.34209C11.0187 4.30047 11.0073 4.24984 11.0149 4.20026C11.0225 4.15068 11.0485 4.10575 11.0876 4.0744L12.1772 3.226C12.133 3.25077 12.081 3.25784 12.0318 3.24577C11.9826 3.2337 11.9398 3.2034 11.912 3.16098C11.8843 3.11857 11.8737 3.0672 11.8824 3.01727C11.8911 2.96734 11.9184 2.92256 11.9588 2.892L12.5924 2.412C12.5668 2.39917 12.5441 2.38104 12.526 2.3588C12.496 2.32172 12.4802 2.27514 12.4816 2.22747C12.4829 2.17979 12.5012 2.13416 12.5332 2.0988L13.6532 0.855598C13.6416 0.843704 13.6318 0.830238 13.624 0.815598C13.5975 0.769711 13.5902 0.715158 13.6039 0.663929C13.6175 0.6127 13.6509 0.568987 13.6968 0.542398L14.2208 0.239998C14.2621 0.216229 14.3104 0.207959 14.3573 0.216674C14.4041 0.22539 14.4462 0.250519 14.4762 0.287543C14.5061 0.324567 14.5219 0.371058 14.5206 0.418654C14.5193 0.466251 14.5011 0.511831 14.4692 0.547198L13.6772 1.4272L14.5972 0.894798C14.6413 0.868939 14.6936 0.86095 14.7434 0.872473C14.7933 0.883996 14.8368 0.914156 14.865 0.956756C14.8933 0.999357 14.9042 1.05116 14.8954 1.10154C14.8867 1.15191 14.859 1.19702 14.818 1.2276L14.5852 1.404C14.6266 1.40464 14.6667 1.4181 14.7001 1.44252C14.7335 1.46694 14.7585 1.50112 14.7717 1.54035C14.7849 1.57957 14.7855 1.62192 14.7736 1.66155C14.7617 1.70117 14.7378 1.73613 14.7052 1.7616L13.62 2.6128L14.32 2.2076C14.3639 2.18238 14.4158 2.17477 14.4651 2.18631C14.5145 2.19786 14.5576 2.22769 14.5858 2.26979C14.6139 2.31189 14.6251 2.36311 14.617 2.41312C14.6089 2.46312 14.5821 2.50818 14.542 2.5392L12.6268 4.0192L14.12 3.1568C14.1646 3.13213 14.2168 3.12538 14.2662 3.13794C14.3156 3.1505 14.3583 3.18141 14.3856 3.22437C14.413 3.26733 14.4229 3.3191 14.4134 3.36913C14.4039 3.41916 14.3756 3.46367 14.3344 3.4936L13.28 4.2316L13.9776 3.8288C14.0221 3.80342 14.0746 3.79608 14.1243 3.80828C14.1741 3.82048 14.2172 3.85129 14.2449 3.89437C14.2726 3.93745 14.2827 3.98951 14.2732 4.03982C14.2636 4.09013 14.2352 4.13486 14.1936 4.1648L11.9092 5.794L13.7892 4.708C13.8342 4.68243 13.8873 4.67527 13.9374 4.68801C13.9875 4.70076 14.0307 4.73243 14.058 4.77636C14.0853 4.8203 14.0945 4.8731 14.0837 4.92367C14.0729 4.97424 14.0429 5.01866 14 5.0476L13.0744 5.6632L13.6576 5.326C13.6799 5.31205 13.7047 5.30263 13.7306 5.29827C13.7565 5.29391 13.783 5.29469 13.8086 5.30058C13.8342 5.30647 13.8584 5.31734 13.8799 5.33258C13.9013 5.34782 13.9195 5.36713 13.9334 5.3894C13.9474 5.41167 13.9568 5.43647 13.9611 5.46239C13.9655 5.4883 13.9647 5.51482 13.9588 5.54043C13.9529 5.56604 13.9421 5.59024 13.9268 5.61165C13.9116 5.63306 13.8923 5.65125 13.87 5.6652L11.5948 7.2036L13.4912 6.1088C13.536 6.08226 13.5893 6.07423 13.64 6.08641C13.6906 6.09858 13.7344 6.13001 13.7622 6.17401C13.79 6.21801 13.7996 6.27112 13.7889 6.32206C13.7782 6.373 13.748 6.41774 13.7048 6.4468L9.96001 9.0248L13.28 7.1088C13.3252 7.08095 13.3796 7.0722 13.4313 7.08446C13.4829 7.09673 13.5276 7.129 13.5554 7.1742C13.5833 7.21939 13.592 7.2738 13.5797 7.32544C13.5675 7.37709 13.5352 7.42175 13.49 7.4496L10.7848 9.2264L13.1156 7.88C13.1604 7.85482 13.2131 7.84783 13.2629 7.86049C13.3127 7.87315 13.3557 7.90449 13.383 7.948C13.4103 7.99151 13.4199 8.04387 13.4096 8.09421C13.3994 8.14455 13.3702 8.18902 13.328 8.2184L9.53881 10.8L12.9088 8.854C12.9536 8.82799 13.0068 8.82039 13.0571 8.8328C13.1074 8.8452 13.1509 8.87665 13.1785 8.92051C13.2061 8.96437 13.2156 9.01723 13.205 9.06794C13.1943 9.11866 13.1645 9.16328 13.1216 9.1924L10.2968 11.1152L12.7264 9.7124C12.7713 9.68636 12.8246 9.67882 12.875 9.69136C12.9254 9.70389 12.9689 9.73553 12.9964 9.77958C13.0239 9.82363 13.0331 9.87664 13.0222 9.9274C13.0113 9.97817 12.9811 10.0227 12.938 10.0516L11.8196 10.8L13.4856 9.84C13.5299 9.81401 13.5824 9.80602 13.6324 9.8177C13.6824 9.82937 13.7259 9.85981 13.7541 9.90272C13.7823 9.94562 13.7928 9.99771 13.7837 10.0482C13.7745 10.0987 13.7463 10.1437 13.7048 10.174L11.16 12.0576L15 9.84C15.0446 9.81471 15.0972 9.8075 15.1469 9.81985C15.1967 9.83221 15.2398 9.86319 15.2673 9.90641C15.2949 9.94962 15.3048 10.0018 15.295 10.0521C15.2853 10.1024 15.2565 10.147 15.2148 10.1768L13.268 11.5416L16.218 9.84C16.2629 9.81484 16.3157 9.80794 16.3656 9.82075C16.4154 9.83355 16.4584 9.86507 16.4856 9.90874C16.5128 9.95242 16.5221 10.0049 16.5116 10.0553C16.5011 10.1056 16.4716 10.15 16.4292 10.1792L15.4236 10.8544L17.1804 9.84C17.225 9.81283 17.2785 9.80421 17.3295 9.81599C17.3804 9.82777 17.4247 9.85901 17.4528 9.90302C17.481 9.94703 17.4908 10.0003 17.4802 10.0515C17.4696 10.1027 17.4394 10.1476 17.396 10.1768L14.7488 12.052L18.518 9.876C18.5629 9.8512 18.6156 9.84462 18.6653 9.8576C18.7149 9.87058 18.7577 9.90214 18.7847 9.94576C18.8117 9.98937 18.8209 10.0417 18.8105 10.0919C18.8 10.1421 18.7706 10.1864 18.7284 10.2156L16.3964 11.764L18.9912 10.266C19.0362 10.2404 19.0893 10.2333 19.1394 10.246C19.1895 10.2588 19.2327 10.2904 19.26 10.3344C19.2873 10.3783 19.2965 10.4311 19.2857 10.4817C19.2749 10.5322 19.2449 10.5767 19.202 10.6056L15.9868 12.7528L18.9944 11.0164C19.0392 10.9908 19.092 10.9835 19.1421 10.996C19.1921 11.0084 19.2353 11.0397 19.2628 11.0833C19.2903 11.1269 19.2999 11.1794 19.2896 11.23C19.2793 11.2805 19.25 11.325 19.2076 11.3544L14.938 14.28L17.8344 12.608C17.8793 12.5835 17.9318 12.5771 17.9812 12.5901C18.0306 12.6031 18.0731 12.6346 18.1001 12.678C18.1271 12.7214 18.1364 12.7734 18.1262 12.8235C18.116 12.8736 18.087 12.9178 18.0452 12.9472L15.6 14.5796L16.96 13.7936C17.005 13.7655 17.0593 13.7564 17.111 13.7683C17.1627 13.7802 17.2075 13.8122 17.2356 13.8572C17.2637 13.9022 17.2728 13.9565 17.2609 14.0082C17.249 14.0599 17.217 14.1047 17.172 14.1328L15.212 15.4528L16.132 14.922C16.1769 14.8975 16.2294 14.8911 16.2788 14.9041C16.3282 14.9171 16.3707 14.9486 16.3977 14.992C16.4247 15.0354 16.434 15.0874 16.4238 15.1375C16.4136 15.1876 16.3846 15.2318 16.3428 15.2612L15.3588 15.918L15.4276 15.878C15.4724 15.8515 15.5257 15.8434 15.5764 15.8556C15.627 15.8678 15.6708 15.8992 15.6986 15.9432C15.7264 15.9872 15.736 16.0403 15.7253 16.0913C15.7146 16.1422 15.6844 16.1869 15.6412 16.216L14.2652 17.16L14.6432 16.942C14.6875 16.9168 14.7398 16.9095 14.7894 16.9215C14.8389 16.9336 14.882 16.9641 14.9098 17.0069C14.9376 17.0496 14.948 17.1014 14.9389 17.1515C14.9298 17.2017 14.9018 17.2465 14.8608 17.2768L12.984 18.64L13.6952 18.2292C13.7393 18.2039 13.7913 18.1964 13.8408 18.2081C13.8902 18.2199 13.9333 18.2499 13.9614 18.2923C13.9894 18.3347 14.0003 18.3861 13.9918 18.4362C13.9833 18.4863 13.9561 18.5313 13.9156 18.562L12.342 19.7456L12.7532 19.5088C12.7969 19.4842 12.8483 19.4769 12.8971 19.4884C12.946 19.5 12.9887 19.5294 13.0168 19.5709C13.045 19.6125 13.0565 19.6631 13.0491 19.7127C13.0416 19.7623 13.0159 19.8073 12.9768 19.8388L11.72 20.8284L11.826 20.7672C11.8698 20.742 11.9215 20.7343 11.9708 20.7456C12.02 20.757 12.0631 20.7866 12.0914 20.8284C12.1198 20.8703 12.1312 20.9213 12.1234 20.9712C12.1157 21.0212 12.0893 21.0663 12.0496 21.0976L11.2872 21.6948C11.3218 21.7052 11.3529 21.7248 11.3773 21.7515C11.4017 21.7782 11.4184 21.811 11.4256 21.8464C11.4328 21.8818 11.4303 21.9185 11.4183 21.9526C11.4064 21.9867 11.3854 22.0169 11.3576 22.04L10.7404 22.5564C10.7611 22.5726 10.7786 22.5925 10.792 22.6152C10.8185 22.6611 10.8257 22.7157 10.812 22.767C10.7983 22.8182 10.7647 22.8619 10.7188 22.8884L9.48681 23.6C9.45641 23.6175 9.42187 23.6265 9.38681 23.626Z" fill="#F9C153"/>
<path d="M5.51399 14.1664C7.30199 14.184 9.09319 14.1552 10.8824 14.1664C10.2485 17.128 9.61426 20.0899 8.97959 23.052C8.88079 23.988 10.0484 23.852 10.4596 23.326C10.7624 22.9376 11.0448 22.5316 11.3368 22.1348C13.9835 18.5348 16.6332 14.9367 19.286 11.3404C19.7836 10.598 19.246 9.8528 18.4156 9.8336C16.652 9.7936 14.8836 9.83 13.1192 9.8336C13.7229 7.0112 14.3271 4.18747 14.9316 1.3624C14.9932 1.0748 15.1204 0.736798 14.9144 0.476798C14.2832 -0.191602 13.5 0.596798 13.174 1.174L8.32279 7.76L5.84719 11.12C5.16599 11.9956 3.47599 13.8224 5.51399 14.1664ZM6.02199 11.6332C8.72799 7.9672 11.4336 4.2732 14.1352 0.615998C14.5472 0.423198 14.4196 1.118 14.378 1.312L12.5096 10.0356C12.4888 10.1324 12.6168 10.1656 12.6876 10.1656H17.4C18.1652 10.0512 19.296 10.282 18.7708 11.2928C15.8108 15.3152 12.8348 19.3536 9.87679 23.37C9.65639 23.4808 9.54079 23.17 9.56079 22.98C10.2045 19.9747 10.8483 16.9695 11.492 13.9644C11.5128 13.8672 11.3848 13.8344 11.314 13.8344H6.25959C4.37199 13.9516 5.20719 12.4596 6.02199 11.6332Z" fill="#262626"/>
</svg>
