<svg width="24" height="24" viewBox="0 0 24 24" fill="none" xmlns="http://www.w3.org/2000/svg">
<path fill-rule="evenodd" clip-rule="evenodd" d="M9.67845 21.6739C9.62098 21.6736 9.5677 21.6439 9.53725 21.5951C9.49143 21.517 9.51629 21.4165 9.59302 21.3685L10.3877 20.8858L9.05776 21.6509C8.98056 21.6964 8.88131 21.6715 8.83455 21.5951C8.78811 21.5177 8.81141 21.4175 8.88705 21.3685L11.4155 19.8151L8.23359 21.6509C8.15639 21.6964 8.05698 21.6715 8.01023 21.5951C7.98755 21.5581 7.98071 21.5137 7.99112 21.4716C8.00168 21.4297 8.02871 21.3936 8.06614 21.3717L13.7864 17.7823L7.07111 21.6509C6.99562 21.6837 6.90755 21.6552 6.86515 21.5847C6.8229 21.5142 6.83921 21.4231 6.90367 21.3717L13.2216 17.4309L5.92184 21.6509C5.87183 21.6908 5.80333 21.6979 5.74617 21.6694C5.68916 21.6409 5.65359 21.5819 5.65545 21.5181C5.65716 21.4542 5.69568 21.3972 5.7544 21.3717L13.4383 16.5672L4.63464 21.6509C4.55744 21.6964 4.45803 21.6715 4.41128 21.5951C4.38844 21.5577 4.38145 21.5128 4.39202 21.4702C4.40242 21.4276 4.42945 21.391 4.4672 21.3685L11.7241 16.8956L3.57064 21.6049C3.49236 21.6479 3.39419 21.622 3.34744 21.5459C3.3246 21.5089 3.31777 21.4645 3.32833 21.4224C3.33874 21.3804 3.36577 21.3444 3.4032 21.3225L6.68699 19.3521L3.10761 21.4047C3.05697 21.4415 2.98972 21.4463 2.93426 21.4169C2.87897 21.3877 2.84511 21.3293 2.84697 21.2667C2.84899 21.2041 2.88642 21.148 2.94343 21.1222L7.97419 18.0745L2.80224 21.0696C2.72395 21.1126 2.62578 21.0867 2.57903 21.0105C2.5562 20.9731 2.54921 20.9282 2.55961 20.8856C2.57018 20.8431 2.5972 20.8064 2.63479 20.7839L7.81979 17.6476L2.61507 20.6459C2.53787 20.6915 2.43861 20.6666 2.39186 20.5902C2.36887 20.5527 2.36204 20.5078 2.37244 20.4653C2.38301 20.4227 2.41003 20.386 2.44762 20.3635L10.7063 15.3026L2.56583 20.0023C2.48863 20.0477 2.38937 20.0228 2.34262 19.9464C2.2968 19.8683 2.3215 19.7679 2.39838 19.7199L6.62455 17.1713L2.56583 19.5163C2.52855 19.5386 2.48381 19.545 2.44172 19.534C2.39963 19.5228 2.3639 19.4951 2.34262 19.4571C2.31637 19.419 2.30752 19.3716 2.31823 19.3266C2.3288 19.2815 2.358 19.2432 2.39838 19.2206L9.6522 14.81L2.56583 18.8922C2.48863 18.9377 2.38937 18.9129 2.34262 18.8365C2.2968 18.7582 2.3215 18.6578 2.39838 18.6098L10.4304 13.6836L2.56583 18.2354C2.48754 18.2785 2.38937 18.2524 2.34262 18.1764C2.31979 18.1394 2.31295 18.095 2.32352 18.0529C2.33392 18.0109 2.36095 17.9749 2.39838 17.953L11.7701 12.1729L2.57577 17.4867C2.53849 17.509 2.4936 17.5155 2.45151 17.5044C2.40941 17.4932 2.37369 17.4655 2.35241 17.4275C2.30705 17.3503 2.3319 17.251 2.40817 17.2042L4.05014 16.219L2.56583 17.086C2.48692 17.1323 2.38549 17.1057 2.3392 17.0268C2.29307 16.9479 2.31948 16.8465 2.39838 16.8003L2.54284 16.7149C2.46828 16.7453 2.3827 16.7158 2.34262 16.6459C2.29711 16.5687 2.32196 16.4693 2.39838 16.4225L8.85754 12.498L2.56583 16.1303C2.52855 16.1527 2.48381 16.1591 2.44172 16.148C2.39963 16.1368 2.3639 16.1092 2.34262 16.0711C2.29711 15.9939 2.32196 15.8947 2.39838 15.8479L9.107 11.769L2.56583 15.5458C2.52855 15.5681 2.48381 15.5745 2.44172 15.5635C2.39963 15.5523 2.3639 15.5246 2.34262 15.4866C2.30736 15.4134 2.33113 15.3253 2.39838 15.2796L7.52094 12.1795L2.56583 15.0269C2.48801 15.0712 2.38906 15.0449 2.3434 14.9679C2.29758 14.8908 2.32212 14.7914 2.39838 14.7445L9.88208 10.1729L2.56583 14.3996C2.52855 14.422 2.48381 14.4283 2.44172 14.4173C2.39963 14.4061 2.3639 14.3785 2.34262 14.3404C2.29711 14.2632 2.32196 14.1639 2.39838 14.1172L5.51457 12.2418L2.5593 13.943C2.52202 13.9656 2.47713 13.9719 2.4352 13.9607C2.3931 13.9496 2.35722 13.9219 2.33594 13.884C2.29059 13.8068 2.31544 13.7074 2.39186 13.6606L4.77257 12.2418L2.56583 13.5096C2.48801 13.5539 2.38906 13.5276 2.3434 13.4506C2.29758 13.3735 2.32212 13.2741 2.39838 13.2272L10.4074 8.301L2.56583 12.8166C2.48754 12.8597 2.38937 12.8336 2.34262 12.7574C2.31979 12.7206 2.31295 12.6762 2.32352 12.6341C2.33392 12.592 2.36095 12.5561 2.39838 12.5342L9.19569 8.34357L2.56583 12.1729C2.48754 12.2159 2.38937 12.19 2.34262 12.1138C2.29711 12.0366 2.32196 11.9372 2.39838 11.8904L6.17472 9.59162L2.56583 11.6672C2.48754 11.7102 2.38937 11.6841 2.34262 11.608C2.29649 11.5317 2.31994 11.4326 2.39512 11.3848L9.4453 6.95446L2.56583 10.9282C2.52855 10.9508 2.48381 10.9571 2.44172 10.9459C2.39963 10.9348 2.3639 10.9071 2.34262 10.8692C2.29711 10.792 2.32196 10.6926 2.39838 10.6458L4.55915 9.3322L2.56583 10.4783C2.48785 10.5254 2.38642 10.5006 2.3392 10.4224C2.29214 10.3444 2.31715 10.243 2.39512 10.1959L7.35024 7.08914L2.56583 9.85105C2.48785 9.89595 2.38813 9.86954 2.34262 9.79187C2.31979 9.75505 2.31295 9.71062 2.32352 9.66852C2.33392 9.62642 2.36095 9.59054 2.39838 9.56863L4.7923 8.0874L2.56583 9.36824C2.48785 9.41546 2.38642 9.39045 2.3392 9.31247C2.29214 9.23448 2.31715 9.13304 2.39512 9.08582L7.57018 5.72939L2.56583 8.61946C2.48754 8.6625 2.38937 8.63655 2.34262 8.56043C2.29649 8.484 2.31994 8.38489 2.39512 8.33704L6.664 5.54562L2.56583 7.91015C2.48754 7.95318 2.38937 7.92708 2.34262 7.85096C2.29649 7.77469 2.31994 7.67558 2.39512 7.62773L5.64924 5.49296L2.56583 7.27308C2.48878 7.32108 2.38735 7.29762 2.3392 7.22041C2.29121 7.14336 2.31466 7.04192 2.39186 6.99392L5.31762 5.02334L2.56583 6.61611C2.48847 6.65977 2.39031 6.63522 2.34262 6.56034C2.29649 6.48391 2.31994 6.3848 2.39512 6.33696L3.48537 5.62438L2.56583 6.15318C2.48878 6.20118 2.38735 6.17773 2.3392 6.10052C2.29121 6.02347 2.31466 5.92202 2.39186 5.87402L3.34402 5.24347L2.56583 5.69335C2.49003 5.73545 2.3945 5.71262 2.34588 5.64085C2.30332 5.56985 2.32025 5.47835 2.38518 5.4274L4.38503 3.88714L2.56583 4.93806C2.49049 4.98373 2.39248 4.96027 2.34588 4.8854C2.29928 4.81316 2.31653 4.71716 2.38518 4.66543L3.25548 4.00862L2.56583 4.41252C2.49267 4.45555 2.39854 4.43567 2.34914 4.36654C2.30006 4.2985 2.3114 4.2042 2.37539 4.14983L3.17331 3.45683L2.58882 3.78523C2.51799 3.82624 2.42774 3.80869 2.37741 3.74422C2.32693 3.67975 2.33175 3.5881 2.3886 3.52906L2.7662 3.12843C2.71805 3.1205 2.67595 3.09161 2.65126 3.04966C2.62873 3.01238 2.62237 2.96749 2.63355 2.92539C2.64473 2.88344 2.67238 2.84756 2.71028 2.82628L3.45896 2.37639C3.5301 2.32917 3.62532 2.34424 3.67844 2.41088C3.73156 2.47768 3.72457 2.57399 3.6626 2.63256L3.36701 2.96096L4.44421 2.3402C4.51737 2.29717 4.61134 2.31705 4.66089 2.38618C4.71075 2.45344 4.70081 2.54774 4.6379 2.60304L3.82026 3.30909L5.50152 2.3402C5.57624 2.29577 5.67285 2.31736 5.72147 2.38944C5.76838 2.46292 5.75129 2.56001 5.68217 2.61283L4.81187 3.26964L6.41439 2.3402C6.48925 2.29577 6.58571 2.31736 6.63433 2.38944C6.68124 2.46292 6.66415 2.56001 6.59503 2.61283L4.59192 4.14331L7.72784 2.3402C7.80411 2.29515 7.90243 2.32016 7.94794 2.39612C7.99454 2.47162 7.97264 2.57058 7.8987 2.61935L6.94638 3.24991L8.51597 2.3402C8.59224 2.30198 8.68513 2.32855 8.72955 2.4014C8.77413 2.47411 8.75549 2.56887 8.68668 2.61935L7.59659 3.33208L9.31389 2.34688C9.39109 2.30136 9.4905 2.32622 9.53725 2.40265C9.58354 2.47721 9.56164 2.57508 9.48802 2.62262L6.5621 4.59319L10.4534 2.3402C10.4908 2.31534 10.5369 2.30726 10.5806 2.31783C10.6242 2.32839 10.6614 2.35682 10.6833 2.39612C10.7299 2.47162 10.7081 2.57058 10.634 2.61935L7.36996 4.77044L11.5534 2.3402C11.6306 2.29483 11.73 2.31969 11.7768 2.39612C11.8215 2.47193 11.8001 2.56949 11.7275 2.61935L7.45866 5.41093L12.7816 2.3402C12.8588 2.29483 12.958 2.31969 13.0048 2.39612C13.0497 2.47193 13.0281 2.56949 12.9556 2.61935L7.78034 5.98556L14.0918 2.3402C14.169 2.29483 14.2682 2.31969 14.315 2.39612C14.3608 2.47426 14.3361 2.57461 14.2592 2.62262L11.8653 4.11363L14.9159 2.3402C14.9922 2.30198 15.0851 2.32855 15.1295 2.4014C15.1741 2.47411 15.1555 2.56887 15.0867 2.61935L10.1348 5.72939L16.0029 2.3402C16.0801 2.29483 16.1794 2.31969 16.2261 2.39612C16.249 2.4334 16.256 2.47845 16.2456 2.52102C16.235 2.56358 16.208 2.60025 16.1704 2.62262L14.0129 3.93638L16.7844 2.3402C16.8607 2.30198 16.9535 2.32855 16.9981 2.4014C17.0425 2.47411 17.0239 2.56887 16.9551 2.61935L9.90165 7.06942L18.0716 2.3402C18.1488 2.29483 18.2482 2.31969 18.295 2.39612C18.3178 2.4334 18.3248 2.47845 18.3142 2.52102C18.3038 2.56358 18.2768 2.60025 18.239 2.62262L14.4661 4.92159L18.9385 2.3402C19.0157 2.29483 19.1151 2.31969 19.1618 2.39612C19.2075 2.47426 19.1828 2.57461 19.1061 2.62262L12.3054 6.81325L20.0517 2.3402C20.1289 2.29483 20.2283 2.31969 20.2751 2.39612C20.2979 2.4334 20.3049 2.47845 20.2943 2.52102C20.2839 2.56358 20.2567 2.60025 20.2192 2.62262L12.2168 7.54882L20.8628 2.57011C20.9407 2.52584 21.0396 2.55193 21.0853 2.62899C21.1309 2.70604 21.1065 2.80561 21.0303 2.85253L18.6463 4.2811L21.142 2.83948C21.1792 2.81696 21.224 2.81059 21.2661 2.82177C21.3082 2.83296 21.3439 2.86061 21.3652 2.89851C21.4107 2.97572 21.3858 3.07514 21.3094 3.1219L18.203 4.99057L21.3357 3.18093C21.4118 3.13013 21.5147 3.1508 21.5655 3.22692C21.6163 3.30319 21.5957 3.40603 21.5196 3.45683L14.0163 8.03489L21.4276 3.7655C21.4649 3.74313 21.5096 3.73676 21.5517 3.74779C21.5938 3.75898 21.6295 3.78678 21.651 3.82469C21.6963 3.9019 21.6715 4.00132 21.5951 4.04792L16.4725 7.14818L21.4276 4.27457C21.4649 4.2522 21.5096 4.24583 21.5517 4.25686C21.5938 4.26805 21.6295 4.2957 21.651 4.33376C21.6963 4.41097 21.6715 4.51023 21.5951 4.55699L14.8864 8.63593L21.4276 4.85914C21.5059 4.81611 21.6042 4.84221 21.651 4.91833C21.6963 4.99554 21.6715 5.0948 21.5951 5.14156L15.1393 9.06609L21.4276 5.4274C21.4649 5.40488 21.5096 5.39851 21.5517 5.40969C21.5938 5.42072 21.6295 5.44853 21.651 5.48643C21.6963 5.56364 21.6715 5.66306 21.5951 5.70982L21.4473 5.79837C21.5267 5.76544 21.6182 5.79915 21.657 5.87589C21.6957 5.95263 21.6688 6.0463 21.5951 6.09073L19.9532 7.07594L21.4211 6.22868C21.4989 6.18425 21.5978 6.2105 21.6435 6.28756C21.6892 6.36461 21.6648 6.46403 21.5885 6.5111L12.2201 12.2945L21.4144 6.97745C21.4518 6.95493 21.4966 6.94856 21.5387 6.95974C21.5808 6.97093 21.6165 6.99858 21.6378 7.03648C21.6831 7.11369 21.6583 7.21311 21.582 7.25987L13.55 12.1861L21.4276 7.63426C21.5048 7.58889 21.6042 7.61375 21.651 7.69003C21.6966 7.76832 21.6719 7.86867 21.5951 7.91668L14.3347 12.3405L21.4276 8.24508C21.4649 8.22271 21.5096 8.21634 21.5517 8.22737C21.5938 8.23855 21.6295 8.26621 21.651 8.30427C21.6963 8.38147 21.6715 8.48074 21.5951 8.5275L17.3722 11.076L21.4276 8.73442C21.5048 8.68906 21.6042 8.71392 21.651 8.79035C21.6966 8.86849 21.6719 8.96884 21.5951 9.01684L13.3398 14.0745L21.4276 9.40443C21.4649 9.38191 21.5096 9.37554 21.5517 9.38672C21.5938 9.39791 21.6295 9.42556 21.651 9.46346C21.6963 9.54067 21.6715 9.64009 21.5951 9.68685L16.4068 12.8264L21.4276 9.92655C21.5065 9.88026 21.6079 9.90682 21.6542 9.98574C21.7004 10.0647 21.674 10.1661 21.5951 10.2122L16.5644 13.2567L21.4276 10.4488C21.4649 10.4263 21.5096 10.4199 21.5517 10.4311C21.5938 10.4421 21.6295 10.47 21.651 10.5079C21.6963 10.5851 21.6715 10.6845 21.5951 10.7312L18.3114 12.7214L21.4408 10.9118C21.5191 10.8689 21.6173 10.8948 21.664 10.9709C21.7094 11.0482 21.6847 11.1476 21.6083 11.1943L14.3414 15.6672L21.4276 11.5752C21.5056 11.5304 21.6053 11.5568 21.651 11.6343C21.6736 11.6713 21.6805 11.7157 21.6699 11.7578C21.6595 11.7997 21.6325 11.8358 21.5951 11.8577L13.9111 16.6591L21.4276 12.324C21.5048 12.2787 21.6042 12.3034 21.651 12.3798C21.6736 12.4168 21.6805 12.4612 21.6699 12.5033C21.6595 12.5452 21.6325 12.5813 21.5951 12.6032L15.2805 16.5442L21.4276 12.9808C21.4781 12.9504 21.541 12.949 21.5926 12.9776C21.6443 13.006 21.6768 13.0597 21.678 13.1188C21.6791 13.1776 21.6488 13.2328 21.5983 13.2632L15.8748 16.8626L21.4276 13.6541C21.5054 13.6097 21.6044 13.6359 21.6502 13.713C21.6959 13.79 21.6713 13.8894 21.5951 13.9365L19.0666 15.4932L21.4276 14.1302C21.5048 14.0849 21.6042 14.1097 21.651 14.1862C21.6966 14.2643 21.6719 14.3647 21.5951 14.4127L20.8037 14.8955L21.4276 14.5376C21.5048 14.492 21.6042 14.5169 21.651 14.5933C21.6736 14.6303 21.6805 14.6747 21.6699 14.7168C21.6595 14.7588 21.6325 14.7948 21.5951 14.8167L19.7266 15.9726L21.4276 14.9874C21.5039 14.9492 21.5968 14.9758 21.6412 15.0485C21.6858 15.1213 21.6671 15.2161 21.5983 15.2666L17.8187 17.6871L21.4309 15.6015C21.5079 15.5535 21.6093 15.577 21.6575 15.6542C21.7055 15.7312 21.682 15.8327 21.605 15.8807L17.6415 18.4784L21.4276 16.2913C21.5047 16.2431 21.6061 16.2667 21.6542 16.3438C21.7022 16.4208 21.6788 16.5223 21.6016 16.5704L18.1865 18.8495L21.4276 16.9776C21.5059 16.9346 21.6042 16.9606 21.651 17.0368C21.6969 17.113 21.6736 17.2122 21.5983 17.26L21.2042 17.5096L21.4276 17.3815C21.5047 17.3335 21.6061 17.3571 21.6542 17.4341C21.7022 17.5112 21.6788 17.6126 21.6016 17.6606L19.8383 18.8365L21.4276 17.907C21.504 17.861 21.6031 17.8843 21.651 17.9595C21.6957 18.0353 21.6743 18.1331 21.6016 18.1829L20.5672 18.8922L21.4276 18.3964C21.5025 18.3519 21.5989 18.3735 21.6476 18.4456C21.6937 18.5185 21.6782 18.6143 21.6115 18.669L19.6906 20.1533L21.4276 19.1484C21.5034 19.1063 21.5989 19.1291 21.6476 19.2009C21.6945 19.2744 21.6774 19.3715 21.6083 19.4243L20.9186 19.9334L21.4276 19.641C21.5005 19.6036 21.5898 19.6256 21.637 19.6926C21.6841 19.7595 21.6746 19.8512 21.6148 19.9071L20.9581 20.472L21.4046 20.2058C21.4745 20.1693 21.5604 20.1877 21.6093 20.2495C21.6584 20.3113 21.6564 20.3991 21.605 20.4587L21.224 20.8628C21.2737 20.8687 21.3176 20.8981 21.3422 20.9416C21.3647 20.9788 21.3711 21.0236 21.3599 21.0657C21.3489 21.1078 21.3211 21.1435 21.2832 21.165L20.5345 21.6148C20.464 21.654 20.3757 21.6374 20.3243 21.5754C20.2698 21.5134 20.2698 21.4207 20.3243 21.3587L20.6197 21.0303L19.5494 21.6509C19.4761 21.6941 19.3821 21.674 19.3325 21.6049C19.2847 21.5355 19.2959 21.4412 19.3588 21.3849L20.0157 20.8201L18.5938 21.6509C18.5581 21.6728 18.5152 21.6795 18.4745 21.6695C18.4338 21.6597 18.3987 21.6341 18.377 21.5984C18.3529 21.564 18.3436 21.5215 18.351 21.4802C18.3583 21.4388 18.3819 21.4022 18.4164 21.3784L19.1027 20.8628L17.7465 21.6509C17.6718 21.6955 17.5752 21.6739 17.5265 21.6016C17.4772 21.5296 17.4932 21.4314 17.5626 21.3784L19.4837 19.8939L16.4396 21.6509C16.3635 21.6961 16.2651 21.6711 16.2196 21.5951C16.1724 21.5204 16.1926 21.4217 16.2656 21.3717L17.3032 20.6789L15.6089 21.6509C15.5317 21.6964 15.4323 21.6715 15.3855 21.5951C15.3406 21.5193 15.3622 21.4217 15.4347 21.3717L17.208 20.2058L14.6893 21.6509C14.6131 21.6891 14.5203 21.6627 14.4758 21.5898C14.4312 21.517 14.4498 21.4222 14.5186 21.3717L14.9094 21.1222L13.9933 21.6509C13.9161 21.699 13.8147 21.6754 13.7667 21.5984C13.7185 21.5213 13.7421 21.4199 13.8192 21.3717L17.231 19.0926L12.8013 21.6509C12.7241 21.6964 12.6247 21.6715 12.578 21.5951C12.5331 21.5193 12.5547 21.4217 12.6272 21.3717L16.594 18.7773L11.6059 21.6509C11.5298 21.6961 11.4315 21.6711 11.386 21.5951C11.3411 21.5193 11.3627 21.4217 11.4352 21.3717L15.2148 18.9579L10.5519 21.6509C10.4756 21.6891 10.3827 21.6627 10.3383 21.5898C10.2937 21.517 10.3123 21.4222 10.3812 21.3717L12.2496 20.2058L9.76046 21.6509C9.73592 21.6664 9.70749 21.6745 9.67845 21.6739Z" fill="#FAB153"/>
<path fill-rule="evenodd" clip-rule="evenodd" d="M9.53365 9.67608C9.47793 9.67471 9.42653 9.64545 9.39713 9.59827C9.35081 9.52382 9.37251 9.42639 9.44592 9.37814L10.5619 8.62677L9.48825 9.24533C9.41237 9.28792 9.31633 9.26371 9.27016 9.19034C9.22307 9.11849 9.24169 9.02229 9.31249 8.97328L11.8373 7.16953L9.48825 8.52C9.41376 8.55539 9.32434 8.52981 9.28032 8.46026C9.2363 8.39087 9.25154 8.29957 9.31572 8.24795L11.0596 7.05296L9.48825 7.95644C9.41376 7.99198 9.32434 7.96624 9.28032 7.89685C9.2363 7.8273 9.25154 7.73601 9.31572 7.68438L10.8548 6.64166L9.48825 7.42535C9.41299 7.46793 9.31756 7.44465 9.27078 7.37219C9.22399 7.29989 9.2423 7.20369 9.31249 7.15329L11.717 5.44988L9.48825 6.74521C9.41237 6.78795 9.31633 6.76359 9.27016 6.69022C9.22307 6.61837 9.24169 6.52233 9.31249 6.47331L11.8406 4.66298L9.48825 6.00364C9.41176 6.05113 9.31125 6.02785 9.2637 5.95187C9.21599 5.87589 9.23938 5.77586 9.31572 5.72837L10.653 4.82489L9.48825 5.49523C9.41145 5.53827 9.31433 5.51407 9.26693 5.44023C9.22245 5.36548 9.24384 5.26913 9.31572 5.21995L9.45562 5.12605C9.38621 5.14826 9.31048 5.12176 9.27016 5.06125C9.22368 4.98895 9.24061 4.89321 9.30925 4.84113L10.3732 4.06066L9.48825 4.56907C9.41406 4.61288 9.31849 4.59159 9.27016 4.52051C9.2246 4.44867 9.23984 4.35416 9.30602 4.30024L9.92411 3.82429L9.48825 4.09298C9.41899 4.13112 9.33249 4.11626 9.28001 4.05744C9.22922 3.99632 9.22922 3.90793 9.28001 3.84696L9.93073 3.11827L9.50117 3.36443C9.44685 3.39997 9.37651 3.39997 9.32218 3.36443C9.27139 3.32583 9.24738 3.26149 9.26047 3.19915L9.36127 2.75553C9.32711 2.74113 9.29863 2.71616 9.28001 2.68429C9.25769 2.64753 9.25138 2.60341 9.26247 2.5619C9.27339 2.52039 9.30094 2.48516 9.3385 2.46417L9.50117 2.37011C9.5555 2.33458 9.62584 2.33458 9.68017 2.37011C9.73234 2.4078 9.75681 2.4729 9.74188 2.5354L9.66062 2.90136L10.5911 2.34101C10.6604 2.30302 10.7469 2.31788 10.7994 2.3767C10.8502 2.43767 10.8502 2.52606 10.7994 2.58718L10.1617 3.31587L11.8633 2.34423C11.9374 2.30133 12.0322 2.32431 12.078 2.39616C12.1267 2.46631 12.1108 2.56205 12.0423 2.61306L11.4241 3.08916L12.7255 2.34423C12.7995 2.3047 12.8917 2.32783 12.9381 2.39753C12.9845 2.46723 12.9699 2.56068 12.9045 2.61306L11.8373 3.39032L13.6691 2.33458C13.7459 2.29153 13.843 2.31573 13.8904 2.38957C13.9349 2.46432 13.9135 2.56068 13.8416 2.60985L13.7505 2.67143L14.3361 2.34744C14.4119 2.30486 14.5081 2.32906 14.5541 2.40259C14.6007 2.4752 14.5804 2.57155 14.5087 2.6195L13.1714 3.51333L14.5119 2.74266C14.5869 2.69931 14.6826 2.72213 14.7298 2.79443C14.7757 2.8675 14.7572 2.9634 14.6875 3.01456L12.1594 4.82167L14.5119 3.4712C14.5866 3.42617 14.6837 3.4493 14.7298 3.52313C14.7774 3.59589 14.7586 3.69301 14.6875 3.74326L12.283 5.44667L14.5119 4.15134C14.5882 4.10385 14.6887 4.12714 14.7363 4.20312C14.784 4.2791 14.7606 4.37913 14.6843 4.42661L13.1454 5.46934L14.5119 4.68243C14.5882 4.63494 14.6887 4.65823 14.7363 4.73421C14.784 4.81019 14.7606 4.91022 14.6843 4.9577L12.9404 6.14948L14.5119 5.25886C14.587 5.21735 14.6817 5.23971 14.7298 5.31064C14.7792 5.3831 14.7603 5.48159 14.6875 5.53092L12.1627 7.33145L14.5119 5.98097C14.5873 5.93655 14.6847 5.96121 14.7298 6.03612C14.7766 6.10965 14.7566 6.20707 14.6843 6.25625L13.5651 7.00761L14.5119 6.4635C14.5844 6.42107 14.6777 6.44068 14.7266 6.50885C14.776 6.57518 14.7662 6.66816 14.7038 6.72254L13.7114 7.61315L14.5119 7.15329C14.5844 7.11086 14.6777 7.13047 14.7266 7.19864C14.7742 7.26711 14.7629 7.36024 14.7006 7.4157L14.2483 7.80754L14.5119 7.65528C14.5844 7.61254 14.678 7.63199 14.7271 7.70031C14.7762 7.76863 14.7646 7.863 14.7006 7.91753L14.5867 8.0148C14.6407 8.01005 14.6929 8.03487 14.7234 8.07944C14.7735 8.14501 14.7651 8.23784 14.7038 8.29329L14.5899 8.40006C14.6364 8.40006 14.6811 8.41875 14.7135 8.45199C14.7611 8.50928 14.7611 8.59215 14.7135 8.64944L14.4924 8.97328C14.5293 8.95122 14.5736 8.94494 14.6153 8.95581C14.657 8.96684 14.6924 8.99411 14.7135 9.03164C14.7583 9.10961 14.7323 9.20872 14.655 9.25498L14.0759 9.59827C14.0103 9.63718 13.9266 9.62553 13.8741 9.57039C13.8218 9.51524 13.815 9.43114 13.8578 9.36834L14.0759 9.04451L13.604 9.31656C13.5331 9.35777 13.4423 9.33969 13.3925 9.27444C13.3448 9.20719 13.3531 9.11528 13.4121 9.05753L13.4609 9.01218L13.2819 9.11574C13.2094 9.15832 13.1163 9.13856 13.0672 9.07039C13.0198 9.00192 13.0309 8.90894 13.0932 8.85349L13.1258 8.8276L12.9631 8.9215C12.8893 8.96025 12.7982 8.93957 12.7483 8.87294C12.698 8.8063 12.7095 8.71194 12.7745 8.65925L13.2234 8.2674L12.5401 8.65925C12.4706 8.70444 12.3781 8.6905 12.3254 8.62677C12.276 8.56044 12.2858 8.46761 12.3481 8.41308L13.3242 7.52247L9.61507 9.65341C9.59059 9.66843 9.56243 9.67624 9.53365 9.67608Z" fill="#FFD67B"/>
<path d="M21.903 6.32982C21.903 4.77303 22.4087 2.36139 20.2399 2.21836C18.1808 2.07864 16.0719 2.1485 13.9828 2.19177H9.765C7.81579 2.15511 5.85652 2.10192 3.92383 2.21836C1.70179 2.36469 2.12426 4.52018 2.12426 6.13675V16.3356C2.12426 17.8856 1.36916 21.4982 3.58129 21.8009C4.43521 21.8574 5.29196 21.8574 6.14588 21.8009H20.19C20.2262 21.8077 20.2635 21.8077 20.2996 21.8009C22.5916 21.4316 21.903 18.4079 21.903 16.7048V6.32982ZM14.4319 3.22286C14.4319 3.75186 14.4319 9.09392 14.2689 9.43992C13.6768 9.06402 13.0115 8.43873 12.3463 8.25904C11.681 8.07951 11.0856 8.66484 10.5601 8.98755C10.2274 9.19053 9.83156 9.65281 9.58877 9.2969C9.49893 9.16724 9.58877 8.63164 9.58877 8.49522V5.27528C9.58877 4.4404 9.765 3.38917 9.58877 2.57428C9.58877 2.57428 9.58877 2.55099 9.58877 2.53762C10.0111 2.57758 10.4602 2.53762 10.8859 2.53762C11.9538 2.53762 13.0515 2.60748 14.1159 2.53762C14.2264 2.52377 14.3381 2.52377 14.4486 2.53762C14.4552 2.76624 14.4497 2.99486 14.4319 3.22286ZM20.3662 21.5181H5.73001C5.18779 21.5181 4.32302 21.6911 3.80409 21.5181C2.41693 21.0524 2.60323 20.0877 2.60323 18.98V6.08357C2.60323 5.41831 2.40041 4.38706 2.60323 3.75516C3.23859 1.73263 6.64482 2.51102 8.21828 2.51102H9.10965V8.11601C9.10965 8.47193 8.99668 9.01415 9.10965 9.35685C9.3891 10.2282 10.1075 9.68948 10.6498 9.35685C11.192 9.02422 11.6676 8.52511 12.2298 8.69143C12.792 8.85774 13.4573 9.4533 13.9795 9.77586C14.0031 9.78971 14.0291 9.79867 14.056 9.80245H14.0827C15.3566 10.0553 14.9176 7.90973 14.9176 7.21788V2.51102H17.449C18.2639 2.51102 19.222 2.37461 20.027 2.51102C21.3808 2.7439 21.4174 3.53551 21.4174 4.53025V18.4046C21.4174 19.286 21.7733 21.2754 20.3662 21.5115V21.5181Z" fill="#262626"/>
<path fill-rule="evenodd" clip-rule="evenodd" d="M14.4352 17.3968V20.0578C14.4352 20.1376 14.9143 20.0578 14.9143 19.9315V17.2703C14.9143 17.1905 14.4352 17.257 14.4352 17.3968Z" fill="#262626"/>
<path fill-rule="evenodd" clip-rule="evenodd" d="M19.7541 17.3535V20.0145C19.7541 20.2608 20.2398 20.1809 20.2398 19.9747V17.3135C20.2398 17.0674 19.7541 17.1472 19.7541 17.3535Z" fill="#262626"/>
<path fill-rule="evenodd" clip-rule="evenodd" d="M15.7659 17.3968V19.3925C15.7659 19.5389 16.2448 19.449 16.2448 19.2662V17.2703C16.2448 17.1239 15.7659 17.2138 15.7659 17.3968Z" fill="#262626"/>
<path fill-rule="evenodd" clip-rule="evenodd" d="M17.0964 17.3968V19.3925C17.0964 19.5356 17.5754 19.4457 17.5754 19.2662V17.2703C17.5754 17.1272 17.0964 17.2171 17.0964 17.3968Z" fill="#262626"/>
<path fill-rule="evenodd" clip-rule="evenodd" d="M18.4236 17.3535V19.3493C18.4236 19.5888 18.9093 19.509 18.9093 19.3093V17.3135C18.9093 17.0741 18.4236 17.1538 18.4236 17.3535Z" fill="#262626"/>
<path fill-rule="evenodd" clip-rule="evenodd" d="M8.03858 19.8049H4.04686C3.76411 19.8049 3.68434 20.1842 4.01366 20.1842H8.0219C8.28813 20.1842 8.35453 19.8049 8.03858 19.8049Z" fill="#262626"/>
<path fill-rule="evenodd" clip-rule="evenodd" d="M4.22987 17.0708L4.45267 16.8511V18.684C4.45267 18.9336 4.9384 18.8569 4.9384 18.6441V16.8944L5.13461 17.0873C5.23783 17.1905 5.6902 17.0141 5.58698 16.9143L4.92172 16.2491C4.86193 16.0961 4.58909 16.1693 4.48933 16.2491L3.82407 16.9143C3.61779 17.1439 4.08023 17.2204 4.22987 17.0708Z" fill="#262626"/>
<path fill-rule="evenodd" clip-rule="evenodd" d="M7.58621 16.2458C7.57582 16.2315 7.56025 16.222 7.54294 16.2192C7.41328 16.1559 7.13384 16.259 7.11386 16.3655L6.47188 17.0009C6.35214 17.1173 6.80451 17.074 6.91088 16.9809L7.11716 16.7779V18.7172C7.11716 18.8237 7.59612 18.7473 7.59612 18.5909V16.8977L7.7991 17.0973C7.92214 17.2237 8.38112 17.0407 8.24486 16.9044L7.58621 16.2458Z" fill="#262626"/>
</svg>
