<svg width="24" height="24" viewBox="0 0 24 24" fill="none" xmlns="http://www.w3.org/2000/svg">
<g clip-path="url(#clip0_184_4422)">
<path d="M8.06239 20.188C7.99399 20.188 7.92759 20.1528 7.89039 20.09C7.83439 19.996 7.86479 19.874 7.95839 19.8172L8.77199 19.3216L7.31799 20.1612C7.22399 20.2164 7.10319 20.1852 7.04679 20.0916C6.99039 19.998 7.01919 19.8772 7.11119 19.8188L14.892 14.9084L5.79359 20.1612C5.69839 20.216 5.57839 20.1844 5.52199 20.0908C5.46559 19.9972 5.49519 19.876 5.58759 19.818L13.3104 15.0088L4.38639 20.1612C4.29079 20.2164 4.16999 20.1844 4.11399 20.09C4.05799 19.9956 4.08919 19.8736 4.18279 19.8168L6.91879 18.1608L3.45439 20.1608C3.35919 20.2156 3.23839 20.1844 3.18239 20.09C3.12639 19.9964 3.15639 19.8748 3.24959 19.8172L11.4392 14.7752L2.11079 20.1608C2.01519 20.216 1.89399 20.184 1.83839 20.0892C1.78239 19.9948 1.81359 19.8732 1.90759 19.8164L5.43999 17.6864L1.28599 20.0844C1.19039 20.1392 1.06919 20.1076 1.01399 20.0132C0.95799 19.9192 0.98839 19.7972 1.08199 19.7404L8.47199 15.2464L0.75999 19.6996C0.66479 19.7544 0.54279 19.7228 0.48759 19.628C0.43159 19.5336 0.46279 19.412 0.55679 19.3552L5.48279 16.3844L0.54319 19.236C0.44759 19.2912 0.32679 19.2592 0.27079 19.1644C0.21479 19.0704 0.24599 18.9484 0.33959 18.8916L6.03959 15.45L0.51159 18.6416C0.41599 18.6968 0.29519 18.6644 0.23919 18.5704C0.18319 18.476 0.21439 18.354 0.30799 18.2972L6.71319 14.4212L0.51199 18.0016C0.41639 18.0572 0.29559 18.0248 0.23999 17.9304C0.18399 17.8364 0.21439 17.7144 0.30799 17.6576L7.95839 13.0028L0.51199 17.302C0.41679 17.3568 0.29599 17.3252 0.24039 17.2316C0.18399 17.138 0.21399 17.0164 0.30679 16.9588L10.3988 10.712L0.51199 16.4204C0.41679 16.4752 0.29599 16.444 0.23999 16.3496C0.18399 16.2552 0.21439 16.134 0.30719 16.0764L7.29519 11.7932L0.51199 15.7096C0.41679 15.7648 0.29599 15.7332 0.24039 15.6392C0.18399 15.5456 0.21399 15.424 0.30679 15.3664L7.79919 10.7292L0.51199 14.9372C0.41639 14.992 0.29559 14.9604 0.23959 14.8656C0.18359 14.7708 0.21479 14.6496 0.30839 14.5928L0.49759 14.4788C0.40599 14.522 0.29399 14.4896 0.24039 14.4012C0.18399 14.3076 0.21359 14.186 0.30599 14.1284L6.88439 10.0236L0.51199 13.7028C0.41679 13.7576 0.29599 13.7264 0.23999 13.632C0.18399 13.5384 0.21399 13.4168 0.30719 13.3592L3.47999 11.4084L0.51199 13.122C0.41679 13.1768 0.29599 13.1456 0.23999 13.0512C0.18399 12.9576 0.21399 12.836 0.30679 12.7784L3.21639 10.9824L0.51159 12.544C0.41759 12.598 0.29719 12.5684 0.24079 12.4744C0.18399 12.3816 0.21239 12.2608 0.30359 12.202L5.93959 8.5984L0.51199 11.7328C0.41799 11.7868 0.29799 11.7568 0.24119 11.664C0.18439 11.5712 0.21239 11.4504 0.30359 11.3916L5.17239 8.2516L0.51199 10.942C0.41799 10.9964 0.29759 10.966 0.24119 10.8728C0.18439 10.78 0.21279 10.6588 0.30399 10.6004L3.61359 8.478L0.51159 10.2692C0.41759 10.3232 0.29839 10.2932 0.24119 10.2008C0.18439 10.1088 0.21119 9.9884 0.30159 9.9288L3.77679 7.6452L0.51199 9.5304C0.41799 9.5836 0.29919 9.5544 0.24199 9.4628C0.18479 9.3712 0.21119 9.2512 0.30039 9.1908L3.28719 7.1904L0.51199 8.7928C0.41799 8.846 0.29959 8.8168 0.24239 8.7256C0.18519 8.6344 0.21079 8.514 0.30039 8.4536L2.32279 7.0928L0.51239 8.138C0.41839 8.1924 0.29839 8.1616 0.24199 8.0696C0.18519 7.9776 0.21239 7.8568 0.30279 7.7976L0.45679 7.6972C0.37559 7.7144 0.29119 7.6828 0.24439 7.6108C0.18639 7.5216 0.20879 7.4024 0.29519 7.34L1.97319 6.1248L0.51239 6.9684C0.42239 7.0204 0.30679 6.9944 0.24759 6.9084C0.18879 6.8224 0.20559 6.7052 0.28679 6.6396L1.74119 5.4644L0.51279 6.1736C0.42559 6.2248 0.31199 6.2016 0.25199 6.1188C0.19159 6.0368 0.20239 5.9224 0.27719 5.8532L1.11319 5.0804L0.51279 5.4272C0.42879 5.4752 0.32159 5.4568 0.25879 5.382C0.19679 5.3068 0.19759 5.1984 0.26079 5.124L0.62879 4.6928C0.56639 4.6872 0.50679 4.652 0.47319 4.5936C0.41759 4.498 0.45039 4.3756 0.54639 4.3204L1.36639 3.8468C1.45039 3.7988 1.55759 3.8172 1.62039 3.892C1.68239 3.9672 1.68159 4.0756 1.61839 4.15L1.32079 4.4984L2.46519 3.8376C2.55319 3.7876 2.66599 3.81 2.72599 3.8924C2.78639 3.9744 2.77559 4.0888 2.70079 4.158L1.86479 4.9308L3.75719 3.838C3.84719 3.786 3.96279 3.812 4.02199 3.898C4.08079 3.984 4.06399 4.1012 3.98279 4.1668L2.52839 5.342L5.13319 3.838C5.22439 3.7844 5.34279 3.8132 5.40119 3.9024C5.45919 3.9916 5.43679 4.1108 5.35039 4.1732L3.67279 5.388L6.35719 3.838C6.45079 3.784 6.57079 3.8144 6.62759 3.9064C6.68439 3.9984 6.65719 4.1192 6.56679 4.1784L6.54439 4.1932L7.15959 3.838C7.25279 3.784 7.37159 3.8136 7.42919 3.9052C7.48639 3.9968 7.46079 4.1168 7.37119 4.1772L5.35039 5.5372L8.29279 3.838C8.38599 3.784 8.50519 3.8136 8.56279 3.9056C8.61999 3.9972 8.59359 4.1172 8.50439 4.1776L5.51639 6.1788L9.57039 3.838C9.66439 3.784 9.78359 3.8136 9.84079 3.9064C9.89759 3.9984 9.87079 4.1188 9.78039 4.1784L6.30519 6.462L10.85 3.8376C10.9444 3.7832 11.0644 3.814 11.1208 3.9068C11.1776 3.9996 11.1496 4.1208 11.058 4.1792L7.74639 6.3028L12.0164 3.8376C12.1104 3.7836 12.2308 3.814 12.2872 3.9064C12.344 3.9992 12.316 4.12 12.2248 4.1788L7.35759 7.3176L13.3852 3.8372C13.48 3.7828 13.5996 3.8136 13.656 3.9064C13.7128 3.9992 13.6844 4.1204 13.5932 4.1788L7.95559 7.7836L14.7912 3.8372C14.8856 3.7828 15.0064 3.8136 15.0632 3.908C15.1192 4.002 15.0892 4.1232 14.9964 4.1808L12.0888 5.9756L15.792 3.8376C15.8864 3.7832 16.0072 3.8144 16.064 3.9084C16.12 4.0024 16.09 4.124 15.9968 4.1812L12.8216 6.1336L16.798 3.8376C16.8928 3.7832 17.0128 3.814 17.0696 3.908C17.126 4.0016 17.0964 4.1228 17.004 4.1808L10.4284 8.284L18.1288 3.838C18.2236 3.7828 18.3448 3.8148 18.4012 3.9096C18.4572 4.004 18.426 4.126 18.3324 4.1828L18.1744 4.2776L18.9356 3.838C19.0304 3.7836 19.1512 3.8144 19.2072 3.9084C19.2636 4.0024 19.2336 4.1236 19.1408 4.1812L11.6448 8.8204L20.2744 3.838C20.3688 3.7836 20.4896 3.8148 20.5464 3.9088C20.6024 4.0028 20.572 4.1244 20.4792 4.1816L13.4892 8.466L21.5052 3.838C21.5996 3.7836 21.7208 3.8144 21.7768 3.9084C21.8332 4.0024 21.8032 4.1236 21.7104 4.1812L11.6156 10.4296L22.8212 3.9604C22.9164 3.9052 23.0372 3.9372 23.0932 4.0316C23.1492 4.1256 23.1188 4.2476 23.0252 4.3044L15.3748 8.9592L23.2988 4.3844C23.3936 4.3292 23.5148 4.3612 23.5712 4.456C23.6272 4.5504 23.596 4.672 23.5024 4.7288L17.104 8.6012L23.4824 4.9184C23.5768 4.8632 23.6984 4.8952 23.7548 4.99C23.8108 5.0844 23.7796 5.2064 23.686 5.2632L17.9844 8.7056L23.4896 5.5272C23.5844 5.472 23.706 5.5036 23.762 5.5988C23.818 5.6932 23.7868 5.8152 23.6928 5.8716L18.7652 8.8432L23.49 6.1152C23.5848 6.06 23.706 6.092 23.762 6.1864C23.818 6.2808 23.7876 6.4024 23.694 6.4592L16.3024 10.9544L23.4904 6.8044C23.5852 6.7492 23.7068 6.7812 23.7628 6.876C23.8188 6.9704 23.7876 7.0924 23.6936 7.1488L20.1584 9.2804L23.4904 7.3564C23.5848 7.3016 23.7056 7.3328 23.7624 7.4272C23.8184 7.5208 23.7884 7.6424 23.6952 7.7L15.506 12.7416L23.4904 8.132C23.5852 8.0768 23.7064 8.1088 23.7628 8.2036C23.8188 8.298 23.7876 8.4196 23.694 8.4764L20.9648 10.128L23.4904 8.6696C23.5848 8.6148 23.7056 8.6464 23.762 8.74C23.8184 8.8336 23.7888 8.9552 23.6964 9.0128L15.9716 13.8232L23.4904 9.4824C23.5852 9.4284 23.7056 9.4592 23.7616 9.5524C23.818 9.6456 23.7892 9.7668 23.6972 9.8248L15.9176 14.7344L23.4908 10.362C23.5856 10.3072 23.7068 10.3384 23.7628 10.4332C23.8188 10.5272 23.7884 10.6492 23.6948 10.706L22.8768 11.204L23.4908 10.8496C23.5856 10.7952 23.706 10.8264 23.762 10.9196C23.8184 11.0128 23.7896 11.134 23.6976 11.192L18.0428 14.7624L23.4908 11.6168C23.5852 11.562 23.706 11.5936 23.7624 11.6872C23.8188 11.7808 23.7892 11.9024 23.6968 11.96L20.7428 13.7988L23.4908 12.2124C23.5856 12.1584 23.706 12.1892 23.762 12.282C23.8184 12.3748 23.79 12.496 23.6984 12.5544L19.4864 15.2384L23.4912 12.9264C23.5856 12.872 23.7044 12.9024 23.7616 12.9944C23.8184 13.0864 23.7916 13.2068 23.7016 13.2668L18.9284 16.4092L23.4912 13.7752C23.5844 13.7204 23.704 13.7508 23.7608 13.8424C23.818 13.934 23.7924 14.054 23.7028 14.1144L19.5956 16.8736L23.4908 14.6248C23.584 14.5704 23.704 14.6 23.7608 14.6928C23.818 14.7844 23.7912 14.9048 23.7012 14.9648L21.3528 16.518L23.4912 15.2836C23.5844 15.2288 23.7032 15.2592 23.7608 15.3508C23.818 15.442 23.7924 15.562 23.7032 15.6224L21.702 16.974L23.4912 15.9412C23.584 15.8868 23.7024 15.9164 23.76 16.0072C23.8176 16.098 23.7932 16.2172 23.7052 16.2788L22.0848 17.4028L23.4912 16.5912C23.5824 16.5368 23.7012 16.5664 23.7592 16.6556C23.8172 16.7456 23.7944 16.8644 23.7076 16.9268L22.5044 17.79L23.4912 17.2204C23.5796 17.1688 23.6944 17.1932 23.7536 17.2772C23.8136 17.3608 23.8004 17.476 23.7232 17.544L22.2924 18.7988L23.4912 18.1068C23.5752 18.0568 23.684 18.0768 23.7472 18.1544C23.8088 18.2308 23.8056 18.3412 23.7392 18.414L23.0484 19.1748L23.448 18.9444C23.5432 18.8884 23.666 18.9216 23.7212 19.0176C23.7768 19.1132 23.744 19.2356 23.648 19.2908L22.1408 20.1608C22.056 20.21 21.9476 20.1904 21.8848 20.1132C21.8232 20.0368 21.8264 19.9264 21.8928 19.8536L22.5832 19.0928L20.7328 20.1612C20.6448 20.2132 20.5304 20.1888 20.4704 20.1044C20.4104 20.0208 20.4236 19.9056 20.5008 19.8376L21.9316 18.5832L19.1984 20.1608C19.1068 20.2144 18.988 20.1856 18.9304 20.0964C18.8724 20.0064 18.8952 19.8876 18.982 19.8252L20.1848 18.9624L18.1088 20.1608C18.016 20.2148 17.8976 20.1856 17.84 20.0948C17.7824 20.004 17.8068 19.8848 17.8948 19.8232L19.5156 18.6988L16.9836 20.1604C16.8892 20.2144 16.7712 20.1844 16.714 20.0932C16.6568 20.002 16.6824 19.882 16.7716 19.8216L18.7728 18.47L15.8452 20.1604C15.7516 20.2144 15.6316 20.1848 15.5752 20.0924C15.518 20.0008 15.5448 19.8804 15.6348 19.8204L17.9812 18.2688L14.7048 20.1604C14.6108 20.2144 14.4916 20.1844 14.4352 20.0932C14.378 20.0016 14.4036 19.8816 14.4932 19.8212L18.6024 17.0604L13.2324 20.1604C13.1384 20.2152 13.0192 20.1844 12.962 20.0924C12.9052 20.0004 12.932 19.88 13.022 19.82L17.794 16.6784L11.7624 20.1604C11.668 20.2156 11.5476 20.1844 11.4912 20.0912C11.4348 19.998 11.4632 19.8772 11.5548 19.8184L15.7684 17.1336L10.526 20.16C10.4308 20.2148 10.3108 20.1832 10.2544 20.0896C10.198 19.996 10.2276 19.8748 10.32 19.8168L13.2712 17.9796L9.49519 20.1596C9.40119 20.2148 9.28079 20.1836 9.22399 20.09C9.16759 19.9968 9.19639 19.8756 9.28839 19.8172L14.9444 16.246L8.16599 20.1592C8.13439 20.1776 8.09999 20.186 8.06599 20.186L8.06239 20.188Z" fill="#4495E5"/>
<path d="M3.33998 10.188C3.27638 10.188 3.21398 10.1572 3.17518 10.1012C3.11638 10.0152 3.13318 9.898 3.21438 9.8324L4.27118 8.978L2.70318 9.8836C2.61238 9.9364 2.49558 9.9092 2.43758 9.8224C2.37878 9.7352 2.39718 9.6176 2.47998 9.5528L3.72078 8.5828L2.51238 9.2804C2.42118 9.3328 2.30398 9.3056 2.24558 9.2172C2.18718 9.1288 2.20758 9.0104 2.29238 8.9472L2.68118 8.6556L2.51238 8.7532C2.42678 8.8028 2.31678 8.782 2.25438 8.7032C2.19318 8.6248 2.19878 8.5128 2.26838 8.4412L2.98598 7.6992L2.51198 7.9728C2.42958 8.0204 2.32358 8.0036 2.26078 7.9304C2.19798 7.858 2.19558 7.7512 2.25478 7.6756L2.47958 7.3904C2.42798 7.378 2.38158 7.3456 2.35318 7.296C2.29758 7.2004 2.33038 7.078 2.42638 7.0228L3.08878 6.6404C3.17158 6.5932 3.27758 6.61 3.33998 6.6828C3.40278 6.7552 3.40518 6.862 3.34598 6.9376L3.21278 7.1068L4.02158 6.6396C4.10758 6.5904 4.21718 6.6108 4.27958 6.6896C4.34078 6.768 4.33518 6.88 4.26558 6.9516L3.54798 7.6936L5.37398 6.6392C5.46478 6.586 5.58238 6.614 5.64078 6.7024C5.69918 6.7908 5.67878 6.9092 5.59398 6.9724L5.20558 7.2636L5.98878 6.8116C6.07918 6.7588 6.19638 6.786 6.25438 6.8728C6.31318 6.96 6.29478 7.0776 6.21198 7.1424L4.97158 8.1124L6.28198 7.3556C6.37198 7.3036 6.48758 7.3296 6.54678 7.4156C6.60558 7.5016 6.58878 7.6188 6.50758 7.6844L5.44998 8.5392L6.28758 8.056C6.37198 8.0072 6.47998 8.0264 6.54318 8.1032C6.60478 8.1796 6.60198 8.2896 6.53638 8.3628L5.79598 9.188L6.28758 8.9044C6.37118 8.8564 6.47878 8.8748 6.54118 8.9496C6.60358 9.0244 6.60278 9.1332 6.53998 9.2072L6.35558 9.4236C6.39238 9.4404 6.42478 9.468 6.44638 9.506C6.50198 9.6016 6.46918 9.724 6.37318 9.7792L5.71158 10.1616C5.62758 10.2096 5.51998 10.1916 5.45798 10.1164C5.39558 10.0416 5.39638 9.9328 5.45918 9.8588L5.48238 9.832L4.90958 10.1628C4.82478 10.2112 4.71678 10.192 4.65398 10.1156C4.59238 10.0392 4.59518 9.9292 4.66078 9.856L5.40158 9.0304L3.43998 10.1628C3.40878 10.1808 3.37398 10.1896 3.33998 10.1896V10.188Z" fill="#FDCF14"/>
<path d="M18.9384 17.788C18.8792 17.788 18.8208 17.7616 18.7812 17.7124C18.72 17.6344 18.7244 17.5232 18.7924 17.4512L19.7196 16.4668L18.114 17.3936C18.026 17.4456 17.9116 17.4208 17.8516 17.3372C17.792 17.2536 17.8048 17.1384 17.882 17.0704L18.1988 16.7916L18.1116 16.8416C18.036 16.8848 17.9412 16.8756 17.8768 16.8164C17.8124 16.758 17.7936 16.6644 17.83 16.5852L18.0628 16.078C17.9864 16.0904 17.902 16.0536 17.8596 15.9804C17.804 15.8848 17.8368 15.7624 17.9328 15.7072L18.3972 15.4392C18.4724 15.396 18.5676 15.4056 18.632 15.4644C18.6964 15.5228 18.7152 15.6164 18.6788 15.6956L18.4556 16.1808L19.7408 15.4392C19.8292 15.3876 19.9436 15.412 20.0032 15.4956C20.0628 15.5792 20.05 15.6944 19.9728 15.7624L19.6564 16.0412L20.6988 15.4392C20.784 15.3888 20.8936 15.4104 20.9556 15.488C21.0176 15.5656 21.0128 15.6772 20.9448 15.7492L20.0172 16.7336L21.0876 16.116C21.1696 16.0684 21.2736 16.0852 21.3364 16.1556C21.3996 16.2264 21.4048 16.3312 21.3488 16.4076L20.9584 16.9388L21.0872 16.8644C21.1824 16.8084 21.3052 16.8416 21.3604 16.9376C21.416 17.0332 21.3832 17.1556 21.2872 17.2108L20.3336 17.7612C20.2524 17.8096 20.148 17.792 20.0848 17.7216C20.0216 17.6508 20.0164 17.546 20.0724 17.4696L20.4624 16.9388L19.0376 17.7612C19.0064 17.7796 18.972 17.788 18.9376 17.788H18.9384Z" fill="#E4EAEA"/>
<path d="M1.5872 20.1448C5.698 20.15 9.8092 20.1416 13.92 20.1448H21.8572C23.2824 20.3352 24.146 19.2064 23.8896 17.8496C23.4312 15.6124 25.1448 3.2984 22.5824 3.8588C15.6656 3.862 8.748 3.8368 1.8316 3.8552C-0.903604 3.9052 0.391996 7.452 0.109996 9.21V18.4176C-0.0392044 19.3532 0.600396 20.2144 1.5872 20.1448ZM0.689596 5.1568C0.739196 4.0444 1.6164 4.1448 2.3976 4.1448C8.9948 4.1828 15.5972 4.082 22.1916 4.1448C24.2408 4.3664 22.9768 8.5076 23.31 10.0072C22.9628 11.7364 24.166 19.7084 22.518 19.8552C16.0884 19.8552 9.6596 19.8552 3.2308 19.8552C1.0368 20.2016 0.431996 19.3588 0.689596 17.23C0.702796 13.206 0.668796 9.1796 0.689596 5.1568Z" fill="#262626"/>
<path d="M3.0428 10.2012C4.1688 10.0588 5.7872 10.6672 6.5668 9.6328C6.7636 8.66 7.0988 6.6192 5.6204 6.5968C4.4804 6.7532 2.294 6.004 2.1072 7.6696C2.164 8.562 1.7576 10.0836 3.0432 10.2016L3.0428 10.2012ZM3.2884 9.7968C2.626 9.7704 2.666 9.004 2.6872 8.5156H4.1104V9.7968C3.8364 9.7968 3.5624 9.7972 3.2884 9.7968ZM6.066 7.4152C6.0936 8.7236 6.5908 10.1316 4.6896 9.7968V7.0036C5.1804 7.0552 5.838 6.8068 6.066 7.4152ZM2.9912 7.0364C3.3504 6.9572 3.7404 7.0256 4.1104 7.004V8.2852H2.6904C2.7248 7.8904 2.546 7.2524 2.9912 7.0364Z" fill="#262626"/>
<path d="M21.4692 15.796C21.2312 15.2424 18.2004 15.342 17.8144 15.7844C17.682 16.3164 17.4124 17.6124 18.19 17.718C19.912 17.6096 22.0324 18.4096 21.4692 15.7956V15.796ZM18.2096 15.7196C18.1028 15.7404 18.1724 15.7232 18.2096 15.7196V15.7196ZM18.5908 17.4808C18.0832 17.396 18.2724 16.0884 18.3632 15.7196C20.09 15.8244 21.378 15.0332 20.8392 17.4808C20.09 17.4732 19.3388 17.4928 18.5908 17.4808Z" fill="#262626"/>
<path d="M2.2124 14.1196C2.3708 14.1116 2.624 14.0832 2.6896 13.9224C2.6292 13.6796 2.8248 13.1776 2.5876 13.08C2.4292 13.088 2.176 13.1164 2.11 13.2776C2.1704 13.5204 1.9748 14.0224 2.2124 14.1196Z" fill="#262626"/>
<path d="M4.19118 14.1284C4.39718 13.8428 4.43718 12.6552 3.80878 13.0716C3.60278 13.3572 3.56278 14.5448 4.19118 14.1284Z" fill="#262626"/>
<path d="M5.63199 13.0116C5.18399 12.9252 5.13919 14.2964 5.56759 14.1884C6.01559 14.2744 6.06039 12.9036 5.63199 13.0116Z" fill="#262626"/>
<path d="M7.418 14.1412C7.5756 14.1512 7.8584 14.108 7.8896 13.9224C7.8288 13.668 8.028 13.18 7.7816 13.0588C7.624 13.0488 7.3412 13.092 7.31 13.2776C7.3708 13.532 7.1716 14.02 7.418 14.1412Z" fill="#262626"/>
<path d="M9.01959 14.1468C9.18279 14.162 9.45919 14.114 9.48959 13.922C9.42879 13.6648 9.62879 13.1796 9.37999 13.0524C9.21679 13.0376 8.94039 13.0852 8.90999 13.2772C8.97079 13.5344 8.77079 14.02 9.01959 14.1468Z" fill="#262626"/>
<path d="M10.7732 14.2076C11.2644 14.172 11.1304 13.3444 11.0244 13.0348C10.39 12.6484 10.276 14.2468 10.7732 14.2076Z" fill="#262626"/>
<path d="M12.6096 14.1096C13.2464 14.1572 13.0752 13.5568 13.0896 13.1224C12.934 13.0408 12.6044 13.1304 12.51 13.2776C12.5696 13.5152 12.3768 14.0248 12.6096 14.1096Z" fill="#262626"/>
<path d="M14.3728 14.206C14.8268 14.264 14.864 12.924 14.4276 12.9936C13.9732 12.9356 13.936 14.2756 14.3728 14.206Z" fill="#262626"/>
<path d="M15.8164 14.1348C15.9768 14.1392 16.244 14.1012 16.2896 13.9224C16.2288 13.6716 16.4272 13.1796 16.1836 13.0652C16.0232 13.0608 15.756 13.0988 15.7104 13.2776C15.7712 13.5284 15.5724 14.0204 15.8164 14.1348Z" fill="#262626"/>
<path d="M18.0232 14.0868C18.4824 14.0224 18.2292 13.4492 18.2896 13.1224C18.152 13.0216 17.9196 13.1244 17.7784 13.1936C17.6676 13.4028 17.554 14.332 18.0232 14.0868Z" fill="#262626"/>
<path d="M19.6216 14.0812C20.082 14.0204 19.8296 13.4492 19.8896 13.1224C19.7484 13.0296 19.5228 13.1308 19.3796 13.1976C19.2656 13.4016 19.156 14.3308 19.6216 14.0812Z" fill="#262626"/>
<path d="M20.906 13.2204C20.9764 13.5284 20.696 14.2196 21.1756 14.2176C21.812 14.2228 21.5168 12.2544 20.906 13.2204Z" fill="#262626"/>
<path d="M5.71839 15.8568C4.55399 15.968 3.21559 15.6256 2.13359 16.006C1.89719 16.2852 6.80479 16.2392 5.71839 15.8568Z" fill="#262626"/>
<path d="M17.4828 6.9476C18.646 6.8348 19.9892 7.182 21.0672 6.7964C21.3248 6.5052 16.3696 6.5536 17.4828 6.9476Z" fill="#262626"/>
<path d="M7.5736 16.21C7.8712 16.1764 8.9012 16.3736 8.6236 15.834C8.3324 15.6512 6.6448 15.8616 7.5736 16.21Z" fill="#262626"/>
<path d="M9.87918 16.1344C10.2204 16.074 10.9756 16.3084 11.0716 15.8956C10.8996 15.78 9.22238 15.8912 9.87918 16.1344Z" fill="#262626"/>
</g>
<defs>
<clipPath id="clip0_184_4422">
<rect width="24" height="24" fill="white"/>
</clipPath>
</defs>
</svg>
