<svg width="16" height="16" viewBox="0 0 16 16" fill="none" xmlns="http://www.w3.org/2000/svg">
<g clip-path="url(#clip0_230_11518)">
<path d="M1.47733 15.0667C1.44992 15.0666 1.4232 15.0581 1.40079 15.0423C1.37839 15.0265 1.36139 15.0042 1.35213 14.9784C1.34286 14.9526 1.34176 14.9246 1.34899 14.8982C1.35622 14.8717 1.37143 14.8482 1.39253 14.8307L2.15573 14.1989L1.40907 14.6304C1.38032 14.6467 1.34654 14.6517 1.31428 14.6446C1.28202 14.6374 1.25358 14.6184 1.23448 14.5915C1.21538 14.5645 1.20698 14.5314 1.21091 14.4986C1.21483 14.4658 1.23081 14.4356 1.25573 14.4139L2.28987 13.5264L1.40987 14.0347C1.38113 14.0514 1.34717 14.0569 1.31463 14.0499C1.2821 14.0429 1.25336 14.024 1.23405 13.9969C1.21474 13.9698 1.20626 13.9365 1.21027 13.9035C1.21428 13.8704 1.2305 13.8401 1.25573 13.8184L2.32427 12.8915L1.408 13.4187C1.37855 13.4354 1.34383 13.4403 1.31089 13.4324C1.27796 13.4245 1.24927 13.4043 1.23067 13.376C1.21207 13.3477 1.20494 13.3133 1.21073 13.28C1.21653 13.2466 1.23481 13.2167 1.26187 13.1963L1.5184 13.0056L1.408 13.0696C1.379 13.0862 1.34484 13.0912 1.31227 13.0838C1.27971 13.0764 1.25111 13.057 1.23214 13.0296C1.21317 13.0021 1.2052 12.9685 1.20982 12.9354C1.21443 12.9023 1.23129 12.8722 1.25707 12.8509L2.10853 12.1533L1.408 12.5579C1.37963 12.5733 1.34664 12.5779 1.31514 12.5708C1.28364 12.5637 1.25578 12.5455 1.23672 12.5194C1.21767 12.4934 1.20871 12.4613 1.21152 12.4291C1.21433 12.3969 1.22871 12.3669 1.252 12.3445L2.18533 11.5003L1.408 11.9485C1.37941 11.9646 1.34589 11.9696 1.31387 11.9625C1.28185 11.9554 1.25357 11.9367 1.23443 11.9101C1.21529 11.8835 1.20663 11.8507 1.21012 11.8181C1.21361 11.7855 1.22899 11.7553 1.25333 11.7333L1.5784 11.4445L1.40853 11.5424C1.38234 11.5575 1.3518 11.5632 1.32192 11.5587C1.29203 11.5542 1.26458 11.5396 1.24406 11.5174C1.22354 11.4952 1.21117 11.4667 1.20898 11.4365C1.20679 11.4064 1.2149 11.3764 1.232 11.3515L1.43067 11.0629C1.40531 11.0648 1.37994 11.0595 1.35736 11.0479C1.33478 11.0362 1.31585 11.0185 1.30267 10.9968C1.28505 10.9662 1.28026 10.9299 1.28936 10.8958C1.29846 10.8618 1.32069 10.8327 1.3512 10.8149L1.79253 10.56C1.8187 10.545 1.84917 10.5393 1.87897 10.5439C1.90878 10.5485 1.93616 10.563 1.95664 10.5851C1.97713 10.6072 1.98951 10.6357 1.99177 10.6657C1.99402 10.6958 1.98602 10.7257 1.96907 10.7507L1.78587 11.0173L2.57813 10.56C2.6067 10.5437 2.64027 10.5386 2.67239 10.5456C2.70451 10.5526 2.73292 10.5712 2.75217 10.5978C2.77141 10.6245 2.78013 10.6573 2.77666 10.69C2.77318 10.7227 2.75775 10.7529 2.73333 10.7749L2.4088 11.0627L3.1424 10.64C3.17077 10.6246 3.20376 10.62 3.23526 10.6271C3.26676 10.6341 3.29462 10.6524 3.31368 10.6785C3.33273 10.7045 3.34169 10.7366 3.33888 10.7688C3.33607 10.8009 3.32169 10.831 3.2984 10.8533L2.36507 11.6979L3.39307 11.1045C3.42202 11.0883 3.45599 11.0835 3.48832 11.091C3.52064 11.0985 3.54902 11.1178 3.56788 11.1451C3.58675 11.1724 3.59476 11.2057 3.59034 11.2386C3.58592 11.2715 3.5694 11.3016 3.544 11.3229L2.6928 12.0203L3.3944 11.6155C3.42384 11.5991 3.45839 11.5944 3.4911 11.6025C3.52382 11.6105 3.55228 11.6307 3.57076 11.6588C3.58924 11.687 3.59636 11.7211 3.59071 11.7543C3.58505 11.7876 3.56703 11.8174 3.54027 11.8379L3.28267 12.0291L3.3952 11.9643C3.42393 11.9475 3.4579 11.9421 3.49043 11.949C3.52296 11.956 3.5517 11.9749 3.57102 12.002C3.59033 12.0291 3.59881 12.0625 3.5948 12.0955C3.59078 12.1285 3.57457 12.1588 3.54933 12.1805L2.48 13.1077L3.39547 12.5792C3.42422 12.5626 3.45812 12.5574 3.49054 12.5645C3.52296 12.5716 3.55157 12.5905 3.57077 12.6176C3.58997 12.6447 3.59839 12.6779 3.59437 12.7109C3.59036 12.7438 3.5742 12.7741 3.54907 12.7957L2.51493 13.6835L3.39653 13.1741C3.42548 13.1574 3.45963 13.1522 3.49225 13.1595C3.52486 13.1668 3.55354 13.1861 3.57262 13.2135C3.5917 13.2409 3.59979 13.2745 3.59528 13.3076C3.59077 13.3407 3.57399 13.3709 3.54827 13.3923L2.7848 14.024L3.39813 13.6704C3.4265 13.655 3.45949 13.6504 3.49099 13.6575C3.52249 13.6645 3.55036 13.6828 3.56941 13.7089C3.58847 13.7349 3.59742 13.767 3.59461 13.7992C3.5918 13.8313 3.57742 13.8614 3.55413 13.8837L3.22347 14.1824L3.39893 14.0811C3.42641 14.0654 3.45856 14.06 3.48964 14.0658C3.52073 14.0717 3.54872 14.0884 3.56863 14.113C3.58853 14.1376 3.59905 14.1684 3.5983 14.2C3.59755 14.2317 3.58558 14.262 3.56453 14.2856L3.44907 14.4139C3.47958 14.41 3.51049 14.4167 3.53658 14.433C3.56266 14.4493 3.58232 14.4741 3.5922 14.5033C3.60209 14.5324 3.6016 14.564 3.59082 14.5928C3.58005 14.6217 3.55964 14.6459 3.53307 14.6613L2.87307 15.0424C2.84559 15.0581 2.81344 15.0635 2.78235 15.0576C2.75127 15.0518 2.72327 15.0351 2.70337 15.0105C2.68347 14.9859 2.67295 14.955 2.6737 14.9234C2.67445 14.8918 2.68642 14.8615 2.70747 14.8379L2.80107 14.7341L2.26213 15.0456C2.23377 15.061 2.20077 15.0656 2.16927 15.0585C2.13777 15.0515 2.10991 15.0332 2.09085 15.0071C2.0718 14.9811 2.06284 14.949 2.06565 14.9168C2.06846 14.8847 2.08285 14.8546 2.10613 14.8323L2.43733 14.5333L1.544 15.0483C1.52383 15.0603 1.5008 15.0666 1.47733 15.0667Z" fill="#14F448"/>
<path d="M5.57707 15.0648C5.55012 15.0648 5.52382 15.0566 5.50161 15.0414C5.47941 15.0261 5.46235 15.0045 5.45267 14.9793C5.443 14.9542 5.44118 14.9267 5.44743 14.9005C5.45369 14.8743 5.46774 14.8506 5.48773 14.8325L6.16773 14.2192L5.14133 14.8123C5.11249 14.8288 5.07853 14.8339 5.04611 14.8266C5.01368 14.8194 4.98513 14.8003 4.96605 14.7731C4.94696 14.7459 4.93871 14.7126 4.94292 14.6796C4.94713 14.6467 4.96349 14.6165 4.9888 14.5949L5.96667 13.7683L5.14133 14.2456C5.11234 14.2619 5.07831 14.2667 5.04592 14.2592C5.01353 14.2517 4.98512 14.2324 4.96625 14.205C4.94739 14.1776 4.93943 14.1442 4.94395 14.1112C4.94847 14.0783 4.96513 14.0482 4.99067 14.0269L5.81173 13.3603L5.14133 13.7464C5.11257 13.7632 5.07854 13.7687 5.04595 13.7617C5.01336 13.7547 4.98457 13.7357 4.96527 13.7086C4.94596 13.6814 4.93753 13.648 4.94164 13.6149C4.94575 13.5818 4.9621 13.5515 4.98747 13.5299L6.04053 12.6211L5.14133 13.14C5.11246 13.1563 5.07857 13.1612 5.04625 13.1539C5.01393 13.1465 4.98552 13.1274 4.96654 13.1002C4.94756 13.073 4.93938 13.0398 4.94359 13.0069C4.94781 12.974 4.96411 12.9439 4.98933 12.9224L5.92827 12.1373L5.14133 12.5907C5.11199 12.607 5.07756 12.6117 5.0449 12.6038C5.01225 12.5959 4.9838 12.5759 4.96523 12.5479C4.94667 12.5199 4.93935 12.4859 4.94476 12.4528C4.95017 12.4196 4.9679 12.3897 4.9944 12.3691L5.42107 12.0451L5.14133 12.2064C5.11198 12.2231 5.07738 12.2281 5.04453 12.2202C5.01167 12.2124 4.983 12.1924 4.96431 12.1643C4.94563 12.1362 4.93831 12.102 4.94385 12.0687C4.94938 12.0354 4.96735 12.0054 4.99413 11.9848L5.43573 11.6493L5.1424 11.8189C5.11291 11.8358 5.07809 11.8408 5.04504 11.8329C5.01199 11.825 4.98322 11.8047 4.96459 11.7763C4.94597 11.7479 4.93891 11.7134 4.94484 11.6799C4.95078 11.6465 4.96927 11.6166 4.99653 11.5963L5.1832 11.4597L5.1432 11.4827C5.11425 11.4997 5.07995 11.5051 5.04715 11.498C5.01434 11.4908 4.98546 11.4715 4.96626 11.4439C4.94707 11.4164 4.93897 11.3826 4.94359 11.3494C4.94822 11.3161 4.96522 11.2858 4.9912 11.2645L5.9096 10.5003L5.14133 10.9435C5.11253 10.9596 5.07875 10.9645 5.04654 10.9572C5.01434 10.9499 4.98599 10.9309 4.967 10.9038C4.94801 10.8768 4.93973 10.8437 4.94376 10.8109C4.94778 10.7781 4.96383 10.748 4.9888 10.7264L5.7736 10.0635L5.14133 10.4283C5.11278 10.4441 5.07942 10.4488 5.04758 10.4417C5.01574 10.4345 4.98763 10.416 4.96856 10.3895C4.9495 10.363 4.94082 10.3304 4.94415 10.298C4.94749 10.2655 4.96262 10.2354 4.98667 10.2133L5.36613 9.88347L5.1408 10.0133C5.11499 10.0283 5.08491 10.0341 5.05539 10.0299C5.02586 10.0258 4.99858 10.0118 4.97791 9.99033C4.95724 9.96884 4.94438 9.94103 4.94137 9.91136C4.93837 9.88169 4.9454 9.85187 4.96133 9.82667L5.1944 9.45653C5.16351 9.46617 5.13017 9.46425 5.1006 9.45112C5.07103 9.438 5.04723 9.41456 5.03366 9.38519C5.02008 9.35582 5.01765 9.32252 5.02681 9.29149C5.03598 9.26046 5.05611 9.23382 5.08347 9.21653L5.52533 8.9616C5.55115 8.94667 5.58122 8.94082 5.61075 8.94499C5.64028 8.94916 5.66755 8.9631 5.68822 8.9846C5.70889 9.0061 5.72175 9.0339 5.72476 9.06357C5.72776 9.09324 5.72074 9.12306 5.7048 9.14827L5.47413 9.51413L6.43253 8.96C6.46119 8.94385 6.4948 8.93886 6.52691 8.94599C6.55902 8.95313 6.58737 8.97188 6.60649 8.99864C6.62561 9.02541 6.63416 9.0583 6.63051 9.09099C6.62685 9.12368 6.61123 9.15386 6.58667 9.17573L6.2072 9.50587L6.93733 9.08427C6.96618 9.06778 7.00014 9.06266 7.03256 9.06991C7.06499 9.07715 7.09354 9.09624 7.11262 9.12344C7.13171 9.15063 7.13995 9.18397 7.13574 9.21692C7.13153 9.24988 7.11517 9.28008 7.08987 9.3016L6.30507 9.96427L7.12533 9.49093C7.15424 9.47431 7.18833 9.46912 7.22088 9.4764C7.25342 9.48367 7.28206 9.50288 7.30114 9.53023C7.32023 9.55758 7.32837 9.59109 7.32396 9.62415C7.31955 9.6572 7.30292 9.68741 7.27733 9.7088L6.3592 10.4728L7.12613 10.0301C7.15562 10.0132 7.19045 10.0082 7.2235 10.0162C7.25654 10.0241 7.28532 10.0443 7.30394 10.0728C7.32256 10.1012 7.32963 10.1357 7.32369 10.1691C7.31775 10.2026 7.29926 10.2325 7.272 10.2528L7.08533 10.3899L7.12613 10.3664C7.15549 10.3497 7.19008 10.3447 7.22294 10.3526C7.2558 10.3604 7.28447 10.3804 7.30315 10.4085C7.32184 10.4366 7.32916 10.4708 7.32362 10.5041C7.31809 10.5374 7.30011 10.5674 7.27333 10.588L6.832 10.9235L7.12693 10.7533C7.15627 10.737 7.19071 10.7323 7.22336 10.7402C7.25601 10.7481 7.28447 10.7681 7.30303 10.7961C7.3216 10.8241 7.32891 10.8581 7.3235 10.8912C7.3181 10.9244 7.30037 10.9543 7.27387 10.9749L6.8456 11.3L7.1272 11.1376C7.15608 11.121 7.1901 11.1159 7.22258 11.1232C7.25507 11.1304 7.28366 11.1496 7.30274 11.1768C7.32183 11.2041 7.33002 11.2375 7.32571 11.2705C7.32141 11.3035 7.30491 11.3337 7.27947 11.3552L6.34107 12.1395L7.128 11.6861C7.15677 11.669 7.19094 11.6633 7.22371 11.6702C7.25649 11.6771 7.28546 11.6961 7.30489 11.7233C7.32431 11.7506 7.33275 11.7842 7.32853 11.8175C7.32432 11.8507 7.30775 11.8811 7.28213 11.9027L6.22907 12.8115L7.1288 12.292C7.1578 12.2754 7.19196 12.2704 7.22453 12.2778C7.25709 12.2852 7.28569 12.3046 7.30466 12.332C7.32363 12.3595 7.3316 12.3931 7.32698 12.4262C7.32237 12.4593 7.30551 12.4894 7.27973 12.5107L6.45867 13.1773L7.13013 12.7896C7.15895 12.7732 7.19285 12.7681 7.22521 12.7753C7.25758 12.7825 7.28609 12.8016 7.30518 12.8287C7.32427 12.8558 7.33256 12.8891 7.32845 12.922C7.32434 12.9549 7.30811 12.9851 7.28293 13.0067L6.3048 13.8333L7.13147 13.3563C7.15983 13.3409 7.19283 13.3363 7.22433 13.3433C7.25583 13.3504 7.28369 13.3687 7.30275 13.3947C7.3218 13.4208 7.33075 13.4529 7.32795 13.485C7.32514 13.5172 7.31075 13.5472 7.28747 13.5696L6.6072 14.1829L7.13227 13.88C7.1599 13.8643 7.19222 13.8591 7.2234 13.8651C7.25458 13.8711 7.28258 13.8881 7.30236 13.913C7.32214 13.9378 7.33239 13.9689 7.33127 14.0007C7.33015 14.0324 7.31774 14.0627 7.29627 14.0861L7.0352 14.3664L7.1328 14.3101C7.15563 14.297 7.18185 14.2908 7.20815 14.2926C7.23445 14.2943 7.25965 14.3038 7.28057 14.3198C7.30149 14.3358 7.31718 14.3577 7.32567 14.3827C7.33416 14.4076 7.33506 14.4345 7.32827 14.46L7.25707 14.7267C7.28161 14.7381 7.30214 14.7567 7.316 14.78C7.32474 14.7952 7.33041 14.8119 7.33268 14.8293C7.33494 14.8467 7.33376 14.8643 7.32921 14.8812C7.32465 14.8981 7.3168 14.914 7.30612 14.9279C7.29543 14.9418 7.28212 14.9534 7.26693 14.9621L7.1336 15.0395C7.11065 15.0524 7.08442 15.0584 7.05813 15.0566C7.03183 15.0549 7.00662 15.0455 6.9856 15.0296C6.96476 15.0135 6.94913 14.9917 6.94069 14.9668C6.93224 14.9419 6.93135 14.915 6.93813 14.8896L6.98853 14.7L6.39467 15.044C6.36703 15.0597 6.33472 15.0649 6.30353 15.0589C6.27235 15.0529 6.24435 15.0359 6.22457 15.011C6.2048 14.9862 6.19455 14.9551 6.19566 14.9233C6.19678 14.8916 6.20919 14.8613 6.23067 14.8379L6.49253 14.5571L5.64373 15.0469C5.62352 15.0588 5.60049 15.0649 5.57707 15.0648Z" fill="#F7C012"/>
<path d="M9.47813 15.064C9.45165 15.064 9.42577 15.0561 9.40379 15.0413C9.38181 15.0266 9.36473 15.0056 9.35472 14.9811C9.3447 14.9566 9.34222 14.9296 9.34758 14.9037C9.35293 14.8778 9.36589 14.854 9.3848 14.8355L10.0781 14.1581L8.87466 14.8533C8.8457 14.8698 8.81161 14.8749 8.77911 14.8675C8.74661 14.8601 8.71806 14.8408 8.69909 14.8133C8.68012 14.7859 8.6721 14.7524 8.67661 14.7194C8.68112 14.6864 8.69784 14.6562 8.72347 14.6349L9.58267 13.9309L8.87466 14.3392C8.84555 14.3555 8.81137 14.3603 8.77889 14.3526C8.74641 14.345 8.71798 14.3254 8.69922 14.2978C8.68046 14.2702 8.67274 14.2366 8.67757 14.2036C8.68241 14.1705 8.69945 14.1405 8.72533 14.1195L9.42373 13.5659L8.87466 13.8829C8.84556 13.8998 8.81118 13.905 8.77839 13.8975C8.74561 13.8901 8.71684 13.8705 8.69786 13.8428C8.67888 13.815 8.67108 13.7812 8.67603 13.7479C8.68097 13.7146 8.6983 13.6845 8.72453 13.6635L9.49947 13.04L8.87466 13.4005C8.84506 13.418 8.80985 13.4234 8.77638 13.4155C8.74292 13.4076 8.71379 13.3871 8.69507 13.3583C8.67635 13.3295 8.66949 13.2945 8.67593 13.2607C8.68236 13.227 8.70159 13.197 8.7296 13.1771L8.832 13.1032C8.80619 13.1075 8.7797 13.1043 8.75568 13.0939C8.73166 13.0836 8.71112 13.0665 8.69653 13.0448C8.67787 13.0163 8.67082 12.9818 8.67682 12.9483C8.68282 12.9147 8.70142 12.8848 8.7288 12.8645L8.92693 12.7187L8.8736 12.7488C8.84454 12.7652 8.81037 12.7702 8.77785 12.7626C8.74533 12.7551 8.71682 12.7356 8.69796 12.7081C8.67909 12.6805 8.67125 12.6469 8.67597 12.6139C8.68069 12.5808 8.69764 12.5508 8.72347 12.5296L9.5096 11.8952L8.87466 12.2621C8.84515 12.2788 8.81041 12.2836 8.77749 12.2755C8.74457 12.2675 8.71594 12.2472 8.69744 12.2188C8.67893 12.1904 8.67193 12.1561 8.67785 12.1227C8.68378 12.0893 8.70218 12.0595 8.72933 12.0392L8.86267 11.9421C8.83308 11.9548 8.7999 11.9564 8.76924 11.9466C8.73859 11.9367 8.71253 11.9161 8.69589 11.8885C8.67924 11.861 8.67314 11.8283 8.6787 11.7966C8.68426 11.7649 8.70111 11.7363 8.72613 11.716L9.41627 11.1696L8.87547 11.4816C8.84615 11.4982 8.81164 11.5031 8.77888 11.4953C8.74611 11.4874 8.71752 11.4675 8.69884 11.4395C8.68017 11.4115 8.67279 11.3774 8.6782 11.3441C8.68361 11.3109 8.7014 11.2809 8.728 11.2603L9.19866 10.9008L8.87547 11.0875C8.84635 11.1038 8.81218 11.1086 8.77969 11.1009C8.74721 11.0933 8.71878 11.0737 8.70002 11.0461C8.68127 11.0185 8.67354 10.9849 8.67837 10.9518C8.68321 10.9188 8.70025 10.8888 8.72613 10.8677L9.4264 10.312L8.87466 10.6296C8.84548 10.6461 8.81115 10.651 8.77852 10.6433C8.74589 10.6356 8.71736 10.6159 8.69859 10.5882C8.67983 10.5604 8.67221 10.5265 8.67727 10.4934C8.68232 10.4603 8.69967 10.4303 8.72587 10.4093L9.37627 9.89813L8.87466 10.1867C8.8458 10.2029 8.8119 10.2079 8.77958 10.2005C8.74727 10.1932 8.71885 10.174 8.69987 10.1469C8.68089 10.1197 8.67271 10.0864 8.67692 10.0536C8.68114 10.0207 8.69745 9.99057 8.72266 9.96907L9.6072 9.23173L8.87466 9.65547C8.84544 9.67206 8.81104 9.677 8.77833 9.66931C8.74562 9.66162 8.71702 9.64187 8.69825 9.614C8.67948 9.58613 8.67192 9.5522 8.67709 9.519C8.68226 9.4858 8.69978 9.45578 8.72613 9.43493L9.0776 9.16107L8.87466 9.27787C8.84692 9.29372 8.8144 9.29909 8.78303 9.29298C8.75167 9.28688 8.72353 9.26971 8.70376 9.24461C8.68399 9.2195 8.67389 9.18813 8.6753 9.15621C8.67672 9.12428 8.68955 9.09392 8.71146 9.07067L9.17333 8.58667L8.87547 8.75867C8.84846 8.77418 8.81687 8.77975 8.78619 8.77441C8.7555 8.76907 8.72766 8.75316 8.70748 8.72943C8.6873 8.70571 8.67607 8.67567 8.67572 8.64452C8.67538 8.61338 8.68595 8.5831 8.7056 8.55893L8.8432 8.39013C8.81203 8.38002 8.78578 8.35862 8.7696 8.33013C8.7519 8.29954 8.74706 8.26317 8.75617 8.22902C8.76527 8.19487 8.78755 8.16573 8.81813 8.148L9.26 7.89307C9.287 7.87755 9.31859 7.87198 9.34928 7.87732C9.37996 7.88266 9.40781 7.89857 9.42799 7.9223C9.44816 7.94602 9.4594 7.97607 9.45974 8.00721C9.46009 8.03835 9.44952 8.06864 9.42987 8.0928L9.37173 8.16427L9.8416 7.89333C9.86938 7.87708 9.9021 7.87143 9.93372 7.87742C9.96534 7.88341 9.99373 7.90063 10.0136 7.92591C10.0336 7.95119 10.0437 7.98282 10.0421 8.01496C10.0405 8.0471 10.0274 8.07759 10.0051 8.1008L9.54373 8.58453L10.6059 7.9712C10.6351 7.95427 10.6697 7.94907 10.7026 7.95665C10.7355 7.96422 10.7643 7.98401 10.7832 8.01201C10.8021 8.04001 10.8097 8.07414 10.8044 8.1075C10.7991 8.14086 10.7813 8.17096 10.7547 8.19173L10.4037 8.46533L10.8203 8.22533C10.8492 8.20871 10.8833 8.20353 10.9158 8.2108C10.9484 8.21807 10.977 8.23728 10.9961 8.26463C11.0152 8.29198 11.0233 8.32549 11.0189 8.35854C11.0145 8.3916 10.9978 8.42181 10.9723 8.4432L10.0877 9.18053L10.8592 8.7352C10.8884 8.71871 10.9227 8.71382 10.9553 8.7215C10.988 8.72918 11.0165 8.74887 11.0353 8.77665C11.054 8.80443 11.0617 8.83825 11.0566 8.87139C11.0515 8.90453 11.0342 8.93455 11.008 8.95547L10.3576 9.46667L10.8597 9.1768C10.8888 9.16049 10.923 9.15569 10.9555 9.16335C10.988 9.17101 11.0164 9.19058 11.0352 9.21818C11.0539 9.24578 11.0617 9.27941 11.0568 9.31244C11.052 9.34546 11.0349 9.37547 11.0091 9.39653L10.3093 9.95093L10.8603 9.63307C10.8896 9.61648 10.9241 9.6116 10.9569 9.61941C10.9896 9.62723 11.0182 9.64715 11.0369 9.67518C11.0556 9.70321 11.0629 9.73727 11.0575 9.77052C11.0521 9.80377 11.0343 9.83373 11.0077 9.8544L10.5368 10.2133L10.8608 10.0267C10.8899 10.0104 10.9241 10.0056 10.9566 10.0132C10.9891 10.0209 11.0175 10.0404 11.0362 10.068C11.055 10.0956 11.0627 10.1293 11.0579 10.1623C11.0531 10.1953 11.036 10.2253 11.0101 10.2464L10.32 10.7936L10.8611 10.48C10.8906 10.4633 10.9253 10.4586 10.9582 10.4666C10.9912 10.4746 11.0198 10.4949 11.0383 10.5233C11.0568 10.5517 11.0638 10.5861 11.0579 10.6194C11.052 10.6528 11.0335 10.6827 11.0064 10.7029L10.8731 10.7997C10.9026 10.7866 10.936 10.7847 10.9669 10.7943C10.9977 10.8039 11.0241 10.8245 11.0409 10.8521C11.0578 10.8797 11.0641 10.9125 11.0585 10.9443C11.053 10.9762 11.0361 11.005 11.0109 11.0253L10.2248 11.66L10.8611 11.2925C10.8906 11.2756 10.9254 11.2706 10.9584 11.2786C10.9915 11.2865 11.0202 11.3067 11.0389 11.3352C11.0575 11.3636 11.0646 11.3981 11.0586 11.4315C11.0527 11.465 11.0342 11.4949 11.0069 11.5152L10.8088 11.6611L10.8621 11.6307C10.8917 11.6132 10.9269 11.6078 10.9604 11.6157C10.9939 11.6236 11.023 11.6441 11.0417 11.6729C11.0604 11.7017 11.0673 11.7367 11.0609 11.7705C11.0544 11.8042 11.0352 11.8342 11.0072 11.8541L10.9051 11.9277C10.9342 11.9226 10.9642 11.9273 10.9904 11.9411C11.0165 11.9549 11.0374 11.977 11.0496 12.004C11.0618 12.0309 11.0647 12.0612 11.0579 12.0899C11.051 12.1187 11.0348 12.1444 11.0117 12.1629L10.236 12.7872L10.8637 12.4267C10.8929 12.4101 10.9272 12.405 10.9598 12.4126C10.9925 12.4201 11.0211 12.4397 11.04 12.4675C11.0589 12.4952 11.0666 12.529 11.0617 12.5621C11.0567 12.5953 11.0395 12.6254 11.0133 12.6464L10.3157 13.2L10.8643 12.8835C10.8932 12.8667 10.9275 12.8614 10.9602 12.8687C10.9928 12.876 11.0216 12.8953 11.0407 12.9229C11.0597 12.9504 11.0678 12.9841 11.0631 13.0172C11.0585 13.0504 11.0416 13.0806 11.0157 13.1019L10.1563 13.8059L10.8648 13.3968C10.8929 13.3806 10.926 13.3752 10.9578 13.3816C10.9896 13.388 11.018 13.4058 11.0376 13.4317C11.0572 13.4575 11.0667 13.4896 11.0644 13.522C11.062 13.5543 11.048 13.5847 11.0248 13.6075L10.3315 14.2848L10.8661 13.9763C10.8936 13.9604 10.9258 13.9549 10.957 13.9607C10.9882 13.9664 11.0163 13.9831 11.0363 14.0078C11.0563 14.0324 11.0668 14.0634 11.066 14.0951C11.0652 14.1268 11.0532 14.1572 11.032 14.1808L10.8413 14.3928L10.8667 14.3781C10.8899 14.3647 10.9166 14.3586 10.9433 14.3606C10.97 14.3626 10.9955 14.3726 11.0164 14.3893C11.0374 14.406 11.0528 14.4286 11.0607 14.4542C11.0687 14.4798 11.0687 14.5072 11.0608 14.5328L10.9989 14.7325C11.02 14.7443 11.0375 14.7616 11.0496 14.7824C11.0583 14.7976 11.064 14.8143 11.0663 14.8317C11.0685 14.8491 11.0674 14.8667 11.0628 14.8836C11.0582 14.9005 11.0504 14.9164 11.0397 14.9303C11.029 14.9442 11.0157 14.9558 11.0005 14.9645L10.8672 15.0419C10.844 15.0552 10.8173 15.0613 10.7906 15.0592C10.7639 15.0572 10.7384 15.0472 10.7175 15.0304C10.6966 15.0137 10.6812 14.9911 10.6733 14.9655C10.6654 14.9399 10.6654 14.9125 10.6733 14.8869L10.7067 14.7789L10.2472 15.044C10.2197 15.0598 10.1875 15.0654 10.1563 15.0596C10.1251 15.0538 10.097 15.0371 10.077 15.0125C10.057 14.9878 10.0465 14.9569 10.0473 14.9252C10.0481 14.8935 10.0602 14.8631 10.0813 14.8395L10.272 14.6277L9.54613 15.0467C9.52548 15.0585 9.50196 15.0645 9.47813 15.064Z" fill="#F25151"/>
<path d="M13.2328 15.064C13.2064 15.064 13.1805 15.0561 13.1585 15.0414C13.1366 15.0267 13.1195 15.0057 13.1095 14.9813C13.0994 14.9568 13.0969 14.9299 13.1022 14.904C13.1075 14.8781 13.1204 14.8543 13.1392 14.8357L13.824 14.1627L12.608 14.8648C12.579 14.8811 12.545 14.8859 12.5126 14.8784C12.4802 14.8709 12.4518 14.8516 12.4329 14.8242C12.4141 14.7968 12.4061 14.7634 12.4106 14.7304C12.4151 14.6975 12.4318 14.6674 12.4573 14.6461L13.2771 13.9795L12.608 14.3664C12.5786 14.3831 12.5438 14.388 12.5109 14.3801C12.478 14.3722 12.4493 14.352 12.4307 14.3237C12.4121 14.2954 12.4049 14.2611 12.4107 14.2277C12.4165 14.1943 12.4348 14.1644 12.4619 14.144L12.7344 13.9413L12.608 14.0144C12.579 14.031 12.5447 14.0362 12.5121 14.0287C12.4795 14.0213 12.4508 14.0019 12.4318 13.9743C12.4129 13.9467 12.405 13.9131 12.4097 13.8799C12.4144 13.8468 12.4314 13.8166 12.4573 13.7955L13.284 13.1235L12.608 13.5133C12.5789 13.5298 12.5448 13.5347 12.5123 13.5272C12.4797 13.5196 12.4512 13.5002 12.4324 13.4726C12.4135 13.4451 12.4056 13.4115 12.4104 13.3784C12.4151 13.3454 12.432 13.3153 12.4579 13.2941L13.2389 12.6648L12.608 13.0288C12.5786 13.0455 12.5441 13.0505 12.5112 13.0426C12.4783 13.0348 12.4497 13.0148 12.431 12.9867C12.4123 12.9586 12.405 12.9244 12.4105 12.8911C12.416 12.8578 12.434 12.8278 12.4608 12.8072L12.9064 12.4685L12.608 12.64C12.5784 12.6572 12.5434 12.6625 12.5101 12.6546C12.4768 12.6467 12.4478 12.6263 12.4291 12.5976C12.4104 12.5689 12.4035 12.5341 12.4097 12.5005C12.416 12.4668 12.4349 12.4369 12.4627 12.4168L12.5856 12.3272C12.5557 12.3376 12.5231 12.3371 12.4936 12.3256C12.464 12.3142 12.4395 12.2926 12.4245 12.2648C12.4094 12.2369 12.4047 12.2046 12.4113 12.1737C12.4178 12.1427 12.4352 12.1151 12.4603 12.0957L12.9896 11.688L12.608 11.9083C12.5793 11.9246 12.5455 11.9296 12.5132 11.9224C12.481 11.9152 12.4525 11.8963 12.4334 11.8693C12.4143 11.8424 12.4059 11.8093 12.4098 11.7764C12.4138 11.7436 12.4297 11.7134 12.4547 11.6917L13.4821 10.8117L12.608 11.3168C12.5785 11.3336 12.5436 11.3385 12.5106 11.3305C12.4775 11.3224 12.4488 11.3021 12.4303 11.2736C12.4118 11.2451 12.4048 11.2106 12.4109 11.1771C12.417 11.1436 12.4356 11.1138 12.4629 11.0936L12.5757 11.0115C12.5456 11.0196 12.5136 11.0169 12.4853 11.0038C12.4569 10.9908 12.4341 10.9682 12.4207 10.9401C12.4073 10.9119 12.4041 10.8799 12.4119 10.8497C12.4196 10.8195 12.4377 10.7929 12.4629 10.7747L12.5717 10.6947C12.5424 10.7015 12.5115 10.6982 12.4843 10.6853C12.457 10.6724 12.435 10.6506 12.4217 10.6235C12.4084 10.5964 12.4047 10.5657 12.4112 10.5362C12.4176 10.5067 12.4339 10.4803 12.4573 10.4613L13.2733 9.7984L12.608 10.1824C12.5792 10.1988 12.5454 10.2038 12.5131 10.1966C12.4808 10.1894 12.4523 10.1704 12.4332 10.1434C12.4141 10.1163 12.4057 10.0832 12.4098 10.0503C12.4138 10.0174 12.4299 9.98725 12.4549 9.9656L13.4549 9.11547L12.608 9.60533C12.5789 9.62227 12.5444 9.62754 12.5115 9.6201C12.4787 9.61265 12.4498 9.59303 12.4308 9.56519C12.4119 9.53735 12.4041 9.50335 12.4092 9.47003C12.4142 9.43671 12.4317 9.40654 12.4581 9.3856L13.1936 8.79893L12.6069 9.13707C12.5781 9.15362 12.544 9.15877 12.5116 9.15151C12.4791 9.14425 12.4505 9.1251 12.4314 9.09783C12.4123 9.07056 12.4041 9.03714 12.4084 9.00413C12.4127 8.97113 12.4292 8.94093 12.4547 8.91947L13.4067 8.11947L12.6067 8.58133C12.5774 8.59781 12.543 8.60263 12.5103 8.59482C12.4776 8.58701 12.4491 8.56715 12.4304 8.53922C12.4117 8.51129 12.4043 8.47733 12.4096 8.44415C12.4149 8.41097 12.4325 8.38101 12.4589 8.36027L12.9725 7.96533L12.6067 8.17653C12.5775 8.19314 12.5432 8.19817 12.5106 8.19061C12.4779 8.18305 12.4493 8.16346 12.4304 8.13575C12.4115 8.10803 12.4038 8.07422 12.4087 8.04106C12.4137 8.00789 12.4309 7.97781 12.4571 7.9568L13.1093 7.43813L12.608 7.728C12.5798 7.74471 12.5465 7.75046 12.5143 7.74416C12.4822 7.73785 12.4535 7.71994 12.4337 7.69383C12.4139 7.66772 12.4045 7.63524 12.4071 7.60259C12.4097 7.56994 12.4243 7.5394 12.448 7.5168L13.1915 6.8L12.608 7.136C12.5825 7.15065 12.5529 7.15644 12.5237 7.1525C12.4946 7.14855 12.4675 7.13507 12.4468 7.11417C12.4262 7.09326 12.413 7.0661 12.4093 7.03692C12.4057 7.00773 12.4118 6.97816 12.4267 6.9528L12.6869 6.51067L12.684 6.51227C12.6534 6.52967 12.6171 6.53426 12.5832 6.52503C12.5492 6.51581 12.5202 6.49352 12.5026 6.46303C12.485 6.43253 12.4802 6.39632 12.4892 6.36228C12.4982 6.32824 12.5203 6.29914 12.5507 6.28133L12.9925 6.0264C13.018 6.01175 13.0477 6.00595 13.0768 6.0099C13.106 6.01385 13.133 6.02733 13.1537 6.04823C13.1744 6.06914 13.1876 6.0963 13.1912 6.12548C13.1949 6.15467 13.1888 6.18424 13.1739 6.2096L12.9136 6.65173L13.9973 6.02667C14.0255 6.00996 14.0589 6.00421 14.091 6.01051C14.1231 6.01681 14.1518 6.03473 14.1716 6.06084C14.1914 6.08695 14.2009 6.11943 14.1982 6.15208C14.1956 6.18473 14.181 6.21527 14.1573 6.23787L13.4133 6.95467L14.5333 6.3088C14.5625 6.29186 14.5969 6.28659 14.6298 6.29404C14.6627 6.30148 14.6915 6.3211 14.7105 6.34894C14.7295 6.37679 14.7372 6.41079 14.7322 6.44411C14.7271 6.47742 14.7096 6.50759 14.6832 6.52853L14.0307 7.0472L14.5928 6.72267C14.6221 6.70572 14.6568 6.70058 14.6898 6.70827C14.7228 6.71597 14.7516 6.73593 14.7704 6.7641C14.7892 6.79227 14.7966 6.82654 14.791 6.85995C14.7855 6.89336 14.7674 6.92341 14.7405 6.944L14.228 7.33813L14.5931 7.1272C14.6219 7.11065 14.656 7.1055 14.6885 7.11276C14.7209 7.12002 14.7495 7.13917 14.7686 7.16644C14.7877 7.19371 14.7959 7.22713 14.7916 7.26013C14.7873 7.29314 14.7708 7.32334 14.7453 7.3448L13.7931 8.1448L14.5931 7.68267C14.6222 7.66615 14.6564 7.66117 14.689 7.66872C14.7216 7.67627 14.7501 7.69579 14.769 7.72342C14.7879 7.75105 14.7957 7.78476 14.7908 7.81786C14.786 7.85097 14.7689 7.88105 14.7429 7.90213L14.0072 8.4888L14.5939 8.15013C14.6227 8.13306 14.657 8.12749 14.6897 8.13453C14.7225 8.14157 14.7515 8.1607 14.7708 8.18812C14.7901 8.21553 14.7983 8.24921 14.7939 8.28245C14.7895 8.31569 14.7727 8.34604 14.7469 8.36747L13.7472 9.21733L14.5944 8.72827C14.6234 8.71162 14.6577 8.7065 14.6903 8.71393C14.7229 8.72135 14.7516 8.74078 14.7706 8.76835C14.7895 8.79592 14.7974 8.82962 14.7927 8.86275C14.788 8.89588 14.771 8.92603 14.7451 8.9472L13.9285 9.61013L14.5952 9.22587C14.6248 9.20906 14.6596 9.20417 14.6926 9.21221C14.7257 9.22024 14.7544 9.2406 14.7729 9.2691C14.7914 9.29761 14.7984 9.33211 14.7923 9.36557C14.7862 9.39902 14.7676 9.42889 14.7403 9.44907L14.6323 9.52747C14.6589 9.52159 14.6867 9.52393 14.712 9.53416C14.7372 9.5444 14.7588 9.56205 14.7739 9.5848C14.7925 9.61343 14.7994 9.64812 14.7932 9.68172C14.787 9.71531 14.7682 9.74524 14.7405 9.76533L14.6277 9.84773C14.6569 9.83976 14.688 9.84197 14.7158 9.854C14.7436 9.86603 14.7664 9.88716 14.7806 9.91391C14.7948 9.94066 14.7995 9.97145 14.7938 10.0012C14.7882 10.0309 14.7726 10.0579 14.7496 10.0776L13.7227 10.9576L14.5957 10.4533C14.625 10.4365 14.6596 10.4314 14.6925 10.4391C14.7254 10.4468 14.7541 10.4667 14.7729 10.4948C14.7917 10.5229 14.7991 10.557 14.7937 10.5903C14.7883 10.6237 14.7704 10.6537 14.7437 10.6744L14.2149 11.0819L14.596 10.8616C14.6256 10.8444 14.6606 10.8391 14.6939 10.847C14.7273 10.8549 14.7562 10.8753 14.7749 10.904C14.7936 10.9327 14.8005 10.9675 14.7943 11.0011C14.788 11.0348 14.7691 11.0647 14.7413 11.0848L14.6179 11.1747C14.6479 11.1636 14.6809 11.1637 14.7109 11.175C14.7408 11.1863 14.7657 11.2079 14.781 11.2361C14.7963 11.2642 14.801 11.2968 14.7942 11.3281C14.7874 11.3594 14.7696 11.3872 14.744 11.4064L14.2987 11.7451L14.5968 11.5728C14.6259 11.5556 14.6605 11.5501 14.6935 11.5575C14.7265 11.5648 14.7554 11.5844 14.7745 11.6123C14.7937 11.6401 14.8015 11.6742 14.7964 11.7077C14.7913 11.7411 14.7737 11.7713 14.7472 11.7923L13.9659 12.4216L14.5973 12.0571C14.6263 12.0405 14.6605 12.0354 14.6931 12.0428C14.7256 12.0503 14.7542 12.0696 14.7732 12.0971C14.7922 12.1246 14.8001 12.1582 14.7955 12.1913C14.7909 12.2243 14.774 12.2545 14.7483 12.2757L13.9216 12.9483L14.5979 12.5579C14.6273 12.5411 14.662 12.5362 14.695 12.5441C14.7279 12.5521 14.7566 12.5722 14.7752 12.6006C14.7938 12.6289 14.8009 12.6632 14.7951 12.6966C14.7893 12.73 14.7711 12.7599 14.744 12.7803L14.4723 12.9824L14.5981 12.9096C14.6271 12.893 14.6613 12.888 14.6939 12.8954C14.7264 12.9028 14.755 12.9222 14.774 12.9496C14.793 12.9771 14.8009 13.0107 14.7963 13.0438C14.7917 13.0769 14.7748 13.107 14.7491 13.1283L13.9288 13.7949L14.5987 13.4083C14.6267 13.3923 14.6597 13.387 14.6913 13.3935C14.723 13.4 14.7512 13.4177 14.7708 13.4434C14.7903 13.4691 14.7999 13.5011 14.7977 13.5333C14.7954 13.5656 14.7816 13.5959 14.7587 13.6187L14.0736 14.2917L14.5989 13.9885C14.6256 13.9731 14.6569 13.9674 14.6873 13.9724C14.7177 13.9775 14.7455 13.9929 14.7658 14.016C14.7862 14.0392 14.7978 14.0687 14.7989 14.0995C14.7999 14.1304 14.7902 14.1606 14.7715 14.1851L14.5472 14.4771L14.6005 14.4469C14.6157 14.4373 14.6327 14.4308 14.6504 14.4279C14.6682 14.425 14.6863 14.4257 14.7038 14.43C14.7213 14.4342 14.7377 14.442 14.7521 14.4528C14.7664 14.4636 14.7785 14.4772 14.7875 14.4927C14.7965 14.5083 14.8023 14.5255 14.8044 14.5434C14.8066 14.5612 14.8051 14.5793 14.8001 14.5966C14.7951 14.6139 14.7867 14.63 14.7753 14.6439C14.7639 14.6578 14.7498 14.6693 14.7339 14.6776L14.1 15.0435C14.0733 15.0587 14.0421 15.0643 14.0118 15.0592C13.9815 15.0542 13.9538 15.0387 13.9335 15.0156C13.9133 14.9925 13.9016 14.9631 13.9005 14.9323C13.8995 14.9016 13.9091 14.8714 13.9277 14.8469L14.1517 14.5552L13.3003 15.0467C13.2798 15.0585 13.2564 15.0644 13.2328 15.064Z" fill="#5092EF"/>
<path d="M14.6872 2.99653C14.6622 2.99653 14.6377 2.98949 14.6165 2.97621C14.5953 2.96294 14.5782 2.94396 14.5673 2.92146C14.5564 2.89896 14.552 2.87384 14.5547 2.84896C14.5573 2.82409 14.5669 2.80047 14.5824 2.7808L14.9264 2.3432L14.4816 2.6C14.4532 2.61561 14.4201 2.62036 14.3885 2.61337C14.3569 2.60637 14.3289 2.5881 14.3098 2.56197C14.2906 2.53585 14.2817 2.50365 14.2845 2.47139C14.2874 2.43913 14.3019 2.40901 14.3253 2.38667L14.4555 2.26827C14.4242 2.28009 14.3896 2.27972 14.3585 2.26722C14.3275 2.25472 14.3023 2.23102 14.2879 2.2008C14.2736 2.17059 14.2711 2.13608 14.281 2.10412C14.2909 2.07216 14.3124 2.04508 14.3413 2.02827L15.392 1.42187C15.4204 1.40626 15.4535 1.40151 15.4851 1.4085C15.5167 1.4155 15.5447 1.43377 15.5638 1.4599C15.583 1.48602 15.592 1.51822 15.5891 1.55048C15.5862 1.58274 15.5717 1.61286 15.5483 1.6352L15.4149 1.75573C15.4421 1.74652 15.4716 1.74633 15.4989 1.75519C15.5262 1.76406 15.5499 1.7815 15.5665 1.80494C15.5831 1.82837 15.5917 1.85653 15.591 1.88524C15.5903 1.91395 15.5804 1.94167 15.5627 1.96427L15.2187 2.40187L15.3896 2.3032C15.4202 2.2858 15.4565 2.28121 15.4904 2.29043C15.5244 2.29966 15.5534 2.32195 15.571 2.35244C15.5886 2.38293 15.5934 2.41915 15.5844 2.45319C15.5754 2.48723 15.5533 2.51633 15.5229 2.53413L14.7539 2.97867C14.7336 2.99037 14.7106 2.99653 14.6872 2.99653Z" fill="#39C96C"/>
<path d="M10.5565 4.5672C10.528 4.56724 10.5002 4.55811 10.4772 4.54116C10.4542 4.52421 10.4373 4.50034 10.4289 4.47305C10.4205 4.44576 10.4211 4.4165 10.4306 4.38957C10.4401 4.36265 10.458 4.33947 10.4816 4.32347L12.364 3.04347L11.8064 3.3656C11.7765 3.38239 11.7414 3.38704 11.7082 3.3786C11.675 3.37016 11.6463 3.34927 11.6281 3.32027C11.6099 3.29126 11.6036 3.25635 11.6104 3.22279C11.6172 3.18923 11.6367 3.15958 11.6648 3.14L12.6539 2.4656C12.6266 2.46484 12.6002 2.45575 12.5783 2.43954C12.5564 2.42333 12.54 2.40079 12.5312 2.37495C12.5225 2.34911 12.5219 2.32123 12.5296 2.29505C12.5372 2.26887 12.5526 2.24565 12.5739 2.22853L13.7293 1.29707L13.4824 1.43947C13.455 1.45515 13.4229 1.46061 13.3919 1.45487C13.3608 1.44912 13.3329 1.43255 13.3129 1.4081C13.2929 1.38365 13.2823 1.35291 13.2828 1.32135C13.2834 1.28978 13.2952 1.25944 13.316 1.23573L13.704 0.8L12.9736 1.22107C12.9487 1.23588 12.9197 1.24218 12.8909 1.23902C12.8621 1.23587 12.8351 1.22342 12.814 1.20357C12.7929 1.18371 12.7789 1.15753 12.774 1.12898C12.7691 1.10043 12.7737 1.07107 12.7869 1.04533L13.0059 0.613333L12.9525 0.645066C12.9219 0.662469 12.8857 0.667058 12.8517 0.657833C12.8177 0.648608 12.7888 0.626317 12.7712 0.595826C12.7536 0.565334 12.7487 0.529117 12.7577 0.495077C12.7667 0.461038 12.7888 0.43194 12.8192 0.414133L13.2603 0.16C13.2852 0.145188 13.3142 0.138884 13.343 0.142041C13.3718 0.145199 13.3988 0.157645 13.4198 0.177499C13.4409 0.197353 13.455 0.223534 13.4599 0.252083C13.4648 0.280631 13.4602 0.309995 13.4469 0.335733L13.2267 0.766133L14.2795 0.16C14.3069 0.14414 14.339 0.138547 14.3702 0.144221C14.4013 0.149895 14.4294 0.166467 14.4495 0.190971C14.4695 0.215475 14.4802 0.246312 14.4796 0.277964C14.479 0.309617 14.4671 0.34002 14.4461 0.363733L14.0587 0.8L15.0848 0.208266C15.1139 0.191089 15.1485 0.185608 15.1815 0.192933C15.2145 0.200259 15.2434 0.219843 15.2625 0.247725C15.2817 0.275607 15.2895 0.309706 15.2844 0.343123C15.2793 0.376541 15.2617 0.406783 15.2352 0.427733L14.08 1.36L15.3867 0.605066C15.4165 0.587728 15.452 0.58266 15.4855 0.590931C15.5191 0.599202 15.5481 0.620166 15.5665 0.649408C15.5849 0.678649 15.5912 0.713886 15.5841 0.747696C15.577 0.781507 15.5571 0.811252 15.5285 0.830666L14.76 1.35387L15.392 0.9888C15.4219 0.97107 15.4576 0.965736 15.4914 0.973935C15.5252 0.982134 15.5545 1.00322 15.5729 1.03269C15.5914 1.06216 15.5976 1.09768 15.5903 1.13168C15.5829 1.16568 15.5626 1.19546 15.5336 1.21467L13.6507 2.49333L14 2.29173C14.0306 2.27433 14.0669 2.26974 14.1008 2.27897C14.1348 2.28819 14.1638 2.31048 14.1814 2.34097C14.199 2.37147 14.2038 2.40768 14.1948 2.44172C14.1858 2.47576 14.1637 2.50486 14.1333 2.52267L10.6232 4.54933C10.6029 4.56104 10.5799 4.5672 10.5565 4.5672Z" fill="#39C96C"/>
<path d="M9.55733 6.42267C9.52924 6.42295 9.50177 6.41435 9.47885 6.39809C9.45593 6.38183 9.43873 6.35875 9.42971 6.33213C9.42069 6.30552 9.42031 6.27674 9.42863 6.2499C9.43694 6.22305 9.45352 6.19952 9.476 6.18266L10.5477 5.36133L9.29307 6.0856C9.26651 6.101 9.23545 6.10677 9.20513 6.10193C9.17482 6.09708 9.1471 6.08193 9.12666 6.05901C9.10623 6.0361 9.09432 6.00684 9.09297 5.97617C9.09161 5.9455 9.10087 5.9153 9.1192 5.89067L9.37467 5.54587L8.97787 5.7752C8.95156 5.79043 8.92083 5.79621 8.89078 5.79158C8.86074 5.78695 8.83317 5.77219 8.81266 5.74975C8.79215 5.72731 8.77993 5.69854 8.77801 5.6682C8.7761 5.63786 8.78461 5.60777 8.80213 5.58293L9.07333 5.19733L8.64347 5.4456C8.61286 5.463 8.57661 5.46759 8.54263 5.45836C8.50865 5.44914 8.4797 5.42685 8.4621 5.39636C8.44449 5.36587 8.43966 5.32965 8.44866 5.29561C8.45766 5.26157 8.47976 5.23247 8.51013 5.21467L9.46347 4.66426C9.48975 4.64915 9.52041 4.64344 9.55037 4.64809C9.58034 4.65274 9.60782 4.66746 9.62829 4.68983C9.64877 4.71219 9.661 4.74087 9.66299 4.77113C9.66497 4.80139 9.65658 4.83142 9.6392 4.85627L9.368 5.24267L9.79787 4.9944C9.82442 4.97899 9.85548 4.97323 9.8858 4.97807C9.91612 4.98291 9.94384 4.99807 9.96427 5.02098C9.98471 5.04389 9.99661 5.07316 9.99797 5.10383C9.99933 5.1345 9.99006 5.1647 9.97173 5.18933L9.71627 5.53413L12.1805 4.11147C12.2099 4.09452 12.2445 4.08938 12.2775 4.09707C12.3105 4.10477 12.3393 4.12473 12.3581 4.1529C12.3769 4.18107 12.3843 4.21534 12.3788 4.24875C12.3732 4.28216 12.3552 4.31221 12.3283 4.3328L11.0651 5.30133C11.0919 5.30619 11.1167 5.31919 11.1359 5.33857C11.1552 5.35795 11.168 5.38276 11.1727 5.40967C11.1774 5.43658 11.1737 5.46427 11.1621 5.48901C11.1505 5.51375 11.1317 5.53434 11.108 5.548L9.624 6.40507C9.60371 6.41668 9.58072 6.42275 9.55733 6.42267Z" fill="#39C96C"/>
<path d="M6.9456 5.51227C6.91842 5.51225 6.89189 5.50393 6.86958 5.48842C6.84726 5.4729 6.83021 5.45094 6.82073 5.42547C6.81124 5.4 6.80977 5.37224 6.8165 5.3459C6.82323 5.31957 6.83785 5.29592 6.8584 5.27813L7.91547 4.36267C7.89777 4.33207 7.89293 4.29571 7.90203 4.26155C7.91113 4.2274 7.93342 4.19826 7.964 4.18053L8.46213 3.89333C8.49087 3.87655 8.52483 3.87112 8.55736 3.87811C8.5899 3.8851 8.61864 3.90399 8.63795 3.93109C8.65726 3.95818 8.66574 3.99152 8.66173 4.02455C8.65772 4.05758 8.6415 4.08791 8.61627 4.1096L8.0896 4.5656L8.89173 4.10267C8.92234 4.08526 8.95859 4.08067 8.99257 4.0899C9.02655 4.09912 9.0555 4.12141 9.0731 4.15191C9.09071 4.1824 9.09554 4.21862 9.08654 4.25265C9.07754 4.28669 9.05544 4.31579 9.02507 4.3336L7.01333 5.49333C6.99286 5.50559 6.96947 5.51213 6.9456 5.51227Z" fill="#39C96C"/>
<path d="M5.8104 7.47787C5.78218 7.47788 5.75468 7.46893 5.73187 7.45232C5.70906 7.43571 5.6921 7.41229 5.68345 7.38544C5.67479 7.35858 5.67488 7.32966 5.6837 7.30286C5.69252 7.27605 5.70962 7.25274 5.73253 7.23627L5.9176 7.10293L5.66027 7.25173C5.63028 7.27048 5.59407 7.27654 5.55962 7.26859C5.52516 7.26064 5.49527 7.23932 5.47653 7.20933C5.45779 7.17935 5.45173 7.14314 5.45968 7.10869C5.46763 7.07423 5.48894 7.04434 5.51893 7.0256L6.09627 6.63653L5.428 7.02214C5.4006 7.03782 5.36853 7.04328 5.33749 7.03754C5.30644 7.03179 5.27845 7.01522 5.25848 6.99077C5.23851 6.96632 5.22786 6.93558 5.22843 6.90401C5.229 6.87245 5.24076 6.84211 5.2616 6.8184L5.4216 6.6384L5.1816 6.77734C5.15469 6.79291 5.12319 6.7986 5.09253 6.79341C5.06188 6.78822 5.034 6.77247 5.01372 6.74891C4.99344 6.72534 4.98204 6.69542 4.98148 6.66434C4.98092 6.63325 4.99125 6.60295 5.01067 6.57867L5.23573 6.2968L4.89466 6.49387C4.86727 6.50973 4.83512 6.51532 4.80397 6.50965C4.77283 6.50397 4.74471 6.4874 4.72467 6.4629C4.70462 6.43839 4.69395 6.40756 4.69456 6.3759C4.69517 6.34425 4.70702 6.31385 4.728 6.29013L4.89227 6.10347L4.64453 6.2464C4.61392 6.2638 4.57768 6.26839 4.5437 6.25917C4.50972 6.24994 4.48077 6.22765 4.46316 6.19716C4.44556 6.16667 4.44073 6.13045 4.44973 6.09641C4.45873 6.06237 4.48082 6.03328 4.5112 6.01547L5.4632 5.46587C5.49057 5.45018 5.52262 5.4447 5.55364 5.45041C5.58467 5.45611 5.61267 5.47264 5.63266 5.49705C5.65266 5.52145 5.66335 5.55216 5.66283 5.5837C5.66232 5.61525 5.65064 5.64559 5.62986 5.66934L5.46533 5.856L5.7136 5.7128C5.7405 5.69738 5.77194 5.69182 5.8025 5.69707C5.83307 5.70233 5.86084 5.71807 5.88105 5.74159C5.90126 5.76512 5.91263 5.79495 5.91322 5.82595C5.91381 5.85696 5.90357 5.8872 5.88427 5.91147L5.65946 6.19307L6.00027 5.99627C6.02769 5.98041 6.05987 5.97484 6.09103 5.98055C6.12219 5.98626 6.1503 6.00287 6.17032 6.02742C6.19034 6.05197 6.20097 6.08285 6.2003 6.11452C6.19963 6.14619 6.18771 6.17659 6.16667 6.20027L6.00666 6.38054L9.2848 4.4872C9.31479 4.46846 9.35099 4.4624 9.38545 4.47035C9.4199 4.4783 9.44979 4.49961 9.46853 4.5296C9.48727 4.55959 9.49334 4.59579 9.48538 4.63025C9.47743 4.66471 9.45612 4.69459 9.42613 4.71333L8.20213 5.53813C8.22617 5.54873 8.24664 5.56605 8.26107 5.588C8.27969 5.61675 8.28654 5.65157 8.28018 5.68523C8.27383 5.7189 8.25476 5.74882 8.22693 5.7688L7.43227 6.3408C7.45097 6.35349 7.46614 6.37071 7.47635 6.39087C7.48657 6.41102 7.49149 6.43344 7.49066 6.45602C7.48984 6.4786 7.48329 6.5006 7.47163 6.51996C7.45996 6.53931 7.44358 6.55539 7.424 6.56667L5.87733 7.4592C5.85711 7.47134 5.83398 7.47779 5.8104 7.47787Z" fill="#39C96C"/>
<path d="M1.07093 9.4584C1.04377 9.45843 1.01724 9.45016 0.994905 9.4347C0.972568 9.41924 0.955486 9.39733 0.945944 9.3719C0.936403 9.34646 0.934858 9.31872 0.941516 9.29239C0.948174 9.26605 0.962717 9.24238 0.983199 9.22453L1.63493 8.6552L0.693333 9.19867C0.663781 9.21548 0.628925 9.22036 0.595891 9.21233C0.562857 9.20429 0.53414 9.18394 0.515613 9.15543C0.497086 9.12692 0.490148 9.09242 0.496217 9.05897C0.502287 9.02552 0.520905 8.99565 0.548266 8.97547L1.744 8.10827L0.635466 8.74827C0.620618 8.75755 0.604087 8.76381 0.586818 8.7667C0.569549 8.76959 0.551879 8.76906 0.534818 8.76512C0.500361 8.75717 0.470475 8.73585 0.451733 8.70587C0.432991 8.67588 0.426929 8.63967 0.43488 8.60522C0.442832 8.57076 0.464145 8.54087 0.494133 8.52213L2.06747 7.46347L1.53973 7.76827C1.50976 7.78531 1.47436 7.79009 1.44094 7.78159C1.40753 7.77309 1.37871 7.75198 1.36053 7.72269C1.34234 7.6934 1.33621 7.6582 1.34342 7.62448C1.35064 7.59077 1.37063 7.56116 1.3992 7.54187L2.2048 7.00507C2.17634 6.99575 2.15195 6.97691 2.13573 6.95173C2.11705 6.92328 2.10995 6.88876 2.1159 6.85524C2.12185 6.82172 2.1404 6.79175 2.16773 6.77147L3.21813 5.99387C3.19539 5.98659 3.17503 5.97333 3.15916 5.95549C3.14329 5.93765 3.1325 5.91588 3.12793 5.89244C3.12335 5.86901 3.12515 5.84478 3.13314 5.82228C3.14112 5.79978 3.155 5.77983 3.17333 5.76453L3.90933 5.1512C3.89535 5.12114 3.89306 5.08695 3.90292 5.05529C3.91278 5.02364 3.93408 4.9968 3.96267 4.98L4.46213 4.69333C4.49105 4.67641 4.52528 4.67099 4.55801 4.67816C4.59074 4.68534 4.61957 4.70457 4.63876 4.73203C4.65796 4.75949 4.66611 4.79317 4.66159 4.82637C4.65708 4.85957 4.64023 4.88986 4.6144 4.9112L4.5344 4.97867L4.8064 4.8216C4.83589 4.80471 4.87071 4.79971 4.90376 4.80764C4.93681 4.81556 4.96558 4.8358 4.9842 4.86423C5.00283 4.89266 5.00989 4.92712 5.00396 4.96059C4.99802 4.99405 4.97953 5.02398 4.95227 5.04427L4.21227 5.592L5.08187 5.09013C5.11183 5.07309 5.14724 5.06831 5.18065 5.07681C5.21407 5.08531 5.24289 5.10642 5.26107 5.13571C5.27926 5.165 5.28538 5.2002 5.27817 5.23391C5.27096 5.26763 5.25097 5.29724 5.2224 5.31653L5.00347 5.4624L5.29067 5.29653C5.32061 5.27918 5.35613 5.27415 5.38972 5.2825C5.42331 5.29086 5.45233 5.31195 5.47065 5.34132C5.48897 5.37069 5.49515 5.40603 5.48789 5.43987C5.48063 5.47371 5.46049 5.5034 5.43173 5.52267L3.84747 6.58933C3.8776 6.57641 3.91144 6.57505 3.94252 6.5855C3.9736 6.59595 3.99973 6.61749 4.01593 6.646C4.03213 6.6745 4.03726 6.70798 4.03034 6.74003C4.02341 6.77208 4.00492 6.80046 3.9784 6.81973L2.728 7.7264C2.75678 7.72079 2.7866 7.72482 2.81286 7.73787C2.83911 7.75091 2.86034 7.77225 2.87324 7.79858C2.88615 7.82491 2.89001 7.85475 2.88425 7.8835C2.87848 7.91225 2.86339 7.93829 2.84133 7.9576L1.68453 8.96587L1.68667 8.9696C1.70428 9.00017 1.70907 9.03647 1.69997 9.07056C1.69087 9.10465 1.66864 9.13374 1.63813 9.15147L1.1376 9.44C1.11742 9.45197 1.0944 9.45833 1.07093 9.4584Z" fill="#39C96C"/>
<path d="M12.6781 15.8587C12.6507 15.8587 12.6239 15.8502 12.6014 15.8344C12.5789 15.8186 12.5619 15.7962 12.5526 15.7704C12.5433 15.7445 12.5422 15.7164 12.5495 15.6899C12.5568 15.6634 12.5721 15.6399 12.5933 15.6224L12.628 15.5939L12.2013 15.8405C12.1736 15.8564 12.1411 15.8618 12.1098 15.8557C12.0784 15.8496 12.0503 15.8325 12.0305 15.8074C12.0107 15.7824 12.0006 15.7511 12.0019 15.7192C12.0033 15.6873 12.016 15.6569 12.0379 15.6336L12.404 15.2461L11.3725 15.84C11.3452 15.8555 11.3133 15.8609 11.2824 15.8552C11.2515 15.8495 11.2236 15.8331 11.2036 15.8088C11.1837 15.7845 11.1729 15.754 11.1733 15.7226C11.1736 15.6912 11.1851 15.6609 11.2056 15.6371L11.5949 15.1917L10.4717 15.84C10.4428 15.8566 10.4087 15.8618 10.3762 15.8545C10.3436 15.8473 10.315 15.8281 10.2959 15.8007C10.2768 15.7734 10.2687 15.7398 10.2731 15.7068C10.2775 15.6737 10.2942 15.6435 10.3197 15.6221L10.3715 15.5795L9.91813 15.84C9.89105 15.8556 9.85933 15.8612 9.82853 15.8559C9.79772 15.8505 9.76979 15.8344 9.74961 15.8105C9.72943 15.7866 9.7183 15.7564 9.71815 15.7252C9.718 15.6939 9.72885 15.6635 9.7488 15.6395L10.1456 15.1616L8.97147 15.84C8.94461 15.8556 8.91315 15.8614 8.8825 15.8562C8.85186 15.8511 8.82397 15.8355 8.80364 15.812C8.78331 15.7885 8.77182 15.7586 8.77116 15.7276C8.77049 15.6965 8.7807 15.6662 8.8 15.6419L9.2 15.1437L7.99174 15.84C7.96399 15.856 7.93139 15.8616 7.8999 15.8555C7.86842 15.8495 7.84017 15.8323 7.82031 15.8072C7.80046 15.782 7.79033 15.7505 7.7918 15.7185C7.79326 15.6865 7.80621 15.6561 7.82827 15.6328L8.1904 15.2533L7.17334 15.84C7.14465 15.8562 7.11098 15.8612 7.07882 15.854C7.04666 15.8469 7.01829 15.8281 6.99918 15.8013C6.98007 15.7744 6.97156 15.7415 6.97531 15.7087C6.97905 15.676 6.99479 15.6458 7.01947 15.624L7.1704 15.4939L6.57014 15.8405C6.54365 15.8559 6.5127 15.8616 6.48248 15.8568C6.45226 15.852 6.4246 15.837 6.40415 15.8142C6.3837 15.7915 6.3717 15.7624 6.37017 15.7318C6.36864 15.7013 6.37766 15.6711 6.39573 15.6464L6.79147 15.1072L5.52 15.84C5.49228 15.8559 5.4598 15.8612 5.42845 15.8552C5.3971 15.8491 5.36897 15.832 5.34918 15.8069C5.32939 15.7819 5.31924 15.7505 5.32059 15.7186C5.32194 15.6867 5.3347 15.6564 5.35653 15.6331L5.72133 15.2485L4.6968 15.84C4.6684 15.8565 4.63491 15.8619 4.60275 15.8553C4.57059 15.8486 4.54203 15.8303 4.52253 15.8038C4.50304 15.7774 4.49399 15.7447 4.49711 15.712C4.50024 15.6793 4.51532 15.6489 4.53947 15.6267L4.80267 15.3829L4.0112 15.84C3.98432 15.8554 3.9529 15.861 3.92235 15.8558C3.89179 15.8506 3.86401 15.8349 3.84378 15.8114C3.82354 15.7879 3.81212 15.7581 3.81148 15.7271C3.81084 15.6961 3.82102 15.6659 3.84027 15.6416L4.24027 15.1421L3.02933 15.84C3.00064 15.8564 2.96686 15.8616 2.93454 15.8546C2.90223 15.8475 2.8737 15.8287 2.85449 15.8018C2.83528 15.7748 2.82676 15.7417 2.83058 15.7089C2.83441 15.676 2.85031 15.6458 2.8752 15.624L3.03653 15.4843L2.41973 15.84C2.39303 15.8553 2.36187 15.8608 2.33153 15.8558C2.30119 15.8507 2.27354 15.8353 2.25327 15.8121C2.23299 15.789 2.22133 15.7596 2.22028 15.7288C2.21922 15.6981 2.22883 15.6679 2.24747 15.6435L2.6456 15.1264L1.4088 15.84C1.37983 15.8565 1.34574 15.8615 1.31324 15.8541C1.28075 15.8467 1.2522 15.8274 1.23323 15.8C1.21425 15.7726 1.20623 15.7391 1.21075 15.7061C1.21526 15.673 1.23197 15.6429 1.2576 15.6216L1.27787 15.6051L0.870668 15.84C0.841847 15.8567 0.807821 15.862 0.775287 15.8549C0.742752 15.8477 0.714065 15.8287 0.694871 15.8015C0.675676 15.7742 0.667365 15.7408 0.671571 15.7078C0.675778 15.6747 0.692198 15.6445 0.717601 15.6229L0.822401 15.5344L0.420801 15.7661C0.39292 15.782 0.360241 15.7873 0.328764 15.7811C0.297288 15.7748 0.269125 15.7574 0.249447 15.7321C0.229768 15.7067 0.219894 15.6751 0.221637 15.6431C0.22338 15.611 0.236623 15.5807 0.258935 15.5576L0.534668 15.2757L0.341335 15.3867C0.31619 15.4011 0.287026 15.4069 0.25826 15.4033C0.229495 15.3997 0.202696 15.3868 0.181925 15.3666C0.161154 15.3463 0.147543 15.3199 0.143154 15.2912C0.138764 15.2626 0.143836 15.2332 0.157601 15.2077L0.278135 14.9851C0.249902 14.9827 0.223164 14.9714 0.201798 14.9528C0.180433 14.9341 0.16555 14.9092 0.15931 14.8816C0.153069 14.8539 0.155794 14.825 0.167091 14.799C0.178387 14.7731 0.197667 14.7514 0.222135 14.7371L0.531735 14.5584C0.556882 14.5438 0.586094 14.5379 0.614927 14.5415C0.643759 14.5451 0.670633 14.558 0.691462 14.5782C0.712291 14.5985 0.725933 14.625 0.730315 14.6537C0.734696 14.6824 0.729577 14.7118 0.715735 14.7373L0.616535 14.92L1.2432 14.56C1.27109 14.5439 1.30385 14.5385 1.33545 14.5446C1.36704 14.5508 1.39533 14.5682 1.41509 14.5936C1.43485 14.6191 1.44475 14.6508 1.44296 14.6829C1.44116 14.7151 1.4278 14.7455 1.40533 14.7685L1.12933 15.0499L1.9792 14.56C2.00797 14.5429 2.04214 14.5372 2.07491 14.5441C2.10769 14.551 2.13666 14.5699 2.15609 14.5972C2.17551 14.6245 2.18395 14.6581 2.17974 14.6913C2.17552 14.7245 2.15895 14.755 2.13333 14.7765L2.0288 14.8651L2.55707 14.56C2.58604 14.5435 2.62013 14.5385 2.65263 14.5459C2.68512 14.5533 2.71367 14.5726 2.73264 14.6C2.75161 14.6274 2.75964 14.6609 2.75512 14.6939C2.75061 14.727 2.7339 14.7571 2.70827 14.7784L2.688 14.7949L3.0952 14.56C3.12191 14.5446 3.15313 14.5389 3.18356 14.5439C3.21399 14.5489 3.24173 14.5643 3.26208 14.5875C3.28242 14.6107 3.29411 14.6402 3.29514 14.671C3.29617 14.7018 3.28648 14.732 3.26773 14.7565L2.8696 15.2736L4.10667 14.56C4.13537 14.5433 4.16928 14.5379 4.20175 14.5448C4.23423 14.5518 4.26293 14.5707 4.28225 14.5977C4.30156 14.6247 4.31009 14.658 4.30618 14.6909C4.30226 14.7239 4.28617 14.7543 4.26107 14.776L4.09973 14.9157L4.716 14.56C4.74288 14.5447 4.77423 14.5392 4.8047 14.5445C4.83516 14.5498 4.86284 14.5655 4.88301 14.5889C4.90317 14.6124 4.91456 14.6421 4.91523 14.673C4.9159 14.7039 4.9058 14.7341 4.88667 14.7584L4.48827 15.2579L5.6976 14.56C5.726 14.5435 5.75949 14.5381 5.79165 14.5447C5.82381 14.5514 5.85238 14.5697 5.87187 14.5962C5.89136 14.6226 5.90042 14.6553 5.89729 14.688C5.89417 14.7207 5.87908 14.7511 5.85494 14.7733L5.592 15.0171L6.38347 14.56C6.41119 14.544 6.44376 14.5384 6.47522 14.5444C6.50668 14.5504 6.53493 14.5676 6.55481 14.5927C6.57468 14.6178 6.58485 14.6492 6.58345 14.6812C6.58206 14.7132 6.56919 14.7436 6.5472 14.7669L6.18267 15.1515L7.20747 14.56C7.23395 14.5447 7.2649 14.5389 7.29513 14.5437C7.32535 14.5485 7.35301 14.5635 7.37346 14.5863C7.39391 14.609 7.4059 14.6382 7.40743 14.6687C7.40897 14.6993 7.39994 14.7294 7.38187 14.7541L6.98667 15.2928L8.25734 14.5595C8.28602 14.5433 8.31969 14.5383 8.35185 14.5454C8.38401 14.5526 8.41238 14.5714 8.43149 14.5982C8.45061 14.625 8.45911 14.658 8.45536 14.6907C8.45162 14.7235 8.43588 14.7536 8.4112 14.7755L8.26054 14.9056L8.8608 14.5589C8.88847 14.5426 8.92113 14.537 8.95266 14.5431C8.98418 14.5492 9.0124 14.5666 9.032 14.592C9.05179 14.6172 9.06187 14.6486 9.0604 14.6806C9.05893 14.7125 9.04601 14.7429 9.024 14.7661L8.66133 15.1467L9.6784 14.56C9.70531 14.5444 9.73681 14.5387 9.76747 14.5439C9.79812 14.5491 9.826 14.5649 9.84628 14.5884C9.86656 14.612 9.87796 14.6419 9.87852 14.673C9.87908 14.7041 9.86875 14.7344 9.84934 14.7587L9.44934 15.2565L10.6579 14.56C10.6849 14.5443 10.7167 14.5387 10.7475 14.5441C10.7783 14.5494 10.8062 14.5655 10.8264 14.5893C10.8465 14.6133 10.8575 14.6436 10.8575 14.6749C10.8575 14.7062 10.8465 14.7365 10.8264 14.7605L10.4296 15.2384L11.6059 14.56C11.6348 14.5434 11.6689 14.5382 11.7014 14.5455C11.734 14.5527 11.7626 14.5719 11.7817 14.5993C11.8008 14.6266 11.8089 14.6602 11.8045 14.6932C11.8001 14.7263 11.7834 14.7565 11.7579 14.7779L11.7045 14.8205L12.1579 14.56C12.1852 14.5445 12.2171 14.5391 12.248 14.5448C12.2789 14.5505 12.3068 14.5669 12.3268 14.5912C12.3467 14.6155 12.3575 14.646 12.3571 14.6774C12.3568 14.7088 12.3453 14.7391 12.3248 14.7629L11.9355 15.2083L13.0595 14.56C13.0872 14.5441 13.1197 14.5388 13.151 14.5448C13.1824 14.5509 13.2105 14.568 13.2303 14.5931C13.2501 14.6181 13.2602 14.6495 13.2589 14.6814C13.2575 14.7133 13.2448 14.7436 13.2229 14.7669L12.8571 15.1541L13.8867 14.56C13.9156 14.5433 13.9498 14.5381 13.9824 14.5454C14.015 14.5527 14.0437 14.5719 14.0628 14.5993C14.0818 14.6268 14.0899 14.6604 14.0854 14.6935C14.0809 14.7266 14.0641 14.7568 14.0384 14.7781L14.0035 14.8067L14.4301 14.56C14.4577 14.5442 14.4899 14.5387 14.5212 14.5445C14.5524 14.5503 14.5805 14.5671 14.6004 14.5919C14.6204 14.6166 14.6308 14.6476 14.6299 14.6794C14.629 14.7111 14.6168 14.7415 14.5955 14.7651L14.2157 15.1821L15.2947 14.56C15.3235 14.5434 15.3576 14.5383 15.3901 14.5456C15.4225 14.5528 15.4511 14.572 15.4702 14.5992C15.4893 14.6265 15.4975 14.6599 15.4932 14.6929C15.4889 14.7259 15.4724 14.7561 15.4469 14.7776L15.3776 14.8355L15.6251 14.6928C15.6509 14.6777 15.681 14.6718 15.7106 14.6759C15.7402 14.68 15.7676 14.694 15.7883 14.7155C15.809 14.737 15.8219 14.7649 15.8249 14.7946C15.8279 14.8244 15.8208 14.8542 15.8048 14.8795L15.5141 15.3421L15.6587 15.2589C15.6891 15.243 15.7246 15.2394 15.7576 15.249C15.7906 15.2586 15.8187 15.2806 15.8359 15.3103C15.8531 15.3401 15.8582 15.3754 15.85 15.4088C15.8418 15.4422 15.821 15.4711 15.792 15.4896L15.1821 15.84C15.1563 15.8551 15.1262 15.861 15.0966 15.8569C15.067 15.8528 15.0396 15.8388 15.0189 15.8173C14.9982 15.7958 14.9853 15.7679 14.9823 15.7382C14.9793 15.7084 14.9864 15.6786 15.0024 15.6533L15.2931 15.1907L14.1688 15.84C14.1399 15.8565 14.1059 15.8617 14.0734 15.8544C14.0409 15.8472 14.0123 15.828 13.9933 15.8008C13.9742 15.7735 13.966 15.7401 13.9703 15.7071C13.9746 15.6741 13.9911 15.6439 14.0165 15.6224L14.0861 15.5643L13.6083 15.84C13.5807 15.8558 13.5485 15.8613 13.5172 15.8555C13.486 15.8496 13.4579 15.8329 13.438 15.8081C13.418 15.7834 13.4076 15.7524 13.4085 15.7206C13.4094 15.6889 13.4216 15.6585 13.4429 15.6349L13.8227 15.2179L12.7448 15.84C12.7246 15.8521 12.7016 15.8585 12.6781 15.8587Z" fill="#524E6D"/>
<path d="M15.6267 14.5816C15.3721 14.5638 15.1167 14.559 14.8616 14.5672V6.856C14.9717 6.2568 14.4667 5.95147 13.9323 6.01973C13.3456 6.01973 12.3816 5.8944 12.3411 6.7304C12.2803 9.3392 12.3731 11.9571 12.3411 14.5672H11.1267C11.1267 12.5621 11.1675 10.5531 11.1267 8.5488C11.1139 7.91653 10.5637 7.8968 10.076 7.8968C9.52186 7.8968 8.65386 7.81173 8.6072 8.58507C8.55386 10.5755 8.63546 12.5744 8.6072 14.5672H7.39306C7.37253 12.9005 7.4336 11.2301 7.39306 9.5648C7.3648 8.95147 6.77627 8.97813 6.32373 8.97813C5.8536 8.97813 5.14533 8.88373 4.91706 9.4224C4.78373 11.1165 4.92 12.8573 4.87333 14.5661H3.65973C3.41066 13.4173 4.4488 10.1616 2.5616 10.5805C0.241598 10.1733 1.4008 13.2112 1.14026 14.5635C0.470398 14.4472 -0.142135 14.7485 0.0735979 15.5176C0.123465 15.8643 0.465331 15.8317 0.729331 15.8317H10.4755C11.4816 15.6261 15.8109 16.3427 15.9267 15.3747C15.9427 15.0579 15.9909 14.6685 15.6267 14.5816ZM12.7269 6.6896C12.5619 6.04587 14.2624 6.10933 14.4155 6.48907C14.5779 9.15413 14.4197 11.8816 14.4731 14.5672H12.7269C12.7278 11.9416 12.7278 9.31573 12.7269 6.6896ZM8.9936 8.49013C9.02826 7.89547 10.0933 8.08107 10.4909 8.14907C11.1603 9.98507 10.5357 12.5323 10.7408 14.5672H8.99306C8.99395 12.5416 8.99395 10.5159 8.99306 8.49013H8.9936ZM5.3 9.36C5.41253 9.09093 5.68026 9.1528 5.91573 9.1528C6.3632 9.1528 6.98106 9.0504 7.00693 9.6792C7.03973 11.3059 6.98986 12.9376 7.00693 14.5659H5.25973C5.296 12.8357 5.18853 11.0816 5.3 9.36ZM1.5264 11.1632C1.50853 10.7344 1.91226 10.7115 2.23866 10.7517C2.5936 10.7517 3.112 10.6509 3.2496 11.0931C3.32266 12.2397 3.24773 13.4131 3.2736 14.5672H1.5264C1.53813 13.4331 1.5032 12.2968 1.5264 11.1632ZM15.5411 15.6339C10.7973 15.6339 6.0328 15.6339 1.2824 15.6339C0.831198 15.6837 0.324265 15.7176 0.459998 15.0821C0.459998 14.9515 0.406665 14.8069 0.511198 14.7661C3.30053 14.7493 6.12133 14.7779 8.91947 14.7661C11.0661 14.7661 13.2128 14.7861 15.3544 14.7661C15.6829 14.8685 15.5061 15.3987 15.5411 15.6339Z" fill="#262626"/>
<path d="M1.62667 9.18507C2.59093 8.23413 3.53973 7.26507 4.50187 6.31253C6.34827 8.732 6.90187 6.97707 8.50187 5.51253C9.1512 6.26053 9.9248 7.03893 10.7152 5.9616L14.2211 2.45733C14.2347 3.2176 15.4347 3.22053 15.6344 2.54587C15.7371 1.96346 15.6261 1.33546 15.6611 0.748265C15.4816 -0.218135 14.1851 0.258931 13.4909 0.150665C12.4856 0.0743981 12.2357 1.44826 13.348 1.44L9.89947 4.88613C8.40827 2.72373 7.4336 4.8576 6.16613 5.9528C4.29653 3.48853 3.7128 5.3552 2.10507 6.81627C1.56053 7.46853 0.7184 7.96747 0.3496 8.73093C0.214667 9.5008 1.2 9.58267 1.62667 9.18507ZM0.892534 8.4152C2.03093 7.2776 3.1752 6.1296 4.31147 4.99626C5.00907 4.872 5.4128 5.9016 5.95467 6.256C6.76453 6.17333 7.3184 4.98506 8.00613 4.5016C8.58613 3.6096 9.2 4.80693 9.68773 5.1896C9.7696 5.2712 9.9512 5.22053 10.0229 5.1488L13.8043 1.37013C13.9509 1.14 13.5269 1.24506 13.4136 1.2176C13.3439 1.21184 13.2765 1.19015 13.2165 1.15419C13.1565 1.11824 13.1056 1.06899 13.0676 1.01024C13.0297 0.951485 13.0058 0.884805 12.9977 0.815341C12.9896 0.745876 12.9976 0.675485 13.0211 0.609598C13.3392 0.131465 14.1144 0.483465 14.6099 0.382398C15.5909 0.283465 15.2 1.5096 15.2731 2.12053C15.3648 2.5472 15.1021 3.06106 14.6821 2.6368C14.4955 2.4 14.7541 1.72133 14.2437 2.04853C13.1074 3.18453 11.9712 4.32071 10.8352 5.45707C9.83387 6.7968 9.64187 6.11146 8.71227 5.2104C7.85653 5.32986 7.2664 6.56907 6.5344 7.09093C5.93573 7.8624 5.2368 6.31333 4.71227 6.01067C4.6304 5.9288 4.4488 5.97947 4.37707 6.0512C3.35609 7.0704 2.33511 8.09049 1.31413 9.11146C0.818667 9.3248 0.533334 8.75947 0.892534 8.4152Z" fill="#262626"/>
</g>
<defs>
<clipPath id="clip0_230_11518">
<rect width="16" height="16" fill="white"/>
</clipPath>
</defs>
</svg>
