<svg width="24" height="24" viewBox="0 0 24 24" fill="none" xmlns="http://www.w3.org/2000/svg">
<g clip-path="url(#clip0_266_11360)">
<path d="M19.3084 19.052C19.244 19.052 19.1808 19.0208 19.1424 18.9632C19.084 18.8756 19.1028 18.7576 19.186 18.6936L20.3696 17.7796C20.2908 17.8012 20.2016 17.7692 20.1536 17.696C20.0952 17.6076 20.1156 17.4892 20.2004 17.4256L20.692 17.0576C20.6556 17.0448 20.6224 17.0208 20.5984 16.988C20.538 16.9064 20.548 16.7924 20.6224 16.7228L21.8948 15.5336L21.446 15.7924C21.3588 15.844 21.2452 15.82 21.1852 15.738C21.1248 15.656 21.1356 15.5416 21.2104 15.4724L22.0028 14.7396L21.7484 14.8864C21.6616 14.9368 21.55 14.9144 21.4892 14.8344C21.4284 14.754 21.4364 14.6412 21.5088 14.5704L22.2716 13.8236L21.9536 14.0068C21.868 14.058 21.7568 14.0356 21.6952 13.9556C21.634 13.876 21.6412 13.7636 21.7124 13.6924L22.3604 13.044L22.0708 13.2108C21.9832 13.2628 21.8688 13.238 21.8088 13.1544C21.7488 13.0712 21.7616 12.956 21.8384 12.888L22.0244 12.7232C21.962 12.7276 21.8912 12.6988 21.8492 12.642C21.7892 12.5596 21.8004 12.4452 21.8752 12.376L22.0776 12.1908C22.0012 12.2128 21.9176 12.186 21.8668 12.1212C21.8052 12.0428 21.8108 11.9308 21.8804 11.8592L22.344 11.3792L22.1008 11.5196C22.0136 11.5716 21.9008 11.5476 21.84 11.4652C21.7796 11.3832 21.7904 11.2692 21.8648 11.1996L22 11.0748C21.9248 11.0904 21.8464 11.0616 21.7988 10.9972C21.7388 10.9152 21.7496 10.8008 21.8248 10.7316L21.9208 10.6432C21.8616 10.648 21.796 10.6252 21.7528 10.5764C21.69 10.5048 21.686 10.3996 21.7436 10.3232L22.376 9.4864L21.8376 9.7968C21.7516 9.8468 21.6416 9.8256 21.5796 9.7468C21.5184 9.6684 21.5244 9.556 21.5936 9.4848L21.8428 9.2272L21.7044 9.3068C21.6188 9.3572 21.5084 9.3356 21.4468 9.2568C21.3852 9.1784 21.3908 9.0664 21.46 8.9952L21.6864 8.76L21.5512 8.838C21.468 8.8864 21.3616 8.868 21.2992 8.7952C21.2364 8.7216 21.2352 8.6144 21.2956 8.5392L21.7364 7.9952L21.318 8.2368C21.2344 8.286 21.1264 8.2664 21.0644 8.192C21.002 8.1168 21.0028 8.0084 21.0656 7.934L21.42 7.518L21.0756 7.7168C20.9908 7.7664 20.8824 7.746 20.82 7.6696C20.7584 7.5936 20.7612 7.4832 20.8268 7.4104L21.09 7.118L20.8352 7.2648C20.7516 7.3136 20.644 7.2948 20.5816 7.22C20.5196 7.1452 20.5196 7.0368 20.5824 6.9624L20.9044 6.582L20.548 6.7876C20.4648 6.836 20.3592 6.818 20.2968 6.7456C20.234 6.6728 20.2316 6.566 20.2912 6.4904L20.6544 6.0312L20.208 6.2892C20.1248 6.3376 20.0184 6.3196 19.956 6.2464C19.8936 6.1732 19.892 6.066 19.952 5.9908L20.2852 5.5776L19.8528 5.8272C19.7708 5.8748 19.6656 5.858 19.6028 5.7864C19.54 5.7148 19.536 5.6092 19.5936 5.5332L19.9584 5.0504L19.436 5.352C19.352 5.4012 19.2432 5.3812 19.1808 5.3056C19.1188 5.2296 19.1212 5.1196 19.1864 5.0464L19.402 4.804L19.0804 4.9896C18.9952 5.0396 18.8856 5.0184 18.8236 4.9408C18.762 4.8632 18.7664 4.752 18.834 4.68L18.976 4.5284L18.7336 4.6684C18.6492 4.7176 18.5412 4.698 18.4788 4.6224C18.4164 4.5468 18.4188 4.4372 18.4832 4.364L18.7108 4.104L18.3252 4.3268C18.244 4.3748 18.1396 4.358 18.076 4.2868C18.0132 4.216 18.008 4.1112 18.0644 4.0348L18.42 3.5532L17.7808 3.922C17.6984 3.9708 17.5924 3.9528 17.5296 3.88C17.4668 3.8076 17.4644 3.7012 17.5232 3.6256L17.8452 3.2164L17.2332 3.5696C17.152 3.6172 17.0492 3.6012 16.9856 3.5316C16.9224 3.4624 16.9156 3.3584 16.9696 3.2816L17.3464 2.7444L16.5568 3.2C16.472 3.25 16.3628 3.2288 16.3008 3.1524C16.2392 3.0756 16.2424 2.9648 16.3092 2.8924L16.5232 2.658L16.018 2.9496C15.9332 2.9992 15.8248 2.9788 15.7624 2.9024C15.7008 2.826 15.7036 2.716 15.7696 2.6428L16.016 2.3692L15.4132 2.7168C15.3264 2.7672 15.2156 2.7452 15.1544 2.6652C15.0936 2.5856 15.1012 2.4728 15.1724 2.402L15.288 2.2872L14.852 2.5388C14.7664 2.5892 14.6548 2.5672 14.5936 2.4876C14.5324 2.408 14.5396 2.2952 14.6108 2.2244L14.768 2.0672L14.2256 2.3804C14.1448 2.4276 14.0428 2.4116 13.9796 2.344C13.916 2.276 13.9076 2.1728 13.9596 2.096L14.402 1.4372L13.0796 2.2C12.9936 2.2508 12.8824 2.2288 12.8212 2.1488C12.7604 2.0696 12.7672 1.9572 12.838 1.886L13.1336 1.5884L12.1556 2.1528C12.0704 2.2028 11.9608 2.1816 11.8988 2.104C11.8368 2.0264 11.8416 1.9152 11.9096 1.8432L12.3568 1.3668L10.86 2.2308C10.7756 2.28 10.6664 2.2604 10.604 2.1832C10.5424 2.1064 10.5456 1.996 10.6124 1.9232L11.226 1.25L8.5124 2.8168C8.4168 2.872 8.2944 2.8392 8.2392 2.7436C8.1836 2.648 8.2164 2.5256 8.3124 2.4704L12.1444 0.256402C12.2296 0.206802 12.3384 0.227202 12.4004 0.304002C12.4624 0.380802 12.4588 0.491202 12.392 0.564002L11.7784 1.2372L13.3312 0.340802C13.4164 0.290802 13.526 0.312002 13.588 0.389602C13.65 0.467202 13.6452 0.578402 13.5772 0.650402L13.1296 1.1272L14.2352 0.489202C14.3216 0.439202 14.4324 0.460802 14.4936 0.540402C14.5544 0.619602 14.5476 0.732002 14.4768 0.803202L14.1808 1.1012L14.9504 0.657202C15.0304 0.609602 15.1328 0.625602 15.1964 0.693602C15.26 0.761602 15.2684 0.864802 15.2164 0.941602L14.7744 1.6004L15.8892 0.956802C15.9752 0.906402 16.0864 0.928402 16.1476 1.008C16.2088 1.0876 16.2016 1.2004 16.1304 1.2712L15.9724 1.4288L16.4244 1.1684C16.5104 1.1172 16.622 1.14 16.6832 1.22C16.744 1.3 16.7364 1.4124 16.6652 1.4832L16.5504 1.5972L16.9116 1.3888C16.996 1.3388 17.1048 1.3592 17.1672 1.436C17.2288 1.5124 17.226 1.6224 17.16 1.6956L16.9136 1.9696L17.4448 1.6628C17.5296 1.6132 17.6388 1.634 17.7008 1.7104C17.7624 1.7872 17.7592 1.898 17.6924 1.9704L17.4784 2.2048L17.9308 1.944C18.0116 1.8964 18.1148 1.9124 18.1784 1.982C18.2416 2.0512 18.2484 2.1552 18.1944 2.232L17.818 2.7692L18.5444 2.3496C18.6268 2.3012 18.7328 2.3188 18.7956 2.3916C18.8584 2.464 18.8608 2.5704 18.802 2.646L18.4796 3.056L19.0512 2.7264C19.1332 2.6788 19.2372 2.6956 19.3004 2.7664C19.3632 2.8372 19.3684 2.942 19.312 3.0184L18.9568 3.4992L19.5608 3.1508C19.6448 3.1012 19.7524 3.1212 19.8156 3.1968C19.8776 3.2724 19.8756 3.382 19.8112 3.4552L19.5828 3.716L19.9456 3.5068C20.0308 3.4568 20.1404 3.4784 20.2024 3.5556C20.264 3.6332 20.2596 3.7444 20.192 3.8164L20.0508 3.9668L20.2744 3.838C20.3584 3.7884 20.4672 3.8088 20.5296 3.8844C20.5916 3.9604 20.5892 4.0704 20.524 4.1436L20.3084 4.3864L20.6148 4.2096C20.6964 4.1608 20.8016 4.1788 20.8648 4.2504C20.9276 4.322 20.9316 4.4276 20.874 4.5036L20.5092 4.9864L21.0156 4.6944C21.098 4.6452 21.2048 4.664 21.2676 4.7372C21.33 4.8104 21.3316 4.9176 21.2716 4.9928L20.9388 5.4052L21.3628 5.1608C21.4452 5.112 21.5512 5.13 21.614 5.2028C21.6768 5.2756 21.6792 5.3824 21.6196 5.458L21.2556 5.918L21.6984 5.6624C21.7816 5.6136 21.8896 5.6324 21.952 5.7072C22.014 5.782 22.014 5.8904 21.9512 5.9648L21.6296 6.3444L21.9836 6.1404C22.068 6.0904 22.1768 6.1108 22.2392 6.1876C22.3008 6.2636 22.298 6.374 22.2324 6.4468L21.9692 6.7392L22.2256 6.5916C22.3096 6.5424 22.4168 6.5616 22.4792 6.6364C22.5416 6.7112 22.5408 6.82 22.478 6.8944L22.1232 7.3104L22.4724 7.1092C22.5552 7.06 22.6616 7.0788 22.7244 7.1524C22.7872 7.2256 22.7884 7.3328 22.728 7.408L22.2876 7.9512L22.7184 7.7028C22.804 7.6528 22.9144 7.6744 22.976 7.7528C23.0376 7.8312 23.032 7.9432 22.9628 8.0144L22.736 8.2496L22.8832 8.1648C22.9688 8.1148 23.0796 8.136 23.1412 8.2148C23.2024 8.2932 23.1964 8.4056 23.1272 8.4768L22.8776 8.7344L23.032 8.6456C23.1136 8.5972 23.2192 8.6148 23.282 8.6864C23.3448 8.758 23.3488 8.8632 23.2912 8.9396L22.6584 9.7768L23.2316 9.4464C23.3196 9.3952 23.4324 9.4188 23.4928 9.5012C23.5528 9.5832 23.542 9.6976 23.4668 9.7668L23.3836 9.8432C23.45 9.834 23.5256 9.8624 23.5708 9.9228C23.6312 10.0048 23.6204 10.1188 23.546 10.1884L23.4236 10.3016C23.4988 10.2788 23.5836 10.306 23.6344 10.3712C23.696 10.4496 23.6904 10.5616 23.6208 10.6332L23.1572 11.1132L23.4412 10.9496C23.5288 10.8984 23.642 10.9216 23.7024 11.0044C23.7624 11.0868 23.7512 11.2012 23.6764 11.2704L23.4904 11.4404C23.5756 11.4052 23.6752 11.432 23.7308 11.508C23.7904 11.5912 23.7776 11.7064 23.7008 11.7744L23.5432 11.9144C23.612 11.9016 23.6876 11.9296 23.734 11.9896C23.7952 12.0692 23.788 12.1816 23.7168 12.2528L23.0684 12.9016L23.4436 12.6852C23.53 12.634 23.6416 12.6568 23.7028 12.7372C23.7636 12.8176 23.7556 12.9304 23.6832 13.0012L22.9212 13.7476L23.3564 13.4964C23.444 13.4456 23.5576 13.4688 23.6172 13.5508C23.6776 13.6328 23.6668 13.7472 23.592 13.8164L22.7984 14.55L23.208 14.3136C23.2952 14.2624 23.408 14.286 23.4684 14.3676C23.5288 14.4492 23.5188 14.5632 23.4444 14.6328L22.1724 15.8216L22.918 15.3912C23.0088 15.3372 23.126 15.3656 23.1848 15.454C23.2432 15.5424 23.2228 15.6608 23.138 15.7244L22.8364 15.9504C22.8912 15.958 22.9428 15.988 22.9756 16.0372C23.034 16.1248 23.0152 16.2428 22.932 16.3068L21.7936 17.1856L22.3164 16.884C22.4116 16.8284 22.5344 16.8608 22.5896 16.9572C22.6452 17.0528 22.6124 17.1752 22.5164 17.2304L19.4096 19.024C19.3784 19.0424 19.3436 19.0508 19.3096 19.0508L19.3084 19.052Z" fill="#AEE090"/>
<path d="M12.2244 23.7704C12.1668 23.7704 12.1108 23.7456 12.0716 23.6992C12.0092 23.6248 12.0088 23.5168 12.0704 23.4424L12.7508 22.624L10.9108 23.686C10.8284 23.7348 10.7228 23.7168 10.66 23.6444C10.5972 23.572 10.5944 23.4656 10.6532 23.39L11.1832 22.7112L9.79 23.516C9.7108 23.5624 9.6104 23.548 9.546 23.4816C9.4824 23.4156 9.4716 23.3144 9.5208 23.2368L9.9848 22.498L8.7 23.2396C8.6144 23.29 8.5036 23.268 8.442 23.1896C8.3804 23.1112 8.3868 22.9988 8.456 22.9276L8.6996 22.6756L8.0812 23.0328C7.9968 23.082 7.888 23.062 7.8256 22.9856C7.764 22.9092 7.7668 22.7988 7.8328 22.726L8.122 22.4048L7.4668 22.7828C7.3884 22.8288 7.2888 22.8152 7.2248 22.7504C7.1612 22.686 7.1488 22.5864 7.1948 22.5084L7.6044 21.8136L6.6284 22.3768C6.5436 22.4268 6.4348 22.406 6.372 22.3288C6.3104 22.252 6.314 22.1412 6.3808 22.0688L6.5892 21.8424L6.1416 22.1008C6.064 22.1464 5.9652 22.1336 5.9008 22.07C5.8368 22.0068 5.8232 21.9084 5.8672 21.8296L6.272 21.1112L5.4016 21.6136C5.316 21.6644 5.2052 21.6428 5.1432 21.5628C5.082 21.484 5.0884 21.3712 5.1588 21.3004L5.2292 21.2288L5.0336 21.3416C4.9504 21.3904 4.8432 21.3712 4.7812 21.2984C4.7188 21.2244 4.7176 21.1168 4.7788 21.042L5.0716 20.6836L4.5764 20.9696C4.4936 21.018 4.3872 20.9996 4.3248 20.9272C4.2624 20.8548 4.26 20.7476 4.3196 20.672L4.6336 20.2776L4.1304 20.568C4.0448 20.6184 3.934 20.5968 3.8724 20.5176C3.8112 20.4392 3.8172 20.3268 3.8868 20.2556L3.9664 20.1736L3.8168 20.26C3.7372 20.3068 3.6356 20.292 3.572 20.2244C3.5084 20.1576 3.4988 20.0556 3.5492 19.978L3.9664 19.3352L3.3148 19.7112C3.2312 19.7604 3.1236 19.7412 3.0608 19.666C2.9988 19.5908 2.9996 19.4824 3.0628 19.408L3.3292 19.0968L2.9776 19.2996C2.8948 19.348 2.7884 19.3296 2.726 19.2572C2.6632 19.184 2.6612 19.0768 2.7212 19.0016L3.0608 18.5772L2.6272 18.8276C2.5448 18.876 2.4392 18.8584 2.376 18.7856C2.3132 18.7128 2.3108 18.606 2.37 18.5308L2.736 18.0672L2.2916 18.324C2.2072 18.3736 2.0992 18.354 2.0368 18.2776C1.9748 18.202 1.9768 18.092 2.0416 18.0188L2.3124 17.712L2.0252 17.8776C1.94 17.9276 1.8304 17.9068 1.7684 17.8288C1.7068 17.7516 1.7112 17.6404 1.7788 17.568L1.9824 17.3504L1.798 17.4568C1.7156 17.5048 1.6104 17.4872 1.5476 17.4156C1.4848 17.3436 1.4812 17.238 1.5392 17.162L1.9936 16.5684L1.5076 16.8488C1.4228 16.8988 1.3132 16.878 1.2512 16.8008C1.1892 16.7236 1.1932 16.6128 1.26 16.5404L1.5352 16.242L1.3096 16.372C1.2264 16.4204 1.1196 16.4024 1.0572 16.3288C0.994799 16.2552 0.993599 16.1476 1.0544 16.0728L1.5248 15.496L1.0864 15.7488C1.0008 15.7996 0.889599 15.7776 0.827999 15.6976C0.767199 15.6184 0.773999 15.506 0.844799 15.4348L1.046 15.2324L0.948799 15.2884C0.861999 15.34 0.748399 15.316 0.688399 15.2344C0.627999 15.1528 0.637999 15.0384 0.712799 14.9692L0.779599 14.9068C0.707599 14.9196 0.630399 14.892 0.583999 14.83C0.523599 14.7492 0.532799 14.6356 0.605999 14.5656L0.736799 14.4408C0.651999 14.4844 0.545199 14.4628 0.485999 14.3844C0.425199 14.3048 0.432799 14.192 0.503999 14.1212L0.786799 13.84L0.653199 13.9168C0.567199 13.9672 0.457599 13.9456 0.395599 13.8672C0.334399 13.7892 0.339599 13.6772 0.408399 13.6056L0.868799 13.1244L0.577199 13.2928C0.493199 13.3424 0.385199 13.3224 0.322399 13.2468C0.260399 13.1712 0.262399 13.0616 0.326799 12.9884L1.048 12.1652L0.529999 12.464C0.443999 12.514 0.333599 12.4928 0.271999 12.4136C0.210799 12.3352 0.216799 12.2228 0.286399 12.1516L0.921999 11.4992L0.532399 11.724C0.445199 11.7744 0.333599 11.752 0.272799 11.6712C0.211999 11.5904 0.220799 11.4772 0.293599 11.4072L0.901999 10.8196L0.583199 11.0036C0.494399 11.0564 0.380399 11.0304 0.319999 10.946C0.260799 10.862 0.274799 10.746 0.352799 10.6788L0.632399 10.438C0.547999 10.4732 0.445999 10.4452 0.391599 10.366C0.332799 10.28 0.349599 10.1628 0.430799 10.0972L0.628399 9.9376C0.570399 9.9324 0.515999 9.902 0.481199 9.8508C0.422399 9.7644 0.439599 9.6472 0.521999 9.582L0.759999 9.392C0.701199 9.3892 0.644399 9.3608 0.607199 9.31C0.547199 9.2272 0.558799 9.1128 0.634399 9.044L1.9508 7.85L1.194 8.2868C1.1032 8.3396 0.987599 8.3124 0.928799 8.2268C0.869999 8.1404 0.887199 8.0232 0.969199 7.9576L2.2492 6.9324L1.594 7.3104C1.5012 7.3644 1.3828 7.3352 1.3252 7.2448C1.2676 7.1544 1.2916 7.0348 1.3796 6.9732L1.9284 6.59C1.8436 6.6172 1.746 6.5836 1.6972 6.5024C1.6404 6.4092 1.6696 6.288 1.7616 6.23L2.3872 5.8364C2.3008 5.866 2.204 5.832 2.1544 5.7516C2.0972 5.66 2.124 5.5396 2.214 5.4796L4.3208 4.0868L3.2656 4.6956C3.1744 4.7492 3.0568 4.7208 2.998 4.6316C2.9396 4.5424 2.9616 4.4236 3.0476 4.3608L4.8972 3.0124C4.8488 2.9988 4.8056 2.9672 4.7788 2.9204C4.7232 2.8248 4.756 2.7024 4.852 2.6472L7.4868 1.126C7.5784 1.0728 7.6964 1.1012 7.7544 1.19C7.8128 1.2792 7.7908 1.398 7.7048 1.4608L6.3184 2.4712L9.8384 0.4376C9.9316 0.3824 10.0516 0.4128 10.1084 0.5056C10.1656 0.5972 10.1388 0.7176 10.0488 0.7776L7.9444 2.1692L11.2304 0.2716C11.3252 0.2168 11.4452 0.2476 11.5016 0.3416C11.5584 0.4348 11.5292 0.556 11.4372 0.614L6 4.0344C6.0396 4.1212 6.0124 4.2256 5.9324 4.2812L4.5224 5.2656C4.5496 5.28 4.5744 5.3016 4.5932 5.3288C4.652 5.4152 4.6348 5.5324 4.5528 5.598L3.2728 6.6228L3.3716 6.566C3.4596 6.5148 3.5728 6.5384 3.6332 6.6212C3.6932 6.704 3.6816 6.8184 3.606 6.8872L2.29 8.0808L2.7036 7.842C2.7936 7.7888 2.9096 7.816 2.9688 7.9024C3.0276 7.9888 3.0104 8.106 2.928 8.1712L2.5976 8.4348C2.6476 8.4444 2.6932 8.4732 2.724 8.518C2.7828 8.604 2.766 8.7212 2.6848 8.7868L2.4168 9.0036C2.4648 9.0132 2.5088 9.0408 2.5396 9.0836C2.5992 9.1676 2.5848 9.2836 2.5068 9.3508L2.182 9.63C2.2516 9.618 2.3284 9.6456 2.3748 9.7068C2.4356 9.7876 2.4268 9.9008 2.354 9.9708L1.7452 10.5584L1.9752 10.426C2.0608 10.376 2.1716 10.3972 2.2332 10.4764C2.2944 10.5552 2.2884 10.6672 2.2188 10.7384L1.5836 11.3904L1.8964 11.21C1.9804 11.1608 2.0884 11.18 2.1512 11.256C2.2132 11.3316 2.2112 11.4412 2.1468 11.5144L1.4252 12.338L1.882 12.0748C1.968 12.0244 2.0776 12.0456 2.1396 12.1244C2.2008 12.2024 2.1956 12.3144 2.1268 12.386L1.6668 12.8668L1.918 12.722C2.004 12.6712 2.1156 12.6932 2.1768 12.7736C2.2376 12.8532 2.23 12.966 2.1588 13.0368L1.8772 13.3168L1.9796 13.258C2.0664 13.2068 2.1784 13.2296 2.2396 13.3112C2.3 13.392 2.2908 13.5056 2.2176 13.5756L2.0808 13.7064C2.1644 13.672 2.2624 13.698 2.3176 13.772C2.378 13.8536 2.368 13.968 2.2932 14.0372L2.218 14.108C2.2892 14.0996 2.3596 14.1256 2.4048 14.184C2.4656 14.2632 2.4588 14.3756 2.388 14.4468L2.1876 14.6484L2.2692 14.6016C2.352 14.5524 2.4592 14.5712 2.5216 14.6448C2.584 14.7184 2.5852 14.826 2.5244 14.9008L2.054 15.4776L2.4732 15.236C2.5584 15.1864 2.6676 15.2072 2.7296 15.284C2.7912 15.3612 2.7876 15.472 2.7208 15.5444L2.4452 15.8436L2.6624 15.7184C2.744 15.6696 2.8496 15.6872 2.9128 15.7596C2.9756 15.8316 2.9792 15.9372 2.9212 16.0132L2.4672 16.6064L2.9476 16.3292C3.0328 16.2788 3.1428 16.3 3.2044 16.3776C3.266 16.4552 3.2616 16.5664 3.194 16.6388L2.9896 16.8576L3.1736 16.7512C3.2576 16.7016 3.366 16.7212 3.4284 16.7976C3.4904 16.8732 3.4884 16.9832 3.4236 17.0564L3.1532 17.3628L3.4416 17.1964C3.524 17.1472 3.63 17.1656 3.6928 17.2384C3.7556 17.3112 3.758 17.418 3.6988 17.4932L3.3332 17.956L3.782 17.6972C3.8644 17.6484 3.9708 17.6672 4.0336 17.7396C4.0964 17.8128 4.0984 17.92 4.0384 17.9952L3.6984 18.42L4.1404 18.1648C4.224 18.1152 4.332 18.1348 4.3944 18.21C4.4564 18.2852 4.4556 18.3936 4.3924 18.468L4.1264 18.7792L4.4888 18.57C4.5688 18.5232 4.6704 18.5384 4.7336 18.6056C4.7972 18.6724 4.8068 18.7744 4.7564 18.852L4.3392 19.4948L5.0164 19.1036C5.1024 19.0532 5.2128 19.0748 5.2744 19.154C5.3356 19.2324 5.3296 19.3448 5.26 19.416L5.1804 19.498L5.3464 19.4024C5.4288 19.3536 5.5352 19.3724 5.598 19.4448C5.6604 19.5176 5.6628 19.6244 5.6032 19.7L5.2896 20.094L5.8196 19.788C5.9024 19.7392 6.0092 19.7572 6.072 19.8312C6.1344 19.9052 6.1356 20.0128 6.0744 20.0876L5.7816 20.446L6.3088 20.1416C6.3952 20.0916 6.5056 20.1132 6.5672 20.1924C6.6284 20.2712 6.622 20.384 6.5516 20.4548L6.4808 20.5268L6.706 20.3968C6.784 20.3512 6.8824 20.3644 6.9468 20.4276C7.0112 20.4908 7.0244 20.5892 6.9804 20.668L6.5756 21.386L7.5204 20.8408C7.6052 20.7908 7.7144 20.8116 7.7764 20.8888C7.8384 20.9656 7.8348 21.0764 7.768 21.1488L7.5596 21.376L8.064 21.0848C8.142 21.0384 8.2416 21.052 8.306 21.1172C8.3696 21.1816 8.382 21.2812 8.336 21.3592L7.9264 22.054L9.0176 21.4244C9.1016 21.3744 9.2104 21.3948 9.2732 21.4716C9.3348 21.548 9.332 21.6584 9.266 21.7312L8.9768 22.0524L9.74 21.6116C9.8256 21.5612 9.936 21.5828 9.998 21.6616C10.0592 21.74 10.0532 21.8524 9.984 21.9236L9.7404 22.1752L10.4836 21.7464C10.5624 21.6996 10.6628 21.7144 10.7276 21.7808C10.7912 21.8468 10.802 21.948 10.7528 22.0256L10.2892 22.7644L11.8764 21.848C11.9588 21.7996 12.0644 21.8176 12.1272 21.8896C12.19 21.9616 12.1928 22.0684 12.134 22.144L11.6036 22.8228L13.522 21.7152C13.6056 21.6664 13.7124 21.6848 13.7748 21.7592C13.8372 21.8336 13.8376 21.9416 13.776 22.016L13.0952 22.8344L21.8188 17.7984C21.9128 17.7436 22.0324 17.7744 22.0896 17.8668C22.1464 17.9592 22.1188 18.08 22.028 18.1392L19.9404 19.4952L21.1356 18.8052C21.2268 18.7512 21.3456 18.78 21.404 18.87C21.4616 18.96 21.4388 19.0792 21.3516 19.1412L19.1152 20.7332L19.6496 20.4248C19.7448 20.3688 19.8676 20.402 19.9228 20.498C19.9784 20.5936 19.9456 20.716 19.8496 20.7712L15.6716 23.1836C15.58 23.2372 15.4612 23.2084 15.4032 23.1188C15.3456 23.0288 15.3684 22.9096 15.4556 22.8476L17.694 21.2544L13.5356 23.6552C13.4416 23.71 13.322 23.6796 13.2648 23.5868C13.208 23.4944 13.2356 23.3736 13.3264 23.3144L15.4148 21.9576L12.326 23.7408C12.2948 23.7592 12.2604 23.7676 12.226 23.7676L12.2244 23.7704Z" fill="#AEE090"/>
<path d="M9.6992 17.608C9.6372 17.608 9.5756 17.5788 9.5372 17.5252C9.4772 17.4416 9.49 17.3268 9.5664 17.2584L10.726 16.2284L9.2632 17.0728C9.17 17.1268 9.0524 17.0976 8.9948 17.0076C8.9368 16.9172 8.9604 16.7984 9.048 16.7364L9.418 16.4752L8.9296 16.7568C8.838 16.8112 8.7188 16.7816 8.6608 16.6912C8.6032 16.6012 8.6272 16.482 8.7148 16.42L10.332 15.2836L8.4944 16.344C8.4012 16.3984 8.2832 16.3688 8.2256 16.2784C8.168 16.188 8.192 16.0688 8.28 16.0068L11.5492 13.7204L7.9304 15.8096C7.8432 15.8616 7.7284 15.8368 7.6684 15.7532C7.6084 15.67 7.6212 15.5548 7.6976 15.4868L8.1776 15.062L7.5336 15.4336C7.4456 15.4856 7.3308 15.4608 7.2708 15.3764C7.2112 15.2924 7.2248 15.1768 7.3028 15.1092L7.7016 14.7636L7.158 15.0772C7.0732 15.1264 6.964 15.1068 6.902 15.0296C6.8404 14.9528 6.8436 14.8424 6.91 14.7696L7.7968 13.796L6.5596 14.5104C6.47 14.5628 6.3548 14.5368 6.2956 14.452C6.2364 14.3672 6.252 14.25 6.332 14.1836L6.5432 14.008L6.2236 14.1924C6.1348 14.2448 6.0196 14.2188 5.96 14.134C5.9008 14.0492 5.9156 13.9332 5.9948 13.8664L6.2716 13.6328L6.2556 13.6416C6.1684 13.6932 6.0552 13.6696 5.9944 13.5868C5.9344 13.5044 5.9456 13.39 6.0204 13.3208L7.018 12.4072C6.9792 12.3156 7.014 12.2072 7.1024 12.1564L7.634 11.8492C7.722 11.798 7.8348 11.8216 7.8952 11.904C7.9552 11.9864 7.944 12.1008 7.8692 12.17L7.638 12.3816L8.0232 12.1592C8.1128 12.1064 8.2276 12.1328 8.2868 12.2176C8.346 12.3024 8.3312 12.4184 8.252 12.4852L7.9756 12.7184L8.374 12.4888C8.4636 12.436 8.5788 12.4624 8.638 12.5472C8.6972 12.632 8.6816 12.7492 8.6016 12.8156L8.3912 12.9908L8.7116 12.806C8.796 12.756 8.9052 12.776 8.9676 12.8536C9.0292 12.9304 9.026 13.0408 8.9596 13.1136L8.072 14.0876L9.3136 13.3712C9.4024 13.3192 9.5168 13.3448 9.5764 13.4284C9.636 13.5124 9.6224 13.628 9.5444 13.6956L9.1464 14.0408L9.6916 13.726C9.78 13.6748 9.894 13.6988 9.9536 13.7824C10.0136 13.8656 10.0008 13.9808 9.9244 14.0488L9.4444 14.474L15.3408 11.0696C15.4328 11.0156 15.552 11.0448 15.6096 11.1352C15.6672 11.2256 15.6432 11.3448 15.5552 11.4068L12.2848 13.694L14.0244 12.69C14.1172 12.636 14.2348 12.6652 14.2932 12.7556C14.3508 12.8456 14.3268 12.9648 14.2392 13.0268L12.6224 14.1632L13.0088 13.94C13.1004 13.886 13.2196 13.9152 13.2772 14.0052C13.3352 14.0956 13.3116 14.2144 13.224 14.2764L12.3748 14.8764C12.4208 14.8868 12.4632 14.9136 12.4924 14.954C12.5524 15.0376 12.5396 15.1524 12.4632 15.2208L11.1192 16.4144C11.1736 16.4252 11.2236 16.4584 11.2532 16.5104C11.3088 16.606 11.276 16.7284 11.18 16.7836L9.7996 17.5804C9.7684 17.5988 9.734 17.6072 9.6996 17.6072L9.6992 17.608Z" fill="#6BB577"/>
<path d="M10.166 13.824C10.0996 13.824 10.0348 13.7908 9.9968 13.7308C9.9392 13.6396 9.9644 13.52 10.0532 13.4588L13.2244 11.2912L11.4872 12.294C11.3932 12.348 11.274 12.3184 11.2172 12.2264C11.16 12.1348 11.1864 12.0148 11.276 11.9544L12.7164 10.9924L12.3936 11.1784C12.302 11.2316 12.1852 11.2036 12.1268 11.116C12.0684 11.0276 12.0888 10.9092 12.1732 10.8456L14.5672 9.0404L13.744 9.5156C13.6528 9.5696 13.5352 9.5408 13.4764 9.4516C13.418 9.3624 13.44 9.2436 13.526 9.1808L14.3372 8.5892C14.304 8.5772 14.274 8.5556 14.2504 8.526C14.1892 8.4484 14.1936 8.3368 14.262 8.2648L15.6204 6.8272C15.6164 6.8216 15.6124 6.816 15.6096 6.81C15.554 6.7144 15.5868 6.592 15.6828 6.5368L16.1752 6.252C16.2604 6.202 16.3696 6.2232 16.4324 6.3008C16.4936 6.3788 16.4892 6.4904 16.4208 6.5624L15.4932 7.5444L16.8396 6.7672C16.9312 6.714 17.0488 6.7424 17.1072 6.8312C17.1656 6.92 17.1436 7.0392 17.0576 7.102L16.8 7.2896L17.1924 7.0632C17.2832 7.0092 17.4008 7.0376 17.4592 7.1256C17.5176 7.214 17.4972 7.3324 17.4128 7.396L15.02 9.2004L17.8096 7.59C17.9032 7.5352 18.022 7.5656 18.0796 7.6576C18.1368 7.7492 18.1104 7.8692 18.0208 7.9296L16.5784 8.8936L17.5784 8.3164C17.672 8.2624 17.7904 8.2916 17.8476 8.3828C17.9052 8.474 17.88 8.5936 17.7912 8.6548L14.6188 10.8232L16.3568 9.82C16.4516 9.764 16.5752 9.7972 16.63 9.8932C16.6856 9.9888 16.6528 10.1112 16.5568 10.1664L10.266 13.798C10.2344 13.8164 10.2 13.8248 10.166 13.8248V13.824Z" fill="#6BB577"/>
<path d="M1.794 18.102C7.6984 28.1848 24.058 23.6592 23.8904 11.9652C22.2412 -8.0236 -7.1084 0.168001 1.794 18.102ZM14.2944 0.8256C25.2376 3.1416 26.468 18.8112 15.9656 22.7356C11.472 24.4256 6.2884 22.9052 3.2756 19.2128C-3.474 11.2572 4.0068 -1.5596 14.2944 0.8256Z" fill="#262626"/>
<path d="M1.8716 13.8728C3.5904 23.8576 18.0772 25.0412 21.5992 15.6304C23.172 11.5924 21.9432 6.9072 18.6052 4.15C11.5204 -1.898 0.0483997 4.6808 1.8716 13.8728ZM5.6492 4.5508C12.3692 -1.4884 23.2756 5.0028 21.5584 13.7572C20.7616 18.3136 16.7436 21.7796 12.1064 21.8116C3.2304 21.9328 -1.132 10.284 5.6492 4.5508Z" fill="#262626"/>
<path d="M7.73441 15.932C10.752 19.2244 10.406 17.4368 12.776 14.886C14.5616 12.6584 16.4048 10.4644 18.1792 8.2352C18.5432 7.3948 17.1756 6.9508 16.7244 6.4028C16.1064 5.9348 15.6552 6.5044 15.294 6.9488C13.4892 9.1704 11.6844 11.3916 9.88001 13.6132C8.91481 12.8696 7.7952 10.804 6.70401 12.546C4.6392 14.1216 6.62801 14.6672 7.73441 15.932ZM6.6252 13.2484C6.9636 13.0256 7.53881 11.8396 7.8388 12.4192C8.458 12.7656 9.45841 14.5732 10.1388 13.9828C11.774 11.97 13.4088 9.9572 15.044 7.9448C15.4316 7.5188 15.7564 6.982 16.1536 6.5788C16.2276 6.5484 16.1148 6.5716 16.2032 6.6476C16.674 7.106 17.3116 7.4508 17.6996 7.9708C16.4688 10.0136 14.5656 11.802 13.126 13.7672C12.216 14.8868 11.3064 16.0064 10.3968 17.1264C10.256 17.3 10.21 17.4736 10.002 17.34C8.8132 16.2032 7.60281 15.0816 6.41881 13.9444C6.17241 13.6444 6.4232 13.4684 6.6252 13.2484Z" fill="#262626"/>
</g>
<defs>
<clipPath id="clip0_266_11360">
<rect width="24" height="24" fill="white"/>
</clipPath>
</defs>
</svg>
