<svg width="24" height="24" viewBox="0 0 24 24" fill="none" xmlns="http://www.w3.org/2000/svg">
<path d="M10.7514 17.907C10.6955 17.907 10.6407 17.8792 10.6085 17.8288C10.5598 17.7522 10.5801 17.6513 10.6542 17.5992L12.7659 16.1214L9.71825 17.8809C9.6407 17.9263 9.54013 17.9019 9.49137 17.826C9.44226 17.7502 9.46157 17.6493 9.53505 17.5965L11.8828 15.9182L8.56046 17.8362C8.48055 17.8823 8.37963 17.8572 8.33155 17.7786C8.28346 17.7011 8.30615 17.5988 8.38234 17.5484L9.23197 16.9869L7.84696 17.7864C7.76976 17.8318 7.66986 17.8081 7.62042 17.7326C7.57132 17.6571 7.5896 17.5565 7.66207 17.5033L10.0833 15.7279L6.71898 17.6703C6.64177 17.716 6.54187 17.6916 6.49243 17.6164C6.44333 17.5413 6.46162 17.4403 6.53409 17.3872L8.81444 15.7109L5.69597 17.5111C5.61808 17.5568 5.51751 17.5321 5.46875 17.4559C5.41965 17.3797 5.43962 17.2788 5.51345 17.2263L7.23031 16.011L4.91813 17.3459C4.83855 17.3916 4.73764 17.3665 4.68955 17.2886C4.64113 17.2111 4.66348 17.1092 4.73933 17.0584L5.05799 16.8464L4.42644 17.2108C4.34923 17.2565 4.24933 17.2324 4.19989 17.1569C4.15079 17.0817 4.16907 16.9812 4.24154 16.928L5.9022 15.7059L3.73393 16.9575C3.65706 17.0028 3.55716 16.9788 3.50772 16.9039C3.45828 16.8291 3.47623 16.7282 3.54836 16.675L4.90865 15.6679L3.20939 16.6486C3.13218 16.6943 3.03296 16.67 2.98318 16.5951C2.93374 16.5196 2.95169 16.4194 3.02416 16.3659L3.9537 15.6791L2.94966 16.2585C2.87245 16.3042 2.77289 16.2802 2.72345 16.2047C2.67401 16.1295 2.69196 16.0289 2.76443 15.9758L3.15284 15.6889L2.94289 15.8098C2.86669 15.8545 2.76883 15.8322 2.71871 15.7594C2.66893 15.6869 2.68315 15.5877 2.75156 15.5321L3.1078 15.2426L2.94322 15.3374C2.87042 15.3804 2.77696 15.3622 2.72447 15.2944C2.67266 15.2274 2.67807 15.1322 2.73767 15.0723L2.99808 14.8085L2.94322 14.84C2.8843 14.8742 2.8098 14.8694 2.75596 14.8285C2.70178 14.7872 2.67774 14.7174 2.69433 14.6514L2.78779 14.2884C2.75698 14.2741 2.72989 14.2508 2.7116 14.2189C2.66453 14.138 2.6923 14.0344 2.77357 13.9876L2.94289 13.8898C3.00147 13.8556 3.07563 13.86 3.13015 13.9013C3.18433 13.9426 3.20837 14.0124 3.19178 14.0784L3.12304 14.3452L3.91307 13.8888C3.98621 13.8461 4.07968 13.8644 4.13182 13.9318C4.18364 13.9988 4.17822 14.094 4.11862 14.1539L3.85753 14.4187L4.77692 13.8884C4.85311 13.8437 4.95098 13.8661 5.0011 13.9389C5.05087 14.0113 5.03665 14.1106 4.96825 14.1661L4.61302 14.4553L5.59573 13.8877C5.67328 13.8427 5.7725 13.8664 5.82194 13.9416C5.87138 14.0168 5.85343 14.1173 5.78097 14.1705L5.39154 14.4583L6.38069 13.8871C6.45823 13.842 6.55745 13.8661 6.60689 13.9406C6.65633 14.0161 6.63838 14.1163 6.56592 14.1698L5.63739 14.8559L7.317 13.8864C7.39455 13.841 7.49411 13.8651 7.54321 13.9399C7.59265 14.0151 7.5747 14.1156 7.50257 14.1688L6.14195 15.1762L8.37726 13.8857C8.45481 13.8407 8.55437 13.8644 8.60381 13.9396C8.65291 14.0147 8.63463 14.1153 8.56216 14.1685L6.90082 15.3913L9.50999 13.885C9.58889 13.8386 9.6898 13.864 9.73857 13.9423C9.78699 14.0198 9.76464 14.1217 9.68879 14.1725L9.37217 14.3832L10.236 13.8844C10.3139 13.8386 10.4145 13.8634 10.4632 13.9396C10.5123 14.0158 10.4924 14.1167 10.4185 14.1692L8.70032 15.3852L11.3014 13.8837C11.3789 13.8386 11.4785 13.8624 11.5279 13.9375C11.577 14.0127 11.5587 14.1136 11.4863 14.1668L9.20658 15.8423L12.601 13.8827C12.6786 13.8376 12.7781 13.8617 12.8276 13.9365C12.8767 14.012 12.8584 14.1126 12.7859 14.1658L10.3637 15.9416L13.9315 13.882C14.0104 13.8356 14.112 13.861 14.1604 13.9396C14.2085 14.0171 14.1858 14.1194 14.1096 14.1698L13.2624 14.7296L14.7317 13.8813C14.8089 13.8356 14.9095 13.8596 14.9586 13.9362C15.0077 14.012 14.9884 14.1129 14.9149 14.1654L12.5672 15.844L15.9684 13.8803C16.0463 13.8346 16.1472 13.8593 16.196 13.9358C16.2447 14.0124 16.2244 14.1133 16.1502 14.1658L14.0382 15.6432L17.093 13.8796C17.1726 13.8336 17.2728 13.8586 17.3212 13.9362C17.3697 14.0134 17.3483 14.115 17.2728 14.1661L15.665 15.2595L17.6541 14.1112C17.731 14.0659 17.8305 14.0896 17.88 14.1644C17.9294 14.2392 17.9121 14.3395 17.8407 14.393L15.6328 16.0526L17.6541 14.8857C17.732 14.8396 17.8329 14.8647 17.8817 14.9416C17.9304 15.0181 17.9101 15.1194 17.8353 15.1712L17.6121 15.3266L17.6541 15.3026C17.7276 15.2592 17.8231 15.2789 17.8746 15.3479C17.9257 15.417 17.9172 15.5132 17.8546 15.5724L17.1004 16.2829L17.6467 15.9676C17.7273 15.9202 17.8312 15.9483 17.8779 16.0296C17.925 16.1105 17.8972 16.2142 17.816 16.2609L16.0121 17.3022C15.9383 17.3455 15.8431 17.3259 15.7916 17.2568C15.7405 17.1877 15.749 17.0916 15.8116 17.0323L16.5657 16.3218L14.2908 17.6351C14.2122 17.6808 14.112 17.6564 14.0632 17.5792C14.0145 17.5027 14.0348 17.4014 14.1096 17.3496L14.3301 17.1959L13.3806 17.7441C13.3034 17.7891 13.2041 17.7654 13.1547 17.6909C13.1053 17.6164 13.1225 17.5159 13.194 17.4624L15.4029 15.8017L11.8493 17.8535C11.7707 17.8999 11.6698 17.8745 11.621 17.7969C11.5726 17.7197 11.5939 17.6181 11.6695 17.567L13.2759 16.4746L10.8354 17.8833C10.809 17.8989 10.7795 17.906 10.7507 17.906L10.7514 17.907Z" fill="#DB8C00"/>
<path d="M10.8019 15.8745C10.7463 15.8745 10.6918 15.8471 10.6596 15.797C10.6105 15.7208 10.6298 15.6202 10.703 15.5674L13.092 13.8532L9.63833 15.8471C9.55977 15.8935 9.45886 15.8681 9.41009 15.7905C9.36167 15.7133 9.383 15.6121 9.45852 15.5606L11.1253 14.4255L8.72165 15.8132C8.64275 15.8596 8.54218 15.8342 8.49341 15.7567C8.44499 15.6795 8.46632 15.5779 8.54184 15.5264L10.1046 14.4655L7.86965 15.7556C7.79177 15.801 7.69187 15.7766 7.64277 15.7011C7.59367 15.6256 7.61263 15.5247 7.68577 15.4719L10.0115 13.7885L6.79551 15.6449C6.71661 15.6913 6.61637 15.6659 6.56761 15.589C6.51885 15.5118 6.53984 15.4109 6.61468 15.3591L8.22725 14.246L6.00243 15.5305C5.92285 15.5768 5.8216 15.5508 5.77351 15.4726C5.72543 15.3943 5.74846 15.2924 5.82499 15.2419L5.88323 15.204L5.48094 15.4363C5.40136 15.482 5.30112 15.4566 5.2527 15.3794C5.20427 15.3019 5.22595 15.2006 5.3018 15.1492L6.12942 14.5918L4.89341 15.3053C4.81485 15.3517 4.71393 15.3263 4.66517 15.2487C4.61674 15.1715 4.63808 15.0699 4.71359 15.0188L5.55137 14.4492L4.33771 15.1495C4.25915 15.1959 4.15857 15.1705 4.10981 15.0933C4.06105 15.0164 4.08204 14.9152 4.15722 14.8634L4.96046 14.3117L3.82942 14.9646C3.75222 15.01 3.65266 14.9863 3.60288 14.9108C3.55378 14.8356 3.57206 14.735 3.64419 14.6818L5.01735 13.671L3.28389 14.6717C3.20769 14.7164 3.11017 14.6937 3.06005 14.6216C3.00993 14.5494 3.02382 14.4502 3.09188 14.3943L4.56866 13.1831L2.94458 14.1207C2.8694 14.1648 2.77289 14.1434 2.72243 14.0726C2.67198 14.0022 2.68281 13.9043 2.74817 13.8468L3.70684 13.0039L2.94458 13.4441C2.87008 13.4882 2.77289 13.4672 2.72209 13.3957C2.67164 13.3246 2.68315 13.2267 2.74918 13.1695L2.91274 13.0276C2.86195 13.0439 2.80608 13.0361 2.76138 13.0049C2.70753 12.9663 2.68112 12.8993 2.69399 12.8343L2.80608 12.2627C2.76849 12.2501 2.73496 12.2244 2.71363 12.1868C2.66656 12.1059 2.69433 12.0022 2.7756 11.9555L2.94491 11.8576C3.00248 11.8241 3.07393 11.8282 3.12811 11.8661C3.18196 11.9047 3.20837 11.9718 3.1955 12.0368L3.09798 12.5339L4.27066 11.857C4.34584 11.8129 4.44269 11.8346 4.49314 11.9054C4.5436 11.9765 4.53209 12.0744 4.46605 12.1316L4.31705 12.261L5.01735 11.8566C5.09219 11.8129 5.18903 11.8339 5.23949 11.9047C5.28995 11.9752 5.27911 12.073 5.21375 12.1306L4.25475 12.9734L6.19071 11.856C6.2669 11.8116 6.36443 11.8336 6.41455 11.9061C6.46466 11.9785 6.45078 12.0774 6.38272 12.1333L4.90628 13.3442L7.48632 11.8549C7.56387 11.8096 7.66342 11.8336 7.71286 11.9088C7.76197 11.984 7.74368 12.0845 7.67155 12.1377L6.29772 13.1492L8.54082 11.8543C8.62006 11.8085 8.7203 11.8333 8.76872 11.9105C8.81748 11.9873 8.79649 12.0886 8.72131 12.1404L7.92011 12.6907L9.36979 11.8536C9.44937 11.8075 9.54961 11.8329 9.59803 11.9101C9.64646 11.9873 9.62512 12.0889 9.54961 12.1401L8.71386 12.7083L10.1954 11.8532C10.2743 11.8069 10.3749 11.8322 10.4236 11.9101C10.472 11.9877 10.4504 12.0889 10.3745 12.1404L9.54453 12.6991L11.0108 11.8529C11.0904 11.8065 11.192 11.8326 11.2397 11.9108C11.2878 11.9887 11.2648 12.091 11.1883 12.1414L11.1303 12.179L11.6965 11.8522C11.7758 11.8065 11.876 11.8316 11.9244 11.9081C11.9732 11.9853 11.9522 12.0862 11.8774 12.138L10.2634 13.2521L12.6894 11.8516C12.767 11.8058 12.8669 11.8302 12.9163 11.9061C12.9654 11.9816 12.9464 12.0825 12.8733 12.1353L10.5476 13.8187L13.9559 11.8509C14.0348 11.8048 14.1357 11.8302 14.1841 11.9074C14.2326 11.9846 14.2112 12.0862 14.1357 12.1377L12.5729 13.1986L14.9085 11.8505C14.9877 11.8048 15.0883 11.8295 15.1367 11.9071C15.1851 11.9843 15.1638 12.0855 15.0883 12.137L13.4229 13.2711L15.8844 11.8502C15.962 11.8045 16.0622 11.8289 16.1113 11.9047C16.1604 11.9806 16.1411 12.0815 16.068 12.1343L13.6782 13.8491L17.1428 11.8492C17.2224 11.8031 17.3236 11.8289 17.3717 11.9071C17.4198 11.9853 17.3967 12.0872 17.3202 12.1377L16.8786 12.4259L17.6541 11.9782C17.7317 11.9328 17.8312 11.9569 17.8803 12.0317C17.9298 12.1069 17.9118 12.2075 17.8397 12.2606L15.5404 13.9663L17.6541 12.7459C17.733 12.7002 17.8339 12.7249 17.8823 12.8024C17.9308 12.8796 17.9094 12.9812 17.8339 13.0324L17.7059 13.1197C17.7689 13.1065 17.8356 13.1312 17.8756 13.1858C17.9264 13.2555 17.9165 13.3527 17.8525 13.411L16.9152 14.2626L17.6541 13.8359C17.7347 13.7882 17.8387 13.8163 17.8854 13.8979C17.9325 13.9788 17.9047 14.0825 17.8234 14.1292L15.7178 15.3449C15.644 15.3889 15.5478 15.3683 15.4963 15.2982C15.4455 15.2284 15.4554 15.1312 15.5194 15.073L16.457 14.2213L13.9921 15.6442C13.9136 15.6906 13.8127 15.6652 13.7639 15.5877C13.7155 15.5105 13.7368 15.4089 13.8123 15.3578L13.837 15.3408L13.1544 15.7347C13.0771 15.7804 12.9779 15.756 12.9281 15.6811C12.8787 15.606 12.8967 15.5054 12.9688 15.4522L15.2684 13.7462L11.6562 15.8315C11.5767 15.8779 11.4754 15.8518 11.4273 15.7736C11.3792 15.6954 11.4023 15.5934 11.4788 15.543L11.9224 15.2538L10.8862 15.8518C10.8598 15.8674 10.8307 15.8745 10.8019 15.8745Z" fill="#E59900"/>
<path d="M9.96781 13.8447C9.91261 13.8447 9.85843 13.8177 9.82592 13.7675C9.77648 13.692 9.79511 13.5914 9.86792 13.5386L12.3985 11.6904L8.77176 13.7845C8.69218 13.8309 8.59093 13.8051 8.54284 13.7266C8.49476 13.6483 8.51779 13.5461 8.59466 13.496L8.94243 13.2694L8.1182 13.7448C8.03862 13.7912 7.93737 13.7652 7.88928 13.6869C7.84086 13.6087 7.86422 13.5064 7.94109 13.4563L8.16967 13.3077L7.50223 13.693C7.42265 13.7391 7.32207 13.714 7.27365 13.6358C7.22522 13.5583 7.24757 13.4563 7.32343 13.4055L8.28989 12.7618L6.80871 13.6168C6.73082 13.6626 6.62991 13.6378 6.58115 13.5613C6.53238 13.4848 6.5527 13.3835 6.6272 13.3314L8.38301 12.1086L5.97872 13.4966C5.89914 13.5427 5.79823 13.5173 5.7498 13.4387C5.70172 13.3608 5.72474 13.2589 5.80094 13.2085L5.96043 13.1038L5.44808 13.3994C5.37053 13.4448 5.27064 13.4204 5.22154 13.3453C5.17209 13.2697 5.19072 13.1688 5.26386 13.116L7.19272 11.711L4.612 13.2007C4.53242 13.2464 4.43184 13.221 4.38376 13.1438C4.33499 13.0662 4.35701 12.9646 4.4332 12.9135L4.88155 12.6121L4.12538 13.0486C4.04817 13.0943 3.94828 13.0703 3.89884 12.9948C3.84973 12.9196 3.86802 12.819 3.94015 12.7659L5.47145 11.6382L3.49925 12.7767C3.42306 12.8214 3.32485 12.7987 3.27541 12.7266C3.22529 12.6538 3.23952 12.5549 3.30758 12.499L4.94115 11.1651L2.97877 12.2982C2.90292 12.3429 2.80539 12.3209 2.75527 12.2484C2.70515 12.1763 2.71836 12.0774 2.78609 12.0215L3.87039 11.1238L2.94355 11.6589C2.87142 11.7012 2.77932 11.6833 2.72683 11.6186C2.67468 11.5536 2.67739 11.4598 2.73394 11.3981L3.4024 10.6684L2.94389 10.9328C2.88666 10.9667 2.81386 10.9623 2.76001 10.9237C2.70583 10.8848 2.6801 10.8174 2.69364 10.752L2.802 10.2305C2.76577 10.2173 2.7336 10.1919 2.7126 10.1557C2.66553 10.0747 2.6933 9.97112 2.77457 9.92439L2.94389 9.82653C3.0018 9.793 3.07393 9.79707 3.12777 9.83567C3.18195 9.87461 3.20769 9.942 3.19414 10.0074L3.10203 10.4506L4.1843 9.82585C4.25643 9.78352 4.34854 9.80147 4.40103 9.86615C4.45318 9.93116 4.45047 10.025 4.39392 10.0866L3.72579 10.8164L5.443 9.8245C5.51885 9.78014 5.61604 9.80181 5.6665 9.87427C5.71662 9.9464 5.70341 10.0453 5.63568 10.1012L4.55104 10.9992L6.58758 9.82348C6.66377 9.77878 6.76164 9.80147 6.81142 9.8736C6.86153 9.9464 6.84731 10.0453 6.77925 10.1012L5.14568 11.435L7.93906 9.82213C8.01661 9.77709 8.11651 9.80079 8.16527 9.87597C8.21471 9.95114 8.19642 10.0517 8.12429 10.1049L6.59266 11.2329L9.03759 9.82145C9.11649 9.77472 9.21774 9.80079 9.26583 9.87834C9.31459 9.95589 9.29258 10.0575 9.21639 10.1086L8.76702 10.4107L9.78868 9.82111C9.86622 9.77539 9.96578 9.80011 10.0152 9.87529C10.0647 9.95047 10.0457 10.0517 9.97289 10.1045L8.04438 11.5092L10.9702 9.82043C11.0497 9.77404 11.1507 9.79978 11.1991 9.87834C11.2472 9.95622 11.2241 10.0582 11.1479 10.1086L10.9885 10.2132L11.6698 9.82009C11.7487 9.77438 11.8486 9.7991 11.8973 9.87563C11.9461 9.95216 11.9258 10.0534 11.8513 10.1056L10.0965 11.3277L12.709 9.81942C12.7879 9.77302 12.8892 9.79842 12.9376 9.87665C12.986 9.95419 12.9637 10.0561 12.8878 10.1069L11.9197 10.7517L13.5353 9.81908C13.6149 9.77235 13.7165 9.79876 13.7642 9.87698C13.8126 9.95521 13.7893 10.0575 13.7124 10.1076L13.4845 10.2559L14.242 9.81874C14.3216 9.77235 14.4232 9.79842 14.471 9.87665C14.519 9.95487 14.496 10.0571 14.4191 10.1073L14.071 10.3341L14.9643 9.81874C15.0419 9.77336 15.1418 9.79741 15.1909 9.87292C15.2403 9.94844 15.2217 10.049 15.1489 10.1018L12.6183 11.9501L16.3114 9.81772C16.389 9.77235 16.4885 9.79639 16.538 9.8719C16.5874 9.94708 16.5688 10.048 16.496 10.1008L13.9762 11.943L17.6551 9.81942C17.734 9.77404 17.8343 9.79876 17.883 9.87529C17.9318 9.9525 17.9108 10.0534 17.8359 10.1052L16.0188 11.3599L17.6551 10.4154C17.7327 10.3697 17.8326 10.3941 17.882 10.4699C17.9311 10.5454 17.9121 10.6464 17.839 10.6992L16.4611 11.6958L17.6551 11.0063C17.7293 10.963 17.8254 10.983 17.8762 11.0531C17.9274 11.1228 17.9176 11.22 17.8539 11.2782L16.7686 12.2654L17.6551 11.7537C17.7357 11.7066 17.8397 11.7344 17.8864 11.8157C17.9335 11.8966 17.9057 12.0002 17.8244 12.0469L15.5769 13.3446C15.5031 13.3883 15.4069 13.3679 15.3558 13.2979C15.3047 13.2281 15.3145 13.1309 15.3781 13.0727L16.4635 12.0855L13.7717 13.6395C13.6941 13.6849 13.5942 13.6605 13.5448 13.585C13.4957 13.5095 13.5147 13.4086 13.5878 13.3558L14.966 12.3592L12.5556 13.7506C12.4778 13.797 12.3765 13.7716 12.3277 13.6947C12.279 13.6175 12.3 13.5166 12.3748 13.4648L14.1946 12.2081L11.4246 13.8072C11.3477 13.8529 11.2478 13.8288 11.1981 13.753C11.1486 13.6778 11.1672 13.5769 11.2401 13.5241L13.7591 11.6822L10.0528 13.8221C10.0264 13.8376 9.9966 13.8447 9.96781 13.8447Z" fill="#DB8C00"/>
<path d="M10.7413 11.8116C10.6857 11.8116 10.6312 11.7842 10.5987 11.734C10.5499 11.6579 10.5692 11.5573 10.6427 11.5045L12.9844 9.83262L9.6065 11.7825C9.52793 11.8289 9.42736 11.8035 9.3786 11.7263C9.32983 11.6494 9.35083 11.5481 9.426 11.4963L11.255 10.2397L8.64647 11.7456C8.56926 11.7913 8.46971 11.7669 8.41993 11.6914C8.37049 11.6159 8.38911 11.5153 8.46192 11.4621L10.9173 9.67245L7.47887 11.6575C7.39929 11.7036 7.29838 11.6775 7.24995 11.5999C7.20187 11.5221 7.22455 11.4198 7.30108 11.3693L7.83003 11.0219L6.84766 11.5891C6.76808 11.6348 6.66784 11.6098 6.61942 11.5322C6.57099 11.455 6.59267 11.3534 6.66818 11.3023L7.8727 10.4892L6.13687 11.4912C6.0583 11.5373 5.95807 11.5122 5.9093 11.4357C5.86054 11.3592 5.88086 11.2579 5.95536 11.2058L7.57301 10.0791L5.36918 11.3514C5.29198 11.3971 5.19242 11.3731 5.14264 11.2975C5.09354 11.222 5.11182 11.1215 5.18429 11.0683L7.15107 9.62436L4.52023 11.1428C4.44269 11.1882 4.34245 11.1638 4.29369 11.0886C4.24425 11.0131 4.26321 10.9122 4.33602 10.8594L5.94655 9.68701L3.83552 10.9061C3.75695 10.9518 3.65672 10.9271 3.60796 10.8506C3.55919 10.774 3.57951 10.6728 3.65401 10.6206L4.45081 10.0649L3.38784 10.6785C3.31131 10.7236 3.21243 10.7005 3.16299 10.6267C3.11321 10.5532 3.12879 10.4533 3.19889 10.3988L4.61471 9.29115L2.96997 10.241C2.89209 10.2867 2.79219 10.262 2.74275 10.1862C2.69365 10.11 2.71363 10.009 2.78711 9.95656L2.91511 9.86547C2.84535 9.88917 2.76747 9.86615 2.72311 9.80485C2.67231 9.73476 2.68213 9.63791 2.74647 9.57966L3.51415 8.88648L2.94457 9.21529C2.87245 9.25762 2.78 9.24035 2.72751 9.17432C2.67536 9.10896 2.67841 9.01482 2.73564 8.95387L3.0184 8.6491L2.94424 8.69177C2.8843 8.72631 2.81014 8.72157 2.75562 8.6789C2.70144 8.63691 2.67807 8.5658 2.69636 8.49976L2.78305 8.19059C2.7546 8.17637 2.72988 8.15402 2.71295 8.12422C2.66588 8.04329 2.69365 7.93966 2.77492 7.89293L2.94424 7.79507C3.00316 7.76019 3.078 7.76493 3.13285 7.80794C3.18704 7.84993 3.2104 7.92104 3.19211 7.98707L3.13489 8.19093L3.82163 7.79473C3.89342 7.7524 3.98621 7.77001 4.0387 7.8357C4.09085 7.90106 4.0878 7.9952 4.03057 8.05615L3.74815 8.36058L4.73018 7.79371C4.80468 7.75003 4.90052 7.77069 4.95165 7.84078C5.00245 7.91088 4.99263 8.00773 4.92828 8.06597L4.16128 8.75848L5.83345 7.7927C5.91134 7.74664 6.01157 7.7717 6.06067 7.84756C6.10977 7.92375 6.0898 8.02466 6.01631 8.07715L5.91303 8.15063L6.5334 7.79236C6.61027 7.74732 6.70882 7.77069 6.75826 7.84417C6.80804 7.91765 6.79246 8.01755 6.72236 8.07207L5.3062 9.17974L7.71117 7.79134C7.78905 7.74529 7.88997 7.77035 7.93873 7.84688C7.98749 7.92341 7.96718 8.02466 7.89268 8.07681L7.09587 8.63251L8.55403 7.791C8.63157 7.74495 8.73147 7.77001 8.78057 7.84519C8.83001 7.9207 8.81105 8.02161 8.73824 8.07444L7.12669 9.24746L9.65052 7.79033C9.72807 7.74529 9.82762 7.76899 9.87706 7.84417C9.92617 7.91968 9.90788 8.02026 9.83541 8.07342L7.86965 9.51668L10.8615 7.78931C10.94 7.74326 11.0403 7.76832 11.089 7.84485C11.1378 7.92172 11.1175 8.02263 11.043 8.07478L9.42533 9.20141L11.8726 7.78863C11.9515 7.74224 12.0524 7.76798 12.1009 7.84552C12.1493 7.92273 12.1276 8.02432 12.0521 8.07546L10.8479 8.88851L12.7541 7.78796C12.8337 7.74122 12.9346 7.76764 12.983 7.84552C13.0311 7.92341 13.0084 8.02568 12.9319 8.07613L12.3992 8.42594L13.5052 7.78762C13.5827 7.74224 13.6823 7.76662 13.7317 7.8418C13.7812 7.91698 13.7625 8.01789 13.6897 8.07105L11.2353 9.85971L14.8262 7.7866C14.9051 7.74055 15.0053 7.76595 15.0541 7.84281C15.1028 7.91968 15.0819 8.02094 15.0067 8.07275L13.1767 9.33009L15.8512 7.78592C15.9288 7.73987 16.029 7.76459 16.0784 7.84078C16.1272 7.91698 16.1079 8.01755 16.0344 8.07038L13.6928 9.74221L17.0832 7.78525C17.1627 7.73885 17.264 7.76493 17.3124 7.84315C17.3605 7.92138 17.3371 8.02364 17.2603 8.07376L17.0049 8.23969L17.6544 7.86483C17.7333 7.81809 17.8343 7.84417 17.883 7.92172C17.9314 7.99926 17.9091 8.10119 17.8336 8.15199L16.7144 8.9024L17.6544 8.35957C17.7333 8.31318 17.8346 8.33891 17.8827 8.41646C17.9311 8.49401 17.9094 8.5956 17.8336 8.64673L17.479 8.88479L17.6544 8.78388C17.7306 8.73884 17.8295 8.76186 17.879 8.83501C17.9287 8.90815 17.9138 9.00771 17.8444 9.06291L16.6365 10.0233L17.6544 9.43574C17.7293 9.3924 17.8248 9.41305 17.8759 9.48247C17.9267 9.55257 17.9169 9.64976 17.8529 9.708L17.476 10.049L17.6233 9.96435C17.7039 9.91694 17.8078 9.94505 17.8546 10.0263C17.9016 10.1073 17.8739 10.2109 17.7926 10.2576L16.2691 11.1374C16.1949 11.1814 16.0988 11.1607 16.0476 11.0906C15.9968 11.0205 16.0067 10.9234 16.0707 10.8651L16.4476 10.5238L14.8296 11.4581C14.753 11.5024 14.6542 11.4801 14.6051 11.4069C14.5553 11.3334 14.5702 11.2342 14.6396 11.179L15.8472 10.219L13.3653 11.6518C13.2854 11.6975 13.1852 11.6721 13.1371 11.5949C13.0887 11.5173 13.1103 11.4157 13.1862 11.3646L13.5424 11.1252L12.5082 11.7222C12.4283 11.7682 12.3281 11.7428 12.2797 11.6653C12.2312 11.5878 12.2536 11.4858 12.3291 11.435L13.4473 10.6853L11.5648 11.772C11.4852 11.818 11.384 11.7923 11.3356 11.7141C11.2875 11.6358 11.3108 11.5336 11.3877 11.4835L11.6461 11.3158L10.8259 11.7889C10.7995 11.8045 10.77 11.8116 10.7413 11.8116Z" fill="#E59900"/>
<path d="M10.1933 9.78318C10.1365 9.78318 10.0806 9.7544 10.0488 9.70225C10.0007 9.62402 10.0244 9.52176 10.1012 9.47164L10.1283 9.45403L9.61361 9.75101C9.53504 9.79706 9.43481 9.77201 9.38571 9.69514C9.33728 9.61827 9.35794 9.51701 9.43278 9.4652L11.3833 8.11508L8.616 9.71275C8.53709 9.75914 8.43652 9.73374 8.38776 9.65619C8.33933 9.57865 8.36101 9.4774 8.43652 9.42592L9.94716 8.40258L7.7772 9.65518C7.69762 9.70157 7.59603 9.67583 7.54829 9.59727C7.5002 9.51939 7.52323 9.41712 7.59976 9.367L8.03321 9.08289L7.14904 9.59355C7.06946 9.63926 6.96889 9.6142 6.92046 9.53632C6.87204 9.45877 6.89439 9.35718 6.97024 9.30605L7.94753 8.6535L6.46635 9.50855C6.38745 9.55494 6.28722 9.52954 6.23812 9.452C6.18969 9.37479 6.21103 9.27354 6.28654 9.22207L7.57944 8.3423L5.75624 9.39443C5.67734 9.44015 5.57744 9.41509 5.52868 9.33856C5.47992 9.26169 5.50057 9.16077 5.57507 9.10862L7.03187 8.09882L5.04207 9.2478C4.96316 9.29386 4.86293 9.2688 4.81417 9.19159C4.7654 9.11438 4.78674 9.01313 4.86191 8.96132L5.86088 8.27864L4.45251 9.09135C4.37293 9.13741 4.27235 9.11201 4.22393 9.03446C4.1755 8.95692 4.19785 8.85533 4.27337 8.80419L4.61776 8.57291L3.98993 8.93524C3.91306 8.98062 3.81283 8.95692 3.76339 8.8814C3.71429 8.80589 3.73257 8.70497 3.80538 8.65215L5.21477 7.62135L3.41155 8.66231C3.33434 8.70802 3.23444 8.6833 3.185 8.60812C3.13556 8.53295 3.15419 8.43204 3.22699 8.37887L4.24086 7.63964L3.03499 8.33553C2.9588 8.37989 2.86161 8.35788 2.81149 8.28609C2.76137 8.21362 2.77458 8.11508 2.84231 8.05886L4.05529 7.05211L2.9439 7.69382C2.86872 7.73784 2.77187 7.71651 2.72142 7.64539C2.67096 7.57428 2.68247 7.47641 2.74817 7.41919L3.30556 6.93528L2.94424 7.14388C2.87346 7.18587 2.78203 7.1686 2.72887 7.10527C2.67638 7.04161 2.67739 6.94882 2.73157 6.88652L3.01603 6.55838L2.94424 6.59969C2.88362 6.63491 2.80844 6.62882 2.75392 6.58547C2.69974 6.54179 2.67739 6.46932 2.69805 6.40295L2.7756 6.15304C2.75054 6.13848 2.72853 6.11782 2.71295 6.09039C2.66588 6.00946 2.69365 5.90584 2.77492 5.8591L2.94424 5.76124C3.00451 5.72602 3.08037 5.73212 3.13455 5.77546C3.18907 5.81881 3.21142 5.89127 3.19076 5.95799L3.14979 6.09039L3.72038 5.7609C3.79116 5.71925 3.88259 5.73584 3.93575 5.79951C3.98824 5.86317 3.98722 5.95595 3.93304 6.01826L3.64859 6.3464L4.66381 5.76056C4.73865 5.71688 4.83584 5.73754 4.88629 5.80899C4.93675 5.8801 4.92524 5.97796 4.85954 6.03519L4.30215 6.5191L5.61673 5.76022C5.69224 5.71586 5.79011 5.73787 5.84022 5.80966C5.89034 5.88213 5.87713 5.98067 5.80941 6.03689L4.59643 7.04364L6.82124 5.75921C6.89879 5.71383 6.99835 5.73787 7.04779 5.81339C7.09723 5.8889 7.0786 5.98948 7.0058 6.04264L5.99261 6.78154L7.76433 5.75853C7.84188 5.71349 7.94178 5.7372 7.99088 5.81237C8.03998 5.88755 8.0217 5.9888 7.94889 6.04163L6.5395 7.07243L8.81647 5.75785C8.89537 5.71146 8.99628 5.7372 9.04504 5.81474C9.09347 5.89229 9.07112 5.99388 8.9956 6.04501L8.64884 6.27799L9.54994 5.75785C9.62885 5.71214 9.72942 5.7372 9.77784 5.81407C9.82661 5.89127 9.80527 5.99253 9.7301 6.04434L8.73248 6.72634L10.4107 5.75751C10.4883 5.7118 10.5895 5.73652 10.6383 5.81339C10.6871 5.89026 10.6664 5.99117 10.5919 6.04332L9.1358 7.05278L11.3803 5.75684C11.4595 5.71078 11.5601 5.73618 11.6085 5.81339C11.6569 5.8906 11.6356 5.99185 11.5601 6.04332L10.2665 6.92377L12.2888 5.7565C12.3677 5.70977 12.4686 5.73584 12.5174 5.81373C12.5658 5.89127 12.5435 5.99286 12.4676 6.044L11.4917 6.69553L13.1191 5.75616C13.1987 5.70977 13.3 5.73584 13.348 5.81407C13.3961 5.89229 13.3731 5.99422 13.2966 6.04434L12.8608 6.3298L13.855 5.75616C13.9342 5.71044 14.0345 5.73517 14.0832 5.81271C14.1316 5.89026 14.11 5.99151 14.0345 6.04298L12.5248 7.06599L14.7943 5.75582C14.8726 5.71011 14.9731 5.7355 15.0222 5.8117C15.0707 5.88857 15.05 5.98982 14.9752 6.04163L13.0233 7.39277L15.86 5.75514C15.9396 5.70875 16.0412 5.73449 16.0893 5.81339C16.1374 5.89161 16.1137 5.99388 16.0368 6.044L16.0121 6.05991L16.541 5.75481C16.6199 5.70807 16.7205 5.73415 16.7693 5.8117C16.8177 5.88924 16.796 5.99083 16.7202 6.04197L15.2972 6.99962L17.4546 5.75413C17.5339 5.70774 17.6351 5.73381 17.6836 5.8117C17.7317 5.88958 17.709 5.99151 17.6324 6.0423L16.9003 6.52418L17.6551 6.08836C17.733 6.04231 17.8329 6.06736 17.8823 6.14356C17.9314 6.21975 17.9115 6.32032 17.8376 6.37315L16.2037 7.53263L17.6551 6.69485C17.731 6.65049 17.8288 6.6725 17.879 6.74497C17.9291 6.81744 17.9152 6.91665 17.8468 6.97219L16.4848 8.08561L17.6551 7.41004C17.7272 7.36771 17.82 7.38566 17.8725 7.45136C17.925 7.51705 17.9209 7.61119 17.8634 7.67214L17.432 8.13201L17.5532 8.06225C17.6341 8.01484 17.7381 8.04295 17.7845 8.12422C17.8315 8.20515 17.8038 8.30877 17.7225 8.35551L16.6098 8.99755C16.5376 9.03988 16.4448 9.02193 16.3924 8.95624C16.3399 8.89054 16.3439 8.79641 16.4015 8.73545L16.8326 8.27593L14.8431 9.42457C14.7669 9.46927 14.6694 9.44692 14.6193 9.37445C14.5692 9.30198 14.583 9.20276 14.6514 9.14723L16.0138 8.03347L13.2434 9.63283C13.1659 9.67888 13.0653 9.65382 13.0162 9.57763C12.9671 9.50144 12.9871 9.40086 13.0609 9.34804L14.6934 8.18924L12.0433 9.71952C11.9641 9.76557 11.8628 9.73984 11.8144 9.66195C11.7663 9.58406 11.789 9.48214 11.8655 9.43134L12.6 8.94811L11.2096 9.75067C11.13 9.79673 11.0298 9.77133 10.9813 9.69378C10.9329 9.61623 10.9546 9.51464 11.0304 9.46351L12.4524 8.50654L10.2783 9.76151C10.2516 9.77708 10.2225 9.7842 10.1937 9.7842L10.1933 9.78318Z" fill="#DB8C00"/>
<path d="M10.5574 7.75003C10.5005 7.75003 10.445 7.72125 10.4128 7.66944C10.3647 7.59121 10.3881 7.48895 10.4649 7.43883L10.7677 7.24208L9.93124 7.72497C9.85336 7.77035 9.75312 7.74597 9.70436 7.67045C9.65526 7.59426 9.67456 7.49369 9.74804 7.44086L12.131 5.73144L8.74603 7.68569C8.66713 7.73208 8.56655 7.70669 8.51779 7.62914C8.46937 7.55159 8.49104 7.45034 8.56655 7.39887L10.0968 6.36164L7.89945 7.63016C7.82156 7.67519 7.722 7.65115 7.67256 7.57597C7.62346 7.50012 7.64243 7.39955 7.71557 7.34638L10.0532 5.6522L6.81548 7.52145C6.73591 7.56818 6.63499 7.54177 6.58657 7.46389C6.53848 7.386 6.56117 7.28373 6.6377 7.23328L7.0532 6.96034L6.22423 7.43883C6.14465 7.48488 6.04408 7.45948 5.99565 7.38194C5.94723 7.30439 5.96958 7.20246 6.04509 7.15167L6.9296 6.55906L5.59302 7.33046C5.51412 7.37652 5.41388 7.35146 5.36512 7.27425C5.31636 7.19704 5.33769 7.09579 5.41287 7.04398L6.59402 6.236L4.94183 7.18959C4.86428 7.23463 4.76574 7.21093 4.71596 7.13677C4.66652 7.06227 4.68345 6.96203 4.7549 6.90819L6.77959 5.37351L4.07595 6.93426C3.99908 6.97964 3.9002 6.95594 3.85109 6.88245C3.80131 6.80863 3.81689 6.70907 3.88699 6.65455L5.70951 5.22993L3.35093 6.59157C3.27339 6.63661 3.1745 6.61324 3.12506 6.5384C3.07562 6.46356 3.09289 6.36333 3.16468 6.30949L4.33263 5.43378L2.98182 6.21365C2.90495 6.25971 2.80472 6.23566 2.75528 6.15947C2.70584 6.0843 2.72446 5.98338 2.79727 5.93056L3.25645 5.59463L2.94356 5.77512C2.87007 5.81779 2.77492 5.79883 2.72345 5.73009C2.67231 5.66134 2.6801 5.56517 2.74241 5.50591L3.55479 4.73112L2.94356 5.08397C2.87312 5.12529 2.78203 5.10971 2.7292 5.04639C2.67638 4.9834 2.67638 4.89197 2.7292 4.82898L3.00316 4.50119L2.9439 4.53539C2.88294 4.57061 2.80675 4.56485 2.75257 4.52015C2.69805 4.47579 2.67638 4.40231 2.69873 4.3356L2.77018 4.11921C2.74749 4.10499 2.72751 4.08501 2.71295 4.05995C2.66588 3.97902 2.69365 3.87539 2.77492 3.82866L2.94423 3.7308C3.00485 3.69592 3.08172 3.70201 3.13556 3.74604C3.19008 3.7904 3.21175 3.86388 3.1894 3.93059L3.15994 4.01965L3.66078 3.73046C3.73122 3.68915 3.82231 3.70472 3.87514 3.76805C3.92796 3.83103 3.92796 3.92246 3.87514 3.98545L3.60118 4.31325L4.61166 3.72978C4.68515 3.68644 4.77996 3.70608 4.83177 3.77482C4.88291 3.84356 4.87512 3.93973 4.81281 3.999L4.00077 4.77311L5.80975 3.72877C5.88729 3.68373 5.98685 3.70743 6.03629 3.78261C6.08573 3.85779 6.06711 3.95904 5.9943 4.01186L5.53342 4.34914L6.60858 3.72843C6.68545 3.68305 6.78501 3.70676 6.83445 3.78159C6.88389 3.85643 6.86662 3.95667 6.79483 4.01051L5.62621 4.88655L7.63396 3.72775C7.71083 3.68271 7.80971 3.70608 7.85881 3.77956C7.90859 3.85338 7.89301 3.95294 7.82292 4.00746L6.00073 5.43175L8.95429 3.72673C9.0315 3.68102 9.13038 3.70506 9.18016 3.77956C9.2296 3.85406 9.21267 3.9543 9.14121 4.00814L7.11653 5.54282L10.2641 3.72572C10.3437 3.68 10.4433 3.70472 10.492 3.78193C10.5408 3.85914 10.5194 3.96039 10.4443 4.0122L9.26244 4.82052L11.1601 3.72538C11.239 3.67899 11.34 3.70472 11.3887 3.78227C11.4371 3.85982 11.4148 3.96175 11.3393 4.01254L10.4521 4.60718L11.98 3.72538C12.0596 3.67933 12.1605 3.70506 12.2089 3.78295C12.257 3.86083 12.2343 3.9631 12.1578 4.01356L11.7436 4.28548L12.7148 3.72504C12.7924 3.67899 12.8923 3.70405 12.9417 3.77922C12.9908 3.85508 12.9718 3.95565 12.8987 4.00882L10.5608 5.70333L13.9884 3.72436C14.0676 3.67831 14.1682 3.70337 14.2166 3.78092C14.2651 3.85846 14.2434 3.95971 14.1679 4.01119L12.6369 5.04876L14.9325 3.72369C15.0097 3.67797 15.1103 3.70235 15.1594 3.77821C15.2085 3.85406 15.1892 3.95497 15.1157 4.0078L12.7334 5.71654L16.1871 3.72267C16.2671 3.67594 16.3676 3.70235 16.4164 3.78058C16.4645 3.8588 16.4411 3.96107 16.3643 4.01119L16.0612 4.20827L16.9023 3.72233C16.9795 3.67628 17.0801 3.701 17.1289 3.77651C17.1783 3.85203 17.1594 3.95294 17.0866 4.00577L14.6311 5.79307L17.6544 4.04776C17.7333 4.0017 17.8332 4.0271 17.8823 4.10363C17.9308 4.1805 17.9101 4.28175 17.8353 4.33356L16.5102 5.25092L17.6544 4.59025C17.732 4.54419 17.8322 4.56858 17.8817 4.64511C17.9304 4.7213 17.9111 4.82187 17.8373 4.8747L17.0578 5.43006L17.6544 5.08567C17.7286 5.04232 17.8248 5.0623 17.8759 5.1324C17.9267 5.2025 17.9169 5.29935 17.8529 5.35759L17.0246 6.10935L17.6548 5.74566C17.735 5.69859 17.8393 5.72602 17.8861 5.80763C17.9331 5.88857 17.9054 5.99219 17.8241 6.03892L15.8241 7.19332C15.7503 7.237 15.6541 7.21668 15.6027 7.14659C15.5519 7.07649 15.5617 6.97964 15.6257 6.9214L16.4533 6.17031L14.1557 7.49673C14.0781 7.54211 13.9776 7.51773 13.9285 7.44188C13.8797 7.36568 13.899 7.26511 13.9728 7.21228L14.7503 6.65828L13.0937 7.61458C13.0159 7.66063 12.9149 7.63523 12.8658 7.5587C12.8174 7.48183 12.8381 7.38058 12.9129 7.32877L14.2407 6.40972L12.026 7.68806C11.9481 7.73344 11.8482 7.70906 11.7995 7.63388C11.75 7.55836 11.769 7.45745 11.8418 7.40463L14.2976 5.61732L10.642 7.72734C10.6153 7.74292 10.5862 7.75003 10.5574 7.75003Z" fill="#E59900"/>
<path d="M9.84252 5.7162C9.788 5.7162 9.7345 5.68979 9.70165 5.64103C9.65221 5.56653 9.66846 5.46663 9.73924 5.41245L11.7947 3.8334L8.64681 5.65051C8.56892 5.69622 8.46801 5.6715 8.41958 5.59531C8.37048 5.51878 8.39046 5.41787 8.46462 5.36572L9.95054 4.31731L7.75112 5.58684C7.67324 5.63188 7.573 5.60818 7.5239 5.53199C7.47514 5.45579 7.49444 5.35522 7.56792 5.30239L9.20183 4.1358L6.84968 5.49372C6.77078 5.54011 6.67122 5.51472 6.62178 5.43785C6.57336 5.36098 6.59402 5.25973 6.66885 5.20791L7.80971 4.41822L6.12298 5.39213C6.04543 5.43683 5.94655 5.41346 5.89711 5.3393C5.84767 5.26447 5.86494 5.16457 5.93605 5.11039L7.79819 3.70405L5.1809 5.21503C5.10403 5.26074 5.00447 5.23636 4.95469 5.16152C4.90525 5.08635 4.9232 4.98577 4.99533 4.93261L6.46974 3.8395L4.42643 5.01896C4.34888 5.06433 4.24831 5.03995 4.1992 4.9641C4.15044 4.88791 4.16974 4.78733 4.24357 4.73451L5.03021 4.17305L3.888 4.83237C3.81079 4.87809 3.71123 4.85337 3.66179 4.77887C3.61235 4.70369 3.6303 4.60312 3.70243 4.54995L4.45453 3.99256L3.40816 4.59634C3.3323 4.64104 3.23512 4.61835 3.185 4.5469C3.13454 4.47477 3.14741 4.37657 3.2148 4.32002L3.97198 3.68373L3.01297 4.23739C2.93949 4.28006 2.84569 4.26144 2.79422 4.19371C2.74241 4.12632 2.7485 4.03117 2.80912 3.97089L3.03871 3.74231C2.95913 3.78092 2.86127 3.75349 2.81623 3.6756C2.76916 3.59467 2.79693 3.49105 2.8782 3.44431L3.99061 2.80193C4.06375 2.75926 4.15755 2.77755 4.20936 2.84561C4.26117 2.913 4.25508 3.00816 4.19446 3.06843L3.96521 3.29701L5.47348 2.42638C5.54933 2.38169 5.64652 2.40437 5.69664 2.47583C5.7471 2.54795 5.73423 2.64616 5.66684 2.70271L4.90966 3.339L6.84596 2.22117C6.92351 2.17614 7.02272 2.19984 7.07217 2.27468C7.12161 2.34952 7.10366 2.45043 7.03153 2.50359L6.2801 3.06098L7.90757 2.12162C7.98512 2.07556 8.08535 2.10028 8.13479 2.17647C8.18356 2.25267 8.16426 2.35324 8.09043 2.40607L7.30345 2.96752L8.86285 2.06743C8.9404 2.0224 9.03996 2.04644 9.08906 2.12094C9.1385 2.19611 9.12055 2.29669 9.04843 2.34985L7.57402 3.4433L10.0027 2.04068C10.0796 1.99497 10.1791 2.01901 10.2286 2.09351C10.278 2.16835 10.2607 2.26824 10.1896 2.32242L8.32748 3.72877L11.2265 2.0549C11.3058 2.00919 11.4053 2.03425 11.4544 2.11078C11.5028 2.18765 11.4822 2.2889 11.4073 2.34071L10.2658 3.13074L12.0656 2.09182C12.1432 2.04576 12.2434 2.07048 12.2929 2.14667C12.3416 2.22287 12.3223 2.32344 12.2488 2.37627L10.6153 3.54252L13.0067 2.16225C13.0846 2.1162 13.1852 2.14126 13.2339 2.21745C13.283 2.29398 13.2631 2.39489 13.1889 2.44704L11.7033 3.49545L13.8526 2.2547C13.9295 2.20932 14.0284 2.23303 14.0781 2.30685C14.1276 2.38135 14.1113 2.48124 14.0406 2.53542L11.9851 4.11481L14.92 2.42029C14.9969 2.37491 15.0964 2.39862 15.1458 2.47312C15.1953 2.54795 15.178 2.64819 15.1066 2.70203L13.3616 4.01897L15.7994 2.61196C15.8763 2.56624 15.9755 2.59028 16.0249 2.66444C16.0744 2.7386 16.0578 2.83884 15.987 2.89302L14.5052 4.02405L16.5515 2.8429C16.6291 2.79685 16.73 2.82191 16.7791 2.89844C16.8278 2.97497 16.8075 3.07588 16.7334 3.12803L16.3947 3.36575L16.9833 3.0261C17.0581 2.98208 17.1556 3.00308 17.2061 3.07487C17.2565 3.14632 17.2444 3.24418 17.1783 3.30107L16.1631 4.17271L17.5102 3.39521C17.586 3.35085 17.6836 3.37286 17.7337 3.44465C17.7838 3.51644 17.7706 3.61532 17.7032 3.67154L17.4909 3.8483L17.6504 3.75653C17.731 3.70946 17.8349 3.73689 17.8817 3.8185C17.9287 3.89944 17.901 4.00306 17.8197 4.04979L15.9481 5.13037C15.8722 5.17473 15.775 5.15272 15.7246 5.08093C15.6745 5.0088 15.6877 4.91026 15.755 4.85404L15.9677 4.67694L14.7598 5.37452C14.6846 5.41821 14.5874 5.39755 14.537 5.32576C14.4865 5.25431 14.4987 5.15644 14.5648 5.09955L15.58 4.22791L13.26 5.5672C13.1825 5.61292 13.0819 5.5882 13.0324 5.51167C12.9837 5.43514 13.004 5.33422 13.0782 5.28208L13.4181 5.04334L12.3938 5.63459C12.3166 5.67929 12.2174 5.65559 12.1683 5.5821C12.1188 5.5076 12.1354 5.40771 12.2062 5.35353L13.6884 4.22215L11.149 5.6881C11.0714 5.73313 10.9725 5.70943 10.9231 5.63527C10.8737 5.56043 10.8909 5.4602 10.9624 5.40635L12.7067 4.08975L9.92786 5.69385C9.90144 5.70943 9.87198 5.71654 9.8432 5.71654L9.84252 5.7162Z" fill="#FFBC00"/>
<path d="M13.922 21.9679C13.8655 21.9679 13.8103 21.9394 13.7781 21.8883C13.7297 21.8107 13.752 21.7092 13.8275 21.658L16.1909 20.0729L13.0043 21.9127C12.9248 21.9594 12.8225 21.933 12.7747 21.8537C12.727 21.7752 12.751 21.6726 12.8289 21.6231L13.7791 21.02L12.3901 21.8219C12.3101 21.8683 12.2092 21.8426 12.1608 21.7637C12.1127 21.6854 12.1364 21.5832 12.2133 21.5331L15.2464 19.5693L11.6528 21.6441C11.5733 21.6912 11.4717 21.6645 11.4233 21.5856C11.3755 21.507 11.3995 21.4044 11.4771 21.3546L14.5498 19.3929L11.0267 21.4271C10.9468 21.4741 10.8452 21.4474 10.7971 21.3681C10.7494 21.2896 10.7734 21.187 10.8513 21.1375L14.2495 18.9791L10.4524 21.1714C10.3721 21.2178 10.2695 21.191 10.2225 21.1118C10.1747 21.0326 10.2001 20.9296 10.2783 20.8809L11.7842 19.9476L10.0457 20.9513C9.96612 20.9977 9.86453 20.9719 9.81644 20.893C9.76836 20.8148 9.79206 20.7122 9.86927 20.6624L15.2007 17.2246L9.43074 20.5558C9.35116 20.6025 9.24889 20.5764 9.20081 20.4965C9.15306 20.4176 9.17778 20.315 9.256 20.2656L13.1791 17.803L8.99763 20.2168C8.91805 20.2635 8.81612 20.2375 8.76803 20.1579C8.72029 20.079 8.74467 19.976 8.82255 19.9269L13.3873 17.0506L8.57061 19.8314C8.49103 19.8782 8.38944 19.8514 8.34136 19.7728C8.29327 19.6943 8.31731 19.592 8.39452 19.5422L14.3555 15.7279L8.1077 19.3347C8.02711 19.3811 7.92484 19.3546 7.87743 19.2747C7.83002 19.1955 7.85542 19.0925 7.93398 19.0438L10.6078 17.3943L7.8351 18.995C7.75518 19.0417 7.65326 19.0153 7.60551 18.9361C7.55776 18.8568 7.58214 18.7546 7.66003 18.7051L12.8787 15.4133L7.49985 18.5186C7.4196 18.5649 7.31733 18.5385 7.26958 18.4586C7.22218 18.379 7.24757 18.2761 7.32647 18.2277L9.23061 17.059L7.29397 18.1772C7.21405 18.2239 7.11212 18.1975 7.06437 18.1186C7.01663 18.0397 7.04067 17.9375 7.11822 17.8877L13.0812 14.0899L7.00139 17.6002C6.92181 17.6469 6.81954 17.6205 6.77179 17.5413C6.72405 17.462 6.74843 17.3594 6.82631 17.3103L11.8835 14.1241L6.78161 17.0695C6.70102 17.1159 6.59909 17.0892 6.55168 17.0103C6.50394 16.931 6.52899 16.8284 6.60722 16.7793L10.6955 14.2254L6.62043 16.5778C6.54017 16.6246 6.4379 16.5978 6.39016 16.5182C6.34275 16.4387 6.36814 16.3361 6.44671 16.287L8.99966 14.7096L6.51003 16.1468C6.42978 16.1932 6.32751 16.1664 6.27976 16.0872C6.23235 16.0076 6.25775 15.905 6.33631 15.8559L8.71995 14.3825L6.42571 15.7069C6.34613 15.7533 6.2442 15.7275 6.19646 15.6486C6.14837 15.5704 6.17208 15.4678 6.24895 15.418L11.9512 11.7388L6.34275 14.9768C6.26215 15.0232 6.16056 14.9964 6.11281 14.9175C6.06507 14.8383 6.09013 14.7357 6.16835 14.6866L8.95868 12.944L6.32819 14.4624C6.24827 14.5088 6.14769 14.4831 6.09893 14.4042C6.05084 14.3263 6.07421 14.224 6.15108 14.1736L11.1107 10.9562L6.37288 13.6913C6.29297 13.7381 6.19104 13.7117 6.14329 13.6328C6.09554 13.5539 6.11959 13.4516 6.19713 13.4018L9.36064 11.389L6.4694 13.0581C6.38982 13.1042 6.2889 13.0788 6.24082 13.0009C6.19239 12.923 6.21508 12.8211 6.29094 12.7703L10.535 9.95622L6.70441 12.1675C6.62449 12.2142 6.52256 12.1878 6.47481 12.1089C6.42707 12.03 6.45111 11.9277 6.52866 11.878L7.9008 11.004L6.934 11.562C6.85442 11.6084 6.75283 11.5827 6.70508 11.5041C6.657 11.4262 6.68002 11.324 6.75656 11.2735L8.50458 10.1313L7.30175 10.8255C7.22184 10.8719 7.12126 10.8458 7.07284 10.7679C7.02475 10.69 7.04744 10.5878 7.12397 10.5373L7.82223 10.0791L7.76534 10.112C7.68847 10.1574 7.58959 10.1337 7.54015 10.0598C7.49071 9.98602 7.50663 9.88579 7.5774 9.83127L9.02438 8.71649C8.97121 8.71175 8.92076 8.68229 8.89197 8.63251C8.8449 8.55157 8.87267 8.44795 8.95394 8.40122L10.8787 7.29017C10.9553 7.24513 11.0545 7.26816 11.1039 7.34232C11.1534 7.41648 11.1374 7.51637 11.0667 7.57089L9.80086 8.54616L12.7917 6.81947C12.8712 6.77274 12.9722 6.79915 13.0206 6.87703C13.0687 6.95492 13.046 7.05719 12.9695 7.10764L12.2753 7.56311L13.6386 6.77612C13.7182 6.72973 13.8194 6.75547 13.8675 6.83403C13.9156 6.91191 13.8926 7.01418 13.816 7.06464L12.0663 8.2082L14.4594 6.82658C14.54 6.78052 14.6413 6.80694 14.689 6.88516C14.7368 6.96373 14.7127 7.06633 14.6352 7.11611L13.2624 7.99046L15.1032 6.92783C15.1821 6.88144 15.2837 6.90683 15.3318 6.98506C15.3802 7.06294 15.3575 7.16487 15.2816 7.21567L11.0379 10.0294L15.9894 7.17097C16.0696 7.12491 16.1712 7.15133 16.219 7.22955C16.2667 7.30845 16.2427 7.41072 16.1651 7.4605L13.0037 9.47198L16.5874 7.40327C16.667 7.35688 16.7682 7.38261 16.8167 7.46152C16.8647 7.5394 16.8414 7.64167 16.7645 7.69212L11.8052 10.9095L17.2775 7.75003C17.3578 7.70296 17.4594 7.73005 17.5075 7.80929C17.5552 7.88853 17.5302 7.99114 17.4519 8.04024L14.6609 9.78284L17.7137 8.0206C17.7936 7.97421 17.8952 7.99994 17.943 8.07884C17.991 8.15707 17.9673 8.25967 17.8905 8.30945L12.1882 11.9887L18.3056 8.45676C18.3859 8.41003 18.4881 8.43678 18.5359 8.51636C18.5833 8.59593 18.5579 8.69854 18.4793 8.74764L16.0991 10.219L18.6426 8.75069C18.7225 8.70396 18.8248 8.73071 18.8728 8.81029C18.9202 8.88987 18.8948 8.99247 18.8163 9.04158L16.2569 10.623L18.9599 9.06257C19.0398 9.01584 19.142 9.04259 19.1898 9.12183C19.2375 9.20107 19.2125 9.30368 19.1343 9.35278L15.048 11.9054L19.3053 9.4476C19.3855 9.40154 19.4875 9.42762 19.5349 9.50652C19.5826 9.58542 19.5582 9.68836 19.4803 9.73747L14.4242 12.923L19.6585 9.90103C19.7391 9.85463 19.8403 9.88105 19.8881 9.95961C19.9358 10.0382 19.9118 10.1408 19.8342 10.1906L13.8692 13.9893L20.0093 10.4445C20.0892 10.3975 20.1915 10.4242 20.2396 10.5045C20.287 10.584 20.2616 10.687 20.1827 10.7354L18.2826 11.9013L20.2023 10.7933C20.2826 10.7469 20.3842 10.773 20.4319 10.8522C20.4796 10.9315 20.4553 11.0338 20.3774 11.0832L15.158 14.3757L20.4529 11.3189C20.5328 11.2718 20.6351 11.2986 20.6832 11.3788C20.7306 11.4581 20.7052 11.561 20.6266 11.6098L17.9497 13.2616L20.6104 11.7256C20.6906 11.6792 20.7919 11.7053 20.8396 11.7842C20.8877 11.8627 20.8637 11.965 20.7865 12.0148L14.8269 15.8285L20.8061 12.3764C20.886 12.3304 20.9879 12.3565 21.0357 12.4354C21.0834 12.5143 21.059 12.6172 20.9812 12.6663L16.4167 15.542L20.9283 12.9375C21.0086 12.8915 21.1109 12.9172 21.1583 12.9968C21.206 13.0757 21.1813 13.1783 21.1031 13.2278L17.1776 15.692L21.0001 13.4851C21.0797 13.4387 21.1813 13.4645 21.2294 13.5434C21.2775 13.6216 21.2538 13.7242 21.1766 13.774L15.8458 17.2111L21.0387 14.2132C21.1186 14.1664 21.2213 14.1932 21.2687 14.2728C21.3164 14.352 21.291 14.455 21.2128 14.5037L19.7076 15.4363L21.0238 14.6768C21.1041 14.6304 21.2057 14.6564 21.2534 14.7357C21.3012 14.8142 21.2771 14.9169 21.1992 14.9663L17.7997 17.1254L20.9602 15.3009C21.0404 15.2545 21.1413 15.2809 21.1898 15.3594C21.2375 15.438 21.2135 15.5406 21.1359 15.5904L18.0625 17.5524L20.8345 15.9521C20.9141 15.9057 21.0154 15.9314 21.0638 16.0103C21.1119 16.0885 21.0882 16.1908 21.0113 16.2409L17.9802 18.2029L20.6219 16.6781C20.7021 16.632 20.8037 16.6581 20.8515 16.737C20.8992 16.8159 20.8752 16.9182 20.7973 16.9676L19.8437 17.5728L20.3906 17.2571C20.4698 17.2108 20.5704 17.2365 20.6192 17.314C20.6676 17.3916 20.6452 17.4932 20.5697 17.5443L18.2064 19.1291L19.9233 18.1379C20.0029 18.0915 20.1038 18.1176 20.1522 18.1955C20.2003 18.2734 20.1776 18.3753 20.1014 18.4261L19.4871 18.8304C19.5491 18.8247 19.6114 18.8511 19.6476 18.9059C19.6971 18.9815 19.6791 19.082 19.6067 19.1352L18.4004 20.0258C18.4306 20.04 18.4567 20.0631 18.4746 20.0942C18.5217 20.1751 18.4939 20.2788 18.4126 20.3255L16.4878 21.4366C16.4106 21.4823 16.3114 21.4579 16.2616 21.383C16.2122 21.3075 16.2301 21.207 16.3026 21.1538L16.9863 20.6492L14.8763 21.8673C14.7964 21.914 14.6958 21.8876 14.6474 21.8097C14.5993 21.7318 14.622 21.6299 14.6982 21.5791L15.1093 21.3085L14.0063 21.9452C13.9796 21.9608 13.9505 21.9679 13.9217 21.9679H13.922Z" fill="#E59900"/>
<path d="M14.002 20.611C13.9461 20.611 13.8912 20.5832 13.859 20.5327C13.8103 20.4559 13.8306 20.355 13.9051 20.3028L15.9342 18.8873L13.0473 20.5541C12.9688 20.6005 12.8682 20.5751 12.8194 20.4979C12.7707 20.4207 12.792 20.3194 12.8672 20.2679L15.8661 18.2128L12.129 20.3702C12.0494 20.4166 11.9481 20.3909 11.9001 20.3123C11.852 20.2344 11.875 20.1321 11.9515 20.082L14.5424 18.3865L11.4869 20.1504C11.4063 20.1972 11.3047 20.1701 11.257 20.0912C11.2092 20.0119 11.2343 19.9093 11.3125 19.8602L11.3325 19.8477L11.1026 19.9804C11.0233 20.0272 10.9214 20.0007 10.8737 19.9225C10.8256 19.8446 10.8486 19.7424 10.9251 19.6923L14.5939 17.2917L10.511 19.6486C10.4311 19.695 10.3305 19.6689 10.2821 19.591C10.234 19.5131 10.2567 19.4108 10.3332 19.3604L14.7385 16.4627L9.93802 19.2344C9.85844 19.2808 9.75685 19.2547 9.7091 19.1765C9.66102 19.0986 9.68405 18.9964 9.76058 18.9459L14.3128 15.972L9.44226 18.784C9.36268 18.8308 9.26109 18.8044 9.21267 18.7255C9.16492 18.6469 9.18896 18.5443 9.26651 18.4945L12.8394 16.2155L9.08297 18.3841C9.00339 18.4302 8.9018 18.4048 8.85372 18.3259C8.80563 18.2476 8.82934 18.145 8.90654 18.0953L13.2329 15.307L8.72402 17.9104C8.64444 17.9571 8.54251 17.931 8.49443 17.8514C8.44668 17.7729 8.47106 17.6703 8.54861 17.6205L11.8631 15.5206L8.46327 17.4837C8.38369 17.5308 8.28143 17.504 8.23368 17.4248C8.18593 17.3455 8.21031 17.2433 8.28786 17.1938L11.4321 15.206L8.24147 17.0479C8.16155 17.0946 8.05962 17.0682 8.01188 16.9889C7.96413 16.9104 7.98817 16.8078 8.06606 16.7583L11.4673 14.5979L8.04405 16.5745C7.96379 16.6209 7.86152 16.5941 7.81378 16.5149C7.76637 16.4353 7.79176 16.3323 7.87033 16.2836L8.31055 16.0117L7.93128 16.2304C7.85069 16.2771 7.74876 16.2501 7.70135 16.1711C7.6536 16.0919 7.67866 15.9893 7.75689 15.9402L9.45039 14.882L7.82698 15.8193C7.7474 15.8664 7.64548 15.8396 7.59739 15.7604C7.54964 15.6815 7.57402 15.5789 7.65191 15.5294L10.1036 13.9812L7.74232 15.3442C7.66275 15.3903 7.56183 15.3645 7.51341 15.2866C7.46532 15.2088 7.48801 15.1068 7.5642 15.056L11.9468 12.1678L7.68611 14.628C7.60653 14.6741 7.50596 14.6487 7.45753 14.5708C7.40911 14.4932 7.43146 14.3916 7.50697 14.3405L11.7335 11.5156L7.72065 13.8322C7.64107 13.8793 7.53948 13.8525 7.4914 13.7736C7.44331 13.6954 7.46735 13.5928 7.54456 13.543L9.33491 12.3957L7.81039 13.2758C7.73149 13.3219 7.63125 13.2968 7.58249 13.2196C7.53373 13.1424 7.55506 13.0408 7.63024 12.9894L10.914 10.7459L8.06403 12.3913C7.98512 12.4377 7.88455 12.4123 7.83579 12.3348C7.78736 12.2576 7.8087 12.156 7.88421 12.1045L9.87266 10.7551L8.43314 11.5861C8.35559 11.6318 8.25434 11.6071 8.20557 11.5302C8.15681 11.4537 8.17713 11.3524 8.25197 11.3006L9.4023 10.5001L9.00102 10.7317C8.92348 10.7771 8.82324 10.7527 8.77448 10.6775C8.72504 10.602 8.744 10.5011 8.81681 10.4483L9.72096 9.79029C9.70606 9.7781 9.69319 9.76286 9.68337 9.74525C9.6363 9.66432 9.66407 9.5607 9.74534 9.51397L11.4741 8.51602C11.5513 8.46996 11.6518 8.49502 11.7006 8.5702C11.75 8.64571 11.7311 8.74663 11.6583 8.79945L11.6102 8.83467L12.7118 8.19872C12.7903 8.15266 12.8909 8.17772 12.9393 8.25459C12.9881 8.33112 12.9678 8.43237 12.8929 8.48419L11.7423 9.28471L13.7327 8.13573C13.812 8.09002 13.9126 8.11474 13.961 8.19228C14.0094 8.26949 13.9881 8.37108 13.9126 8.42255L11.9255 9.77099L14.6159 8.21768C14.6955 8.17197 14.795 8.19669 14.8438 8.27389C14.8926 8.3511 14.8712 8.45269 14.796 8.50417L11.5123 10.7473L15.5072 8.44084C15.5871 8.39445 15.689 8.42086 15.7364 8.49942C15.7845 8.57765 15.7605 8.68025 15.6833 8.73003L13.8909 9.87868L16.0327 8.64233C16.112 8.59593 16.2125 8.62133 16.2613 8.69956C16.3097 8.7771 16.2874 8.87869 16.2119 8.92983L11.9861 11.754L16.7391 9.00974C16.818 8.96335 16.9196 8.98909 16.968 9.06731C17.0161 9.1452 16.9934 9.24713 16.9172 9.29792L12.534 12.1865L17.3311 9.41678C17.411 9.37039 17.5129 9.39646 17.5606 9.4757C17.6084 9.55494 17.584 9.65721 17.5061 9.70665L15.0517 11.2566L17.6998 9.72765C17.7801 9.68058 17.8817 9.70767 17.9298 9.78691C17.9775 9.86615 17.9524 9.96875 17.8742 10.0179L16.1834 11.0744L18.0009 10.025C18.0808 9.97789 18.1831 10.0046 18.2311 10.0846C18.2785 10.1641 18.2531 10.2671 18.1746 10.3159L17.7364 10.5864L18.243 10.2942C18.3236 10.2478 18.4248 10.2739 18.4726 10.3531C18.5203 10.4317 18.4963 10.5343 18.4184 10.5837L15.0155 12.7452L18.5576 10.7002C18.6378 10.6538 18.7394 10.6799 18.7872 10.7591C18.8349 10.8384 18.8105 10.9406 18.733 10.9901L15.5888 12.9778L18.8265 11.1086C18.9064 11.0625 19.0083 11.0883 19.056 11.1675C19.1038 11.2461 19.0794 11.3487 19.0019 11.3985L15.6883 13.4976L19.0648 11.5481C19.1444 11.5017 19.246 11.5275 19.2941 11.6064C19.3422 11.6846 19.3185 11.7872 19.2413 11.837L14.9115 14.6273L19.3002 12.094C19.3805 12.0476 19.4817 12.074 19.5298 12.1526C19.5775 12.2312 19.5535 12.3338 19.476 12.3835L15.9041 14.6619L19.4658 12.606C19.545 12.5596 19.647 12.5854 19.6947 12.6639C19.7428 12.7418 19.7198 12.8441 19.6432 12.8945L15.0927 15.8671L19.6077 13.2606C19.6873 13.2142 19.7882 13.2403 19.8366 13.3182C19.8847 13.3961 19.862 13.4983 19.7855 13.5488L15.3792 16.4468L19.6778 13.9653C19.7574 13.9189 19.8589 13.9446 19.9067 14.0232C19.9548 14.1011 19.9318 14.2034 19.8552 14.2535L16.1861 16.6544L19.669 14.6436C19.7492 14.5968 19.8508 14.6236 19.8989 14.7028C19.9467 14.7821 19.9216 14.8847 19.8434 14.9338L19.6676 15.0435C19.7367 15.0252 19.8142 15.054 19.8539 15.119C19.902 15.1969 19.8789 15.2992 19.8024 15.3493L17.2125 17.0445L19.4942 15.7269C19.5735 15.6815 19.6737 15.7062 19.7221 15.7831C19.7709 15.8603 19.7496 15.9615 19.6744 16.013L16.6761 18.0678L19.1932 16.6148C19.2711 16.569 19.372 16.5938 19.4208 16.6703C19.4695 16.7472 19.4492 16.8481 19.3747 16.9002L17.3466 18.315L18.7001 17.5335C18.7763 17.4884 18.8745 17.5115 18.9247 17.5843C18.9744 17.6574 18.9599 17.7566 18.8905 17.8118L17.5349 18.8992C17.5992 18.8877 17.6524 18.9286 17.6839 18.9838C17.731 19.0648 17.7032 19.1684 17.6219 19.2151L15.8936 20.2131C15.8167 20.2574 15.7188 20.2347 15.669 20.1623C15.6193 20.0891 15.6338 19.9899 15.7032 19.9347L16.9484 18.9357L14.0859 20.5886C14.0595 20.6042 14.0301 20.6113 14.0013 20.6113L14.002 20.611Z" fill="#FFBC00"/>
<path d="M19.1976 9.05004C18.8529 8.68601 18.4228 8.34941 17.9927 8.06056C17.9978 6.6427 17.9934 5.21977 17.9944 3.80259C17.9013 3.21472 17.1201 2.93129 16.6321 2.77145C13.4578 1.85714 4.95335 1.23 2.62999 3.74265C2.54533 7.12966 2.63202 10.5234 2.60391 13.9159C2.73632 14.7939 2.24835 15.9927 2.95067 16.6625C4.06139 17.4031 5.47179 17.5287 6.763 17.7214C7.10739 18.4501 7.60518 19.1301 8.17341 19.6902C11.0437 22.7125 16.4354 22.5513 19.1945 19.5585C22.0489 16.8586 22.0648 11.7676 19.1976 9.05004ZM20.882 14.2646H20.0174C19.9907 12.6914 19.3717 11.1536 18.2623 9.99991L18.885 9.37716C20.0916 10.6867 20.8261 12.4208 20.882 14.2646ZM17.54 8.22615C17.9514 8.49976 18.3293 8.81672 18.6761 9.1645L18.052 9.7886C16.9413 8.72462 15.4327 8.14657 13.9312 8.09848V7.0389C15.2 7.09105 16.4936 7.52653 17.5396 8.22649L17.54 8.22615ZM15.9721 7.12153C16.5102 6.98167 17.027 6.80863 17.5041 6.51639V7.7629C17.0256 7.49877 16.5116 7.26477 15.9721 7.12153ZM4.19515 3.06234C6.92182 2.21643 15.6643 1.63771 17.5021 3.89063C15.8241 6.0186 7.46499 5.52691 4.86293 4.8361C3.55716 4.65899 2.07734 3.64512 4.19515 3.06234ZM3.09493 5.51675V4.57569C7.3275 6.23025 13.2685 6.20891 17.5041 4.54521C17.9196 7.18688 15.8526 6.99353 13.9048 6.81777C12.8435 6.7768 11.6688 7.05956 10.6583 7.47269C9.04572 7.37957 3.17214 7.59087 3.09493 5.51675ZM6.00853 14.4675C6.0092 14.7337 6.02478 14.9995 6.05356 15.2646C4.37869 14.9206 2.68552 14.861 3.09493 12.6748C4.00958 13.1787 5.05053 13.3463 6.06711 13.5115C6.04137 13.8251 5.99058 14.1702 6.00853 14.4675ZM4.48637 12.903C3.10035 12.5976 2.98928 11.9244 3.09493 10.6497C4.14876 11.2491 5.3868 11.4029 6.56795 11.5773C6.34614 12.1231 6.19003 12.6914 6.09996 13.2697C5.5551 13.1797 5.01362 13.0669 4.48637 12.903ZM3.09493 9.84346C3.09154 9.43981 3.09561 9.03616 3.09493 8.63285C4.48773 9.39545 6.13721 9.51498 7.69085 9.68024C7.28348 10.1797 6.95094 10.7246 6.69053 11.2986C5.54528 11.009 3.58459 11.1069 3.09527 9.8438L3.09493 9.84346ZM7.48598 10.5786C7.74233 10.1387 8.04405 9.73747 8.37692 9.37005L9.08738 10.0805C8.03728 11.1956 7.4081 12.6619 7.35087 14.1969H6.49548C6.51173 12.9433 6.83784 11.6914 7.48598 10.5786ZM8.76906 9.13572C8.74095 9.10761 8.71251 9.07916 8.6844 9.05106C9.96105 7.80624 11.6593 7.07683 13.4405 7.03247V8.10052C11.9722 8.15063 10.4819 8.74561 9.40197 9.76896C9.191 9.55799 8.98003 9.34668 8.76906 9.13572ZM3.09595 6.99149V6.58242C5.2483 7.65318 7.7982 7.64167 10.1568 7.70669C9.33492 8.12659 8.57536 8.68466 7.956 9.37547C6.44401 9.07815 2.61102 9.30537 3.09595 6.99115V6.99149ZM4.83957 17.0215C3.32893 16.6825 2.90936 16.2978 3.09662 14.7238C4.01601 15.2416 5.06882 15.4099 6.09488 15.5792C6.18631 16.1847 6.35055 16.7804 6.59199 17.3523C6.00243 17.2731 5.41592 17.1711 4.8399 17.0218L4.83957 17.0215ZM8.01086 18.823C7.05558 17.5761 6.54966 16.0631 6.50158 14.5342H7.34748C7.35493 16.0872 8.03965 17.6391 9.09821 18.7007L8.45549 19.3435C8.30039 19.1765 8.15004 19.0048 8.01086 18.823ZM13.4402 21.6976C11.6833 21.5947 9.97696 20.8382 8.70404 19.5985L9.35286 18.9496C10.45 19.9533 11.8963 20.5697 13.4398 20.6387V21.6976H13.4402ZM8.18323 16.3303C5.57643 6.67758 20.4973 5.5821 19.4316 15.4817C18.433 21.2933 10.0579 21.8964 8.18323 16.3303ZM16.0829 21.3356C15.3812 21.5832 14.6548 21.7024 13.9308 21.7108V20.6381C15.4391 20.5612 16.8681 19.9557 17.9636 18.9669L18.6825 19.6858C17.9579 20.4081 17.0818 20.9831 16.0829 21.3356ZM18.9968 19.3533C18.7618 19.1183 18.5268 18.8833 18.2918 18.6482C19.3574 17.5643 20.0134 15.993 20.0171 14.4665H20.8884C20.8654 16.2802 20.1712 18.0265 18.9968 19.3533Z" fill="#262626"/>
<path d="M16.1692 11.9301C17.9016 11.9149 14.407 10.5675 13.9312 10.817V9.89764C13.3182 9.64536 13.4405 10.4279 13.4405 10.8265C9.98644 10.9904 9.7345 14.5501 13.4405 14.5234V17.5883C12.622 17.5558 11.7758 17.3144 11.2025 16.801C9.46969 16.8162 12.9647 18.1637 13.4405 17.9141V18.8335C14.0534 19.0858 13.9312 18.3032 13.9312 17.9046C17.3852 17.7407 17.6375 14.181 13.9312 14.2078V11.1428C14.7496 11.1753 15.5959 11.4167 16.1692 11.9301ZM13.4405 14.1624C10.451 14.1366 10.5689 11.2566 13.4405 11.1486V14.1624ZM14.0734 14.5833C17.0073 14.6903 16.6609 17.5176 13.9312 17.5826V14.5687C13.9786 14.5735 14.0273 14.5779 14.0734 14.5833Z" fill="#262626"/>
</svg>
