<svg width="24" height="24" viewBox="0 0 24 24" fill="none" xmlns="http://www.w3.org/2000/svg">
<path d="M4.71003 5.14722C4.67135 5.1473 4.63373 5.1346 4.60301 5.1111C4.57229 5.0876 4.55019 5.05462 4.54015 5.01727C4.5301 4.97992 4.53267 4.9403 4.54745 4.90456C4.56223 4.86882 4.5884 4.83896 4.62189 4.81962L6.64896 3.64966C6.68296 3.62965 6.7227 3.62168 6.76178 3.62702C6.80086 3.63236 6.837 3.65071 6.86438 3.6791C6.89176 3.7075 6.90878 3.74428 6.91269 3.78353C6.91661 3.82278 6.9072 3.8622 6.88597 3.89545L6.52888 4.4706L6.68583 4.38001C6.70581 4.3673 6.72816 4.35877 6.75152 4.35493C6.77489 4.35109 6.79879 4.35201 6.82178 4.35764C6.84478 4.36328 6.8664 4.3735 6.88535 4.38771C6.90429 4.40192 6.92016 4.41981 6.93201 4.44031C6.94386 4.46081 6.95144 4.48349 6.9543 4.507C6.95715 4.5305 6.95523 4.55434 6.94863 4.57708C6.94203 4.59982 6.9309 4.62099 6.91591 4.63932C6.90092 4.65765 6.88238 4.67276 6.86139 4.68373L6.0998 5.12264C6.0658 5.14265 6.02606 5.15062 5.98698 5.14528C5.9479 5.13994 5.91176 5.12159 5.88438 5.0932C5.857 5.0648 5.83998 5.02802 5.83606 4.98877C5.83215 4.94952 5.84156 4.9101 5.86278 4.87685L6.21988 4.30241L4.79746 5.12264C4.77105 5.13853 4.74085 5.14702 4.71003 5.14722Z" fill="#F4AA51"/>
<path d="M6.92601 11.1164C6.89276 11.1165 6.86016 11.1072 6.832 11.0895C6.80385 11.0718 6.78131 11.0464 6.767 11.0164C6.75269 10.9864 6.7472 10.9529 6.75117 10.9199C6.75514 10.8869 6.7684 10.8557 6.78942 10.8299L7.28522 10.2203L5.86666 11.0392C5.83054 11.06 5.78818 11.0674 5.74715 11.0599C5.70612 11.0523 5.6691 11.0305 5.64274 10.9981C5.61637 10.9658 5.60238 10.9252 5.60326 10.8835C5.60414 10.8418 5.61984 10.8017 5.64755 10.7706L6.11069 10.2491L5.12086 10.8211C5.08666 10.8407 5.04689 10.8481 5.00793 10.8423C4.96897 10.8365 4.9331 10.8178 4.90607 10.7891C4.87905 10.7605 4.86244 10.7236 4.85891 10.6844C4.85539 10.6451 4.86516 10.6059 4.88665 10.5729L5.26131 9.99807L4.46565 10.4577C4.42926 10.4787 4.38653 10.486 4.34523 10.4782C4.30393 10.4704 4.2668 10.4481 4.24058 10.4152C4.21429 10.3823 4.20071 10.341 4.20233 10.2989C4.20394 10.2568 4.22063 10.2167 4.24936 10.1859L4.40771 10.0163L4.12119 10.1817C4.08687 10.2014 4.04689 10.209 4.00774 10.2031C3.96859 10.1972 3.93257 10.1783 3.90553 10.1494C3.87849 10.1205 3.86202 10.0833 3.85878 10.0438C3.85554 10.0044 3.86573 9.96499 3.88769 9.93206L4.25181 9.38851L3.69001 9.7126C3.6541 9.7333 3.61203 9.74064 3.57125 9.7333C3.53046 9.72597 3.49357 9.70445 3.46713 9.67254C3.44069 9.64063 3.42638 9.60039 3.42675 9.55895C3.42712 9.51751 3.44214 9.47753 3.46915 9.4461L3.73179 9.14096L3.42842 9.31653C3.39335 9.33672 3.35239 9.34419 3.31246 9.33766C3.27252 9.33112 3.23607 9.311 3.20927 9.28069C3.18247 9.25037 3.16696 9.21173 3.16536 9.1713C3.16377 9.13087 3.1762 9.09113 3.20053 9.0588L3.65244 8.45837L3.16612 8.73927C3.12966 8.76014 3.08692 8.76724 3.04567 8.75929C3.00442 8.75134 2.96739 8.72885 2.9413 8.69592C2.91521 8.663 2.9018 8.6218 2.90349 8.57983C2.90518 8.53785 2.92187 8.49787 2.95053 8.46715L3.32483 8.06862L3.03375 8.23681C2.99781 8.25772 2.95561 8.2652 2.91467 8.25791C2.87373 8.25062 2.8367 8.22904 2.81019 8.19701C2.78368 8.16497 2.7694 8.12456 2.76989 8.08298C2.77038 8.0414 2.78562 8.00135 2.81289 7.96995L3.45721 7.2238L2.97195 7.5047C2.9358 7.52558 2.8934 7.53289 2.85235 7.52533C2.8113 7.51776 2.77429 7.49582 2.74795 7.46344C2.72162 7.43106 2.70768 7.39035 2.70864 7.34863C2.7096 7.3069 2.7254 7.26687 2.75319 7.23574L3.40665 6.50504L2.97195 6.75575C2.93333 6.77805 2.88767 6.78483 2.84424 6.7747C2.80081 6.76456 2.76286 6.73828 2.73811 6.70119C2.71335 6.6641 2.70363 6.61897 2.71094 6.57498C2.71824 6.53098 2.74201 6.49141 2.77742 6.46431L4.46284 5.17531L2.97195 6.03558C2.93325 6.05775 2.88757 6.06436 2.84417 6.05408C2.80077 6.04379 2.76292 6.01737 2.73829 5.98019C2.71367 5.943 2.70412 5.89784 2.71158 5.85387C2.71904 5.8099 2.74296 5.77042 2.77848 5.74344L3.54323 5.16724L2.97195 5.49695C2.93477 5.5197 2.89045 5.52781 2.84762 5.51969C2.8048 5.51158 2.76652 5.48782 2.74024 5.45304C2.71396 5.41827 2.70155 5.37496 2.70544 5.33154C2.70933 5.28812 2.72923 5.24771 2.76127 5.21815L3.5478 4.46849L2.97195 4.80066C2.93797 4.81999 2.89851 4.82743 2.85982 4.8218C2.82114 4.81616 2.78544 4.79778 2.75839 4.76956C2.73133 4.74133 2.71447 4.70489 2.71048 4.666C2.70649 4.62711 2.71559 4.588 2.73634 4.55487L3.03304 4.09524C2.99184 4.10702 2.94774 4.10332 2.90907 4.08483C2.8704 4.06635 2.83983 4.03436 2.82312 3.99489C2.80641 3.95542 2.80471 3.91121 2.81835 3.87057C2.83199 3.82994 2.86002 3.7957 2.89716 3.77431L3.47968 3.43723C3.51365 3.41806 3.55305 3.41075 3.59163 3.41645C3.63022 3.42216 3.66582 3.44055 3.69279 3.46873C3.71976 3.49691 3.73658 3.53328 3.74059 3.57208C3.7446 3.61088 3.73558 3.64991 3.71494 3.68302L3.4249 4.13387L4.63981 3.43161C4.67699 3.40885 4.72131 3.40075 4.76413 3.40886C4.80696 3.41698 4.84524 3.44073 4.87152 3.47551C4.8978 3.51029 4.9102 3.5536 4.90632 3.59701C4.90243 3.64043 4.88253 3.68085 4.85049 3.7104L4.06361 4.46147L5.85437 3.4288C5.89306 3.40663 5.93875 3.40001 5.98214 3.4103C6.02554 3.42059 6.06339 3.44701 6.08802 3.48419C6.11264 3.52138 6.1222 3.56654 6.11473 3.61051C6.10727 3.65448 6.08335 3.69396 6.04784 3.72094L5.28238 4.29644L6.64195 3.51167C6.68057 3.48936 6.72622 3.48258 6.76965 3.49272C6.81308 3.50285 6.85103 3.52913 6.87579 3.56622C6.90055 3.60331 6.91026 3.64844 6.90296 3.69243C6.89566 3.73643 6.87189 3.776 6.83647 3.8031L4.387 5.67497C4.39297 5.68059 4.3986 5.68657 4.40385 5.69288C4.43023 5.72528 4.4442 5.76602 4.44323 5.80779C4.44226 5.84956 4.42643 5.88962 4.39858 5.92076L3.74478 6.65216L4.17983 6.40111C4.21577 6.38019 4.25797 6.37271 4.29891 6.38C4.33985 6.38729 4.37687 6.40887 4.40339 6.44091C4.4299 6.47294 4.44418 6.51335 4.44369 6.55493C4.4432 6.59651 4.42796 6.63657 4.40069 6.66796L3.75672 7.41376L4.17983 7.16797C4.21633 7.14685 4.25922 7.13957 4.30065 7.14747C4.34207 7.15537 4.37927 7.17792 4.40544 7.21099C4.43161 7.24407 4.44499 7.28545 4.44316 7.32758C4.44132 7.36972 4.42437 7.40978 4.39542 7.44045L4.02147 7.84038L4.22513 7.72275C4.26015 7.70272 4.30101 7.69537 4.34083 7.70193C4.38064 7.70849 4.41698 7.72856 4.44373 7.75877C4.47048 7.78898 4.48601 7.82749 4.4877 7.86781C4.48939 7.90812 4.47714 7.94779 4.45301 7.98013L4.00076 8.57986L4.4502 8.32073C4.4861 8.30003 4.52817 8.29269 4.56896 8.30002C4.60975 8.30736 4.64663 8.32888 4.67308 8.36079C4.69952 8.3927 4.71383 8.43294 4.71346 8.47438C4.71309 8.51582 4.69807 8.5558 4.67106 8.58723L4.40842 8.89272L4.7297 8.70697C4.76403 8.68708 4.80409 8.67941 4.84334 8.6852C4.88259 8.69099 4.91872 8.7099 4.94584 8.73886C4.97297 8.76781 4.98948 8.8051 4.9927 8.84465C4.99591 8.8842 4.98564 8.92366 4.96355 8.95662L4.59943 9.50017L5.24867 9.12551C5.28506 9.10465 5.32772 9.09751 5.36892 9.10538C5.41012 9.11325 5.44714 9.13561 5.47329 9.16841C5.49943 9.20122 5.51296 9.2423 5.51143 9.28422C5.50991 9.32613 5.49342 9.36612 5.46496 9.39694L5.30696 9.56688L5.72585 9.32496C5.76006 9.30525 5.7999 9.29765 5.83896 9.30337C5.87801 9.3091 5.914 9.32782 5.94111 9.35651C5.96822 9.3852 5.98487 9.42219 5.98837 9.46151C5.99187 9.50082 5.98202 9.54017 5.96041 9.5732L5.58365 10.148L6.87264 9.40361C6.90871 9.38295 6.95094 9.37577 6.99182 9.38333C7.03269 9.39089 7.06956 9.41271 7.09585 9.44491C7.12215 9.4771 7.13617 9.51758 7.13541 9.55914C7.13466 9.6007 7.11919 9.64065 7.09174 9.67187L6.63071 10.194L7.9341 9.44153C7.96963 9.42108 8.01119 9.41371 8.05159 9.42069C8.09198 9.42767 8.12866 9.44857 8.15526 9.47976C8.18186 9.51095 8.19671 9.55046 8.19723 9.59145C8.19776 9.63244 8.18392 9.67232 8.15812 9.70418L7.66233 10.3144L8.25117 9.97455C8.28226 9.95675 8.31804 9.94889 8.35372 9.95202C8.3894 9.95515 8.42326 9.96911 8.45078 9.99204C8.47829 10.015 8.49814 10.0458 8.50765 10.0803C8.51716 10.1148 8.51588 10.1514 8.50398 10.1852L8.37126 10.5472L8.53594 10.4521C8.55592 10.4394 8.57827 10.4308 8.60163 10.427C8.62499 10.4232 8.64889 10.4241 8.67189 10.4297C8.69489 10.4354 8.71651 10.4456 8.73546 10.4598C8.7544 10.474 8.77027 10.4919 8.78212 10.5124C8.79397 10.5329 8.80155 10.5556 8.80441 10.5791C8.80726 10.6026 8.80533 10.6264 8.79874 10.6492C8.79214 10.6719 8.78101 10.6931 8.76602 10.7114C8.75103 10.7297 8.73248 10.7448 8.7115 10.7558L8.12793 11.0925C8.09685 11.1102 8.06112 11.118 8.02551 11.1148C7.9899 11.1116 7.95611 11.0976 7.92867 11.0747C7.90122 11.0518 7.88142 11.0211 7.87191 10.9866C7.8624 10.9521 7.86364 10.9156 7.87546 10.8819L8.00784 10.5206L7.01379 11.0918C6.98721 11.1076 6.95693 11.1161 6.92601 11.1164Z" fill="#F4AA51"/>
<path d="M16.705 11.1164C16.6698 11.1164 16.6354 11.1059 16.6063 11.0861C16.5772 11.0664 16.5547 11.0383 16.5417 11.0056C16.5287 10.9729 16.5259 10.9371 16.5335 10.9028C16.5411 10.8684 16.5589 10.8372 16.5845 10.813L17.0733 10.3513L15.7889 11.0918C15.7525 11.1125 15.71 11.1194 15.669 11.1115C15.6279 11.1036 15.5911 11.0813 15.565 11.0486C15.5389 11.016 15.5254 10.9751 15.5267 10.9333C15.5281 10.8915 15.5444 10.8516 15.5726 10.8208L16.0641 10.2913L15.5768 10.5722C15.5414 10.5925 15.5001 10.5999 15.4598 10.5931C15.4196 10.5863 15.383 10.5657 15.3564 10.5348C15.3297 10.5039 15.3146 10.4647 15.3137 10.4239C15.3128 10.3831 15.3261 10.3433 15.3514 10.3113L15.7576 9.79968V9.79758C15.746 9.7776 15.7385 9.75552 15.7355 9.73263C15.7324 9.70974 15.7339 9.68647 15.7399 9.66416C15.7459 9.64185 15.7562 9.62093 15.7702 9.60261C15.7843 9.5843 15.8019 9.56893 15.8219 9.5574L16.0884 9.40396C16.1238 9.38363 16.1651 9.37627 16.2054 9.38314C16.2456 9.39001 16.2822 9.41068 16.3088 9.4416C16.3355 9.47252 16.3505 9.51176 16.3513 9.55257C16.3522 9.59338 16.3388 9.6332 16.3134 9.6652L16.2011 9.80565L16.897 9.40642C16.9334 9.38556 16.976 9.37839 17.0172 9.38622C17.0584 9.39404 17.0954 9.41634 17.1215 9.44909C17.1477 9.48183 17.1613 9.52285 17.1599 9.56474C17.1584 9.60664 17.142 9.64663 17.1137 9.67749L16.6221 10.207L18.1965 9.29862C18.234 9.27624 18.2784 9.26857 18.3211 9.27711C18.3639 9.28565 18.4019 9.30979 18.4278 9.34484C18.4538 9.37988 18.4657 9.42332 18.4614 9.4667C18.4571 9.51008 18.4368 9.5503 18.4044 9.57953L17.9163 10.0385L20.8739 8.33126C20.9122 8.30978 20.9572 8.30347 21 8.31355C21.0428 8.32364 21.0802 8.3494 21.1049 8.38575C21.1296 8.42209 21.1398 8.46638 21.1334 8.50986C21.1271 8.55334 21.1046 8.59285 21.0705 8.62059L19.85 9.59006L20.4231 9.2593C20.443 9.24659 20.4654 9.23806 20.4887 9.23422C20.5121 9.23038 20.536 9.2313 20.559 9.23693C20.582 9.24257 20.6036 9.25279 20.6226 9.267C20.6415 9.28121 20.6574 9.2991 20.6692 9.3196C20.6811 9.3401 20.6887 9.36278 20.6915 9.38629C20.6944 9.40979 20.6925 9.43363 20.6859 9.45637C20.6793 9.47911 20.6681 9.50028 20.6531 9.51861C20.6381 9.53694 20.6196 9.55205 20.5986 9.56302L17.9669 11.0824C17.9286 11.1038 17.8836 11.1102 17.8408 11.1001C17.798 11.09 17.7606 11.0642 17.7359 11.0279C17.7112 10.9915 17.701 10.9472 17.7074 10.9038C17.7138 10.8603 17.7362 10.8208 17.7703 10.793L18.9905 9.82356L16.7927 11.0918C16.7662 11.1077 16.7359 11.1162 16.705 11.1164Z" fill="#F4AA51"/>
<path d="M19.5769 8.42571C19.5423 8.42571 19.5086 8.41552 19.4798 8.39643C19.451 8.37734 19.4285 8.35018 19.4151 8.31836C19.4017 8.28655 19.3979 8.25148 19.4044 8.21755C19.4108 8.18362 19.427 8.15233 19.4512 8.12761L20.1102 7.45098L19.8248 7.61566C19.788 7.63659 19.745 7.64357 19.7036 7.63532C19.6621 7.62708 19.625 7.60417 19.5991 7.57078C19.5732 7.5374 19.5602 7.49579 19.5625 7.4536C19.5648 7.4114 19.5822 7.37145 19.6116 7.34108L20.1032 6.83791L19.8262 6.99767C19.7888 7.01796 19.7454 7.02402 19.7039 7.0147C19.6624 7.00539 19.6257 6.98135 19.6006 6.94703C19.5755 6.91272 19.5637 6.87047 19.5674 6.82812C19.5711 6.78578 19.5901 6.74621 19.6207 6.71677L19.7847 6.56894C19.7483 6.57892 19.7097 6.5769 19.6745 6.56317C19.6393 6.54945 19.6095 6.52475 19.5895 6.49274C19.5694 6.46073 19.5603 6.42312 19.5633 6.38549C19.5664 6.34786 19.5814 6.31221 19.6063 6.28383L20.2896 5.50362L19.8265 5.77083C19.79 5.7917 19.7472 5.79878 19.706 5.79079C19.6647 5.78279 19.6276 5.76025 19.6016 5.72726C19.5755 5.69426 19.5622 5.65301 19.5639 5.61101C19.5657 5.569 19.5825 5.52902 19.6113 5.49835L20.1541 4.92601L19.6825 5.19779C19.6475 5.21776 19.6065 5.22503 19.5667 5.21837C19.5269 5.21171 19.4906 5.19152 19.4639 5.16121C19.4372 5.1309 19.4218 5.09233 19.4203 5.05198C19.4187 5.01163 19.4311 4.97198 19.4554 4.93971L20.0014 4.22165L18.4287 5.12896C18.3913 5.14926 18.3479 5.15531 18.3064 5.146C18.2649 5.13668 18.2282 5.11264 18.2031 5.07833C18.178 5.04401 18.1663 5.00176 18.17 4.95942C18.1737 4.91707 18.1926 4.8775 18.2233 4.84806L18.5263 4.57488L17.5561 5.13493C17.5194 5.1561 17.4763 5.1633 17.4348 5.15519C17.3932 5.14709 17.3559 5.12423 17.3299 5.09083C17.3039 5.05743 17.2908 5.01575 17.293 4.97345C17.2953 4.93116 17.3128 4.89112 17.3423 4.8607L17.8173 4.36912L17.3282 4.65002C17.2986 4.66706 17.2646 4.67506 17.2304 4.67305C17.1963 4.67103 17.1635 4.65909 17.1361 4.6387C17.1086 4.6183 17.0877 4.59033 17.0759 4.55822C17.0642 4.52611 17.062 4.49126 17.0698 4.45796L17.2102 3.85437C17.1793 3.84242 17.1524 3.82196 17.1326 3.79535C17.1128 3.76874 17.101 3.73707 17.0984 3.704C17.0959 3.67094 17.1028 3.63783 17.1183 3.60851C17.1338 3.5792 17.1573 3.55487 17.186 3.53835L17.3654 3.43301C17.3951 3.41587 17.4291 3.40778 17.4633 3.40974C17.4975 3.4117 17.5304 3.42362 17.5579 3.44404C17.5854 3.46445 17.6064 3.49247 17.6182 3.52464C17.6299 3.55681 17.632 3.59172 17.6242 3.62508L17.5052 4.1444L18.7317 3.43722C18.7683 3.41632 18.8113 3.40931 18.8527 3.41747C18.894 3.42563 18.9311 3.44842 18.9571 3.48167C18.983 3.51492 18.9961 3.55641 18.994 3.59854C18.9919 3.64067 18.9747 3.68063 18.9455 3.71111L18.4704 4.20269L19.7946 3.43722C19.8319 3.41693 19.8754 3.41088 19.9168 3.42019C19.9583 3.4295 19.995 3.45355 20.0201 3.48786C20.0452 3.52217 20.057 3.56443 20.0533 3.60677C20.0496 3.64912 20.0306 3.68869 20 3.71813L19.6969 3.99166L20.5821 3.48076C20.6172 3.46079 20.6581 3.45352 20.698 3.46018C20.7378 3.46684 20.7741 3.48703 20.8008 3.51734C20.8275 3.54765 20.8429 3.58622 20.8444 3.62657C20.846 3.66692 20.8336 3.70657 20.8093 3.73884L20.263 4.45725L21.0249 4.01764C21.0614 3.99652 21.1043 3.98924 21.1457 3.99714C21.1872 4.00504 21.2243 4.02759 21.2505 4.06066C21.2767 4.09374 21.2901 4.13512 21.2882 4.17725C21.2864 4.21939 21.2695 4.25945 21.2405 4.29012L20.698 4.86246L21.034 4.66828C21.07 4.64761 21.1122 4.64037 21.153 4.64784C21.1939 4.65531 21.2308 4.67701 21.2571 4.70909C21.2835 4.74117 21.2976 4.78155 21.297 4.82307C21.2964 4.86458 21.2811 4.90454 21.2538 4.93584L20.5705 5.71465L21.0333 5.44744C21.0707 5.42715 21.1141 5.42109 21.1556 5.43041C21.1971 5.43972 21.2338 5.46376 21.2589 5.49808C21.284 5.53239 21.2957 5.57464 21.292 5.61699C21.2883 5.65933 21.2694 5.6989 21.2387 5.72834L21.0741 5.87687C21.1112 5.86661 21.1508 5.86889 21.1865 5.88333C21.2223 5.89778 21.2523 5.9236 21.2719 5.9568C21.2915 5.99001 21.2997 6.02875 21.2951 6.06704C21.2905 6.10533 21.2734 6.14104 21.2465 6.16866L20.7549 6.67112L21.033 6.51066C21.0697 6.48947 21.1128 6.48229 21.1544 6.49043C21.1961 6.49858 21.2333 6.5215 21.2593 6.55497C21.2853 6.58843 21.2984 6.63018 21.296 6.67251C21.2936 6.71483 21.2761 6.75488 21.2465 6.78524L20.5881 7.46327L21.034 7.20624C21.0742 7.18525 21.1208 7.18058 21.1643 7.1932C21.2078 7.20581 21.2448 7.23474 21.2674 7.27395C21.2901 7.31315 21.2967 7.35959 21.2859 7.40358C21.2752 7.44756 21.2478 7.48568 21.2096 7.50997L19.6646 8.40184C19.638 8.41753 19.6077 8.42577 19.5769 8.42571Z" fill="#F4AA51"/>
<path d="M11.5816 17.0154C11.5455 17.0154 11.5103 17.0044 11.4807 16.9837C11.4511 16.963 11.4286 16.9337 11.4163 16.8997C11.404 16.8658 11.4024 16.8289 11.4118 16.7941C11.4213 16.7592 11.4412 16.7281 11.4689 16.705L11.5342 16.6502L11.1055 16.8978C11.0677 16.9195 11.0231 16.9264 10.9805 16.917C10.9379 16.9077 10.9003 16.8829 10.875 16.8473C10.8497 16.8118 10.8385 16.7681 10.8437 16.7248C10.8488 16.6814 10.87 16.6416 10.9029 16.613L11.5349 16.0642L10.3176 16.7664C10.2795 16.7886 10.2345 16.7957 10.1915 16.7863C10.1485 16.7768 10.1106 16.7516 10.0854 16.7155C10.0601 16.6795 10.0493 16.6353 10.0551 16.5916C10.0609 16.548 10.0829 16.5081 10.1167 16.4799L11.2505 15.5266L10.8197 15.7752C10.7823 15.7952 10.739 15.8011 10.6977 15.7917C10.6564 15.7823 10.6198 15.7582 10.5949 15.724C10.5699 15.6898 10.5581 15.6477 10.5617 15.6055C10.5654 15.5632 10.5841 15.5238 10.6146 15.4943L11.4222 14.7678L11.1044 14.9514C11.0679 14.9726 11.0249 14.9798 10.9834 14.9718C10.9419 14.9639 10.9047 14.9412 10.8786 14.908C10.8525 14.8748 10.8392 14.8333 10.8412 14.7911C10.8432 14.7489 10.8604 14.7088 10.8895 14.6783L11.7572 13.7699L11.2828 14.0441C11.2524 14.0617 11.2175 14.0698 11.1825 14.0673C11.1474 14.0648 11.114 14.0519 11.0864 14.0302C11.0588 14.0085 11.0383 13.979 11.0277 13.9456C11.017 13.9121 11.0166 13.8763 11.0265 13.8426L11.1996 13.252C11.1707 13.2382 11.1461 13.2168 11.1285 13.19C11.1108 13.1633 11.1009 13.1322 11.0996 13.1002C11.0984 13.0682 11.106 13.0365 11.1215 13.0085C11.137 12.9804 11.1599 12.9572 11.1876 12.9412L11.3727 12.8359C11.4031 12.8183 11.4381 12.8102 11.4732 12.8127C11.5082 12.8152 11.5417 12.8281 11.5694 12.8499C11.597 12.8716 11.6174 12.9012 11.6281 12.9347C11.6387 12.9682 11.639 13.0041 11.629 13.0378L11.4868 13.5224L12.6378 12.858C12.6743 12.8371 12.7172 12.8301 12.7585 12.8381C12.7998 12.8462 12.8368 12.8688 12.8628 12.9018C12.8889 12.9349 12.9022 12.9762 12.9003 13.0182C12.8985 13.0603 12.8816 13.1002 12.8527 13.1308L11.9886 14.0378L12.7084 13.62C12.7457 13.5999 12.7891 13.5941 12.8304 13.6035C12.8717 13.6129 12.9082 13.6369 12.9332 13.6712C12.9582 13.7054 12.97 13.7475 12.9663 13.7897C12.9627 13.8319 12.9439 13.8714 12.9134 13.9009L12.1041 14.6274L12.8039 14.2232C12.8419 14.2006 12.8871 14.1932 12.9304 14.2025C12.9736 14.2118 13.0118 14.2371 13.0372 14.2733C13.0626 14.3095 13.0735 14.354 13.0675 14.3978C13.0615 14.4416 13.0393 14.4816 13.0051 14.5097L11.8706 15.4634L12.9521 14.8391C12.9899 14.8174 13.0345 14.8105 13.0771 14.8198C13.1197 14.8291 13.1573 14.854 13.1826 14.8895C13.2079 14.9251 13.219 14.9688 13.2139 15.0121C13.2087 15.0554 13.1876 15.0952 13.1547 15.1239L12.5226 15.6727L13.1234 15.3261C13.1614 15.3047 13.2061 15.2982 13.2486 15.3078C13.2912 15.3175 13.3286 15.3427 13.3536 15.3785C13.3786 15.4143 13.3893 15.4581 13.3838 15.5014C13.3782 15.5446 13.3568 15.5843 13.3236 15.6126L13.2583 15.6671L13.2786 15.6555C13.3146 15.6348 13.3567 15.6275 13.3975 15.6348C13.4383 15.6422 13.4751 15.6638 13.5016 15.6958C13.528 15.7277 13.5422 15.768 13.5418 15.8095C13.5413 15.851 13.5262 15.8909 13.4991 15.9223L13.2972 16.1558L13.5209 16.027C13.5485 16.011 13.5799 16.0029 13.6117 16.0034C13.6435 16.004 13.6746 16.0131 13.7016 16.03C13.7286 16.0468 13.7506 16.0707 13.7651 16.0991C13.7796 16.1274 13.7861 16.1592 13.7839 16.1909L13.7744 16.3282L13.8078 16.3096C13.8479 16.2886 13.8946 16.284 13.9381 16.2966C13.9816 16.3092 14.0185 16.3381 14.0412 16.3773C14.0638 16.4165 14.0704 16.463 14.0597 16.5069C14.0489 16.5509 14.0216 16.589 13.9833 16.6133L13.6645 16.7973C13.6371 16.8135 13.6057 16.8217 13.5738 16.8211C13.542 16.8206 13.5109 16.8113 13.484 16.7942C13.457 16.7774 13.435 16.7535 13.4205 16.7252C13.406 16.6969 13.3994 16.6651 13.4015 16.6334L13.4114 16.4957L12.5725 16.9796C12.5366 17.0003 12.4945 17.0076 12.4537 17.0002C12.4129 16.9928 12.376 16.9712 12.3496 16.9393C12.3231 16.9073 12.3089 16.867 12.3093 16.8255C12.3098 16.7841 12.3249 16.7441 12.352 16.7127L12.5535 16.4796L11.6694 16.9908C11.6429 17.0068 11.6126 17.0153 11.5816 17.0154Z" fill="#F4AA51"/>
<path d="M12.4795 13.1867C12.4431 13.1866 12.4077 13.1753 12.3781 13.1542C12.3485 13.1332 12.3261 13.1035 12.3141 13.0692C12.3021 13.0349 12.301 12.9977 12.311 12.9628C12.321 12.9279 12.3416 12.8969 12.3699 12.8742L14.1168 11.4746L11.2958 13.1031C11.2569 13.1258 11.2107 13.1327 11.1669 13.1223C11.123 13.1119 11.0848 13.085 11.0602 13.0473C11.0356 13.0095 11.0265 12.9637 11.0347 12.9194C11.043 12.8751 11.0679 12.8356 11.1045 12.8092L13.7906 10.8548L10.4468 12.786C10.4076 12.8082 10.3613 12.8144 10.3177 12.8034C10.274 12.7924 10.2362 12.7651 10.2121 12.727C10.188 12.689 10.1795 12.6431 10.1883 12.5989C10.1971 12.5547 10.2225 12.5156 10.2593 12.4897L13.2397 10.4328L9.83372 12.3991C9.7942 12.4209 9.74782 12.4266 9.7042 12.415C9.66058 12.4035 9.62307 12.3757 9.59945 12.3372C9.57583 12.2988 9.56791 12.2527 9.57734 12.2086C9.58676 12.1645 9.61281 12.1257 9.65008 12.1003L11.5676 10.8506L9.44326 12.075C9.40393 12.0968 9.35773 12.1026 9.3142 12.0914C9.27066 12.0801 9.23311 12.0526 9.20929 12.0144C9.18547 11.9763 9.17719 11.9304 9.18617 11.8864C9.19514 11.8423 9.22068 11.8034 9.25752 11.7776L13.0824 9.19574L8.95625 11.5789C8.91657 11.601 8.86984 11.607 8.82588 11.5954C8.78192 11.5838 8.74416 11.5556 8.72056 11.5168C8.69695 11.4779 8.68933 11.4314 8.6993 11.3871C8.70927 11.3427 8.73605 11.304 8.77401 11.279L10.635 10.0918L8.66867 11.2274C8.62925 11.2491 8.58296 11.2549 8.53939 11.2435C8.49582 11.2321 8.4583 11.2044 8.43458 11.1661C8.41086 11.1279 8.40276 11.0819 8.41196 11.0378C8.42115 10.9937 8.44694 10.9549 8.48398 10.9293L12.7053 8.12936L8.28559 10.6814C8.24579 10.7033 8.19903 10.7089 8.15516 10.6971C8.11128 10.6852 8.07371 10.6569 8.05033 10.6179C8.02696 10.5789 8.01961 10.5324 8.02982 10.4881C8.04004 10.4438 8.06703 10.4052 8.10511 10.3804L8.37899 10.2102L8.09809 10.3734C8.05854 10.3959 8.0118 10.4022 7.96772 10.3909C7.92365 10.3796 7.88568 10.3516 7.86183 10.3129C7.83797 10.2741 7.83009 10.2276 7.83984 10.1832C7.84959 10.1387 7.87621 10.0998 7.9141 10.0746L12.397 7.13075L7.78559 9.79266C7.7461 9.81475 7.6996 9.82073 7.65581 9.80937C7.61201 9.79802 7.57429 9.77019 7.55051 9.73169C7.52673 9.6932 7.51874 9.64701 7.52819 9.60276C7.53764 9.55851 7.56381 9.51962 7.60124 9.4942L12.3801 6.35721L7.50293 9.17327C7.46304 9.19574 7.41596 9.20174 7.37171 9.18999C7.32747 9.17825 7.28956 9.14969 7.26607 9.1104C7.24258 9.07111 7.23536 9.0242 7.24596 8.97966C7.25655 8.93513 7.28413 8.8965 7.3228 8.872L7.68727 8.64657L7.36634 8.83162C7.32658 8.85434 7.27953 8.86063 7.2352 8.84914C7.19088 8.83766 7.15279 8.80932 7.12907 8.77016C7.10534 8.731 7.09786 8.68412 7.1082 8.63952C7.11855 8.59492 7.14591 8.55612 7.18445 8.5314L10.261 6.58053L7.19499 8.35057C7.15538 8.37429 7.10803 8.38145 7.06319 8.37051C7.01834 8.35958 6.9796 8.33142 6.95537 8.29213C6.93113 8.25284 6.92334 8.20559 6.93369 8.1606C6.94403 8.11562 6.97168 8.07651 7.01064 8.05176L11.6434 5.00537L6.9973 7.68588C6.95778 7.70765 6.9114 7.71336 6.86778 7.70185C6.82416 7.69033 6.78665 7.66246 6.76303 7.62402C6.73941 7.58559 6.73149 7.53953 6.74092 7.49541C6.75034 7.4513 6.77639 7.4125 6.81366 7.38707L10.2315 5.15284L6.85228 7.10371C6.8133 7.12338 6.76838 7.12782 6.7263 7.11615C6.68422 7.10448 6.648 7.07755 6.62471 7.04062C6.60141 7.00368 6.59272 6.95939 6.60032 6.91639C6.60793 6.87339 6.63129 6.83477 6.66583 6.80806L9.74383 4.76098L6.72728 6.50258C6.68803 6.52542 6.64146 6.53216 6.59735 6.52139C6.55324 6.51063 6.51501 6.48319 6.4907 6.44483C6.46639 6.40648 6.45788 6.3602 6.46697 6.31571C6.47605 6.27122 6.50202 6.23198 6.53943 6.20623L9.58723 4.09032L6.61808 5.80418C6.57836 5.82849 6.53062 5.83602 6.48535 5.82512C6.44007 5.81423 6.40099 5.78579 6.37668 5.74607C6.35237 5.70635 6.34484 5.65861 6.35574 5.61334C6.36664 5.56806 6.39507 5.52898 6.43479 5.50467L6.63845 5.37265L6.57068 5.41197C6.53185 5.43421 6.48599 5.44079 6.44248 5.43036C6.39897 5.41992 6.36108 5.39327 6.33656 5.35584C6.31204 5.31841 6.30273 5.27302 6.31055 5.22896C6.31837 5.1849 6.34271 5.14549 6.37861 5.11878L8.48539 3.56995L6.51485 4.70761C6.47615 4.72978 6.43047 4.73639 6.38707 4.7261C6.34368 4.71582 6.30582 4.6894 6.2812 4.65221C6.25657 4.61503 6.24702 4.56987 6.25448 4.5259C6.26195 4.48193 6.28586 4.44245 6.32138 4.41547L7.63706 3.42493L6.49027 4.08576C6.4525 4.10709 6.40817 4.11368 6.36582 4.10426C6.32348 4.09484 6.28612 4.07007 6.26095 4.03474C6.23579 3.99941 6.22459 3.95601 6.22952 3.91292C6.23445 3.86982 6.25517 3.83007 6.28767 3.80134L7.3221 2.90597L6.49027 3.38596C6.45321 3.40762 6.4095 3.41496 6.3674 3.40658C6.32531 3.3982 6.28773 3.37469 6.26179 3.34049C6.23585 3.30629 6.22334 3.26378 6.22662 3.22098C6.2299 3.17818 6.24874 3.13806 6.27959 3.10822L6.70973 2.69037L6.51169 2.80449C6.47593 2.82503 6.43407 2.83232 6.39347 2.82508C6.35287 2.81785 6.31611 2.79656 6.28964 2.76493C6.26317 2.73331 6.24867 2.69338 6.2487 2.65213C6.24872 2.61089 6.26327 2.57098 6.28978 2.53939L6.46534 2.32871C6.42966 2.31414 6.39987 2.28806 6.38072 2.25462C6.35755 2.21433 6.3513 2.16649 6.36335 2.1216C6.37539 2.07671 6.40475 2.03843 6.44497 2.01515L7.02469 1.68158C7.06042 1.66103 7.10224 1.6537 7.14283 1.66089C7.18342 1.66807 7.22018 1.68931 7.24669 1.72088C7.27319 1.75245 7.28774 1.79234 7.28779 1.83356C7.28784 1.87478 7.27338 1.9147 7.24695 1.94633L7.20131 2.00075L7.75433 1.68158C7.79139 1.65992 7.8351 1.65258 7.8772 1.66096C7.9193 1.66934 7.95687 1.69285 7.98281 1.72705C8.00875 1.76124 8.02127 1.80376 8.01799 1.84656C8.01471 1.88936 7.99586 1.92947 7.96501 1.95932L7.53593 2.37611L8.74066 1.68158C8.77844 1.65992 8.82292 1.65307 8.86547 1.66238C8.90802 1.67168 8.94559 1.69646 8.97088 1.73191C8.99618 1.76736 9.0074 1.81095 9.00236 1.85421C8.99732 1.89747 8.97638 1.93731 8.94361 1.96599L7.90953 2.86137L9.95346 1.68158C9.99215 1.65941 10.0378 1.65279 10.0812 1.66308C10.1246 1.67337 10.1625 1.69979 10.1871 1.73697C10.2117 1.77416 10.2213 1.81932 10.2138 1.86329C10.2064 1.90726 10.1824 1.94674 10.1469 1.97372L8.83125 2.96355L11.0549 1.68158C11.0938 1.65983 11.1394 1.65363 11.1826 1.66422C11.2258 1.67481 11.2634 1.70142 11.2877 1.73865C11.3121 1.77589 11.3214 1.82097 11.3137 1.86481C11.3061 1.90864 11.2821 1.94794 11.2467 1.97477L9.14235 3.52325L12.3309 1.68158C12.3705 1.65946 12.4171 1.65352 12.461 1.66499C12.5049 1.67646 12.5426 1.70446 12.5663 1.74312C12.59 1.78179 12.5978 1.82811 12.5881 1.87241C12.5784 1.9167 12.5519 1.95552 12.5142 1.98074L12.3053 2.11593L13.0585 1.68158C13.0977 1.65969 13.1437 1.65363 13.1872 1.66464C13.2307 1.67565 13.2683 1.70289 13.2924 1.74076C13.3164 1.77864 13.325 1.82429 13.3165 1.86833C13.3079 1.91237 13.2828 1.95146 13.2463 1.97758L10.1992 4.09278L14.3773 1.68158C14.4167 1.66059 14.4625 1.65535 14.5056 1.66693C14.5486 1.67851 14.5857 1.70604 14.6092 1.74393C14.6327 1.78182 14.6409 1.82723 14.6321 1.87095C14.6234 1.91467 14.5983 1.95342 14.562 1.97934L11.4837 4.02607L15.5462 1.68158C15.5858 1.65981 15.6321 1.6541 15.6758 1.66562C15.7194 1.67714 15.7569 1.705 15.7805 1.74344C15.8041 1.78187 15.812 1.82793 15.8026 1.87205C15.7932 1.91617 15.7671 1.95496 15.7299 1.98039L12.3144 4.21217L16.6993 1.68158C16.7388 1.66011 16.785 1.65458 16.8284 1.66613C16.8718 1.67767 16.9091 1.70542 16.9327 1.74366C16.9563 1.7819 16.9643 1.82771 16.9551 1.87168C16.9459 1.91566 16.9202 1.95443 16.8833 1.98004L12.2516 5.02538L17.4041 2.05062C17.4438 2.02878 17.4904 2.02314 17.5341 2.03488C17.5779 2.04662 17.6154 2.07483 17.6389 2.11361C17.6623 2.15239 17.6699 2.19873 17.66 2.24294C17.65 2.28715 17.6234 2.32581 17.5856 2.35083L14.5072 4.30311L17.4989 2.5759C17.5388 2.55343 17.5858 2.54743 17.6301 2.55918C17.6743 2.57092 17.7122 2.59948 17.7357 2.63877C17.7592 2.67806 17.7664 2.72497 17.7558 2.76951C17.7452 2.81404 17.7177 2.85267 17.679 2.87717L17.3254 3.09593L17.5154 2.98637C17.555 2.96266 17.6023 2.95549 17.6472 2.96643C17.692 2.97737 17.7308 3.00553 17.755 3.04482C17.7792 3.0841 17.787 3.13135 17.7767 3.17634C17.7663 3.22133 17.7387 3.26043 17.6997 3.28518L12.9194 6.42182L17.5157 3.76869C17.5553 3.74497 17.6027 3.73781 17.6475 3.74875C17.6924 3.75968 17.7311 3.78784 17.7553 3.82713C17.7796 3.86642 17.7874 3.91367 17.777 3.95866C17.7667 4.00364 17.739 4.04275 17.7001 4.0675L13.2161 7.01172L17.4834 4.54855C17.5232 4.52662 17.57 4.52099 17.6139 4.53283C17.6577 4.54467 17.6953 4.57306 17.7187 4.61203C17.742 4.651 17.7494 4.69752 17.7392 4.7418C17.729 4.78608 17.702 4.82467 17.6639 4.84946L17.3883 5.02082L17.4455 4.98816C17.4849 4.96639 17.5312 4.96061 17.5748 4.97201C17.6183 4.98341 17.6559 5.01111 17.6796 5.0494C17.7033 5.08768 17.7114 5.13361 17.7022 5.1777C17.693 5.22179 17.6672 5.26066 17.6302 5.28627L13.4075 8.08652L17.3402 5.81542C17.38 5.79125 17.4277 5.78389 17.473 5.79496C17.5182 5.80602 17.5572 5.8346 17.5814 5.87441C17.6055 5.91422 17.6129 5.962 17.6018 6.00724C17.5908 6.05248 17.5622 6.09147 17.5224 6.11564L15.6614 7.3014L17.2383 6.39127C17.2776 6.37023 17.3234 6.36489 17.3664 6.37634C17.4094 6.38778 17.4465 6.41516 17.4701 6.45292C17.4938 6.49069 17.5021 6.53601 17.4936 6.57972C17.485 6.62343 17.4602 6.66225 17.4241 6.68833L13.6024 9.26983L17.0343 7.28805C17.074 7.26366 17.1217 7.25602 17.167 7.26682C17.2123 7.27761 17.2515 7.30597 17.2759 7.34564C17.3003 7.38531 17.3079 7.43305 17.2971 7.47835C17.2863 7.52366 17.258 7.56282 17.2183 7.58722L15.2973 8.83864L16.8423 7.94712C16.8815 7.92498 16.9277 7.91875 16.9714 7.92974C17.0151 7.94072 17.0529 7.96807 17.0769 8.00613C17.101 8.04419 17.1096 8.09006 17.1008 8.13423C17.092 8.17841 17.0666 8.21752 17.0298 8.24348L14.0515 10.2993L16.4974 8.88745C16.5364 8.86531 16.5823 8.85888 16.6258 8.86946C16.6692 8.88004 16.7071 8.90684 16.7315 8.94438C16.7559 8.98191 16.765 9.02735 16.757 9.07139C16.749 9.11544 16.7245 9.15477 16.6885 9.18134L14.002 11.1361L15.9409 10.017C15.9792 9.99528 16.0243 9.98872 16.0672 9.99866C16.1101 10.0086 16.1477 10.0343 16.1726 10.0707C16.1974 10.1071 16.2077 10.1515 16.2013 10.1951C16.195 10.2386 16.1724 10.2782 16.1382 10.306L14.3907 11.7056L14.9623 11.3759C15.0024 11.3549 15.0491 11.3502 15.0926 11.3629C15.1361 11.3755 15.173 11.4044 15.1957 11.4436C15.2183 11.4828 15.225 11.5293 15.2142 11.5732C15.2034 11.6172 15.1761 11.6553 15.1379 11.6796L12.5673 13.1635C12.5406 13.1789 12.5103 13.1869 12.4795 13.1867Z" fill="#F9C55D"/>
<path d="M9.99384 9.59146C9.95669 9.59147 9.92048 9.5797 9.89044 9.55783C9.86041 9.53596 9.83808 9.50512 9.82668 9.46975C9.81529 9.43439 9.8154 9.39632 9.82702 9.36102C9.83863 9.32573 9.86114 9.29503 9.89131 9.27334L12.1108 7.68237L10.0483 8.8734C10.0092 8.89568 9.96312 8.90212 9.91946 8.89142C9.8758 8.88071 9.83791 8.85366 9.8136 8.81584C9.78929 8.77803 9.78041 8.73233 9.78879 8.68816C9.79718 8.644 9.82218 8.60473 9.85866 8.57845L11.3685 7.50716L10.1662 8.20134C10.1273 8.22435 10.0809 8.23141 10.0368 8.22104C9.99277 8.21068 9.95441 8.1837 9.92977 8.14574C9.90512 8.10777 9.89609 8.06175 9.90456 8.01728C9.91303 7.97282 9.93835 7.93334 9.97523 7.9071L10.9145 7.2252L10.2688 7.59775C10.2303 7.61974 10.1848 7.62633 10.1417 7.6162C10.0985 7.60607 10.0607 7.57997 10.036 7.54314C10.0113 7.50632 10.0014 7.46151 10.0084 7.4177C10.0153 7.3739 10.0386 7.33435 10.0735 7.30702L10.9577 6.62126L9.93942 7.20835C9.90062 7.23092 9.85465 7.23778 9.81096 7.22751C9.76726 7.21724 9.72916 7.19063 9.70448 7.15314C9.6798 7.11564 9.67042 7.07012 9.67826 7.02593C9.6861 6.98173 9.71058 6.94222 9.74665 6.91551L10.3643 6.45553L9.61778 6.88671C9.58202 6.90725 9.54017 6.91454 9.49957 6.90731C9.45897 6.90008 9.42221 6.87878 9.39573 6.84716C9.36926 6.81553 9.35477 6.7756 9.35479 6.73436C9.35482 6.69312 9.36936 6.6532 9.39587 6.62161L9.95768 5.95447L9.15359 6.42182C9.12251 6.43961 9.08673 6.44747 9.05105 6.44434C9.01537 6.44122 8.9815 6.42725 8.95399 6.40432C8.92647 6.38139 8.90663 6.3506 8.89712 6.31607C8.88761 6.28154 8.88888 6.24493 8.90078 6.21114L9.01349 5.89829L8.96574 5.92568C8.92544 5.94859 8.87771 5.95463 8.83297 5.94249C8.78822 5.93034 8.7501 5.90099 8.72692 5.86084C8.70374 5.82069 8.69738 5.773 8.70923 5.72818C8.72108 5.68336 8.75018 5.64504 8.79017 5.6216L9.25366 5.35439C9.28475 5.3366 9.32053 5.32874 9.35621 5.33186C9.39189 5.33499 9.42576 5.34896 9.45327 5.37189C9.48079 5.39481 9.50063 5.42561 9.51014 5.46014C9.51965 5.49467 9.51837 5.53128 9.50648 5.56507L9.39376 5.87827L10.6491 5.15354C10.6848 5.13301 10.7267 5.12571 10.7673 5.13295C10.8079 5.14018 10.8446 5.16148 10.8711 5.1931C10.8976 5.22472 10.9121 5.26466 10.912 5.3059C10.912 5.34714 10.8975 5.38705 10.871 5.41864L10.3092 6.08579L12.8004 4.64511C12.8392 4.62253 12.8852 4.61568 12.9289 4.62595C12.9726 4.63621 13.0107 4.66283 13.0354 4.70032C13.06 4.73781 13.0694 4.78333 13.0616 4.82753C13.0537 4.87173 13.0293 4.91124 12.9932 4.93795L12.3752 5.39828L13.0107 5.03135C13.0493 5.0089 13.0949 5.00195 13.1384 5.01192C13.1819 5.0219 13.2199 5.04804 13.2448 5.08505C13.2697 5.12206 13.2796 5.16715 13.2724 5.21117C13.2653 5.2552 13.2416 5.29485 13.2063 5.32208L12.3222 6.00784L13.6779 5.22517C13.7168 5.20335 13.7626 5.19717 13.806 5.20791C13.8493 5.21865 13.8869 5.24549 13.9111 5.28297C13.9354 5.32046 13.9444 5.36577 13.9365 5.4097C13.9285 5.45362 13.9041 5.49285 13.8682 5.51942L12.9286 6.20061L14.4335 5.33332C14.4725 5.31158 14.5184 5.30554 14.5617 5.31642C14.605 5.3273 14.6426 5.35429 14.6667 5.39189C14.6908 5.42948 14.6997 5.47486 14.6916 5.51878C14.6834 5.56269 14.6588 5.60185 14.6228 5.62827L13.1129 6.70062L15.0283 5.59456C15.0673 5.57252 15.1133 5.56622 15.1568 5.57695C15.2002 5.58768 15.238 5.61462 15.2623 5.65226C15.2865 5.68991 15.2955 5.7354 15.2873 5.77944C15.2792 5.82348 15.2545 5.86273 15.2183 5.88916L13.0002 7.47731L14.1719 6.80104C14.2104 6.77905 14.2559 6.77246 14.299 6.78259C14.3422 6.79272 14.38 6.81882 14.4047 6.85565C14.4294 6.89247 14.4393 6.93729 14.4323 6.98109C14.4254 7.02489 14.4021 7.06444 14.3672 7.09177L13.8935 7.45906C13.9224 7.46613 13.949 7.48043 13.9709 7.50063C13.9928 7.52082 14.0091 7.54625 14.0185 7.57451C14.0278 7.60278 14.0298 7.63295 14.0243 7.6622C14.0188 7.69145 14.0059 7.71881 13.9869 7.74171L13.4521 8.38463L13.8808 8.13884C13.9141 8.11969 13.9528 8.11198 13.9909 8.11689C14.029 8.12181 14.0644 8.13908 14.0917 8.16605C14.1191 8.19303 14.1368 8.22823 14.1422 8.26625C14.1476 8.30427 14.1404 8.34302 14.1217 8.37656L13.8204 8.91484L13.9999 8.8116C14.0402 8.78869 14.0879 8.78265 14.1326 8.79479C14.1774 8.80694 14.2155 8.83629 14.2387 8.87644C14.2619 8.91659 14.2682 8.96428 14.2564 9.0091C14.2445 9.05392 14.2154 9.09223 14.1754 9.11568L13.444 9.53704C13.4107 9.55634 13.372 9.56418 13.3339 9.55933C13.2957 9.55449 13.2601 9.53723 13.2327 9.51021C13.2053 9.4832 13.1875 9.44793 13.1821 9.40982C13.1767 9.37172 13.184 9.33289 13.2028 9.29932L13.5041 8.76069L12.7758 9.18205C12.7402 9.20263 12.6984 9.21002 12.6578 9.20293C12.6173 9.19584 12.5805 9.17472 12.5539 9.14326C12.5274 9.1118 12.5127 9.072 12.5125 9.03082C12.5123 8.98964 12.5266 8.94971 12.5529 8.918L13.0876 8.27543L12.1217 8.83302C12.0832 8.85501 12.0377 8.8616 11.9946 8.85147C11.9514 8.84134 11.9136 8.81524 11.8889 8.77842C11.8642 8.74159 11.8543 8.69678 11.8613 8.65297C11.8682 8.60917 11.8915 8.56962 11.9265 8.54229L12.1175 8.39411L10.0809 9.56969C10.0543 9.58437 10.0243 9.59187 9.99384 9.59146Z" fill="#F4AA51"/>
<path d="M11.2284 4.77397C11.195 4.77396 11.1624 4.76444 11.1342 4.74654C11.1061 4.72863 11.0836 4.70307 11.0695 4.67286C11.0553 4.64265 11.0501 4.60903 11.0543 4.57595C11.0586 4.54286 11.0722 4.51168 11.0936 4.48605L11.5205 3.9748C11.5065 3.96224 11.4946 3.9474 11.4854 3.93091C11.4621 3.89059 11.4558 3.84267 11.4679 3.79769C11.4799 3.75272 11.5093 3.71437 11.5497 3.69109L11.9802 3.44249C12.0158 3.42213 12.0575 3.41494 12.098 3.42216C12.1384 3.42939 12.1751 3.45057 12.2015 3.48202C12.228 3.51348 12.2425 3.55321 12.2427 3.59429C12.2429 3.63538 12.2286 3.67523 12.2024 3.70689L11.9984 3.95268L12.3222 3.76588C12.3421 3.75318 12.3645 3.74465 12.3878 3.74081C12.4112 3.73696 12.4351 3.73788 12.4581 3.74352C12.4811 3.74915 12.5027 3.75938 12.5217 3.77358C12.5406 3.78779 12.5565 3.80568 12.5683 3.82618C12.5802 3.84668 12.5878 3.86937 12.5906 3.89287C12.5935 3.91638 12.5915 3.94022 12.585 3.96296C12.5784 3.9857 12.5672 4.00687 12.5522 4.0252C12.5372 4.04353 12.5187 4.05863 12.4977 4.06961L11.3162 4.75045C11.2895 4.766 11.2592 4.77412 11.2284 4.77397Z" fill="#F4AA51"/>
<path d="M9.00225 18.8518C8.96701 18.8517 8.9326 18.8411 8.90349 18.8212C8.87439 18.8014 8.85194 18.7732 8.83906 18.7404C8.82618 18.7076 8.82347 18.6717 8.83128 18.6373C8.8391 18.6029 8.85707 18.5717 8.88287 18.5477L9.99911 17.5119L8.59003 18.3251C8.55196 18.347 8.50707 18.3538 8.46422 18.3442C8.42136 18.3347 8.38365 18.3094 8.35853 18.2733C8.3334 18.2373 8.32269 18.1932 8.32849 18.1497C8.33429 18.1062 8.3562 18.0664 8.38988 18.0382L8.71854 17.7647L8.59003 17.8391C8.55603 17.8593 8.51622 17.8674 8.47704 17.8622C8.43785 17.8569 8.4016 17.8385 8.37414 17.8101C8.34667 17.7817 8.32961 17.7448 8.32571 17.7055C8.32182 17.6661 8.33131 17.6266 8.35266 17.5933L8.67114 17.0772C8.63005 17.0943 8.58398 17.0952 8.54227 17.0796C8.50055 17.0641 8.4663 17.0333 8.44645 16.9934C8.42659 16.9536 8.42261 16.9077 8.43532 16.865C8.44802 16.8224 8.47646 16.7861 8.51488 16.7636L9.09635 16.4279C9.13035 16.4079 9.17009 16.4 9.20917 16.4053C9.24825 16.4107 9.28439 16.429 9.31177 16.4574C9.33915 16.4858 9.35617 16.5226 9.36009 16.5618C9.364 16.6011 9.35459 16.6405 9.33337 16.6737L9.01735 17.1878L10.3309 16.429C10.369 16.4071 10.4139 16.4003 10.4567 16.4099C10.4996 16.4194 10.5373 16.4447 10.5624 16.4807C10.5875 16.5168 10.5983 16.5609 10.5925 16.6044C10.5867 16.6479 10.5647 16.6877 10.5311 16.7159L10.2017 16.9894L11.1729 16.4276C11.2103 16.4059 11.2544 16.3987 11.2968 16.4075C11.3391 16.4163 11.3767 16.4404 11.4024 16.4752C11.4281 16.51 11.44 16.5531 11.4359 16.5961C11.4318 16.6392 11.4119 16.6792 11.3801 16.7085L10.2642 17.7443L12.5437 16.429C12.582 16.4072 12.6271 16.4007 12.67 16.4106C12.713 16.4206 12.7506 16.4463 12.7754 16.4827C12.8003 16.519 12.8105 16.5634 12.8042 16.607C12.7978 16.6506 12.7753 16.6902 12.7411 16.718L11.9493 17.35L13.5434 16.43C13.5816 16.4081 13.6267 16.4014 13.6697 16.4112C13.7126 16.4209 13.7504 16.4465 13.7754 16.4828C13.8003 16.5191 13.8108 16.5635 13.8045 16.6071C13.7983 16.6508 13.7759 16.6904 13.7418 16.7183L12.8857 17.4122L14.5877 16.429C14.625 16.4084 14.6686 16.4022 14.7102 16.4114C14.7519 16.4206 14.7887 16.4447 14.8139 16.4791C14.8391 16.5135 14.8509 16.5559 14.8472 16.5983C14.8434 16.6408 14.8243 16.6805 14.7934 16.7099L13.7049 17.7008L15.3201 16.7682C15.3585 16.7452 15.4043 16.7378 15.448 16.7475C15.4917 16.7571 15.5301 16.7831 15.5553 16.8201C15.5805 16.857 15.5906 16.9023 15.5835 16.9465C15.5765 16.9907 15.5529 17.0305 15.5174 17.0579L15.1709 17.3332L15.4188 17.1902C15.4537 17.1702 15.4946 17.1627 15.5344 17.1692C15.5742 17.1756 15.6105 17.1956 15.6374 17.2257C15.6642 17.2558 15.6798 17.2942 15.6816 17.3345C15.6835 17.3748 15.6714 17.4145 15.6474 17.4469L15.1667 18.0902L15.4219 17.9427C15.4524 17.9252 15.4874 17.9171 15.5224 17.9197C15.5575 17.9222 15.5909 17.9352 15.6185 17.957C15.6461 17.9788 15.6665 18.0084 15.6771 18.0419C15.6877 18.0754 15.688 18.1113 15.6779 18.145L15.5982 18.4108C15.6263 18.4263 15.6496 18.4493 15.6656 18.4771C15.6888 18.5174 15.695 18.5653 15.683 18.6101C15.6709 18.655 15.6416 18.6933 15.6014 18.7166L15.4258 18.8177C15.3954 18.8352 15.3604 18.8431 15.3254 18.8405C15.2905 18.8379 15.2571 18.8249 15.2296 18.8031C15.2021 18.7813 15.1817 18.7518 15.1711 18.7184C15.1605 18.6849 15.1602 18.6491 15.1702 18.6155L15.2141 18.468L14.6059 18.8191C14.571 18.8392 14.5301 18.8467 14.4903 18.8402C14.4505 18.8338 14.4142 18.8138 14.3873 18.7837C14.3605 18.7536 14.3449 18.7151 14.3431 18.6748C14.3412 18.6346 14.3533 18.5949 14.3773 18.5625L14.8563 17.9185L13.2927 18.8209C13.2543 18.8432 13.2089 18.8501 13.1657 18.8403C13.1224 18.8305 13.0844 18.8047 13.0594 18.768C13.0344 18.7314 13.0242 18.6866 13.0309 18.6427C13.0376 18.5989 13.0606 18.5591 13.0954 18.5316L13.4405 18.2577L12.4623 18.8223C12.4249 18.8431 12.3812 18.8496 12.3394 18.8405C12.2976 18.8314 12.2606 18.8073 12.2353 18.7728C12.2099 18.7383 12.1981 18.6958 12.202 18.6531C12.2058 18.6105 12.2251 18.5708 12.2562 18.5414L13.3468 17.5509L11.1389 18.8255C11.1006 18.8474 11.0556 18.8541 11.0126 18.8443C10.9696 18.8346 10.9319 18.809 10.9069 18.7727C10.8819 18.7364 10.8715 18.692 10.8777 18.6484C10.884 18.6047 10.9064 18.5651 10.9405 18.5372L11.7969 17.8426L10.0915 18.8258C10.0531 18.8468 10.0082 18.8526 9.96572 18.8423C9.92322 18.8319 9.88612 18.806 9.86169 18.7697C9.83726 18.7334 9.82727 18.6893 9.83365 18.6461C9.84004 18.6028 9.86235 18.5635 9.89623 18.5358L10.687 17.9037L9.08863 18.8276C9.06246 18.8431 9.03267 18.8514 9.00225 18.8518Z" fill="#F9C55D"/>
<path d="M7.24765 21.6608C7.20992 21.6608 7.17318 21.6487 7.14289 21.6262C7.1126 21.6037 7.09037 21.572 7.0795 21.5359C7.06862 21.4997 7.06968 21.461 7.08251 21.4256C7.09534 21.3901 7.11927 21.3597 7.15074 21.3388L7.5096 21.1018L7.18551 21.289C7.14656 21.3108 7.10077 21.317 7.05744 21.3062C7.0141 21.2955 6.97649 21.2687 6.95225 21.2312C6.928 21.1937 6.91895 21.1484 6.92693 21.1044C6.9349 21.0605 6.95931 21.0213 6.99519 20.9947L8.49487 19.9192L7.18551 20.6752C7.14736 20.6969 7.10247 20.7035 7.05968 20.6938C7.01689 20.684 6.9793 20.6586 6.95432 20.6225C6.92934 20.5865 6.91878 20.5423 6.92472 20.4989C6.93066 20.4554 6.95267 20.4157 6.98641 20.3876L8.42323 19.2092L7.18551 19.9238C7.14885 19.9452 7.10568 19.9526 7.06399 19.9447C7.02229 19.9367 6.98489 19.9139 6.95871 19.8805C6.93253 19.8471 6.91935 19.8053 6.9216 19.7629C6.92386 19.7205 6.94139 19.6804 6.97096 19.6499L7.83018 18.7573L7.18551 19.1295C7.15102 19.1494 7.1108 19.157 7.07146 19.151C7.03211 19.145 6.99596 19.1258 6.96894 19.0966C6.94192 19.0674 6.92563 19.0298 6.92274 18.9901C6.91986 18.9504 6.93055 18.9109 6.95306 18.8781L7.2157 18.4957C7.18215 18.4983 7.14854 18.4915 7.11861 18.4761C7.08867 18.4608 7.06358 18.4374 7.04611 18.4087C7.02294 18.3684 7.01669 18.3205 7.02874 18.2756C7.04078 18.2308 7.07014 18.1925 7.11036 18.1692L7.69183 17.8335C7.72628 17.8138 7.76641 17.8063 7.80565 17.8123C7.8449 17.8183 7.88095 17.8374 7.90792 17.8666C7.9349 17.8957 7.9512 17.9331 7.95417 17.9727C7.95714 18.0123 7.9466 18.0517 7.92428 18.0846L7.68165 18.4378L8.72977 17.8335C8.76638 17.8124 8.80939 17.8051 8.8509 17.8132C8.89241 17.8212 8.92963 17.8439 8.95573 17.8772C8.98182 17.9105 8.99503 17.952 8.99293 17.9942C8.99083 18.0365 8.97357 18.0765 8.94431 18.107L8.0851 18.9993L10.1069 17.8335C10.145 17.8118 10.1899 17.8052 10.2327 17.8149C10.2755 17.8247 10.3131 17.8501 10.3381 17.8862C10.3631 17.9222 10.3736 17.9664 10.3677 18.0099C10.3617 18.0533 10.3397 18.093 10.306 18.1211L8.86952 19.2991L11.4061 17.8335C11.4451 17.8109 11.4913 17.8042 11.5352 17.8147C11.579 17.8252 11.6171 17.8522 11.6416 17.8901C11.6661 17.928 11.675 17.9739 11.6666 18.0182C11.6582 18.0625 11.633 18.1018 11.5964 18.1281L10.0967 19.2029L12.4707 17.8335C12.5101 17.8123 12.5561 17.8069 12.5993 17.8185C12.6426 17.8301 12.6797 17.8577 12.7033 17.8958C12.7268 17.9338 12.7349 17.9794 12.7259 18.0233C12.717 18.0671 12.6916 18.1059 12.655 18.1316L12.2972 18.3676L13.2232 17.8335C13.2621 17.8109 13.3082 17.8042 13.352 17.8146C13.3958 17.8251 13.4339 17.852 13.4584 17.8897C13.483 17.9275 13.4921 17.9733 13.4839 18.0176C13.4757 18.0619 13.4507 18.1013 13.4142 18.1278L11.3271 19.6401L14.4567 17.8335C14.496 17.8114 14.5423 17.8053 14.586 17.8164C14.6297 17.8275 14.6675 17.855 14.6914 17.8932C14.7154 17.9314 14.7238 17.9774 14.7148 18.0216C14.7058 18.0657 14.6801 18.1048 14.6431 18.1306L13.5876 18.8437L15.3387 17.8335C15.3777 17.8118 15.4236 17.8057 15.4669 17.8166C15.5102 17.8275 15.5478 17.8545 15.5719 17.8921C15.596 17.9297 15.6049 17.9751 15.5968 18.019C15.5886 18.0629 15.564 18.102 15.528 18.1285L13.6519 19.4603L16.384 17.8834C16.4234 17.8613 16.4698 17.8552 16.5136 17.8665C16.5573 17.8777 16.595 17.9054 16.6189 17.9437C16.6428 17.9821 16.651 18.0281 16.6417 18.0723C16.6325 18.1166 16.6066 18.1555 16.5694 18.1811L15.7443 18.7352L16.7222 18.1709C16.7614 18.1496 16.8073 18.1441 16.8504 18.1554C16.8936 18.1667 16.9309 18.194 16.9546 18.2318C16.9784 18.2696 16.9868 18.315 16.9783 18.3588C16.9697 18.4026 16.9448 18.4416 16.9086 18.4677L16.1583 18.9792L16.8219 18.5965C16.8609 18.5752 16.9065 18.5696 16.9495 18.5806C16.9926 18.5916 17.0298 18.6186 17.0538 18.656C17.0777 18.6934 17.0866 18.7385 17.0786 18.7822C17.0707 18.8259 17.0464 18.8649 17.0108 18.8915L16.2766 19.4104L16.824 19.0944C16.8621 19.0725 16.907 19.0657 16.9498 19.0753C16.9927 19.0849 17.0304 19.1101 17.0555 19.1462C17.0806 19.1822 17.0913 19.2263 17.0855 19.2698C17.0797 19.3133 17.0578 19.3531 17.0241 19.3813L15.9212 20.2995L16.8261 19.777C16.8622 19.7564 16.9045 19.7492 16.9455 19.7569C16.9864 19.7645 17.0232 19.7865 17.0495 19.8188C17.0757 19.8511 17.0896 19.8917 17.0887 19.9333C17.0878 19.9749 17.0721 20.0148 17.0445 20.046L16.3921 20.7711L16.8293 20.5189C16.8589 20.5017 16.8929 20.4936 16.9272 20.4955C16.9614 20.4974 16.9943 20.5092 17.0218 20.5296C17.0494 20.55 17.0704 20.578 17.0822 20.6102C17.094 20.6424 17.0962 20.6773 17.0884 20.7107L16.9746 21.1994C17.0068 21.21 17.0353 21.2297 17.0565 21.2561C17.0778 21.2825 17.091 21.3144 17.0945 21.3482C17.098 21.3819 17.0916 21.4159 17.0762 21.446C17.0608 21.4762 17.037 21.5013 17.0076 21.5183L16.8184 21.6271C16.7887 21.6443 16.7547 21.6523 16.7205 21.6504C16.6863 21.6484 16.6534 21.6365 16.6259 21.6161C16.5984 21.5957 16.5775 21.5676 16.5657 21.5355C16.5539 21.5033 16.5518 21.4684 16.5596 21.435L16.6548 21.0249L15.6098 21.6282C15.5736 21.6488 15.5313 21.6559 15.4904 21.6483C15.4495 21.6406 15.4127 21.6187 15.3864 21.5864C15.3602 21.5541 15.3463 21.5135 15.3472 21.4719C15.3481 21.4303 15.3638 21.3903 15.3914 21.3592L16.041 20.6334L14.3159 21.6296C14.2778 21.6515 14.2329 21.6583 14.1901 21.6487C14.1472 21.6391 14.1095 21.6138 14.0844 21.5778C14.0593 21.5418 14.0485 21.4977 14.0543 21.4542C14.0601 21.4106 14.0821 21.3709 14.1157 21.3427L15.2197 20.4238L13.1301 21.6306C13.091 21.6526 13.045 21.6588 13.0016 21.6479C12.9581 21.637 12.9204 21.6099 12.8962 21.5722C12.8721 21.5344 12.8633 21.4888 12.8716 21.4448C12.88 21.4008 12.9049 21.3616 12.9412 21.3353L13.6733 20.8181L12.2639 21.6317C12.2245 21.6545 12.1779 21.6612 12.1337 21.6503C12.0896 21.6394 12.0513 21.6118 12.0271 21.5733C12.0029 21.5348 11.9946 21.4884 12.0039 21.4439C12.0132 21.3993 12.0395 21.3602 12.0771 21.3346L12.826 20.8244L11.4254 21.632C11.386 21.6541 11.3396 21.6602 11.2959 21.6489C11.2521 21.6377 11.2144 21.61 11.1905 21.5717C11.1666 21.5333 11.1585 21.4873 11.1677 21.4431C11.1769 21.3988 11.2028 21.3599 11.24 21.3343L12.0676 20.7784L10.5879 21.6334C10.5489 21.6552 10.5031 21.6612 10.4598 21.6503C10.4164 21.6394 10.3789 21.6125 10.3548 21.5749C10.3306 21.5373 10.3217 21.4919 10.3299 21.448C10.3381 21.4041 10.3627 21.3649 10.3987 21.3385L12.2744 20.0067L9.4538 21.6348C9.41443 21.6573 9.36791 21.6636 9.32397 21.6525C9.28003 21.6415 9.24208 21.6138 9.21804 21.5754C9.194 21.537 9.18575 21.4908 9.19501 21.4464C9.20426 21.4021 9.23031 21.363 9.2677 21.3374L10.3211 20.6246L8.56966 21.6359C8.53067 21.6589 8.48431 21.666 8.44024 21.6556C8.39618 21.6452 8.35782 21.6182 8.33317 21.5803C8.30853 21.5423 8.2995 21.4963 8.30797 21.4518C8.31644 21.4074 8.34176 21.3679 8.37864 21.3416L10.4654 19.829L7.33333 21.6373C7.30732 21.6525 7.27778 21.6606 7.24765 21.6608Z" fill="#416572"/>
<path d="M15.7888 22.3525C15.7527 22.3526 15.7174 22.3414 15.6878 22.3206C15.6582 22.2998 15.6358 22.2703 15.6235 22.2363C15.6113 22.2022 15.6099 22.1652 15.6195 22.1304C15.6291 22.0955 15.6493 22.0644 15.6772 22.0414L15.7267 22.0007L15.1579 22.3287C15.1215 22.3495 15.079 22.3567 15.0378 22.3489C14.9967 22.3411 14.9596 22.3189 14.9334 22.2862C14.9072 22.2535 14.8936 22.2126 14.895 22.1707C14.8963 22.1288 14.9126 22.0889 14.9409 22.0579L15.436 21.5207L14.0357 22.3283C13.9992 22.3492 13.9565 22.3563 13.9152 22.3483C13.874 22.3404 13.8369 22.3179 13.8108 22.285C13.7847 22.252 13.7713 22.2108 13.773 22.1689C13.7747 22.1269 13.7914 22.0869 13.8201 22.0562L14.3043 21.5418L12.9412 22.328C12.9057 22.3484 12.8642 22.3558 12.8238 22.3489C12.7834 22.342 12.7467 22.3211 12.7201 22.29C12.6934 22.2589 12.6785 22.2194 12.6779 22.1784C12.6773 22.1375 12.6911 22.0976 12.7168 22.0657L13.2411 21.4168L11.661 22.328C11.6249 22.3486 11.5826 22.3558 11.5417 22.3482C11.5008 22.3406 11.4639 22.3187 11.4377 22.2864C11.4114 22.2542 11.3975 22.2136 11.3983 22.1721C11.3991 22.1305 11.4147 22.0905 11.4422 22.0593L11.9496 21.4905L10.4991 22.328C10.4639 22.3482 10.4228 22.3557 10.3827 22.349C10.3426 22.3424 10.3061 22.322 10.2793 22.2915C10.2526 22.2609 10.2373 22.222 10.236 22.1814C10.2347 22.1408 10.2475 22.101 10.2723 22.0688L10.7968 21.3904L9.17252 22.328C9.13515 22.3488 9.09145 22.3553 9.04965 22.3461C9.00785 22.337 8.97081 22.313 8.9455 22.2785C8.92019 22.244 8.90834 22.2014 8.9122 22.1588C8.91605 22.1162 8.93532 22.0765 8.96641 22.0471L9.29506 21.7451L8.28522 22.328C8.24942 22.3485 8.20754 22.3557 8.16692 22.3485C8.12631 22.3412 8.08955 22.3198 8.06311 22.2881C8.03667 22.2565 8.02224 22.2165 8.02233 22.1752C8.02243 22.134 8.03706 22.0941 8.06365 22.0625L8.58227 21.4529L7.0661 22.328C7.02926 22.3482 6.98639 22.3546 6.94527 22.3459C6.90414 22.3372 6.8675 22.314 6.842 22.2806C6.8165 22.2472 6.80383 22.2058 6.80629 22.1638C6.80875 22.1219 6.82619 22.0822 6.85542 22.052L7.29644 21.6106L6.23217 22.2247C6.19585 22.2456 6.15326 22.2528 6.11211 22.245C6.07095 22.2372 6.03393 22.215 6.00774 22.1823C5.98154 22.1496 5.96789 22.1086 5.96926 22.0668C5.97062 22.0249 5.9869 21.9849 6.01517 21.954L6.41546 21.5193L6.13455 21.6822C6.10108 21.7016 6.06217 21.7093 6.02386 21.7042C5.98554 21.6992 5.94996 21.6817 5.92264 21.6543C5.89531 21.627 5.87776 21.5914 5.87272 21.5531C5.86767 21.5148 5.87541 21.4759 5.89473 21.4424L6.03518 21.2008C5.99977 21.1945 5.96717 21.1774 5.94178 21.1519C5.91639 21.1264 5.89945 21.0938 5.89325 21.0583C5.88704 21.0229 5.89187 20.9864 5.90708 20.9538C5.92229 20.9212 5.94716 20.8941 5.9783 20.876L6.38491 20.6425C6.41837 20.6234 6.45722 20.6158 6.49544 20.6209C6.53366 20.626 6.56914 20.6436 6.59639 20.6708C6.62364 20.6981 6.64114 20.7336 6.6462 20.7719C6.65126 20.8101 6.64359 20.8489 6.62438 20.8824L6.52676 21.052L7.23359 20.6425C7.26991 20.6217 7.31249 20.6145 7.35364 20.6223C7.3948 20.6301 7.43182 20.6523 7.45801 20.685C7.48421 20.7177 7.49786 20.7586 7.4965 20.8005C7.49513 20.8424 7.47885 20.8824 7.45058 20.9133L7.05205 21.3473L8.27293 20.6425C8.30976 20.6223 8.35264 20.6159 8.39376 20.6246C8.43488 20.6333 8.47152 20.6565 8.49702 20.6899C8.52253 20.7233 8.5352 20.7647 8.53273 20.8067C8.53027 20.8487 8.51284 20.8883 8.4836 20.9185L8.04259 21.3603L9.28699 20.6425C9.32279 20.622 9.36467 20.6148 9.40528 20.622C9.4459 20.6293 9.48265 20.6507 9.50909 20.6824C9.53553 20.714 9.54997 20.754 9.54987 20.7953C9.54977 20.8365 9.53514 20.8764 9.50855 20.908L8.98993 21.5169L10.5061 20.6425C10.5435 20.6214 10.5873 20.6147 10.6293 20.6238C10.6713 20.6328 10.7085 20.6568 10.7339 20.6914C10.7593 20.726 10.7712 20.7687 10.7673 20.8115C10.7633 20.8542 10.7439 20.8941 10.7126 20.9234L10.3836 21.2254L11.3934 20.6425C11.4286 20.6223 11.4697 20.6148 11.5098 20.6215C11.5499 20.6281 11.5864 20.6485 11.6132 20.679C11.6399 20.7096 11.6552 20.7485 11.6565 20.7891C11.6578 20.8297 11.645 20.8695 11.6202 20.9017L11.0957 21.5801L12.72 20.6425C12.7561 20.6219 12.7983 20.6147 12.8392 20.6223C12.8801 20.63 12.917 20.6518 12.9433 20.6841C12.9695 20.7163 12.9835 20.7569 12.9827 20.7985C12.9818 20.84 12.9663 20.88 12.9387 20.9112L12.4317 21.48L13.8829 20.6425C13.9183 20.6221 13.9598 20.6147 14.0001 20.6215C14.0404 20.6284 14.0771 20.6491 14.1038 20.6801C14.1305 20.7113 14.1454 20.7508 14.146 20.7919C14.1466 20.833 14.1328 20.8729 14.1069 20.9048L13.5831 21.553L15.1631 20.6425C15.1996 20.6217 15.2423 20.6146 15.2836 20.6225C15.3248 20.6305 15.3619 20.653 15.388 20.6859C15.414 20.7188 15.4275 20.76 15.4258 20.802C15.4241 20.844 15.4074 20.8839 15.3787 20.9147L14.8945 21.4287L16.2562 20.6425C16.2925 20.6217 16.3351 20.6145 16.3763 20.6223C16.4174 20.6301 16.4544 20.6523 16.4806 20.685C16.5068 20.7177 16.5205 20.7586 16.5191 20.8005C16.5177 20.8424 16.5015 20.8824 16.4732 20.9133L15.9785 21.4501L17.3791 20.6425C17.4172 20.6209 17.462 20.6143 17.5047 20.6241C17.5474 20.6338 17.585 20.6591 17.6099 20.6951C17.6349 20.7311 17.6456 20.7751 17.6397 20.8185C17.6339 20.8619 17.6121 20.9016 17.5785 20.9298L17.5283 20.9708L17.8198 20.803C17.8562 20.7819 17.8989 20.7746 17.9403 20.7823C17.9816 20.7901 18.0188 20.8125 18.0451 20.8454C18.0713 20.8782 18.0849 20.9195 18.0833 20.9615C18.0817 21.0035 18.0651 21.0436 18.0364 21.0744L17.6951 21.441L17.8738 21.3381C17.9078 21.3181 17.9476 21.3102 17.9867 21.3155C18.0257 21.3208 18.0619 21.3392 18.0893 21.3676C18.1166 21.396 18.1337 21.4328 18.1376 21.472C18.1415 21.5113 18.1321 21.5507 18.1109 21.5839L17.9922 21.7753C18.0252 21.7849 18.0547 21.804 18.0769 21.8303C18.0992 21.8565 18.1132 21.8887 18.1173 21.9228C18.1214 21.957 18.1154 21.9916 18.1 22.0223C18.0847 22.0531 18.0606 22.0787 18.0308 22.0959L17.6235 22.3311C17.5895 22.3511 17.5498 22.3591 17.5107 22.3538C17.4716 22.3484 17.4355 22.3301 17.4081 22.3017C17.3807 22.2733 17.3637 22.2365 17.3598 22.1972C17.3558 22.158 17.3653 22.1186 17.3865 22.0853L17.4448 21.9912L16.858 22.3297C16.8216 22.3506 16.779 22.3577 16.7378 22.3499C16.6966 22.342 16.6596 22.3196 16.6334 22.2868C16.6073 22.254 16.5937 22.2129 16.5953 22.171C16.5968 22.1291 16.6133 22.0891 16.6417 22.0583L16.9834 21.6914L15.8766 22.328C15.8501 22.3439 15.8198 22.3523 15.7888 22.3525Z" fill="#324E56"/>
<path d="M9.10409 6.65743L9.92187 7.47556C9.92468 8.05176 9.25824 9.41414 9.96682 9.65677C10.6849 9.79722 11.3011 9.11358 11.937 8.86638C12.6196 9.1206 13.2639 9.90011 14.0325 9.59989C14.7425 9.23015 14.0901 8.02718 14.0856 7.38497C15.9508 5.61879 16.0133 5.43831 13.3798 5.15144C12.9806 4.63422 12.7934 3.43477 12.0381 3.43723C11.2049 3.55661 11.0999 4.58717 10.6687 5.1711C9.73929 5.29821 7.59634 5.36527 9.10409 6.65743ZM9.34251 5.63038C11.4352 5.40144 10.9247 5.54119 11.8945 3.78871C12.089 3.64474 12.4075 4.43022 12.4704 4.54679C12.7053 4.84244 12.7544 5.47658 13.2004 5.44814C13.9588 5.62019 15.7717 5.45516 14.4212 6.5549C13.969 7.02401 13.3447 7.29754 13.6709 8.05282C13.712 8.55388 14.265 9.87166 13.2846 9.12587C12.9458 8.94363 12.6105 8.7333 12.2597 8.5753C11.9826 8.45064 11.7158 8.66132 11.4742 8.79124C11.0904 8.9668 10.7168 9.25578 10.3352 9.40291C9.86674 9.21611 10.4493 7.82283 10.437 7.36882C10.358 7.02612 8.40394 5.77294 9.34251 5.63038Z" fill="#262626"/>
<path d="M2.73317 3.91687C2.45227 5.09034 2.67523 6.39794 2.62186 7.6118C2.79216 10.6912 5.70934 11.4163 8.30559 11.1034C8.96863 12.044 9.91934 12.7437 11.0145 13.0971C10.9127 14.2257 10.8039 15.555 9.95133 16.3855C8.94359 16.2773 8.05523 16.5944 8.2308 17.7826C6.4604 17.5786 6.86771 19.4178 6.83155 20.5699C6.16124 20.5067 5.7118 20.7946 5.77816 21.5018C5.77816 21.9656 5.82767 22.3561 6.39053 22.3845C8.15811 22.474 9.95343 22.3845 11.7228 22.3845C13.6835 22.3845 15.6439 22.3845 17.6042 22.3845C18.2243 22.2918 18.2931 21.7082 18.2334 21.1317C18.2025 20.5505 17.6158 20.5755 17.18 20.5832C17.1031 19.4087 17.6467 17.4996 15.7804 17.7942C15.9627 16.5979 15.2414 16.2843 14.1835 16.3855C13.2217 15.613 13.1273 14.2134 13.0044 13.0708C14.0838 12.7208 15.0211 12.031 15.6761 11.1045C19.8152 11.5258 21.8767 9.61815 21.3911 5.43339C21.3869 4.66337 21.6081 3.43371 20.494 3.43196C19.6253 3.40211 18.7517 3.42774 17.8819 3.43196C17.8886 2.72022 17.9493 1.74935 17.035 1.66473C15.9742 1.64647 14.9149 1.66297 13.8573 1.65735C11.5862 1.66753 9.31157 1.63804 7.04257 1.66683C6.11173 1.79183 6.13596 2.68756 6.12964 3.42634C5.10856 3.57346 3.42244 3.01587 2.73317 3.91687ZM6.43161 10.799C5.68267 10.7758 4.96225 10.5064 4.38184 10.0325C3.80143 9.55863 3.3934 8.90664 3.22089 8.17747C3.04928 6.76894 3.0448 5.34506 3.20754 3.93548C3.33009 3.73112 3.46387 3.72901 3.66085 3.72901H6.1328C6.13561 4.09524 6.14755 4.46217 6.17423 4.8291C5.35048 4.89933 3.76408 4.45831 4.02322 5.81753C3.7834 8.45451 4.51129 10.0139 7.42917 9.70137C7.62095 10.0835 7.83967 10.4514 8.08367 10.8025C7.5331 10.8053 6.98183 10.8109 6.43021 10.7993L6.43161 10.799ZM7.16898 9.13148C7.20655 9.22067 7.24658 9.30986 7.28731 9.39869C4.34836 9.67959 4.43018 7.45133 4.54219 5.24097C4.54605 5.10333 4.55202 5.13564 4.69668 5.13564H6.20654C6.31982 6.50896 6.64336 7.85673 7.16582 9.13183L7.16898 9.13148ZM17.5132 20.98C17.6333 21.0025 17.6698 21.0007 17.7137 21.1643C17.7373 21.2525 17.7685 21.9698 17.6407 21.9905C13.9384 21.9874 10.2319 21.9951 6.53063 21.9905C6.20232 21.9505 6.29221 21.5797 6.29221 21.2999C6.29221 21.0274 6.32416 20.98 6.56012 20.98C10.2091 20.9856 13.871 20.9723 17.5132 20.98ZM16.6618 19.1678V20.58C13.555 20.5839 10.451 20.6057 7.34419 20.5709C7.45515 19.974 7.00325 18.2345 7.78416 18.1537C7.95446 18.1337 8.12862 18.1242 8.30453 18.1186C8.35148 18.1419 8.40311 18.1541 8.45549 18.1544C8.50787 18.1547 8.55964 18.1431 8.60685 18.1204C10.8622 18.1818 13.0967 18.1509 15.351 18.132C15.428 18.1609 15.5127 18.162 15.5905 18.1351C16.4339 18.0793 16.7193 18.3205 16.6618 19.1678ZM15.1347 16.9536C15.2713 17.212 15.3169 17.5089 15.2639 17.7963C13.0897 17.7914 10.9194 17.811 8.7445 17.7794C8.4815 16.3068 9.833 16.8419 10.753 16.7524H14.5451C14.6524 16.7321 14.7631 16.74 14.8664 16.7751C14.9697 16.8103 15.0621 16.8717 15.1347 16.9532V16.9536ZM13.0444 15.7246C13.1549 15.967 13.3029 16.1903 13.483 16.3865C12.4647 16.3865 11.4485 16.3791 10.4313 16.3816C11.2544 15.5578 11.3948 14.2998 11.5068 13.194C11.8335 13.2354 12.1644 13.2313 12.49 13.1821C12.5148 14.0574 12.7028 14.9204 13.0444 15.7267V15.7246ZM19.8928 3.72585C20.31 3.72585 20.7914 3.70759 20.8714 4.25255C20.9048 5.31963 20.8714 6.39865 20.8778 7.47029C20.7127 10.4359 18.4437 11.0304 15.8917 10.8025C16.1245 10.4641 16.3342 10.1104 16.5195 9.74385C19.1832 10.0248 20.2584 8.60619 19.9862 6.057C20.2503 4.31224 18.9922 4.86983 17.8233 4.78696C17.8503 4.43267 17.8675 4.07874 17.8728 3.72515L19.8928 3.72585ZM17.7924 5.17672H19.0378C19.2271 5.17672 19.4311 5.11703 19.4694 5.36176C19.5529 7.62654 19.6688 9.67643 16.7 9.35234C17.2904 8.02971 17.6595 6.61904 17.7924 5.17672ZM6.88527 2.0443C10.1255 1.88032 13.4352 2.04043 16.6976 1.98671C17.5118 2.0155 17.3623 3.01938 17.3647 3.6019C17.6941 8.35303 13.6217 16.8504 8.7136 10.8552C7.20374 8.75507 6.65914 6.10054 6.64194 3.55169C6.64088 3.17458 6.51307 2.28693 6.88527 2.0443Z" fill="#262626"/>
</svg>
