<svg width="46" height="42" viewBox="0 0 46 42" fill="none" xmlns="http://www.w3.org/2000/svg">
<g clip-path="url(#clip0_266_10874)">
<path d="M23.7952 38.0836L31.0231 37.6883L30.7283 37.0356C30.7283 37.0356 27.3939 36.4588 26.3204 33.4939C25.2469 30.5289 26.3204 28.5014 26.3204 28.5014H19.8505C19.8505 28.5014 20.924 30.5289 19.8505 33.4939C18.777 36.4588 15.4426 37.0356 15.4426 37.0356L15.1478 37.6883L22.3757 38.0836V38.1612L23.0859 38.1224L23.796 38.1612V38.0836H23.7952Z" fill="url(#paint0_radial_266_10874)"/>
<path d="M30.73 37.0348C30.73 37.0348 27.3955 36.458 26.322 33.493C25.2486 30.5281 26.322 28.5006 26.322 28.5006H19.8522C19.8522 28.5006 20.1916 29.1418 20.2981 30.231C20.8431 30.3292 21.4707 30.5752 22.4988 30.7922C24.2874 31.1709 24.5524 33.7043 26.1618 35.2499C27.1437 36.1931 29.2535 36.7707 30.7506 37.0793L30.7308 37.0348H30.73Z" fill="url(#paint1_radial_266_10874)" style="mix-blend-mode:multiply"/>
<mask id="mask0_266_10874" style="mask-type:luminance" maskUnits="userSpaceOnUse" x="19" y="30" width="5" height="7">
<g clip-path="url(#clip1_266_10874)">
<rect width="4.59868" height="5.50653" transform="translate(19.2164 30.8161)" fill="white"/>
<path d="M20.7721 30.8763C20.7721 30.8763 20.4145 33.5681 19.5516 34.598C18.6887 35.6286 19.4253 36.2591 22.4971 36.3218C25.569 36.3845 22.5392 30.1403 20.7721 30.8755V30.8763Z" fill="url(#paint2_linear_266_10874)" style="mix-blend-mode:multiply"/>
</g>
</mask>
<g mask="url(#mask0_266_10874)">
<path d="M20.7721 30.8763C20.7721 30.8763 20.4145 33.5681 19.5516 34.598C18.6887 35.6286 19.4253 36.2591 22.4971 36.3218C25.569 36.3845 22.5392 30.1403 20.7721 30.8755V30.8763Z" fill="url(#paint3_linear_266_10874)" style="mix-blend-mode:overlay"/>
</g>
<path d="M21.5822 31.3286C21.0124 31.0439 21.0454 33.3363 20.4459 34.4197C19.8464 35.5032 19.8671 35.8919 20.9298 35.4504C21.9926 35.0089 21.7506 31.4136 21.5822 31.3294V31.3286Z" fill="white"/>
<path d="M14.725 40.1417H31.4443C32.2775 40.1417 32.1263 39.4601 32.1263 38.6274V38.4971C32.1263 37.6644 31.4443 36.9828 30.6111 36.9828H15.5582C14.725 36.9828 14.0429 37.6644 14.0429 38.4971V38.6274C14.0429 39.4601 13.8918 40.1417 14.725 40.1417Z" fill="url(#paint4_linear_266_10874)"/>
<mask id="mask1_266_10874" style="mask-type:luminance" maskUnits="userSpaceOnUse" x="15" y="37" width="8" height="2">
<g clip-path="url(#clip2_266_10874)">
<rect width="7.70107" height="1.38385" transform="translate(15.1016 37.0414)" fill="white"/>
<path d="M22.6383 37.1842C22.8142 37.5085 23.076 38.2536 22.0454 38.351C21.7176 38.3815 15.8291 38.5631 15.3675 38.214C14.9059 37.8649 15.0157 37.0711 15.9389 37.0711C16.8621 37.0711 22.5144 36.9547 22.6391 37.1842H22.6383Z" fill="url(#paint5_linear_266_10874)" style="mix-blend-mode:multiply"/>
</g>
</mask>
<g mask="url(#mask1_266_10874)">
<path d="M22.6383 37.1842C22.8142 37.5085 23.076 38.2536 22.0454 38.351C21.7176 38.3815 15.8291 38.5631 15.3675 38.214C14.9059 37.8649 15.0157 37.0711 15.9389 37.0711C16.8621 37.0711 22.5145 36.9547 22.6391 37.1842H22.6383Z" fill="url(#paint6_linear_266_10874)" style="mix-blend-mode:overlay"/>
</g>
<path d="M27.0991 40.1417H31.4443C32.2775 40.1417 32.1263 39.4601 32.1263 38.6274V38.4971C32.1263 37.6644 31.4443 36.9828 30.6111 36.9828H30.493C30.6433 37.4103 30.6474 37.9235 29.9455 38.1257C28.6515 38.4979 25.6532 38.5622 25.6532 38.5622H14.0429V38.6274C14.0429 39.4601 13.8918 40.1417 14.725 40.1417H27.0991Z" fill="url(#paint7_radial_266_10874)" style="mix-blend-mode:multiply"/>
<path d="M12.8315 42H33.3386C34.1718 42 34.0206 41.3184 34.0206 40.4858V40.3554C34.0206 39.5228 33.3386 38.8412 32.5054 38.8412H13.6647C12.8315 38.8412 12.1495 39.5228 12.1495 40.3554V40.4858C12.1495 41.3184 11.9983 42 12.8315 42Z" fill="url(#paint8_linear_266_10874)"/>
<mask id="mask2_266_10874" style="mask-type:luminance" maskUnits="userSpaceOnUse" x="12" y="39" width="11" height="3">
<g clip-path="url(#clip3_266_10874)">
<rect width="9.75062" height="2.04071" transform="translate(12.9042 39.1217)" fill="white"/>
<path d="M22.3609 39.4048C22.7415 39.8413 22.9695 41.1228 21.635 41.1608C21.223 41.1723 13.8076 41.1137 13.3452 40.9504C12.5673 40.6764 12.8431 39.2125 13.995 39.2125C15.147 39.2125 21.9298 38.9105 22.3609 39.4039V39.4048Z" fill="url(#paint9_linear_266_10874)" style="mix-blend-mode:multiply"/>
</g>
</mask>
<g mask="url(#mask2_266_10874)">
<path d="M22.3609 39.4048C22.7415 39.8413 22.9694 41.1228 21.635 41.1608C21.223 41.1723 13.8076 41.1137 13.3452 40.9504C12.5673 40.6764 12.8431 39.2125 13.995 39.2125C15.147 39.2125 21.9298 38.9105 22.3609 39.4039V39.4048Z" fill="url(#paint10_linear_266_10874)" style="mix-blend-mode:overlay"/>
</g>
<path d="M34.0182 40.3562C34.0182 39.5236 33.3361 38.842 32.5029 38.842H31.9133C32.2031 39.2117 32.1371 40.1417 31.5739 40.7399C30.3617 42.0289 12.5656 41.7681 12.1404 41.273C12.161 41.7071 12.2841 42 12.8291 42H33.3361C34.1693 42 34.0182 41.3184 34.0182 40.4858V40.3554V40.3562Z" fill="url(#paint11_radial_266_10874)" style="mix-blend-mode:multiply"/>
<path d="M17.1528 37.1842C16.6697 37.2081 16.384 37.9367 16.4583 38.1604C16.5326 38.3848 18.0999 38.3617 18.384 37.8146C18.668 37.2683 18.005 37.1421 17.1528 37.1842Z" fill="white"/>
<path d="M15.8662 39.2133C15.0966 39.2513 14.6433 40.4107 14.7614 40.7672C14.8794 41.1236 17.3732 41.0873 17.8258 40.2168C18.2775 39.347 17.223 39.1457 15.8671 39.2125L15.8662 39.2133Z" fill="white"/>
<path d="M15.4055 28.3108C15.0545 28.3067 6.87283 28.1524 2.86623 22.6054C-0.0800989 18.5265 -0.273327 14.502 0.841454 12.3243C1.38646 11.2598 2.27003 10.6491 3.2659 10.6491H6.99009V14.4343H4.07762C3.8621 15.413 3.99092 17.6963 5.93807 20.3922C7.91412 23.1278 11.7316 24.0577 13.9158 24.3705C14.886 24.51 15.4063 28.3116 15.4063 28.3116L15.4055 28.3108Z" fill="url(#paint12_linear_266_10874)"/>
<path d="M6.96945 14.4335C6.10157 14.4335 5.39141 13.7238 5.39141 12.8565V9.8289C5.39141 8.96162 6.10157 8.25195 6.96945 8.25195C7.83732 8.25195 8.54748 8.96162 8.54748 9.8289V12.8565C8.54748 13.7238 7.83732 14.4335 6.96945 14.4335Z" fill="url(#paint13_linear_266_10874)"/>
<path d="M14.9736 24.3977H12.8563C12.5695 24.3977 12.3369 24.6301 12.3369 24.9168V30.0602C12.3369 30.3469 12.5695 30.5793 12.8563 30.5793H14.9736C15.2604 30.5793 15.493 30.3469 15.493 30.0602V24.9168C15.493 24.6301 15.2604 24.3977 14.9736 24.3977Z" fill="url(#paint14_linear_266_10874)"/>
<path d="M14.1197 24.4052C14.4905 24.6816 14.7333 25.1222 14.7333 25.6174V28.7713C14.7333 29.6039 14.0512 30.2855 13.218 30.2855H13.0917C13.0438 30.2855 12.9967 30.283 12.9505 30.2781C13.2031 30.4662 13.5145 30.5793 13.8522 30.5793H13.9785C14.8117 30.5793 15.4938 29.8977 15.4938 29.065V25.9111C15.4938 25.1264 14.8877 24.4761 14.1206 24.4043L14.1197 24.4052Z" fill="url(#paint15_radial_266_10874)" style="mix-blend-mode:multiply"/>
<g style="mix-blend-mode:multiply">
<path d="M4.01239 14.8973C4.0256 14.7207 4.04789 14.5655 4.0768 14.4335H6.98926C7.84723 14.4211 8.54666 13.7164 8.54666 12.8566V12.1626C8.54666 13.0232 7.84806 13.7271 6.98926 13.7387L6.96862 13.7395H4.0768C4.01486 14.0226 3.98183 14.4162 4.01239 14.8964V14.8973Z" fill="url(#paint16_radial_266_10874)"/>
<path d="M12.3361 27.2727C9.50124 26.7388 5.36829 25.3781 2.8654 21.9123C1.07019 19.4268 0.298927 16.9627 0.220479 14.9237C0.132122 17.084 0.862098 19.8319 2.8654 22.6063C5.36829 26.0721 9.50124 27.432 12.3361 27.9667V27.2727Z" fill="url(#paint17_radial_266_10874)"/>
</g>
<g style="mix-blend-mode:overlay">
<mask id="mask3_266_10874" style="mask-type:luminance" maskUnits="userSpaceOnUse" x="0" y="8" width="9" height="14">
<g clip-path="url(#clip4_266_10874)">
<rect width="8.33361" height="12.8227" transform="translate(0.169281 8.25195)" fill="white"/>
<path d="M1.49133 13.7238C2.03633 12.6593 2.9199 12.0487 3.91577 12.0487H6.04129V11.2284C6.04129 10.3612 6.75144 9.65149 7.61932 9.65149C7.94633 9.65149 8.25103 9.75216 8.50372 9.92463V9.8289C8.50372 8.96162 7.79356 8.25195 6.92568 8.25195C6.0578 8.25195 5.34765 8.96162 5.34765 9.8289V10.6491H3.22213C2.22626 10.6491 1.34269 11.2598 0.797687 12.3243C-0.17754 14.2288 -0.151115 17.5445 1.8398 21.0747C0.554913 18.0842 0.646573 15.3742 1.49133 13.7238Z" fill="url(#paint18_linear_266_10874)" style="mix-blend-mode:multiply"/>
</g>
</mask>
<g mask="url(#mask3_266_10874)">
<path d="M1.49133 13.7238C2.03633 12.6593 2.9199 12.0487 3.91577 12.0487H6.04129V11.2284C6.04129 10.3612 6.75144 9.65149 7.61932 9.65149C7.94632 9.65149 8.25103 9.75216 8.50372 9.92463V9.8289C8.50372 8.96162 7.79356 8.25195 6.92568 8.25195C6.0578 8.25195 5.34765 8.96162 5.34765 9.8289V10.6491H3.22213C2.22626 10.6491 1.34269 11.2598 0.797687 12.3243C-0.17754 14.2288 -0.151115 17.5445 1.8398 21.0747C0.554913 18.0842 0.646573 15.3742 1.49133 13.7238Z" fill="url(#paint19_linear_266_10874)"/>
</g>
<mask id="mask4_266_10874" style="mask-type:luminance" maskUnits="userSpaceOnUse" x="5" y="19" width="11" height="8">
<g clip-path="url(#clip5_266_10874)">
<rect width="10.204" height="6.64283" transform="translate(5.24608 19.4012)" fill="white"/>
<path d="M5.89348 20.3914C5.64988 20.0547 5.43518 19.7238 5.24525 19.4012C5.54336 20.1389 5.97523 20.9443 6.58712 21.791C8.56317 24.5265 12.3807 25.4565 14.5648 25.7692C14.5995 25.7742 14.6334 25.7849 14.6672 25.7989C14.9546 25.8064 15.2221 25.8963 15.4492 26.0432V25.9112C15.4492 25.0917 14.7886 24.4209 13.9736 24.3994C13.9397 24.3854 13.9059 24.3746 13.8712 24.3697C11.687 24.0561 7.86953 23.1269 5.89348 20.3914Z" fill="url(#paint20_linear_266_10874)" style="mix-blend-mode:multiply"/>
</g>
</mask>
<g mask="url(#mask4_266_10874)">
<path d="M5.89348 20.3914C5.64988 20.0547 5.43518 19.7238 5.24525 19.4012C5.54336 20.1389 5.97523 20.9443 6.58712 21.791C8.56317 24.5265 12.3807 25.4565 14.5648 25.7692C14.5995 25.7742 14.6334 25.7849 14.6672 25.7989C14.9546 25.8064 15.2221 25.8963 15.4492 26.0432V25.9112C15.4492 25.0917 14.7886 24.4209 13.9736 24.3994C13.9397 24.3854 13.9059 24.3746 13.8712 24.3697C11.687 24.0561 7.86953 23.1269 5.89348 20.3914Z" fill="url(#paint21_linear_266_10874)"/>
</g>
</g>
<path d="M5.48555 10.9008C5.48555 10.9008 3.52849 10.7275 2.53427 11.1533C1.54005 11.5791 1.0033 12.4307 0.703551 13.8187C0.403799 15.2067 1.49381 12.2112 2.58134 11.8003C4 11.2639 5.59125 11.7689 5.71759 11.4224C5.84393 11.0758 5.48472 10.9017 5.48472 10.9017L5.48555 10.9008Z" fill="white"/>
<path d="M6.73245 8.59853C5.55821 8.71901 5.86457 9.43445 6.16432 9.68696C6.46408 9.93947 7.80594 8.48878 6.73245 8.59853Z" fill="white"/>
<path d="M30.7638 28.3108C31.1148 28.3067 39.2965 28.1524 43.3031 22.6054C46.2494 18.5256 46.4434 14.502 45.3278 12.3235C44.7828 11.259 43.8993 10.6483 42.9034 10.6483H39.1792V14.4335H42.0917C42.3072 15.4122 42.1775 17.6955 40.2312 20.3914C38.2552 23.1269 34.4377 24.0569 32.2535 24.3697C31.2832 24.5091 30.763 28.3108 30.763 28.3108H30.7638Z" fill="url(#paint22_linear_266_10874)"/>
<path d="M38.1412 14.4335H40.2585C40.5453 14.4335 40.7779 14.2011 40.7779 13.9145V8.77101C40.7779 8.48435 40.5453 8.25196 40.2585 8.25196H38.1412C37.8543 8.25196 37.6218 8.48435 37.6218 8.77101V13.9145C37.6218 14.2011 37.8543 14.4335 38.1412 14.4335Z" fill="url(#paint23_linear_266_10874)"/>
<path d="M31.1949 30.5793H33.3121C33.599 30.5793 33.8315 30.3469 33.8315 30.0602V24.9168C33.8315 24.6301 33.599 24.3977 33.3121 24.3977H31.1949C30.908 24.3977 30.6755 24.6301 30.6755 24.9168V30.0602C30.6755 30.3469 30.908 30.5793 31.1949 30.5793Z" fill="url(#paint24_linear_266_10874)"/>
<path d="M32.0487 24.4052C31.678 24.6816 31.4352 25.1222 31.4352 25.6174V28.7713C31.4352 29.6039 32.1173 30.2855 32.9505 30.2855H33.0768C33.1247 30.2855 33.1718 30.283 33.218 30.2781C32.9653 30.4662 32.654 30.5793 32.3163 30.5793H32.1899C31.3567 30.5793 30.6747 29.8977 30.6747 29.065V25.9111C30.6747 25.1264 31.2808 24.4761 32.0479 24.4043L32.0487 24.4052Z" fill="url(#paint25_radial_266_10874)" style="mix-blend-mode:multiply"/>
<g style="mix-blend-mode:multiply">
<path d="M42.1569 14.8973C42.1437 14.7207 42.1214 14.5655 42.0925 14.4335H39.18C38.3221 14.4211 37.6226 13.7164 37.6226 12.8566V12.1626C37.6226 13.0232 38.3212 13.7271 39.18 13.7387L39.2007 13.7395H42.0925C42.1544 14.0226 42.1875 14.4162 42.1569 14.8964V14.8973Z" fill="url(#paint26_radial_266_10874)"/>
<path d="M33.8324 27.2727C36.6672 26.7388 40.8002 25.3781 43.3031 21.9123C45.0983 19.4268 45.8704 16.9627 45.948 14.9237C46.0363 17.084 45.3064 19.8319 43.3031 22.6063C40.8002 26.0721 36.6672 27.432 33.8324 27.9667V27.2727Z" fill="url(#paint27_radial_266_10874)"/>
</g>
<g style="mix-blend-mode:overlay">
<mask id="mask5_266_10874" style="mask-type:luminance" maskUnits="userSpaceOnUse" x="37" y="8" width="9" height="14">
<g clip-path="url(#clip6_266_10874)">
<rect width="8.33361" height="12.8227" transform="translate(37.6656 8.25195)" fill="white"/>
<path d="M44.678 13.7238C44.133 12.6593 43.2494 12.0487 42.2535 12.0487H40.128V11.2284C40.128 10.3612 39.4178 9.65149 38.55 9.65149C38.223 9.65149 37.9183 9.75216 37.6656 9.92463V9.8289C37.6656 8.96162 38.3757 8.25195 39.2436 8.25195C40.1115 8.25195 40.8216 8.96162 40.8216 9.8289V10.6491H42.9472C43.943 10.6491 44.8266 11.2598 45.3716 12.3243C46.3468 14.2288 46.3204 17.5445 44.3295 21.0747C45.6144 18.0842 45.5227 15.3742 44.678 13.7238Z" fill="url(#paint28_linear_266_10874)" style="mix-blend-mode:multiply"/>
</g>
</mask>
<g mask="url(#mask5_266_10874)">
<path d="M44.678 13.7238C44.133 12.6593 43.2494 12.0487 42.2535 12.0487H40.128V11.2284C40.128 10.3612 39.4178 9.65149 38.55 9.65149C38.223 9.65149 37.9183 9.75216 37.6656 9.92463V9.8289C37.6656 8.96162 38.3757 8.25195 39.2436 8.25195C40.1115 8.25195 40.8216 8.96162 40.8216 9.8289V10.6491H42.9472C43.943 10.6491 44.8266 11.2598 45.3716 12.3243C46.3468 14.2288 46.3204 17.5445 44.3295 21.0747C45.6144 18.0842 45.5227 15.3742 44.678 13.7238Z" fill="url(#paint29_linear_266_10874)"/>
</g>
<mask id="mask6_266_10874" style="mask-type:luminance" maskUnits="userSpaceOnUse" x="30" y="19" width="11" height="8">
<g clip-path="url(#clip7_266_10874)">
<rect width="10.204" height="6.64283" transform="translate(30.7192 19.4012)" fill="white"/>
<path d="M40.2758 20.3914C40.5194 20.0547 40.7341 19.7238 40.924 19.4012C40.6259 20.1389 40.1941 20.9443 39.5822 21.791C37.6061 24.5265 33.7886 25.4565 31.6045 25.7692C31.5698 25.7742 31.5359 25.7849 31.5021 25.7989C31.2147 25.8064 30.9472 25.8963 30.7201 26.0432V25.9112C30.7201 25.0917 31.3807 24.4209 32.1957 24.3994C32.2296 24.3854 32.2634 24.3746 32.2981 24.3697C34.4823 24.0561 38.2998 23.1269 40.2758 20.3914Z" fill="url(#paint30_linear_266_10874)" style="mix-blend-mode:multiply"/>
</g>
</mask>
<g mask="url(#mask6_266_10874)">
<path d="M40.2758 20.3914C40.5194 20.0547 40.7341 19.7238 40.924 19.4012C40.6259 20.1389 40.1941 20.9443 39.5822 21.791C37.6061 24.5265 33.7886 25.4565 31.6045 25.7692C31.5698 25.7742 31.5359 25.7849 31.5021 25.7989C31.2147 25.8064 30.9472 25.8963 30.7201 26.0432V25.9112C30.7201 25.0917 31.3807 24.4209 32.1957 24.3994C32.2296 24.3854 32.2634 24.3746 32.2981 24.3697C34.4823 24.0561 38.2998 23.1269 40.2758 20.3914Z" fill="url(#paint31_linear_266_10874)"/>
</g>
</g>
<path d="M40.6829 10.9008C40.6829 10.9008 42.64 10.7275 43.6342 11.1533C44.6284 11.5791 45.1652 12.4307 45.4649 13.8187C45.7647 15.2067 44.6747 12.2112 43.5871 11.8003C42.1685 11.2639 40.5772 11.7689 40.4509 11.4224C40.3245 11.0758 40.6837 10.9017 40.6837 10.9017L40.6829 10.9008Z" fill="white"/>
<path d="M39.4368 8.59853C40.6111 8.71901 40.3047 9.43445 40.005 9.68696C39.7052 9.93947 38.3642 8.48878 39.4368 8.59853Z" fill="white"/>
<path d="M23.0851 29.7442C31.1263 29.7442 37.6449 21.8017 37.6449 12.005V7.978H8.52518V12.005C8.52518 21.8025 15.0438 29.7442 23.0851 29.7442Z" fill="url(#paint32_radial_266_10874)"/>
<path d="M8.52518 7.978V9.09614C12.6565 9.08128 26.9348 9.03755 32.2188 9.10026C36.7325 9.1539 36.5062 11.0906 36.5062 11.0906C36.5062 20.8882 29.9901 28.5146 21.9488 28.5146C18.5128 28.5146 15.3559 27.064 12.8654 24.6387C15.4938 27.7951 19.1024 29.7442 23.0851 29.7442C31.1263 29.7442 37.6449 21.8017 37.6449 12.005V7.978H8.52518Z" fill="url(#paint33_radial_266_10874)" style="mix-blend-mode:multiply"/>
<path d="M38.3881 3.30655H7.78117C6.94798 3.30655 7.09909 3.98816 7.09909 4.82078V4.95116C7.09909 5.78379 7.78117 8.25195 8.61437 8.25195H37.5549C38.3881 8.25195 39.0702 5.78379 39.0702 4.95116V4.82078C39.0702 3.98816 39.2221 3.30655 38.3881 3.30655Z" fill="url(#paint34_radial_266_10874)"/>
<path d="M38.3881 3.30655H38.2312C38.2279 3.4328 38.2238 3.56484 38.2238 3.70099V3.83137C38.2238 4.664 37.5417 7.13216 36.7085 7.13216H7.76879C7.71924 7.13216 7.67052 7.12308 7.62263 7.10658C7.88935 7.74115 8.23617 8.25195 8.6152 8.25195H37.5557C38.3889 8.25195 39.071 5.78379 39.071 4.95116V4.82078C39.071 3.98816 39.223 3.30655 38.3889 3.30655H38.3881Z" fill="url(#paint35_radial_266_10874)" style="mix-blend-mode:multiply"/>
<mask id="mask7_266_10874" style="mask-type:luminance" maskUnits="userSpaceOnUse" x="9" y="9" width="18" height="18">
<g clip-path="url(#clip8_266_10874)">
<rect width="17.365" height="17.4422" transform="translate(9.2915 9.36185)" fill="white"/>
<path d="M9.78282 9.71586C8.61684 10.0567 9.70685 17.3134 11.1618 20.1736C13.1189 24.0215 17.1371 28.2968 21.5161 26.2924C28.2073 23.2293 26.8538 14.1826 25.7176 11.3423C24.6573 8.69262 11.0768 9.33709 9.78282 9.71586Z" fill="url(#paint36_linear_266_10874)" style="mix-blend-mode:multiply"/>
</g>
</mask>
<g mask="url(#mask7_266_10874)">
<path d="M9.78282 9.71586C8.61684 10.0567 9.70685 17.3134 11.1618 20.1736C13.1189 24.0215 17.1371 28.2968 21.5161 26.2924C28.2073 23.2293 26.8538 14.1826 25.7176 11.3423C24.6573 8.69262 11.0768 9.33709 9.78282 9.71586Z" fill="url(#paint37_linear_266_10874)" style="mix-blend-mode:overlay"/>
</g>
<mask id="mask8_266_10874" style="mask-type:luminance" maskUnits="userSpaceOnUse" x="10" y="9" width="14" height="14">
<g clip-path="url(#clip9_266_10874)">
<rect width="13.1874" height="12.8062" transform="translate(10.5483 9.84955)" fill="white"/>
<path d="M23.3517 10.8663C25.5945 11.4258 17.4533 26.9032 13.388 21.5204C11.0371 18.4069 5.04532 6.30132 23.3517 10.8663Z" fill="url(#paint38_linear_266_10874)" style="mix-blend-mode:multiply"/>
</g>
</mask>
<g mask="url(#mask8_266_10874)">
<path d="M23.3517 10.8663C25.5945 11.4258 17.4533 26.9032 13.388 21.5204C11.0371 18.4069 5.04532 6.30132 23.3517 10.8663Z" fill="url(#paint39_linear_266_10874)"/>
</g>
<mask id="mask9_266_10874" style="mask-type:luminance" maskUnits="userSpaceOnUse" x="7" y="3" width="32" height="5">
<g clip-path="url(#clip10_266_10874)">
<rect width="30.5789" height="3.42786" transform="translate(7.51611 3.6911)" fill="white"/>
<path d="M9.13151 7.02159C9.13151 7.02159 7.94819 7.52001 7.63192 6.26159C7.31565 5.00316 7.63192 3.6911 8.76817 3.6911H37.0473C37.0473 3.6911 41.7186 4.29019 31.3346 4.19612C20.9507 4.10122 11.8607 4.47999 11.1034 5.23669C10.3462 5.9934 9.79129 6.66428 9.13068 7.02159H9.13151Z" fill="url(#paint40_linear_266_10874)" style="mix-blend-mode:multiply"/>
</g>
</mask>
<g mask="url(#mask9_266_10874)">
<path d="M9.13151 7.02159C9.13151 7.02159 7.94819 7.52001 7.63192 6.26159C7.31565 5.00316 7.63192 3.6911 8.76817 3.6911H37.0473C37.0473 3.6911 41.7186 4.29019 31.3346 4.19612C20.9507 4.10122 11.8607 4.47999 11.1034 5.23669C10.3462 5.9934 9.79129 6.66428 9.13068 7.02159H9.13151Z" fill="url(#paint41_linear_266_10874)" style="mix-blend-mode:overlay"/>
</g>
<path d="M9.53179 3.97498C8.58959 3.44603 7.42527 5.11127 8.16845 6.21703C8.87613 7.27163 10.3749 4.44781 9.53179 3.97498Z" fill="white"/>
<path d="M13.1239 4.07068C11.6375 4.07068 10.4938 4.47998 11.6086 4.63759C12.7242 4.7952 17.5904 4.07068 13.1239 4.07068Z" fill="white"/>
<mask id="mask10_266_10874" style="mask-type:luminance" maskUnits="userSpaceOnUse" x="23" y="28" width="12" height="15">
<g clip-path="url(#clip11_266_10874)">
<rect width="10.9463" height="13.5002" transform="translate(23.0851 28.5006)" fill="white"/>
<path d="M34.0198 40.4866V40.3562C34.0198 39.5236 33.3377 38.842 32.5045 38.842H32.1288C32.1272 38.7718 32.1263 38.7009 32.1263 38.6274V38.497C32.1263 37.6644 31.4443 36.9828 30.6111 36.9828H30.4971C29.7234 36.7897 27.2238 35.9843 26.3212 33.4922C25.2477 30.5273 26.3212 28.4998 26.3212 28.4998H23.0842C23.0842 28.4998 24.1693 30.9886 24.1693 33.073C24.1693 36.2583 23.0842 36.9845 23.0842 36.9845C23.0941 36.9845 23.1032 36.9828 23.1131 36.9828H26.7878C27.2221 36.9828 27.578 37.3385 27.578 37.7725C27.578 38.2066 27.2221 38.5622 26.7878 38.5622H23.1131C23.1032 38.5622 23.0933 38.5614 23.0842 38.5606V38.842H27.768C28.6012 38.842 29.2832 39.5236 29.2832 40.3562V40.4866C29.2832 41.3192 28.6012 42.0008 27.768 42.0008H33.3377C34.1709 42.0008 34.0198 41.3192 34.0198 40.4866Z" fill="url(#paint42_linear_266_10874)" style="mix-blend-mode:multiply"/>
</g>
</mask>
<g mask="url(#mask10_266_10874)">
<path d="M34.0198 40.4866V40.3562C34.0198 39.5236 33.3377 38.842 32.5045 38.842H32.1288C32.1272 38.7718 32.1263 38.7009 32.1263 38.6274V38.497C32.1263 37.6644 31.4443 36.9828 30.6111 36.9828H30.4971C29.7234 36.7897 27.1627 36.0058 26.3212 33.4922C25.4253 30.8153 26.0223 29.3621 26.0223 29.3621L24.4831 29.7013L23.9769 29.7442L23.3518 29.7401C23.3518 29.7401 24.1701 30.9894 24.1701 33.0739C24.1701 36.2591 23.0851 36.9853 23.0851 36.9853C23.095 36.9853 23.104 36.9836 23.114 36.9836H26.7886C27.223 36.9836 27.5789 37.3393 27.5789 37.7733C27.5789 38.2074 27.223 38.5631 26.7886 38.5631H23.114C23.104 38.5631 23.0941 38.5622 23.0851 38.5614V38.8428H27.7688C28.602 38.8428 29.2841 39.5244 29.2841 40.357V40.4874C29.2841 41.32 28.602 42.0016 27.7688 42.0016H33.3386C34.1718 42.0016 34.0206 41.32 34.0206 40.4874L34.0198 40.4866Z" fill="url(#paint43_linear_266_10874)" style="mix-blend-mode:multiply"/>
</g>
<mask id="mask11_266_10874" style="mask-type:luminance" maskUnits="userSpaceOnUse" x="23" y="3" width="17" height="27">
<g clip-path="url(#clip12_266_10874)">
<rect width="15.9959" height="26.4343" transform="translate(23.0851 3.30655)" fill="white"/>
<path d="M38.3881 3.30655H23.0851C23.0851 3.30655 24.45 3.7142 24.45 5.16242C24.45 6.28468 23.7911 7.52165 23.4938 8.02172C23.4913 8.02667 23.488 8.03162 23.4855 8.03575C23.4765 8.0506 23.469 8.06381 23.4608 8.07701C23.4583 8.08114 23.455 8.08609 23.4525 8.09104C23.4443 8.10507 23.4368 8.11744 23.4294 8.129C23.4277 8.13147 23.4253 8.13477 23.4236 8.13807C23.3782 8.21069 23.3518 8.2503 23.3518 8.2503C23.3518 8.2503 28.1156 9.45096 28.1156 16.4519C28.1156 23.4529 23.3584 29.731 23.3518 29.7392C31.27 29.5659 37.6449 21.6927 37.6449 12.0041V8.2404C38.4368 8.07371 39.0702 5.75243 39.0702 4.94952V4.81914C39.0702 3.98651 39.2213 3.3049 38.3881 3.3049V3.30655Z" fill="url(#paint44_linear_266_10874)" style="mix-blend-mode:multiply"/>
</g>
</mask>
<g mask="url(#mask11_266_10874)">
<path d="M38.3881 3.30655H23.0851C23.0851 3.30655 24.45 3.7142 24.45 5.16242C24.45 6.28468 23.7911 7.52165 23.4938 8.02172C23.4913 8.02667 23.488 8.03162 23.4855 8.03575C23.4765 8.0506 23.469 8.06381 23.4608 8.07701C23.4583 8.08114 23.455 8.08609 23.4525 8.09104C23.4443 8.10507 23.4368 8.11744 23.4294 8.129C23.4277 8.13147 23.4253 8.13477 23.4236 8.13807C23.3782 8.21069 23.3518 8.2503 23.3518 8.2503C23.3518 8.2503 28.1156 9.45096 28.1156 16.4519C28.1156 23.4529 23.3584 29.731 23.3518 29.7392C31.27 29.5659 37.6449 21.6927 37.6449 12.0041V8.2404C38.4368 8.07371 39.0702 5.75243 39.0702 4.94952V4.81914C39.0702 3.98651 39.2213 3.3049 38.3881 3.3049V3.30655Z" fill="url(#paint45_linear_266_10874)" style="mix-blend-mode:multiply"/>
</g>
<path opacity="0.7" d="M5.06524 0C5.81834 1.31701 8.61437 5.00811 8.61437 5.00811C8.61437 5.00811 12.8258 9.17865 12.986 9.31646C13.1453 9.4551 9.40876 4.44451 9.40876 4.44451L5.06524 0Z" fill="white"/>
<path opacity="0.7" d="M5.09496 9.06229C6.22874 7.97964 9.56978 4.65905 9.56978 4.65905C9.56978 4.65905 12.3559 0.221969 12.4236 0.0957139C12.4434 0.0577549 8.86127 4.27121 8.86127 4.27121L5.09496 9.06147V9.06229Z" fill="white"/>
<path d="M9.88027 3.86522C8.84724 3.18361 9.03716 1.26255 9.02808 0.721222V1.24027C9.0256 1.15693 9.02065 1.06863 9.02065 1.04882V0.721222C9.01817 0.877184 9.00496 1.12309 8.96532 1.40778C8.96532 1.40778 8.66061 3.33214 8.11809 3.73319C6.89183 4.64255 3.80595 4.47091 4.99092 4.49237C8.98514 4.56333 8.98514 7.87485 9.02065 8.95915V8.41122C9.02312 8.45166 9.02643 8.48384 9.02808 8.5053V8.95915C9.11231 6.38949 9.10075 4.76386 12.5888 4.546C13.7407 4.47174 11.0834 4.65906 9.88027 3.86522Z" fill="white"/>
<path opacity="0.7" d="M0 11.8523C0.808423 11.849 3.25268 11.5222 3.25268 11.5222C3.25268 11.5222 6.29067 10.6657 6.39637 10.6285C6.50289 10.5914 3.19983 11.0073 3.19983 11.0073L0 11.8523Z" fill="white"/>
<path opacity="0.7" d="M4.20974 14.2148C4.00495 13.4061 3.34186 10.9883 3.34186 10.9883C3.34186 10.9883 2.01569 8.53501 1.97523 8.46982C1.96284 8.45084 2.97688 11.2144 2.97688 11.2144L4.20974 14.2148Z" fill="white"/>
<path d="M3.05533 10.636C2.46821 10.9355 1.62758 10.3439 1.37407 10.206C1.44674 10.2473 1.52766 10.2927 1.61437 10.3422C1.57556 10.3216 1.53262 10.3009 1.52353 10.2952C1.46986 10.2646 1.41949 10.2358 1.37159 10.2093C1.44343 10.2514 1.55409 10.3224 1.67547 10.4148C1.67547 10.4148 2.48803 11.061 2.53179 11.4166C2.63171 12.2228 1.74319 13.6067 2.06358 13.0637C3.14368 11.2326 4.6796 12.1015 5.19158 12.3697C5.12386 12.3309 5.03716 12.2822 4.93724 12.2261C4.95623 12.2352 4.97275 12.2426 4.98266 12.2476C5.06441 12.2938 5.13543 12.3342 5.19323 12.3664C4.02395 11.6534 3.26755 11.2326 4.08092 9.56074C4.34847 9.00786 3.73823 10.2877 3.05533 10.636Z" fill="white"/>
<path d="M29.6424 18.118L26.3642 12.4662L25.8885 12.4547H20.1131L19.64 12.4572L16.3576 18.1188L16.3154 18.3829L19.6383 24.1131L26.3642 24.1106L29.6846 18.3821L29.6424 18.118Z" fill="url(#paint46_linear_266_10874)" style="mix-blend-mode:multiply"/>
<path d="M29.2238 18.222L29.2188 18.1939L26.1057 12.826L25.8885 12.8211H20.1148L19.8951 12.8219L16.7795 18.1939L16.7754 18.2228L19.8918 23.5965L19.8943 23.5948H26.1074H26.1082H26.109L29.2238 18.222Z" fill="#940505"/>
<mask id="mask12_266_10874" style="mask-type:luminance" maskUnits="userSpaceOnUse" x="19" y="14" width="8" height="8">
<g clip-path="url(#clip13_266_10874)">
<rect width="7.71429" height="6.67584" transform="translate(19.1379 14.8816)" fill="white"/>
<path d="M21.0661 21.5574L19.1379 18.2195L21.0661 14.8816H24.9232L26.8522 18.2195L24.9232 21.5574H21.0661Z" fill="url(#paint47_linear_266_10874)" style="mix-blend-mode:multiply"/>
</g>
</mask>
<g mask="url(#mask12_266_10874)">
<path opacity="0.5" d="M21.0661 21.5574L19.1379 18.2195L21.0661 14.8816H24.9232L26.8522 18.2195L24.9232 21.5574H21.0661Z" fill="url(#paint48_linear_266_10874)" style="mix-blend-mode:overlay"/>
</g>
<mask id="mask13_266_10874" style="mask-type:luminance" maskUnits="userSpaceOnUse" x="19" y="12" width="8" height="3">
<g clip-path="url(#clip14_266_10874)">
<rect width="6.2147" height="2.04814" transform="translate(19.8918 12.8211)" fill="white"/>
<path d="M19.8918 12.8211L21.0661 14.8692H24.9232L26.1065 12.8211H19.8918Z" fill="url(#paint49_linear_266_10874)" style="mix-blend-mode:multiply"/>
</g>
</mask>
<g mask="url(#mask13_266_10874)">
<path d="M19.8918 12.8211L21.0661 14.8692H24.9232L26.1065 12.8211H19.8918Z" fill="url(#paint50_linear_266_10874)" style="mix-blend-mode:overlay"/>
</g>
<g style="mix-blend-mode:overlay" opacity="0.53">
<mask id="mask14_266_10874" style="mask-type:luminance" maskUnits="userSpaceOnUse" x="22" y="14" width="4" height="8">
<g clip-path="url(#clip15_266_10874)">
<rect width="2.71016" height="6.67584" transform="translate(22.3245 14.8601)" fill="white"/>
<path d="M24.8538 21.5368L24.8943 21.465L25.0355 15.1745L24.8538 14.8601H23.7374L22.3245 21.5368H24.8538Z" fill="url(#paint51_linear_266_10874)" style="mix-blend-mode:multiply"/>
</g>
</mask>
<g mask="url(#mask14_266_10874)">
<path d="M24.8538 21.5368L24.8943 21.465L25.0355 15.1745L24.8538 14.8601H23.7374L22.3245 21.5368H24.8538Z" fill="url(#paint52_linear_266_10874)"/>
</g>
<mask id="mask15_266_10874" style="mask-type:luminance" maskUnits="userSpaceOnUse" x="19" y="14" width="5" height="7">
<g clip-path="url(#clip16_266_10874)">
<rect width="4.59785" height="5.21029" transform="translate(19.1379 14.8601)" fill="white"/>
<path d="M19.1379 18.3185L20.1495 20.0704L23.7358 14.8601H21.5624L19.1379 18.3185Z" fill="url(#paint53_linear_266_10874)" style="mix-blend-mode:multiply"/>
</g>
</mask>
<g mask="url(#mask15_266_10874)">
<path d="M19.1379 18.3185L20.1495 20.0704L23.7358 14.8601H21.5624L19.1379 18.3185Z" fill="url(#paint54_linear_266_10874)"/>
</g>
</g>
<mask id="mask16_266_10874" style="mask-type:luminance" maskUnits="userSpaceOnUse" x="20" y="12" width="6" height="3">
<g clip-path="url(#clip17_266_10874)">
<rect width="5.77292" height="1.80223" transform="translate(20.1123 12.8211)" fill="white"/>
<path d="M20.1123 12.8211L21.204 14.6233H24.7861L25.886 12.8211H20.1123Z" fill="url(#paint55_linear_266_10874)" style="mix-blend-mode:multiply"/>
</g>
</mask>
<g mask="url(#mask16_266_10874)">
<path d="M20.1123 12.8211L21.204 14.6233H24.7861L25.886 12.8211H20.1123Z" fill="url(#paint56_linear_266_10874)" style="mix-blend-mode:overlay"/>
</g>
<g opacity="0.24" style="mix-blend-mode:multiply">
<path d="M26.1065 23.5948L24.9323 21.5467H21.0752L19.8918 23.5948H26.1065Z" fill="#310000"/>
</g>
<mask id="mask17_266_10874" style="mask-type:luminance" maskUnits="userSpaceOnUse" x="20" y="21" width="6" height="3">
<g clip-path="url(#clip18_266_10874)">
<rect width="5.42031" height="1.72218" transform="translate(20.289 21.7192)" fill="white"/>
<path d="M25.7093 23.4414L24.6854 21.7192H21.3212L20.289 23.4414H25.7093Z" fill="url(#paint57_linear_266_10874)" style="mix-blend-mode:multiply"/>
</g>
</mask>
<g mask="url(#mask17_266_10874)">
<path opacity="0.25" d="M25.7093 23.4414L24.6854 21.7192H21.3212L20.289 23.4414H25.7093Z" fill="url(#paint58_linear_266_10874)" style="mix-blend-mode:overlay"/>
</g>
<mask id="mask18_266_10874" style="mask-type:luminance" maskUnits="userSpaceOnUse" x="16" y="12" width="6" height="7">
<g clip-path="url(#clip19_266_10874)">
<rect width="4.29645" height="5.38523" transform="translate(16.777 12.8211)" fill="white"/>
<path d="M16.777 18.1939L19.1396 18.2063L21.0735 14.8709L19.8935 12.8211L16.777 18.1939Z" fill="url(#paint59_linear_266_10874)" style="mix-blend-mode:multiply"/>
</g>
</mask>
<g mask="url(#mask18_266_10874)">
<path d="M16.777 18.1939L19.1396 18.2063L21.0735 14.8709L19.8935 12.8211L16.777 18.1939Z" fill="url(#paint60_linear_266_10874)" style="mix-blend-mode:overlay"/>
</g>
<g opacity="0.23" style="mix-blend-mode:multiply">
<path d="M29.2213 18.222L26.8588 18.2104L24.9249 21.545L26.1057 23.5956L29.2213 18.222Z" fill="#310000"/>
</g>
<mask id="mask19_266_10874" style="mask-type:luminance" maskUnits="userSpaceOnUse" x="25" y="18" width="4" height="6">
<g clip-path="url(#clip20_266_10874)">
<rect width="3.80182" height="4.76551" transform="translate(25.1652 18.5207)" fill="white"/>
<path d="M28.967 18.5306L26.8761 18.5207L25.1652 21.4716L26.2098 23.2854L28.967 18.5306Z" fill="url(#paint61_linear_266_10874)" style="mix-blend-mode:multiply"/>
</g>
</mask>
<g mask="url(#mask19_266_10874)">
<path d="M28.967 18.5306L26.8761 18.5207L25.1652 21.4716L26.2098 23.2854L28.967 18.5306Z" fill="url(#paint62_linear_266_10874)" style="mix-blend-mode:overlay"/>
</g>
<g opacity="0.1" style="mix-blend-mode:multiply">
<path d="M19.8894 23.5965L21.0735 21.5541L19.1404 18.2195L16.7729 18.2228L19.8894 23.5965Z" fill="#310000"/>
</g>
<mask id="mask20_266_10874" style="mask-type:luminance" maskUnits="userSpaceOnUse" x="17" y="18" width="4" height="6">
<g clip-path="url(#clip21_266_10874)">
<rect width="3.80182" height="4.76551" transform="translate(17.0859 18.5207)" fill="white"/>
<path d="M17.0859 18.5306L19.1767 18.5207L20.8877 21.4716L19.8431 23.2854L17.0859 18.5306Z" fill="url(#paint63_linear_266_10874)" style="mix-blend-mode:multiply"/>
</g>
</mask>
<g mask="url(#mask20_266_10874)">
<path opacity="0.53" d="M17.0859 18.5306L19.1767 18.5207L20.8877 21.4716L19.8431 23.2854L17.0859 18.5306Z" fill="url(#paint64_linear_266_10874)" style="mix-blend-mode:overlay"/>
</g>
<mask id="mask21_266_10874" style="mask-type:luminance" maskUnits="userSpaceOnUse" x="17" y="13" width="4" height="5">
<g clip-path="url(#clip22_266_10874)">
<rect width="3.80182" height="4.76551" transform="translate(17.0537 13.1305)" fill="white"/>
<path d="M17.0537 17.8853L19.1445 17.896L20.8555 14.9451L19.8109 13.1305L17.0537 17.8853Z" fill="url(#paint65_linear_266_10874)" style="mix-blend-mode:multiply"/>
</g>
</mask>
<g mask="url(#mask21_266_10874)">
<path d="M17.0537 17.8853L19.1445 17.896L20.8555 14.9451L19.8109 13.1305L17.0537 17.8853Z" fill="url(#paint66_linear_266_10874)" style="mix-blend-mode:overlay"/>
</g>
<mask id="mask22_266_10874" style="mask-type:luminance" maskUnits="userSpaceOnUse" x="24" y="12" width="6" height="7">
<g clip-path="url(#clip23_266_10874)">
<rect width="4.30058" height="5.37698" transform="translate(24.9158 12.8211)" fill="white"/>
<path d="M26.0999 12.8211L24.9158 14.8634L26.8497 18.1981L29.2164 18.1939L26.0999 12.8211Z" fill="url(#paint67_linear_266_10874)" style="mix-blend-mode:multiply"/>
</g>
</mask>
<g mask="url(#mask22_266_10874)">
<path d="M26.0999 12.8211L24.9158 14.8634L26.8497 18.1981L29.2164 18.1939L26.0999 12.8211Z" fill="url(#paint68_linear_266_10874)" style="mix-blend-mode:overlay"/>
</g>
<mask id="mask23_266_10874" style="mask-type:luminance" maskUnits="userSpaceOnUse" x="25" y="13" width="4" height="5">
<g clip-path="url(#clip24_266_10874)">
<rect width="3.80182" height="4.76551" transform="translate(25.1338 13.1305)" fill="white"/>
<path d="M28.9356 17.8853L26.8448 17.896L25.1338 14.9451L26.1784 13.1305L28.9356 17.8853Z" fill="url(#paint69_linear_266_10874)" style="mix-blend-mode:multiply"/>
</g>
</mask>
<g mask="url(#mask23_266_10874)">
<path d="M28.9356 17.8853L26.8448 17.896L25.1338 14.9451L26.1784 13.1305L28.9356 17.8853Z" fill="url(#paint70_linear_266_10874)" style="mix-blend-mode:overlay"/>
</g>
<mask id="mask24_266_10874" style="mask-type:luminance" maskUnits="userSpaceOnUse" x="19" y="14" width="8" height="6">
<g clip-path="url(#clip25_266_10874)">
<rect width="7.04955" height="5.08073" transform="translate(19.1379 14.87)" fill="white"/>
<path d="M26.1866 17.0576L24.9232 14.8708H21.0661L19.1371 18.2088L20.1445 19.9516C20.6879 19.317 21.4674 18.5009 22.417 17.9282C23.7952 17.0972 25.441 17.0362 26.1866 17.0576Z" fill="url(#paint71_linear_266_10874)" style="mix-blend-mode:multiply"/>
</g>
</mask>
<g mask="url(#mask24_266_10874)">
<path opacity="0.4" d="M26.1866 17.0576L24.9232 14.8708H21.0661L19.1371 18.2088L20.1445 19.9516C20.6879 19.317 21.4674 18.5009 22.417 17.9282C23.7952 17.0972 25.441 17.0362 26.1866 17.0576Z" fill="url(#paint72_linear_266_10874)" style="mix-blend-mode:overlay"/>
</g>
<path d="M19.8918 12.8211L20.8877 14.87L19.0801 18.0693L16.7729 18.2228L19.0413 18.3548L20.8555 21.182L19.2725 18.2723L21.0735 14.9946L24.8547 14.9823L26.5888 17.7491L25.0355 14.87L26.1065 12.8491L24.8547 14.7768H21.0735L19.8918 12.8211Z" fill="white"/>
<path opacity="0.7" d="M22.8761 12.6371C23.2618 13.4309 24.6928 15.6564 24.6928 15.6564C24.6928 15.6564 26.8481 18.1716 26.9306 18.255C27.0116 18.3383 25.0991 15.3173 25.0991 15.3173L22.8761 12.6379V12.6371Z" fill="white"/>
<path opacity="0.7" d="M22.891 18.1007C23.4715 17.448 25.1817 15.446 25.1817 15.446C25.1817 15.446 26.6078 12.7707 26.6425 12.694C26.6524 12.6709 24.8183 15.2117 24.8183 15.2117L22.8902 18.0999L22.891 18.1007Z" fill="white"/>
<path d="M25.3411 14.9666C24.8126 14.5556 24.91 13.3979 24.9042 13.0719V13.3847C24.9026 13.3343 24.9001 13.2807 24.9001 13.2692V13.0719C24.8993 13.166 24.8918 13.3137 24.872 13.4862C24.872 13.4862 24.7159 14.6472 24.4377 14.889C23.8101 15.4361 22.2304 15.3321 22.8373 15.3453C24.8819 15.3891 24.8819 17.3852 24.9001 18.0396V17.7095C24.9017 17.7335 24.9026 17.7524 24.9042 17.7665V18.0396C24.9472 16.4899 24.9422 15.5104 26.7275 15.3784C27.3171 15.3338 25.9562 15.4468 25.3411 14.9674V14.9666Z" fill="white"/>
<path opacity="0.7" d="M19.531 19.0142C19.7721 19.5109 20.6672 20.9022 20.6672 20.9022C20.6672 20.9022 22.0157 22.475 22.0661 22.527C22.1173 22.579 20.9216 20.6901 20.9216 20.6901L19.531 19.0142Z" fill="white"/>
<path opacity="0.7" d="M19.5401 22.4313C19.9034 22.0228 20.9728 20.771 20.9728 20.771C20.9728 20.771 21.8646 19.0983 21.886 19.0505C21.8927 19.0364 20.7457 20.625 20.7457 20.625L19.5401 22.4313Z" fill="white"/>
<path d="M21.0718 20.4714C20.7415 20.2148 20.8018 19.4903 20.7985 19.2865V19.482C20.7977 19.4507 20.796 19.4177 20.796 19.4102V19.2865C20.796 19.3451 20.7911 19.4375 20.7787 19.5456C20.7787 19.5456 20.6813 20.2718 20.507 20.4228C20.1148 20.7652 19.1272 20.7009 19.5062 20.7083C20.7845 20.7355 20.7845 21.984 20.796 22.3933V22.1862C20.7969 22.2019 20.7977 22.2134 20.7985 22.2217V22.3925C20.8258 21.4237 20.8225 20.8106 21.9381 20.7289C22.3072 20.7009 21.4558 20.7718 21.071 20.4723L21.0718 20.4714Z" fill="white"/>
</g>
<defs>
<radialGradient id="paint0_radial_266_10874" cx="0" cy="0" r="1" gradientUnits="userSpaceOnUse" gradientTransform="translate(15.711 27.8058) scale(24.9959 24.9787)">
<stop offset="0.25" stop-color="#FDE403"/>
<stop offset="1" stop-color="#EA8D00"/>
</radialGradient>
<radialGradient id="paint1_radial_266_10874" cx="0" cy="0" r="1" gradientUnits="userSpaceOnUse" gradientTransform="translate(25.1751 29.4042) scale(8.91082 8.90469)">
<stop offset="0.25" stop-color="#FDE403"/>
<stop offset="1" stop-color="#EA8D00"/>
</radialGradient>
<linearGradient id="paint2_linear_266_10874" x1="19.3947" y1="32.0795" x2="22.6748" y2="35.5302" gradientUnits="userSpaceOnUse">
<stop stop-color="white"/>
<stop offset="1" stop-color="#383838"/>
</linearGradient>
<linearGradient id="paint3_linear_266_10874" x1="19.3947" y1="32.0795" x2="22.6748" y2="35.5302" gradientUnits="userSpaceOnUse">
<stop stop-color="white"/>
<stop offset="1" stop-color="white"/>
</linearGradient>
<linearGradient id="paint4_linear_266_10874" x1="22.4467" y1="34.598" x2="23.4973" y2="41.7898" gradientUnits="userSpaceOnUse">
<stop offset="0.25" stop-color="#FDE403"/>
<stop offset="1" stop-color="#EA8D00"/>
</linearGradient>
<linearGradient id="paint5_linear_266_10874" x1="18.7911" y1="37.0827" x2="19.5011" y2="39.8399" gradientUnits="userSpaceOnUse">
<stop stop-color="white"/>
<stop offset="1" stop-color="#383838"/>
</linearGradient>
<linearGradient id="paint6_linear_266_10874" x1="18.7911" y1="37.0827" x2="19.5012" y2="39.8399" gradientUnits="userSpaceOnUse">
<stop stop-color="white"/>
<stop offset="1" stop-color="white"/>
</linearGradient>
<radialGradient id="paint7_radial_266_10874" cx="0" cy="0" r="1" gradientUnits="userSpaceOnUse" gradientTransform="translate(23.0851 38.5631) scale(6.49793 6.49347)">
<stop offset="0.25" stop-color="#FDE403"/>
<stop offset="1" stop-color="#EA8D00"/>
</radialGradient>
<linearGradient id="paint8_linear_266_10874" x1="22.73" y1="32.5177" x2="23.2338" y2="44.4187" gradientUnits="userSpaceOnUse">
<stop offset="0.25" stop-color="#FDE403"/>
<stop offset="1" stop-color="#EA8D00"/>
</linearGradient>
<linearGradient id="paint9_linear_266_10874" x1="17.55" y1="39.3404" x2="18.5223" y2="43.1193" gradientUnits="userSpaceOnUse">
<stop stop-color="white"/>
<stop offset="1" stop-color="#383838"/>
</linearGradient>
<linearGradient id="paint10_linear_266_10874" x1="17.55" y1="39.3404" x2="18.5223" y2="43.1193" gradientUnits="userSpaceOnUse">
<stop stop-color="white"/>
<stop offset="1" stop-color="white"/>
</linearGradient>
<radialGradient id="paint11_radial_266_10874" cx="0" cy="0" r="1" gradientUnits="userSpaceOnUse" gradientTransform="translate(23.0851 40.4214) scale(7.81916 7.81378)">
<stop offset="0.25" stop-color="#FDE403"/>
<stop offset="1" stop-color="#EA8D00"/>
</radialGradient>
<linearGradient id="paint12_linear_266_10874" x1="5.58629" y1="11.6361" x2="10.4403" y2="34.7256" gradientUnits="userSpaceOnUse">
<stop stop-color="#FDE403"/>
<stop offset="1" stop-color="#E57D00"/>
</linearGradient>
<linearGradient id="paint13_linear_266_10874" x1="6.96945" y1="11.3456" x2="11.8243" y2="34.4343" gradientUnits="userSpaceOnUse">
<stop stop-color="#FDE403"/>
<stop offset="1" stop-color="#E57D00"/>
</linearGradient>
<linearGradient id="paint14_linear_266_10874" x1="10.1544" y1="9.62425" x2="15.2988" y2="34.0927" gradientUnits="userSpaceOnUse">
<stop stop-color="#FDE403"/>
<stop offset="1" stop-color="#E57D00"/>
</linearGradient>
<radialGradient id="paint15_radial_266_10874" cx="0" cy="0" r="1" gradientUnits="userSpaceOnUse" gradientTransform="translate(14.2221 27.4922) scale(2.36251 2.36089)">
<stop offset="0.25" stop-color="#FDE403"/>
<stop offset="1" stop-color="#EA8D00"/>
</radialGradient>
<radialGradient id="paint16_radial_266_10874" cx="0" cy="0" r="1" gradientUnits="userSpaceOnUse" gradientTransform="translate(6.27333 13.5299) scale(1.87614 1.87485)">
<stop offset="0.25" stop-color="#FDE403"/>
<stop offset="1" stop-color="#EA8D00"/>
</radialGradient>
<radialGradient id="paint17_radial_266_10874" cx="0" cy="0" r="1" gradientUnits="userSpaceOnUse" gradientTransform="translate(6.27498 21.4452) scale(6.2981 6.29377)">
<stop offset="0.25" stop-color="#FDE403"/>
<stop offset="1" stop-color="#EA8D00"/>
</radialGradient>
<linearGradient id="paint18_linear_266_10874" x1="-12.0974" y1="-20.3881" x2="3.66697" y2="12.2404" gradientUnits="userSpaceOnUse">
<stop stop-color="white"/>
<stop offset="1" stop-color="#383838"/>
</linearGradient>
<linearGradient id="paint19_linear_266_10874" x1="-12.0974" y1="-20.3881" x2="3.66697" y2="12.2404" gradientUnits="userSpaceOnUse">
<stop stop-color="white"/>
<stop offset="1" stop-color="white"/>
</linearGradient>
<linearGradient id="paint20_linear_266_10874" x1="-8.05202" y1="-15.5228" x2="9.25732" y2="20.305" gradientUnits="userSpaceOnUse">
<stop stop-color="white"/>
<stop offset="1" stop-color="#383838"/>
</linearGradient>
<linearGradient id="paint21_linear_266_10874" x1="-8.05202" y1="-15.5228" x2="9.25732" y2="20.305" gradientUnits="userSpaceOnUse">
<stop stop-color="white"/>
<stop offset="1" stop-color="white"/>
</linearGradient>
<linearGradient id="paint22_linear_266_10874" x1="40.583" y1="11.6361" x2="35.7289" y2="34.7256" gradientUnits="userSpaceOnUse">
<stop stop-color="#FDE403"/>
<stop offset="1" stop-color="#E57D00"/>
</linearGradient>
<linearGradient id="paint23_linear_266_10874" x1="39.199" y1="11.3456" x2="34.0349" y2="35.9074" gradientUnits="userSpaceOnUse">
<stop stop-color="#FDE403"/>
<stop offset="1" stop-color="#E57D00"/>
</linearGradient>
<linearGradient id="paint24_linear_266_10874" x1="36.014" y1="9.62426" x2="30.8697" y2="34.0927" gradientUnits="userSpaceOnUse">
<stop stop-color="#FDE403"/>
<stop offset="1" stop-color="#E57D00"/>
</linearGradient>
<radialGradient id="paint25_radial_266_10874" cx="0" cy="0" r="1" gradientUnits="userSpaceOnUse" gradientTransform="translate(31.9472 27.4922) rotate(180) scale(2.36251 2.36089)">
<stop offset="0.25" stop-color="#FDE403"/>
<stop offset="1" stop-color="#EA8D00"/>
</radialGradient>
<radialGradient id="paint26_radial_266_10874" cx="0" cy="0" r="1" gradientUnits="userSpaceOnUse" gradientTransform="translate(39.896 13.5299) rotate(180) scale(1.87614 1.87485)">
<stop offset="0.25" stop-color="#FDE403"/>
<stop offset="1" stop-color="#EA8D00"/>
</radialGradient>
<radialGradient id="paint27_radial_266_10874" cx="0" cy="0" r="1" gradientUnits="userSpaceOnUse" gradientTransform="translate(39.8943 21.4452) rotate(180) scale(6.2981 6.29377)">
<stop offset="0.25" stop-color="#FDE403"/>
<stop offset="1" stop-color="#EA8D00"/>
</radialGradient>
<linearGradient id="paint28_linear_266_10874" x1="58.2667" y1="-20.3881" x2="42.5032" y2="12.2404" gradientUnits="userSpaceOnUse">
<stop stop-color="white"/>
<stop offset="1" stop-color="#383838"/>
</linearGradient>
<linearGradient id="paint29_linear_266_10874" x1="58.2667" y1="-20.3881" x2="42.5032" y2="12.2404" gradientUnits="userSpaceOnUse">
<stop stop-color="white"/>
<stop offset="1" stop-color="white"/>
</linearGradient>
<linearGradient id="paint30_linear_266_10874" x1="54.2213" y1="-15.5228" x2="36.912" y2="20.305" gradientUnits="userSpaceOnUse">
<stop stop-color="white"/>
<stop offset="1" stop-color="#383838"/>
</linearGradient>
<linearGradient id="paint31_linear_266_10874" x1="54.2213" y1="-15.5228" x2="36.912" y2="20.305" gradientUnits="userSpaceOnUse">
<stop stop-color="white"/>
<stop offset="1" stop-color="white"/>
</linearGradient>
<radialGradient id="paint32_radial_266_10874" cx="0" cy="0" r="1" gradientUnits="userSpaceOnUse" gradientTransform="translate(22.7498 10.2704) scale(23.0297 23.0139)">
<stop offset="0.25" stop-color="#FDE403"/>
<stop offset="1" stop-color="#EA8D00"/>
</radialGradient>
<radialGradient id="paint33_radial_266_10874" cx="0" cy="0" r="1" gradientUnits="userSpaceOnUse" gradientTransform="translate(15.8266 18.996) scale(22.5029 22.4874)">
<stop offset="0.25" stop-color="#FDE403"/>
<stop offset="1" stop-color="#EA8D00"/>
</radialGradient>
<radialGradient id="paint34_radial_266_10874" cx="0" cy="0" r="1" gradientUnits="userSpaceOnUse" gradientTransform="translate(6.33774 5.41327) scale(39.1453 39.1184)">
<stop stop-color="#F3B000"/>
<stop offset="0.25" stop-color="#FDE403"/>
<stop offset="1" stop-color="#EA8D00"/>
</radialGradient>
<radialGradient id="paint35_radial_266_10874" cx="0" cy="0" r="1" gradientUnits="userSpaceOnUse" gradientTransform="translate(8.73989 2.95089) scale(41.6416 41.613)">
<stop offset="0.25" stop-color="#FDE403"/>
<stop offset="1" stop-color="#EA8D00"/>
</radialGradient>
<linearGradient id="paint36_linear_266_10874" x1="9.29149" y1="18.0833" x2="26.6557" y2="18.0833" gradientUnits="userSpaceOnUse">
<stop stop-color="white"/>
<stop offset="1" stop-color="#383838"/>
</linearGradient>
<linearGradient id="paint37_linear_266_10874" x1="9.29149" y1="18.0833" x2="26.6557" y2="18.0833" gradientUnits="userSpaceOnUse">
<stop stop-color="white"/>
<stop offset="1" stop-color="white"/>
</linearGradient>
<linearGradient id="paint38_linear_266_10874" x1="10.5482" y1="16.2524" x2="23.7357" y2="16.2524" gradientUnits="userSpaceOnUse">
<stop stop-color="white"/>
<stop offset="1" stop-color="#383838"/>
</linearGradient>
<linearGradient id="paint39_linear_266_10874" x1="10.5482" y1="16.2524" x2="23.7357" y2="16.2524" gradientUnits="userSpaceOnUse">
<stop stop-color="white"/>
<stop offset="1" stop-color="white"/>
</linearGradient>
<linearGradient id="paint40_linear_266_10874" x1="7.51631" y1="5.40503" x2="38.096" y2="5.40503" gradientUnits="userSpaceOnUse">
<stop stop-color="white"/>
<stop offset="1" stop-color="#383838"/>
</linearGradient>
<linearGradient id="paint41_linear_266_10874" x1="7.51631" y1="5.40503" x2="38.096" y2="5.40503" gradientUnits="userSpaceOnUse">
<stop stop-color="white"/>
<stop offset="1" stop-color="white"/>
</linearGradient>
<linearGradient id="paint42_linear_266_10874" x1="11.7168" y1="34.9701" x2="34.7357" y2="35.3916" gradientUnits="userSpaceOnUse">
<stop offset="0.25"/>
<stop offset="1" stop-color="white"/>
</linearGradient>
<linearGradient id="paint43_linear_266_10874" x1="12.0206" y1="35.41" x2="34.7201" y2="35.8248" gradientUnits="userSpaceOnUse">
<stop offset="0.25" stop-color="#FDE403"/>
<stop offset="1" stop-color="#EA8D00"/>
</linearGradient>
<linearGradient id="paint44_linear_266_10874" x1="6.73245" y1="16.0822" x2="39.7151" y2="16.6855" gradientUnits="userSpaceOnUse">
<stop offset="0.25"/>
<stop offset="1" stop-color="white"/>
</linearGradient>
<linearGradient id="paint45_linear_266_10874" x1="6.73245" y1="16.0822" x2="39.7151" y2="16.6855" gradientUnits="userSpaceOnUse">
<stop offset="0.25" stop-color="#FDE403"/>
<stop offset="1" stop-color="#EA8D00"/>
</linearGradient>
<linearGradient id="paint46_linear_266_10874" x1="16.3154" y1="18.2839" x2="29.6846" y2="18.2839" gradientUnits="userSpaceOnUse">
<stop offset="0.25" stop-color="#FDE403"/>
<stop offset="1" stop-color="#EA8D00"/>
</linearGradient>
<linearGradient id="paint47_linear_266_10874" x1="19.1379" y1="18.2195" x2="26.8522" y2="18.2195" gradientUnits="userSpaceOnUse">
<stop stop-color="white"/>
<stop offset="1" stop-color="#595959"/>
</linearGradient>
<linearGradient id="paint48_linear_266_10874" x1="19.1379" y1="18.2195" x2="26.8522" y2="18.2195" gradientUnits="userSpaceOnUse">
<stop stop-color="white"/>
<stop offset="1" stop-color="white"/>
</linearGradient>
<linearGradient id="paint49_linear_266_10874" x1="22.9992" y1="14.828" x2="22.9992" y2="12.7287" gradientUnits="userSpaceOnUse">
<stop stop-color="white"/>
<stop offset="1" stop-color="#595959"/>
</linearGradient>
<linearGradient id="paint50_linear_266_10874" x1="22.9992" y1="14.828" x2="22.9992" y2="12.7287" gradientUnits="userSpaceOnUse">
<stop stop-color="white"/>
<stop offset="1" stop-color="white"/>
</linearGradient>
<linearGradient id="paint51_linear_266_10874" x1="22.3245" y1="18.1981" x2="25.0355" y2="18.1981" gradientUnits="userSpaceOnUse">
<stop stop-color="#595959"/>
<stop offset="1" stop-color="white"/>
</linearGradient>
<linearGradient id="paint52_linear_266_10874" x1="22.3245" y1="18.1981" x2="25.0355" y2="18.1981" gradientUnits="userSpaceOnUse">
<stop stop-color="white"/>
<stop offset="1" stop-color="white"/>
</linearGradient>
<linearGradient id="paint53_linear_266_10874" x1="19.1379" y1="17.4653" x2="23.7358" y2="17.4653" gradientUnits="userSpaceOnUse">
<stop stop-color="#595959"/>
<stop offset="1" stop-color="white"/>
</linearGradient>
<linearGradient id="paint54_linear_266_10874" x1="19.1379" y1="17.4653" x2="23.7358" y2="17.4653" gradientUnits="userSpaceOnUse">
<stop stop-color="white"/>
<stop offset="1" stop-color="white"/>
</linearGradient>
<linearGradient id="paint55_linear_266_10874" x1="20.1123" y1="13.7222" x2="25.886" y2="13.7222" gradientUnits="userSpaceOnUse">
<stop stop-color="white"/>
<stop offset="1" stop-color="#595959"/>
</linearGradient>
<linearGradient id="paint56_linear_266_10874" x1="20.1123" y1="13.7222" x2="25.886" y2="13.7222" gradientUnits="userSpaceOnUse">
<stop stop-color="white"/>
<stop offset="1" stop-color="white"/>
</linearGradient>
<linearGradient id="paint57_linear_266_10874" x1="20.289" y1="22.5807" x2="25.7093" y2="22.5807" gradientUnits="userSpaceOnUse">
<stop stop-color="#595959"/>
<stop offset="1" stop-color="white"/>
</linearGradient>
<linearGradient id="paint58_linear_266_10874" x1="20.289" y1="22.5807" x2="25.7093" y2="22.5807" gradientUnits="userSpaceOnUse">
<stop stop-color="white"/>
<stop offset="1" stop-color="white"/>
</linearGradient>
<linearGradient id="paint59_linear_266_10874" x1="17.6697" y1="18.7058" x2="20.7823" y2="13.3304" gradientUnits="userSpaceOnUse">
<stop stop-color="#595959"/>
<stop offset="1" stop-color="white"/>
</linearGradient>
<linearGradient id="paint60_linear_266_10874" x1="17.6697" y1="18.7058" x2="20.7823" y2="13.3304" gradientUnits="userSpaceOnUse">
<stop stop-color="white"/>
<stop offset="1" stop-color="white"/>
</linearGradient>
<linearGradient id="paint61_linear_266_10874" x1="26.6862" y1="21.5203" x2="28.0173" y2="16.1932" gradientUnits="userSpaceOnUse">
<stop stop-color="#595959"/>
<stop offset="1" stop-color="white"/>
</linearGradient>
<linearGradient id="paint62_linear_266_10874" x1="26.6862" y1="21.5203" x2="28.0173" y2="16.1932" gradientUnits="userSpaceOnUse">
<stop stop-color="white"/>
<stop offset="1" stop-color="white"/>
</linearGradient>
<linearGradient id="paint63_linear_266_10874" x1="17.4311" y1="16.9966" x2="20.5029" y2="22.9389" gradientUnits="userSpaceOnUse">
<stop stop-color="#595959"/>
<stop offset="1" stop-color="white"/>
</linearGradient>
<linearGradient id="paint64_linear_266_10874" x1="17.4311" y1="16.9966" x2="20.5029" y2="22.9389" gradientUnits="userSpaceOnUse">
<stop stop-color="white"/>
<stop offset="1" stop-color="white"/>
</linearGradient>
<linearGradient id="paint65_linear_266_10874" x1="17.0537" y1="15.5137" x2="20.8555" y2="15.5137" gradientUnits="userSpaceOnUse">
<stop stop-color="#595959"/>
<stop offset="1" stop-color="white"/>
</linearGradient>
<linearGradient id="paint66_linear_266_10874" x1="17.0537" y1="15.5137" x2="20.8555" y2="15.5137" gradientUnits="userSpaceOnUse">
<stop stop-color="white"/>
<stop offset="1" stop-color="white"/>
</linearGradient>
<linearGradient id="paint67_linear_266_10874" x1="25.2178" y1="13.337" x2="28.3308" y2="18.7131" gradientUnits="userSpaceOnUse">
<stop stop-color="#595959"/>
<stop offset="1" stop-color="white"/>
</linearGradient>
<linearGradient id="paint68_linear_266_10874" x1="25.2178" y1="13.337" x2="28.3308" y2="18.7131" gradientUnits="userSpaceOnUse">
<stop stop-color="white"/>
<stop offset="1" stop-color="white"/>
</linearGradient>
<linearGradient id="paint69_linear_266_10874" x1="25.1338" y1="15.5137" x2="28.9356" y2="15.5137" gradientUnits="userSpaceOnUse">
<stop stop-color="white"/>
<stop offset="1" stop-color="#595959"/>
</linearGradient>
<linearGradient id="paint70_linear_266_10874" x1="25.1338" y1="15.5137" x2="28.9356" y2="15.5137" gradientUnits="userSpaceOnUse">
<stop stop-color="white"/>
<stop offset="1" stop-color="white"/>
</linearGradient>
<linearGradient id="paint71_linear_266_10874" x1="19.1379" y1="17.4108" x2="26.1866" y2="17.4108" gradientUnits="userSpaceOnUse">
<stop stop-color="#595959"/>
<stop offset="1" stop-color="white"/>
</linearGradient>
<linearGradient id="paint72_linear_266_10874" x1="19.1379" y1="17.4108" x2="26.1866" y2="17.4108" gradientUnits="userSpaceOnUse">
<stop stop-color="white"/>
<stop offset="1" stop-color="white"/>
</linearGradient>
<clipPath id="clip0_266_10874">
<rect width="46" height="42" fill="white"/>
</clipPath>
<clipPath id="clip1_266_10874">
<rect width="4.59868" height="5.50653" fill="white" transform="translate(19.2164 30.8161)"/>
</clipPath>
<clipPath id="clip2_266_10874">
<rect width="7.70107" height="1.38385" fill="white" transform="translate(15.1016 37.0414)"/>
</clipPath>
<clipPath id="clip3_266_10874">
<rect width="9.75062" height="2.04071" fill="white" transform="translate(12.9042 39.1217)"/>
</clipPath>
<clipPath id="clip4_266_10874">
<rect width="8.33361" height="12.8227" fill="white" transform="translate(0.169281 8.25195)"/>
</clipPath>
<clipPath id="clip5_266_10874">
<rect width="10.204" height="6.64283" fill="white" transform="translate(5.24608 19.4012)"/>
</clipPath>
<clipPath id="clip6_266_10874">
<rect width="8.33361" height="12.8227" fill="white" transform="translate(37.6656 8.25195)"/>
</clipPath>
<clipPath id="clip7_266_10874">
<rect width="10.204" height="6.64283" fill="white" transform="translate(30.7192 19.4012)"/>
</clipPath>
<clipPath id="clip8_266_10874">
<rect width="17.365" height="17.4422" fill="white" transform="translate(9.2915 9.36185)"/>
</clipPath>
<clipPath id="clip9_266_10874">
<rect width="13.1874" height="12.8062" fill="white" transform="translate(10.5483 9.84955)"/>
</clipPath>
<clipPath id="clip10_266_10874">
<rect width="30.5789" height="3.42786" fill="white" transform="translate(7.51611 3.6911)"/>
</clipPath>
<clipPath id="clip11_266_10874">
<rect width="10.9463" height="13.5002" fill="white" transform="translate(23.0851 28.5006)"/>
</clipPath>
<clipPath id="clip12_266_10874">
<rect width="15.9959" height="26.4343" fill="white" transform="translate(23.0851 3.30655)"/>
</clipPath>
<clipPath id="clip13_266_10874">
<rect width="7.71429" height="6.67584" fill="white" transform="translate(19.1379 14.8816)"/>
</clipPath>
<clipPath id="clip14_266_10874">
<rect width="6.2147" height="2.04814" fill="white" transform="translate(19.8918 12.8211)"/>
</clipPath>
<clipPath id="clip15_266_10874">
<rect width="2.71016" height="6.67584" fill="white" transform="translate(22.3245 14.8601)"/>
</clipPath>
<clipPath id="clip16_266_10874">
<rect width="4.59785" height="5.21029" fill="white" transform="translate(19.1379 14.8601)"/>
</clipPath>
<clipPath id="clip17_266_10874">
<rect width="5.77292" height="1.80223" fill="white" transform="translate(20.1123 12.8211)"/>
</clipPath>
<clipPath id="clip18_266_10874">
<rect width="5.42031" height="1.72218" fill="white" transform="translate(20.289 21.7192)"/>
</clipPath>
<clipPath id="clip19_266_10874">
<rect width="4.29645" height="5.38523" fill="white" transform="translate(16.777 12.8211)"/>
</clipPath>
<clipPath id="clip20_266_10874">
<rect width="3.80182" height="4.76551" fill="white" transform="translate(25.1652 18.5207)"/>
</clipPath>
<clipPath id="clip21_266_10874">
<rect width="3.80182" height="4.76551" fill="white" transform="translate(17.0859 18.5207)"/>
</clipPath>
<clipPath id="clip22_266_10874">
<rect width="3.80182" height="4.76551" fill="white" transform="translate(17.0537 13.1305)"/>
</clipPath>
<clipPath id="clip23_266_10874">
<rect width="4.30058" height="5.37698" fill="white" transform="translate(24.9158 12.8211)"/>
</clipPath>
<clipPath id="clip24_266_10874">
<rect width="3.80182" height="4.76551" fill="white" transform="translate(25.1338 13.1305)"/>
</clipPath>
<clipPath id="clip25_266_10874">
<rect width="7.04955" height="5.08073" fill="white" transform="translate(19.1379 14.87)"/>
</clipPath>
</defs>
</svg>
