<svg width="47" height="42" viewBox="0 0 47 42" fill="none" xmlns="http://www.w3.org/2000/svg">
<g clip-path="url(#clip0_266_10872)">
<path d="M23.943 38.0837L31.2158 37.6884L30.9192 37.0357C30.9192 37.0357 27.564 36.4589 26.4839 33.4939C25.4037 30.529 26.4839 28.5015 26.4839 28.5015H19.9738C19.9738 28.5015 21.054 30.529 19.9738 33.4939C18.8937 36.4589 15.5385 37.0357 15.5385 37.0357L15.2419 37.6884L22.5147 38.0837V38.1612L23.2293 38.1225L23.9438 38.1612V38.0837H23.943Z" fill="url(#paint0_radial_266_10872)"/>
<path d="M30.9208 37.0348C30.9208 37.0348 27.5657 36.458 26.4855 33.493C25.4054 30.5281 26.4855 28.5006 26.4855 28.5006H19.9755C19.9755 28.5006 20.317 29.1418 20.4242 30.231C20.9726 30.3292 21.604 30.5752 22.6385 30.7922C24.4382 31.1709 24.7049 33.7043 26.3243 35.2499C27.3123 36.1931 29.4352 36.7715 30.9416 37.0793L30.9217 37.0348H30.9208Z" fill="url(#paint1_radial_266_10872)" style="mix-blend-mode:multiply"/>
<mask id="mask0_266_10872" style="mask-type:luminance" maskUnits="userSpaceOnUse" x="19" y="30" width="5" height="7">
<g clip-path="url(#clip1_266_10872)">
<rect width="4.62724" height="5.50653" transform="translate(19.3357 30.8161)" fill="white"/>
<path d="M20.9011 30.8763C20.9011 30.8763 20.5413 33.5681 19.673 34.5979C18.8047 35.6286 19.5459 36.2591 22.6368 36.3218C25.7277 36.3845 22.6792 30.1402 20.9011 30.8755V30.8763Z" fill="url(#paint2_linear_266_10872)" style="mix-blend-mode:multiply"/>
</g>
</mask>
<g mask="url(#mask0_266_10872)">
<path d="M20.9011 30.8763C20.9011 30.8763 20.5413 33.5681 19.673 34.5979C18.8047 35.6286 19.5459 36.2591 22.6368 36.3218C25.7277 36.3845 22.6792 30.1402 20.9011 30.8755V30.8763Z" fill="url(#paint3_linear_266_10872)" style="mix-blend-mode:overlay"/>
</g>
<path d="M21.7162 31.3286C21.1429 31.0439 21.1761 33.3363 20.5729 34.4197C19.9697 35.5024 19.9904 35.8919 21.0598 35.4504C22.1292 35.0089 21.8857 31.4136 21.7162 31.3294V31.3286Z" fill="white"/>
<path d="M14.8165 40.1417H31.6396C32.4779 40.1417 32.3259 39.4601 32.3259 38.6274V38.4971C32.3259 37.6644 31.6396 36.9828 30.8012 36.9828H15.6548C14.8165 36.9828 14.1302 37.6644 14.1302 38.4971V38.6274C14.1302 39.4601 13.9781 40.1417 14.8165 40.1417Z" fill="url(#paint4_linear_266_10872)"/>
<mask id="mask1_266_10872" style="mask-type:luminance" maskUnits="userSpaceOnUse" x="15" y="37" width="8" height="2">
<g clip-path="url(#clip2_266_10872)">
<rect width="7.74891" height="1.38385" transform="translate(15.1954 37.0414)" fill="white"/>
<path d="M22.7789 37.1842C22.9559 37.5085 23.2193 38.2536 22.1823 38.351C21.8525 38.3815 15.9274 38.5631 15.4629 38.214C14.9984 37.8649 15.1089 37.0711 16.0379 37.0711C16.9668 37.0711 22.6543 36.9547 22.7797 37.1842H22.7789Z" fill="url(#paint5_linear_266_10872)" style="mix-blend-mode:multiply"/>
</g>
</mask>
<g mask="url(#mask1_266_10872)">
<path d="M22.7789 37.1842C22.9559 37.5085 23.2193 38.2536 22.1823 38.351C21.8525 38.3815 15.9274 38.5631 15.4629 38.214C14.9984 37.8649 15.1089 37.0711 16.0379 37.0711C16.9668 37.0711 22.6543 36.9547 22.7797 37.1842H22.7789Z" fill="url(#paint6_linear_266_10872)" style="mix-blend-mode:overlay"/>
</g>
<path d="M27.2674 40.1417H31.6396C32.4779 40.1417 32.3259 39.4601 32.3259 38.6274V38.4971C32.3259 37.6644 31.6396 36.9828 30.8012 36.9828H30.6824C30.8336 37.4103 30.8378 37.9235 30.1315 38.1257C28.8295 38.4979 25.8125 38.5622 25.8125 38.5622H14.1302V38.6274C14.1302 39.4601 13.9781 40.1417 14.8165 40.1417H27.2674Z" fill="url(#paint7_radial_266_10872)" style="mix-blend-mode:multiply"/>
<path d="M12.9112 42H33.5456C34.384 42 34.232 41.3184 34.232 40.4858V40.3554C34.232 39.5228 33.5456 38.8412 32.7073 38.8412H13.7496C12.9112 38.8412 12.2249 39.5228 12.2249 40.3554V40.4858C12.2249 41.3184 12.0729 42 12.9112 42Z" fill="url(#paint8_linear_266_10872)"/>
<mask id="mask2_266_10872" style="mask-type:luminance" maskUnits="userSpaceOnUse" x="12" y="39" width="11" height="3">
<g clip-path="url(#clip3_266_10872)">
<rect width="9.81118" height="2.04071" transform="translate(12.9844 39.1217)" fill="white"/>
<path d="M22.4998 39.4046C22.8828 39.8412 23.1121 41.1227 21.7694 41.1607C21.3548 41.1722 13.8934 41.1136 13.4272 40.9502C12.6445 40.6763 12.9221 39.2124 14.0811 39.2124C15.2402 39.2124 22.0652 38.9103 22.4989 39.4038L22.4998 39.4046Z" fill="url(#paint9_linear_266_10872)" style="mix-blend-mode:multiply"/>
</g>
</mask>
<g mask="url(#mask2_266_10872)">
<path d="M22.4998 39.4046C22.8828 39.8412 23.1121 41.1227 21.7694 41.1607C21.3548 41.1722 13.8934 41.1136 13.4272 40.9502C12.6445 40.6763 12.9221 39.2124 14.0811 39.2124C15.2402 39.2124 22.0652 38.9103 22.4989 39.4038L22.4998 39.4046Z" fill="url(#paint10_linear_266_10872)" style="mix-blend-mode:overlay"/>
</g>
<path d="M34.2295 40.3562C34.2295 39.5236 33.5431 38.842 32.7048 38.842H32.1115C32.4032 39.2117 32.3367 40.1417 31.77 40.7399C30.5503 42.0289 12.6437 41.7681 12.2158 41.273C12.2366 41.7071 12.3604 42 12.9088 42H33.5431C34.3815 42 34.2295 41.3184 34.2295 40.4858V40.3554V40.3562Z" fill="url(#paint11_radial_266_10872)" style="mix-blend-mode:multiply"/>
<path d="M17.2593 37.1842C16.7732 37.2081 16.4858 37.9367 16.5605 38.1604C16.6353 38.384 18.2123 38.3617 18.4982 37.8146C18.784 37.2683 18.1168 37.1421 17.2593 37.1842Z" fill="white"/>
<path d="M15.9648 39.2133C15.1904 39.2513 14.7342 40.4107 14.853 40.7672C14.9719 41.1236 17.4812 41.0873 17.9365 40.2168C18.3918 39.3462 17.3299 39.1457 15.9656 39.2125L15.9648 39.2133Z" fill="white"/>
<path d="M15.5011 28.3108C15.148 28.3067 6.91552 28.1524 2.88403 22.6054C-0.080598 18.5265 -0.275027 14.502 0.846679 12.3243C1.39507 11.2598 2.28412 10.6491 3.28618 10.6491H7.03351V14.4343H4.10295C3.88608 15.413 4.0157 17.6963 5.97495 20.3922C7.96328 23.1278 11.8045 24.0577 14.0022 24.3705C14.9785 24.51 15.502 28.3116 15.502 28.3116L15.5011 28.3108Z" fill="url(#paint12_linear_266_10872)"/>
<path d="M7.01273 14.4335C6.13946 14.4335 5.4249 13.7238 5.4249 12.8565V9.8289C5.4249 8.96162 6.13946 8.25195 7.01273 8.25195C7.886 8.25195 8.60057 8.96162 8.60057 9.8289V12.8565C8.60057 13.7238 7.886 14.4335 7.01273 14.4335Z" fill="url(#paint13_linear_266_10872)"/>
<path d="M15.0674 24.3977H12.937C12.6484 24.3977 12.4144 24.6301 12.4144 24.9168V30.0602C12.4144 30.3469 12.6484 30.5793 12.937 30.5793H15.0674C15.356 30.5793 15.59 30.3469 15.59 30.0602V24.9168C15.59 24.6301 15.356 24.3977 15.0674 24.3977Z" fill="url(#paint14_linear_266_10872)"/>
<path d="M14.2083 24.4052C14.5813 24.6816 14.8256 25.1222 14.8256 25.6174V28.7713C14.8256 29.6039 14.1393 30.2855 13.3009 30.2855H13.1738C13.1256 30.2855 13.0783 30.283 13.0317 30.2781C13.286 30.4662 13.5992 30.5793 13.9391 30.5793H14.0662C14.9046 30.5793 15.5909 29.8977 15.5909 29.065V25.9111C15.5909 25.1264 14.981 24.4761 14.2091 24.4043L14.2083 24.4052Z" fill="url(#paint15_radial_266_10872)" style="mix-blend-mode:multiply"/>
<g style="mix-blend-mode:multiply">
<path d="M4.03731 14.8973C4.05061 14.7207 4.07304 14.5655 4.10212 14.4335H7.03268C7.89598 14.4211 8.59975 13.7164 8.59975 12.8566V12.1626C8.59975 13.0232 7.89681 13.7271 7.03268 13.7387L7.01191 13.7395H4.10212C4.03981 14.0226 4.00657 14.4162 4.03731 14.8964V14.8973Z" fill="url(#paint16_radial_266_10872)"/>
<path d="M12.4127 27.2727C9.56026 26.7388 5.40164 25.3781 2.8832 21.9123C1.07767 19.4268 0.300786 16.9627 0.221851 14.9237C0.132945 17.084 0.867454 19.8319 2.8832 22.6063C5.40164 26.0721 9.56026 27.432 12.4127 27.9667V27.2727Z" fill="url(#paint17_radial_266_10872)"/>
</g>
<g style="mix-blend-mode:overlay">
<mask id="mask3_266_10872" style="mask-type:luminance" maskUnits="userSpaceOnUse" x="0" y="8" width="9" height="14">
<g clip-path="url(#clip4_266_10872)">
<rect width="8.38537" height="12.8227" transform="translate(0.170334 8.25195)" fill="white"/>
<path d="M1.50053 13.7238C2.04892 12.6593 2.93797 12.0487 3.94003 12.0487H6.07875V11.2284C6.07875 10.3612 6.79332 9.65149 7.66659 9.65149C7.99562 9.65149 8.30222 9.75216 8.55647 9.92463V9.8289C8.55647 8.96162 7.8419 8.25195 6.96864 8.25195C6.09537 8.25195 5.3808 8.96162 5.3808 9.8289V10.6491H3.24208C2.24002 10.6491 1.35097 11.2598 0.80258 12.3243C-0.178704 14.2288 -0.152116 17.5445 1.85117 21.0747C0.558298 18.0842 0.650527 15.3742 1.50053 13.7238Z" fill="url(#paint18_linear_266_10872)" style="mix-blend-mode:multiply"/>
</g>
</mask>
<g mask="url(#mask3_266_10872)">
<path d="M1.50062 13.7238C2.04901 12.6593 2.93807 12.0487 3.94012 12.0487H6.07884V11.2284C6.07884 10.3612 6.79341 9.65149 7.66668 9.65149C7.99571 9.65149 8.30231 9.75216 8.55656 9.92463V9.8289C8.55656 8.96162 7.842 8.25195 6.96873 8.25195C6.09546 8.25195 5.38089 8.96162 5.38089 9.8289V10.6491H3.24217C2.24012 10.6491 1.35106 11.2598 0.802672 12.3243C-0.178613 14.2288 -0.152024 17.5445 1.85126 21.0747C0.558389 18.0842 0.650618 15.3742 1.50062 13.7238Z" fill="url(#paint19_linear_266_10872)"/>
</g>
<mask id="mask4_266_10872" style="mask-type:luminance" maskUnits="userSpaceOnUse" x="5" y="19" width="11" height="8">
<g clip-path="url(#clip5_266_10872)">
<rect width="10.2673" height="6.64283" transform="translate(5.27866 19.4012)" fill="white"/>
<path d="M5.93002 20.3914C5.68491 20.0547 5.46888 19.7238 5.27777 19.4012C5.57772 20.1389 6.01228 20.9443 6.62797 21.791C8.6163 24.5265 12.4575 25.4565 14.6552 25.7692C14.6901 25.7742 14.7242 25.7849 14.7583 25.7989C15.0474 25.8064 15.3166 25.8963 15.5451 26.0432V25.9112C15.5451 25.0917 14.8804 24.4209 14.0603 24.3994C14.0262 24.3854 13.9922 24.3746 13.9573 24.3697C11.7596 24.0561 7.91835 23.1269 5.93002 20.3914Z" fill="url(#paint20_linear_266_10872)" style="mix-blend-mode:multiply"/>
</g>
</mask>
<g mask="url(#mask4_266_10872)">
<path d="M5.93002 20.3914C5.68491 20.0547 5.46888 19.7238 5.27777 19.4012C5.57772 20.1389 6.01228 20.9443 6.62797 21.791C8.6163 24.5265 12.4575 25.4565 14.6552 25.7692C14.6901 25.7742 14.7242 25.7849 14.7583 25.7989C15.0474 25.8064 15.3166 25.8963 15.5451 26.0432V25.9112C15.5451 25.0917 14.8804 24.4209 14.0603 24.3994C14.0262 24.3854 13.9922 24.3746 13.9573 24.3697C11.7596 24.0561 7.91835 23.1269 5.93002 20.3914Z" fill="url(#paint21_linear_266_10872)"/>
</g>
</g>
<path d="M5.51962 10.9008C5.51962 10.9008 3.5504 10.7275 2.55001 11.1533C1.54961 11.5791 1.00953 12.4307 0.707919 13.8187C0.406305 15.2067 1.50308 12.2112 2.59737 11.8003C4.02484 11.2639 5.62597 11.7689 5.7531 11.4224C5.88023 11.0758 5.51879 10.9017 5.51879 10.9017L5.51962 10.9008Z" fill="white"/>
<path d="M6.77427 8.59853C5.59274 8.71901 5.901 9.43445 6.20261 9.68696C6.50423 9.93947 7.85443 8.48878 6.77427 8.59853Z" fill="white"/>
<path d="M30.9549 28.3108C31.308 28.3067 39.5405 28.1524 43.572 22.6054C46.5366 18.5256 46.7319 14.502 45.6094 12.3235C45.061 11.259 44.1719 10.6483 43.1699 10.6483H39.4225V14.4335H42.3531C42.57 15.4122 42.4395 17.6955 40.4811 20.3914C38.4928 23.1269 34.6515 24.0569 32.4538 24.3697C31.4775 24.5091 30.9541 28.3108 30.9541 28.3108H30.9549Z" fill="url(#paint22_linear_266_10872)"/>
<path d="M38.3781 14.4335H40.5085C40.7972 14.4335 41.0311 14.2011 41.0311 13.9145V8.77101C41.0311 8.48435 40.7972 8.25196 40.5085 8.25196H38.3781C38.0895 8.25196 37.8555 8.48435 37.8555 8.77101V13.9145C37.8555 14.2011 38.0895 14.4335 38.3781 14.4335Z" fill="url(#paint23_linear_266_10872)"/>
<path d="M31.3886 30.5793H33.519C33.8077 30.5793 34.0417 30.3469 34.0417 30.0602V24.9168C34.0417 24.6301 33.8077 24.3977 33.519 24.3977H31.3886C31.1 24.3977 30.866 24.6301 30.866 24.9168V30.0602C30.866 30.3469 31.1 30.5793 31.3886 30.5793Z" fill="url(#paint24_linear_266_10872)"/>
<path d="M32.2478 24.4052C31.8747 24.6816 31.6304 25.1222 31.6304 25.6174V28.7713C31.6304 29.6039 32.3167 30.2855 33.1551 30.2855H33.2822C33.3304 30.2855 33.3778 30.283 33.4243 30.2781C33.1701 30.4662 32.8568 30.5793 32.517 30.5793H32.3899C31.5515 30.5793 30.8652 29.8977 30.8652 29.065V25.9111C30.8652 25.1264 31.475 24.4761 32.2469 24.4043L32.2478 24.4052Z" fill="url(#paint25_radial_266_10872)" style="mix-blend-mode:multiply"/>
<g style="mix-blend-mode:multiply">
<path d="M42.4187 14.8973C42.4054 14.7207 42.383 14.5655 42.3539 14.4335H39.4234C38.5601 14.4211 37.8563 13.7164 37.8563 12.8566V12.1626C37.8563 13.0232 38.5592 13.7271 39.4234 13.7387L39.4441 13.7395H42.3539C42.4162 14.0226 42.4495 14.4162 42.4187 14.8964V14.8973Z" fill="url(#paint26_radial_266_10872)"/>
<path d="M34.0425 27.2727C36.895 26.7388 41.0536 25.3781 43.572 21.9123C45.3784 19.4268 46.1553 16.9627 46.2334 14.9237C46.3223 17.084 45.5878 19.8319 43.572 22.6063C41.0536 26.0721 36.895 27.432 34.0425 27.9667V27.2727Z" fill="url(#paint27_radial_266_10872)"/>
</g>
<g style="mix-blend-mode:overlay">
<mask id="mask5_266_10872" style="mask-type:luminance" maskUnits="userSpaceOnUse" x="37" y="8" width="10" height="14">
<g clip-path="url(#clip6_266_10872)">
<rect width="8.38537" height="12.8227" transform="translate(37.8995 8.25195)" fill="white"/>
<path d="M44.9554 13.7238C44.4071 12.6593 43.518 12.0487 42.5159 12.0487H40.3772V11.2284C40.3772 10.3612 39.6627 9.65149 38.7894 9.65149C38.4604 9.65149 38.1538 9.75216 37.8995 9.92463V9.8289C37.8995 8.96162 38.6141 8.25195 39.4873 8.25195C40.3606 8.25195 41.0752 8.96162 41.0752 9.8289V10.6491H43.2139C44.216 10.6491 45.105 11.2598 45.6534 12.3243C46.6347 14.2288 46.6081 17.5445 44.6048 21.0747C45.8977 18.0842 45.8054 15.3742 44.9554 13.7238Z" fill="url(#paint28_linear_266_10872)" style="mix-blend-mode:multiply"/>
</g>
</mask>
<g mask="url(#mask5_266_10872)">
<path d="M44.9554 13.7238C44.4071 12.6593 43.518 12.0487 42.5159 12.0487H40.3772V11.2284C40.3772 10.3612 39.6627 9.65149 38.7894 9.65149C38.4604 9.65149 38.1538 9.75216 37.8995 9.92463V9.8289C37.8995 8.96162 38.6141 8.25195 39.4873 8.25195C40.3606 8.25195 41.0752 8.96162 41.0752 9.8289V10.6491H43.2139C44.216 10.6491 45.105 11.2598 45.6534 12.3243C46.6347 14.2288 46.6081 17.5445 44.6048 21.0747C45.8977 18.0842 45.8054 15.3742 44.9554 13.7238Z" fill="url(#paint29_linear_266_10872)"/>
</g>
<mask id="mask6_266_10872" style="mask-type:luminance" maskUnits="userSpaceOnUse" x="30" y="19" width="12" height="8">
<g clip-path="url(#clip7_266_10872)">
<rect width="10.2673" height="6.64283" transform="translate(30.91 19.4012)" fill="white"/>
<path d="M40.526 20.3914C40.7711 20.0547 40.9872 19.7238 41.1783 19.4012C40.8783 20.1389 40.4438 20.9443 39.8281 21.791C37.8397 24.5265 33.9985 25.4565 31.8008 25.7692C31.7659 25.7742 31.7318 25.7849 31.6978 25.7989C31.4086 25.8064 31.1394 25.8963 30.9109 26.0432V25.9112C30.9109 25.0917 31.5756 24.4209 32.3957 24.3994C32.4298 24.3854 32.4639 24.3746 32.4988 24.3697C34.6965 24.0561 38.5377 23.1269 40.526 20.3914Z" fill="url(#paint30_linear_266_10872)" style="mix-blend-mode:multiply"/>
</g>
</mask>
<g mask="url(#mask6_266_10872)">
<path d="M40.526 20.3914C40.7711 20.0547 40.9872 19.7238 41.1783 19.4012C40.8783 20.1389 40.4438 20.9443 39.8281 21.791C37.8397 24.5265 33.9985 25.4565 31.8008 25.7692C31.7659 25.7742 31.7318 25.7849 31.6978 25.7989C31.4086 25.8064 31.1394 25.8963 30.9109 26.0432V25.9112C30.9109 25.0917 31.5756 24.4209 32.3957 24.3994C32.4298 24.3854 32.4639 24.3746 32.4988 24.3697C34.6965 24.0561 38.5377 23.1269 40.526 20.3914Z" fill="url(#paint31_linear_266_10872)"/>
</g>
</g>
<path d="M40.9364 10.9008C40.9364 10.9008 42.9056 10.7275 43.906 11.1533C44.9064 11.5791 45.4465 12.4307 45.7481 13.8187C46.0497 15.2067 44.953 12.2112 43.8587 11.8003C42.4312 11.2639 40.8301 11.7689 40.7029 11.4224C40.5758 11.0758 40.9373 10.9017 40.9373 10.9017L40.9364 10.9008Z" fill="white"/>
<path d="M39.6818 8.59853C40.8633 8.71901 40.555 9.43445 40.2534 9.68696C39.9518 9.93947 38.6016 8.48878 39.6818 8.59853Z" fill="white"/>
<path d="M23.2284 29.7442C31.3197 29.7442 37.8787 21.8017 37.8787 12.005V7.978H8.57814V12.005C8.57814 21.8025 15.1372 29.7442 23.2284 29.7442Z" fill="url(#paint32_radial_266_10872)"/>
<path d="M8.57814 7.978V9.09614C12.7351 9.08128 27.1021 9.03755 32.419 9.10026C36.9606 9.1539 36.7329 11.0906 36.7329 11.0906C36.7329 20.8882 30.1764 28.5147 22.0851 28.5147C18.6278 28.5147 15.4513 27.064 12.9453 24.6387C15.59 27.7959 19.221 29.7442 23.2284 29.7442C31.3197 29.7442 37.8787 21.8017 37.8787 12.005V7.978H8.57814Z" fill="url(#paint33_radial_266_10872)" style="mix-blend-mode:multiply"/>
<path d="M38.6265 3.30655H7.83033C6.99196 3.30655 7.14401 3.98816 7.14401 4.82078V4.95116C7.14401 5.78379 7.83033 8.25195 8.6687 8.25195H37.789C38.6274 8.25195 39.3137 5.78379 39.3137 4.95116V4.82078C39.3137 3.98816 39.4666 3.30655 38.6274 3.30655H38.6265Z" fill="url(#paint34_radial_266_10872)"/>
<path d="M38.6265 3.30655H38.4687C38.4654 3.4328 38.4612 3.56484 38.4612 3.70099V3.83137C38.4612 4.664 37.7749 7.13216 36.9365 7.13216H7.81704C7.76718 7.13216 7.71816 7.12308 7.66997 7.10658C7.93835 7.74115 8.28732 8.25195 8.6687 8.25195H37.789C38.6274 8.25195 39.3137 5.78379 39.3137 4.95116V4.82078C39.3137 3.98816 39.4666 3.30655 38.6274 3.30655H38.6265Z" fill="url(#paint35_radial_266_10872)" style="mix-blend-mode:multiply"/>
<mask id="mask7_266_10872" style="mask-type:luminance" maskUnits="userSpaceOnUse" x="9" y="9" width="18" height="18">
<g clip-path="url(#clip8_266_10872)">
<rect width="17.4728" height="17.4422" transform="translate(9.34921 9.36185)" fill="white"/>
<path d="M9.84368 9.71596C8.67045 10.0568 9.76723 17.3135 11.2313 20.1737C13.2005 24.0216 17.2436 28.2969 21.6498 26.2925C28.3826 23.2294 27.0207 14.1827 25.8774 11.3424C24.8105 8.69272 11.1457 9.33802 9.84368 9.71596Z" fill="url(#paint36_linear_266_10872)" style="mix-blend-mode:multiply"/>
</g>
</mask>
<g mask="url(#mask7_266_10872)">
<path d="M9.84368 9.71596C8.67045 10.0568 9.76723 17.3135 11.2313 20.1737C13.2005 24.0216 17.2436 28.2969 21.6498 26.2925C28.3826 23.2294 27.0207 14.1827 25.8774 11.3424C24.8105 8.69272 11.1457 9.33802 9.84368 9.71596Z" fill="url(#paint37_linear_266_10872)" style="mix-blend-mode:overlay"/>
</g>
<mask id="mask8_266_10872" style="mask-type:luminance" maskUnits="userSpaceOnUse" x="10" y="9" width="14" height="14">
<g clip-path="url(#clip9_266_10872)">
<rect width="13.2694" height="12.8062" transform="translate(10.6138 9.84955)" fill="white"/>
<path d="M23.4968 10.8663C25.7535 11.4258 17.5617 26.9031 13.4712 21.5204C11.1057 18.4069 5.0767 6.30129 23.4968 10.8663Z" fill="url(#paint38_linear_266_10872)" style="mix-blend-mode:multiply"/>
</g>
</mask>
<g mask="url(#mask8_266_10872)">
<path d="M23.4968 10.8663C25.7535 11.4258 17.5617 26.9031 13.4712 21.5204C11.1057 18.4069 5.0767 6.30129 23.4968 10.8663Z" fill="url(#paint39_linear_266_10872)"/>
</g>
<mask id="mask9_266_10872" style="mask-type:luminance" maskUnits="userSpaceOnUse" x="7" y="3" width="32" height="5">
<g clip-path="url(#clip10_266_10872)">
<rect width="30.7688" height="3.42786" transform="translate(7.56279 3.6911)" fill="white"/>
<path d="M9.18793 7.02159C9.18793 7.02159 7.99726 7.52001 7.67903 6.26159C7.36163 5.00316 7.67903 3.6911 8.82234 3.6911H37.2771C37.2771 3.6911 41.9775 4.29019 31.529 4.19612C21.0805 4.10122 11.934 4.47999 11.1721 5.23669C10.4102 5.9934 9.85182 6.66428 9.1871 7.02159H9.18793Z" fill="url(#paint40_linear_266_10872)" style="mix-blend-mode:multiply"/>
</g>
</mask>
<g mask="url(#mask9_266_10872)">
<path d="M9.18793 7.02159C9.18793 7.02159 7.99726 7.52001 7.67903 6.26159C7.36163 5.00316 7.67903 3.6911 8.82234 3.6911H37.2771C37.2771 3.6911 41.9775 4.29019 31.529 4.19612C21.0805 4.10122 11.934 4.47999 11.1721 5.23669C10.4102 5.9934 9.85182 6.66428 9.1871 7.02159H9.18793Z" fill="url(#paint41_linear_266_10872)" style="mix-blend-mode:overlay"/>
</g>
<path d="M9.591 3.97498C8.64295 3.44603 7.47139 5.11127 8.21919 6.21703C8.93127 7.27163 10.4393 4.44781 9.591 3.97498Z" fill="white"/>
<path d="M13.2054 4.07068C11.7098 4.07068 10.559 4.47998 11.6807 4.63759C12.8032 4.7952 17.6997 4.07068 13.2054 4.07068Z" fill="white"/>
<mask id="mask10_266_10872" style="mask-type:luminance" maskUnits="userSpaceOnUse" x="23" y="28" width="12" height="15">
<g clip-path="url(#clip11_266_10872)">
<rect width="11.0143" height="13.5002" transform="translate(23.2284 28.5006)" fill="white"/>
<path d="M34.2311 40.4865V40.3561C34.2311 39.5235 33.5448 38.8419 32.7064 38.8419H32.3283C32.3267 38.7718 32.3258 38.7008 32.3258 38.6274V38.497C32.3258 37.6644 31.6395 36.9827 30.8011 36.9827H30.6865C29.9079 36.7896 27.392 35.9843 26.4847 33.4922C25.4045 30.5272 26.4847 28.4997 26.4847 28.4997H23.2276C23.2276 28.4997 24.3193 30.9885 24.3193 33.073C24.3193 36.2582 23.2276 36.9844 23.2276 36.9844C23.2375 36.9844 23.2467 36.9827 23.2566 36.9827H26.9541C27.3912 36.9827 27.7493 37.3384 27.7493 37.7725C27.7493 38.2065 27.3912 38.5622 26.9541 38.5622H23.2566C23.2467 38.5622 23.2367 38.5613 23.2276 38.5605V38.8419H27.9404C28.7787 38.8419 29.4651 39.5235 29.4651 40.3561V40.4865C29.4651 41.3191 28.7787 42.0008 27.9404 42.0008H33.5448C34.3831 42.0008 34.2311 41.3191 34.2311 40.4865Z" fill="url(#paint42_linear_266_10872)" style="mix-blend-mode:multiply"/>
</g>
</mask>
<g mask="url(#mask10_266_10872)">
<path d="M34.2311 40.4866V40.3562C34.2311 39.5236 33.5448 38.842 32.7064 38.842H32.3284C32.3267 38.7718 32.3259 38.7009 32.3259 38.6274V38.497C32.3259 37.6644 31.6396 36.9828 30.8012 36.9828H30.6865C29.908 36.7897 27.392 35.9843 26.4847 33.4922C25.4045 30.5273 26.1731 29.3828 26.1731 29.3828L25.7735 29.476L25.0315 29.6097L24.3368 29.7425H23.6223C23.6223 29.7425 24.3194 30.9878 24.3194 33.0722C24.3194 36.2575 23.2276 36.9836 23.2276 36.9836C23.2376 36.9836 23.2467 36.982 23.2567 36.982H26.9542C27.3912 36.982 27.7493 37.3376 27.7493 37.7717C27.7493 38.2057 27.3912 38.5614 26.9542 38.5614H23.2567C23.2467 38.5614 23.2367 38.5606 23.2276 38.5598V38.8411H27.9404C28.7788 38.8411 29.4651 39.5228 29.4651 40.3554V40.4858C29.4651 41.3184 28.7788 42 27.9404 42H33.5448C34.3832 42 34.2311 41.3184 34.2311 40.4858V40.4866Z" fill="url(#paint43_linear_266_10872)" style="mix-blend-mode:multiply"/>
</g>
<mask id="mask11_266_10872" style="mask-type:luminance" maskUnits="userSpaceOnUse" x="23" y="3" width="17" height="27">
<g clip-path="url(#clip12_266_10872)">
<rect width="16.0952" height="26.4343" transform="translate(23.2284 3.30655)" fill="white"/>
<path d="M38.6265 3.30649H23.2284C23.2284 3.30649 24.6019 3.71414 24.6019 5.16236C24.6019 6.28462 23.9389 7.52159 23.6397 8.02166C23.6372 8.02661 23.6339 8.03156 23.6314 8.03569C23.6223 8.05054 23.6148 8.06374 23.6065 8.07695C23.604 8.08107 23.6007 8.08602 23.5982 8.09098C23.5899 8.105 23.5824 8.11738 23.5749 8.12893C23.5733 8.13141 23.5708 8.13471 23.5691 8.13801C23.5234 8.21063 23.4968 8.25106 23.4968 8.25106C23.4968 8.25106 28.2902 9.45172 28.2902 16.4527C28.2902 23.4536 23.5035 29.7317 23.4968 29.74C31.4642 29.5667 37.8787 21.6935 37.8787 12.0049V8.24116C38.6756 8.07447 39.3129 5.7532 39.3129 4.95028V4.8199C39.3129 3.98728 39.4649 3.30566 38.6265 3.30566V3.30649Z" fill="url(#paint44_linear_266_10872)" style="mix-blend-mode:multiply"/>
</g>
</mask>
<g mask="url(#mask11_266_10872)">
<path d="M38.6265 3.30649H23.2284C23.2284 3.30649 24.6019 3.71414 24.6019 5.16236C24.6019 6.28462 23.9389 7.52159 23.6397 8.02166C23.6372 8.02661 23.6339 8.03156 23.6314 8.03569C23.6223 8.05054 23.6148 8.06374 23.6065 8.07695C23.604 8.08107 23.6007 8.08602 23.5982 8.09098C23.5899 8.105 23.5824 8.11738 23.5749 8.12893C23.5733 8.13141 23.5708 8.13471 23.5691 8.13801C23.5234 8.21063 23.4968 8.25106 23.4968 8.25106C23.4968 8.25106 28.2902 9.45172 28.2902 16.4527C28.2902 23.4536 23.5035 29.7317 23.4968 29.74C31.4642 29.5667 37.8787 21.6935 37.8787 12.0049V8.24116C38.6756 8.07447 39.3129 5.7532 39.3129 4.95028V4.8199C39.3129 3.98728 39.4649 3.30566 38.6265 3.30566V3.30649Z" fill="url(#paint45_linear_266_10872)" style="mix-blend-mode:multiply"/>
</g>
<path opacity="0.7" d="M5.09669 0C5.85447 1.31701 8.66787 5.00811 8.66787 5.00811C8.66787 5.00811 12.9054 9.17865 13.0666 9.31646C13.227 9.4551 9.46719 4.44451 9.46719 4.44451L5.09669 0Z" fill="white"/>
<path opacity="0.7" d="M5.1266 9.06229C6.26742 7.97964 9.62921 4.65905 9.62921 4.65905C9.62921 4.65905 12.4326 0.221969 12.5008 0.0957139C12.5207 0.0577549 8.9163 4.27121 8.9163 4.27121L5.1266 9.06147V9.06229Z" fill="white"/>
<path d="M9.94163 3.86522C8.90218 3.18361 9.09329 1.26255 9.08415 0.721222V1.24027C9.08166 1.15693 9.07667 1.06863 9.07667 1.04882V0.721222C9.07418 0.877184 9.06088 1.12309 9.021 1.40778C9.021 1.40778 8.7144 3.33214 8.1685 3.73319C6.93463 4.64255 3.82958 4.47091 5.02191 4.49237C9.04094 4.56333 9.04094 7.87485 9.07667 8.95915V8.41122C9.07916 8.45166 9.08249 8.48384 9.08415 8.5053V8.95915C9.1689 6.38949 9.15727 4.76386 12.667 4.546C13.8261 4.47174 11.1522 4.65906 9.94163 3.86522Z" fill="white"/>
<path opacity="0.7" d="M0 11.8523C0.813444 11.849 3.27289 11.5222 3.27289 11.5222C3.27289 11.5222 6.32974 10.6657 6.4361 10.6285C6.54328 10.5914 3.21971 11.0073 3.21971 11.0073L0 11.8523Z" fill="white"/>
<path opacity="0.7" d="M4.23589 14.2148C4.02983 13.4061 3.36262 10.9883 3.36262 10.9883C3.36262 10.9883 2.02821 8.53501 1.98749 8.46982C1.97503 8.45084 2.99537 11.2144 2.99537 11.2144L4.23589 14.2148Z" fill="white"/>
<path d="M3.0743 10.636C2.48354 10.9355 1.63769 10.3439 1.3826 10.206C1.45572 10.2473 1.53715 10.2927 1.62439 10.3422C1.58534 10.3216 1.54214 10.3009 1.533 10.2952C1.47899 10.2646 1.4283 10.2358 1.38011 10.2093C1.4524 10.2514 1.56374 10.3216 1.68588 10.4148C1.68588 10.4148 2.50348 11.061 2.54752 11.4166C2.64805 12.2228 1.75401 13.6067 2.0764 13.0637C3.16321 11.2326 4.70867 12.1015 5.22382 12.3697C5.15569 12.3309 5.06844 12.2822 4.96791 12.2261C4.98702 12.2352 5.00363 12.2426 5.01361 12.2476C5.09586 12.2938 5.16732 12.3342 5.22548 12.3664C4.04894 11.6534 3.28784 11.2326 4.10627 9.56074C4.37548 9.00786 3.76145 10.2877 3.0743 10.636Z" fill="white"/>
<path d="M29.9977 18.1865L26.6567 12.4605L26.1748 12.4481H20.2838L19.8043 12.4506L16.4583 18.1865L16.4168 18.4497L19.6548 24.104L19.9572 24.2525H26.6559L30.0401 18.4506L29.9977 18.1865Z" fill="url(#paint46_linear_266_10872)" style="mix-blend-mode:multiply"/>
<path d="M29.5765 18.2888L29.5715 18.2608L26.3966 12.8194L26.174 12.8137H20.2854L20.0611 12.8145L16.8837 18.2608L16.8788 18.2897L20.0577 23.7368L20.0602 23.736H26.3983H26.4L29.5765 18.2888Z" fill="url(#paint47_linear_266_10872)"/>
<mask id="mask12_266_10872" style="mask-type:luminance" maskUnits="userSpaceOnUse" x="19" y="14" width="9" height="8">
<g clip-path="url(#clip13_266_10872)">
<rect width="7.86855" height="6.76743" transform="translate(19.2883 14.9022)" fill="white"/>
<path d="M21.2559 21.6697L19.2883 18.2864L21.2559 14.9022H25.1902L27.1577 18.2864L25.1902 21.6697H21.2559Z" fill="url(#paint48_linear_266_10872)" style="mix-blend-mode:multiply"/>
</g>
</mask>
<g mask="url(#mask12_266_10872)">
<path opacity="0.5" d="M21.2559 21.6697L19.2883 18.2864L21.2559 14.9022H25.1902L27.1577 18.2864L25.1902 21.6697H21.2559Z" fill="url(#paint49_linear_266_10872)" style="mix-blend-mode:overlay"/>
</g>
<mask id="mask13_266_10872" style="mask-type:luminance" maskUnits="userSpaceOnUse" x="20" y="12" width="7" height="3">
<g clip-path="url(#clip14_266_10872)">
<rect width="6.33888" height="2.07619" transform="translate(20.0578 12.8137)" fill="white"/>
<path d="M20.0578 12.8137L21.2559 14.8899H25.1902L26.3975 12.8137H20.0578Z" fill="url(#paint50_linear_266_10872)" style="mix-blend-mode:multiply"/>
</g>
</mask>
<g mask="url(#mask13_266_10872)">
<path d="M20.0578 12.8137L21.2559 14.8899H25.1902L26.3975 12.8137H20.0578Z" fill="url(#paint51_linear_266_10872)" style="mix-blend-mode:overlay"/>
</g>
<g style="mix-blend-mode:overlay" opacity="0.53">
<mask id="mask14_266_10872" style="mask-type:luminance" maskUnits="userSpaceOnUse" x="22" y="14" width="4" height="8">
<g clip-path="url(#clip15_266_10872)">
<rect width="2.76438" height="6.76826" transform="translate(22.5396 14.8808)" fill="white"/>
<path d="M25.1187 21.649L25.1611 21.5764L25.304 15.1993L25.1187 14.8808H23.9804L22.5396 21.649H25.1187Z" fill="url(#paint52_linear_266_10872)" style="mix-blend-mode:multiply"/>
</g>
</mask>
<g mask="url(#mask14_266_10872)">
<path d="M25.1187 21.649L25.1611 21.5764L25.304 15.1993L25.1187 14.8808H23.9804L22.5396 21.649H25.1187Z" fill="url(#paint53_linear_266_10872)"/>
</g>
<mask id="mask15_266_10872" style="mask-type:luminance" maskUnits="userSpaceOnUse" x="19" y="14" width="5" height="7">
<g clip-path="url(#clip16_266_10872)">
<rect width="4.69039" height="5.28125" transform="translate(19.2883 14.8808)" fill="white"/>
<path d="M19.2883 18.3862L20.3203 20.162L23.9787 14.8808H21.7619L19.2883 18.3862Z" fill="url(#paint54_linear_266_10872)" style="mix-blend-mode:multiply"/>
</g>
</mask>
<g mask="url(#mask15_266_10872)">
<path d="M19.2883 18.3862L20.3203 20.162L23.9787 14.8808H21.7619L19.2883 18.3862Z" fill="url(#paint55_linear_266_10872)"/>
</g>
</g>
<mask id="mask16_266_10872" style="mask-type:luminance" maskUnits="userSpaceOnUse" x="20" y="12" width="7" height="3">
<g clip-path="url(#clip17_266_10872)">
<rect width="5.88854" height="1.82698" transform="translate(20.2829 12.8137)" fill="white"/>
<path d="M20.2829 12.8137L21.3963 14.6406H25.0506L26.1723 12.8137H20.2829Z" fill="url(#paint56_linear_266_10872)" style="mix-blend-mode:multiply"/>
</g>
</mask>
<g mask="url(#mask16_266_10872)">
<path d="M20.2829 12.8137L21.3963 14.6406H25.0506L26.1723 12.8137H20.2829Z" fill="url(#paint57_linear_266_10872)" style="mix-blend-mode:overlay"/>
</g>
<g opacity="0.24" style="mix-blend-mode:multiply">
<path d="M26.3975 23.736L25.1993 21.6589H21.265L20.0578 23.736H26.3975Z" fill="#310000"/>
</g>
<mask id="mask17_266_10872" style="mask-type:luminance" maskUnits="userSpaceOnUse" x="20" y="21" width="6" height="3">
<g clip-path="url(#clip18_266_10872)">
<rect width="5.52959" height="1.74529" transform="translate(20.4632 21.8339)" fill="white"/>
<path d="M25.992 23.58L24.9476 21.8339H21.516L20.4632 23.58H25.992Z" fill="url(#paint58_linear_266_10872)" style="mix-blend-mode:multiply"/>
</g>
</mask>
<g mask="url(#mask17_266_10872)">
<path opacity="0.25" d="M25.992 23.58L24.9476 21.8339H21.516L20.4632 23.58H25.992Z" fill="url(#paint59_linear_266_10872)" style="mix-blend-mode:overlay"/>
</g>
<mask id="mask18_266_10872" style="mask-type:luminance" maskUnits="userSpaceOnUse" x="16" y="12" width="6" height="7">
<g clip-path="url(#clip19_266_10872)">
<rect width="4.38213" height="5.4595" transform="translate(16.8813 12.8137)" fill="white"/>
<path d="M16.8813 18.2608L19.2908 18.2723L21.2634 14.8915L20.0594 12.8137L16.8813 18.2608Z" fill="url(#paint60_linear_266_10872)" style="mix-blend-mode:multiply"/>
</g>
</mask>
<g mask="url(#mask18_266_10872)">
<path d="M16.8813 18.2608L19.2908 18.2723L21.2634 14.8915L20.0594 12.8137L16.8813 18.2608Z" fill="url(#paint61_linear_266_10872)" style="mix-blend-mode:overlay"/>
</g>
<g opacity="0.23" style="mix-blend-mode:multiply">
<path d="M29.574 18.2888L27.1644 18.2773L25.1918 21.6581L26.3958 23.7368L29.574 18.2888Z" fill="#310000"/>
</g>
<mask id="mask19_266_10872" style="mask-type:luminance" maskUnits="userSpaceOnUse" x="25" y="18" width="5" height="6">
<g clip-path="url(#clip20_266_10872)">
<rect width="3.87778" height="4.8307" transform="translate(25.437 18.5917)" fill="white"/>
<path d="M29.3147 18.6016L27.1827 18.5917L25.437 21.583L26.5022 23.4224L29.3147 18.6016Z" fill="url(#paint62_linear_266_10872)" style="mix-blend-mode:multiply"/>
</g>
</mask>
<g mask="url(#mask19_266_10872)">
<path d="M29.3147 18.6016L27.1827 18.5917L25.437 21.583L26.5022 23.4224L29.3147 18.6016Z" fill="url(#paint63_linear_266_10872)" style="mix-blend-mode:overlay"/>
</g>
<g opacity="0.1" style="mix-blend-mode:multiply">
<path d="M20.0553 23.7368L21.2634 21.6663L19.2908 18.2863L16.8763 18.2896L20.0553 23.7368Z" fill="#310000"/>
</g>
<mask id="mask20_266_10872" style="mask-type:luminance" maskUnits="userSpaceOnUse" x="17" y="18" width="5" height="6">
<g clip-path="url(#clip21_266_10872)">
<rect width="3.87778" height="4.8307" transform="translate(17.1953 18.5917)" fill="white"/>
<path d="M17.1953 18.6016L19.3282 18.5917L21.0731 21.583L20.0079 23.4224L17.1953 18.6016Z" fill="url(#paint64_linear_266_10872)" style="mix-blend-mode:multiply"/>
</g>
</mask>
<g mask="url(#mask20_266_10872)">
<path opacity="0.53" d="M17.1953 18.6016L19.3282 18.5917L21.0731 21.583L20.0079 23.4224L17.1953 18.6016Z" fill="url(#paint65_linear_266_10872)" style="mix-blend-mode:overlay"/>
</g>
<mask id="mask21_266_10872" style="mask-type:luminance" maskUnits="userSpaceOnUse" x="17" y="13" width="5" height="5">
<g clip-path="url(#clip22_266_10872)">
<rect width="3.87778" height="4.8307" transform="translate(17.1629 13.1281)" fill="white"/>
<path d="M17.1629 17.948L19.2958 17.9588L21.0407 14.9674L19.9755 13.1281L17.1629 17.948Z" fill="url(#paint66_linear_266_10872)" style="mix-blend-mode:multiply"/>
</g>
</mask>
<g mask="url(#mask21_266_10872)">
<path d="M17.1629 17.948L19.2958 17.9587L21.0407 14.9674L19.9755 13.1281L17.1629 17.948Z" fill="url(#paint67_linear_266_10872)" style="mix-blend-mode:overlay"/>
</g>
<mask id="mask22_266_10872" style="mask-type:luminance" maskUnits="userSpaceOnUse" x="25" y="12" width="5" height="7">
<g clip-path="url(#clip23_266_10872)">
<rect width="4.38711" height="5.45124" transform="translate(25.1827 12.8137)" fill="white"/>
<path d="M26.3908 12.8137L25.1827 14.8841L27.1552 18.2649L29.5698 18.2608L26.3908 12.8137Z" fill="url(#paint68_linear_266_10872)" style="mix-blend-mode:multiply"/>
</g>
</mask>
<g mask="url(#mask22_266_10872)">
<path d="M26.3908 12.8137L25.1827 14.8841L27.1552 18.2649L29.5698 18.2608L26.3908 12.8137Z" fill="url(#paint69_linear_266_10872)" style="mix-blend-mode:overlay"/>
</g>
<mask id="mask23_266_10872" style="mask-type:luminance" maskUnits="userSpaceOnUse" x="25" y="13" width="5" height="5">
<g clip-path="url(#clip24_266_10872)">
<rect width="3.87778" height="4.8307" transform="translate(25.4046 13.1281)" fill="white"/>
<path d="M29.2823 17.948L27.1494 17.9588L25.4046 14.9674L26.4698 13.1281L29.2823 17.948Z" fill="url(#paint70_linear_266_10872)" style="mix-blend-mode:multiply"/>
</g>
</mask>
<g mask="url(#mask23_266_10872)">
<path d="M29.2823 17.948L27.1494 17.9587L25.4046 14.9674L26.4698 13.1281L29.2823 17.948Z" fill="url(#paint71_linear_266_10872)" style="mix-blend-mode:overlay"/>
</g>
<mask id="mask24_266_10872" style="mask-type:luminance" maskUnits="userSpaceOnUse" x="19" y="14" width="8" height="7">
<g clip-path="url(#clip25_266_10872)">
<rect width="7.19055" height="5.15087" transform="translate(19.2883 14.8915)" fill="white"/>
<path d="M26.4789 17.1079L25.1902 14.8906H21.2559L19.2883 18.2748L20.3162 20.0415C20.8704 19.3987 21.6655 18.571 22.6344 17.9909C24.0402 17.1492 25.7186 17.0865 26.4789 17.1079Z" fill="url(#paint72_linear_266_10872)" style="mix-blend-mode:multiply"/>
</g>
</mask>
<g mask="url(#mask24_266_10872)">
<path opacity="0.4" d="M26.4789 17.1079L25.1902 14.8906H21.2559L19.2883 18.2748L20.3162 20.0415C20.8704 19.3987 21.6655 18.571 22.6344 17.9909C24.0402 17.1492 25.7186 17.0865 26.4789 17.1079Z" fill="url(#paint73_linear_266_10872)" style="mix-blend-mode:overlay"/>
</g>
<path d="M20.0578 12.8137L21.0731 14.8915L19.2294 18.1337L16.8763 18.2897L19.1903 18.4242L21.0407 21.2892L19.4254 18.34L21.2634 15.0169L25.1204 15.0046L26.8894 17.8094L25.304 14.8915L26.3975 12.8417L25.1204 14.7966H21.2634L20.0578 12.8137Z" fill="white"/>
<path opacity="0.7" d="M23.1021 12.6272C23.496 13.4317 24.955 15.6878 24.955 15.6878C24.955 15.6878 27.1536 18.2377 27.2375 18.3218C27.3206 18.4068 25.3696 15.3437 25.3696 15.3437L23.1021 12.6272Z" fill="white"/>
<path opacity="0.7" d="M23.1171 18.1659C23.7095 17.5041 25.4536 15.4749 25.4536 15.4749C25.4536 15.4749 26.9085 12.7625 26.9442 12.6849C26.9542 12.6618 25.0838 15.2373 25.0838 15.2373L23.1171 18.1651V18.1659Z" fill="white"/>
<path d="M25.6164 14.9889C25.0772 14.5721 25.1769 13.3987 25.1711 13.0678V13.3847C25.1694 13.3335 25.1669 13.2791 25.1669 13.2675V13.067C25.1652 13.1619 25.1586 13.3121 25.1387 13.4862C25.1387 13.4862 24.9791 14.6629 24.6958 14.9088C24.056 15.4634 22.4441 15.3586 23.0631 15.3718C25.1486 15.4163 25.1486 17.4397 25.1669 18.1032V17.7681C25.1686 17.7921 25.1694 17.8119 25.1711 17.8259V18.1032C25.2151 16.532 25.2093 15.5393 27.0306 15.4056C27.6322 15.361 26.2437 15.4749 25.6164 14.9889Z" fill="white"/>
<path opacity="0.7" d="M19.6897 19.0918C19.9356 19.5951 20.8488 21.0054 20.8488 21.0054C20.8488 21.0054 22.2239 22.5997 22.2762 22.6525C22.3286 22.7053 21.1088 20.79 21.1088 20.79L19.6905 19.0909L19.6897 19.0918Z" fill="white"/>
<path opacity="0.7" d="M19.6996 22.5559C20.0702 22.1417 21.1603 20.8725 21.1603 20.8725C21.1603 20.8725 22.0702 19.1767 22.0918 19.1281C22.0984 19.1132 20.9285 20.724 20.9285 20.724L19.6988 22.5551L19.6996 22.5559Z" fill="white"/>
<path d="M21.2617 20.5689C20.9244 20.3081 20.9867 19.5745 20.9834 19.3674V19.5654C20.9825 19.5332 20.9809 19.4994 20.9809 19.492V19.3665C20.9809 19.426 20.9759 19.52 20.9634 19.629C20.9634 19.629 20.8637 20.365 20.6867 20.5177C20.2862 20.8651 19.2792 20.7991 19.6656 20.8073C20.9692 20.8346 20.9692 22.1004 20.9809 22.5155V22.3059C20.9817 22.3216 20.9825 22.334 20.9834 22.3414V22.5147C21.0108 21.5327 21.0075 20.9113 22.1458 20.828C22.5222 20.7999 21.6539 20.8709 21.2617 20.5672V20.5689Z" fill="white"/>
</g>
<defs>
<radialGradient id="paint0_radial_266_10872" cx="0" cy="0" r="1" gradientUnits="userSpaceOnUse" gradientTransform="translate(15.8086 27.8059) scale(25.1511 24.9787)">
<stop offset="0.25" stop-color="#D3D3D3"/>
<stop offset="1" stop-color="#999999"/>
</radialGradient>
<radialGradient id="paint1_radial_266_10872" cx="0" cy="0" r="1" gradientUnits="userSpaceOnUse" gradientTransform="translate(25.3314 29.4042) scale(8.96617 8.90469)">
<stop offset="0.25" stop-color="#D3D3D3"/>
<stop offset="1" stop-color="#999999"/>
</radialGradient>
<linearGradient id="paint2_linear_266_10872" x1="19.5151" y1="32.0794" x2="22.7941" y2="35.5505" gradientUnits="userSpaceOnUse">
<stop stop-color="white"/>
<stop offset="1" stop-color="#383838"/>
</linearGradient>
<linearGradient id="paint3_linear_266_10872" x1="19.5151" y1="32.0794" x2="22.7941" y2="35.5505" gradientUnits="userSpaceOnUse">
<stop stop-color="white"/>
<stop offset="1" stop-color="white"/>
</linearGradient>
<linearGradient id="paint4_linear_266_10872" x1="22.5862" y1="34.598" x2="23.6305" y2="41.7916" gradientUnits="userSpaceOnUse">
<stop offset="0.25" stop-color="#D3D3D3"/>
<stop offset="1" stop-color="#999999"/>
</linearGradient>
<linearGradient id="paint5_linear_266_10872" x1="18.9078" y1="37.0827" x2="19.614" y2="39.842" gradientUnits="userSpaceOnUse">
<stop stop-color="white"/>
<stop offset="1" stop-color="#383838"/>
</linearGradient>
<linearGradient id="paint6_linear_266_10872" x1="18.9078" y1="37.0827" x2="19.614" y2="39.842" gradientUnits="userSpaceOnUse">
<stop stop-color="white"/>
<stop offset="1" stop-color="white"/>
</linearGradient>
<radialGradient id="paint7_radial_266_10872" cx="0" cy="0" r="1" gradientUnits="userSpaceOnUse" gradientTransform="translate(23.2284 38.5631) scale(6.5383 6.49347)">
<stop offset="0.25" stop-color="#D3D3D3"/>
<stop offset="1" stop-color="#999999"/>
</radialGradient>
<linearGradient id="paint8_linear_266_10872" x1="22.8712" y1="32.5177" x2="23.3719" y2="44.4189" gradientUnits="userSpaceOnUse">
<stop offset="0.25" stop-color="#D3D3D3"/>
<stop offset="1" stop-color="#999999"/>
</linearGradient>
<linearGradient id="paint9_linear_266_10872" x1="17.659" y1="39.3403" x2="18.626" y2="43.1221" gradientUnits="userSpaceOnUse">
<stop stop-color="white"/>
<stop offset="1" stop-color="#383838"/>
</linearGradient>
<linearGradient id="paint10_linear_266_10872" x1="17.659" y1="39.3403" x2="18.626" y2="43.1221" gradientUnits="userSpaceOnUse">
<stop stop-color="white"/>
<stop offset="1" stop-color="white"/>
</linearGradient>
<radialGradient id="paint11_radial_266_10872" cx="0" cy="0" r="1" gradientUnits="userSpaceOnUse" gradientTransform="translate(23.2284 40.4214) scale(7.86772 7.81378)">
<stop offset="0.25" stop-color="#D3D3D3"/>
<stop offset="1" stop-color="#999999"/>
</radialGradient>
<linearGradient id="paint12_linear_266_10872" x1="5.62099" y1="11.6361" x2="10.4476" y2="34.7376" gradientUnits="userSpaceOnUse">
<stop stop-color="#D3D3D3"/>
<stop offset="1" stop-color="#8E8E8E"/>
</linearGradient>
<linearGradient id="paint13_linear_266_10872" x1="7.01273" y1="11.3456" x2="11.8402" y2="34.4463" gradientUnits="userSpaceOnUse">
<stop stop-color="#D3D3D3"/>
<stop offset="1" stop-color="#8E8E8E"/>
</linearGradient>
<linearGradient id="paint14_linear_266_10872" x1="10.2175" y1="9.62425" x2="15.3327" y2="34.1055" gradientUnits="userSpaceOnUse">
<stop stop-color="#D3D3D3"/>
<stop offset="1" stop-color="#8E8E8E"/>
</linearGradient>
<radialGradient id="paint15_radial_266_10872" cx="0" cy="0" r="1" gradientUnits="userSpaceOnUse" gradientTransform="translate(14.3105 27.4922) scale(2.37718 2.36089)">
<stop offset="0.25" stop-color="#D3D3D3"/>
<stop offset="1" stop-color="#999999"/>
</radialGradient>
<radialGradient id="paint16_radial_266_10872" cx="0" cy="0" r="1" gradientUnits="userSpaceOnUse" gradientTransform="translate(6.3123 13.5299) scale(1.88779 1.87485)">
<stop offset="0.25" stop-color="#D3D3D3"/>
<stop offset="1" stop-color="#999999"/>
</radialGradient>
<radialGradient id="paint17_radial_266_10872" cx="0" cy="0" r="1" gradientUnits="userSpaceOnUse" gradientTransform="translate(6.31396 21.4452) scale(6.33722 6.29377)">
<stop offset="0.25" stop-color="#D3D3D3"/>
<stop offset="1" stop-color="#999999"/>
</radialGradient>
<linearGradient id="paint18_linear_266_10872" x1="-12.1726" y1="-20.3881" x2="3.53103" y2="12.3165" gradientUnits="userSpaceOnUse">
<stop stop-color="white"/>
<stop offset="1" stop-color="#383838"/>
</linearGradient>
<linearGradient id="paint19_linear_266_10872" x1="-12.1725" y1="-20.3881" x2="3.53113" y2="12.3165" gradientUnits="userSpaceOnUse">
<stop stop-color="white"/>
<stop offset="1" stop-color="white"/>
</linearGradient>
<linearGradient id="paint20_linear_266_10872" x1="-8.10209" y1="-15.5228" x2="9.14056" y2="20.3887" gradientUnits="userSpaceOnUse">
<stop stop-color="white"/>
<stop offset="1" stop-color="#383838"/>
</linearGradient>
<linearGradient id="paint21_linear_266_10872" x1="-8.10209" y1="-15.5228" x2="9.14056" y2="20.3887" gradientUnits="userSpaceOnUse">
<stop stop-color="white"/>
<stop offset="1" stop-color="white"/>
</linearGradient>
<linearGradient id="paint22_linear_266_10872" x1="40.835" y1="11.6361" x2="36.0084" y2="34.7376" gradientUnits="userSpaceOnUse">
<stop stop-color="#D3D3D3"/>
<stop offset="1" stop-color="#8E8E8E"/>
</linearGradient>
<linearGradient id="paint23_linear_266_10872" x1="39.4433" y1="11.3456" x2="34.3084" y2="35.9202" gradientUnits="userSpaceOnUse">
<stop stop-color="#D3D3D3"/>
<stop offset="1" stop-color="#8E8E8E"/>
</linearGradient>
<linearGradient id="paint24_linear_266_10872" x1="36.2377" y1="9.62426" x2="31.1225" y2="34.1055" gradientUnits="userSpaceOnUse">
<stop stop-color="#D3D3D3"/>
<stop offset="1" stop-color="#8E8E8E"/>
</linearGradient>
<radialGradient id="paint25_radial_266_10872" cx="0" cy="0" r="1" gradientUnits="userSpaceOnUse" gradientTransform="translate(32.1456 27.4922) rotate(180) scale(2.37718 2.36089)">
<stop offset="0.25" stop-color="#D3D3D3"/>
<stop offset="1" stop-color="#999999"/>
</radialGradient>
<radialGradient id="paint26_radial_266_10872" cx="0" cy="0" r="1" gradientUnits="userSpaceOnUse" gradientTransform="translate(40.1438 13.5299) rotate(180) scale(1.88779 1.87485)">
<stop offset="0.25" stop-color="#D3D3D3"/>
<stop offset="1" stop-color="#999999"/>
</radialGradient>
<radialGradient id="paint27_radial_266_10872" cx="0" cy="0" r="1" gradientUnits="userSpaceOnUse" gradientTransform="translate(40.1421 21.4452) rotate(180) scale(6.33722 6.29377)">
<stop offset="0.25" stop-color="#D3D3D3"/>
<stop offset="1" stop-color="#999999"/>
</radialGradient>
<linearGradient id="paint28_linear_266_10872" x1="58.6286" y1="-20.3881" x2="42.9258" y2="12.3165" gradientUnits="userSpaceOnUse">
<stop stop-color="white"/>
<stop offset="1" stop-color="#383838"/>
</linearGradient>
<linearGradient id="paint29_linear_266_10872" x1="58.6286" y1="-20.3881" x2="42.9258" y2="12.3165" gradientUnits="userSpaceOnUse">
<stop stop-color="white"/>
<stop offset="1" stop-color="white"/>
</linearGradient>
<linearGradient id="paint30_linear_266_10872" x1="54.5581" y1="-15.5228" x2="37.3155" y2="20.3887" gradientUnits="userSpaceOnUse">
<stop stop-color="white"/>
<stop offset="1" stop-color="#383838"/>
</linearGradient>
<linearGradient id="paint31_linear_266_10872" x1="54.5581" y1="-15.5228" x2="37.3155" y2="20.3887" gradientUnits="userSpaceOnUse">
<stop stop-color="white"/>
<stop offset="1" stop-color="white"/>
</linearGradient>
<radialGradient id="paint32_radial_266_10872" cx="0" cy="0" r="1" gradientUnits="userSpaceOnUse" gradientTransform="translate(22.8911 10.2704) scale(23.1728 23.0139)">
<stop offset="0.25" stop-color="#D3D3D3"/>
<stop offset="1" stop-color="#999999"/>
</radialGradient>
<radialGradient id="paint33_radial_266_10872" cx="0" cy="0" r="1" gradientUnits="userSpaceOnUse" gradientTransform="translate(15.9249 18.996) scale(22.6427 22.4874)">
<stop offset="0.25" stop-color="#D3D3D3"/>
<stop offset="1" stop-color="#999999"/>
</radialGradient>
<radialGradient id="paint34_radial_266_10872" cx="0" cy="0" r="1" gradientUnits="userSpaceOnUse" gradientTransform="translate(6.3771 5.41327) scale(39.3885 39.1184)">
<stop stop-color="#B1B1B1"/>
<stop offset="0.25" stop-color="#D3D3D3"/>
<stop offset="1" stop-color="#999999"/>
</radialGradient>
<radialGradient id="paint35_radial_266_10872" cx="0" cy="0" r="1" gradientUnits="userSpaceOnUse" gradientTransform="translate(8.79416 2.95089) scale(41.9003 41.613)">
<stop offset="0.25" stop-color="#D3D3D3"/>
<stop offset="1" stop-color="#999999"/>
</radialGradient>
<linearGradient id="paint36_linear_266_10872" x1="9.34929" y1="18.0835" x2="26.8213" y2="18.0835" gradientUnits="userSpaceOnUse">
<stop stop-color="white"/>
<stop offset="1" stop-color="#383838"/>
</linearGradient>
<linearGradient id="paint37_linear_266_10872" x1="9.34929" y1="18.0835" x2="26.8213" y2="18.0835" gradientUnits="userSpaceOnUse">
<stop stop-color="white"/>
<stop offset="1" stop-color="white"/>
</linearGradient>
<linearGradient id="paint38_linear_266_10872" x1="10.6138" y1="16.2523" x2="23.8831" y2="16.2523" gradientUnits="userSpaceOnUse">
<stop stop-color="white"/>
<stop offset="1" stop-color="#383838"/>
</linearGradient>
<linearGradient id="paint39_linear_266_10872" x1="10.6138" y1="16.2523" x2="23.8831" y2="16.2523" gradientUnits="userSpaceOnUse">
<stop stop-color="white"/>
<stop offset="1" stop-color="white"/>
</linearGradient>
<linearGradient id="paint40_linear_266_10872" x1="7.56271" y1="5.40503" x2="38.3323" y2="5.40503" gradientUnits="userSpaceOnUse">
<stop stop-color="white"/>
<stop offset="1" stop-color="#383838"/>
</linearGradient>
<linearGradient id="paint41_linear_266_10872" x1="7.56271" y1="5.40503" x2="38.3323" y2="5.40503" gradientUnits="userSpaceOnUse">
<stop stop-color="white"/>
<stop offset="1" stop-color="white"/>
</linearGradient>
<linearGradient id="paint42_linear_266_10872" x1="11.7895" y1="34.9701" x2="34.9513" y2="35.3968" gradientUnits="userSpaceOnUse">
<stop offset="0.25"/>
<stop offset="1" stop-color="white"/>
</linearGradient>
<linearGradient id="paint43_linear_266_10872" x1="12.0945" y1="35.4207" x2="34.9348" y2="35.8407" gradientUnits="userSpaceOnUse">
<stop offset="0.25" stop-color="#D3D3D3"/>
<stop offset="1" stop-color="#999999"/>
</linearGradient>
<linearGradient id="paint44_linear_266_10872" x1="6.77427" y1="16.0822" x2="39.9616" y2="16.6929" gradientUnits="userSpaceOnUse">
<stop offset="0.25"/>
<stop offset="1" stop-color="white"/>
</linearGradient>
<linearGradient id="paint45_linear_266_10872" x1="6.77427" y1="16.0822" x2="39.9616" y2="16.6929" gradientUnits="userSpaceOnUse">
<stop offset="0.25" stop-color="#D3D3D3"/>
<stop offset="1" stop-color="#999999"/>
</linearGradient>
<linearGradient id="paint46_linear_266_10872" x1="16.4168" y1="18.3499" x2="30.0401" y2="18.3499" gradientUnits="userSpaceOnUse">
<stop offset="0.25" stop-color="#D3D3D3"/>
<stop offset="1" stop-color="#999999"/>
</linearGradient>
<linearGradient id="paint47_linear_266_10872" x1="16.8788" y1="18.2748" x2="29.5765" y2="18.2748" gradientUnits="userSpaceOnUse">
<stop stop-color="#00BAFF"/>
<stop offset="1" stop-color="#0013A8"/>
</linearGradient>
<linearGradient id="paint48_linear_266_10872" x1="19.2883" y1="18.2864" x2="27.1577" y2="18.2864" gradientUnits="userSpaceOnUse">
<stop stop-color="white"/>
<stop offset="1" stop-color="#595959"/>
</linearGradient>
<linearGradient id="paint49_linear_266_10872" x1="19.2883" y1="18.2864" x2="27.1577" y2="18.2864" gradientUnits="userSpaceOnUse">
<stop stop-color="white"/>
<stop offset="1" stop-color="white"/>
</linearGradient>
<linearGradient id="paint50_linear_266_10872" x1="23.2276" y1="14.8486" x2="23.2276" y2="12.7204" gradientUnits="userSpaceOnUse">
<stop stop-color="white"/>
<stop offset="1" stop-color="#595959"/>
</linearGradient>
<linearGradient id="paint51_linear_266_10872" x1="23.2276" y1="14.8486" x2="23.2276" y2="12.7204" gradientUnits="userSpaceOnUse">
<stop stop-color="white"/>
<stop offset="1" stop-color="white"/>
</linearGradient>
<linearGradient id="paint52_linear_266_10872" x1="22.5396" y1="18.2649" x2="25.304" y2="18.2649" gradientUnits="userSpaceOnUse">
<stop stop-color="#595959"/>
<stop offset="1" stop-color="white"/>
</linearGradient>
<linearGradient id="paint53_linear_266_10872" x1="22.5396" y1="18.2649" x2="25.304" y2="18.2649" gradientUnits="userSpaceOnUse">
<stop stop-color="white"/>
<stop offset="1" stop-color="white"/>
</linearGradient>
<linearGradient id="paint54_linear_266_10872" x1="19.2883" y1="17.5214" x2="23.9787" y2="17.5214" gradientUnits="userSpaceOnUse">
<stop stop-color="#595959"/>
<stop offset="1" stop-color="white"/>
</linearGradient>
<linearGradient id="paint55_linear_266_10872" x1="19.2883" y1="17.5214" x2="23.9787" y2="17.5214" gradientUnits="userSpaceOnUse">
<stop stop-color="white"/>
<stop offset="1" stop-color="white"/>
</linearGradient>
<linearGradient id="paint56_linear_266_10872" x1="20.2829" y1="13.7272" x2="26.1723" y2="13.7272" gradientUnits="userSpaceOnUse">
<stop stop-color="white"/>
<stop offset="1" stop-color="#595959"/>
</linearGradient>
<linearGradient id="paint57_linear_266_10872" x1="20.2829" y1="13.7272" x2="26.1723" y2="13.7272" gradientUnits="userSpaceOnUse">
<stop stop-color="white"/>
<stop offset="1" stop-color="white"/>
</linearGradient>
<linearGradient id="paint58_linear_266_10872" x1="20.4632" y1="22.7069" x2="25.992" y2="22.7069" gradientUnits="userSpaceOnUse">
<stop stop-color="#595959"/>
<stop offset="1" stop-color="white"/>
</linearGradient>
<linearGradient id="paint59_linear_266_10872" x1="20.4632" y1="22.7069" x2="25.992" y2="22.7069" gradientUnits="userSpaceOnUse">
<stop stop-color="white"/>
<stop offset="1" stop-color="white"/>
</linearGradient>
<linearGradient id="paint60_linear_266_10872" x1="17.7929" y1="18.7825" x2="20.9383" y2="13.3167" gradientUnits="userSpaceOnUse">
<stop stop-color="#595959"/>
<stop offset="1" stop-color="white"/>
</linearGradient>
<linearGradient id="paint61_linear_266_10872" x1="17.7929" y1="18.7825" x2="20.9383" y2="13.3167" gradientUnits="userSpaceOnUse">
<stop stop-color="white"/>
<stop offset="1" stop-color="white"/>
</linearGradient>
<linearGradient id="paint62_linear_266_10872" x1="26.9882" y1="21.6325" x2="28.3301" y2="16.2281" gradientUnits="userSpaceOnUse">
<stop stop-color="#595959"/>
<stop offset="1" stop-color="white"/>
</linearGradient>
<linearGradient id="paint63_linear_266_10872" x1="26.9882" y1="21.6325" x2="28.3301" y2="16.2281" gradientUnits="userSpaceOnUse">
<stop stop-color="white"/>
<stop offset="1" stop-color="white"/>
</linearGradient>
<linearGradient id="paint64_linear_266_10872" x1="17.5476" y1="17.0461" x2="20.6503" y2="23.0866" gradientUnits="userSpaceOnUse">
<stop stop-color="#595959"/>
<stop offset="1" stop-color="white"/>
</linearGradient>
<linearGradient id="paint65_linear_266_10872" x1="17.5476" y1="17.0461" x2="20.6503" y2="23.0866" gradientUnits="userSpaceOnUse">
<stop stop-color="white"/>
<stop offset="1" stop-color="white"/>
</linearGradient>
<linearGradient id="paint66_linear_266_10872" x1="17.1629" y1="15.5434" x2="21.0407" y2="15.5434" gradientUnits="userSpaceOnUse">
<stop stop-color="#595959"/>
<stop offset="1" stop-color="white"/>
</linearGradient>
<linearGradient id="paint67_linear_266_10872" x1="17.1629" y1="15.5434" x2="21.0407" y2="15.5434" gradientUnits="userSpaceOnUse">
<stop stop-color="white"/>
<stop offset="1" stop-color="white"/>
</linearGradient>
<linearGradient id="paint68_linear_266_10872" x1="25.4904" y1="13.3409" x2="28.6362" y2="18.8074" gradientUnits="userSpaceOnUse">
<stop stop-color="#595959"/>
<stop offset="1" stop-color="white"/>
</linearGradient>
<linearGradient id="paint69_linear_266_10872" x1="25.4904" y1="13.3409" x2="28.6362" y2="18.8074" gradientUnits="userSpaceOnUse">
<stop stop-color="white"/>
<stop offset="1" stop-color="white"/>
</linearGradient>
<linearGradient id="paint70_linear_266_10872" x1="25.4046" y1="15.5434" x2="29.2823" y2="15.5434" gradientUnits="userSpaceOnUse">
<stop stop-color="white"/>
<stop offset="1" stop-color="#595959"/>
</linearGradient>
<linearGradient id="paint71_linear_266_10872" x1="25.4046" y1="15.5434" x2="29.2823" y2="15.5434" gradientUnits="userSpaceOnUse">
<stop stop-color="white"/>
<stop offset="1" stop-color="white"/>
</linearGradient>
<linearGradient id="paint72_linear_266_10872" x1="19.2883" y1="17.4669" x2="26.4789" y2="17.4669" gradientUnits="userSpaceOnUse">
<stop stop-color="#595959"/>
<stop offset="1" stop-color="white"/>
</linearGradient>
<linearGradient id="paint73_linear_266_10872" x1="19.2883" y1="17.4669" x2="26.4789" y2="17.4669" gradientUnits="userSpaceOnUse">
<stop stop-color="white"/>
<stop offset="1" stop-color="white"/>
</linearGradient>
<clipPath id="clip0_266_10872">
<rect width="46.2857" height="42" fill="white"/>
</clipPath>
<clipPath id="clip1_266_10872">
<rect width="4.62724" height="5.50653" fill="white" transform="translate(19.3357 30.8161)"/>
</clipPath>
<clipPath id="clip2_266_10872">
<rect width="7.74891" height="1.38385" fill="white" transform="translate(15.1954 37.0414)"/>
</clipPath>
<clipPath id="clip3_266_10872">
<rect width="9.81118" height="2.04071" fill="white" transform="translate(12.9844 39.1217)"/>
</clipPath>
<clipPath id="clip4_266_10872">
<rect width="8.38537" height="12.8227" fill="white" transform="translate(0.170334 8.25195)"/>
</clipPath>
<clipPath id="clip5_266_10872">
<rect width="10.2673" height="6.64283" fill="white" transform="translate(5.27866 19.4012)"/>
</clipPath>
<clipPath id="clip6_266_10872">
<rect width="8.38537" height="12.8227" fill="white" transform="translate(37.8995 8.25195)"/>
</clipPath>
<clipPath id="clip7_266_10872">
<rect width="10.2673" height="6.64283" fill="white" transform="translate(30.91 19.4012)"/>
</clipPath>
<clipPath id="clip8_266_10872">
<rect width="17.4728" height="17.4422" fill="white" transform="translate(9.34921 9.36185)"/>
</clipPath>
<clipPath id="clip9_266_10872">
<rect width="13.2694" height="12.8062" fill="white" transform="translate(10.6138 9.84955)"/>
</clipPath>
<clipPath id="clip10_266_10872">
<rect width="30.7688" height="3.42786" fill="white" transform="translate(7.56279 3.6911)"/>
</clipPath>
<clipPath id="clip11_266_10872">
<rect width="11.0143" height="13.5002" fill="white" transform="translate(23.2284 28.5006)"/>
</clipPath>
<clipPath id="clip12_266_10872">
<rect width="16.0952" height="26.4343" fill="white" transform="translate(23.2284 3.30655)"/>
</clipPath>
<clipPath id="clip13_266_10872">
<rect width="7.86855" height="6.76743" fill="white" transform="translate(19.2883 14.9022)"/>
</clipPath>
<clipPath id="clip14_266_10872">
<rect width="6.33888" height="2.07619" fill="white" transform="translate(20.0578 12.8137)"/>
</clipPath>
<clipPath id="clip15_266_10872">
<rect width="2.76438" height="6.76826" fill="white" transform="translate(22.5396 14.8808)"/>
</clipPath>
<clipPath id="clip16_266_10872">
<rect width="4.69039" height="5.28125" fill="white" transform="translate(19.2883 14.8808)"/>
</clipPath>
<clipPath id="clip17_266_10872">
<rect width="5.88854" height="1.82698" fill="white" transform="translate(20.2829 12.8137)"/>
</clipPath>
<clipPath id="clip18_266_10872">
<rect width="5.52959" height="1.74529" fill="white" transform="translate(20.4632 21.8339)"/>
</clipPath>
<clipPath id="clip19_266_10872">
<rect width="4.38213" height="5.4595" fill="white" transform="translate(16.8813 12.8137)"/>
</clipPath>
<clipPath id="clip20_266_10872">
<rect width="3.87778" height="4.8307" fill="white" transform="translate(25.437 18.5917)"/>
</clipPath>
<clipPath id="clip21_266_10872">
<rect width="3.87778" height="4.8307" fill="white" transform="translate(17.1953 18.5917)"/>
</clipPath>
<clipPath id="clip22_266_10872">
<rect width="3.87778" height="4.8307" fill="white" transform="translate(17.1629 13.1281)"/>
</clipPath>
<clipPath id="clip23_266_10872">
<rect width="4.38711" height="5.45124" fill="white" transform="translate(25.1827 12.8137)"/>
</clipPath>
<clipPath id="clip24_266_10872">
<rect width="3.87778" height="4.8307" fill="white" transform="translate(25.4046 13.1281)"/>
</clipPath>
<clipPath id="clip25_266_10872">
<rect width="7.19055" height="5.15087" fill="white" transform="translate(19.2883 14.8915)"/>
</clipPath>
</defs>
</svg>
