<svg width="46" height="39" viewBox="0 0 46 39" fill="none" xmlns="http://www.w3.org/2000/svg">
<g clip-path="url(#clip0_266_10873)">
<path d="M23.7129 35.0516L30.9678 34.6528L30.6722 33.9947C30.6722 33.9947 27.3254 33.4131 26.2482 30.4244C25.171 27.4366 26.2482 25.3926 26.2482 25.3926H19.7543C19.7543 25.3926 20.8315 27.4366 19.7543 30.4244C18.677 33.4123 15.3303 33.9947 15.3303 33.9947L15.0347 34.6528L22.2887 35.0516V35.1297L23.0017 35.0907L23.7146 35.1297V35.0516H23.7129Z" fill="url(#paint0_linear_266_10873)"/>
<g opacity="0.45" style="mix-blend-mode:multiply">
<path d="M30.6738 33.9956C30.6738 33.9956 27.3271 33.4139 26.2499 30.4253C25.1727 27.4374 26.2499 25.3934 26.2499 25.3934H19.7559C19.7559 25.3934 20.0971 26.0399 20.203 27.1375C20.7503 27.2363 21.3796 27.4839 22.4113 27.7033C24.2064 28.0847 24.4722 30.6388 26.0876 32.1959C27.0729 33.1464 29.1909 33.7289 30.6937 34.0396L30.6738 33.9947V33.9956Z" fill="#8A1212"/>
</g>
<mask id="mask0_266_10873" style="mask-type:luminance" maskUnits="userSpaceOnUse" x="19" y="27" width="5" height="7">
<g clip-path="url(#clip1_266_10873)">
<rect width="4.61606" height="5.5503" transform="translate(19.1175 27.7274)" fill="white"/>
<path d="M20.6791 27.7881C20.6791 27.7881 20.3198 30.5009 19.4545 31.5395C18.5885 32.5781 19.3279 33.2137 22.4113 33.2777C25.4947 33.3417 22.4535 27.0469 20.6791 27.7889V27.7881Z" fill="url(#paint1_linear_266_10873)" style="mix-blend-mode:multiply"/>
</g>
</mask>
<g mask="url(#mask0_266_10873)">
<path opacity="0.42" d="M20.6791 27.7881C20.6791 27.7881 20.3198 30.5009 19.4545 31.5395C18.5885 32.5781 19.3279 33.2137 22.4113 33.2777C25.4947 33.3417 22.4535 27.0469 20.6791 27.7889V27.7881Z" fill="url(#paint2_linear_266_10873)" style="mix-blend-mode:overlay"/>
</g>
<path d="M21.4922 28.2434C20.9201 27.9567 20.954 30.2674 20.3521 31.3584C19.7501 32.4501 19.7717 32.8415 20.8381 32.397C21.9046 31.9516 21.662 28.3281 21.493 28.2434H21.4922Z" fill="#FFF5CA"/>
<path d="M14.6099 37.1263H31.3917C32.228 37.1263 32.0756 36.44 32.0756 35.6008V35.4696C32.0756 34.6304 31.3917 33.9441 30.5554 33.9441H15.447C14.6108 33.9441 13.9269 34.6304 13.9269 35.4696V35.6008C13.9269 36.44 13.7745 37.1263 14.6108 37.1263H14.6099Z" fill="url(#paint3_linear_266_10873)"/>
<mask id="mask1_266_10873" style="mask-type:luminance" maskUnits="userSpaceOnUse" x="14" y="34" width="9" height="2">
<g clip-path="url(#clip2_266_10873)">
<rect width="7.73015" height="1.39505" transform="translate(14.9875 34.0014)" fill="white"/>
<path d="M22.5519 34.145C22.7283 34.4716 22.9907 35.2227 21.9566 35.3207C21.6279 35.3515 15.7168 35.5343 15.254 35.1828C14.7911 34.8313 14.9012 34.0312 15.8269 34.0312C16.7526 34.0312 22.4269 33.914 22.5519 34.1459V34.145Z" fill="url(#paint4_linear_266_10873)" style="mix-blend-mode:multiply"/>
</g>
</mask>
<g mask="url(#mask1_266_10873)">
<path opacity="0.42" d="M22.5519 34.145C22.7283 34.4716 22.9907 35.2227 21.9566 35.3207C21.6279 35.3515 15.7168 35.5343 15.254 35.1828C14.7911 34.8313 14.9012 34.0312 15.8269 34.0312C16.7526 34.0312 22.4269 33.914 22.5519 34.1459V34.145Z" fill="url(#paint5_linear_266_10873)" style="mix-blend-mode:overlay"/>
</g>
<g opacity="0.45" style="mix-blend-mode:multiply">
<path d="M27.0299 37.1263H31.3917C32.228 37.1263 32.0756 36.44 32.0756 35.6008V35.4696C32.0756 34.6304 31.3917 33.9441 30.5554 33.9441H30.437C30.5877 34.3753 30.5919 34.8921 29.8873 35.0957C28.5881 35.4712 25.5792 35.5352 25.5792 35.5352H13.926V35.6008C13.926 36.44 13.7737 37.1263 14.6099 37.1263H27.0299Z" fill="#8A1212"/>
</g>
<path d="M12.7089 39H33.292C34.1282 39 33.9759 38.3137 33.9759 37.4745V37.3432C33.9759 36.504 33.292 35.8177 32.4557 35.8177H13.5451C12.7089 35.8177 12.0249 36.504 12.0249 37.3432V37.4745C12.0249 38.3137 11.8726 39 12.7089 39Z" fill="url(#paint6_linear_266_10873)"/>
<mask id="mask2_266_10873" style="mask-type:luminance" maskUnits="userSpaceOnUse" x="12" y="36" width="11" height="3">
<g clip-path="url(#clip3_266_10873)">
<rect width="9.78688" height="2.05644" transform="translate(12.7826 36.0977)" fill="white"/>
<path d="M22.2739 36.3834C22.6565 36.823 22.8842 38.115 21.5453 38.1532C21.1313 38.1649 13.6885 38.105 13.224 37.9414C12.4432 37.6655 12.7205 36.1898 13.8764 36.1898C15.0323 36.1898 21.8401 35.8857 22.2731 36.3834H22.2739Z" fill="url(#paint7_linear_266_10873)" style="mix-blend-mode:multiply"/>
</g>
</mask>
<g mask="url(#mask2_266_10873)">
<path opacity="0.42" d="M22.2739 36.3834C22.6565 36.823 22.8842 38.115 21.5453 38.1532C21.1313 38.1649 13.6885 38.105 13.224 37.9414C12.4432 37.6655 12.7205 36.1898 13.8764 36.1898C15.0323 36.1898 21.8401 35.8857 22.2731 36.3834H22.2739Z" fill="url(#paint8_linear_266_10873)" style="mix-blend-mode:overlay"/>
</g>
<g opacity="0.45" style="mix-blend-mode:multiply">
<path d="M33.9742 37.3424C33.9742 36.5032 33.2903 35.8169 32.454 35.8169H31.862C32.1526 36.19 32.0864 37.1264 31.5217 37.7296C30.3046 39.0283 12.4431 38.7657 12.0167 38.2672C12.0374 38.705 12.1607 39 12.7072 39H33.2903C34.1266 39 33.9742 38.3137 33.9742 37.4745V37.3432V37.3424Z" fill="#8A1212"/>
</g>
<path d="M17.0467 34.146C16.5615 34.1701 16.275 34.9046 16.3496 35.1306C16.4241 35.3566 17.9973 35.3333 18.2821 34.7824C18.5669 34.2316 17.902 34.1044 17.0467 34.1468V34.146Z" fill="#FFF5CA"/>
<path d="M15.755 36.1908C14.9825 36.229 14.5271 37.3972 14.6455 37.757C14.7639 38.1168 17.267 38.0794 17.7207 37.2028C18.1744 36.3262 17.1154 36.1235 15.7542 36.1908H15.755Z" fill="#FFF5CA"/>
<mask id="mask3_266_10873" style="mask-type:luminance" maskUnits="userSpaceOnUse" x="23" y="25" width="11" height="14">
<g clip-path="url(#clip4_266_10873)">
<rect width="10.9866" height="13.6065" transform="translate(23.0008 25.3935)" fill="white"/>
<path d="M33.9759 37.4737V37.3424C33.9759 36.5032 33.292 35.8169 32.4557 35.8169H32.0781C32.0765 35.7463 32.0756 35.674 32.0756 35.6009V35.4696C32.0756 34.6304 31.3917 33.9441 30.5554 33.9441H30.4412C29.6645 33.7497 27.1557 32.9379 26.2499 30.4261C25.1726 27.4383 26.2499 25.3943 26.2499 25.3943H23.0008C23.0008 25.3943 24.0905 27.9028 24.0905 30.0041C24.0905 33.2146 23.0008 33.9466 23.0008 33.9466C23.0108 33.9466 23.0199 33.9449 23.0298 33.9449H26.7185C27.1549 33.9449 27.5117 34.303 27.5117 34.7409C27.5117 35.1788 27.1549 35.5369 26.7185 35.5369H23.0298C23.0199 35.5369 23.0099 35.5361 23.0008 35.5352V35.8186H27.7013C28.5376 35.8186 29.2215 36.5049 29.2215 37.3441V37.4754C29.2215 38.3146 28.5376 39.0009 27.7013 39.0009H33.292C34.1282 39.0009 33.9759 38.3146 33.9759 37.4754V37.4737Z" fill="url(#paint9_linear_266_10873)" style="mix-blend-mode:multiply"/>
</g>
</mask>
<g mask="url(#mask3_266_10873)">
<g opacity="0.45" style="mix-blend-mode:multiply">
<path d="M33.9759 37.4737V37.3424C33.9759 36.5032 33.292 35.8169 32.4557 35.8169H32.0781C32.0765 35.7463 32.0756 35.674 32.0756 35.6009V35.4696C32.0756 34.6304 31.3917 33.9441 30.5554 33.9441H30.4412C29.6645 33.7497 27.1557 32.9379 26.2499 30.4261C25.1726 27.4383 26.2499 25.3943 26.2499 25.3943H23.0008C23.0008 25.3943 24.0905 27.9028 24.0905 30.0041C24.0905 33.2146 23.0008 33.9466 23.0008 33.9466C23.0108 33.9466 23.0199 33.9449 23.0298 33.9449H26.7185C27.1549 33.9449 27.5117 34.303 27.5117 34.7409C27.5117 35.1788 27.1549 35.5369 26.7185 35.5369H23.0298C23.0199 35.5369 23.0099 35.5361 23.0008 35.5352V35.8186H27.7013C28.5376 35.8186 29.2215 36.5049 29.2215 37.3441V37.4754C29.2215 38.3146 28.5376 39.0009 27.7013 39.0009H33.292C34.1282 39.0009 33.9759 38.3146 33.9759 37.4754V37.4737Z" fill="#8A1212"/>
</g>
</g>
<path d="M13.907 21.264C13.8705 21.2482 13.8341 21.2357 13.7969 21.2299C11.6052 20.9142 7.7732 19.9778 5.78933 17.2201C3.83526 14.5039 3.70609 12.2023 3.9222 11.2153H6.84585C7.70696 11.2028 8.4091 10.4932 8.4091 9.62578V6.57395C8.4091 5.69986 7.6962 4.98447 6.82515 4.98447C5.9541 4.98447 5.24119 5.69986 5.24119 6.57395V7.40068H3.10828C2.1089 7.40068 1.22211 8.01636 0.674811 9.08903C-0.444636 11.2851 -0.250058 15.3406 2.70753 19.4526C5.21967 22.9457 9.36791 24.3166 12.2137 24.855V25.8995C12.2137 26.7736 12.9266 27.4889 13.7977 27.4889C14.6687 27.4889 15.3816 26.7736 15.3816 25.8995V22.8476C15.3816 22.0109 14.7275 21.3213 13.9078 21.264H13.907Z" fill="url(#paint10_linear_266_10873)"/>
<g opacity="0.45" style="mix-blend-mode:multiply">
<path d="M14.0022 21.2656C14.3748 21.5448 14.6174 21.9885 14.6174 22.4879V25.6668C14.6174 26.506 13.9335 27.1923 13.0972 27.1923H12.9705C12.9225 27.1923 12.8753 27.1898 12.8281 27.1848C13.0815 27.3751 13.3944 27.4889 13.7331 27.4889H13.8598C14.696 27.4889 15.38 26.8026 15.38 25.9634V22.7845C15.38 21.9935 14.7714 21.3387 14.0014 21.2656H14.0022Z" fill="#8A1212"/>
</g>
<path d="M3.8568 11.6822C3.87005 11.5044 3.8924 11.3474 3.92138 11.2153H6.84503C7.70614 11.2028 8.40828 10.4932 8.40828 9.62578V8.92618C8.40828 9.79362 7.70697 10.5032 6.84503 10.5148L6.82433 10.5157H3.92138C3.85845 10.8015 3.82533 11.1978 3.8568 11.6822Z" fill="url(#paint11_linear_266_10873)"/>
<g opacity="0.45" style="mix-blend-mode:multiply">
<path d="M12.2121 24.1554C9.36709 23.617 5.21802 22.2461 2.70589 18.753C0.904172 16.2479 0.129998 13.7644 0.051339 11.7088C-0.0372563 13.8857 0.69469 16.6559 2.70589 19.4518C5.21802 22.9448 9.36626 24.3158 12.2121 24.8542V24.1546V24.1554Z" fill="#8A1212"/>
</g>
<g style="mix-blend-mode:overlay">
<mask id="mask4_266_10873" style="mask-type:luminance" maskUnits="userSpaceOnUse" x="0" y="4" width="9" height="14">
<g clip-path="url(#clip5_266_10873)">
<rect width="8.36439" height="12.9244" transform="translate(0 4.98447)" fill="white"/>
<path d="M1.32636 10.4999C1.87367 9.4272 2.76045 8.81151 3.75984 8.81151H5.89275V7.98479C5.89275 7.1107 6.60565 6.39531 7.4767 6.39531C7.80458 6.39531 8.11094 6.49667 8.36431 6.67033V6.57395C8.36431 5.69986 7.6514 4.98447 6.78036 4.98447C5.90931 4.98447 5.1964 5.69986 5.1964 6.57395V7.40067H3.06349C2.0641 7.40067 1.17732 8.01636 0.63002 9.08903C-0.348668 11.0084 -0.323 14.351 1.67578 17.9089C0.385762 14.8944 0.478498 12.1633 1.32636 10.4999Z" fill="url(#paint12_linear_266_10873)" style="mix-blend-mode:multiply"/>
</g>
</mask>
<g mask="url(#mask4_266_10873)">
<path opacity="0.42" d="M1.32636 10.4999C1.87367 9.4272 2.76045 8.81151 3.75984 8.81151H5.89275V7.98479C5.89275 7.1107 6.60565 6.39531 7.4767 6.39531C7.80458 6.39531 8.11094 6.49667 8.36431 6.67033V6.57395C8.36431 5.69986 7.65141 4.98447 6.78036 4.98447C5.90931 4.98447 5.1964 5.69986 5.1964 6.57395V7.40067H3.06349C2.06411 7.40067 1.17732 8.01636 0.63002 9.08903C-0.348668 11.0084 -0.323 14.351 1.67578 17.9089C0.385762 14.8944 0.478498 12.1633 1.32636 10.4999Z" fill="url(#paint13_linear_266_10873)" style="mix-blend-mode:overlay"/>
</g>
<mask id="mask5_266_10873" style="mask-type:luminance" maskUnits="userSpaceOnUse" x="5" y="16" width="11" height="7">
<g clip-path="url(#clip6_266_10873)">
<rect width="10.2415" height="6.69526" transform="translate(5.09547 16.2222)" fill="white"/>
<path d="M5.74545 17.2201C5.50119 16.8802 5.28508 16.547 5.09547 16.2222C5.39521 16.9658 5.82825 17.7776 6.44179 18.6309C8.42484 21.3886 12.2568 22.325 14.4493 22.6407C14.4841 22.6457 14.518 22.6565 14.552 22.6707C14.841 22.6781 15.1092 22.7687 15.3369 22.9174V22.7837C15.3369 21.9578 14.6737 21.2814 13.8556 21.2598C13.8217 21.2457 13.7877 21.2349 13.753 21.2299C11.5613 20.9142 7.72932 19.9778 5.74545 17.2201Z" fill="url(#paint14_linear_266_10873)" style="mix-blend-mode:multiply"/>
</g>
</mask>
<g mask="url(#mask5_266_10873)">
<g opacity="0.45" style="mix-blend-mode:multiply">
<path d="M5.74545 17.2201C5.50119 16.8802 5.28508 16.547 5.09547 16.2222C5.39521 16.9658 5.82825 17.7776 6.44179 18.6309C8.42484 21.3886 12.2568 22.325 14.4493 22.6407C14.4841 22.6457 14.518 22.6565 14.552 22.6707C14.841 22.6781 15.1092 22.7687 15.3369 22.9174V22.7837C15.3369 21.9578 14.6737 21.2814 13.8556 21.2598C13.8217 21.2457 13.7877 21.2349 13.753 21.2299C11.5613 20.9142 7.72932 19.9778 5.74545 17.2201Z" fill="#8A1212"/>
</g>
</g>
</g>
<path d="M5.33641 7.65491C5.33641 7.65491 3.37241 7.48043 2.37468 7.90916C1.37695 8.3379 0.837923 9.19703 0.537362 10.5954C0.2368 11.9938 1.33058 8.97519 2.42187 8.56058C3.8452 8.0205 5.44322 8.529 5.5699 8.1792C5.69659 7.8294 5.33641 7.65408 5.33641 7.65408V7.65491Z" fill="#FFF5CA"/>
<path d="M6.58751 5.33428C5.40927 5.45642 5.71646 6.17679 6.01702 6.43105C6.31758 6.6853 7.66473 5.22294 6.58751 5.33428Z" fill="#FFF5CA"/>
<path d="M45.3252 9.08903C44.7779 8.01636 43.8911 7.40068 42.8917 7.40068H40.7588V6.57395C40.7588 5.69986 40.0459 4.98447 39.1749 4.98447C38.3038 4.98447 37.5909 5.69986 37.5909 6.57395V9.62578C37.5909 10.4924 38.2922 11.2028 39.1542 11.2144L39.174 11.2153H42.0778C42.2939 12.2023 42.1647 14.5031 40.2107 17.2201C38.2276 19.9778 34.3957 20.9142 32.2032 21.2299C32.1659 21.2357 32.1295 21.2482 32.093 21.264C31.2725 21.3213 30.6192 22.0109 30.6192 22.8476V25.8995C30.6192 26.7736 31.3321 27.4889 32.2032 27.4889C33.0742 27.4889 33.7871 26.7736 33.7871 25.8995V24.855C36.6321 24.3166 40.7812 22.9457 43.2933 19.4526C46.2509 15.3406 46.4446 11.2851 45.326 9.08903H45.3252Z" fill="url(#paint15_linear_266_10873)"/>
<g opacity="0.45" style="mix-blend-mode:multiply">
<path d="M31.9978 21.2656C31.6252 21.5448 31.3826 21.9885 31.3826 22.4879V25.6668C31.3826 26.506 32.0665 27.1923 32.9028 27.1923H33.0295C33.0775 27.1923 33.1247 27.1898 33.1719 27.1848C32.9185 27.3751 32.6056 27.4889 32.2669 27.4889H32.1402C31.3039 27.4889 30.62 26.8026 30.62 25.9634V22.7845C30.62 21.9935 31.2286 21.3387 31.9986 21.2656H31.9978Z" fill="#8A1212"/>
</g>
<g style="mix-blend-mode:multiply" opacity="0.45">
<path d="M42.1432 11.6822C42.13 11.5044 42.1076 11.3474 42.0786 11.2153H39.155C38.2939 11.2028 37.5917 10.4932 37.5917 9.62578V8.92618C37.5917 9.79362 38.293 10.5032 39.155 10.5148L39.1757 10.5157H42.0786C42.1416 10.8015 42.1747 11.1978 42.1432 11.6822Z" fill="#8A1212"/>
<path d="M33.7879 24.1554C36.6329 23.617 40.782 22.2461 43.2941 18.753C45.0958 16.2479 45.8708 13.7644 45.9487 11.7088C46.0373 13.8857 45.3053 16.6559 43.2941 19.4518C40.782 22.9448 36.6337 24.3158 33.7879 24.8542V24.1546V24.1554Z" fill="#8A1212"/>
</g>
<g style="mix-blend-mode:overlay">
<mask id="mask6_266_10873" style="mask-type:luminance" maskUnits="userSpaceOnUse" x="37" y="4" width="9" height="14">
<g clip-path="url(#clip7_266_10873)">
<rect width="8.36439" height="12.9244" transform="translate(37.6356 4.98447)" fill="white"/>
<path d="M44.6736 10.4999C44.1263 9.4272 43.2395 8.81151 42.2401 8.81151H40.1072V7.98479C40.1072 7.1107 39.3943 6.39531 38.5232 6.39531C38.1953 6.39531 37.889 6.49667 37.6356 6.67033V6.57395C37.6356 5.69986 38.3485 4.98447 39.2196 4.98447C40.0906 4.98447 40.8035 5.69986 40.8035 6.57395V7.40067H42.9364C43.9358 7.40067 44.8226 8.01636 45.3699 9.08903C46.3486 11.0084 46.3229 14.351 44.3242 17.9089C45.6142 14.8944 45.5214 12.1633 44.6736 10.4999Z" fill="url(#paint16_linear_266_10873)" style="mix-blend-mode:multiply"/>
</g>
</mask>
<g mask="url(#mask6_266_10873)">
<path opacity="0.42" d="M44.6736 10.4999C44.1263 9.4272 43.2395 8.81151 42.2401 8.81151H40.1072V7.98479C40.1072 7.1107 39.3943 6.39531 38.5232 6.39531C38.1953 6.39531 37.889 6.49667 37.6356 6.67033V6.57395C37.6356 5.69986 38.3485 4.98447 39.2196 4.98447C40.0906 4.98447 40.8035 5.69986 40.8035 6.57395V7.40067H42.9364C43.9358 7.40067 44.8226 8.01636 45.3699 9.08903C46.3486 11.0084 46.3229 14.351 44.3242 17.9089C45.6142 14.8944 45.5214 12.1633 44.6736 10.4999Z" fill="url(#paint17_linear_266_10873)" style="mix-blend-mode:overlay"/>
</g>
<mask id="mask7_266_10873" style="mask-type:luminance" maskUnits="userSpaceOnUse" x="30" y="16" width="11" height="7">
<g clip-path="url(#clip8_266_10873)">
<rect width="10.2415" height="6.69526" transform="translate(30.6631 16.2222)" fill="white"/>
<path d="M40.2546 17.2201C40.4988 16.8802 40.7149 16.547 40.9045 16.2222C40.6048 16.9658 40.1718 17.7776 39.5582 18.6309C37.5752 21.3886 33.7432 22.325 31.5507 22.6407C31.5159 22.6457 31.482 22.6565 31.448 22.6707C31.1591 22.6781 30.8908 22.7687 30.6631 22.9174V22.7837C30.6631 21.9578 31.3263 21.2814 32.1444 21.2598C32.1783 21.2457 32.2123 21.2349 32.247 21.2299C34.4387 20.9142 38.2707 19.9778 40.2546 17.2201Z" fill="url(#paint18_linear_266_10873)" style="mix-blend-mode:multiply"/>
</g>
</mask>
<g mask="url(#mask7_266_10873)">
<g opacity="0.45" style="mix-blend-mode:multiply">
<path d="M40.2546 17.2201C40.4988 16.8802 40.7149 16.547 40.9045 16.2222C40.6048 16.9658 40.1718 17.7776 39.5582 18.6309C37.5752 21.3886 33.7432 22.325 31.5507 22.6407C31.5159 22.6457 31.482 22.6565 31.448 22.6707C31.1591 22.6781 30.8908 22.7687 30.6631 22.9174V22.7837C30.6631 21.9578 31.3263 21.2814 32.1444 21.2598C32.1783 21.2457 32.2123 21.2349 32.247 21.2299C34.4387 20.9142 38.2707 19.9778 40.2546 17.2201Z" fill="#8A1212"/>
</g>
</g>
</g>
<path d="M40.6644 7.65491C40.6644 7.65491 42.6284 7.48043 43.6262 7.90916C44.6239 8.3379 45.1629 9.19703 45.4635 10.5954C45.764 11.9938 44.6703 8.97519 43.579 8.56058C42.1556 8.0205 40.5576 8.529 40.4309 8.1792C40.3043 7.8294 40.6644 7.65408 40.6644 7.65408V7.65491Z" fill="#FFF5CA"/>
<path d="M39.4125 5.33428C40.5907 5.45642 40.2836 6.17679 39.983 6.43105C39.6824 6.6853 38.3353 5.22294 39.4125 5.33428Z" fill="#FFF5CA"/>
<path d="M23.0008 26.6473C31.0721 26.6473 37.6149 18.6425 37.6149 8.76748V4.70944H8.38675V8.76748C8.38675 18.6425 14.9296 26.6473 23.0008 26.6473Z" fill="url(#paint19_linear_266_10873)"/>
<g opacity="0.45" style="mix-blend-mode:multiply">
<path d="M8.38675 4.70862V5.83613C12.5333 5.82118 26.8643 5.77714 32.1684 5.84029C36.6983 5.8943 36.4715 7.84604 36.4715 7.84604C36.4715 17.7211 29.9311 25.4076 21.8607 25.4076C18.4121 25.4076 15.2434 23.9452 12.7437 21.5008C15.3816 24.6822 19.0041 26.6464 23.0008 26.6464C31.0721 26.6464 37.6149 18.6417 37.6149 8.76666V4.70779H8.38675V4.70862Z" fill="#8A1212"/>
</g>
<path d="M38.3609 0H7.64073C6.80445 0 6.9568 0.68631 6.9568 1.5255V1.65678C6.9568 2.49597 7.64073 4.98364 8.477 4.98364H37.5247C38.3609 4.98364 39.0449 2.49597 39.0449 1.65678V1.5255C39.0449 0.68631 39.1972 0 38.3609 0Z" fill="url(#paint20_linear_266_10873)"/>
<g opacity="0.45" style="mix-blend-mode:multiply">
<path d="M38.3609 0H38.2028C38.1995 0.127125 38.1953 0.260066 38.1953 0.397993V0.529273C38.1953 1.36846 37.5114 3.85613 36.6751 3.85613H7.62748C7.5778 3.85613 7.52895 3.84699 7.48093 3.83037C7.74837 4.47015 8.09695 4.98447 8.477 4.98447H37.5247C38.3609 4.98447 39.0449 2.4968 39.0449 1.65761V1.52633C39.0449 0.687141 39.1972 0.000830883 38.3609 0.000830883V0Z" fill="#8A1212"/>
</g>
<mask id="mask8_266_10873" style="mask-type:luminance" maskUnits="userSpaceOnUse" x="9" y="6" width="18" height="18">
<g clip-path="url(#clip9_266_10873)">
<rect width="17.4293" height="17.5798" transform="translate(9.15512 6.10367)" fill="white"/>
<path d="M9.64848 6.4609C8.47852 6.80488 9.5723 14.1183 11.0321 17.0015C12.9961 20.88 17.0292 25.189 21.425 23.1683C28.1409 20.0807 26.7821 10.9626 25.642 8.10023C24.578 5.42977 10.9476 6.07952 9.64848 6.4609Z" fill="url(#paint21_linear_266_10873)" style="mix-blend-mode:multiply"/>
</g>
</mask>
<g mask="url(#mask8_266_10873)">
<path opacity="0.42" d="M9.64848 6.4609C8.47852 6.80488 9.5723 14.1183 11.0321 17.0015C12.9961 20.88 17.0292 25.189 21.425 23.1683C28.1409 20.0807 26.7821 10.9626 25.642 8.10023C24.578 5.42977 10.9476 6.07952 9.64848 6.4609Z" fill="url(#paint22_linear_266_10873)" style="mix-blend-mode:overlay"/>
</g>
<mask id="mask9_266_10873" style="mask-type:luminance" maskUnits="userSpaceOnUse" x="10" y="6" width="14" height="14">
<g clip-path="url(#clip10_266_10873)">
<rect width="13.2363" height="12.9069" transform="translate(10.417 6.59473)" fill="white"/>
<path d="M23.2683 7.61919C25.5188 8.18253 17.3481 23.7832 13.2678 18.3575C10.908 15.2193 4.89345 3.01859 23.2683 7.61919Z" fill="url(#paint23_linear_266_10873)" style="mix-blend-mode:multiply"/>
</g>
</mask>
<g mask="url(#mask9_266_10873)">
<path opacity="0.42" d="M23.2683 7.61919C25.5188 8.18253 17.3481 23.7832 13.2678 18.3575C10.908 15.2193 4.89345 3.01859 23.2683 7.61919Z" fill="url(#paint24_linear_266_10873)" style="mix-blend-mode:overlay"/>
</g>
<mask id="mask10_266_10873" style="mask-type:luminance" maskUnits="userSpaceOnUse" x="7" y="0" width="32" height="4">
<g clip-path="url(#clip11_266_10873)">
<rect width="30.6921" height="3.45481" transform="translate(7.37411 0.388031)" fill="white"/>
<path d="M8.99536 3.7448C8.99536 3.7448 7.80719 4.24748 7.4909 2.97872C7.17377 1.70997 7.49089 0.388031 8.63104 0.388031H37.0155C37.0155 0.388031 41.7036 0.992083 31.2816 0.896531C20.8597 0.80098 11.736 1.18236 10.9751 1.94594C10.215 2.70869 9.65775 3.3842 8.99536 3.7448Z" fill="url(#paint25_linear_266_10873)" style="mix-blend-mode:multiply"/>
</g>
</mask>
<g mask="url(#mask10_266_10873)">
<path opacity="0.42" d="M8.99536 3.7448C8.99536 3.7448 7.80719 4.24748 7.4909 2.97872C7.17377 1.70997 7.49089 0.388031 8.63104 0.388031H37.0155C37.0155 0.388031 41.7036 0.992083 31.2816 0.896532C20.8597 0.80098 11.736 1.18236 10.9751 1.94594C10.215 2.70869 9.65775 3.3842 8.99536 3.7448Z" fill="url(#paint26_linear_266_10873)" style="mix-blend-mode:overlay"/>
</g>
<path d="M9.39773 0.673841C8.45216 0.141245 7.28386 1.8188 8.02906 2.93384C8.73947 3.99654 10.2439 1.15077 9.39773 0.673841Z" fill="#FFF5CA"/>
<path d="M13.002 0.770233C11.5099 0.770233 10.3615 1.18235 11.4818 1.34105C12.6012 1.49975 17.4856 0.770233 13.002 0.770233Z" fill="#FFF5CA"/>
<mask id="mask11_266_10873" style="mask-type:luminance" maskUnits="userSpaceOnUse" x="23" y="0" width="17" height="27">
<g clip-path="url(#clip12_266_10873)">
<rect width="16.0548" height="26.6431" transform="translate(23.0008)" fill="white"/>
<path d="M38.3609 0H23.0008C23.0008 0 24.3712 0.410456 24.3712 1.87115C24.3712 3.00281 23.7096 4.24914 23.4115 4.75348C23.409 4.75847 23.4057 4.76345 23.4032 4.76761C23.3941 4.78256 23.3858 4.79586 23.3784 4.80915C23.3759 4.81331 23.3726 4.81829 23.3701 4.82328C23.3618 4.8374 23.3544 4.84987 23.3469 4.8615C23.3453 4.86399 23.3428 4.86731 23.3411 4.87064C23.2956 4.94376 23.2691 4.98447 23.2691 4.98447C23.2691 4.98447 28.0508 6.19423 28.0508 13.2509C28.0508 20.3076 23.2757 26.6348 23.2691 26.6431C31.2162 26.4678 37.6149 18.5329 37.6149 8.76748V4.9745C38.4098 4.80583 39.0457 2.46689 39.0457 1.65761V1.52633C39.0457 0.687141 39.198 0.000830883 38.3618 0.000830883L38.3609 0Z" fill="url(#paint27_linear_266_10873)" style="mix-blend-mode:multiply"/>
</g>
</mask>
<g mask="url(#mask11_266_10873)">
<path d="M38.3609 0H23.0008C23.0008 0 24.3712 0.410456 24.3712 1.87115C24.3712 3.00281 23.7096 4.24914 23.4115 4.75348C23.409 4.75847 23.4057 4.76345 23.4032 4.76761C23.3941 4.78256 23.3858 4.79586 23.3784 4.80915C23.3759 4.81331 23.3726 4.81829 23.3701 4.82328C23.3618 4.8374 23.3544 4.84987 23.3469 4.8615C23.3453 4.86399 23.3428 4.86731 23.3411 4.87064C23.2956 4.94376 23.2691 4.98447 23.2691 4.98447C23.2691 4.98447 28.0508 6.19423 28.0508 13.2509C28.0508 20.3076 23.2757 26.6348 23.2691 26.6431C31.2162 26.4678 37.6149 18.5329 37.6149 8.76748V4.9745C38.4098 4.80583 39.0457 2.46689 39.0457 1.65761V1.52633C39.0457 0.687141 39.198 0.000830883 38.3618 0.000830883L38.3609 0Z" fill="url(#paint28_linear_266_10873)" style="mix-blend-mode:multiply"/>
</g>
<path d="M29.7465 15.1163L26.4163 9.35077L25.9361 9.33914H20.0656L19.5887 9.34163L16.2535 15.1171L16.2121 15.3813L19.4388 21.0745L19.7402 21.2241H26.4155L29.7879 15.3822L29.7465 15.1163Z" fill="url(#paint29_linear_266_10873)" style="mix-blend-mode:multiply"/>
<path d="M29.3259 15.2201L29.3217 15.1911L26.1571 9.71221L25.9361 9.70639H20.0673L19.8437 9.70805L16.6775 15.1911L16.6725 15.221L19.8404 20.7048L19.8429 20.704H26.1588H26.1596H26.1605L29.3259 15.2201Z" fill="url(#paint30_linear_266_10873)"/>
<mask id="mask12_266_10873" style="mask-type:luminance" maskUnits="userSpaceOnUse" x="19" y="11" width="8" height="8">
<g clip-path="url(#clip13_266_10873)">
<rect width="7.8411" height="6.81407" transform="translate(19.0737 11.8094)" fill="white"/>
<path d="M21.0344 18.6243L19.0737 15.2168L21.0344 11.8094H24.9549L26.9156 15.2168L24.9549 18.6243H21.0344Z" fill="url(#paint31_linear_266_10873)" style="mix-blend-mode:multiply"/>
</g>
</mask>
<g mask="url(#mask12_266_10873)">
<path opacity="0.5" d="M21.0344 18.6243L19.0737 15.2168L21.0344 11.8094H24.9549L26.9156 15.2168L24.9549 18.6243H21.0344Z" fill="url(#paint32_linear_266_10873)" style="mix-blend-mode:overlay"/>
</g>
<mask id="mask13_266_10873" style="mask-type:luminance" maskUnits="userSpaceOnUse" x="19" y="9" width="8" height="3">
<g clip-path="url(#clip14_266_10873)">
<rect width="6.31676" height="2.0905" transform="translate(19.8412 9.70639)" fill="white"/>
<path d="M19.8412 9.70639L21.0344 11.7977H24.9549L26.158 9.70639H19.8412Z" fill="url(#paint33_linear_266_10873)" style="mix-blend-mode:multiply"/>
</g>
</mask>
<g mask="url(#mask13_266_10873)">
<path d="M19.8412 9.70639L21.0344 11.7977H24.9549L26.158 9.70639H19.8412Z" fill="url(#paint34_linear_266_10873)" style="mix-blend-mode:overlay"/>
</g>
<g style="mix-blend-mode:overlay" opacity="0.53">
<mask id="mask14_266_10873" style="mask-type:luminance" maskUnits="userSpaceOnUse" x="22" y="11" width="4" height="8">
<g clip-path="url(#clip15_266_10873)">
<rect width="2.75473" height="6.81491" transform="translate(22.3136 11.7886)" fill="white"/>
<path d="M24.8845 18.6026L24.9259 18.5295L25.0692 12.1093L24.8845 11.7886H23.7494L22.3136 18.6026H24.8845Z" fill="url(#paint35_linear_266_10873)" style="mix-blend-mode:multiply"/>
</g>
</mask>
<g mask="url(#mask14_266_10873)">
<path d="M24.8845 18.6026L24.9259 18.5295L25.0692 12.1093L24.8845 11.7886H23.7494L22.3136 18.6026H24.8845Z" fill="url(#paint36_linear_266_10873)"/>
</g>
<mask id="mask15_266_10873" style="mask-type:luminance" maskUnits="userSpaceOnUse" x="19" y="11" width="5" height="7">
<g clip-path="url(#clip16_266_10873)">
<rect width="4.67402" height="5.31765" transform="translate(19.0737 11.7886)" fill="white"/>
<path d="M19.0737 15.3182L20.1029 17.1062L23.7477 11.7886H21.5394L19.0737 15.3182Z" fill="url(#paint37_linear_266_10873)" style="mix-blend-mode:multiply"/>
</g>
</mask>
<g mask="url(#mask15_266_10873)">
<path d="M19.0737 15.3182L20.1029 17.1062L23.7477 11.7886H21.5394L19.0737 15.3182Z" fill="url(#paint38_linear_266_10873)"/>
</g>
</g>
<mask id="mask16_266_10873" style="mask-type:luminance" maskUnits="userSpaceOnUse" x="20" y="9" width="6" height="3">
<g clip-path="url(#clip17_266_10873)">
<rect width="5.86799" height="1.83958" transform="translate(20.0648 9.70639)" fill="white"/>
<path d="M20.0648 9.70639L21.1743 11.5468H24.8158L25.9336 9.70639H20.0648Z" fill="url(#paint39_linear_266_10873)" style="mix-blend-mode:multiply"/>
</g>
</mask>
<g mask="url(#mask16_266_10873)">
<path d="M20.0648 9.70639L21.1743 11.5468H24.8158L25.9336 9.70639H20.0648Z" fill="url(#paint40_linear_266_10873)" style="mix-blend-mode:overlay"/>
</g>
<g opacity="0.24" style="mix-blend-mode:multiply">
<path d="M26.158 20.704L24.964 18.6135H21.0435L19.8412 20.704H26.158Z" fill="#310000"/>
</g>
<mask id="mask17_266_10873" style="mask-type:luminance" maskUnits="userSpaceOnUse" x="20" y="18" width="6" height="3">
<g clip-path="url(#clip18_266_10873)">
<rect width="5.5103" height="1.75732" transform="translate(20.2444 18.7896)" fill="white"/>
<path d="M25.7539 20.5469L24.7131 18.7896H21.2935L20.2444 20.5469H25.7539Z" fill="url(#paint41_linear_266_10873)" style="mix-blend-mode:multiply"/>
</g>
</mask>
<g mask="url(#mask17_266_10873)">
<path opacity="0.25" d="M25.7539 20.5469L24.7131 18.7896H21.2935L20.2444 20.5469H25.7539Z" fill="url(#paint42_linear_266_10873)" style="mix-blend-mode:overlay"/>
</g>
<mask id="mask18_266_10873" style="mask-type:luminance" maskUnits="userSpaceOnUse" x="16" y="9" width="6" height="7">
<g clip-path="url(#clip19_266_10873)">
<rect width="4.36684" height="5.49712" transform="translate(16.675 9.70639)" fill="white"/>
<path d="M16.675 15.1911L19.0762 15.2035L21.0418 11.7994L19.842 9.70639L16.675 15.1911Z" fill="url(#paint43_linear_266_10873)" style="mix-blend-mode:multiply"/>
</g>
</mask>
<g mask="url(#mask18_266_10873)">
<path d="M16.675 15.1911L19.0762 15.2035L21.0418 11.7994L19.842 9.70639L16.675 15.1911Z" fill="url(#paint44_linear_266_10873)" style="mix-blend-mode:overlay"/>
</g>
<g opacity="0.23" style="mix-blend-mode:multiply">
<path d="M29.3234 15.2201L26.9222 15.2077L24.9566 18.6118L26.1754 20.6724L29.3234 15.2201Z" fill="#310000"/>
</g>
<mask id="mask19_266_10873" style="mask-type:luminance" maskUnits="userSpaceOnUse" x="25" y="15" width="5" height="6">
<g clip-path="url(#clip20_266_10873)">
<rect width="3.86424" height="4.86399" transform="translate(25.2008 15.5242)" fill="white"/>
<path d="M29.0659 15.535L26.9404 15.5242L25.2008 18.537L26.2631 20.3882L29.0659 15.535Z" fill="url(#paint45_linear_266_10873)" style="mix-blend-mode:multiply"/>
</g>
</mask>
<g mask="url(#mask19_266_10873)">
<path d="M29.0659 15.535L26.9404 15.5242L25.2008 18.537L26.2631 20.3882L29.0659 15.535Z" fill="url(#paint46_linear_266_10873)" style="mix-blend-mode:overlay"/>
</g>
<g opacity="0.1" style="mix-blend-mode:multiply">
<path d="M19.8379 20.7048L21.0418 18.6209L19.0761 15.2168L16.67 15.221L19.8379 20.7048Z" fill="#310000"/>
</g>
<mask id="mask20_266_10873" style="mask-type:luminance" maskUnits="userSpaceOnUse" x="16" y="15" width="5" height="6">
<g clip-path="url(#clip21_266_10873)">
<rect width="3.86424" height="4.86399" transform="translate(16.9888 15.5242)" fill="white"/>
<path d="M16.9888 15.535L19.1134 15.5242L20.8522 18.537L19.7907 20.3882L16.9888 15.535Z" fill="url(#paint47_linear_266_10873)" style="mix-blend-mode:multiply"/>
</g>
</mask>
<g mask="url(#mask20_266_10873)">
<path opacity="0.53" d="M16.9888 15.535L19.1134 15.5242L20.8522 18.537L19.7907 20.3882L16.9888 15.535Z" fill="url(#paint48_linear_266_10873)" style="mix-blend-mode:overlay"/>
</g>
<mask id="mask21_266_10873" style="mask-type:luminance" maskUnits="userSpaceOnUse" x="16" y="10" width="5" height="5">
<g clip-path="url(#clip22_266_10873)">
<rect width="3.86424" height="4.86399" transform="translate(16.9557 10.0229)" fill="white"/>
<path d="M16.9557 14.8761L19.0811 14.8869L20.8199 11.875L19.7584 10.0229L16.9557 14.8761Z" fill="url(#paint49_linear_266_10873)" style="mix-blend-mode:multiply"/>
</g>
</mask>
<g mask="url(#mask21_266_10873)">
<path d="M16.9557 14.8761L19.0811 14.8869L20.8199 11.875L19.7584 10.0229L16.9557 14.8761Z" fill="url(#paint50_linear_266_10873)" style="mix-blend-mode:overlay"/>
</g>
<mask id="mask22_266_10873" style="mask-type:luminance" maskUnits="userSpaceOnUse" x="24" y="9" width="6" height="7">
<g clip-path="url(#clip23_266_10873)">
<rect width="4.3718" height="5.48882" transform="translate(24.9474 9.70639)" fill="white"/>
<path d="M26.1514 9.70639L24.9474 11.7919L26.9131 15.1952L29.3193 15.1911L26.1514 9.70639Z" fill="url(#paint51_linear_266_10873)" style="mix-blend-mode:multiply"/>
</g>
</mask>
<g mask="url(#mask22_266_10873)">
<path d="M26.1514 9.70639L24.9474 11.7919L26.9131 15.1952L29.3193 15.1911L26.1514 9.70639Z" fill="url(#paint52_linear_266_10873)" style="mix-blend-mode:overlay"/>
</g>
<mask id="mask23_266_10873" style="mask-type:luminance" maskUnits="userSpaceOnUse" x="25" y="10" width="5" height="5">
<g clip-path="url(#clip24_266_10873)">
<rect width="3.86424" height="4.86399" transform="translate(25.1694 10.0229)" fill="white"/>
<path d="M29.0328 14.8761L26.9081 14.8869L25.1694 11.875L26.2308 10.0229L29.0328 14.8761Z" fill="url(#paint53_linear_266_10873)" style="mix-blend-mode:multiply"/>
</g>
</mask>
<g mask="url(#mask23_266_10873)">
<path d="M29.0328 14.8761L26.9081 14.8869L25.1694 11.875L26.2308 10.0229L29.0328 14.8761Z" fill="url(#paint54_linear_266_10873)" style="mix-blend-mode:overlay"/>
</g>
<mask id="mask24_266_10873" style="mask-type:luminance" maskUnits="userSpaceOnUse" x="19" y="11" width="8" height="6">
<g clip-path="url(#clip25_266_10873)">
<rect width="7.16545" height="5.18637" transform="translate(19.0737 11.7986)" fill="white"/>
<path d="M26.2391 14.0311L24.9549 11.7986H21.0344L19.0737 15.206L20.0979 16.9849C20.6502 16.3377 21.4426 15.5043 22.408 14.9202C23.809 14.0727 25.4815 14.0095 26.2391 14.0311Z" fill="url(#paint55_linear_266_10873)" style="mix-blend-mode:multiply"/>
</g>
</mask>
<g mask="url(#mask24_266_10873)">
<path opacity="0.4" d="M26.2391 14.0311L24.9549 11.7986H21.0344L19.0737 15.206L20.0979 16.9849C20.6502 16.3377 21.4426 15.5043 22.408 14.9202C23.809 14.0727 25.4815 14.0095 26.2391 14.0311Z" fill="url(#paint56_linear_266_10873)" style="mix-blend-mode:overlay"/>
</g>
<path d="M19.8412 9.70639L20.8522 11.7986L19.0157 15.0639L16.67 15.221L18.9768 15.3556L20.8199 18.2404L19.2111 15.2708L21.0418 11.9257L24.8853 11.9124L26.6481 14.7366L25.0692 11.7986L26.158 9.73547L24.8853 11.703H21.0418L19.8412 9.70639Z" fill="white"/>
<path opacity="0.7" d="M22.8741 9.51862C23.2666 10.3287 24.7206 12.6004 24.7206 12.6004C24.7206 12.6004 26.9114 15.1678 26.9951 15.2525C27.0779 15.3381 25.1337 12.2539 25.1337 12.2539L22.8741 9.51862Z" fill="white"/>
<path opacity="0.7" d="M22.8891 15.0963C23.4794 14.43 25.2174 12.3868 25.2174 12.3868C25.2174 12.3868 26.6672 9.65571 26.7028 9.57761C26.7127 9.55434 24.8489 12.1475 24.8489 12.1475L22.8891 15.0955V15.0963Z" fill="white"/>
<path d="M25.3797 11.8966C24.8423 11.477 24.9416 10.2955 24.9358 9.96232V10.2814C24.9342 10.2299 24.9317 10.175 24.9317 10.1634V9.96149C24.9301 10.057 24.9234 10.2083 24.9036 10.3836C24.9036 10.3836 24.7446 11.5684 24.4622 11.816C23.8247 12.3744 22.2184 12.2689 22.8352 12.2821C24.9135 12.327 24.9135 14.3643 24.9317 15.0324V14.695C24.9334 14.7191 24.9342 14.7391 24.9358 14.7532V15.0324C24.9797 13.4504 24.9739 12.4508 26.7889 12.3162C27.3884 12.2713 26.0048 12.386 25.3797 11.8966Z" fill="white"/>
<path opacity="0.7" d="M19.4736 16.0277C19.7187 16.5346 20.6286 17.9546 20.6286 17.9546C20.6286 17.9546 21.999 19.5598 22.0511 19.613C22.1033 19.6662 20.8878 17.7377 20.8878 17.7377L19.4744 16.0269L19.4736 16.0277Z" fill="white"/>
<path opacity="0.7" d="M19.4835 19.5158C19.8528 19.0987 20.9391 17.8208 20.9391 17.8208C20.9391 17.8208 21.8458 16.1133 21.8673 16.0643C21.8739 16.0494 20.7081 17.6712 20.7081 17.6712L19.4827 19.515L19.4835 19.5158Z" fill="white"/>
<path d="M21.0401 17.5159C20.7048 17.2533 20.7661 16.5146 20.7628 16.3061V16.5055C20.7619 16.4731 20.7603 16.439 20.7603 16.4316V16.3053C20.7603 16.3651 20.7553 16.4598 20.7429 16.5695C20.7429 16.5695 20.6435 17.3106 20.4672 17.4643C20.0681 17.8142 19.0646 17.7477 19.4496 17.756C20.7487 17.7834 20.7487 19.058 20.7603 19.4759V19.2649C20.7611 19.2807 20.7619 19.2931 20.7628 19.3006V19.4751C20.7901 18.4863 20.7868 17.8607 21.9211 17.7768C22.2962 17.7485 21.431 17.82 21.0401 17.5142V17.5159Z" fill="white"/>
</g>
<defs>
<linearGradient id="paint0_linear_266_10873" x1="15.033" y1="30.2616" x2="30.9678" y2="30.2616" gradientUnits="userSpaceOnUse">
<stop offset="0.06" stop-color="#FD824C"/>
<stop offset="0.45" stop-color="#D36E4D"/>
<stop offset="1" stop-color="#632100"/>
</linearGradient>
<linearGradient id="paint1_linear_266_10873" x1="19.2964" y1="29.0012" x2="22.603" y2="32.4652" gradientUnits="userSpaceOnUse">
<stop stop-color="white"/>
<stop offset="1" stop-color="#383838"/>
</linearGradient>
<linearGradient id="paint2_linear_266_10873" x1="19.2964" y1="29.0012" x2="22.603" y2="32.4652" gradientUnits="userSpaceOnUse">
<stop stop-color="white"/>
<stop offset="1" stop-color="white"/>
</linearGradient>
<linearGradient id="paint3_linear_266_10873" x1="22.36" y1="31.5387" x2="23.4229" y2="38.7862" gradientUnits="userSpaceOnUse">
<stop offset="0.06" stop-color="#FD824C"/>
<stop offset="0.45" stop-color="#D36E4D"/>
<stop offset="1" stop-color="#632100"/>
</linearGradient>
<linearGradient id="paint4_linear_266_10873" x1="18.691" y1="34.0428" x2="19.4085" y2="36.8209" gradientUnits="userSpaceOnUse">
<stop stop-color="white"/>
<stop offset="1" stop-color="#383838"/>
</linearGradient>
<linearGradient id="paint5_linear_266_10873" x1="18.691" y1="34.0428" x2="19.4085" y2="36.8209" gradientUnits="userSpaceOnUse">
<stop stop-color="white"/>
<stop offset="1" stop-color="white"/>
</linearGradient>
<linearGradient id="paint6_linear_266_10873" x1="22.644" y1="29.4423" x2="23.1542" y2="41.4368" gradientUnits="userSpaceOnUse">
<stop offset="0.06" stop-color="#FD824C"/>
<stop offset="0.45" stop-color="#D36E4D"/>
<stop offset="1" stop-color="#632100"/>
</linearGradient>
<linearGradient id="paint7_linear_266_10873" x1="17.4451" y1="36.3186" x2="18.4285" y2="40.1257" gradientUnits="userSpaceOnUse">
<stop stop-color="white"/>
<stop offset="1" stop-color="#383838"/>
</linearGradient>
<linearGradient id="paint8_linear_266_10873" x1="17.4451" y1="36.3186" x2="18.4285" y2="40.1257" gradientUnits="userSpaceOnUse">
<stop stop-color="white"/>
<stop offset="1" stop-color="white"/>
</linearGradient>
<linearGradient id="paint9_linear_266_10873" x1="11.5902" y1="31.9143" x2="34.6946" y2="32.3351" gradientUnits="userSpaceOnUse">
<stop offset="0.25"/>
<stop offset="1" stop-color="white"/>
</linearGradient>
<linearGradient id="paint10_linear_266_10873" x1="7.30787" y1="4.94126" x2="8.2517" y2="34.0436" gradientUnits="userSpaceOnUse">
<stop offset="0.06" stop-color="#FD824C"/>
<stop offset="0.45" stop-color="#D36E4D"/>
<stop offset="1" stop-color="#632100"/>
</linearGradient>
<linearGradient id="paint11_linear_266_10873" x1="3.84521" y1="10.3046" x2="8.40828" y2="10.3046" gradientUnits="userSpaceOnUse">
<stop offset="0.06" stop-color="#FD824C"/>
<stop offset="0.45" stop-color="#D36E4D"/>
<stop offset="1" stop-color="#632100"/>
</linearGradient>
<linearGradient id="paint12_linear_266_10873" x1="-12.3123" y1="-23.8812" x2="3.61765" y2="8.95247" gradientUnits="userSpaceOnUse">
<stop stop-color="white"/>
<stop offset="1" stop-color="#383838"/>
</linearGradient>
<linearGradient id="paint13_linear_266_10873" x1="-8.26505e-05" y1="11.4462" x2="8.36431" y2="11.4462" gradientUnits="userSpaceOnUse">
<stop stop-color="white"/>
<stop offset="1" stop-color="white"/>
</linearGradient>
<linearGradient id="paint14_linear_266_10873" x1="-8.25178" y1="-18.9774" x2="9.2395" y2="17.0759" gradientUnits="userSpaceOnUse">
<stop stop-color="white"/>
<stop offset="1" stop-color="#383838"/>
</linearGradient>
<linearGradient id="paint15_linear_266_10873" x1="37.8054" y1="3.95251" x2="38.7492" y2="33.0548" gradientUnits="userSpaceOnUse">
<stop offset="0.06" stop-color="#FD824C"/>
<stop offset="0.45" stop-color="#D36E4D"/>
<stop offset="1" stop-color="#632100"/>
</linearGradient>
<linearGradient id="paint16_linear_266_10873" x1="58.3123" y1="-23.8812" x2="42.3823" y2="8.95247" gradientUnits="userSpaceOnUse">
<stop stop-color="white"/>
<stop offset="1" stop-color="#383838"/>
</linearGradient>
<linearGradient id="paint17_linear_266_10873" x1="58.3123" y1="-23.8812" x2="42.3823" y2="8.95247" gradientUnits="userSpaceOnUse">
<stop stop-color="white"/>
<stop offset="1" stop-color="white"/>
</linearGradient>
<linearGradient id="paint18_linear_266_10873" x1="54.2518" y1="-18.9774" x2="36.7605" y2="17.0759" gradientUnits="userSpaceOnUse">
<stop stop-color="white"/>
<stop offset="1" stop-color="#383838"/>
</linearGradient>
<linearGradient id="paint19_linear_266_10873" x1="8.38675" y1="15.6779" x2="37.6141" y2="15.6779" gradientUnits="userSpaceOnUse">
<stop offset="0.06" stop-color="#FD824C"/>
<stop offset="0.45" stop-color="#D36E4D"/>
<stop offset="1" stop-color="#632100"/>
</linearGradient>
<linearGradient id="paint20_linear_266_10873" x1="6.94521" y1="2.49182" x2="39.0556" y2="2.49182" gradientUnits="userSpaceOnUse">
<stop offset="0.06" stop-color="#FD824C"/>
<stop offset="0.45" stop-color="#D36E4D"/>
<stop offset="1" stop-color="#632100"/>
</linearGradient>
<linearGradient id="paint21_linear_266_10873" x1="9.15499" y1="14.8935" x2="26.5843" y2="14.8935" gradientUnits="userSpaceOnUse">
<stop stop-color="white"/>
<stop offset="1" stop-color="#383838"/>
</linearGradient>
<linearGradient id="paint22_linear_266_10873" x1="9.15499" y1="14.8935" x2="26.5843" y2="14.8935" gradientUnits="userSpaceOnUse">
<stop stop-color="white"/>
<stop offset="1" stop-color="white"/>
</linearGradient>
<linearGradient id="paint23_linear_266_10873" x1="10.417" y1="13.0482" x2="23.6533" y2="13.0482" gradientUnits="userSpaceOnUse">
<stop stop-color="white"/>
<stop offset="1" stop-color="#383838"/>
</linearGradient>
<linearGradient id="paint24_linear_266_10873" x1="10.417" y1="13.0482" x2="23.6533" y2="13.0482" gradientUnits="userSpaceOnUse">
<stop stop-color="white"/>
<stop offset="1" stop-color="white"/>
</linearGradient>
<linearGradient id="paint25_linear_266_10873" x1="7.37415" y1="2.11544" x2="38.0662" y2="2.11544" gradientUnits="userSpaceOnUse">
<stop stop-color="white"/>
<stop offset="1" stop-color="#383838"/>
</linearGradient>
<linearGradient id="paint26_linear_266_10873" x1="7.37415" y1="2.11544" x2="38.0662" y2="2.11544" gradientUnits="userSpaceOnUse">
<stop stop-color="white"/>
<stop offset="1" stop-color="white"/>
</linearGradient>
<linearGradient id="paint27_linear_266_10873" x1="6.58669" y1="12.877" x2="39.6924" y2="13.4802" gradientUnits="userSpaceOnUse">
<stop offset="0.25"/>
<stop offset="1" stop-color="white"/>
</linearGradient>
<linearGradient id="paint28_linear_266_10873" x1="6.58668" y1="12.877" x2="39.6924" y2="13.4802" gradientUnits="userSpaceOnUse">
<stop offset="0.25" stop-color="#FDE403"/>
<stop offset="1" stop-color="#EA8D00"/>
</linearGradient>
<linearGradient id="paint29_linear_266_10873" x1="16.2121" y1="15.2816" x2="29.7879" y2="15.2816" gradientUnits="userSpaceOnUse">
<stop offset="0.25" stop-color="#D3D3D3"/>
<stop offset="1" stop-color="#999999"/>
</linearGradient>
<linearGradient id="paint30_linear_266_10873" x1="16.6725" y1="15.206" x2="29.3259" y2="15.206" gradientUnits="userSpaceOnUse">
<stop stop-color="#29CE2B"/>
<stop offset="1" stop-color="#292700"/>
</linearGradient>
<linearGradient id="paint31_linear_266_10873" x1="19.0737" y1="15.2168" x2="26.9156" y2="15.2168" gradientUnits="userSpaceOnUse">
<stop stop-color="white"/>
<stop offset="1" stop-color="#595959"/>
</linearGradient>
<linearGradient id="paint32_linear_266_10873" x1="19.0737" y1="15.2168" x2="26.9156" y2="15.2168" gradientUnits="userSpaceOnUse">
<stop stop-color="white"/>
<stop offset="1" stop-color="white"/>
</linearGradient>
<linearGradient id="paint33_linear_266_10873" x1="22.9992" y1="11.7553" x2="22.9992" y2="9.6125" gradientUnits="userSpaceOnUse">
<stop stop-color="white"/>
<stop offset="1" stop-color="#595959"/>
</linearGradient>
<linearGradient id="paint34_linear_266_10873" x1="22.9992" y1="11.7553" x2="22.9992" y2="9.6125" gradientUnits="userSpaceOnUse">
<stop stop-color="white"/>
<stop offset="1" stop-color="white"/>
</linearGradient>
<linearGradient id="paint35_linear_266_10873" x1="22.3136" y1="15.1952" x2="25.0692" y2="15.1952" gradientUnits="userSpaceOnUse">
<stop stop-color="#595959"/>
<stop offset="1" stop-color="white"/>
</linearGradient>
<linearGradient id="paint36_linear_266_10873" x1="22.3136" y1="15.1952" x2="25.0692" y2="15.1952" gradientUnits="userSpaceOnUse">
<stop stop-color="white"/>
<stop offset="1" stop-color="white"/>
</linearGradient>
<linearGradient id="paint37_linear_266_10873" x1="19.0737" y1="14.4474" x2="23.7477" y2="14.4474" gradientUnits="userSpaceOnUse">
<stop stop-color="#595959"/>
<stop offset="1" stop-color="white"/>
</linearGradient>
<linearGradient id="paint38_linear_266_10873" x1="19.0737" y1="14.4474" x2="23.7477" y2="14.4474" gradientUnits="userSpaceOnUse">
<stop stop-color="white"/>
<stop offset="1" stop-color="white"/>
</linearGradient>
<linearGradient id="paint39_linear_266_10873" x1="20.0648" y1="10.627" x2="25.9336" y2="10.627" gradientUnits="userSpaceOnUse">
<stop stop-color="white"/>
<stop offset="1" stop-color="#595959"/>
</linearGradient>
<linearGradient id="paint40_linear_266_10873" x1="20.0648" y1="10.627" x2="25.9336" y2="10.627" gradientUnits="userSpaceOnUse">
<stop stop-color="white"/>
<stop offset="1" stop-color="white"/>
</linearGradient>
<linearGradient id="paint41_linear_266_10873" x1="20.2444" y1="19.6687" x2="25.7539" y2="19.6687" gradientUnits="userSpaceOnUse">
<stop stop-color="#595959"/>
<stop offset="1" stop-color="white"/>
</linearGradient>
<linearGradient id="paint42_linear_266_10873" x1="20.2444" y1="19.6687" x2="25.7539" y2="19.6687" gradientUnits="userSpaceOnUse">
<stop stop-color="white"/>
<stop offset="1" stop-color="white"/>
</linearGradient>
<linearGradient id="paint43_linear_266_10873" x1="17.5803" y1="15.7187" x2="20.7639" y2="10.2438" gradientUnits="userSpaceOnUse">
<stop stop-color="#595959"/>
<stop offset="1" stop-color="white"/>
</linearGradient>
<linearGradient id="paint44_linear_266_10873" x1="17.5803" y1="15.7187" x2="20.7639" y2="10.2438" gradientUnits="userSpaceOnUse">
<stop stop-color="white"/>
<stop offset="1" stop-color="white"/>
</linearGradient>
<linearGradient id="paint45_linear_266_10873" x1="26.7475" y1="18.586" x2="28.1102" y2="13.1518" gradientUnits="userSpaceOnUse">
<stop stop-color="#595959"/>
<stop offset="1" stop-color="white"/>
</linearGradient>
<linearGradient id="paint46_linear_266_10873" x1="26.7475" y1="18.586" x2="28.1102" y2="13.1518" gradientUnits="userSpaceOnUse">
<stop stop-color="white"/>
<stop offset="1" stop-color="white"/>
</linearGradient>
<linearGradient id="paint47_linear_266_10873" x1="17.3398" y1="13.9688" x2="20.4827" y2="20.0237" gradientUnits="userSpaceOnUse">
<stop stop-color="#595959"/>
<stop offset="1" stop-color="white"/>
</linearGradient>
<linearGradient id="paint48_linear_266_10873" x1="17.3398" y1="13.9688" x2="20.4827" y2="20.0237" gradientUnits="userSpaceOnUse">
<stop stop-color="white"/>
<stop offset="1" stop-color="white"/>
</linearGradient>
<linearGradient id="paint49_linear_266_10873" x1="16.9557" y1="12.4549" x2="20.8199" y2="12.4549" gradientUnits="userSpaceOnUse">
<stop stop-color="#595959"/>
<stop offset="1" stop-color="white"/>
</linearGradient>
<linearGradient id="paint50_linear_266_10873" x1="16.9557" y1="12.4549" x2="20.8199" y2="12.4549" gradientUnits="userSpaceOnUse">
<stop stop-color="white"/>
<stop offset="1" stop-color="white"/>
</linearGradient>
<linearGradient id="paint51_linear_266_10873" x1="25.2505" y1="10.2381" x2="28.434" y2="15.713" gradientUnits="userSpaceOnUse">
<stop stop-color="#595959"/>
<stop offset="1" stop-color="white"/>
</linearGradient>
<linearGradient id="paint52_linear_266_10873" x1="25.2505" y1="10.2381" x2="28.434" y2="15.713" gradientUnits="userSpaceOnUse">
<stop stop-color="white"/>
<stop offset="1" stop-color="white"/>
</linearGradient>
<linearGradient id="paint53_linear_266_10873" x1="25.1694" y1="12.4549" x2="29.0328" y2="12.4549" gradientUnits="userSpaceOnUse">
<stop stop-color="white"/>
<stop offset="1" stop-color="#595959"/>
</linearGradient>
<linearGradient id="paint54_linear_266_10873" x1="25.1694" y1="12.4549" x2="29.0328" y2="12.4549" gradientUnits="userSpaceOnUse">
<stop stop-color="white"/>
<stop offset="1" stop-color="white"/>
</linearGradient>
<linearGradient id="paint55_linear_266_10873" x1="19.0737" y1="14.3917" x2="26.2391" y2="14.3917" gradientUnits="userSpaceOnUse">
<stop stop-color="#595959"/>
<stop offset="1" stop-color="white"/>
</linearGradient>
<linearGradient id="paint56_linear_266_10873" x1="19.0737" y1="14.3917" x2="26.2391" y2="14.3917" gradientUnits="userSpaceOnUse">
<stop stop-color="white"/>
<stop offset="1" stop-color="white"/>
</linearGradient>
<clipPath id="clip0_266_10873">
<rect width="46" height="39" fill="white"/>
</clipPath>
<clipPath id="clip1_266_10873">
<rect width="4.61606" height="5.5503" fill="white" transform="translate(19.1175 27.7274)"/>
</clipPath>
<clipPath id="clip2_266_10873">
<rect width="7.73015" height="1.39505" fill="white" transform="translate(14.9875 34.0014)"/>
</clipPath>
<clipPath id="clip3_266_10873">
<rect width="9.78688" height="2.05644" fill="white" transform="translate(12.7826 36.0977)"/>
</clipPath>
<clipPath id="clip4_266_10873">
<rect width="10.9866" height="13.6065" fill="white" transform="translate(23.0008 25.3935)"/>
</clipPath>
<clipPath id="clip5_266_10873">
<rect width="8.36439" height="12.9244" fill="white" transform="translate(0 4.98447)"/>
</clipPath>
<clipPath id="clip6_266_10873">
<rect width="10.2415" height="6.69526" fill="white" transform="translate(5.09547 16.2222)"/>
</clipPath>
<clipPath id="clip7_266_10873">
<rect width="8.36439" height="12.9244" fill="white" transform="translate(37.6356 4.98447)"/>
</clipPath>
<clipPath id="clip8_266_10873">
<rect width="10.2415" height="6.69526" fill="white" transform="translate(30.6631 16.2222)"/>
</clipPath>
<clipPath id="clip9_266_10873">
<rect width="17.4293" height="17.5798" fill="white" transform="translate(9.15512 6.10367)"/>
</clipPath>
<clipPath id="clip10_266_10873">
<rect width="13.2363" height="12.9069" fill="white" transform="translate(10.417 6.59473)"/>
</clipPath>
<clipPath id="clip11_266_10873">
<rect width="30.6921" height="3.45481" fill="white" transform="translate(7.37411 0.388031)"/>
</clipPath>
<clipPath id="clip12_266_10873">
<rect width="16.0548" height="26.6431" fill="white" transform="translate(23.0008)"/>
</clipPath>
<clipPath id="clip13_266_10873">
<rect width="7.8411" height="6.81407" fill="white" transform="translate(19.0737 11.8094)"/>
</clipPath>
<clipPath id="clip14_266_10873">
<rect width="6.31676" height="2.0905" fill="white" transform="translate(19.8412 9.70639)"/>
</clipPath>
<clipPath id="clip15_266_10873">
<rect width="2.75473" height="6.81491" fill="white" transform="translate(22.3136 11.7886)"/>
</clipPath>
<clipPath id="clip16_266_10873">
<rect width="4.67402" height="5.31765" fill="white" transform="translate(19.0737 11.7886)"/>
</clipPath>
<clipPath id="clip17_266_10873">
<rect width="5.86799" height="1.83958" fill="white" transform="translate(20.0648 9.70639)"/>
</clipPath>
<clipPath id="clip18_266_10873">
<rect width="5.5103" height="1.75732" fill="white" transform="translate(20.2444 18.7896)"/>
</clipPath>
<clipPath id="clip19_266_10873">
<rect width="4.36684" height="5.49712" fill="white" transform="translate(16.675 9.70639)"/>
</clipPath>
<clipPath id="clip20_266_10873">
<rect width="3.86424" height="4.86399" fill="white" transform="translate(25.2008 15.5242)"/>
</clipPath>
<clipPath id="clip21_266_10873">
<rect width="3.86424" height="4.86399" fill="white" transform="translate(16.9888 15.5242)"/>
</clipPath>
<clipPath id="clip22_266_10873">
<rect width="3.86424" height="4.86399" fill="white" transform="translate(16.9557 10.0229)"/>
</clipPath>
<clipPath id="clip23_266_10873">
<rect width="4.3718" height="5.48882" fill="white" transform="translate(24.9474 9.70639)"/>
</clipPath>
<clipPath id="clip24_266_10873">
<rect width="3.86424" height="4.86399" fill="white" transform="translate(25.1694 10.0229)"/>
</clipPath>
<clipPath id="clip25_266_10873">
<rect width="7.16545" height="5.18637" fill="white" transform="translate(19.0737 11.7986)"/>
</clipPath>
</defs>
</svg>
