<svg width="24" height="24" viewBox="0 0 24 24" fill="none" xmlns="http://www.w3.org/2000/svg">
<path d="M4.97317 21.8822C4.91618 21.8822 4.8602 21.8527 4.82903 21.8C4.78209 21.7213 4.80757 21.6193 4.88568 21.5714L9.66837 18.6553L4.11834 21.8597C4.03822 21.906 3.93698 21.8791 3.89039 21.8C3.84346 21.7213 3.86893 21.619 3.94738 21.5714L9.02071 18.4863L3.20317 21.845C3.12372 21.8909 3.02248 21.8647 2.97522 21.7856C2.92829 21.7068 2.95376 21.6049 3.03187 21.5567L10.61 16.9148L2.62356 21.5262C2.54411 21.5724 2.44288 21.5459 2.39561 21.4668C2.34868 21.3884 2.37382 21.2865 2.45159 21.2382L11.9107 15.3999L2.37248 20.9073C2.29269 20.9536 2.19078 20.9268 2.14419 20.8473C2.09726 20.7682 2.1234 20.666 2.20218 20.6184L4.79148 19.0639L2.36946 20.4621C2.28968 20.5081 2.18844 20.4819 2.14151 20.4028C2.09457 20.3244 2.11972 20.2225 2.19782 20.1742L11.423 14.4978L2.36913 19.7253C2.28901 19.7712 2.18743 19.7448 2.14084 19.665C2.0939 19.5859 2.12005 19.4836 2.19916 19.4363L3.1844 18.8463L2.36879 19.317C2.28934 19.3633 2.1881 19.3368 2.14084 19.2577C2.0939 19.1792 2.11905 19.0773 2.19715 19.029L10.6593 13.8246L2.36913 18.6117C2.28968 18.6576 2.1881 18.6311 2.14151 18.5527C2.09424 18.4742 2.11938 18.3723 2.19715 18.3241L10.3512 13.2775L2.36913 17.8862C2.28968 17.9322 2.18844 17.9057 2.14117 17.8273C2.09424 17.7485 2.11938 17.6466 2.19715 17.5983L8.93959 13.4334L2.36913 17.2272C2.28901 17.2731 2.18777 17.2466 2.14084 17.1675C2.0939 17.0884 2.11972 16.9865 2.19816 16.9386L4.78008 15.3707L2.36913 16.7626C2.29035 16.8088 2.18944 16.7827 2.14184 16.7042C2.09457 16.6261 2.11871 16.5246 2.19581 16.4756L9.27951 12.0003L2.36879 15.9909C2.28968 16.0375 2.18911 16.011 2.14151 15.9325C2.09424 15.8548 2.11804 15.7532 2.19514 15.7043L8.40021 11.763L2.36879 15.2453C2.28968 15.2916 2.18911 15.2658 2.14151 15.187C2.09424 15.1092 2.11804 15.0077 2.19481 14.9587L7.22657 11.763L2.36879 14.5675C2.28968 14.6141 2.18911 14.5876 2.14151 14.5092C2.09424 14.4314 2.11804 14.3298 2.19514 14.2809L6.08579 11.8126L2.36845 13.9584C2.28934 14.005 2.18944 13.9785 2.14117 13.9004C2.0939 13.8226 2.1177 13.721 2.19447 13.6718L5.50216 11.5605L2.36812 13.3694C2.28901 13.4153 2.18911 13.3895 2.14084 13.3114C2.09357 13.2336 2.11737 13.1321 2.1938 13.0828L4.58632 11.5555L2.36812 12.836C2.29001 12.882 2.19045 12.8568 2.14218 12.7801C2.09424 12.7036 2.11536 12.6034 2.19011 12.5524L5.87929 10.0369L2.36845 12.0657C2.28968 12.1116 2.18978 12.0861 2.14151 12.008C2.0939 11.9309 2.11703 11.8297 2.19313 11.7797L3.35838 11.0238L2.36845 11.5954C2.28968 11.6413 2.18978 11.6158 2.14151 11.5377C2.0939 11.4603 2.11737 11.359 2.19347 11.3094L2.46064 11.1364L2.36845 11.1897C2.29068 11.2357 2.19112 11.2105 2.14285 11.1341C2.09457 11.058 2.11536 10.9578 2.18978 10.9065L3.64534 9.90415L2.36845 10.641C2.29068 10.6869 2.19145 10.6618 2.14285 10.5857C2.09491 10.5096 2.11536 10.4093 2.18944 10.358L2.93633 9.84079L2.36879 10.1686C2.29269 10.2126 2.19581 10.1901 2.14653 10.1184C2.09726 10.0459 2.11167 9.94772 2.18039 9.89308L3.42241 8.89612L2.36879 9.50422C2.29403 9.5478 2.19749 9.52668 2.14754 9.45528C2.09793 9.38387 2.111 9.28599 2.17805 9.23034L2.7181 8.7808L2.36879 8.9826C2.29605 9.02518 2.20185 9.00574 2.15089 8.93802C2.10027 8.86997 2.10798 8.77476 2.16966 8.71643L2.39728 8.49921L2.36879 8.51563C2.30074 8.55552 2.21425 8.54178 2.16162 8.48379C2.10832 8.42579 2.10262 8.33863 2.14754 8.2746L2.41539 7.8911C2.41136 7.88574 2.40801 7.88038 2.40432 7.87434C2.35806 7.79422 2.38555 7.69164 2.46601 7.64505L2.70167 7.50928C2.76939 7.47039 2.85621 7.48347 2.90884 7.54146C2.96214 7.59946 2.96784 7.68661 2.92292 7.75064L2.85487 7.84819L3.44185 7.50928C3.5146 7.46637 3.60846 7.48548 3.65975 7.55386C3.71037 7.62192 3.70266 7.71712 3.64098 7.77545L3.41403 7.99201L4.25109 7.50894C4.32652 7.46503 4.42273 7.48682 4.47234 7.55789C4.52196 7.62896 4.50888 7.72718 4.44184 7.78282L3.90246 8.23169L5.15487 7.50861C5.23029 7.46402 5.32751 7.48682 5.37712 7.55889C5.4264 7.6313 5.41199 7.72952 5.34326 7.78417L4.10058 8.7818L6.30604 7.50827C6.38314 7.46268 6.48304 7.48782 6.53165 7.56359C6.57958 7.63968 6.55914 7.73992 6.48505 7.79121L5.73615 8.3098L7.125 7.50827C7.20344 7.46268 7.30267 7.48749 7.35061 7.56392C7.39888 7.64002 7.3781 7.74025 7.30368 7.79154L5.84912 8.7932L8.07571 7.50794C8.15448 7.46201 8.25472 7.48749 8.30265 7.5656C8.35026 7.64304 8.32679 7.74427 8.25069 7.79389L7.98586 7.96519L8.77801 7.50794C8.85679 7.46235 8.95702 7.48749 9.00496 7.5656C9.05256 7.6427 9.02943 7.74394 8.95333 7.79389L7.78775 8.54983L9.59295 7.50794C9.67139 7.46268 9.77095 7.48715 9.81889 7.56392C9.86683 7.64035 9.84571 7.74059 9.77095 7.79154L6.0811 10.3074L10.9305 7.5076C11.0103 7.46168 11.1102 7.48782 11.1578 7.5656C11.2051 7.64337 11.1813 7.74494 11.1048 7.79422L8.71331 9.32085L11.8541 7.5076C11.9332 7.46168 12.0337 7.48782 12.0813 7.5656C12.1286 7.64337 12.1048 7.74494 12.028 7.79422L8.72035 9.90582L12.8745 7.5076C12.9539 7.46201 13.0545 7.48782 13.1018 7.56593C13.149 7.64404 13.1252 7.74528 13.0481 7.79422L9.15816 10.2622L13.9298 7.50727C14.0092 7.46134 14.1101 7.48715 14.1571 7.5656C14.2043 7.64337 14.1805 7.74494 14.1038 7.79389L9.07033 10.9906L15.1044 7.50693C15.1839 7.46101 15.2844 7.48682 15.3317 7.56526C15.379 7.64303 15.3552 7.74461 15.2781 7.79355L9.07234 11.7352L16.3964 7.50693C16.4758 7.46134 16.5767 7.48715 16.6237 7.56526C16.6709 7.64337 16.6468 7.74494 16.5697 7.79389L9.48701 12.2685L17.735 7.50693C17.8147 7.46034 17.916 7.48749 17.9632 7.5666C18.0102 7.64572 17.9844 7.74763 17.9059 7.79556L15.3277 9.36108L18.5395 7.50693C18.6189 7.46034 18.7202 7.48682 18.7675 7.56593C18.8144 7.64471 18.7892 7.74662 18.7115 7.79489L11.9697 11.9591L19.6816 7.50693C19.7607 7.46034 19.8623 7.48682 19.9092 7.56593C19.9565 7.64438 19.9314 7.74628 19.8536 7.79456L11.6968 12.8428L20.9391 7.50693C21.0185 7.46067 21.1197 7.48682 21.167 7.56627C21.2139 7.64471 21.1888 7.74662 21.1107 7.79489L12.6475 13L21.4882 7.8958C21.5673 7.8492 21.6695 7.87602 21.7165 7.95614C21.7634 8.03525 21.7372 8.1375 21.6581 8.18476L20.6756 8.77275L21.6269 8.22365C21.7061 8.17705 21.8073 8.20354 21.8549 8.28298C21.9018 8.36143 21.8767 8.46334 21.7986 8.51161L12.5761 14.1863L21.6269 8.96081C21.7064 8.91388 21.8086 8.94104 21.8552 9.02082C21.9022 9.09993 21.876 9.20218 21.7972 9.24978L19.2106 10.8026L21.6269 9.40767C21.7061 9.36108 21.8073 9.38756 21.8549 9.46701C21.9018 9.54545 21.8767 9.64736 21.7989 9.69563L12.3351 15.537L21.6273 10.1723C21.7064 10.1261 21.8076 10.1522 21.8552 10.2317C21.9022 10.3104 21.8767 10.4124 21.7986 10.4606L14.2198 15.1029L21.6276 10.826C21.7071 10.7791 21.8086 10.8062 21.8556 10.8857C21.9025 10.9645 21.877 11.0667 21.7986 11.1143L16.7273 14.1981L21.6276 11.3691C21.7067 11.3228 21.8086 11.3493 21.8556 11.4288C21.9025 11.5075 21.877 11.6094 21.7989 11.6574L17.0182 14.5722L21.6276 11.9112C21.7071 11.8646 21.8086 11.8917 21.8559 11.9708C21.9028 12.0499 21.8767 12.1522 21.7982 12.1998L19.5717 13.5477L21.6276 12.361C21.7071 12.3151 21.8076 12.3409 21.8549 12.4197C21.9025 12.4975 21.878 12.5994 21.8009 12.648L14.6012 17.1793L21.6276 13.1227C21.7067 13.0764 21.808 13.1026 21.8556 13.182C21.9025 13.2604 21.8774 13.3624 21.7993 13.4106L18.22 15.6134L21.6276 13.6463C21.7071 13.6004 21.8076 13.6262 21.8549 13.7046C21.9022 13.7824 21.8784 13.884 21.8016 13.9329L15.9941 17.6231L21.628 14.3704C21.7071 14.3241 21.8083 14.3503 21.8559 14.4297C21.9028 14.5082 21.8777 14.6101 21.7996 14.6583L20.3967 15.5209L21.628 14.8102C21.7071 14.7636 21.8083 14.7901 21.8559 14.8692C21.9028 14.9476 21.8777 15.0496 21.7999 15.0978L20.3135 16.017L21.628 15.2581C21.7074 15.2121 21.808 15.238 21.8552 15.3164C21.9025 15.3948 21.8784 15.4961 21.8013 15.545L19.0611 17.2728L21.628 15.7907C21.7071 15.7445 21.8083 15.771 21.8556 15.8497C21.9028 15.9278 21.878 16.0298 21.8006 16.0784L20.9847 16.5866L21.628 16.2155C21.7074 16.1695 21.808 16.1954 21.8552 16.2738C21.9025 16.3522 21.8784 16.4535 21.8013 16.5024L20.459 17.3499L21.628 16.6751C21.7067 16.6291 21.8066 16.655 21.8546 16.7324C21.9022 16.8095 21.8794 16.9104 21.8039 16.9604L19.3025 18.5989L21.6283 17.2564C21.7054 17.2108 21.805 17.2356 21.8536 17.3113C21.9018 17.3871 21.8817 17.487 21.8083 17.5386L18.7859 19.6546L21.6283 18.0136C21.7067 17.9674 21.807 17.9929 21.8546 18.0703C21.9025 18.1474 21.88 18.2483 21.805 18.2986L20.9464 18.8675L21.6283 18.4739C21.7054 18.4286 21.8053 18.4531 21.8536 18.5289C21.9018 18.6046 21.8817 18.7049 21.808 18.7565L20.5901 19.605L21.6283 19.0059C21.7037 18.9617 21.8003 18.9841 21.8499 19.0552C21.8995 19.1273 21.8857 19.2248 21.8184 19.2805L20.2646 20.5573L21.628 19.7702C21.7041 19.7253 21.8023 19.7491 21.8512 19.8222C21.9002 19.8959 21.8837 19.9948 21.8137 20.0485L21.515 20.2768L21.628 20.2117C21.702 20.1688 21.7979 20.1889 21.8479 20.2593C21.8981 20.3297 21.8867 20.4263 21.8221 20.4833L21.5565 20.7149L21.6212 20.6777C21.701 20.6308 21.8039 20.6586 21.8502 20.739C21.8968 20.8192 21.8693 20.9217 21.7889 20.968L20.2347 21.8654C20.1613 21.909 20.0651 21.8885 20.0148 21.8178C19.9646 21.7474 19.976 21.6509 20.0406 21.5939L20.3065 21.3619L19.4342 21.8654C19.3578 21.91 19.2596 21.8865 19.211 21.8134C19.162 21.7397 19.1784 21.6408 19.2485 21.5872L19.5482 21.3582L18.6696 21.8654C18.5941 21.9097 18.4976 21.8872 18.448 21.8161C18.3984 21.744 18.4121 21.6465 18.4795 21.5909L20.0329 20.3143L17.3458 21.8654C17.268 21.9107 17.1688 21.8862 17.1205 21.8104C17.0722 21.7347 17.0923 21.6344 17.1661 21.5828L18.3823 20.7353L16.4249 21.8654C16.3461 21.9107 16.2459 21.8859 16.1986 21.8087C16.1507 21.7316 16.1731 21.6307 16.2482 21.5805L17.1077 21.0106L15.627 21.8654C15.5503 21.9107 15.4504 21.8862 15.4018 21.8104C15.3535 21.7347 15.3736 21.6348 15.447 21.5831L18.4694 19.4672L14.315 21.8654C14.2362 21.9113 14.1363 21.8855 14.0883 21.8081C14.0407 21.731 14.0635 21.6301 14.139 21.5801L16.6414 19.9409L13.3083 21.8651C13.2295 21.9113 13.1286 21.8855 13.081 21.8067C13.0337 21.7286 13.0579 21.6271 13.135 21.5781L14.4749 20.732L12.5124 21.8651C12.4327 21.911 12.3318 21.8845 12.2848 21.8061C12.2376 21.728 12.2624 21.626 12.3398 21.5774L13.1571 21.0686L11.7776 21.8647C11.6988 21.911 11.5979 21.8852 11.5503 21.8064C11.5031 21.7283 11.5272 21.6267 11.6043 21.5778L14.3468 19.8487L10.8547 21.8647C10.775 21.9107 10.6737 21.8842 10.6271 21.8057C10.5799 21.7273 10.605 21.6254 10.6828 21.5771L12.1672 20.6593L10.079 21.8647C9.99924 21.9107 9.898 21.8845 9.85107 21.8054C9.80414 21.727 9.82928 21.625 9.90739 21.5768L11.3053 20.7172L9.31772 21.8647C9.23895 21.911 9.13804 21.8852 9.09044 21.8064C9.04317 21.7286 9.06697 21.6271 9.14374 21.5781L14.9522 17.8876L8.06364 21.8644C7.98419 21.9103 7.88295 21.8842 7.83568 21.8051C7.78875 21.7266 7.81389 21.6247 7.892 21.5764L11.4729 19.3727L7.15685 21.8644C7.07807 21.9107 6.97716 21.8848 6.92956 21.8057C6.88196 21.728 6.90643 21.626 6.98353 21.5774L14.1836 17.0458L5.83773 21.8641C5.75761 21.9103 5.65637 21.8835 5.60944 21.8044C5.5625 21.7253 5.58865 21.623 5.66709 21.5754L7.88865 20.2302L5.05899 21.8637C5.03251 21.8791 5.00368 21.8862 4.97519 21.8862L4.97317 21.8822Z" fill="#E2EBED"/>
<path d="M3.12171 8.48278C3.06573 8.48278 3.01109 8.45462 2.97924 8.40367C2.9313 8.3269 2.95343 8.226 3.02852 8.17571L4.67884 7.07751L2.36912 8.41071C2.29135 8.45596 2.19246 8.43149 2.14419 8.35607C2.09558 8.28064 2.11536 8.18074 2.18844 8.12878L4.81092 6.27531L2.36912 7.68494C2.29269 7.72952 2.19447 7.70639 2.14553 7.63231C2.09658 7.55856 2.11368 7.45933 2.18441 7.40603L4.28227 5.82778L2.36912 6.93235C2.29403 6.97627 2.19816 6.95448 2.14821 6.88341C2.09826 6.81201 2.11133 6.71446 2.17771 6.65881L3.6688 5.40874L2.36912 6.15898C2.29638 6.20122 2.20352 6.18278 2.15223 6.11574C2.10128 6.04869 2.10765 5.95449 2.16732 5.89516L2.97421 5.09397L2.36912 5.44327C2.29772 5.48451 2.20721 5.46774 2.15525 5.40405C2.10329 5.34036 2.10564 5.24817 2.16028 5.18682L2.44287 4.8707C2.39896 4.86065 2.3594 4.83316 2.3356 4.79125C2.289 4.71114 2.31649 4.60856 2.39695 4.56229L3.08383 4.16572C3.15456 4.12415 3.24507 4.14091 3.2977 4.20494C3.34966 4.26863 3.34732 4.36082 3.29268 4.42217L3.10595 4.63102L3.92559 4.15801C3.99766 4.1151 4.09119 4.13387 4.14248 4.20125C4.19343 4.2683 4.18706 4.3625 4.12739 4.42183L3.3205 5.22269L5.16492 4.15801C5.24001 4.11376 5.33622 4.13588 5.38584 4.20695C5.43579 4.27836 5.42271 4.37591 5.35634 4.43156L3.86558 5.68162L6.50382 4.15834C6.57992 4.11342 6.67848 4.13689 6.72742 4.21098C6.77636 4.28473 6.75927 4.38395 6.68853 4.43725L4.59068 6.01551L7.80752 4.15834C7.88429 4.11309 7.98419 4.13756 8.03246 4.21299C8.08107 4.28841 8.06129 4.38831 7.98821 4.44027L5.36438 6.29475L9.0653 4.15834C9.1434 4.11242 9.2433 4.1379 9.29158 4.215C9.33951 4.29177 9.31739 4.39267 9.2423 4.44295L7.59398 5.54015L9.98751 4.15834C10.0643 4.11309 10.1642 4.13756 10.2124 4.21299C10.2611 4.28841 10.2413 4.38798 10.1682 4.44027L7.43911 6.37554L11.2801 4.15834C11.3589 4.11242 11.4595 4.13823 11.5071 4.21634C11.5547 4.29378 11.5312 4.39535 11.4548 4.44463L11.1635 4.63169L11.9831 4.15868C12.0622 4.11275 12.1628 4.13823 12.2101 4.21634C12.2577 4.29378 12.2342 4.39535 12.1581 4.44463L11.6549 4.76913L12.7122 4.15902C12.791 4.11309 12.8919 4.1389 12.9392 4.21701C12.9868 4.29445 12.9633 4.39569 12.8869 4.4453L12.5738 4.64644L13.4179 4.15935C13.4973 4.11342 13.5976 4.13924 13.6448 4.21735C13.6924 4.29478 13.669 4.39636 13.5925 4.44563L13.3405 4.60721L14.1162 4.15935C14.1949 4.11409 14.2935 4.1389 14.3418 4.21466C14.3901 4.2911 14.3693 4.39133 14.2952 4.44262L11.9288 6.07317L15.2445 4.15935C15.3227 4.11409 15.4215 4.13857 15.4698 4.21433C15.5181 4.29009 15.498 4.39032 15.4242 4.44195L12.8892 6.21027L16.442 4.15935C16.5204 4.11409 16.6197 4.1389 16.6676 4.215C16.7159 4.29143 16.6947 4.39166 16.6203 4.44295L14.4038 5.95751L17.5181 4.15969C17.5968 4.11443 17.6954 4.13924 17.7437 4.21533C17.7919 4.29177 17.7708 4.39166 17.6967 4.44295L15.4008 6.01886L18.621 4.15969C18.6994 4.11376 18.7993 4.1389 18.8476 4.21667C18.8952 4.29344 18.8727 4.39468 18.7973 4.44463L17.3883 5.37522L19.4936 4.15969C19.5717 4.11376 19.6712 4.13924 19.7195 4.216C19.7674 4.29277 19.746 4.39334 19.6709 4.44396L17.7567 5.73224L20.4805 4.16002C20.5599 4.11409 20.6602 4.13991 20.7074 4.21802C20.755 4.29545 20.7312 4.39703 20.6548 4.44631L20.4976 4.54721L21.0255 4.24249C21.104 4.19723 21.2036 4.2217 21.2515 4.29847C21.2994 4.3749 21.2783 4.47547 21.2036 4.52609L19.213 5.8784L21.4459 4.58945C21.5227 4.54486 21.6212 4.56833 21.6702 4.64275C21.7188 4.71717 21.7007 4.81673 21.6293 4.86936L19.2026 6.65546L21.6249 5.25722C21.7017 5.2123 21.8003 5.2361 21.8492 5.31052C21.8978 5.38528 21.8797 5.48484 21.808 5.53747L20.3139 6.63367L21.6273 5.87538C21.703 5.83046 21.8019 5.85359 21.8509 5.92801C21.8998 6.0021 21.8827 6.10132 21.8117 6.15463L20.9981 6.76407L21.629 6.40001C21.7024 6.35744 21.7966 6.37722 21.8475 6.4456C21.8981 6.51432 21.8891 6.60986 21.8267 6.66786L21.0162 7.42078L21.6313 7.06544C21.7 7.02555 21.7875 7.03963 21.8402 7.09896C21.8928 7.1583 21.8971 7.24613 21.8499 7.31015L21.517 7.76171L21.6333 7.69466C21.7131 7.64806 21.8153 7.67522 21.8623 7.75601C21.9089 7.83613 21.8814 7.93871 21.8009 7.98497L20.9893 8.45362C20.9213 8.49418 20.8338 8.47976 20.7805 8.42009C20.7279 8.36109 20.7235 8.27293 20.7708 8.2089L21.1037 7.75701L19.8972 8.45362C19.8241 8.49653 19.7296 8.47708 19.6786 8.40803C19.628 8.3393 19.637 8.24376 19.6994 8.18577L20.5103 7.43285L18.7406 8.45429C18.6642 8.49887 18.566 8.47574 18.517 8.40166C18.4681 8.32757 18.4852 8.22834 18.5563 8.17504L19.3689 7.56627L17.8292 8.45496C17.7527 8.50021 17.6538 8.47608 17.6049 8.40166C17.5563 8.3269 17.5744 8.22734 17.6461 8.17471L19.1402 7.07851L16.7558 8.45496C16.6793 8.50055 16.5804 8.47641 16.5315 8.40166C16.4829 8.32724 16.501 8.22767 16.5724 8.17504L18.9991 6.38861L15.4189 8.45563C15.3411 8.50122 15.2412 8.47641 15.1929 8.39964C15.145 8.32321 15.1661 8.22264 15.2409 8.17203L17.2308 6.82005L14.3964 8.4563C14.3176 8.50256 14.2171 8.47608 14.1695 8.3983C14.1219 8.32053 14.1457 8.21929 14.2221 8.17001L14.381 8.0681L13.7082 8.4563C13.6294 8.50189 13.5302 8.47641 13.4823 8.39998C13.4343 8.32321 13.4558 8.22264 13.5309 8.17203L15.4443 6.88408L12.7203 8.45663C12.6418 8.50189 12.5413 8.47708 12.4937 8.39964C12.4461 8.32288 12.4685 8.22164 12.544 8.17169L13.9536 7.24076L11.847 8.45697C11.7692 8.50256 11.67 8.47775 11.6214 8.40132C11.5731 8.32489 11.5943 8.22499 11.6683 8.1737L13.9636 6.59813L10.7431 8.45764C10.665 8.50357 10.5658 8.47842 10.5175 8.40199C10.4692 8.32556 10.4903 8.22533 10.5648 8.17404L12.7826 6.65847L9.66602 8.45764C9.58825 8.50289 9.48902 8.47842 9.44075 8.40266C9.39248 8.3269 9.41259 8.22667 9.48634 8.17504L12.0213 6.40672L8.46692 8.45831C8.38881 8.50424 8.28958 8.47876 8.24131 8.403C8.19303 8.32656 8.21382 8.22633 8.2879 8.17504L10.6536 6.54483L7.33753 8.45898C7.25875 8.50558 7.15819 8.47909 7.11058 8.40099C7.06298 8.32355 7.08645 8.22197 7.16288 8.1727L7.41564 8.01078L6.63858 8.45932C6.55947 8.50524 6.4589 8.47909 6.41163 8.40132C6.36403 8.32388 6.3875 8.22264 6.46393 8.17303L6.7777 7.97156L5.93259 8.45932C5.85382 8.50524 5.75325 8.47976 5.70565 8.40166C5.65804 8.32422 5.68151 8.22264 5.75761 8.17337L6.25709 7.85121L5.20247 8.45965C5.12369 8.50558 5.02312 8.47943 4.97552 8.40166C4.92792 8.32388 4.95138 8.22264 5.02781 8.17337L5.3198 7.98564L4.49883 8.45965C4.42172 8.50491 4.32216 8.48043 4.27389 8.40501C4.22528 8.32958 4.24506 8.23002 4.31814 8.17772L7.04689 6.24246L3.20518 8.46032C3.1787 8.47574 3.1502 8.48278 3.12171 8.48278Z" fill="#D6253F"/>
<path d="M17.3119 6.33799C17.2619 6.33799 17.2127 6.31587 17.1798 6.27397C17.1285 6.20826 17.1329 6.1144 17.1909 6.05439L17.4171 5.81906L17.1496 5.97327C17.0786 6.0145 16.9877 5.99774 16.9358 5.93404C16.8838 5.87035 16.8861 5.77783 16.9408 5.71682L17.5328 5.05541L17.1198 5.29376C17.0487 5.33499 16.9572 5.31857 16.9053 5.25387C16.8536 5.18984 16.8563 5.09698 16.912 5.03597L17.5073 4.38228L17.1198 4.60587C17.0464 4.64945 16.9502 4.629 16.8999 4.55827C16.8496 4.48821 16.8607 4.39166 16.9254 4.33467L17.0427 4.23209C16.9948 4.23142 16.9408 4.21265 16.9066 4.17075C16.8546 4.10739 16.8563 4.0152 16.9103 3.95386L17.4835 3.30184L17.1201 3.51169C17.0541 3.55058 16.9703 3.53851 16.9167 3.48387C16.8634 3.42922 16.8536 3.34508 16.8932 3.28005L17.2063 2.7638C17.1285 2.80201 17.0313 2.77419 16.9874 2.69742C16.9408 2.6173 16.9683 2.51472 17.0487 2.46846L17.6042 2.14798C17.6702 2.10943 17.7537 2.12117 17.8077 2.17581C17.861 2.23045 17.8707 2.31459 17.8312 2.37963L17.5187 2.89454L18.1986 2.50198C18.269 2.46075 18.3598 2.47718 18.4121 2.54054C18.4644 2.60389 18.4624 2.69608 18.4084 2.75743L17.8352 3.40911L18.2733 3.15635C18.3474 3.1131 18.4433 3.13355 18.4932 3.20395C18.5435 3.27401 18.5324 3.37056 18.4677 3.42755L18.3501 3.53046C18.3997 3.53046 18.4533 3.55024 18.4875 3.59315C18.5392 3.65718 18.5365 3.75004 18.4808 3.81105L17.8855 4.46474L18.273 4.24115C18.3437 4.19924 18.4346 4.21634 18.4869 4.28037C18.5388 4.34406 18.5365 4.43658 18.4818 4.49759L17.8905 5.15866L18.273 4.93775C18.3451 4.89551 18.4369 4.91361 18.4889 4.97932C18.5402 5.04502 18.5358 5.13888 18.4778 5.19889L18.2515 5.43456L18.273 5.42215C18.3528 5.37489 18.4557 5.40304 18.5019 5.4835C18.5485 5.56362 18.5211 5.6662 18.4406 5.71246L17.396 6.31587C17.3699 6.33129 17.341 6.33833 17.3122 6.33833L17.3119 6.33799Z" fill="#334759"/>
<path d="M11.8075 6.43286C11.7582 6.43286 11.7089 6.41107 11.6761 6.36984C11.6244 6.30481 11.6281 6.21161 11.6848 6.15127L11.7686 6.0611L11.5591 6.18178C11.4887 6.22335 11.3985 6.20658 11.3465 6.14423C11.2942 6.08121 11.2949 5.99036 11.3475 5.92801L11.901 5.27767L11.4203 5.5549C11.3489 5.59681 11.2574 5.57937 11.2054 5.51468C11.1534 5.44998 11.1568 5.35712 11.2128 5.29644L11.7887 4.67158L11.4199 4.88445C11.3482 4.92635 11.2557 4.90892 11.2041 4.84288C11.1528 4.77717 11.1571 4.68365 11.2148 4.62364L11.7213 4.09499L11.4199 4.2693C11.3472 4.31154 11.2533 4.29244 11.2024 4.22539C11.1518 4.15767 11.1588 4.0628 11.2198 4.00414L11.5611 3.67293L11.4203 3.75406C11.3482 3.79663 11.2557 3.77786 11.2037 3.71149C11.1524 3.64511 11.1581 3.55091 11.2171 3.49124L11.4592 3.24686L11.4203 3.26899C11.3516 3.30988 11.2631 3.29446 11.2098 3.23412C11.1575 3.17311 11.1551 3.08394 11.2044 3.02058L11.3951 2.77721C11.3509 2.76715 11.311 2.73966 11.2869 2.69742C11.2403 2.6173 11.2677 2.51472 11.3482 2.46846L11.9037 2.14798C11.9731 2.10742 12.0616 2.12251 12.1142 2.18285C12.1665 2.24386 12.1688 2.33303 12.1196 2.39639L12.0026 2.54523L12.371 2.33269C12.4431 2.29046 12.5362 2.30923 12.5875 2.37527C12.6388 2.44164 12.6331 2.53584 12.5741 2.59551L12.3318 2.84023L12.5651 2.7058C12.6375 2.66289 12.7313 2.682 12.7826 2.74972C12.8333 2.81743 12.8262 2.9123 12.7652 2.97097L12.4243 3.30184L12.5728 3.21602C12.6445 3.17412 12.7367 3.19188 12.7887 3.25759C12.84 3.32296 12.8356 3.41682 12.7779 3.47683L12.2707 4.00582L12.5728 3.8315C12.6439 3.78993 12.7357 3.80703 12.7877 3.87172C12.8396 3.93642 12.8363 4.02928 12.7803 4.08996L12.2047 4.71415L12.5731 4.50162C12.6435 4.46038 12.7337 4.47648 12.7857 4.53916C12.838 4.60219 12.8373 4.69303 12.7847 4.75538L12.2309 5.40606L12.5731 5.20861C12.6442 5.16671 12.7364 5.18414 12.7883 5.24917C12.8403 5.31421 12.8363 5.4074 12.7796 5.46774L12.6402 5.61725C12.6972 5.61826 12.7521 5.6481 12.7826 5.70106C12.8292 5.78118 12.8017 5.88376 12.7213 5.93002L11.8906 6.40973C11.8645 6.42515 11.8356 6.43219 11.8068 6.43219L11.8075 6.43286Z" fill="#334759"/>
<path d="M6.11462 6.43454C6.06568 6.43454 6.01774 6.41342 5.98489 6.37319C5.93293 6.30984 5.9346 6.21765 5.98858 6.1563L6.15954 5.96187L5.83638 6.14859C5.76666 6.18949 5.67681 6.1734 5.62385 6.11138C5.57189 6.04869 5.57189 5.95785 5.62452 5.89549L6.21351 5.19654L5.72173 5.48048C5.64866 5.52373 5.55345 5.50361 5.50283 5.43422C5.45221 5.36516 5.46193 5.26895 5.52529 5.21129L5.69995 5.0524C5.63055 5.07921 5.54876 5.0581 5.50317 4.99608C5.45255 4.92736 5.4616 4.83148 5.52395 4.77349L5.74218 4.57168L5.7214 4.58341C5.65134 4.62465 5.56083 4.60788 5.50819 4.5452C5.45623 4.48217 5.45724 4.39066 5.51088 4.32864L6.17597 3.5613L5.7214 3.82345C5.64765 3.86737 5.55211 3.84625 5.50216 3.77686C5.45188 3.70746 5.46193 3.61125 5.52529 3.55393L5.63558 3.45437C5.59133 3.4537 5.54775 3.43559 5.51591 3.40207C5.4626 3.34575 5.45489 3.25993 5.49747 3.19524L5.77168 2.77553C5.70229 2.7933 5.62552 2.76212 5.58798 2.69642C5.54138 2.6163 5.56887 2.51372 5.64933 2.46746L6.2048 2.14698C6.27218 2.10809 6.35699 2.1205 6.41029 2.17681C6.46359 2.23347 6.4713 2.31895 6.42873 2.38365L6.16323 2.78961L6.76329 2.44332C6.83737 2.40008 6.93224 2.42052 6.98253 2.48992C7.03281 2.55931 7.02275 2.65552 6.9594 2.71284L6.91146 2.75609C6.9728 2.73866 7.04186 2.75944 7.08477 2.81106C7.13673 2.87409 7.13573 2.9656 7.08209 3.02762L6.41767 3.79429L6.87425 3.5308C6.948 3.48822 7.04253 3.508 7.09282 3.57639C7.14344 3.64511 7.13438 3.74099 7.07203 3.79898L6.85313 4.00146L6.87425 3.98939C6.948 3.94648 7.04287 3.96626 7.09315 4.03565C7.14377 4.10471 7.13405 4.20092 7.07069 4.25858L6.89604 4.41748C6.96174 4.392 7.03918 4.40977 7.08645 4.46575C7.13841 4.52844 7.13841 4.61928 7.08578 4.68163L6.49678 5.38058L6.87391 5.16302C6.94465 5.12179 7.03516 5.13822 7.08745 5.20157C7.13975 5.26493 7.13774 5.35712 7.08376 5.41847L6.89838 5.62899C6.96644 5.6129 7.04421 5.64307 7.08175 5.70844C7.12835 5.78856 7.10086 5.89114 7.02041 5.9374L6.19742 6.41275C6.17128 6.42817 6.14245 6.43521 6.11362 6.43521L6.11462 6.43454Z" fill="#334759"/>
<path d="M6.00299 14.1719C5.9507 14.1719 5.89907 14.1475 5.86689 14.1019C5.81661 14.0318 5.828 13.9349 5.8927 13.8783L6.90073 12.9963L4.92322 14.1377C4.84746 14.1816 4.74991 14.1592 4.70097 14.0871C4.65169 14.0144 4.66644 13.9161 4.73516 13.8615L6.41935 12.5226L4.411 13.6822C4.33423 13.7274 4.235 13.7029 4.18639 13.6282C4.13779 13.5531 4.15656 13.4535 4.2293 13.4012L5.2789 12.6446L4.38116 13.1629C4.30607 13.2068 4.20986 13.185 4.16025 13.1139C4.1103 13.0425 4.12304 12.9453 4.18975 12.8893L5.51959 11.7724L4.38116 12.4294C4.30842 12.472 4.21489 12.4532 4.16393 12.3858C4.11298 12.3185 4.11968 12.2239 4.18003 12.1649L4.88032 11.4777L4.3815 11.7653C4.31412 11.8052 4.2283 11.7915 4.17466 11.7342C4.1217 11.6765 4.11533 11.5897 4.15958 11.5253L4.41066 11.1596C4.3473 11.1673 4.28227 11.1361 4.24841 11.0768C4.20181 10.9967 4.2293 10.8941 4.30976 10.8478L4.86489 10.5273C4.93228 10.4878 5.01843 10.5012 5.07173 10.5585C5.1247 10.6162 5.13107 10.703 5.08682 10.7674L4.85517 11.1049L5.85683 10.5267C5.92924 10.4841 6.02277 10.5032 6.07406 10.5702C6.12502 10.6376 6.11831 10.7322 6.05797 10.7912L5.35768 11.4787L7.00666 10.5267C7.08142 10.4824 7.17797 10.5045 7.22758 10.5756C7.27753 10.647 7.26479 10.7442 7.19808 10.8002L5.86857 11.9169L7.98989 10.6923C8.06665 10.6467 8.16555 10.6711 8.21449 10.7462C8.2631 10.8213 8.24432 10.9209 8.17158 10.9732L7.12131 11.7301L8.20913 11.1022C8.28489 11.0577 8.3821 11.0805 8.43138 11.1529C8.48066 11.2253 8.46591 11.3238 8.39719 11.3785L6.71233 12.7177L8.21583 11.8498C8.29025 11.8062 8.38579 11.827 8.43574 11.8974C8.48602 11.9675 8.47463 12.0644 8.40993 12.121L7.40223 13.0027L8.21583 12.5333C8.28757 12.4911 8.38043 12.5089 8.43205 12.5756C8.48334 12.6416 8.47831 12.7358 8.41965 12.7955L7.97648 13.2487L8.21617 13.1106C8.29628 13.064 8.3992 13.0915 8.44513 13.1719C8.49172 13.2521 8.46423 13.3546 8.38378 13.4009L7.08678 14.1495C7.01504 14.1917 6.92219 14.1736 6.87056 14.1072C6.81927 14.0412 6.8243 13.947 6.88297 13.8873L7.3258 13.4344L6.08713 14.1495C6.06099 14.1649 6.03182 14.1719 6.00299 14.1719Z" fill="#CDDCE0"/>
<path d="M5.89404 19.5356C5.84141 19.5356 5.78945 19.5108 5.75727 19.4645C5.70732 19.3934 5.71972 19.2962 5.78543 19.2402L6.78172 18.3941L4.88065 19.4913C4.80422 19.5359 4.70599 19.5121 4.65739 19.4394C4.60844 19.3659 4.62487 19.2667 4.69493 19.2131L6.14144 18.1065L4.42876 19.0951C4.35233 19.1393 4.25411 19.1165 4.20517 19.0425C4.15622 18.9684 4.17332 18.8691 4.24439 18.8158L5.70363 17.7223L4.38116 18.4856C4.30473 18.5309 4.20617 18.5068 4.15689 18.4323C4.10828 18.3576 4.12639 18.258 4.19813 18.2054L4.86288 17.718L4.38082 17.9962C4.30473 18.0408 4.20718 18.0177 4.15823 17.9453C4.10895 17.8722 4.12438 17.7736 4.19343 17.7193L4.6423 17.3677L4.38082 17.5185C4.3064 17.5624 4.21019 17.541 4.16024 17.4702C4.1103 17.3995 4.12236 17.3026 4.18773 17.2463L4.38317 17.0787L4.38082 17.0797C4.31277 17.1196 4.22561 17.1058 4.17265 17.0468C4.11968 16.9878 4.11499 16.9 4.16125 16.8363L4.38753 16.5239C4.33155 16.5219 4.27757 16.492 4.24774 16.4401C4.20114 16.36 4.22863 16.2574 4.30909 16.2111L4.86422 15.8906C4.93227 15.8504 5.0191 15.8642 5.0724 15.9235C5.12536 15.9825 5.13006 16.0703 5.0838 16.134L4.89372 16.3965L5.77135 15.89C5.8461 15.8464 5.94231 15.8678 5.99193 15.9382C6.04188 16.009 6.02981 16.1059 5.96444 16.1622L5.76934 16.3298L6.53097 15.89C6.60674 15.8454 6.70462 15.8689 6.75357 15.9409C6.80284 16.014 6.78742 16.1126 6.71837 16.1669L6.2705 16.5179L7.35798 15.89C7.43475 15.8454 7.53364 15.8689 7.58225 15.9433C7.63086 16.0177 7.61275 16.1176 7.54101 16.1702L6.87592 16.6576L7.96139 16.0311C8.03715 15.9858 8.13604 16.0093 8.18499 16.0837C8.23393 16.1578 8.21683 16.257 8.14577 16.3103L6.68618 17.4042L8.21348 16.5225C8.28958 16.4776 8.38813 16.5014 8.43674 16.5745C8.48569 16.6479 8.46926 16.7471 8.3992 16.8008L6.9537 17.9067L8.21616 17.1779C8.28991 17.134 8.38679 17.1551 8.43674 17.2265C8.48669 17.2976 8.47429 17.3948 8.40858 17.4508L7.41195 18.2972L8.21583 17.8333C8.28824 17.7904 8.38277 17.8095 8.43339 17.8779C8.48434 17.9456 8.47663 18.0405 8.41529 18.0991L7.96608 18.5306L8.21549 18.3864C8.28455 18.3462 8.37338 18.3609 8.42568 18.4213C8.47831 18.482 8.48066 18.5708 8.43171 18.6345L8.23896 18.8819C8.28354 18.8913 8.32411 18.9191 8.34858 18.9617C8.39517 19.0418 8.36769 19.1444 8.28723 19.1906L7.73276 19.5111C7.66371 19.552 7.57521 19.5369 7.52258 19.4762C7.46995 19.4156 7.4676 19.3267 7.51654 19.263L7.6389 19.1058L6.93559 19.5118C6.86251 19.5543 6.76865 19.5352 6.71803 19.4672C6.66708 19.3995 6.67479 19.3046 6.73613 19.2459L7.18534 18.8148L5.97751 19.5118C5.95137 19.5272 5.9222 19.5342 5.89371 19.5342L5.89404 19.5356Z" fill="#CDDCE0"/>
<path d="M10.7984 14.1719C10.7445 14.1719 10.6915 14.1458 10.659 14.0972C10.61 14.0238 10.6261 13.9249 10.6962 13.8712L11.8691 12.9708L10.2366 13.9135C10.1588 13.9594 10.0592 13.9343 10.011 13.8575C9.9627 13.7811 9.98382 13.6808 10.0582 13.6299L10.1964 13.536L10.0887 13.598C10.011 13.6436 9.91141 13.6188 9.86314 13.5424C9.81487 13.4659 9.83599 13.3657 9.91007 13.3148L10.1394 13.1575L10.08 13.1917C10.0029 13.237 9.90337 13.2125 9.85509 13.1371C9.80649 13.0617 9.82626 12.9621 9.89934 12.9098L10.3123 12.6168L10.08 12.7509C10.0066 12.7945 9.91108 12.774 9.86079 12.7043C9.81051 12.6349 9.82056 12.5387 9.88392 12.4814L10.8474 11.6131L10.08 12.056C10.0066 12.0996 9.91041 12.0791 9.86012 12.0084C9.80984 11.9383 9.8209 11.8418 9.8856 11.7848L10.0415 11.648C9.98114 11.6654 9.91275 11.6463 9.86917 11.596C9.81654 11.5347 9.81487 11.4452 9.86515 11.3818L10.0468 11.1542C10.0063 11.1431 9.96974 11.1163 9.94661 11.0768C9.90001 10.9967 9.9275 10.8941 10.008 10.8478L10.5631 10.5273C10.6325 10.4864 10.7213 10.5019 10.774 10.5629C10.8266 10.6239 10.8283 10.7137 10.778 10.7771L10.6821 10.8968L11.3234 10.5267C11.3975 10.4834 11.4934 10.5039 11.5433 10.5743C11.5932 10.6443 11.5825 10.7409 11.5178 10.7979L11.3814 10.9175L12.0585 10.5267C12.1323 10.4834 12.2278 10.5039 12.2778 10.5733C12.3281 10.6427 12.318 10.7389 12.2547 10.7962L11.2915 11.6644L13.261 10.527C13.3381 10.4817 13.4377 10.5062 13.4859 10.5816C13.5346 10.6571 13.5148 10.7566 13.4417 10.8089L13.0277 11.1026L13.7092 10.709C13.7863 10.6638 13.8865 10.6886 13.9348 10.7647C13.9831 10.8411 13.962 10.9413 13.8879 10.9923L13.6566 11.1512L13.8909 11.0161C13.9693 10.9708 14.0686 10.9953 14.1165 11.0721C14.1648 11.1485 14.1437 11.2487 14.0692 11.2997L13.9264 11.3969C14.0005 11.3614 14.091 11.3848 14.1383 11.4552C14.1872 11.5287 14.1711 11.6276 14.1011 11.6812L12.9275 12.5819L13.915 12.0121C13.9911 11.9671 14.0897 11.9906 14.1386 12.0644C14.1876 12.1381 14.1708 12.2373 14.1001 12.2906L13.8061 12.5132L13.915 12.4502C13.9874 12.408 14.0803 12.4264 14.1316 12.4931C14.1829 12.5598 14.1768 12.654 14.1172 12.7137L13.6086 13.2219L13.9147 13.0456C13.9838 13.0047 14.0729 13.0204 14.1256 13.0811C14.1782 13.1424 14.1799 13.2323 14.1296 13.2953L13.9482 13.5219C13.9888 13.5333 14.025 13.5601 14.0478 13.5994C14.0944 13.6795 14.0669 13.7821 13.9864 13.8283L13.432 14.1488C13.3626 14.189 13.2734 14.1739 13.2211 14.1133C13.1685 14.0519 13.1668 13.9621 13.2171 13.8991L13.312 13.7804L12.6727 14.1495C12.6006 14.1924 12.5074 14.1736 12.4561 14.1066C12.4048 14.0398 12.4109 13.9456 12.4705 13.886L12.9794 13.3774L11.6419 14.1495C11.5651 14.1941 11.4672 14.1706 11.4183 14.0972C11.3693 14.0238 11.3861 13.9242 11.4568 13.8709L11.7501 13.6486L10.8826 14.1495C10.8564 14.1649 10.8269 14.1719 10.7984 14.1719Z" fill="#CDDCE0"/>
<path d="M11.3418 19.5356C11.2882 19.5356 11.2356 19.5098 11.203 19.4618C11.1541 19.3891 11.1689 19.2905 11.2379 19.2362L12.0663 18.5839L10.5219 19.4752C10.4451 19.5198 10.3472 19.4963 10.2983 19.4226C10.2493 19.3488 10.2664 19.2493 10.3372 19.1963L11.6754 18.191L10.1239 19.0867C10.0472 19.1326 9.94628 19.1075 9.898 19.0307C9.85007 18.9543 9.87119 18.8541 9.94594 18.8031L10.0616 18.7243C9.99086 18.7562 9.9037 18.7317 9.85845 18.6653C9.80883 18.5932 9.82258 18.4954 9.89029 18.44L11.3874 17.2175L10.0804 17.9721C10.0043 18.0167 9.90672 17.9935 9.85744 17.9208C9.8085 17.8477 9.82392 17.7491 9.89331 17.6948L10.2828 17.3915L10.0804 17.5085C10.007 17.552 9.91141 17.5316 9.86113 17.4619C9.81085 17.3925 9.8209 17.2963 9.88426 17.2389L10.1742 16.9778L10.0804 17.0318C10.0113 17.072 9.92348 17.0576 9.87052 16.9972C9.81789 16.9369 9.81487 16.8484 9.86348 16.7847L10.0646 16.5225C10.017 16.5145 9.97343 16.4863 9.94728 16.4411C9.90069 16.361 9.92818 16.2584 10.0086 16.2121L10.5638 15.8916C10.6322 15.8514 10.7207 15.8655 10.7736 15.9262C10.8262 15.9865 10.8293 16.075 10.7807 16.1387L10.6409 16.3214L11.3864 15.8913C11.4602 15.8484 11.5554 15.8682 11.6057 15.9379C11.6559 16.0073 11.6459 16.1035 11.5825 16.1608L11.2929 16.4216L12.2117 15.8913C12.2875 15.8467 12.3854 15.8699 12.4347 15.9426C12.4836 16.0157 12.4682 16.1142 12.3988 16.1685L12.0079 16.4729L13.016 15.8913C13.091 15.8467 13.1883 15.8695 13.2375 15.9409C13.2872 16.013 13.2731 16.1109 13.2057 16.1662L11.7096 17.3884L13.8004 16.1809C13.8788 16.1354 13.9781 16.1602 14.0263 16.2369C14.0743 16.3134 14.0532 16.4136 13.9784 16.4646L13.8762 16.5343L13.9124 16.5135C13.9885 16.4686 14.087 16.4917 14.136 16.5661C14.1849 16.6402 14.1678 16.7394 14.0971 16.7924L12.7578 17.7984L13.9154 17.1303C13.9908 17.0857 14.0887 17.1085 14.138 17.1813C14.1869 17.254 14.1722 17.3526 14.1031 17.4069L13.2748 18.0592L13.9154 17.6895C13.9885 17.6469 14.083 17.666 14.1333 17.7344C14.1842 17.8024 14.1762 17.8976 14.1142 17.956L13.5258 18.5141L13.915 18.2895C13.9828 18.25 14.0689 18.263 14.1222 18.3214C14.1752 18.379 14.1812 18.4662 14.1363 18.5306L13.8926 18.8799C13.9469 18.8735 14.0146 18.9063 14.0478 18.9633C14.0944 19.0435 14.0669 19.146 13.9864 19.1923L13.432 19.5128C13.3643 19.5523 13.2781 19.5393 13.2248 19.4809C13.1718 19.4233 13.1658 19.3361 13.2107 19.2717L13.431 18.9563L12.4652 19.5134C12.3924 19.5564 12.2979 19.5369 12.2473 19.4685C12.1963 19.4005 12.2044 19.3053 12.2664 19.2466L12.8547 18.6888L11.426 19.5134C11.3998 19.5289 11.3707 19.5359 11.3422 19.5359L11.3418 19.5356Z" fill="#CDDCE0"/>
<path d="M16.7581 14.1719C16.7034 14.1719 16.6501 14.1451 16.618 14.0962C16.569 14.0214 16.5868 13.9222 16.6585 13.8692L17.2083 13.4633L16.1423 14.0784C16.0645 14.124 15.9649 14.0992 15.9167 14.0228C15.8684 13.9463 15.8895 13.8461 15.9639 13.7948L15.9753 13.7871L15.8825 13.8407C15.8047 13.8863 15.7055 13.8615 15.6572 13.7854C15.6089 13.7097 15.629 13.6094 15.7031 13.5581L16.2378 13.1867L15.7789 13.4515C15.7018 13.4975 15.6016 13.4723 15.5533 13.3959C15.505 13.3194 15.5261 13.2192 15.6005 13.1679L15.7323 13.0777C15.6686 13.0938 15.5975 13.0674 15.5576 13.01C15.508 12.9383 15.5218 12.8404 15.5892 12.7851L16.7474 11.832L15.7792 12.3909C15.7078 12.4324 15.6163 12.4153 15.564 12.3503C15.5127 12.2853 15.5161 12.1921 15.5724 12.1317L16.2754 11.3775L15.7792 11.6638C15.7105 11.704 15.622 11.6896 15.5694 11.6289C15.5167 11.5689 15.5137 11.4801 15.5623 11.4164L15.7615 11.1579C15.7142 11.1495 15.6713 11.1214 15.6458 11.0768C15.5992 10.9967 15.6267 10.8941 15.7072 10.8478L16.2623 10.5273C16.3307 10.4871 16.4192 10.5012 16.4721 10.5622C16.5248 10.6222 16.5278 10.711 16.4792 10.7747L16.3437 10.9511L17.0782 10.5267C17.1493 10.4848 17.2408 10.5019 17.2934 10.5672C17.3447 10.6323 17.3414 10.7255 17.2851 10.7858L16.5818 11.5404L18.338 10.5267C18.4134 10.4824 18.51 10.5049 18.5596 10.5759C18.6092 10.6477 18.5955 10.7456 18.5281 10.8009L17.3699 11.7539L19.3108 10.6333C19.3893 10.5877 19.4885 10.6128 19.5365 10.6889C19.5847 10.7653 19.5636 10.8656 19.4892 10.9169L19.4419 10.9491L19.5432 10.8907C19.6199 10.8455 19.7202 10.8699 19.7684 10.946C19.8167 11.0218 19.7966 11.122 19.7225 11.1733L19.1861 11.5461L19.6136 11.2994C19.691 11.2538 19.7912 11.2789 19.8392 11.355C19.8874 11.4314 19.8663 11.5317 19.7919 11.583L19.6685 11.6674C19.7306 11.655 19.7999 11.6829 19.8375 11.7405C19.8864 11.8153 19.8687 11.9145 19.7969 11.9675L19.2468 12.3738L19.6136 12.1622C19.6876 12.119 19.7828 12.1394 19.8335 12.2095C19.8834 12.2796 19.8727 12.3761 19.8083 12.4331L19.1432 13.0194L19.6136 12.7479C19.6836 12.7066 19.7741 12.7224 19.8268 12.7861C19.8787 12.8491 19.8777 12.9406 19.8241 13.0027L19.5127 13.363L19.6035 13.3107C19.6833 13.2641 19.7862 13.2913 19.8325 13.3721C19.8791 13.4522 19.8516 13.5548 19.7711 13.601L18.8211 14.1495C18.751 14.1907 18.6605 14.1743 18.6079 14.1113C18.5559 14.0482 18.5569 13.9567 18.6106 13.8947L18.9216 13.5347L17.8563 14.1495C17.7825 14.193 17.6873 14.1726 17.6364 14.1022C17.5864 14.0321 17.5972 13.9356 17.6615 13.8786L18.3266 13.2923L16.8416 14.1495C16.8154 14.1649 16.7866 14.1719 16.7581 14.1719Z" fill="#CDDCE0"/>
<path d="M17.0551 19.5356C17.0011 19.5356 16.9482 19.5094 16.916 19.4612C16.867 19.3877 16.8828 19.2888 16.9525 19.2349L17.6005 18.7361L16.2881 19.4937C16.2117 19.5393 16.1134 19.5148 16.0642 19.441C16.0152 19.3666 16.0327 19.2674 16.1041 19.2144L17.3209 18.3056L15.8513 19.1537C15.7752 19.1987 15.6773 19.1755 15.628 19.1018C15.5791 19.0284 15.5952 18.9295 15.6652 18.8758L17.3203 17.606L15.7786 18.4957C15.7015 18.541 15.6016 18.5165 15.5533 18.4404C15.505 18.3643 15.5255 18.2644 15.5992 18.2128L15.7219 18.1276C15.6599 18.1383 15.5922 18.1112 15.5546 18.0542C15.5057 17.9798 15.5234 17.8806 15.5948 17.8276L15.8533 17.6355L15.7782 17.6787C15.7048 17.7223 15.6083 17.7015 15.558 17.6308C15.508 17.5604 15.5194 17.4635 15.5848 17.4069L15.9884 17.0569L15.7782 17.1779C15.7115 17.2175 15.6264 17.2047 15.5727 17.1481C15.5194 17.0918 15.5117 17.0063 15.554 16.9412L15.8292 16.5195C15.7601 16.5356 15.6827 16.5065 15.6448 16.4404C15.5982 16.3603 15.6257 16.2577 15.7061 16.2115L16.2613 15.891C16.3283 15.8521 16.4135 15.8645 16.4668 15.9208C16.5201 15.9771 16.5278 16.0626 16.4856 16.1276L16.2184 16.537L17.3384 15.8903C17.4131 15.8467 17.5087 15.8678 17.5586 15.9382C17.6086 16.0086 17.5972 16.1055 17.5318 16.1622L17.1285 16.5122L18.2053 15.8906C18.282 15.8461 18.3803 15.8699 18.4292 15.9436C18.4781 16.018 18.4604 16.1173 18.389 16.1702L18.1298 16.3626L18.9478 15.8906C19.0259 15.8454 19.1248 15.8699 19.1731 15.946C19.2213 16.0221 19.2009 16.1219 19.1271 16.1736L19.1147 16.182L19.3655 16.0371C19.4413 15.9926 19.5395 16.0153 19.5888 16.0891C19.6377 16.1625 19.6216 16.2614 19.5515 16.315L17.8962 17.5852L19.6129 16.5943C19.6886 16.549 19.7875 16.5732 19.8368 16.6469C19.8858 16.7213 19.8683 16.8206 19.7969 16.8735L18.579 17.7833L19.6129 17.1866C19.6886 17.1417 19.7869 17.1648 19.8358 17.2383C19.8848 17.3117 19.869 17.4106 19.7993 17.4645L19.1519 17.963L19.6129 17.6968C19.6853 17.6543 19.7782 17.6727 19.8298 17.7401C19.8807 17.8068 19.8744 17.9013 19.8147 17.9607L19.1945 18.5761L19.6126 18.3348C19.6813 18.2949 19.7684 18.309 19.8211 18.368C19.874 18.4273 19.8784 18.5151 19.8315 18.5792L19.6115 18.8792C19.6652 18.8829 19.7165 18.9124 19.7453 18.9627C19.7919 19.0428 19.7644 19.1454 19.684 19.1916L19.1295 19.5121C19.0614 19.5523 18.9739 19.5379 18.921 19.4789C18.868 19.4196 18.8637 19.3318 18.9106 19.2677L19.0893 19.024L18.2431 19.5124C18.1704 19.5547 18.0772 19.5366 18.0263 19.4692C17.9753 19.4025 17.9817 19.308 18.0413 19.2486L18.6615 18.6331L17.1382 19.5124C17.1121 19.5279 17.0829 19.5349 17.0544 19.5349L17.0551 19.5356Z" fill="#CDDCE0"/>
<path d="M21.9642 7.29205C22.1968 4.06515 21.6712 3.96827 18.6143 4.12281C18.6008 3.36117 18.8322 2.09267 17.7155 2.09669C16.5945 2.12687 16.7712 3.3662 16.7789 4.15767H12.912C12.8799 3.42286 13.1759 2.11044 12.0465 2.18352C10.9486 2.21168 11.0525 3.32899 11.0837 4.12918H7.21283C7.18702 3.3947 7.46224 2.10977 6.34459 2.17279C5.24873 2.19927 5.355 3.32631 5.3845 4.12281C4.45994 4.20628 3.41605 3.89653 2.57027 4.35412C1.41407 5.2009 2.28599 11.2715 2.02921 13.071C2.28633 14.7696 1.38959 21.152 2.63027 21.7474C7.88262 22.1628 13.2925 21.7571 18.5941 21.8949C19.7798 21.8191 21.8703 22.3491 21.9639 20.6133C21.986 16.1732 21.9518 11.7325 21.9642 7.29205ZM17.2733 2.90795C17.4235 2.04842 18.328 2.64915 18.1198 3.29513C17.9515 4.01822 18.5402 5.87639 17.7199 6.11976C16.8292 5.84521 17.4302 3.7145 17.2733 2.90795ZM11.5708 2.85934C11.7304 1.84829 12.6194 2.69105 12.4246 3.34341C12.2667 3.99442 12.8323 6.10803 12.0099 6.18211C11.7361 6.10132 11.5805 5.84286 11.5695 5.56898C11.5849 4.66688 11.5393 3.76043 11.5705 2.85967L11.5708 2.85934ZM5.87393 2.84559C5.8907 2.23783 6.57992 2.3213 6.69893 2.83051C6.62518 3.44532 7.09383 6.23407 6.30939 6.17574C5.4197 5.63368 6.0268 3.79228 5.87393 2.84559ZM20.7366 21.5546C15.0263 21.5593 9.31069 21.5513 3.59841 21.5546C2.96919 21.6559 2.49652 21.1772 2.52099 20.5667C2.49149 16.5349 2.53708 12.5018 2.52099 8.46971H21.4734V19.9033C21.4734 20.5265 21.6142 21.4893 20.7369 21.555L20.7366 21.5546ZM21.4731 6.41543V8.16197H2.52099C2.67586 5.14291 1.56794 4.14125 5.38484 4.46307C5.35165 5.29208 5.22862 6.68931 6.48371 6.37521C7.41464 6.18547 7.19708 5.16671 7.21417 4.4567H11.084C11.0532 5.28504 10.9215 6.68663 12.1796 6.3628C13.1239 6.17641 12.8933 5.14391 12.913 4.4282H16.7792C16.7588 5.25052 16.6076 6.67188 17.8516 6.46907C18.8208 6.28838 18.5988 5.19319 18.6156 4.46307C20.3618 4.49558 21.8448 3.97967 21.4734 6.41543H21.4731Z" fill="#262626"/>
<path d="M8.55241 11.4516C8.49106 9.85252 6.12536 10.772 5.0771 10.5454C3.525 10.5706 4.15422 12.5079 4.05265 13.5176C4.54141 14.707 6.57926 13.9319 7.6255 14.1227C9.00128 14.0167 8.44949 12.3808 8.55241 11.4516ZM7.73948 13.898C4.60912 13.8615 4.10126 14.5367 4.67114 10.8887C5.38953 10.6068 6.30504 10.8609 7.08947 10.7781C7.74283 10.6443 8.19874 11.0939 8.06666 11.7502C7.94799 12.3329 8.3972 13.6027 7.73948 13.898Z" fill="#262626"/>
<path d="M8.5524 16.8152C8.49072 15.2188 6.12535 16.1387 5.07776 15.9118C3.52533 15.9362 4.15388 17.8718 4.05264 18.8815C4.54174 20.0679 6.57858 19.2922 7.62382 19.4843C9.00093 19.3804 8.44982 17.7441 8.5524 16.8152ZM7.73981 19.264C4.60509 19.2285 4.10292 19.8993 4.67046 16.2507C5.38718 15.9661 6.30436 16.2225 7.08846 16.139C7.74182 16.0046 8.19806 16.4582 8.06632 17.1139C7.94798 17.6965 8.39618 18.9677 7.73981 19.264Z" fill="#262626"/>
<path d="M10.5571 14.134C13.7588 14.1414 14.7669 14.7016 14.135 10.8897C13.8554 10.3175 10.2634 10.3624 9.92382 10.9014C9.54971 11.5307 9.82158 12.353 9.7428 13.0563C9.64525 13.6054 9.95634 14.1511 10.5571 14.1344V14.134ZM10.2289 12.0731C9.91477 10.0724 11.5031 10.9658 12.7897 10.7818C13.9771 10.5441 13.7722 11.8049 13.7659 12.5836C13.7659 12.8619 13.8993 13.8759 13.4377 13.8947H11.0478C9.96304 14.0553 10.257 12.7516 10.2289 12.0731Z" fill="#262626"/>
<path d="M14.2513 16.8152C14.1923 15.2041 11.8256 16.1216 10.7726 15.8967C9.22219 15.9248 9.85477 17.8725 9.75152 18.8815C10.2979 20.1045 12.2443 19.3046 13.3317 19.499C14.7015 19.3854 14.1467 17.7428 14.2513 16.8152ZM13.4347 19.249C10.3248 19.2067 9.79007 19.904 10.3717 16.2597C11.0988 15.9912 12.0046 16.2332 12.7914 16.1545C13.4417 16.0237 13.8983 16.4542 13.7652 17.1142C13.6452 17.6962 14.0998 18.9586 13.4347 19.249Z" fill="#262626"/>
<path d="M19.9528 11.4502C19.8821 9.79453 17.4835 10.712 16.3981 10.4911C14.9097 10.6014 15.5489 12.5712 15.4611 13.5702C16.0592 14.7639 17.919 13.9711 19.0135 14.1857C20.4064 14.0891 19.8479 12.3852 19.9532 11.4502H19.9528ZM19.0604 13.8437C17.2278 13.6175 15.5483 14.7643 15.9304 12.0395C15.9304 11.7271 15.8248 11.1096 16.1188 10.8961C17.0394 10.7295 18.04 10.882 18.986 10.8327C19.7597 10.9792 19.3927 12.0563 19.4624 12.6175C19.4624 12.9782 19.6022 13.8216 19.0604 13.8437Z" fill="#262626"/>
<path d="M19.9508 16.8061C19.8807 15.1893 17.5264 16.1038 16.4671 15.8799C14.9157 15.9128 15.5486 17.8966 15.4561 18.9077C16.028 20.1138 17.92 19.3214 19.0061 19.5218C20.404 19.4347 19.8479 17.7411 19.9508 16.8061ZM19.0836 19.2322C17.2814 19.0233 15.5255 20.1175 15.9281 17.4149C15.9281 17.0924 15.8215 16.4619 16.1151 16.2332C17.0122 16.0673 17.9998 16.2215 18.925 16.1709C19.7725 16.2795 19.399 17.4015 19.4637 17.9882C19.4637 18.3391 19.5968 19.1926 19.0836 19.2322Z" fill="#262626"/>
</svg>
