<svg width="24" height="24" viewBox="0 0 24 24" fill="none" xmlns="http://www.w3.org/2000/svg">
<path d="M19.5948 14.3126C19.5588 14.3127 19.5235 14.3011 19.4948 14.2792C19.4413 14.2391 19.4169 14.171 19.4326 14.1062L19.4881 13.8789L19.162 14.0675C19.0924 14.1081 19.0037 14.0932 18.9511 14.0321C18.8986 13.9711 18.8972 13.8811 18.9479 13.8185L19.06 13.6788L18.6311 13.9263C18.5596 13.9678 18.4686 13.9507 18.417 13.8862C18.3654 13.8218 18.3687 13.7292 18.4248 13.6686L18.8822 13.1714L17.7137 13.8462C17.6381 13.8893 17.542 13.867 17.493 13.795C17.4441 13.7231 17.4585 13.6255 17.5264 13.571L17.8667 13.3013L16.543 14.0665C16.4912 14.0968 16.4274 14.0971 16.3753 14.0672C16.3234 14.0374 16.2914 13.9819 16.2916 13.9221C16.2918 13.8622 16.3239 13.807 16.3761 13.7773L19.6604 11.8799C19.7359 11.8376 19.8313 11.86 19.8799 11.9316C19.9287 12.0032 19.9144 12.1003 19.8473 12.155L19.5081 12.4244L19.6604 12.3365C19.7317 12.2956 19.8223 12.3127 19.8737 12.3769C19.9251 12.441 19.9222 12.5332 19.8667 12.5939L19.4093 13.0914L19.6604 12.9464C19.7298 12.9067 19.8178 12.9217 19.87 12.9825C19.9222 13.0432 19.9239 13.1326 19.874 13.1952L19.7328 13.3721C19.7727 13.3686 19.8125 13.3805 19.8439 13.4055C19.8975 13.4458 19.9219 13.5141 19.9057 13.5791L19.824 13.913C19.8768 13.9419 19.9101 13.9972 19.9108 14.0574C19.9114 14.1179 19.8796 14.1738 19.8272 14.204L19.6784 14.2899C19.6529 14.3043 19.6242 14.3121 19.5948 14.3126Z" fill="#E4E8EB"/>
<path d="M4.26976 18.864C4.19503 18.8643 4.12931 18.8147 4.1088 18.7428C4.08845 18.6709 4.11828 18.5941 4.18198 18.555L9.78538 15.1013L3.3514 18.8157C3.27263 18.8601 3.17273 18.8335 3.12627 18.7558C3.07982 18.6782 3.10374 18.5776 3.18018 18.5292L9.9858 14.3292L2.74858 18.5065C2.66981 18.5486 2.57193 18.5212 2.52625 18.4445C2.48073 18.3677 2.50357 18.2688 2.5783 18.2197L7.42927 15.2684L2.53651 18.0912C2.45758 18.1341 2.35892 18.1069 2.31309 18.0295C2.26741 17.9523 2.29103 17.8527 2.36654 17.8041L4.64139 16.4311L2.48772 17.6742C2.40926 17.7161 2.31169 17.6891 2.26586 17.6127C2.22018 17.5364 2.2424 17.4376 2.31651 17.3882L9.31043 13.0459L2.48772 16.9845C2.40911 17.0279 2.31029 17.0012 2.26415 16.9242C2.21785 16.8472 2.241 16.7474 2.3162 16.6985L8.7348 12.6924L2.48772 16.2989C2.4088 16.3418 2.31014 16.3146 2.26446 16.2372C2.21863 16.1598 2.24224 16.0603 2.31791 16.0118L2.96749 15.6178L2.48772 15.8946C2.40957 15.9358 2.31278 15.9091 2.26695 15.8334C2.22127 15.7578 2.2424 15.6596 2.31527 15.6095L8.32417 11.7938L2.48772 15.1629C2.40864 15.2101 2.3061 15.1845 2.25871 15.1054C2.21133 15.0263 2.23712 14.9238 2.3162 14.8764L5.59518 12.8346L2.48772 14.6283C2.40973 14.6696 2.31309 14.6432 2.2671 14.5678C2.22127 14.4925 2.24178 14.3944 2.31418 14.3439L7.13485 11.2362L2.48772 13.9179C2.40895 13.9661 2.3061 13.9411 2.25794 13.8623C2.20977 13.7835 2.23463 13.6807 2.31356 13.6325L6.40028 10.9735L2.48772 13.2318C2.40942 13.275 2.31076 13.2486 2.26446 13.172C2.21816 13.0954 2.24054 12.9958 2.31527 12.9464L4.13024 11.7964L2.48772 12.7432C2.41004 12.7875 2.31107 12.7625 2.26368 12.6867C2.21614 12.6108 2.23696 12.5109 2.31092 12.4605L5.63993 10.2123L2.48772 12.0321C2.40988 12.0783 2.30936 12.0539 2.2612 11.9771C2.21319 11.9004 2.2351 11.7994 2.31045 11.7493L4.6894 10.1345L2.48772 11.4058C2.41082 11.45 2.31278 11.4262 2.26462 11.3518C2.21645 11.2773 2.23479 11.1782 2.30657 11.126L4.61498 9.45289L2.48772 10.6811C2.41113 10.7256 2.31309 10.7025 2.26446 10.6285C2.21568 10.5546 2.23323 10.4553 2.30455 10.4026L3.82681 9.26754L2.48772 10.0411C2.41361 10.0835 2.31931 10.0629 2.26943 9.99341C2.21956 9.92396 2.23028 9.8281 2.29414 9.77139L3.53131 8.68166L2.48772 9.28261C2.4147 9.32596 2.32086 9.30747 2.26959 9.23989C2.21832 9.17215 2.22609 9.07675 2.28746 9.01818L2.8042 8.51744L2.48679 8.70077C2.43024 8.73277 2.36032 8.72905 2.3075 8.69129C2.25467 8.65354 2.22842 8.5886 2.24038 8.52474L2.35162 7.95455C2.28932 7.93373 2.24504 7.87842 2.23836 7.81317C2.23183 7.74776 2.264 7.68468 2.32086 7.65174L2.48772 7.55526C2.54443 7.52264 2.61497 7.52605 2.6681 7.56396C2.72139 7.60187 2.74765 7.66744 2.73522 7.7316L2.63796 8.22908L3.80646 7.55495C3.87948 7.51176 3.97332 7.53009 4.02459 7.59783C4.07586 7.66542 4.06825 7.76081 4.00673 7.81938L3.48936 8.32012L4.81758 7.55231C4.89169 7.51067 4.98537 7.53134 5.03493 7.60047C5.08449 7.66946 5.0744 7.76469 5.01132 7.82171L3.77306 8.91377L6.12901 7.55371C6.20545 7.50912 6.30365 7.53211 6.35227 7.60622C6.40106 7.68018 6.3835 7.7793 6.31219 7.83212L4.79132 8.96706L7.23832 7.55433C7.31523 7.51021 7.41326 7.53398 7.46143 7.6084C7.50974 7.68282 7.49126 7.78194 7.41948 7.83414L5.11013 9.50634L8.49476 7.55231C8.57291 7.50321 8.67592 7.52683 8.72501 7.60498C8.77411 7.68297 8.75049 7.78598 8.6725 7.83507L6.29417 9.44916L9.58045 7.55169C9.65844 7.50555 9.75881 7.52994 9.80697 7.60653C9.85514 7.68328 9.83323 7.78443 9.75772 7.83445L6.42778 10.0832L10.8137 7.55107C10.892 7.50788 10.9905 7.53429 11.037 7.61088C11.0833 7.68748 11.0609 7.78707 10.9862 7.83647L9.17386 8.98742L11.6633 7.552C11.7414 7.50834 11.8402 7.53413 11.887 7.61057C11.9338 7.68686 11.912 7.7866 11.8376 7.83647L7.7487 10.4945L12.8507 7.54905C12.929 7.5043 13.0288 7.53009 13.0757 7.607C13.1228 7.68406 13.1001 7.78443 13.0246 7.83368L8.20469 10.9418L14.0826 7.54905C14.1617 7.50166 14.2642 7.5273 14.3116 7.60638C14.359 7.68546 14.3332 7.788 14.2541 7.83539L10.9763 9.87688L15.0089 7.54827C15.0875 7.50337 15.1877 7.52932 15.2345 7.60669C15.2814 7.68421 15.2581 7.78489 15.182 7.83368L9.17293 11.6491L16.2779 7.54765C16.3573 7.50073 16.4597 7.52699 16.5066 7.60638C16.5535 7.68577 16.5271 7.78815 16.4477 7.83507L15.7952 8.23063L16.9786 7.54734C17.0574 7.50182 17.1582 7.52792 17.205 7.60591C17.2519 7.6839 17.2277 7.7852 17.1506 7.83337L10.7295 11.8412L18.1678 7.54672C18.2189 7.51595 18.2826 7.51502 18.3347 7.54392C18.3869 7.57297 18.4195 7.62751 18.4204 7.68717C18.4215 7.74683 18.3904 7.80245 18.3393 7.83305L11.3465 12.1746L19.3635 7.54594C19.4429 7.49902 19.5453 7.52543 19.5922 7.60467C19.6391 7.68406 19.6128 7.78645 19.5335 7.83337L17.2654 9.20213L19.6604 7.81969C19.739 7.77883 19.8358 7.80649 19.881 7.88277C19.9262 7.9589 19.9038 8.05725 19.8302 8.1065L14.9743 11.062L19.6604 8.35788C19.739 8.31515 19.8373 8.34219 19.8832 8.41909C19.9292 8.496 19.9062 8.59528 19.8313 8.64437L13.031 12.8416L19.6604 9.01461C19.739 8.97188 19.8373 8.99891 19.8832 9.07567C19.9292 9.15257 19.9062 9.252 19.8313 9.30094L14.2294 12.7541L19.6604 9.61851C19.7392 9.57299 19.8398 9.59909 19.8868 9.67708C19.9337 9.75508 19.9094 9.85622 19.8322 9.90454L13.4023 13.933L19.6604 10.3205C19.7387 10.2787 19.8361 10.3054 19.8819 10.3815C19.9278 10.4575 19.9062 10.5561 19.8325 10.6059L14.0923 14.2224L19.6604 11.0079C19.7384 10.966 19.8356 10.9926 19.8818 11.0682C19.9278 11.144 19.9066 11.2425 19.8336 11.2926L14.2231 14.8817L19.6604 11.7436C19.7387 11.7023 19.8356 11.7295 19.8813 11.8054C19.9268 11.8812 19.9052 11.9796 19.8319 12.0295L14.5183 15.344C14.5593 15.377 14.5823 15.4275 14.5804 15.48C14.5785 15.5325 14.5521 15.5811 14.5089 15.6111L12.9255 16.7294L13.9176 16.1569C13.995 16.1131 14.093 16.1375 14.1407 16.2124C14.1886 16.2872 14.1693 16.3865 14.0969 16.4381L13.7839 16.657C13.862 16.627 13.9504 16.6598 13.9903 16.7335C14.0303 16.8071 14.0093 16.8991 13.9414 16.9482L13.7377 17.0981C13.814 17.0784 13.8937 17.1146 13.929 17.1851C13.9641 17.2555 13.9453 17.3411 13.8836 17.3902L13.7293 17.5134C13.7789 17.51 13.827 17.5295 13.8603 17.5664C13.9133 17.6237 13.9195 17.7101 13.8752 17.7744L13.5932 18.1857L13.6961 18.1263C13.7519 18.0941 13.8213 18.0969 13.8743 18.1336C13.9273 18.1703 13.9544 18.2343 13.944 18.2978L13.9173 18.4574C13.9773 18.4808 14.0185 18.5366 14.0231 18.6006C14.0278 18.6648 13.9953 18.726 13.9394 18.7579L13.7915 18.8433C13.7355 18.8758 13.6661 18.873 13.613 18.8362C13.5598 18.7995 13.5326 18.7355 13.543 18.6718L13.5564 18.593L13.1225 18.8433C13.055 18.882 12.9699 18.869 12.9171 18.8119C12.8642 18.7549 12.8577 18.669 12.9015 18.6047L13.1832 18.1937L12.0571 18.8404C11.9818 18.8825 11.8865 18.8599 11.8379 18.7886C11.7893 18.7172 11.8031 18.6204 11.8699 18.5655L11.9269 18.5198L11.3718 18.8404C11.2952 18.8842 11.1976 18.8609 11.1492 18.7869C11.1009 18.7131 11.1184 18.6143 11.1893 18.5616L11.3488 18.4437L10.6618 18.8404C10.5847 18.8826 10.4881 18.8579 10.4407 18.7838C10.3935 18.7097 10.4117 18.6117 10.4825 18.5596L10.7746 18.3545L9.93298 18.8404C9.85607 18.8823 9.75974 18.8576 9.71251 18.7838C9.66528 18.71 9.68315 18.6123 9.75337 18.5599L11.3345 17.4429L8.91285 18.8404C8.83439 18.8817 8.73744 18.8545 8.69176 18.7787C8.64624 18.7027 8.66784 18.6044 8.74117 18.5546L11.3855 16.904L8.03208 18.8404C7.95393 18.8834 7.85559 18.8571 7.80913 18.781C7.76268 18.7047 7.78443 18.6055 7.85854 18.5556L13.4694 14.9679L6.75918 18.8404C6.68087 18.8822 6.58346 18.8554 6.53762 18.7793C6.49179 18.7033 6.51339 18.6047 6.58703 18.555L12.329 14.9374L5.56877 18.8404C5.49015 18.8843 5.39072 18.8581 5.34427 18.7809C5.29766 18.7036 5.32081 18.6036 5.39647 18.5546L11.8249 14.5279L4.35319 18.8404C4.32802 18.8554 4.29928 18.8637 4.26976 18.864Z" fill="#E4E8EB"/>
<path d="M17.0204 5.45519C16.9561 5.45535 16.8974 5.41852 16.8696 5.36057C16.8417 5.30262 16.8495 5.23395 16.8897 5.18377L17.3445 4.61622L17.1722 4.71643C17.113 4.75061 17.0389 4.74548 16.9853 4.70307C16.9315 4.66081 16.909 4.58996 16.9286 4.5244L17.0039 4.27208C16.9511 4.24303 16.918 4.18788 16.9174 4.1276C16.9166 4.06747 16.9485 4.01154 17.0007 3.98124L17.1675 3.88554C17.2267 3.85136 17.3007 3.85679 17.3543 3.89905C17.4079 3.94131 17.4303 4.012 17.411 4.07741L17.3692 4.21771L17.9455 3.88383C18.0149 3.84359 18.1032 3.8585 18.1555 3.91941C18.2079 3.98031 18.2096 4.0698 18.1594 4.13257L17.704 4.69996L19.006 3.94955C19.0577 3.91661 19.1233 3.91475 19.1769 3.94473C19.2305 3.97456 19.2633 4.03142 19.2625 4.09264C19.2616 4.15401 19.2272 4.20994 19.1728 4.23837L17.1062 5.43142C17.0802 5.44696 17.0506 5.45519 17.0204 5.45519Z" fill="#EB5463"/>
<path d="M11.6415 5.5439C11.5718 5.5439 11.5091 5.5004 11.4849 5.43484C11.4608 5.36927 11.4799 5.29563 11.5331 5.25026L11.783 5.03586C11.7287 5.04674 11.6724 5.0298 11.6331 4.9908C11.5937 4.95181 11.5763 4.89572 11.5865 4.84119L11.6917 4.28281C11.6522 4.27022 11.619 4.2435 11.5985 4.20761C11.5523 4.12791 11.5795 4.02583 11.6592 3.97953L11.8262 3.88321C11.8826 3.85042 11.953 3.85369 12.0063 3.89129C12.0594 3.92904 12.0859 3.99429 12.0739 4.05846L11.9824 4.54584L13.1364 3.87808C13.211 3.83582 13.3055 3.85695 13.355 3.92686C13.4046 3.99678 13.3931 4.09295 13.3285 4.14919L13.1141 4.33283L13.905 3.87746C13.9568 3.84452 14.0223 3.84266 14.0759 3.87264C14.1294 3.90247 14.1623 3.95934 14.1614 4.02055C14.1606 4.08192 14.1263 4.13785 14.0719 4.16628L11.7246 5.52029C11.6996 5.53551 11.6709 5.54375 11.6415 5.5439Z" fill="#EB5463"/>
<path d="M6.6341 5.54391C6.56558 5.54406 6.50406 5.50227 6.47889 5.43857C6.45357 5.37502 6.46972 5.30247 6.5196 5.25555L6.91282 4.88593L6.82535 4.93612C6.76834 4.9689 6.69733 4.96517 6.6442 4.92664C6.59091 4.88811 6.56527 4.82177 6.57863 4.75745L6.67869 4.28172C6.61825 4.25935 6.57615 4.20419 6.5704 4.14003C6.56465 4.0757 6.5965 4.01402 6.65212 3.98124L6.81898 3.88476C6.876 3.85198 6.94685 3.85571 7.00014 3.89424C7.05343 3.93277 7.07907 3.99911 7.0657 4.06343L6.98227 4.4607L7.98609 3.87948C8.05973 3.83458 8.15544 3.85338 8.20686 3.92267C8.25829 3.99196 8.24834 4.08907 8.18402 4.14655L7.7894 4.51881L8.8987 3.87839C8.95044 3.84561 9.01616 3.84374 9.0696 3.87357C9.12321 3.9034 9.15599 3.96027 9.15521 4.02164C9.15443 4.08285 9.11994 4.13878 9.06572 4.16721L6.71722 5.52029C6.69205 5.53552 6.66331 5.54375 6.6341 5.54391Z" fill="#EB5463"/>
<path d="M3.60246 7.85714C3.53348 7.85729 3.47149 7.81488 3.44663 7.75056C3.42162 7.68608 3.43886 7.61306 3.48998 7.56676L4.5345 6.61561L2.48772 7.79639C2.4119 7.8388 2.31604 7.81596 2.26757 7.74372C2.21909 7.67132 2.23432 7.57406 2.30252 7.51999L3.16542 6.85565L2.48772 7.24546C2.41268 7.28741 2.31821 7.26551 2.26927 7.19481C2.22033 7.12428 2.23292 7.02795 2.29848 6.97249L3.38977 6.0737L2.48849 6.59495C2.41299 6.64793 2.30874 6.62975 2.2556 6.5544C2.20247 6.47889 2.22065 6.37464 2.29615 6.32151L3.52462 5.28227L2.48741 5.88213C2.4133 5.92315 2.32023 5.90218 2.27098 5.8335C2.22158 5.76468 2.23152 5.66975 2.29413 5.61273L2.99514 4.99344L2.48741 5.28662C2.41811 5.32608 2.33049 5.31101 2.27844 5.25057C2.22624 5.19014 2.22422 5.10127 2.27347 5.0385L2.62459 4.59385C2.56431 4.5926 2.50854 4.56137 2.47607 4.51041C2.43008 4.43056 2.45742 4.32848 2.53712 4.28234L3.18251 3.90977C3.2518 3.87109 3.33881 3.88647 3.39054 3.94675C3.44228 4.00688 3.44446 4.09512 3.39583 4.15789L3.07873 4.55842L4.25748 3.87777C4.33159 3.83551 4.42574 3.85602 4.47562 3.92531C4.52549 3.9946 4.51508 4.09031 4.45138 4.14717L3.75239 4.76615L4.97154 4.06281C5.04627 4.02008 5.1412 4.04137 5.19061 4.11175C5.24017 4.18197 5.22805 4.27845 5.1628 4.33454L3.93292 5.37471L4.97185 4.77578C5.04689 4.73399 5.14151 4.75589 5.19045 4.82643C5.23939 4.89712 5.22665 4.99329 5.16109 5.04891L4.07011 5.94661L5.16513 5.31567C5.2411 5.27233 5.33774 5.29485 5.38652 5.36756C5.43531 5.44012 5.41961 5.53816 5.35079 5.59207L4.48742 6.25672L5.70657 5.55369C5.78022 5.51268 5.87266 5.53287 5.92253 5.60077C5.97225 5.66851 5.9637 5.76281 5.90264 5.82076L4.85797 6.77175L9.87751 3.87373C9.95488 3.82929 10.0534 3.85322 10.1015 3.92826C10.1496 4.0033 10.1303 4.10305 10.0576 4.15447L7.79608 5.75893L9.97943 4.49845C10.0556 4.45433 10.1528 4.47701 10.2018 4.55019C10.2505 4.62352 10.2342 4.72202 10.1643 4.77547L8.20609 6.28142L10.0698 5.20583C10.1457 5.16217 10.2423 5.18439 10.2914 5.25694C10.3405 5.32934 10.3253 5.42738 10.2564 5.4816L9.13206 6.36252L10.5732 5.53023C10.6489 5.4872 10.7449 5.50941 10.794 5.58135C10.8429 5.65328 10.8285 5.75085 10.7606 5.80538L9.98875 6.42156L14.3954 3.87746C14.474 3.82929 14.5768 3.854 14.6248 3.93277C14.673 4.01138 14.6483 4.11408 14.5697 4.16224L14.4584 4.23402L15.0801 3.87419C15.1582 3.82883 15.2583 3.85384 15.3058 3.93075C15.3534 4.0075 15.3311 4.10817 15.2556 4.15789L14.1945 4.86123L15.3207 4.21134C15.3984 4.16613 15.4977 4.19036 15.5457 4.26618C15.5937 4.342 15.5733 4.44221 15.4994 4.49301L13.9945 5.53769L15.3207 4.7722C15.3978 4.7287 15.4954 4.75263 15.5432 4.82705C15.5911 4.90131 15.5727 5.00013 15.5014 5.05217L14.4101 5.83335L15.4369 5.24048C15.5132 5.19713 15.61 5.22012 15.6586 5.29314C15.7071 5.36632 15.6908 5.46451 15.6212 5.51796L14.7226 6.1983L15.8909 5.52386C15.968 5.47927 16.0666 5.50289 16.115 5.57777C16.1633 5.6525 16.1443 5.75209 16.0719 5.80399L15.9807 5.87079L19.1615 4.03469C19.2387 3.99072 19.3368 4.0148 19.3848 4.08938C19.4326 4.16411 19.4138 4.26323 19.3419 4.31512L17.2884 5.77493L19.5639 4.46132C19.6403 4.41782 19.7374 4.44128 19.7859 4.51476C19.8342 4.58841 19.8171 4.68675 19.7468 4.73973L17.9333 6.08473L19.6613 5.08635C19.7365 5.04301 19.8322 5.06429 19.8818 5.1356C19.9313 5.20676 19.918 5.30402 19.8513 5.35933L18.4111 6.55518L19.6636 5.8318C19.7387 5.78923 19.8339 5.81082 19.8832 5.88167C19.9324 5.95267 19.9194 6.04931 19.8533 6.10477L19.3425 6.52503L19.6657 6.33844C19.7331 6.29991 19.8182 6.31296 19.8711 6.36998C19.9239 6.427 19.9304 6.51292 19.8866 6.57724L19.4823 7.1684L19.6686 7.06058C19.7204 7.02764 19.7861 7.02578 19.8395 7.05576C19.8931 7.08559 19.9259 7.14246 19.9251 7.20367C19.9243 7.26504 19.8899 7.32097 19.8356 7.3494L19.0124 7.82373C18.9449 7.86242 18.8598 7.84937 18.807 7.79235C18.7541 7.73533 18.7476 7.64926 18.7914 7.58509L19.196 6.99408L17.7578 7.82435C17.6827 7.86692 17.5875 7.84533 17.5384 7.77448C17.4892 7.70348 17.5021 7.60684 17.5682 7.55138L18.078 7.13174L16.8761 7.82513C16.801 7.86817 16.7055 7.84688 16.6561 7.77588C16.6065 7.70488 16.6194 7.60777 16.6859 7.55231L18.1286 6.35491L15.5808 7.82715C15.5044 7.8705 15.4071 7.84719 15.3588 7.7737C15.3105 7.70006 15.3276 7.60156 15.3979 7.54858L17.21 6.20498L14.3988 7.82777C14.3216 7.87174 14.2235 7.84766 14.1757 7.77308C14.1277 7.69835 14.1465 7.59923 14.2184 7.54734L16.2716 6.08784L13.2547 7.82948C13.1776 7.87407 13.0791 7.85045 13.0308 7.77557C12.9825 7.70084 13.0013 7.60125 13.0737 7.54936L13.1649 7.48255L12.5659 7.82808C12.4897 7.87143 12.3929 7.84844 12.3444 7.77541C12.2958 7.70224 12.3121 7.60405 12.3817 7.5506L13.2808 6.87026L11.6202 7.8287C11.5432 7.87221 11.4458 7.84812 11.3978 7.77386C11.3499 7.6996 11.3682 7.60078 11.4395 7.54858L12.5305 6.7674L10.6915 7.82901C10.6139 7.87423 10.5145 7.84999 10.4665 7.77417C10.4185 7.69835 10.439 7.59814 10.5129 7.54734L12.0178 6.50282L9.71903 7.83041C9.64088 7.87578 9.54083 7.85061 9.49329 7.77386C9.44575 7.69711 9.46796 7.59643 9.54347 7.54672L10.6017 6.84555L8.89311 7.83212C8.8145 7.88013 8.71165 7.85543 8.66364 7.77681C8.61547 7.6982 8.64018 7.5955 8.71879 7.54734L8.82895 7.47587L8.21215 7.83243C8.13633 7.8764 8.03954 7.85449 7.99029 7.78209C7.94103 7.70985 7.95595 7.61166 8.02447 7.55728L8.79725 6.94281L7.25494 7.83305C7.17866 7.88153 7.07783 7.86055 7.02718 7.78567C6.97653 7.71094 6.99471 7.60933 7.06804 7.55666L8.19335 6.67434L6.18665 7.83274C6.11068 7.87547 6.01451 7.85263 5.96603 7.78007C5.91756 7.70752 5.9331 7.60995 6.00177 7.55604L7.95906 6.0507L4.87071 7.83336C4.79349 7.87795 4.69484 7.85387 4.64683 7.77883C4.59866 7.70379 4.61808 7.6042 4.6908 7.55262L6.95214 5.94832L3.68589 7.83414C3.66072 7.84921 3.63183 7.85714 3.60246 7.85714Z" fill="#EB5463"/>
<path d="M6.08348 5.83941C6.02273 5.83941 5.96665 5.80632 5.93728 5.75318C5.90792 5.69989 5.90978 5.63479 5.94225 5.58337L6.2244 5.13576L5.3775 5.62438C5.3051 5.66664 5.21281 5.64878 5.16139 5.58259C5.11012 5.51656 5.11571 5.42256 5.17444 5.36306L5.75504 4.76941L5.15844 5.1137C5.08495 5.1558 4.99142 5.13607 4.94108 5.06771C4.8909 4.99951 4.89975 4.90427 4.9619 4.84663L5.50925 4.34122L5.15813 4.54382C5.08417 4.58421 4.99173 4.56308 4.94263 4.49472C4.89338 4.42621 4.90302 4.3319 4.96485 4.27473L5.36538 3.91785L5.15673 4.03842C5.08588 4.07943 4.99561 4.06281 4.94388 3.99911C4.89214 3.93556 4.89416 3.84374 4.94885 3.78269L5.55368 3.10389L5.15673 3.33259C5.08759 3.37237 5.00012 3.35761 4.94776 3.29748C4.89556 3.23735 4.89292 3.14864 4.94186 3.08556L5.13311 2.84086C5.06677 2.82486 5.01674 2.77017 5.00696 2.70259C4.99717 2.635 5.02964 2.5682 5.08868 2.53417L5.63479 2.21831C5.70408 2.17792 5.79233 2.19237 5.84484 2.2528C5.89751 2.3134 5.89968 2.40273 5.85012 2.46565L5.73267 2.61387L6.28545 2.29569C6.35646 2.25513 6.44626 2.27191 6.49784 2.3353C6.54942 2.39854 6.54756 2.48989 6.49349 2.55111L5.88896 3.23021L6.62337 2.80653C6.69748 2.76365 6.7921 2.78384 6.84228 2.85329C6.89247 2.92289 6.88175 3.01907 6.81758 3.07593L6.41503 3.43311L6.6414 3.30261C6.71488 3.2605 6.80841 3.28023 6.85875 3.34844C6.90894 3.4168 6.90008 3.51188 6.83793 3.56968L6.28887 4.07601L6.64109 3.8728C6.71333 3.83116 6.80531 3.84918 6.85642 3.91506C6.90738 3.98109 6.9021 4.07462 6.84368 4.13412L6.26308 4.72746L6.64109 4.50979C6.70758 4.47126 6.79163 4.48323 6.84492 4.53854C6.89821 4.59385 6.90676 4.67852 6.86574 4.74346L6.57801 5.20039C6.6588 5.17755 6.74409 5.21841 6.77703 5.29579C6.80981 5.37316 6.77998 5.4628 6.70743 5.50522L6.16691 5.81735C6.14159 5.83211 6.11284 5.83972 6.08348 5.83941Z" fill="#E4E8EB"/>
<path d="M10.5319 5.78736C10.4634 5.78736 10.4017 5.74557 10.3765 5.68171C10.3514 5.61801 10.3677 5.54546 10.4177 5.49854L10.5575 5.36772L10.2852 5.52495C10.2129 5.56721 10.1205 5.54934 10.0692 5.48316C10.0178 5.41713 10.0234 5.32313 10.0823 5.26347L10.7589 4.57349L10.166 4.91607C10.0941 4.95709 10.0027 4.93907 9.95177 4.87381C9.90065 4.80841 9.90531 4.7155 9.96264 4.65568L10.7879 3.80071L10.1657 4.1596C10.0945 4.20046 10.0041 4.18368 9.95254 4.11983C9.90096 4.05597 9.90345 3.96415 9.95829 3.90309L10.6191 3.17272L10.1657 3.43405C10.098 3.4732 10.0122 3.46015 9.95938 3.40266C9.9064 3.34518 9.9005 3.25864 9.94509 3.19447L10.1884 2.84428C10.127 2.84381 10.07 2.81243 10.0368 2.76085C9.99092 2.68115 10.0181 2.57923 10.0977 2.53308L10.6424 2.21831C10.7101 2.17916 10.7959 2.19221 10.8487 2.2497C10.9017 2.30718 10.9076 2.39372 10.8631 2.45804L10.6447 2.7725L11.3709 2.35348C11.4419 2.31293 11.5318 2.32987 11.5833 2.39341C11.6347 2.45695 11.6325 2.54846 11.5781 2.60952L10.9178 3.34005L11.6482 2.91839C11.7203 2.87722 11.8115 2.89524 11.8626 2.96065C11.9136 3.0259 11.9089 3.11881 11.8516 3.17878L11.0263 4.03407L11.6485 3.67517C11.7208 3.634 11.8121 3.65218 11.8631 3.71774C11.914 3.78346 11.9089 3.87653 11.8513 3.93619L11.1742 4.62632L11.6485 4.35179C11.7223 4.30844 11.8168 4.32771 11.8676 4.39653C11.9184 4.4652 11.9091 4.56122 11.8458 4.61886L11.6883 4.76646C11.7691 4.74486 11.8534 4.78634 11.8856 4.86356C11.9178 4.94078 11.8878 5.0298 11.8155 5.07191L10.6153 5.76468C10.59 5.77959 10.5613 5.78736 10.5319 5.78736Z" fill="#E4E8EB"/>
<path d="M16.2762 5.84438C16.21 5.84454 16.1499 5.80538 16.1233 5.74479C16.0966 5.6842 16.1083 5.61351 16.153 5.56472L16.2198 5.49124L15.8226 5.72055C15.7511 5.7625 15.6596 5.74572 15.6078 5.68109C15.5559 5.61646 15.5594 5.52355 15.6159 5.4628L16.2117 4.81555L15.5211 5.21406C15.4487 5.25337 15.3588 5.23426 15.3088 5.16885C15.2589 5.10344 15.2639 5.01147 15.3207 4.95212L16.069 4.20062L15.5084 4.52409C15.4338 4.56697 15.3391 4.54615 15.2892 4.47608C15.2395 4.40616 15.251 4.30968 15.3158 4.25329L15.6322 3.97891L15.5084 4.05038C15.4376 4.0914 15.3473 4.07493 15.2956 4.01138C15.2437 3.94784 15.2457 3.85617 15.3001 3.79496L15.9147 3.10001L15.5067 3.33523C15.4377 3.3747 15.3506 3.35978 15.2984 3.29997C15.2461 3.23999 15.2434 3.15159 15.2917 3.08867L15.4846 2.84024C15.4178 2.82486 15.3673 2.77017 15.3571 2.70228C15.347 2.63454 15.3793 2.56742 15.4386 2.53308L15.9838 2.21831C16.053 2.17823 16.1407 2.19283 16.1933 2.25311C16.2458 2.31324 16.2483 2.40227 16.1992 2.46534L16.0789 2.62024L16.6384 2.29708C16.7092 2.25653 16.799 2.27316 16.8506 2.33639C16.9023 2.39962 16.9006 2.49082 16.8467 2.55219L16.2302 3.24745L16.9749 2.81616C17.0495 2.77343 17.1442 2.7941 17.1941 2.86417C17.244 2.93424 17.2325 3.03056 17.1676 3.08696L16.8525 3.3604L16.9897 3.2835C17.0619 3.24434 17.152 3.26345 17.2019 3.32886C17.2519 3.39427 17.2468 3.48625 17.1899 3.5456L16.4428 4.29679L16.99 3.98124C17.0613 3.94022 17.1519 3.95747 17.2033 4.02164C17.2549 4.0858 17.2518 4.17793 17.1963 4.23868L16.6011 4.88593L16.99 4.66127C17.0613 4.62026 17.1517 4.63735 17.2033 4.70136C17.2547 4.76552 17.2519 4.8575 17.1966 4.9184L17.0403 5.08899C17.1091 5.10158 17.1627 5.1558 17.1747 5.22478C17.1865 5.29377 17.154 5.36275 17.0934 5.39771L16.359 5.82139C16.334 5.8363 16.3054 5.84422 16.2762 5.84438Z" fill="#E4E8EB"/>
<path d="M17.62 21.8541C17.548 21.8541 17.4843 21.8083 17.4615 21.7401C17.4388 21.6719 17.4623 21.5969 17.5198 21.5538L19.1199 20.3702L16.8164 21.7013C16.7387 21.7457 16.6401 21.721 16.5924 21.6455C16.5447 21.5698 16.565 21.4701 16.6384 21.4193L18.1181 20.4013L16.2152 21.4993C16.1376 21.5409 16.0413 21.5153 15.9947 21.4407C15.9481 21.3663 15.9674 21.2684 16.0385 21.217L17.6817 20.1089L15.7394 21.2303C15.6613 21.2766 15.5604 21.2521 15.5124 21.1749C15.4644 21.0978 15.487 20.9964 15.5631 20.9468L17.2033 19.8555L15.3235 20.9409C15.2461 20.9841 15.1486 20.9594 15.101 20.8845C15.0536 20.8098 15.0729 20.711 15.1448 20.6594L18.1387 18.5803L14.8337 20.4875C14.7553 20.5331 14.655 20.5077 14.6076 20.4305C14.5602 20.3533 14.583 20.2523 14.6592 20.2031L16.0025 19.3298L14.5886 20.1456C14.51 20.1917 14.409 20.1662 14.3617 20.0884C14.3143 20.0106 14.338 19.9093 14.4151 19.8605L15.1251 19.4051L14.369 19.8418C14.2908 19.8843 14.1929 19.8579 14.1468 19.7817C14.1006 19.7056 14.1222 19.6066 14.196 19.5568L14.4024 19.4252L14.2288 19.5254C14.1511 19.5704 14.0515 19.5459 14.0037 19.4699C13.9558 19.3938 13.9768 19.2934 14.0512 19.2429L16.9048 17.2926L14.0004 18.9689C13.9231 19.0141 13.8238 18.9901 13.7756 18.9146C13.7273 18.8391 13.7473 18.7391 13.8208 18.6878L16.8725 16.5512L13.8653 18.2871C13.787 18.3301 13.6888 18.304 13.6423 18.2278C13.5959 18.1516 13.6176 18.0522 13.6917 18.0025L13.8862 17.8773L13.8409 17.9032C13.7627 17.9497 13.6619 17.9251 13.6139 17.8479C13.5659 17.7707 13.5884 17.6694 13.6647 17.6198L15.0317 16.7038L13.887 17.3644C13.8096 17.4071 13.7124 17.3821 13.6653 17.3074C13.6181 17.2326 13.6373 17.1343 13.709 17.0827L15.1556 16.0871L14.0118 16.7491C13.9358 16.7925 13.8393 16.77 13.7905 16.6973C13.7417 16.6247 13.7573 16.5267 13.8263 16.4728L15.604 15.0967L14.4355 15.77C14.3599 15.8121 14.2649 15.7898 14.2162 15.7183C14.1674 15.6468 14.1814 15.5502 14.2482 15.4954L15.0467 14.859C14.994 14.8299 14.9611 14.7746 14.9604 14.7143C14.96 14.6542 14.9918 14.5983 15.044 14.5683L16.3847 13.7941C16.4602 13.7512 16.556 13.7734 16.605 13.8451C16.6539 13.9168 16.6398 14.0141 16.5723 14.0688L16.1968 14.3693L17.5729 13.575C17.6487 13.5326 17.7446 13.5555 17.793 13.6277C17.8415 13.7001 17.8263 13.7974 17.7581 13.8514L15.9815 15.2266L18.6455 13.6889C18.7228 13.6464 18.82 13.6714 18.8671 13.7459C18.9143 13.8207 18.8951 13.9192 18.8234 13.9706L17.3776 14.9656L19.239 13.8909C19.3172 13.8444 19.418 13.8691 19.466 13.9462C19.514 14.0234 19.4915 14.1247 19.4152 14.1743L18.0502 15.0877L19.7101 14.1292C19.7889 14.0812 19.8916 14.1061 19.9396 14.1848C19.9876 14.2636 19.9627 14.3663 19.884 14.4143L19.6907 14.5385L20.0155 14.3509C20.0928 14.3071 20.1908 14.3314 20.2386 14.4064C20.2863 14.4813 20.2671 14.5804 20.1948 14.632L17.1428 16.7686L20.5401 14.8076C20.6177 14.7625 20.7172 14.787 20.765 14.8632C20.8129 14.9391 20.7919 15.0395 20.7176 15.09L17.8636 17.0409L20.9348 15.2687C21.0138 15.2208 21.1165 15.2458 21.1643 15.3248C21.2122 15.4035 21.187 15.5062 21.1082 15.5541L20.9008 15.6875L21.1098 15.5671C21.1881 15.5241 21.2863 15.5502 21.3327 15.6265C21.3793 15.7026 21.3576 15.802 21.2835 15.8518L20.5721 16.3085L21.2992 15.8889C21.3772 15.8459 21.4752 15.8718 21.5218 15.9478C21.5686 16.0236 21.5473 16.1227 21.4736 16.1731L20.1327 17.045L21.437 16.2922C21.5144 16.249 21.6119 16.2737 21.6593 16.3485C21.7069 16.4232 21.6876 16.522 21.6157 16.5736L18.6188 18.6511L21.5945 16.9334C21.6722 16.891 21.7696 16.9166 21.8164 16.9918C21.863 17.067 21.843 17.1657 21.7706 17.2165L20.1274 18.3099L21.6483 17.4318C21.7258 17.3903 21.8221 17.416 21.8687 17.4906C21.9154 17.565 21.8961 17.6629 21.8249 17.7143L20.1838 18.822L21.6192 17.9935C21.6969 17.949 21.7956 17.9737 21.8433 18.0492C21.891 18.1249 21.8706 18.2245 21.7973 18.2755L20.3166 19.2937L21.5078 18.6067C21.5844 18.5627 21.682 18.5862 21.7303 18.66C21.7788 18.7339 21.7612 18.8328 21.6904 18.8854L20.0917 20.0676L21.1719 19.444C21.2482 19.4005 21.345 19.4236 21.3935 19.4966C21.4421 19.5696 21.4258 19.6678 21.3562 19.7213L20.6886 20.2258H20.6909C20.7661 20.2261 20.832 20.2767 20.8516 20.3494C20.871 20.4221 20.8394 20.499 20.7743 20.537L18.6569 21.7597C18.5806 21.8032 18.4838 21.7802 18.4352 21.707C18.3867 21.634 18.403 21.5358 18.4725 21.4823L19.0016 21.0817L17.7034 21.8315C17.6781 21.8464 17.6493 21.8543 17.62 21.8541Z" fill="#9ED26A"/>
<path d="M5.80274 12.1873C5.73221 12.1873 5.66928 12.143 5.64551 12.0765C5.62174 12.01 5.64225 11.9359 5.69694 11.8912L6.04946 11.6017L5.25694 12.0591C5.18221 12.1023 5.08698 12.0814 5.03726 12.011C4.98739 11.9406 4.9995 11.8438 5.06507 11.7877L6.23637 10.7862L5.15813 11.4088C5.08527 11.4514 4.99189 11.4329 4.94093 11.3656C4.88982 11.2983 4.89712 11.2035 4.95787 11.1448L5.94661 10.1839L5.15813 10.6403C5.08464 10.6803 4.99298 10.6596 4.94373 10.5922C4.89432 10.5248 4.90256 10.4311 4.96284 10.3733L5.0921 10.2568C5.0427 10.262 4.9936 10.2445 4.95849 10.2094C4.9052 10.1565 4.8937 10.0745 4.93052 10.0091L5.07439 9.75259C5.00525 9.74032 4.95119 9.68609 4.93922 9.61696C4.9271 9.54766 4.95973 9.47837 5.02063 9.44357L5.39724 9.22652C5.46234 9.18893 5.54453 9.19949 5.59797 9.25231C5.65157 9.30514 5.66307 9.38733 5.62625 9.45289L5.51967 9.64182L6.2387 9.2259C6.31219 9.18597 6.40385 9.20648 6.45326 9.27407C6.50251 9.34149 6.49427 9.43502 6.43399 9.49298L6.35631 9.56305L6.94281 9.2259C7.01552 9.18287 7.1089 9.20182 7.15908 9.26956C7.21004 9.33668 7.20305 9.43114 7.14277 9.48987L6.15402 10.4506L7.64227 9.59148C7.71684 9.54829 7.81224 9.5691 7.86195 9.63948C7.91182 9.71002 7.89971 9.80681 7.83414 9.86274L6.663 10.8644L7.64258 10.2992C7.71777 10.2563 7.81317 10.278 7.86242 10.3492C7.91151 10.4204 7.89831 10.5173 7.83181 10.5726L7.47836 10.8627L7.64258 10.7682C7.71109 10.7292 7.79763 10.7435 7.84983 10.8025C7.90219 10.8616 7.90608 10.9492 7.85916 11.0126L7.51673 11.4692L7.64258 11.3968C7.72181 11.3553 7.81969 11.3838 7.86444 11.4611C7.90918 11.5387 7.88495 11.6376 7.80944 11.6855L6.97482 12.167C6.9063 12.2063 6.81961 12.1921 6.76709 12.1329C6.71458 12.0739 6.7107 11.986 6.75793 11.9226L7.10144 11.4625L5.88617 12.1635C5.861 12.1788 5.83226 12.187 5.80274 12.1873Z" fill="#5E8FAA"/>
<path d="M10.9329 12.1873C10.8661 12.1873 10.8056 12.1475 10.7794 12.0862C10.7531 12.0248 10.7659 11.9535 10.812 11.9052L11.4796 11.2042L9.95564 12.0835C9.88153 12.1252 9.788 12.1044 9.73844 12.0354C9.68872 11.9664 9.69898 11.871 9.76206 11.8141L11.028 10.6997L9.83182 11.3901C9.75538 11.4336 9.65812 11.4102 9.6098 11.3367C9.56148 11.2631 9.57857 11.1647 9.64895 11.1117L9.79919 11.0005C9.72757 11.0236 9.64942 10.996 9.60825 10.9331C9.56707 10.8701 9.57313 10.7875 9.62285 10.7311L10.2471 10.0211L9.83182 10.2608C9.76718 10.2979 9.68577 10.2877 9.63233 10.2356C9.57888 10.1836 9.56645 10.1023 9.60188 10.0368L9.756 9.75228C9.68468 9.74358 9.62704 9.69013 9.61275 9.61975C9.59846 9.54922 9.63093 9.47759 9.69323 9.44186L10.0698 9.22482C10.1346 9.18722 10.2165 9.19732 10.2701 9.24952C10.3239 9.30188 10.3361 9.38344 10.3002 9.44916L10.1767 9.67615L10.9588 9.2259C11.0295 9.1852 11.1192 9.20167 11.1709 9.26459C11.2226 9.32767 11.2214 9.41871 11.1678 9.48024L10.5435 10.1903L12.146 9.2663C12.2226 9.2228 12.3197 9.2461 12.368 9.31974C12.4163 9.39323 12.3992 9.49173 12.329 9.54471L12.2058 9.63576L12.3172 9.57175C12.3913 9.53011 12.485 9.55077 12.5345 9.61975C12.5841 9.68889 12.574 9.78413 12.5109 9.84115L11.245 10.9554L12.3177 10.3365C12.3894 10.2954 12.4803 10.3131 12.5316 10.3781C12.5827 10.4432 12.5785 10.5358 12.522 10.5959L11.8542 11.2969L12.318 11.0298C12.3879 10.9899 12.4764 11.0058 12.5283 11.0674C12.5802 11.1291 12.5805 11.2191 12.5293 11.2812L12.391 11.4482C12.4684 11.4434 12.5387 11.4924 12.5611 11.5666C12.5835 11.6407 12.5519 11.7206 12.4848 11.7593L11.7771 12.1635C11.7071 12.2035 11.6185 12.1878 11.5666 12.1259C11.5147 12.0643 11.5144 11.9743 11.5658 11.9122L11.6706 11.786L11.0163 12.1635C10.9912 12.1789 10.9623 12.187 10.9329 12.1873Z" fill="#5E8FAA"/>
<path d="M6.24305 16.1934C6.1764 16.1934 6.11612 16.1536 6.0897 16.0924C6.06329 16.0311 6.07603 15.9601 6.12187 15.9116L6.8207 15.1722L5.26332 16.0694C5.18859 16.112 5.09397 16.0909 5.04441 16.0206C4.995 15.9506 5.00665 15.8542 5.07175 15.7982L6.22239 14.818L5.15845 15.4352C5.08216 15.478 4.98583 15.4547 4.93752 15.3816C4.88935 15.3088 4.90551 15.2109 4.9748 15.1574L5.24856 14.9519L5.15813 15.0039C5.08651 15.045 4.99562 15.0274 4.94435 14.9626C4.89308 14.898 4.89681 14.8055 4.95321 14.7451L5.57141 14.0874L5.15813 14.3259C5.09428 14.3635 5.01318 14.3547 4.95911 14.3039C4.90489 14.2531 4.89091 14.1727 4.92447 14.1065L5.09832 13.7596C5.02328 13.7585 4.95818 13.7071 4.93938 13.6344C4.92074 13.5615 4.95305 13.4852 5.01831 13.448L5.39476 13.2309C5.45877 13.193 5.54002 13.202 5.59424 13.2528C5.64847 13.3038 5.66245 13.3844 5.62858 13.4506L5.47524 13.756L6.38505 13.2318C6.45668 13.1908 6.54741 13.2084 6.59868 13.2732C6.64995 13.3378 6.64622 13.4302 6.58998 13.4907L5.97163 14.1483L7.48162 13.2766C7.5579 13.2339 7.65439 13.2572 7.70255 13.3302C7.75087 13.4031 7.73456 13.5009 7.66526 13.5544L7.39446 13.7581L7.64227 13.6151C7.717 13.5718 7.81255 13.5928 7.86227 13.6634C7.91214 13.734 7.89971 13.8309 7.83383 13.8869L6.68211 14.8677L7.64258 14.3135C7.7142 14.2725 7.80525 14.2902 7.85636 14.355C7.90763 14.4198 7.90375 14.5124 7.84719 14.5726L7.14883 15.312L7.64258 15.0272C7.71063 14.9882 7.7967 15.0019 7.84937 15.0602C7.90204 15.1184 7.90686 15.2054 7.86118 15.2693L7.68934 15.5064C7.76035 15.491 7.83337 15.5232 7.87019 15.5858C7.91633 15.6655 7.88914 15.7676 7.80944 15.8139L7.18922 16.1696C7.12102 16.2086 7.03495 16.195 6.98243 16.1367C6.92976 16.0784 6.92479 15.9914 6.97047 15.9276L7.13112 15.7056L6.32664 16.1696C6.30131 16.1849 6.27257 16.1931 6.24305 16.1934Z" fill="#5E8FAA"/>
<path d="M11.4436 16.1934C11.3765 16.1934 11.3159 16.1532 11.2898 16.0913C11.2637 16.0295 11.2772 15.958 11.3241 15.9099L11.4413 15.7895L10.7806 16.1696C10.7082 16.2108 10.6167 16.1925 10.5658 16.1266C10.515 16.0607 10.5204 15.9674 10.5787 15.9078L11.411 15.0679L9.8629 15.961C9.78786 16.0036 9.69262 15.982 9.64337 15.911C9.59427 15.8401 9.60717 15.7433 9.6732 15.6879L10.7475 14.7993L9.83182 15.328C9.75616 15.3714 9.65984 15.3492 9.61074 15.2769C9.5618 15.2048 9.57656 15.1069 9.64492 15.0526L10.1367 14.6637L9.83182 14.8392C9.76067 14.8798 9.6704 14.8626 9.61913 14.7987C9.56786 14.7347 9.5705 14.643 9.6255 14.5823L10.1006 14.0641L9.83353 14.219C9.76797 14.2568 9.68547 14.2458 9.63203 14.1922C9.57874 14.1387 9.56801 14.0561 9.60577 13.9906L9.74171 13.757C9.69619 13.747 9.65704 13.7183 9.63389 13.6779C9.61167 13.6395 9.60561 13.5938 9.61711 13.5511C9.62845 13.5082 9.65657 13.4717 9.69495 13.4495L10.0716 13.2326C10.137 13.1946 10.2199 13.2054 10.2734 13.259C10.3268 13.3126 10.3377 13.3954 10.2995 13.4608L10.2084 13.6175L10.876 13.2326C10.9473 13.1916 11.0379 13.2085 11.0894 13.2727C11.1409 13.3367 11.1381 13.4288 11.0827 13.4896L10.6066 14.0063L11.9487 13.2318C12.0245 13.1876 12.1216 13.2096 12.171 13.2822C12.2203 13.3547 12.205 13.4531 12.136 13.5073L11.6446 13.8959L12.3049 13.5146C12.3801 13.4711 12.4761 13.4925 12.5257 13.564C12.5753 13.6353 12.5617 13.7329 12.4945 13.788L11.4186 14.6777L12.3163 14.1597C12.3885 14.1184 12.4802 14.1368 12.531 14.2027C12.5818 14.2686 12.5763 14.3618 12.5182 14.4213L11.6866 15.2635L12.3163 14.9C12.3884 14.859 12.4797 14.877 12.5307 14.9426C12.5816 15.008 12.5768 15.101 12.5192 15.1609L12.3741 15.3103C12.4418 15.3008 12.5089 15.333 12.5439 15.3919C12.59 15.4716 12.5628 15.5737 12.4831 15.6198L11.527 16.1696C11.5018 16.1849 11.4731 16.1931 11.4436 16.1934Z" fill="#5E8FAA"/>
<path d="M14.8624 12.1873C14.7906 12.1873 14.7268 12.1413 14.7041 12.0731C14.6814 12.0051 14.7049 11.93 14.7623 11.8868L14.9155 11.77L14.5459 11.983C14.4706 12.0256 14.375 12.0035 14.3261 11.9321C14.2771 11.8606 14.291 11.7635 14.3579 11.7086L15.2803 10.9651L14.5043 11.4128C14.4313 11.4562 14.3373 11.4377 14.286 11.3701C14.2347 11.3024 14.2425 11.207 14.3039 11.1484L15.2945 10.1882L14.5032 10.6453C14.4295 10.6887 14.3351 10.6694 14.2843 10.6007C14.2335 10.5319 14.2428 10.4359 14.3059 10.3782L14.4648 10.2297C14.4069 10.2465 14.3443 10.23 14.302 10.187C14.2492 10.1337 14.2383 10.0518 14.2756 9.98673L14.4121 9.74995C14.3447 9.73519 14.2933 9.6805 14.2829 9.6123C14.2723 9.54409 14.3048 9.47651 14.3646 9.44217L14.7412 9.22513C14.8066 9.18737 14.8893 9.19825 14.9427 9.25169C14.9962 9.30514 15.007 9.38779 14.9693 9.4532L14.8764 9.61369L15.5517 9.2259C15.6254 9.1824 15.72 9.20167 15.7708 9.27049C15.8216 9.33916 15.8123 9.43534 15.7491 9.49298L15.6063 9.62643L16.2989 9.2259C16.3719 9.18256 16.4659 9.20089 16.517 9.26863C16.5683 9.33637 16.5607 9.43161 16.4992 9.49018L15.5084 10.45L16.9897 9.59303C17.065 9.55046 17.1606 9.57252 17.2095 9.64399C17.2584 9.71546 17.2446 9.81256 17.1776 9.86741L16.2532 10.6113L16.99 10.1864C17.0661 10.1432 17.1626 10.1662 17.211 10.239C17.2595 10.3118 17.2437 10.4098 17.1745 10.4634L17.0103 10.5889C17.0748 10.562 17.1491 10.5787 17.196 10.6302C17.2488 10.6876 17.255 10.7737 17.2109 10.838L16.7516 11.5056L16.99 11.3681C17.0692 11.3266 17.1671 11.355 17.2118 11.4324C17.2566 11.5099 17.2323 11.6089 17.1568 11.6569L16.2789 12.1635C16.2114 12.2022 16.1263 12.1892 16.0735 12.1322C16.0206 12.0751 16.0141 11.9892 16.0579 11.9249L16.5177 11.2573L14.9466 12.1635C14.9211 12.1789 14.8921 12.1872 14.8624 12.1873Z" fill="#5E8FAA"/>
<path d="M2.15259 13.5938C2.15259 14.662 1.53159 18.142 2.80652 18.7215C3.25024 18.9218 3.95591 18.8046 4.41361 18.8046H13.6226C14.6241 23.1421 21.7348 22.5649 21.9981 17.6733C21.9981 17.6672 21.9944 17.6639 21.9938 17.6585C21.9932 17.6532 21.9992 17.6468 21.9985 17.6405C21.9668 16.2242 21.1854 14.9312 19.9464 14.2444C19.9739 14.2283 19.9921 14.2002 19.9955 14.1687V4.9922C19.9955 4.98785 19.9921 4.98506 19.9915 4.98086C19.9908 4.97651 19.9969 4.96517 19.9949 4.95647C19.7278 3.62981 18.4004 3.85477 17.3241 3.87575V2.95179C17.196 2.00267 15.5726 1.9559 15.2306 2.79581C15.1462 3.14957 15.1259 3.51561 15.1709 3.87653H11.9827V2.95179C11.8542 2.00127 10.2308 1.95295 9.88899 2.79518C9.80478 3.14911 9.78459 3.5153 9.82949 3.87653H6.97527V2.95179C6.84741 2.00158 5.22384 1.95388 4.88235 2.79518C4.79783 3.14553 4.77732 3.50816 4.82222 3.86581C4.04913 3.82603 3.00492 3.71557 2.47668 4.28514C1.78297 5.03353 2.15196 6.79351 2.15196 7.71917C2.1529 7.72632 2.15476 7.73331 2.15725 7.73999C2.15507 7.74465 2.15352 7.74978 2.15259 7.75491V13.5938ZM21.5151 17.7558C21.3835 20.0311 19.5555 22.0485 17.0364 21.4907C15.6131 21.1517 14.4917 20.0573 14.1183 18.6427C14.0041 18.1039 13.9824 17.5496 14.0539 17.0036C14.0576 16.9816 14.0602 16.9584 14.0646 16.9368C14.0713 16.895 14.0809 16.8534 14.089 16.8116C14.3158 15.8283 14.9264 14.9766 15.7848 14.446C16.1361 14.32 16.5108 14.2725 16.8824 14.3068C17.2614 14.0587 17.699 13.9147 18.1513 13.8895C20.1524 14.0705 21.3953 15.8819 21.5134 17.7558H21.5151ZM15.6557 2.99452C15.7921 2.202 16.7446 2.36746 16.8414 3.08121V4.5258C16.8414 4.60255 16.8481 4.68738 16.8528 4.77252C16.8424 4.97605 16.7476 5.16621 16.591 5.29687C15.8286 5.92595 15.6563 4.56246 15.6563 3.98901C15.6558 3.97596 15.6529 3.96306 15.6476 3.95126C15.6526 3.84312 15.6566 3.73623 15.6566 3.63276C15.6392 3.42037 15.6389 3.2069 15.6557 2.99452ZM10.3142 2.99452C10.4511 2.20495 11.4035 2.36917 11.5 3.08121V4.5258C11.5 4.60224 11.5067 4.68707 11.5113 4.77221C11.5012 4.97589 11.4063 5.16621 11.2497 5.29687C10.4871 5.92595 10.3148 4.56246 10.3148 3.98901C10.3145 3.97596 10.3116 3.96306 10.3061 3.95126C10.3113 3.84312 10.3152 3.73623 10.3152 3.63276C10.2976 3.42037 10.2973 3.2069 10.3142 2.99452ZM5.30665 2.99452C5.44353 2.20386 6.39592 2.36855 6.4924 3.08121V4.5258C6.4924 4.60255 6.49908 4.68738 6.5039 4.77221C6.49349 4.97589 6.39856 5.16606 6.24211 5.29687C5.47957 5.92595 5.30743 4.56246 5.30743 3.98901C5.30696 3.97596 5.30401 3.96306 5.29873 3.95126C5.3037 3.84312 5.30774 3.73623 5.30774 3.63276C5.29003 3.42037 5.28972 3.2069 5.30665 2.99452ZM3.47055 4.1596C3.91707 4.09466 4.3698 4.08347 4.81896 4.1262C4.80964 4.38426 4.79659 4.64962 4.81166 4.90504C4.80964 4.96486 4.81399 5.02467 4.82455 5.08356C4.84879 5.27186 4.94217 5.44432 5.08634 5.56768C5.3124 5.78596 5.6281 5.88493 5.93837 5.83475C6.32119 5.83863 6.67868 5.6438 6.88299 5.32002C7.05762 4.99547 6.9759 4.49907 6.9759 4.14779C7.15286 4.14096 7.33013 4.145 7.50662 4.16022C8.13476 4.10662 8.76617 4.10662 9.39415 4.16022C9.95502 4.26339 9.74202 3.99569 9.81752 4.34449C9.80121 4.59121 9.80572 4.83886 9.83089 5.08496C9.83089 5.08822 9.83089 5.09133 9.83291 5.09459C9.83291 5.22199 9.86973 5.34659 9.93902 5.45348C10.2395 5.89689 11.057 5.96386 11.5081 5.70191C11.6176 5.64318 11.7142 5.56286 11.7917 5.46591C11.8303 5.42179 11.8638 5.37362 11.892 5.32235C12.0663 4.99749 11.9847 4.50109 11.9847 4.14981V4.10445C12.6988 3.97487 14.9161 3.99724 15.1672 4.15292C15.1626 4.27877 15.1576 4.40554 15.1542 4.5331C15.1318 4.69794 15.1369 4.86543 15.1695 5.02856C15.1695 5.04689 15.1695 5.06631 15.1736 5.08433C15.1863 5.18066 15.2174 5.27357 15.2651 5.3584C15.3254 5.52013 15.4445 5.65328 15.5988 5.73096C15.9036 5.88011 16.2551 5.90187 16.5761 5.79171C16.767 5.74588 16.9421 5.64955 17.083 5.51299C17.0961 5.50087 17.1082 5.48859 17.1198 5.47585C17.1413 5.45084 17.1615 5.42474 17.18 5.3974C17.1992 5.37502 17.2173 5.35156 17.2337 5.32701C17.2465 5.30076 17.2564 5.27326 17.2634 5.24483C17.3482 4.88578 17.3689 4.51446 17.3248 4.14826V4.12915C17.525 4.1335 17.7674 4.1596 17.8255 4.1596C18.5035 4.1596 19.2945 4.00191 19.5128 5.08433C19.5177 5.84873 19.673 6.78853 19.5325 7.54765C19.269 7.55697 19.004 7.54765 18.7409 7.54765H3.26997C3.07841 7.57655 2.88358 7.57655 2.69201 7.54765C2.66653 7.53662 2.63997 7.52854 2.61262 7.52326C2.64509 7.43361 2.65333 7.33682 2.6367 7.24282C2.5612 6.33052 2.30313 4.4854 3.4693 4.1596H3.47055ZM2.63593 13.1318V7.83181H19.5122V13.9557C18.8206 13.702 18.0794 13.6134 17.3475 13.6968C15.3572 13.8468 13.4874 15.2193 13.5031 17.7697C13.5051 18.0511 13.5318 18.3319 13.5831 18.6087H5.4426C4.89198 18.6087 4.1018 18.7546 3.56641 18.6087C1.9329 18.1641 2.63593 14.3469 2.63593 13.1318Z" fill="#262626"/>
<path d="M4.93782 12.0257C5.17149 12.2684 5.75737 12.1635 6.04883 12.1635H7.30667C7.33153 12.1631 7.35608 12.1592 7.37985 12.1519C7.39771 12.1511 7.41558 12.1494 7.43329 12.1466C7.59534 12.1309 7.74433 12.0509 7.84672 11.9241C7.94911 11.7975 7.99618 11.635 7.97738 11.4733C7.98732 11.0118 7.97738 10.5491 7.97738 10.0876C7.97738 9.77294 8.04683 9.39307 7.68063 9.25729C7.34101 9.19203 6.9933 9.18147 6.65041 9.2259C6.1116 9.2259 4.90302 9.00187 4.82331 9.78537C4.80281 10.1952 4.80281 10.606 4.82331 11.0159C4.82331 11.2879 4.7245 11.8034 4.93782 12.0257ZM5.30867 9.56398C5.39583 9.39711 6.13755 9.49297 6.35692 9.49297C6.64435 9.49297 7.31164 9.35936 7.45318 9.65455C7.58679 9.93188 7.49404 10.4079 7.49404 10.7078C7.49404 10.8653 7.6028 11.7604 7.40579 11.8965H6.44377C6.20777 11.8965 5.57839 12.0141 5.38775 11.8388C5.1819 11.6499 5.30665 10.9138 5.30665 10.6817V10.0016C5.28319 9.85668 5.28382 9.70878 5.30867 9.56398Z" fill="#262626"/>
<path d="M9.59443 11.9967C9.81442 12.2394 10.3787 12.135 10.6627 12.135H11.898C11.9434 12.1423 11.99 12.1398 12.0344 12.1278C12.4017 12.0537 12.6331 11.9212 12.6528 11.527C12.6755 11.0797 12.6528 10.6256 12.6528 10.178C12.6528 9.87952 12.7426 9.43456 12.4047 9.28665C12.0699 9.21487 11.7248 9.20353 11.3858 9.25325C10.8821 9.25325 9.60251 9.0303 9.49872 9.76393C9.47262 10.1468 9.47262 10.5307 9.49872 10.9133C9.49701 11.1891 9.38717 11.7683 9.59443 11.9967ZM9.96435 9.49298C9.96606 9.48878 9.96746 9.48459 9.96839 9.48024C9.98657 9.47697 10.0043 9.47122 10.0211 9.46361C10.1104 9.45041 10.2013 9.45041 10.2905 9.46361H10.9705C11.3198 9.46361 12.0599 9.30933 12.1677 9.75694C12.2108 9.93685 12.2471 11.8365 12.1239 11.924H11.1776C10.8283 11.924 10.0882 12.0781 9.98035 11.6305C9.94276 11.2805 9.94276 10.9273 9.98035 10.5773V9.92225C9.98035 9.84239 9.95006 9.52638 9.96435 9.49298Z" fill="#262626"/>
<path d="M4.92073 16.0028C5.13777 16.2318 5.712 16.1272 5.98498 16.1272H7.22759C7.27016 16.1292 7.31273 16.1252 7.35406 16.1153C7.7173 16.0418 7.95501 15.9259 7.97738 15.5334C8.00209 15.0867 7.97738 14.632 7.97738 14.1844C7.97738 13.8898 8.06858 13.4431 7.73206 13.3027C7.39678 13.2349 7.05234 13.225 6.7138 13.2736C6.22642 13.2736 4.93005 13.0569 4.82331 13.7706C4.79597 14.1533 4.79597 14.5375 4.82331 14.92C4.82331 15.1882 4.71176 15.7825 4.92073 16.0028ZM5.27698 13.5457C5.28428 13.5227 5.28879 13.4989 5.29065 13.475C5.30945 13.473 5.32763 13.4669 5.34379 13.457C5.43297 13.4427 5.52386 13.4427 5.61319 13.457H6.29353C6.65165 13.457 7.38575 13.3 7.49528 13.764C7.53568 13.9383 7.57405 15.8162 7.46188 15.9447H6.50716C6.14889 15.9447 5.41479 16.1016 5.30541 15.6375C5.26859 15.2873 5.26859 14.9343 5.30541 14.5843V13.9283C5.28661 13.8016 5.27714 13.6737 5.27698 13.5457Z" fill="#262626"/>
<path d="M10.6607 16.1362H11.896C11.9407 16.1411 11.986 16.1378 12.0295 16.1266C12.3924 16.0534 12.6304 15.9279 12.6501 15.5353C12.6738 15.0883 12.6501 14.634 12.6501 14.1864C12.6501 13.8898 12.7406 13.4439 12.4034 13.3C12.0683 13.23 11.7235 13.2193 11.3848 13.2687C10.8894 13.2687 9.60157 13.049 9.49607 13.7727C9.46935 14.1553 9.46935 14.5394 9.49607 14.9221C9.49607 15.1935 9.38545 15.7797 9.59349 16.0048C9.81317 16.2391 10.382 16.1362 10.6607 16.1362ZM9.9631 13.4969C9.96512 13.4921 9.96667 13.4871 9.96776 13.482C9.98563 13.4787 10.0029 13.4731 10.0195 13.4655C10.1088 13.4521 10.1996 13.4521 10.2889 13.4655H10.9689C11.3224 13.4655 12.0596 13.31 12.1677 13.766C12.2094 13.9436 12.2454 15.8319 12.1283 15.9397H11.1791C10.8257 15.9397 10.0885 16.0952 9.98035 15.6392C9.94321 15.289 9.94321 14.936 9.98035 14.586V13.9283C9.98035 13.8482 9.94865 13.527 9.9631 13.4953V13.4969Z" fill="#262626"/>
<path d="M14.2832 12.0181C14.4985 12.2367 15.0748 12.1385 15.3401 12.1385H16.5733C16.6179 12.1458 16.6634 12.1435 16.7069 12.1319C17.074 12.0577 17.3021 11.9232 17.3241 11.5276C17.3492 11.081 17.3241 10.6264 17.3241 10.1786C17.3241 9.84674 17.4172 9.3864 17.0106 9.2722C16.6941 9.2242 16.3728 9.21705 16.0545 9.25092C15.534 9.25092 14.2742 9.02222 14.1701 9.77496C14.1435 10.1713 14.1435 10.5689 14.1701 10.9651C14.1707 11.2399 14.0652 11.7964 14.2832 12.0181ZM14.6648 9.49593C14.7525 9.38376 15.4953 9.46781 15.6976 9.46781C16.0522 9.46781 16.74 9.30701 16.8414 9.75803C16.8824 9.94089 16.9231 11.8371 16.7967 11.9216H15.7978C15.4433 11.9216 14.7556 12.0824 14.654 11.6314C14.6183 11.2812 14.6183 10.9284 14.654 10.5782V9.92225C14.6359 9.7804 14.6394 9.63669 14.6648 9.49593Z" fill="#262626"/>
<path d="M16.3093 17.956C16.2262 17.8645 15.7751 18.0362 15.8539 18.1229L16.7642 19.1244C16.842 19.2103 17.1472 19.095 17.2113 19.0243C18.0208 18.1341 18.8301 17.2438 19.6392 16.3536C19.7394 16.2428 19.2817 16.2978 19.2006 16.387C18.4808 17.1786 17.7612 17.9703 17.0417 18.7619L16.3093 17.956Z" fill="#262626"/>
<path d="M3.97238 14.3396V14.0057C3.97238 13.7915 3.48702 13.8875 3.48702 14.0604V14.3943C3.48702 14.6087 3.97238 14.5125 3.97238 14.3396Z" fill="#262626"/>
<path d="M4.18632 17.4899H4.96485C5.12301 17.4899 5.48595 17.253 5.1631 17.253H4.50248C4.23541 17.253 4.00501 17.2827 3.97129 16.9378C3.93028 16.5125 3.97129 16.0652 3.97129 15.6358C3.97129 15.5196 3.48795 15.5998 3.48795 15.7654V16.4664C3.46092 16.7074 3.4648 16.9507 3.4996 17.1905C3.58909 17.505 3.92592 17.4899 4.18632 17.4899Z" fill="#262626"/>
<path d="M6.89247 17.2783H6.55859C6.43834 17.2777 6.3201 17.3099 6.21679 17.3714C6.14594 17.4178 6.14361 17.4655 6.24211 17.4655H6.57599C6.6964 17.466 6.81448 17.4334 6.91779 17.3714C6.98849 17.3263 6.99097 17.2783 6.89247 17.2783Z" fill="#262626"/>
</svg>
