<svg width="16" height="16" viewBox="0 0 16 16" fill="none" xmlns="http://www.w3.org/2000/svg">
<path d="M4.32485 15.3209C4.29743 15.3209 4.27075 15.3121 4.24886 15.2958C4.22696 15.2796 4.21104 15.2567 4.20352 15.2307C4.19599 15.2047 4.19727 15.1769 4.20716 15.1517C4.21705 15.1265 4.23501 15.1051 4.25831 15.0909L7.31402 13.2148L3.64435 15.3035C3.61585 15.3183 3.58269 15.3218 3.55166 15.3133C3.52063 15.3047 3.4941 15.2848 3.47752 15.2575C3.46094 15.2303 3.45556 15.1978 3.46249 15.1668C3.46943 15.1357 3.48814 15.1085 3.5148 15.0906L7.5096 12.6305L2.8532 15.2828C2.82449 15.299 2.7905 15.3033 2.75856 15.295C2.72661 15.2867 2.69927 15.2663 2.68241 15.2382C2.66556 15.2102 2.66054 15.1767 2.66844 15.1451C2.67635 15.1134 2.69653 15.0861 2.72466 15.069L3.87118 14.3835L2.55126 15.1344C2.52269 15.1499 2.48912 15.1539 2.45763 15.1455C2.42614 15.1371 2.39917 15.117 2.38239 15.0894C2.36561 15.0618 2.36034 15.0289 2.36767 14.9975C2.375 14.9662 2.39437 14.9389 2.42171 14.9213L7.61949 11.7165L2.30149 14.7453C2.27297 14.7605 2.23959 14.7643 2.20829 14.7559C2.177 14.7475 2.1502 14.7275 2.13348 14.7C2.11676 14.6726 2.1114 14.6399 2.11851 14.6087C2.12563 14.5775 2.14468 14.5501 2.17169 14.5324L7.56934 11.2063L2.2783 14.2199C2.24978 14.2351 2.2164 14.2389 2.18511 14.2305C2.15381 14.2221 2.12702 14.2021 2.11029 14.1746C2.09357 14.1472 2.08821 14.1145 2.09533 14.0833C2.10244 14.0521 2.12149 14.0247 2.1485 14.007L7.73719 10.5558L2.2783 13.6651C2.24959 13.6813 2.2156 13.6856 2.18366 13.6773C2.15171 13.669 2.12437 13.6486 2.10752 13.6205C2.09066 13.5925 2.08564 13.559 2.09354 13.5274C2.10145 13.4957 2.12163 13.4684 2.14976 13.4513L5.08096 11.6844L2.2783 13.2807C2.24958 13.2965 2.21573 13.3006 2.184 13.2921C2.15226 13.2836 2.12515 13.2632 2.10844 13.2353C2.09173 13.2074 2.08675 13.1741 2.09457 13.1426C2.10238 13.1111 2.12237 13.0838 2.15026 13.0666L2.52656 12.8429L2.2783 12.9838C2.24974 12.9987 2.21649 13.0022 2.18541 12.9935C2.15433 12.9849 2.12779 12.9648 2.11127 12.9375C2.09475 12.9101 2.08951 12.8775 2.09662 12.8465C2.10374 12.8154 2.12267 12.7882 2.14951 12.7705L5.74181 10.5951L2.2783 12.5684C2.24978 12.5836 2.2164 12.5874 2.18511 12.579C2.15381 12.5706 2.12702 12.5506 2.11029 12.5231C2.09357 12.4957 2.08821 12.463 2.09533 12.4318C2.10244 12.4005 2.12149 12.3732 2.1485 12.3555L7.89069 8.80185L2.2783 11.9982C2.24973 12.0137 2.21617 12.0177 2.18467 12.0093C2.15318 12.001 2.12621 11.9809 2.10943 11.9533C2.09266 11.9257 2.08738 11.8927 2.09471 11.8614C2.10204 11.83 2.12142 11.8027 2.14875 11.7851L7.24673 8.65564L2.2783 11.4855C2.24976 11.5005 2.21645 11.5042 2.18527 11.4956C2.15408 11.4871 2.12742 11.4671 2.1108 11.4397C2.09418 11.4123 2.08888 11.3797 2.09599 11.3485C2.1031 11.3174 2.12209 11.2901 2.149 11.2724L7.08114 8.24836L2.2783 10.9835C2.24981 10.9983 2.21664 11.0018 2.18561 10.9933C2.15459 10.9847 2.12806 10.9648 2.11147 10.9375C2.09489 10.9103 2.08951 10.8778 2.09644 10.8468C2.10338 10.8157 2.1221 10.7885 2.14875 10.7706L7.2674 7.6153L2.2783 10.4571C2.24976 10.4721 2.21645 10.4758 2.18527 10.4672C2.15408 10.4587 2.12742 10.4387 2.1108 10.4113C2.09418 10.3839 2.08888 10.3512 2.09599 10.3201C2.1031 10.289 2.12209 10.2617 2.149 10.244L6.54808 7.54568L2.2783 9.9772C2.24973 9.99273 2.21617 9.99672 2.18467 9.98833C2.15318 9.97995 2.12621 9.95985 2.10943 9.93225C2.09266 9.90465 2.08738 9.87171 2.09471 9.84035C2.10204 9.809 2.12142 9.78167 2.14875 9.76411L6.68317 6.96733L2.2783 9.47618C2.24975 9.49196 2.21609 9.49617 2.18445 9.4879C2.15281 9.47964 2.12567 9.45956 2.10877 9.4319C2.09188 9.40425 2.08655 9.3712 2.09392 9.33974C2.10128 9.30827 2.12077 9.28088 2.14825 9.26334L6.87598 6.32582L2.2783 8.94457C2.24978 8.95981 2.2164 8.96362 2.18511 8.9552C2.15381 8.94677 2.12702 8.92677 2.11029 8.89935C2.09357 8.87193 2.08821 8.8392 2.09533 8.80798C2.10244 8.77676 2.12149 8.74945 2.1485 8.73173L6.3036 6.15947L2.2783 8.45225C2.24959 8.46839 2.2156 8.47276 2.18366 8.46442C2.15171 8.45607 2.12437 8.43569 2.10752 8.40765C2.09066 8.37961 2.08564 8.34616 2.09354 8.3145C2.10145 8.28285 2.12163 8.25552 2.14976 8.23841L3.57025 7.38033L2.2783 8.11608C2.24985 8.13129 2.21655 8.13512 2.18532 8.12677C2.15408 8.11843 2.12729 8.09855 2.11051 8.07125C2.09373 8.04395 2.08823 8.01133 2.09516 7.98014C2.10209 7.94896 2.12092 7.9216 2.14774 7.90373L6.62823 5.08979L2.2783 7.56731C2.24981 7.58214 2.21664 7.58564 2.18561 7.57709C2.15459 7.56854 2.12806 7.54859 2.11147 7.52135C2.09489 7.4941 2.08951 7.46163 2.09644 7.43059C2.10338 7.39955 2.1221 7.37232 2.14875 7.35447L5.04845 5.56869L2.2783 7.14785C2.24969 7.16412 2.21574 7.16867 2.18377 7.1605C2.15179 7.15233 2.12435 7.13211 2.10733 7.10418C2.09032 7.07625 2.0851 7.04285 2.0928 7.01116C2.1005 6.97948 2.1205 6.95204 2.1485 6.93475L5.01039 5.16638L2.2783 6.72241C2.24959 6.73855 2.2156 6.74292 2.18366 6.73458C2.15171 6.72623 2.12437 6.70585 2.10752 6.67781C2.09066 6.64977 2.08564 6.61632 2.09354 6.58466C2.10145 6.55301 2.12163 6.52568 2.14976 6.50857L2.35542 6.38425L2.2783 6.42801C2.24985 6.44322 2.21655 6.44705 2.18532 6.43871C2.15408 6.43036 2.12729 6.41048 2.11051 6.38318C2.09373 6.35589 2.08823 6.32326 2.09516 6.29208C2.10209 6.26089 2.12092 6.23353 2.14774 6.21567L5.55555 4.0773L2.27906 5.9439C2.25059 5.95988 2.21694 5.9643 2.18523 5.95623C2.15352 5.94816 2.12624 5.92823 2.10917 5.90065C2.0921 5.87308 2.08658 5.84003 2.09378 5.80852C2.10098 5.777 2.12033 5.74948 2.14774 5.7318L5.9011 3.3326L2.2783 5.39513C2.2498 5.41059 2.21634 5.41458 2.18493 5.40627C2.15351 5.39796 2.12657 5.37798 2.10974 5.35052C2.09291 5.32306 2.08749 5.29025 2.09462 5.25894C2.10175 5.22763 2.12088 5.20025 2.148 5.18254L4.2883 3.84084L2.2783 4.98461C2.24987 5.00004 2.2165 5.00405 2.18514 4.99582C2.15379 4.98758 2.12686 4.96772 2.10997 4.94039C2.09308 4.91306 2.08753 4.88035 2.09447 4.84908C2.10141 4.81781 2.12032 4.79038 2.14724 4.77252L4.09953 3.53624L2.2783 4.57484C2.25 4.59103 2.21642 4.59572 2.18468 4.58792C2.15293 4.58013 2.1255 4.56046 2.10819 4.53308C2.09087 4.5057 2.08503 4.47275 2.0919 4.44119C2.09876 4.40964 2.11779 4.38195 2.14497 4.36399L4.62326 2.72192L2.27931 4.05741C2.2509 4.07307 2.21744 4.07728 2.18596 4.06916C2.15447 4.06103 2.12739 4.0412 2.11039 4.01383C2.09338 3.98645 2.08778 3.95364 2.09474 3.92228C2.1017 3.89091 2.1207 3.86342 2.14774 3.84556L3.07323 3.25204L2.2783 3.70309C2.25037 3.71876 2.21743 3.72332 2.1862 3.71582C2.15498 3.70833 2.12784 3.68935 2.11033 3.66277C2.09282 3.63619 2.08626 3.60402 2.092 3.57283C2.09773 3.54164 2.11533 3.51378 2.14119 3.49497L4.10054 2.09309L2.2783 3.1307C2.25057 3.14597 2.21802 3.15034 2.18716 3.14295C2.1563 3.13556 2.12941 3.11695 2.11186 3.09084C2.09431 3.06473 2.0874 3.03305 2.09251 3.00213C2.09762 2.97121 2.11438 2.94333 2.13943 2.92407L3.51505 1.89691L2.2783 2.60108C2.25066 2.61635 2.21821 2.62079 2.1874 2.61352C2.15659 2.60624 2.12969 2.58779 2.11205 2.56183C2.09441 2.53587 2.08733 2.50431 2.09222 2.47343C2.0971 2.44255 2.1136 2.41462 2.13842 2.3952L2.88949 1.82331L2.2783 2.17067C2.25065 2.18624 2.21805 2.19091 2.18705 2.18373C2.15606 2.17656 2.12896 2.15808 2.11122 2.132C2.09347 2.10593 2.08638 2.07419 2.09138 2.04317C2.09638 2.01215 2.1131 1.98415 2.13817 1.96479L2.3398 1.81088L2.27855 1.84544C2.25378 1.85936 2.22496 1.86459 2.19679 1.86026C2.16862 1.85593 2.14277 1.84231 2.12346 1.82161C2.10415 1.80092 2.09252 1.77438 2.09048 1.74633C2.08844 1.71827 2.0961 1.69037 2.11221 1.66716L2.45397 1.18031L2.42549 1.19647C2.39669 1.21134 2.36318 1.21465 2.33197 1.20571C2.30075 1.19678 2.27424 1.17629 2.25797 1.14853C2.24171 1.12077 2.23694 1.08788 2.24468 1.05673C2.25241 1.02559 2.27204 0.998595 2.29947 0.981393L2.81615 0.687989C2.84095 0.673969 2.86984 0.668681 2.89808 0.672992C2.92633 0.677304 2.95225 0.69096 2.97159 0.711718C2.99093 0.732477 3.00254 0.759105 3.00453 0.787233C3.00651 0.815361 2.99874 0.843319 2.98249 0.866517L2.64048 1.35237L3.81674 0.683016C3.84439 0.667447 3.87699 0.662781 3.90799 0.669954C3.93898 0.677128 3.96608 0.695609 3.98383 0.721685C4.00157 0.74776 4.00866 0.779497 4.00366 0.810516C3.99866 0.841535 3.98195 0.869538 3.95687 0.888896L3.75524 1.04281L4.38736 0.683016C4.41501 0.667447 4.44761 0.662781 4.4786 0.669954C4.5096 0.677128 4.53669 0.695609 4.55444 0.721685C4.57219 0.74776 4.57927 0.779497 4.57428 0.810516C4.56928 0.841535 4.55256 0.869538 4.52749 0.888896L3.77667 1.46078L5.14297 0.683016C5.17071 0.667437 5.20341 0.662826 5.23446 0.670112C5.26552 0.677399 5.29261 0.696041 5.31028 0.722273C5.32794 0.748504 5.33485 0.780371 5.32962 0.811437C5.32439 0.842503 5.3074 0.870453 5.28209 0.889642L3.90621 1.91656L6.07299 0.683016C6.10092 0.667342 6.13386 0.662786 6.16508 0.67028C6.1963 0.677773 6.22345 0.69675 6.24096 0.723329C6.25847 0.749909 6.26503 0.782084 6.25929 0.813275C6.25355 0.844466 6.23595 0.872317 6.21009 0.891134L4.2505 2.29276L7.07786 0.683016C7.10623 0.667604 7.13952 0.663557 7.17083 0.671713C7.20214 0.679869 7.22906 0.699603 7.24602 0.726821C7.26298 0.754039 7.26866 0.786652 7.26189 0.817894C7.25513 0.849136 7.23643 0.876609 7.20968 0.894615L6.28268 1.48863L7.69838 0.683016C7.72662 0.667587 7.75978 0.663435 7.79103 0.671417C7.82227 0.679398 7.84923 0.698905 7.86632 0.725914C7.88342 0.752923 7.88937 0.785375 7.88292 0.816579C7.87648 0.847782 7.85815 0.875358 7.83171 0.89362L5.35443 2.53569L8.6095 0.683016C8.63793 0.667589 8.6713 0.663577 8.70266 0.671815C8.73401 0.680052 8.76094 0.699905 8.77783 0.727239C8.79472 0.754572 8.80027 0.78728 8.79333 0.818551C8.78639 0.849822 8.76748 0.877246 8.74056 0.895112L6.786 2.13188L9.33083 0.683016C9.35926 0.668198 9.39235 0.66466 9.42334 0.673126C9.45432 0.681592 9.48085 0.701421 9.49751 0.728555C9.51416 0.755689 9.51966 0.788075 9.5129 0.819084C9.50614 0.850094 9.48762 0.877381 9.46113 0.895361L7.32058 2.23806L10.0265 0.694951C10.0406 0.686428 10.0563 0.680733 10.0726 0.678188C10.0889 0.675644 10.1056 0.676301 10.1217 0.680123C10.1378 0.683944 10.153 0.690854 10.1664 0.700459C10.1798 0.710064 10.1911 0.722176 10.1997 0.736102C10.2084 0.750028 10.2141 0.765497 10.2167 0.781625C10.2193 0.797753 10.2186 0.814223 10.2148 0.830097C10.2109 0.845971 10.2039 0.860937 10.1941 0.87414C10.1844 0.887343 10.1721 0.898525 10.158 0.907047L6.40618 3.30525L10.501 0.972939C10.5295 0.957233 10.5631 0.953037 10.5946 0.961235C10.6262 0.969433 10.6533 0.989384 10.6702 1.01689C10.6872 1.0444 10.6926 1.07732 10.6855 1.10873C10.6783 1.14013 10.6591 1.16758 10.6319 1.18528L7.22329 3.32514L10.8131 1.27977C10.8417 1.26468 10.8751 1.26106 10.9063 1.26967C10.9376 1.27827 10.9643 1.29843 10.9808 1.32595C10.9974 1.35347 11.0026 1.38623 10.9953 1.41741C10.9879 1.4486 10.9687 1.4758 10.9416 1.49336L10.7372 1.61768L11.0018 1.46725C11.0304 1.45201 11.0637 1.4482 11.095 1.45663C11.1263 1.46505 11.1531 1.48505 11.1699 1.51247C11.1866 1.53989 11.1919 1.57262 11.1848 1.60384C11.1777 1.63506 11.1587 1.66237 11.1316 1.68009L8.27101 3.44673L11.2745 1.73604C11.303 1.72121 11.3362 1.71771 11.3672 1.72626C11.3983 1.73481 11.4248 1.75476 11.4414 1.782C11.458 1.80925 11.4633 1.84173 11.4564 1.87276C11.4495 1.9038 11.4308 1.93103 11.4041 1.94888L8.50566 3.73442L11.5447 2.00234C11.5733 1.98625 11.607 1.9818 11.6389 1.98993C11.6707 1.99806 11.698 2.01813 11.715 2.04586C11.7321 2.07359 11.7374 2.10679 11.73 2.13837C11.7226 2.16996 11.703 2.19743 11.6753 2.21493L7.19607 5.02788L11.8973 2.3502C11.926 2.33457 11.9597 2.33056 11.9913 2.339C12.0229 2.34744 12.0499 2.36768 12.0666 2.39544C12.0833 2.42319 12.0885 2.45628 12.0809 2.4877C12.0734 2.51912 12.0537 2.54641 12.0261 2.56378L10.6006 3.42535L12.1128 2.56329C12.1414 2.54701 12.1754 2.54247 12.2074 2.55063C12.2393 2.5588 12.2668 2.57902 12.2838 2.60695C12.3008 2.63488 12.306 2.66828 12.2983 2.69997C12.2906 2.73165 12.2706 2.75909 12.2426 2.77638L8.08854 5.34814L12.4299 2.87559C12.4584 2.86057 12.4916 2.85692 12.5227 2.86536C12.5539 2.87381 12.5805 2.89373 12.5972 2.921C12.6139 2.94826 12.6193 2.98081 12.6124 3.01192C12.6054 3.04303 12.5867 3.07032 12.5599 3.08818L7.8312 6.02645L12.7712 3.2125C12.7998 3.19623 12.8337 3.19168 12.8657 3.19985C12.8977 3.20802 12.9251 3.22824 12.9421 3.25617C12.9591 3.2841 12.9643 3.3175 12.9566 3.34919C12.9489 3.38087 12.9289 3.40831 12.901 3.4256L8.36905 6.22089L13.0933 3.53003C13.1218 3.5145 13.1554 3.51051 13.1869 3.5189C13.2184 3.52728 13.2453 3.54738 13.2621 3.57498C13.2789 3.60258 13.2842 3.63552 13.2768 3.66687C13.2695 3.69823 13.2501 3.72556 13.2228 3.74312L8.82247 6.44293L13.4018 3.83437C13.4304 3.8181 13.4643 3.81355 13.4963 3.82172C13.5283 3.82988 13.5557 3.85011 13.5727 3.87804C13.5897 3.90596 13.5949 3.93937 13.5872 3.97105C13.5795 4.00274 13.5595 4.03018 13.5316 4.04746L8.41064 7.20379L13.6808 4.20237C13.7093 4.18684 13.7429 4.18285 13.7744 4.19124C13.8059 4.19962 13.8328 4.21973 13.8496 4.24732C13.8664 4.27492 13.8717 4.30786 13.8643 4.33922C13.857 4.37057 13.8376 4.3979 13.8103 4.41546L8.88094 7.43802L13.7309 4.6753C13.7596 4.65835 13.7939 4.65333 13.8263 4.66135C13.8588 4.66937 13.8866 4.68977 13.9038 4.71806C13.921 4.74635 13.9261 4.78022 13.9179 4.81221C13.9098 4.8442 13.8891 4.87169 13.8605 4.88864L8.76249 8.01811L13.7309 5.18826C13.7594 5.17301 13.7928 5.16921 13.8241 5.17763C13.8554 5.18606 13.8822 5.20606 13.8989 5.23348C13.9156 5.2609 13.921 5.29363 13.9139 5.32485C13.9068 5.35607 13.8877 5.38338 13.8607 5.4011L8.11853 8.95402L13.7309 5.75766C13.7595 5.74281 13.7927 5.73934 13.8238 5.74797C13.8549 5.7566 13.8814 5.77666 13.8979 5.80403C13.9145 5.83139 13.9197 5.86397 13.9126 5.89504C13.9055 5.92611 13.8865 5.9533 13.8597 5.971L10.2674 8.14641L13.7309 6.17389C13.7595 6.159 13.7929 6.15555 13.824 6.16425C13.8552 6.17295 13.8817 6.19314 13.8982 6.22064C13.9147 6.24813 13.9198 6.28082 13.9125 6.31193C13.9051 6.34304 13.886 6.37018 13.8589 6.38773L13.4829 6.61151L13.7309 6.47053C13.7595 6.45544 13.7929 6.45183 13.8242 6.46043C13.8554 6.46903 13.8821 6.48919 13.8987 6.51671C13.9152 6.54423 13.9204 6.57699 13.9131 6.60817C13.9058 6.63936 13.8866 6.66656 13.8595 6.68412L10.9282 8.45125L13.7309 6.85494C13.7594 6.8397 13.7928 6.83589 13.8241 6.84432C13.8554 6.85274 13.8822 6.87274 13.8989 6.90016C13.9156 6.92758 13.921 6.96031 13.9139 6.99153C13.9068 7.02275 13.8877 7.05006 13.8607 7.06778L8.27202 10.519L13.7309 7.40967C13.7595 7.39415 13.793 7.39016 13.8245 7.39854C13.856 7.40692 13.883 7.42703 13.8998 7.45462C13.9166 7.48222 13.9218 7.51516 13.9145 7.54652C13.9072 7.57788 13.8878 7.60521 13.8605 7.62276L8.4608 10.9502L13.7309 7.94849C13.7595 7.93296 13.793 7.92897 13.8245 7.93736C13.856 7.94574 13.883 7.96585 13.8998 7.99344C13.9166 8.02104 13.9218 8.05398 13.9145 8.08534C13.9072 8.11669 13.8878 8.14402 13.8605 8.16158L8.66268 11.3661L13.7309 8.47985C13.7596 8.46447 13.7932 8.46066 13.8246 8.46922C13.8561 8.47778 13.8829 8.49804 13.8996 8.52574C13.9162 8.55345 13.9213 8.58643 13.9137 8.61775C13.9062 8.64907 13.8867 8.6763 13.8592 8.69369L12.7177 9.37647L13.7299 8.80011C13.7585 8.78458 13.792 8.78059 13.8235 8.78898C13.855 8.79736 13.882 8.81746 13.8988 8.84506C13.9155 8.87266 13.9208 8.9056 13.9135 8.93695C13.9062 8.96831 13.8868 8.99564 13.8595 9.0132L9.86389 11.4743L13.7309 9.27179C13.7595 9.25627 13.793 9.25228 13.8245 9.26066C13.856 9.26904 13.883 9.28915 13.8998 9.31674C13.9166 9.34434 13.9218 9.37728 13.9145 9.40864C13.9072 9.43999 13.8878 9.46733 13.8605 9.48488L10.8058 11.3614L13.7309 9.69549C13.7593 9.68048 13.7925 9.67678 13.8236 9.68515C13.8546 9.69352 13.8813 9.71331 13.898 9.74047C13.9148 9.76762 13.9204 9.80008 13.9136 9.83116C13.9069 9.86224 13.8883 9.88959 13.8617 9.90758L9.90976 12.4065L13.7309 10.2311C13.7594 10.215 13.7932 10.2105 13.825 10.2187C13.8569 10.2268 13.8842 10.2469 13.9012 10.2746C13.9183 10.3023 13.9236 10.3355 13.9162 10.3671C13.9088 10.3987 13.8891 10.4262 13.8615 10.4437L10.9882 12.2493L13.7302 10.6878C13.7587 10.6728 13.792 10.6692 13.8232 10.6777C13.8544 10.6862 13.881 10.7063 13.8977 10.7336C13.9143 10.761 13.9196 10.7937 13.9125 10.8248C13.9054 10.856 13.8864 10.8832 13.8595 10.9009L13.3834 11.1926L13.7302 10.9952C13.7443 10.9866 13.76 10.9809 13.7763 10.9784C13.7926 10.9759 13.8093 10.9765 13.8254 10.9803C13.8415 10.9842 13.8567 10.9911 13.8701 11.0007C13.8835 11.0103 13.8948 11.0224 13.9034 11.0363C13.9121 11.0502 13.9178 11.0657 13.9204 11.0818C13.923 11.098 13.9223 11.1144 13.9185 11.1303C13.9146 11.1462 13.9076 11.1612 13.8979 11.1744C13.8881 11.1876 13.8758 11.1987 13.8617 11.2073L11.5616 12.678L13.7291 11.443C13.7574 11.4273 13.7906 11.423 13.822 11.4309C13.8533 11.4387 13.8804 11.4582 13.8977 11.4852C13.9149 11.5123 13.9209 11.5448 13.9144 11.5761C13.908 11.6074 13.8895 11.6351 13.863 11.6533L11.2559 13.4041L13.7319 11.9937C13.7601 11.9778 13.7934 11.9733 13.825 11.981C13.8565 11.9888 13.8837 12.0082 13.901 12.0353C13.9184 12.0624 13.9244 12.0951 13.9179 12.1265C13.9115 12.1579 13.8929 12.1856 13.8663 12.2038L11.9334 13.5155L13.7309 12.4913C13.7592 12.4764 13.7922 12.4728 13.8231 12.4811C13.854 12.4894 13.8806 12.509 13.8974 12.5359C13.9142 12.5628 13.9199 12.5951 13.9135 12.626C13.9071 12.657 13.8889 12.6844 13.8627 12.7026L13.6001 12.8725L13.7309 12.7979C13.759 12.7821 13.7921 12.7777 13.8235 12.7853C13.8548 12.793 13.882 12.8123 13.8993 12.8391C13.9167 12.866 13.923 12.8984 13.9168 12.9297C13.9106 12.961 13.8926 12.9887 13.8663 13.0072L12.8954 13.6786L13.7309 13.2029C13.7585 13.1876 13.7908 13.1831 13.8216 13.1903C13.8524 13.1974 13.8793 13.2157 13.897 13.2415C13.9148 13.2673 13.922 13.2988 13.9173 13.3296C13.9127 13.3605 13.8964 13.3885 13.8718 13.408L12.8231 14.2231L13.7304 13.7062C13.7578 13.6909 13.7899 13.6862 13.8206 13.6931C13.8512 13.7 13.8782 13.7179 13.8961 13.7434C13.914 13.7689 13.9217 13.8 13.9175 13.8308C13.9133 13.8615 13.8977 13.8896 13.8736 13.9096L13.3443 14.339L13.7297 14.1199C13.7563 14.1046 13.7876 14.0994 13.8178 14.1053C13.8481 14.1112 13.875 14.1279 13.8937 14.1521C13.9123 14.1763 13.9213 14.2064 13.9189 14.2367C13.9165 14.2671 13.903 14.2955 13.8809 14.3166L13.5966 14.5901L13.7075 14.5272C13.7364 14.511 13.7707 14.5067 13.8028 14.5153C13.8349 14.5239 13.8623 14.5447 13.8789 14.5731C13.8955 14.6015 13.9001 14.6353 13.8916 14.6671C13.8831 14.6988 13.8622 14.7259 13.8335 14.7425L12.8478 15.3035C12.8212 15.3188 12.7898 15.324 12.7596 15.3181C12.7294 15.3121 12.7024 15.2955 12.6838 15.2713C12.6652 15.2471 12.6562 15.217 12.6585 15.1866C12.6609 15.1563 12.6744 15.1279 12.6965 15.1068L12.9808 14.8333L12.1569 15.3035C12.1296 15.319 12.0973 15.3239 12.0665 15.3171C12.0357 15.3103 12.0085 15.2924 11.9905 15.2668C11.9725 15.2412 11.9648 15.2099 11.9691 15.179C11.9734 15.1481 11.9892 15.12 12.0135 15.1001L12.5413 14.6709L11.4306 15.3035C11.403 15.3191 11.3705 15.3238 11.3395 15.3167C11.3086 15.3097 11.2815 15.2914 11.2636 15.2654C11.2458 15.2395 11.2386 15.2079 11.2433 15.1769C11.2481 15.1459 11.2646 15.1179 11.2894 15.0983L12.3397 14.284L10.5484 15.3035C10.5204 15.3187 10.4876 15.3228 10.4566 15.315C10.4256 15.3072 10.3988 15.288 10.3815 15.2614C10.3643 15.2348 10.358 15.2028 10.3639 15.1717C10.3697 15.1407 10.3873 15.1131 10.4131 15.0944L11.3849 14.4213L9.83491 15.3035C9.80659 15.3187 9.77344 15.3226 9.74228 15.3144C9.71112 15.3062 9.68432 15.2866 9.6674 15.2595C9.65048 15.2324 9.64473 15.2 9.65132 15.1689C9.65791 15.1377 9.67635 15.1103 9.70284 15.0921L9.96471 14.9228L9.29605 15.3035C9.26792 15.3188 9.23493 15.3229 9.20383 15.315C9.17272 15.3071 9.14585 15.2878 9.1287 15.261C9.11155 15.2342 9.10542 15.2019 9.11156 15.1708C9.11769 15.1397 9.13563 15.1121 9.16171 15.0936L11.0946 13.7818L8.42299 15.3035C8.39484 15.3186 8.36191 15.3225 8.33092 15.3145C8.29992 15.3065 8.27318 15.2871 8.25613 15.2604C8.23909 15.2336 8.23301 15.2015 8.23915 15.1704C8.24528 15.1394 8.26316 15.1118 8.28916 15.0934L10.8988 13.3419L7.4539 15.3035C7.42552 15.3187 7.3923 15.3225 7.3611 15.3143C7.32991 15.306 7.30313 15.2863 7.28628 15.2591C7.26943 15.2319 7.2638 15.1994 7.27056 15.1682C7.27732 15.137 7.29594 15.1096 7.32259 15.0916L9.62244 13.6209L6.6688 15.3035C6.64026 15.3185 6.60695 15.3221 6.57577 15.3136C6.54459 15.3051 6.51793 15.2851 6.50131 15.2577C6.48469 15.2303 6.47938 15.1976 6.4865 15.1665C6.49361 15.1353 6.51259 15.1081 6.53951 15.0904L7.01334 14.8002L6.12843 15.3035C6.09995 15.3192 6.06641 15.3234 6.03485 15.3152C6.0033 15.307 5.9762 15.287 5.95926 15.2595C5.94231 15.232 5.93684 15.1991 5.944 15.1677C5.95115 15.1363 5.97038 15.1088 5.99763 15.0911L8.87086 13.2852L5.32645 15.3035C5.29802 15.3189 5.26465 15.3229 5.23329 15.3147C5.20194 15.3064 5.17501 15.2866 5.15812 15.2593C5.14123 15.2319 5.13568 15.1992 5.14262 15.1679C5.14956 15.1367 5.16846 15.1092 5.19539 15.0914L9.1476 12.5932L4.38761 15.3035C4.3686 15.3146 4.34695 15.3206 4.32485 15.3209Z" fill="#DFEDEF"/>
<path d="M11.0714 4.3804C11.0448 4.38072 11.0188 4.37274 10.9971 4.3576C10.9754 4.34246 10.9591 4.32093 10.9506 4.29611C10.942 4.27128 10.9416 4.24442 10.9495 4.21937C10.9573 4.19431 10.973 4.17235 10.9943 4.15662L11.0515 4.11286L10.7546 4.28194C10.7275 4.29709 10.6956 4.30177 10.6651 4.29508C10.6347 4.28839 10.6079 4.27081 10.5898 4.24572C10.5717 4.22064 10.5637 4.18984 10.5674 4.15928C10.571 4.12872 10.586 4.10058 10.6094 4.08028L11.211 3.56907L10.4494 4.0037C10.4226 4.01807 10.3914 4.02236 10.3616 4.01576C10.3318 4.00917 10.3055 3.99214 10.2875 3.96784C10.2695 3.94354 10.261 3.91362 10.2637 3.88364C10.2663 3.85365 10.2799 3.82563 10.3019 3.80478L11.0132 3.17073L10.3435 3.55091C10.3163 3.56645 10.2841 3.57137 10.2534 3.56469C10.2226 3.55802 10.1955 3.54025 10.1774 3.51486C10.1593 3.48945 10.1514 3.45824 10.1554 3.42741C10.1595 3.39657 10.175 3.36833 10.1991 3.34827L10.5822 3.02801L10.3435 3.16377C10.3171 3.1786 10.2862 3.18353 10.2565 3.17767C10.2267 3.1718 10.2001 3.15553 10.1815 3.13184C10.1629 3.10816 10.1536 3.07865 10.1553 3.04875C10.157 3.01884 10.1696 2.99055 10.1908 2.96908L10.6747 2.48347L10.3435 2.67219C10.3169 2.68753 10.2855 2.69273 10.2553 2.6868C10.2251 2.68086 10.1981 2.66422 10.1795 2.64C10.1609 2.61578 10.1519 2.58567 10.1543 2.55536C10.1566 2.52506 10.1702 2.49665 10.1923 2.47551L10.377 2.29773L10.343 2.31688C10.3179 2.33095 10.2886 2.33609 10.2601 2.33142C10.2317 2.32676 10.2056 2.31257 10.1865 2.29125C10.1673 2.26993 10.1562 2.24276 10.1549 2.21429C10.1536 2.18582 10.1623 2.15778 10.1794 2.13487L10.4212 1.81685L10.343 1.86136C10.3181 1.8755 10.289 1.88083 10.2606 1.87644C10.2322 1.87205 10.2062 1.85821 10.1869 1.83722C10.1675 1.81623 10.1561 1.78935 10.1544 1.76105C10.1526 1.73274 10.1608 1.7047 10.1774 1.68158L10.273 1.5493C10.2508 1.54793 10.2294 1.54071 10.211 1.52842C10.1914 1.51563 10.1758 1.4977 10.166 1.47666C10.1562 1.45562 10.1526 1.43229 10.1555 1.40931L10.2031 1.03361C10.1902 1.02374 10.1794 1.01139 10.1714 0.997306C10.1548 0.968744 10.1503 0.934848 10.159 0.903056C10.1677 0.871264 10.1888 0.844173 10.2178 0.827729L10.2845 0.789685C10.3049 0.778099 10.3282 0.772381 10.3518 0.773179C10.3753 0.773977 10.3981 0.781259 10.4176 0.7942C10.4372 0.80714 10.4527 0.825223 10.4623 0.846398C10.472 0.867573 10.4755 0.890995 10.4723 0.914009L10.437 1.19324L10.619 1.08955C10.6439 1.0754 10.673 1.07008 10.7014 1.07447C10.7298 1.07886 10.7558 1.0927 10.7751 1.11369C10.7945 1.13468 10.8059 1.16156 10.8077 1.18986C10.8094 1.21817 10.8012 1.24621 10.7846 1.26933L10.7186 1.36108L10.83 1.29767C10.8551 1.28349 10.8844 1.27828 10.913 1.28292C10.9416 1.28757 10.9677 1.30178 10.9869 1.32318C11.0061 1.34457 11.0172 1.37184 11.0184 1.40039C11.0196 1.42894 11.0108 1.45703 10.9935 1.47993L10.7518 1.79696L11.1228 1.58585C11.1494 1.57051 11.1808 1.56532 11.211 1.57125C11.2412 1.57718 11.2682 1.59383 11.2868 1.61805C11.3054 1.64227 11.3144 1.67238 11.3121 1.70268C11.3097 1.73299 11.2962 1.7614 11.274 1.78253L11.0893 1.96032L11.3514 1.81113C11.3778 1.79612 11.4088 1.79104 11.4387 1.79683C11.4686 1.80263 11.4953 1.81891 11.514 1.84265C11.5326 1.8664 11.542 1.89601 11.5402 1.92601C11.5384 1.956 11.5257 1.98435 11.5044 2.00582L11.0197 2.49168L11.6672 2.12318C11.6945 2.10787 11.7265 2.10312 11.7571 2.10986C11.7877 2.1166 11.8146 2.13435 11.8327 2.15963C11.8507 2.18492 11.8586 2.21593 11.8547 2.24662C11.8508 2.2773 11.8354 2.30545 11.8116 2.32558L11.4293 2.64534L11.916 2.36835C11.9428 2.35398 11.974 2.34969 12.0038 2.35629C12.0335 2.36288 12.0599 2.37991 12.0779 2.40421C12.0959 2.4285 12.1043 2.45842 12.1017 2.48841C12.099 2.5184 12.0854 2.54642 12.0634 2.56727L11.3519 3.20132L12.2454 2.69283C12.2727 2.67602 12.3056 2.67018 12.3372 2.67651C12.3687 2.68284 12.3966 2.70086 12.4152 2.72687C12.4337 2.75288 12.4414 2.7849 12.4367 2.81635C12.4321 2.84781 12.4154 2.8763 12.3901 2.89598L11.7887 3.40744L12.5363 2.98151C12.5639 2.96594 12.5965 2.96128 12.6275 2.96845C12.6585 2.97562 12.6856 2.9941 12.7033 3.02018C12.7211 3.04626 12.7282 3.07799 12.7232 3.10901C12.7182 3.14003 12.7015 3.16803 12.6764 3.18739L12.6187 3.23165L12.727 3.16999C12.7541 3.15474 12.7859 3.14993 12.8164 3.15648C12.8468 3.16303 12.8737 3.18048 12.8919 3.20545C12.9101 3.23043 12.9182 3.26116 12.9148 3.29171C12.9113 3.32227 12.8965 3.35048 12.8732 3.37089L12.6996 3.52157L12.9433 3.38283C12.9672 3.3693 12.995 3.36388 13.0223 3.3674C13.0496 3.37092 13.075 3.38319 13.0946 3.40232C13.1142 3.42145 13.1269 3.44639 13.1308 3.47332C13.1346 3.50025 13.1294 3.52768 13.1159 3.55141L12.9047 3.92165L13.2755 3.71055C13.2905 3.7018 13.3073 3.69629 13.3247 3.69436C13.3421 3.69243 13.3596 3.69414 13.3763 3.69936C13.3928 3.70452 13.408 3.71297 13.421 3.72418C13.434 3.73539 13.4445 3.74911 13.4519 3.7645L13.6059 4.08178L13.6165 4.07556C13.6455 4.05907 13.6799 4.05462 13.7122 4.06318C13.7445 4.07173 13.772 4.0926 13.7888 4.12119C13.8055 4.14977 13.81 4.18374 13.8013 4.21561C13.7926 4.24748 13.7715 4.27465 13.7425 4.29114L13.614 4.36424C13.5988 4.37277 13.5821 4.37814 13.5647 4.38002C13.5474 4.3819 13.5298 4.38026 13.5132 4.37518C13.4967 4.37004 13.4815 4.36163 13.4685 4.35047C13.4555 4.3393 13.445 4.32563 13.4375 4.31028L13.2835 3.99301L12.6325 4.363C12.6086 4.37645 12.5809 4.38183 12.5537 4.3783C12.5264 4.37477 12.501 4.36253 12.4815 4.34345C12.4619 4.32438 12.4492 4.29951 12.4453 4.27264C12.4414 4.24577 12.4465 4.21839 12.4599 4.19466L12.6713 3.82393L11.7247 4.363C11.6976 4.37824 11.6658 4.38305 11.6354 4.3765C11.6049 4.36995 11.578 4.3525 11.5598 4.32753C11.5417 4.30255 11.5335 4.27182 11.537 4.24127C11.5404 4.21072 11.5552 4.18251 11.5785 4.16209L11.7524 4.01116L11.1344 4.363C11.1154 4.37425 11.0936 4.38026 11.0714 4.3804Z" fill="#C6D9DB"/>
<path d="M2.02525 13.0975C1.98619 14.0555 1.8264 15.5305 3.26352 15.2717C6.68796 15.0877 10.3087 15.6446 13.6432 15.0516C14.1122 14.7167 13.984 14.0073 13.984 13.51V4.87422C14.1135 3.76624 11.3182 1.65697 10.4474 0.797394C8.83306 0.568141 7.0025 0.78894 5.31939 0.714594C4.29057 0.872982 2.55353 0.210586 2.04567 1.4021C1.98669 5.29517 2.04516 9.20043 2.02525 13.0975ZM10.9078 1.63832C11.737 2.47004 12.603 3.28362 13.4159 4.12778C10.1855 4.22723 10.3728 4.35156 10.4582 1.19175C10.6104 1.3382 10.7581 1.49062 10.9078 1.63832ZM2.39021 1.49684C2.39802 0.695199 3.24714 0.850355 3.81044 0.850355C5.89354 0.906798 8.0225 0.736724 10.0877 0.917242C9.97378 4.56241 9.83567 4.5363 13.5714 4.3983C13.6591 7.83212 13.6656 11.3328 13.5694 14.7629C13.5276 14.8879 13.442 14.9941 13.328 15.0625C13.214 15.1309 13.079 15.1569 12.9473 15.1359C9.66251 15.1294 6.37568 15.1456 3.09264 15.1359C2.35341 15.0973 2.39071 14.4148 2.39071 13.8941C2.39399 9.76212 2.38416 5.62811 2.39021 1.49684Z" fill="#262626"/>
<path d="M10.7554 6.83505C14.9435 6.61698 5.08626 6.65453 4.2999 6.66522C4.18472 6.66522 3.90521 6.83505 4.14868 6.83505H10.7554Z" fill="#262626"/>
<path d="M10.7594 8.83865C10.9542 8.84064 12.2691 8.89633 11.8568 8.63749H4.29561C4.16027 8.63749 3.90722 8.83865 4.15246 8.83865H10.7594Z" fill="#262626"/>
<path d="M5.25185 10.6361C5.05954 10.6361 3.76482 10.5797 4.15019 10.8206H11.7113C11.8356 10.8206 12.103 10.6361 11.8585 10.6361H5.25185Z" fill="#262626"/>
<path d="M9.28194 12.5892C8.75593 12.7136 3.42911 12.2909 4.20664 12.8458C4.7329 12.7218 10.0597 13.145 9.28194 12.5892Z" fill="#262626"/>
</svg>
