<svg width="24" height="24" viewBox="0 0 24 24" fill="none" xmlns="http://www.w3.org/2000/svg">
<path d="M19.5 1.5C19.3011 1.5 19.1103 1.57902 18.9697 1.71967C18.829 1.86032 18.75 2.05109 18.75 2.25V6.75C18.75 6.94891 18.671 7.13968 18.5303 7.28033C18.3897 7.42098 18.1989 7.5 18 7.5H17.25V2.25C17.25 2.05109 17.171 1.86032 17.0303 1.71967C16.8897 1.57902 16.6989 1.5 16.5 1.5C16.3011 1.5 16.1103 1.57902 15.9697 1.71967C15.829 1.86032 15.75 2.05109 15.75 2.25V7.5H15C14.8011 7.5 14.6103 7.42098 14.4697 7.28033C14.329 7.13968 14.25 6.94891 14.25 6.75V2.25C14.25 2.05109 14.171 1.86032 14.0303 1.71967C13.8897 1.57902 13.6989 1.5 13.5 1.5C13.3011 1.5 13.1103 1.57902 12.9697 1.71967C12.829 1.86032 12.75 2.05109 12.75 2.25V7.5C12.7527 8.26484 12.9893 9.01056 13.4279 9.63713C13.8665 10.2637 14.4863 10.7412 15.204 11.0055L14.6887 21.2355C14.6943 21.412 14.7356 21.5855 14.8099 21.7456C14.8843 21.9057 14.9903 22.0492 15.1215 22.1673C15.2527 22.2854 15.4065 22.3758 15.5735 22.4329C15.7405 22.4901 15.9174 22.5129 16.0935 22.5H16.9065C17.0826 22.5129 17.2595 22.4901 17.4265 22.4329C17.5935 22.3758 17.7473 22.2854 17.8785 22.1673C18.0097 22.0492 18.1157 21.9057 18.1901 21.7456C18.2644 21.5855 18.3057 21.412 18.3113 21.2355L17.7952 11.0055C18.5135 10.7419 19.1338 10.2647 19.5727 9.63795C20.0116 9.01123 20.2479 8.26511 20.25 7.5V2.25C20.25 2.05109 20.171 1.86032 20.0303 1.71967C19.8897 1.57902 19.6989 1.5 19.5 1.5Z" fill="black"/>
<path d="M7.5 1.5C5.42925 1.5 3.75 4.4775 3.75 7.1535C3.75 9.24 4.77525 10.5165 6.20625 10.983L5.68875 21.2355C5.69434 21.412 5.73556 21.5855 5.80993 21.7456C5.8843 21.9057 5.99028 22.0492 6.1215 22.1673C6.25272 22.2854 6.40647 22.3758 6.57351 22.4329C6.74055 22.4901 6.91742 22.5129 7.0935 22.5H7.9065C8.08258 22.5129 8.25945 22.4901 8.42649 22.4329C8.59353 22.3758 8.74728 22.2854 8.8785 22.1673C9.00972 22.0492 9.1157 21.9057 9.19007 21.7456C9.26444 21.5855 9.30566 21.412 9.31125 21.2355L8.79375 10.983C10.2248 10.5165 11.25 9.24 11.25 7.1535C11.25 4.4775 9.57075 1.5 7.5 1.5Z" fill="black"/>
</svg>
