<svg width="16" height="16" viewBox="0 0 16 16" fill="none" xmlns="http://www.w3.org/2000/svg">
<g clip-path="url(#clip0_230_11562)">
<path d="M8.49627 13.9853C8.46769 13.9853 8.43987 13.9762 8.4169 13.9592C8.39393 13.9422 8.37703 13.9182 8.3687 13.8909C8.36036 13.8636 8.36103 13.8343 8.37061 13.8073C8.38018 13.7804 8.39815 13.7573 8.42187 13.7413L10.0589 12.64L7.796 13.9467C7.76598 13.9641 7.73036 13.9691 7.6967 13.9607C7.66305 13.9522 7.634 13.931 7.61574 13.9015C7.59748 13.872 7.59145 13.8365 7.59891 13.8026C7.60638 13.7687 7.62676 13.7391 7.65573 13.72L9.9224 12.2189L7.11493 13.84C7.09998 13.8491 7.08338 13.8552 7.06607 13.8579C7.04877 13.8606 7.0311 13.8599 7.01407 13.8558C6.99705 13.8516 6.981 13.8442 6.96685 13.8339C6.9527 13.8236 6.94072 13.8106 6.9316 13.7956C6.92248 13.7806 6.91639 13.764 6.91369 13.7467C6.91098 13.7294 6.91171 13.7118 6.91583 13.6947C6.91995 13.6777 6.92739 13.6617 6.93771 13.6475C6.94804 13.6334 6.96105 13.6214 6.976 13.6123L8.9296 12.3573L6.60507 13.6995C6.57493 13.7163 6.53944 13.7208 6.50606 13.712C6.47267 13.7032 6.444 13.6818 6.42607 13.6523C6.40814 13.6228 6.40235 13.5875 6.40993 13.5538C6.4175 13.5202 6.43784 13.4907 6.46667 13.4717L8.59813 12.1136L6.1448 13.5291C6.1146 13.5452 6.07936 13.5491 6.04637 13.5399C6.01338 13.5308 5.98517 13.5093 5.96758 13.4799C5.95 13.4506 5.94439 13.4156 5.95191 13.3822C5.95944 13.3488 5.97952 13.3195 6.008 13.3005L6.312 13.1139L5.84 13.3851C5.80997 13.4014 5.77482 13.4055 5.74182 13.3967C5.70881 13.3878 5.68047 13.3666 5.66264 13.3374C5.64482 13.3083 5.63886 13.2734 5.64601 13.24C5.65316 13.2066 5.67287 13.1772 5.70107 13.1579L9.16613 10.9261L5.36613 13.12C5.33603 13.1363 5.3008 13.1404 5.26775 13.1315C5.2347 13.1225 5.20636 13.1012 5.18861 13.0719C5.17085 13.0426 5.16503 13.0077 5.17237 12.9742C5.1797 12.9408 5.19962 12.9114 5.228 12.8923L8.34667 10.9136L4.98347 12.8547C4.95325 12.8706 4.91807 12.8743 4.88519 12.8651C4.8523 12.8558 4.82423 12.8343 4.80675 12.8049C4.78927 12.7756 4.78372 12.7407 4.79125 12.7073C4.79878 12.674 4.8188 12.6449 4.8472 12.6259L5.508 12.2192L4.74107 12.6619C4.71101 12.678 4.67594 12.6819 4.64305 12.673C4.61016 12.664 4.58195 12.6427 4.56423 12.6136C4.54651 12.5845 4.54062 12.5497 4.54777 12.5164C4.55492 12.483 4.57456 12.4537 4.60267 12.4344L8.74667 9.77787L4.3584 12.3112C4.3282 12.3296 4.29192 12.3353 4.25754 12.327C4.22316 12.3186 4.19349 12.297 4.17507 12.2668C4.15664 12.2366 4.15097 12.2003 4.1593 12.1659C4.16763 12.1316 4.18927 12.1019 4.21947 12.0835L8.78747 9.1432L3.9976 11.9085C3.9675 11.9248 3.93227 11.929 3.89922 11.92C3.86617 11.9111 3.83783 11.8897 3.82007 11.8605C3.80231 11.8312 3.7965 11.7962 3.80383 11.7627C3.81117 11.7293 3.83109 11.7 3.85947 11.6808L7.9096 9.108L3.71573 11.5293C3.68544 11.5464 3.64969 11.551 3.61609 11.542C3.58248 11.5331 3.55369 11.5114 3.53585 11.4816C3.51801 11.4517 3.51253 11.4161 3.52058 11.3823C3.52863 11.3485 3.54957 11.3191 3.57893 11.3005L5.2728 10.2557L3.53947 11.256C3.5092 11.2722 3.47385 11.2761 3.44079 11.2668C3.40772 11.2576 3.37949 11.236 3.36197 11.2065C3.34445 11.177 3.33898 11.1418 3.34671 11.1084C3.35444 11.0749 3.37477 11.0458 3.40347 11.0269L3.8568 10.7501L3.40187 11.0128C3.37167 11.0312 3.33539 11.0369 3.30101 11.0286C3.26662 11.0202 3.23696 10.9986 3.21853 10.9684C3.20011 10.9382 3.19444 10.9019 3.20277 10.8675C3.21109 10.8332 3.23274 10.8035 3.26293 10.7851L7.92453 7.78933L3.17333 10.5333C3.14303 10.5501 3.10739 10.5544 3.07396 10.5453C3.04053 10.5363 3.01194 10.5146 2.99423 10.4848C2.97652 10.455 2.97109 10.4196 2.97909 10.3859C2.98708 10.3522 3.00788 10.3229 3.03707 10.3043L3.65813 9.924L3.06667 10.264C3.03646 10.2809 3.00085 10.2854 2.96737 10.2766C2.9339 10.2677 2.90518 10.2462 2.8873 10.2165C2.86942 10.1869 2.86379 10.1514 2.87158 10.1177C2.87938 10.0839 2.89999 10.0545 2.92907 10.0357L6.0648 8.06747L2.9448 9.86933C2.91463 9.88702 2.87871 9.89214 2.8448 9.88359C2.81089 9.87504 2.78169 9.85351 2.7635 9.82364C2.74532 9.79377 2.73959 9.75795 2.74757 9.7239C2.75554 9.68984 2.77657 9.66029 2.80613 9.6416L7.14213 6.8504L2.8248 9.34293C2.79474 9.35973 2.75935 9.36424 2.72603 9.35553C2.69272 9.34682 2.66406 9.32555 2.64607 9.29619C2.62808 9.26683 2.62215 9.23165 2.62952 9.19801C2.63689 9.16437 2.65698 9.13489 2.6856 9.11573L6.91893 6.37547L2.7568 8.7784C2.72651 8.79546 2.69075 8.80002 2.65715 8.7911C2.62355 8.78219 2.59476 8.76049 2.57692 8.73066C2.55908 8.70082 2.5536 8.66519 2.56164 8.63137C2.56969 8.59755 2.59063 8.56821 2.62 8.5496L3.28293 8.14053L2.7432 8.45333C2.71299 8.47026 2.67738 8.47477 2.6439 8.46591C2.61043 8.45705 2.58171 8.43551 2.56384 8.40585C2.54596 8.37619 2.54032 8.34074 2.54812 8.307C2.55591 8.27326 2.57653 8.24388 2.6056 8.22507L4.75547 6.87227L2.75307 8.02667C2.72293 8.04351 2.68744 8.04801 2.65406 8.03922C2.62067 8.03043 2.592 8.00903 2.57407 7.97953C2.55614 7.95003 2.55035 7.91472 2.55793 7.88104C2.5655 7.84736 2.58584 7.81792 2.61467 7.79893L5.2912 6.08587L2.8112 7.51867C2.78118 7.53607 2.74556 7.54109 2.7119 7.53265C2.67824 7.52421 2.6492 7.50299 2.63094 7.47348C2.61268 7.44397 2.60665 7.40851 2.61411 7.37463C2.62158 7.34074 2.64196 7.3111 2.67093 7.292L6.00427 5.07707L2.96 6.8344C2.94507 6.84356 2.92847 6.84968 2.91117 6.85243C2.89387 6.85517 2.87619 6.85448 2.85916 6.8504C2.82475 6.84215 2.79503 6.82056 2.77653 6.7904C2.75804 6.76024 2.75229 6.72396 2.76054 6.68955C2.76879 6.65515 2.79037 6.62543 2.82053 6.60693L4.66053 5.4136L3.15093 6.2848C3.12092 6.30133 3.0857 6.30567 3.05257 6.29692C3.01945 6.28817 2.99096 6.26701 2.97302 6.23782C2.95508 6.20863 2.94906 6.17365 2.95622 6.14015C2.96338 6.10664 2.98317 6.07718 3.01147 6.05787L4.33893 5.18933L3.41733 5.72267C3.40249 5.73195 3.38596 5.73821 3.36869 5.7411C3.35142 5.74399 3.33375 5.74346 3.31669 5.73952C3.29963 5.73558 3.28351 5.72832 3.26925 5.71816C3.255 5.70799 3.24288 5.69511 3.2336 5.68027C3.22432 5.66542 3.21806 5.64889 3.21516 5.63162C3.21227 5.61435 3.21281 5.59668 3.21675 5.57962C3.22069 5.56256 3.22795 5.54644 3.23811 5.53218C3.24828 5.51793 3.26115 5.50581 3.276 5.49653L4.48987 4.6736L3.85627 5.04C3.82686 5.05772 3.79174 5.06341 3.75824 5.05588C3.72473 5.04836 3.69542 5.0282 3.67642 4.9996C3.65741 4.971 3.65017 4.93617 3.6562 4.90237C3.66223 4.86856 3.68107 4.83839 3.7088 4.81813L4.73173 4.04027C4.7146 4.03589 4.69852 4.02811 4.68445 4.01739C4.67039 4.00667 4.65863 3.99323 4.64987 3.97787C4.63217 3.94727 4.62733 3.91091 4.63643 3.87675C4.64553 3.8426 4.66782 3.81346 4.6984 3.79573L6.1808 2.94C6.21015 2.92329 6.24475 2.91835 6.27761 2.92616C6.31047 2.93398 6.33913 2.95397 6.35782 2.9821C6.37651 3.01023 6.38382 3.04441 6.37829 3.07773C6.37275 3.11104 6.35478 3.14102 6.328 3.1616L5.54667 3.75547L7.55333 2.59653C7.58326 2.5788 7.61893 2.57347 7.65273 2.58167C7.68653 2.58987 7.71579 2.61095 7.73427 2.64042C7.75274 2.66989 7.75897 2.70541 7.75162 2.73941C7.74427 2.77341 7.72393 2.80319 7.69493 2.8224L6.48 3.64587L8.3544 2.56373C8.38444 2.54665 8.41994 2.54191 8.45341 2.55049C8.48688 2.55907 8.51572 2.58031 8.53383 2.60973C8.55195 2.63916 8.55794 2.67447 8.55053 2.70822C8.54313 2.74197 8.52291 2.77153 8.49413 2.79067L7.16773 3.6584L8.97493 2.61493C9.00503 2.59743 9.04077 2.5924 9.07453 2.6009C9.10829 2.6094 9.13738 2.63077 9.15559 2.66044C9.17381 2.69011 9.17969 2.72572 9.172 2.75967C9.1643 2.79363 9.14363 2.82322 9.1144 2.84213L7.2744 4.03653L9.54667 2.72427C9.57669 2.70686 9.61231 2.70184 9.64597 2.71028C9.67962 2.71872 9.70867 2.73994 9.72693 2.76945C9.74519 2.79896 9.75122 2.83442 9.74376 2.86831C9.73629 2.90219 9.71591 2.93183 9.68693 2.95093L6.3536 5.16427L10.2133 2.93627C10.2436 2.91791 10.2799 2.91232 10.3142 2.92072C10.3486 2.92913 10.3782 2.95083 10.3965 2.98107C10.4149 3.0113 10.4205 3.04759 10.4121 3.08194C10.4037 3.1163 10.382 3.14591 10.3517 3.16427L7.67413 4.87787L10.6819 3.14133C10.7122 3.12309 10.7485 3.11762 10.7828 3.12615C10.8172 3.13468 10.8467 3.15649 10.8649 3.1868C10.8832 3.2171 10.8886 3.25342 10.8801 3.28775C10.8716 3.32208 10.8498 3.35162 10.8195 3.36987L8.66987 4.7224L11.0539 3.34613C11.0842 3.32907 11.1199 3.32451 11.1535 3.33343C11.1871 3.34235 11.2159 3.36404 11.2338 3.39388C11.2516 3.42372 11.2571 3.45934 11.249 3.49316C11.241 3.52699 11.22 3.55633 11.1907 3.57493L10.5293 3.98293L11.3293 3.52133C11.3595 3.50287 11.3958 3.49715 11.4301 3.50543C11.4645 3.51371 11.4942 3.5353 11.5127 3.56547C11.5311 3.59563 11.5368 3.63189 11.5286 3.66627C11.5203 3.70065 11.4987 3.73034 11.4685 3.7488L7.23413 6.48907L11.7827 3.86293C11.8128 3.84525 11.8488 3.84013 11.8827 3.84868C11.9166 3.85722 11.9458 3.87875 11.964 3.90862C11.9822 3.9385 11.9879 3.97432 11.9799 4.00837C11.9719 4.04242 11.9509 4.07198 11.9213 4.09067L7.5848 6.88213L12.1808 4.2288C12.211 4.21245 12.2463 4.20837 12.2794 4.21741C12.3125 4.22644 12.3409 4.24789 12.3586 4.2773C12.3763 4.30671 12.3819 4.3418 12.3744 4.37529C12.3669 4.40877 12.3467 4.43806 12.3181 4.45707L9.184 6.42453L12.4587 4.53333C12.489 4.51602 12.525 4.51134 12.5588 4.52028C12.5926 4.52923 12.6215 4.5511 12.6394 4.58117C12.6572 4.61124 12.6625 4.64711 12.6541 4.68106C12.6458 4.71501 12.6244 4.74431 12.5947 4.76267L11.9683 5.14667L12.6403 4.75867C12.6704 4.74152 12.706 4.73678 12.7395 4.74544C12.7731 4.75409 12.802 4.77547 12.82 4.80504C12.8381 4.83461 12.8439 4.87005 12.8363 4.90386C12.8287 4.93766 12.8082 4.96717 12.7792 4.98613L8.1184 7.98187L12.9451 5.19547C12.9755 5.1774 13.0118 5.17215 13.0461 5.18087C13.0804 5.1896 13.1098 5.21159 13.1279 5.242C13.1459 5.27241 13.1512 5.30876 13.1425 5.34304C13.1337 5.37732 13.1117 5.40673 13.0813 5.4248L12.6264 5.70293L13.088 5.43627C13.1184 5.41813 13.1547 5.41279 13.189 5.42145C13.2233 5.4301 13.2528 5.45202 13.2709 5.4824C13.2891 5.51278 13.2944 5.54911 13.2858 5.58342C13.2771 5.61773 13.2552 5.64719 13.2248 5.66533L11.5315 6.7096L13.2381 5.72453C13.2683 5.70728 13.3041 5.7025 13.3377 5.71122C13.3714 5.71994 13.4003 5.74147 13.4183 5.77121C13.4363 5.80095 13.442 5.83655 13.4342 5.87042C13.4263 5.9043 13.4055 5.93376 13.3763 5.95253L9.32453 8.5256L13.4232 6.16C13.4534 6.14232 13.4893 6.1372 13.5232 6.14574C13.5571 6.15429 13.5863 6.17582 13.6045 6.20569C13.6227 6.23556 13.6284 6.27138 13.6204 6.30544C13.6125 6.33949 13.5914 6.36904 13.5619 6.38773L8.99547 9.32667L13.5917 6.6728C13.6219 6.65596 13.6574 6.65146 13.6907 6.66025C13.7241 6.66904 13.7528 6.69044 13.7707 6.71994C13.7887 6.74944 13.7944 6.78475 13.7869 6.81843C13.7793 6.85211 13.759 6.88154 13.7301 6.90053L9.5848 9.5576L13.7067 7.17787C13.7369 7.16146 13.7723 7.15739 13.8055 7.1665C13.8387 7.17561 13.8671 7.1972 13.8847 7.22675C13.9024 7.2563 13.9079 7.29153 13.9001 7.32506C13.8924 7.35859 13.872 7.38783 13.8432 7.40667L13.1835 7.81333L13.752 7.48507C13.7823 7.46675 13.8186 7.46121 13.8529 7.46966C13.8873 7.47811 13.9169 7.49986 13.9352 7.53013C13.9535 7.5604 13.9591 7.59671 13.9506 7.63107C13.9422 7.66542 13.9204 7.69502 13.8901 7.71333L10.7733 9.69013L13.7867 7.95013C13.8169 7.93171 13.8531 7.92604 13.8875 7.93436C13.9219 7.94269 13.9516 7.96433 13.97 7.99453C13.9884 8.02473 13.9941 8.06101 13.9858 8.0954C13.9774 8.12978 13.9558 8.15944 13.9256 8.17787L10.4608 10.4088L13.7816 8.49173C13.8118 8.47602 13.8468 8.47243 13.8795 8.48171C13.9123 8.49098 13.9402 8.51241 13.9576 8.54161C13.9751 8.57081 13.9807 8.60557 13.9734 8.63878C13.966 8.672 13.9463 8.70115 13.9181 8.72027L13.6117 8.91013L13.7501 8.83013C13.7804 8.81178 13.8167 8.80619 13.851 8.81459C13.8854 8.82299 13.915 8.8447 13.9333 8.87493C13.9517 8.90517 13.9573 8.94145 13.9489 8.97581C13.9405 9.01017 13.9188 9.03978 13.8885 9.05813L11.76 10.4149L13.6696 9.31253C13.6997 9.29599 13.735 9.29169 13.7682 9.30052C13.8013 9.30935 13.8298 9.33065 13.8477 9.35996C13.8656 9.38928 13.8714 9.42435 13.8641 9.45789C13.8568 9.49143 13.8368 9.52084 13.8083 9.54L11.8512 10.7971L13.5355 9.82507C13.5654 9.80854 13.6006 9.80415 13.6337 9.8128C13.6667 9.82146 13.6952 9.8425 13.7133 9.87157C13.7313 9.90065 13.7374 9.93553 13.7304 9.96901C13.7235 10.0025 13.7039 10.032 13.6757 10.0515L11.4133 11.5507L13.288 10.4685C13.3179 10.452 13.353 10.4475 13.386 10.4561C13.4191 10.4647 13.4476 10.4856 13.4657 10.5145C13.4838 10.5435 13.4901 10.5783 13.4833 10.6118C13.4764 10.6452 13.457 10.6748 13.4291 10.6944L11.7923 11.7957L12.9243 11.1424C12.9539 11.1255 12.9889 11.1206 13.0221 11.1287C13.0553 11.1369 13.084 11.1574 13.1025 11.1861C13.121 11.2148 13.1277 11.2495 13.1213 11.2831C13.115 11.3166 13.096 11.3464 13.0683 11.3664L11.8989 12.1995L12.2605 11.9909C12.291 11.975 12.3265 11.9714 12.3595 11.981C12.3925 11.9906 12.4206 12.0126 12.4378 12.0424C12.455 12.0721 12.46 12.1074 12.4518 12.1408C12.4437 12.1742 12.4229 12.2032 12.3939 12.2216L9.61307 13.8264C9.58341 13.8433 9.5484 13.8482 9.51524 13.8401C9.48208 13.8319 9.45331 13.8114 9.43485 13.7827C9.41638 13.754 9.40964 13.7193 9.41601 13.6857C9.42238 13.6522 9.44137 13.6224 9.46907 13.6024L10.6379 12.7696L8.56293 13.9675C8.5427 13.9792 8.51968 13.9854 8.49627 13.9853Z" fill="#DEF0F2"/>
<path d="M3.86666 5.72933C3.83731 5.72933 3.80879 5.71965 3.7855 5.70178C3.76222 5.68391 3.74548 5.65886 3.73788 5.63051C3.73028 5.60216 3.73225 5.57209 3.74349 5.54498C3.75472 5.51786 3.77458 5.49521 3.8 5.48053L5.3664 4.57627C5.38157 4.56737 5.39835 4.56157 5.41577 4.55919C5.43319 4.5568 5.45091 4.55789 5.46791 4.56239C5.48491 4.56688 5.50085 4.57469 5.51482 4.58537C5.52879 4.59606 5.54051 4.60939 5.5493 4.62462C5.55809 4.63985 5.56379 4.65667 5.56605 4.6741C5.56832 4.69154 5.56711 4.70926 5.56251 4.72622C5.5579 4.74319 5.54998 4.75909 5.53921 4.77298C5.52843 4.78688 5.51502 4.79851 5.49973 4.8072L3.93333 5.71147C3.91306 5.72317 3.89007 5.72933 3.86666 5.72933Z" fill="#A4BFC1"/>
<path d="M4.54133 3.28773C4.51508 3.28773 4.48941 3.27997 4.46754 3.26544C4.44568 3.25091 4.42859 3.23024 4.41842 3.20603C4.40826 3.18182 4.40546 3.15515 4.41039 3.12936C4.41532 3.10358 4.42776 3.07982 4.44613 3.06107L4.8176 2.68107L4.608 2.80213C4.57983 2.81884 4.54649 2.82459 4.51434 2.81829C4.4822 2.81199 4.4535 2.79407 4.43372 2.76796C4.41394 2.74185 4.40446 2.70937 4.40709 2.67672C4.40973 2.64407 4.42429 2.61353 4.448 2.59093L4.728 2.31893L4.60747 2.38853C4.58007 2.40439 4.54792 2.40999 4.51677 2.40431C4.48563 2.39864 4.45752 2.38207 4.43747 2.35756C4.41743 2.33306 4.40675 2.30222 4.40736 2.27057C4.40797 2.23892 4.41983 2.20851 4.4408 2.1848L4.93653 1.62213L4.60747 1.81173C4.58012 1.82743 4.5481 1.83293 4.51709 1.82726C4.48607 1.82159 4.45807 1.8051 4.43805 1.78074C4.41804 1.75638 4.40731 1.72571 4.40776 1.69418C4.40821 1.66266 4.41983 1.63231 4.44053 1.60853L4.81867 1.1776L4.61653 1.29413C4.59059 1.309 4.56039 1.31471 4.5308 1.31035C4.50122 1.30599 4.47396 1.2918 4.4534 1.27008C4.43285 1.24836 4.42019 1.22035 4.41747 1.19057C4.41475 1.16079 4.42212 1.13095 4.4384 1.10587L4.7584 0.613067C4.73236 0.60698 4.70875 0.593204 4.69064 0.573528C4.67254 0.553852 4.66076 0.529185 4.65685 0.502731C4.65294 0.476277 4.65707 0.449259 4.66872 0.425185C4.68036 0.401111 4.69897 0.381094 4.72213 0.367733L5.06427 0.170667C5.09022 0.15567 5.12047 0.149856 5.15013 0.154162C5.1798 0.158468 5.20714 0.172644 5.22776 0.194401C5.24838 0.216159 5.26106 0.244228 5.26377 0.27408C5.26647 0.303932 5.25904 0.333825 5.24267 0.358933L4.9656 0.7856L5.38347 0.544267C5.41081 0.528567 5.44283 0.523066 5.47385 0.52874C5.50487 0.534414 5.53287 0.550896 5.55288 0.575259C5.5729 0.599623 5.58363 0.63029 5.58318 0.661817C5.58272 0.693344 5.57111 0.72369 5.5504 0.747467L5.17333 1.1776L5.5072 0.9848C5.5346 0.96894 5.56675 0.963347 5.5979 0.969021C5.62904 0.974696 5.65715 0.991267 5.6772 1.01577C5.69724 1.04027 5.70792 1.07111 5.70731 1.10276C5.7067 1.13442 5.69484 1.16482 5.67387 1.18853L5.17867 1.7512L5.52533 1.55093C5.55351 1.53423 5.58685 1.52848 5.619 1.53478C5.65114 1.54108 5.67984 1.559 5.69962 1.58511C5.7194 1.61122 5.72888 1.64369 5.72624 1.67634C5.72361 1.70899 5.70905 1.73953 5.68533 1.76213L5.40453 2.0344L5.52533 1.96453C5.55325 1.94843 5.58605 1.94299 5.61767 1.9492C5.64929 1.95542 5.67758 1.97287 5.69733 1.99834C5.71707 2.02381 5.72692 2.05557 5.72506 2.08774C5.7232 2.11991 5.70975 2.15031 5.6872 2.17333L5.316 2.55307L5.52533 2.43227C5.55594 2.41486 5.59219 2.41028 5.62617 2.4195C5.66015 2.42873 5.6891 2.45102 5.7067 2.48151C5.72431 2.512 5.72914 2.54822 5.72014 2.58226C5.71114 2.6163 5.68904 2.64539 5.65867 2.6632L4.608 3.26987C4.58773 3.28157 4.56474 3.28773 4.54133 3.28773Z" fill="#A4BFC1"/>
<path d="M2.32747 3.61466C2.30118 3.61466 2.27548 3.60688 2.2536 3.59232C2.23172 3.57775 2.21463 3.55704 2.20449 3.53279C2.19434 3.50854 2.19159 3.48183 2.19658 3.45602C2.20157 3.43021 2.21408 3.40645 2.23253 3.38773L2.668 2.94693L2.47467 3.05866C2.44597 3.07538 2.41206 3.08078 2.37958 3.07381C2.34711 3.06685 2.3184 3.04801 2.29909 3.02099C2.27977 2.99396 2.27124 2.96071 2.27516 2.92773C2.27907 2.89474 2.29516 2.86441 2.32027 2.84266L2.40747 2.76666C2.38147 2.76657 2.35607 2.75888 2.33439 2.74454C2.3127 2.7302 2.29569 2.70983 2.28543 2.68594C2.27517 2.66206 2.27212 2.63569 2.27665 2.61009C2.28118 2.58449 2.2931 2.56078 2.31093 2.54186L2.7376 2.08853L2.47467 2.24C2.44706 2.25584 2.41469 2.26128 2.38342 2.25534C2.35214 2.2494 2.32403 2.23246 2.30415 2.20759C2.28428 2.18273 2.27396 2.15157 2.27505 2.11976C2.27615 2.08794 2.28859 2.05757 2.31013 2.03413L2.73547 1.57333L2.47467 1.724C2.44724 1.74003 2.41499 1.74574 2.38372 1.74011C2.35245 1.73447 2.32423 1.71785 2.30412 1.69325C2.28402 1.66864 2.27337 1.63767 2.27408 1.60591C2.27479 1.57414 2.28682 1.54368 2.308 1.52L2.65307 1.13066L2.49307 1.22346C2.4668 1.23861 2.43616 1.24435 2.4062 1.23974C2.37624 1.23514 2.34874 1.22046 2.32824 1.19812C2.30773 1.17579 2.29546 1.14714 2.29343 1.11689C2.2914 1.08664 2.29973 1.0566 2.31707 1.03173L2.6104 0.608531C2.58675 0.599751 2.56607 0.58444 2.55078 0.564378C2.53548 0.544315 2.52619 0.520325 2.52398 0.495192C2.52177 0.47006 2.52674 0.444817 2.53831 0.422397C2.54988 0.399976 2.56757 0.381298 2.58933 0.368531L2.93067 0.170664C2.95693 0.15552 2.98757 0.149778 3.01753 0.154384C3.0475 0.158991 3.075 0.173671 3.0955 0.196005C3.116 0.218338 3.12828 0.246991 3.13031 0.27724C3.13234 0.307488 3.124 0.337525 3.10667 0.362398L2.876 0.693331L3.22667 0.491198C3.25407 0.475338 3.28621 0.469745 3.31736 0.475419C3.34851 0.481093 3.37662 0.497665 3.39666 0.522169C3.41671 0.546673 3.42738 0.57751 3.42677 0.609162C3.42616 0.640815 3.41431 0.671218 3.39333 0.694931L3.0496 1.0848L3.36213 0.904265C3.38978 0.888045 3.42234 0.882327 3.45385 0.888156C3.48537 0.893985 3.51373 0.910972 3.53375 0.936006C3.55376 0.96104 3.56409 0.992445 3.56284 1.02447C3.56159 1.0565 3.54884 1.087 3.52693 1.1104L3.10027 1.57066L3.39067 1.40293C3.41839 1.38689 3.45096 1.38136 3.48242 1.38736C3.51388 1.39336 3.54213 1.41049 3.562 1.4356C3.58188 1.46072 3.59205 1.49215 3.59065 1.52415C3.58925 1.55615 3.57639 1.58657 3.5544 1.60986L3.12773 2.0632L3.39173 1.91093C3.42043 1.89421 3.45434 1.88881 3.48682 1.89578C3.51929 1.90275 3.548 1.92159 3.56731 1.94861C3.58662 1.97563 3.59516 2.00889 3.59124 2.04187C3.58733 2.07485 3.57124 2.10519 3.54613 2.12693L3.45893 2.20293C3.47921 2.20289 3.49922 2.20754 3.5174 2.21651C3.53558 2.22549 3.55144 2.23854 3.56373 2.25466C3.58346 2.28021 3.59326 2.31205 3.5913 2.34427C3.58933 2.37649 3.57575 2.4069 3.55307 2.42986L3.1176 2.87066L3.39173 2.71226C3.40691 2.70351 3.42367 2.69783 3.44105 2.69555C3.45842 2.69327 3.47608 2.69444 3.493 2.69898C3.50993 2.70353 3.52579 2.71136 3.53969 2.72203C3.55359 2.73271 3.56525 2.74602 3.574 2.7612C3.58275 2.77638 3.58843 2.79314 3.59071 2.81051C3.59299 2.82789 3.59183 2.84554 3.58728 2.86247C3.58274 2.87939 3.5749 2.89526 3.56423 2.90915C3.55356 2.92305 3.54025 2.93471 3.52507 2.94346L2.39413 3.5968C2.37386 3.6085 2.35087 3.61466 2.32747 3.61466Z" fill="#A4BFC1"/>
<path d="M2.648 15.8168C2.62184 15.8168 2.59625 15.8091 2.57443 15.7947C2.55261 15.7802 2.53552 15.7597 2.52529 15.7356C2.51505 15.7115 2.51213 15.685 2.51688 15.6593C2.52163 15.6335 2.53384 15.6098 2.552 15.5909L3.192 14.9296L2.22693 15.4875C2.1978 15.5044 2.16333 15.5097 2.13046 15.5022C2.09759 15.4948 2.06876 15.4752 2.04978 15.4473C2.03079 15.4195 2.02304 15.3855 2.02811 15.3522C2.03317 15.3188 2.05066 15.2887 2.07707 15.2677L2.46133 14.9619L2.04747 15.2C2.01856 15.2166 1.98447 15.2218 1.95192 15.2145C1.91938 15.2073 1.89074 15.1881 1.87166 15.1607C1.85257 15.1334 1.84444 15.0998 1.84884 15.0668C1.85325 15.0337 1.86989 15.0035 1.89547 14.9821L2.64213 14.3605L1.97173 14.7491C1.94227 14.7662 1.90736 14.7714 1.87417 14.7636C1.84099 14.7558 1.81205 14.7356 1.79331 14.7071C1.77456 14.6787 1.76744 14.6441 1.77339 14.6105C1.77935 14.577 1.79794 14.547 1.82533 14.5267L2.00667 14.3915L1.98 14.4067C1.95128 14.4229 1.91756 14.4279 1.88535 14.4208C1.85314 14.4136 1.82474 14.3947 1.80563 14.3678C1.78653 14.3409 1.77808 14.3079 1.78191 14.2751C1.78575 14.2423 1.8016 14.2122 1.8264 14.1904L2.7368 13.4085L1.9944 13.8371C1.9656 13.8537 1.93163 13.8589 1.89918 13.8517C1.86672 13.8446 1.8381 13.8256 1.81893 13.7984C1.79974 13.7712 1.79139 13.7379 1.79554 13.7049C1.79968 13.6718 1.81602 13.6416 1.84133 13.62L2.69173 12.8963L2.00827 13.2909C1.97951 13.3075 1.94561 13.3127 1.91319 13.3056C1.88077 13.2985 1.85217 13.2796 1.83296 13.2525C1.81376 13.2255 1.80535 13.1922 1.80936 13.1593C1.81337 13.1263 1.82953 13.0961 1.85467 13.0744L2.71253 12.3368L2.0224 12.7352C1.9937 12.7519 1.95979 12.7573 1.92732 12.7503C1.89484 12.7434 1.86614 12.7245 1.84682 12.6975C1.82751 12.6705 1.81897 12.6372 1.82289 12.6043C1.82681 12.5713 1.84289 12.5409 1.868 12.5192L2.748 11.7504L2.03707 12.16C2.00846 12.1766 1.97472 12.1819 1.9424 12.175C1.91008 12.1681 1.88148 12.1494 1.86215 12.1226C1.84282 12.0958 1.83413 12.0627 1.83777 12.0299C1.84142 11.997 1.85713 11.9667 1.88187 11.9448L2.7792 11.1485L2.05173 11.5693C2.02238 11.586 1.98778 11.591 1.95492 11.5832C1.92207 11.5754 1.8934 11.5554 1.87471 11.5272C1.85602 11.4991 1.84871 11.4649 1.85425 11.4316C1.85978 11.3983 1.87775 11.3683 1.90453 11.3477L2.08613 11.2096L2.05947 11.2243C2.0304 11.241 1.99609 11.2462 1.96338 11.2387C1.93068 11.2313 1.90197 11.2118 1.883 11.1842C1.86402 11.1565 1.85616 11.1227 1.86099 11.0895C1.86583 11.0563 1.88299 11.0262 1.90907 11.0051L2.40773 10.6032L2.07013 10.7979C2.04074 10.8147 2.00605 10.8197 1.97309 10.8119C1.94013 10.8041 1.91139 10.784 1.89268 10.7558C1.87398 10.7276 1.86673 10.6933 1.8724 10.6599C1.87806 10.6265 1.89623 10.5965 1.9232 10.576L2.0376 10.4899C2.00867 10.4956 1.97867 10.4915 1.95229 10.4783C1.92592 10.4652 1.90465 10.4436 1.89182 10.4171C1.87899 10.3905 1.87532 10.3605 1.88138 10.3316C1.88745 10.3028 1.9029 10.2767 1.92533 10.2576L2.59973 9.68427L2.09093 9.9776C2.06229 9.9942 2.0285 9.99956 1.99613 9.99263C1.96377 9.98569 1.93513 9.96697 1.91581 9.94009C1.89648 9.91321 1.88784 9.88011 1.89158 9.84722C1.89531 9.81432 1.91114 9.784 1.936 9.76213L2.71307 9.0752L2.10667 9.42693C2.07769 9.44372 2.04346 9.44898 2.01078 9.44168C1.9781 9.43438 1.94936 9.41505 1.93028 9.38754C1.9112 9.36002 1.90317 9.32634 1.90778 9.29317C1.9124 9.26 1.92933 9.22979 1.9552 9.20853L2.47067 8.7832L2.11707 8.98667C2.08867 9.00293 2.05529 9.00818 2.02327 9.00142C1.99125 8.99466 1.96284 8.97636 1.94344 8.95001C1.92404 8.92366 1.91501 8.8911 1.91806 8.85852C1.92111 8.82594 1.93604 8.79562 1.96 8.77333L2.81333 7.9816L2.13333 8.37333C2.10458 8.38964 2.0708 8.39468 2.03855 8.38749C2.00629 8.38029 1.97785 8.36138 1.95875 8.3344C1.93965 8.30743 1.93125 8.27433 1.93518 8.24151C1.9391 8.20869 1.95508 8.1785 1.98 8.1568L2.58 7.6424L2.1448 7.89333C2.11546 7.91068 2.08059 7.91613 2.04736 7.90857C2.01413 7.901 1.98505 7.881 1.96611 7.85267C1.94716 7.82434 1.93979 7.78983 1.9455 7.75623C1.9512 7.72263 1.96956 7.69249 1.9968 7.672L2.10747 7.5872C2.08297 7.5911 2.05787 7.58819 2.03492 7.57879C2.01197 7.56938 1.99204 7.55384 1.97733 7.53387C1.95814 7.5067 1.94979 7.47333 1.95394 7.44032C1.95808 7.40731 1.97442 7.37705 1.99973 7.35547L2.54293 6.89173L2.16453 7.1104C2.13546 7.12747 2.10099 7.13288 2.06808 7.12556C2.03517 7.11824 2.00626 7.09872 1.98716 7.07094C1.96806 7.04315 1.9602 7.00916 1.96515 6.97581C1.97011 6.94247 1.98752 6.91223 2.01387 6.8912L2.33813 6.628L2.1744 6.72267C2.14494 6.73981 2.11002 6.74502 2.07684 6.73722C2.04365 6.72942 2.01472 6.70921 1.99597 6.68073C1.97723 6.65226 1.9701 6.61769 1.97606 6.58412C1.98202 6.55056 2.0006 6.52055 2.028 6.50027L3.68773 5.26267L2.18933 6.12747C2.15975 6.14527 2.12442 6.1509 2.09077 6.14318C2.05712 6.13546 2.02777 6.11499 2.00891 6.08607C1.99005 6.05716 1.98314 6.02205 1.98963 5.98814C1.99613 5.95423 2.01552 5.92417 2.04373 5.90427L3.5392 4.80827L1.98187 5.70667C1.95201 5.72436 1.91644 5.72971 1.8827 5.72159C1.84896 5.71348 1.81972 5.69252 1.80118 5.66319C1.78264 5.63386 1.77627 5.59845 1.78342 5.56449C1.79057 5.53053 1.81067 5.5007 1.83947 5.48133L2.71947 4.8776L1.4272 5.62373C1.39793 5.64079 1.36327 5.64606 1.33026 5.63849C1.29724 5.63091 1.26835 5.61106 1.24944 5.58295C1.23054 5.55485 1.22304 5.5206 1.22846 5.48716C1.23389 5.45373 1.25184 5.42361 1.27867 5.40293L2.11013 4.75733L0.996267 5.40053C0.966635 5.41771 0.931529 5.42283 0.898226 5.41483C0.864923 5.40682 0.835978 5.38631 0.817392 5.35754C0.798806 5.32876 0.792005 5.29395 0.798399 5.2603C0.804792 5.22665 0.82389 5.19675 0.851733 5.1768L1.29013 4.86107L0.746667 5.17467C0.717364 5.19186 0.682605 5.19721 0.649486 5.18964C0.616367 5.18207 0.587388 5.16215 0.568464 5.13393C0.549541 5.10572 0.542102 5.07134 0.547665 5.03783C0.553229 5.00431 0.571375 4.97419 0.5984 4.9536L1.81333 4.01413L0.487733 4.77973C0.459321 4.79731 0.425346 4.80357 0.392533 4.7973C0.35972 4.79102 0.330459 4.77265 0.310543 4.74582C0.290627 4.719 0.281506 4.68568 0.284986 4.65245C0.288466 4.61922 0.304292 4.58851 0.329333 4.5664L0.618133 4.29333L0.373333 4.43467C0.345392 4.45078 0.312557 4.45622 0.280913 4.44997C0.249269 4.44373 0.220962 4.42622 0.201236 4.4007C0.181511 4.37518 0.171704 4.34338 0.173635 4.31118C0.175565 4.27898 0.1891 4.24858 0.211733 4.2256L0.551467 3.88027L0.341333 4.0016C0.312921 4.01888 0.279079 4.02491 0.246445 4.01853C0.213811 4.01214 0.184742 3.99379 0.16494 3.96708C0.145138 3.94036 0.136033 3.90721 0.139412 3.87413C0.14279 3.84105 0.158407 3.81043 0.1832 3.78827L0.4008 3.58347L0.341333 3.6176C0.313424 3.6335 0.280712 3.63879 0.249212 3.6325C0.217711 3.62621 0.189541 3.60876 0.169881 3.58336C0.150221 3.55796 0.140392 3.52631 0.142202 3.49424C0.144012 3.46217 0.157339 3.43183 0.179733 3.4088L0.544267 3.0376L0.341333 3.15467C0.313392 3.17078 0.280557 3.17622 0.248913 3.16997C0.217269 3.16372 0.188962 3.14622 0.169236 3.1207C0.149511 3.09518 0.139704 3.06338 0.141635 3.03118C0.143565 2.99898 0.1571 2.96858 0.179733 2.9456L0.5392 2.58133L0.341333 2.69573C0.314012 2.71161 0.281939 2.71727 0.250834 2.7117C0.219729 2.70613 0.191614 2.68969 0.171501 2.66532C0.151388 2.64094 0.140585 2.61022 0.141018 2.57862C0.141452 2.54703 0.153093 2.51661 0.173867 2.4928L0.702667 1.88427L0.341333 2.0928C0.313475 2.10888 0.280743 2.11434 0.249172 2.10819C0.217602 2.10203 0.18932 2.08467 0.169541 2.05931C0.149762 2.03394 0.139819 2.00228 0.141545 1.97016C0.143271 1.93804 0.15655 1.90763 0.178933 1.88453L0.516533 1.53787L0.341333 1.63893C0.313881 1.65478 0.28168 1.66034 0.250505 1.65459C0.21933 1.64885 0.191221 1.63219 0.171219 1.6076C0.151217 1.583 0.140632 1.55209 0.141361 1.5204C0.142091 1.48871 0.154088 1.45831 0.1752 1.43467L0.485067 1.08533L0.371467 1.15093C0.344885 1.16631 0.313809 1.17205 0.283489 1.16717C0.253168 1.16228 0.225463 1.14708 0.205054 1.12414C0.184645 1.10119 0.172784 1.0719 0.171474 1.04121C0.170165 1.01053 0.179487 0.980337 0.197867 0.955733L0.461867 0.601866C0.440547 0.59091 0.422574 0.574409 0.409842 0.554101C0.397109 0.533792 0.390086 0.510426 0.389513 0.486463C0.38894 0.4625 0.394837 0.438825 0.406585 0.417931C0.418332 0.397036 0.435495 0.379695 0.456267 0.367733L0.7976 0.170666C0.824208 0.155159 0.855364 0.149342 0.885775 0.154201C0.916185 0.159061 0.943977 0.174298 0.964427 0.197325C0.984878 0.220351 0.996727 0.249747 0.997961 0.280519C0.999196 0.311291 0.98974 0.341542 0.9712 0.366133L0.8 0.595999L1.06667 0.441333C1.09412 0.425481 1.12632 0.419929 1.15749 0.425671C1.18867 0.431414 1.21678 0.448076 1.23678 0.472669C1.25678 0.497261 1.26737 0.528176 1.26664 0.559867C1.26591 0.591558 1.25391 0.621953 1.2328 0.645599L0.923733 0.993599L1.2112 0.826666C1.23906 0.810588 1.27179 0.805123 1.30336 0.811278C1.33493 0.817433 1.36321 0.834793 1.38299 0.860158C1.40277 0.885524 1.41271 0.917184 1.41099 0.949302C1.40926 0.981421 1.39598 1.01183 1.3736 1.03493L1.03653 1.3816L1.25867 1.25333C1.28599 1.23746 1.31806 1.2318 1.34917 1.23737C1.38027 1.24294 1.40839 1.25938 1.4285 1.28375C1.44861 1.30812 1.45941 1.33884 1.45898 1.37044C1.45855 1.40204 1.44691 1.43245 1.42613 1.45627L0.897333 2.06667L1.25867 1.85813C1.28661 1.84202 1.31944 1.83658 1.35109 1.84283C1.38273 1.84907 1.41104 1.86658 1.43076 1.8921C1.45049 1.91762 1.4603 1.94942 1.45837 1.98162C1.45644 2.01381 1.4429 2.04422 1.42027 2.0672L1.0608 2.43227L1.25867 2.31787C1.28661 2.30175 1.31944 2.29632 1.35109 2.30256C1.38273 2.30881 1.41104 2.32631 1.43076 2.35183C1.45049 2.37735 1.4603 2.40915 1.45837 2.44135C1.45644 2.47355 1.4429 2.50395 1.42027 2.52693L1.05547 2.89813L1.25867 2.78107C1.28708 2.76407 1.32079 2.75824 1.35326 2.76473C1.38573 2.77122 1.41462 2.78955 1.43431 2.81617C1.45401 2.84278 1.46309 2.87577 1.45981 2.90871C1.45652 2.94166 1.4411 2.9722 1.41653 2.9944L1.19947 3.19893L1.2688 3.15893C1.29671 3.14303 1.32942 3.13774 1.36092 3.14403C1.39242 3.15032 1.42059 3.16777 1.44025 3.19317C1.45991 3.21858 1.46974 3.25022 1.46793 3.28229C1.46612 3.31436 1.45279 3.3447 1.4304 3.36773L1.09013 3.7144L1.4608 3.50107C1.48921 3.48379 1.52305 3.47775 1.55569 3.48414C1.58832 3.49053 1.61739 3.50888 1.63719 3.53559C1.65699 3.5623 1.6661 3.59545 1.66272 3.62853C1.65934 3.66161 1.64373 3.69224 1.61893 3.7144L1.3304 3.98507L3.392 2.79493C3.42129 2.77812 3.45587 2.77305 3.48876 2.78074C3.52164 2.78844 3.55038 2.80833 3.56917 2.83639C3.58796 2.86446 3.5954 2.89861 3.58999 2.93195C3.58457 2.96528 3.56671 2.99532 3.54 3.016L2.32587 3.9552L3.45013 3.30667C3.47976 3.28949 3.51487 3.28437 3.54817 3.29237C3.58148 3.30038 3.61042 3.32089 3.62901 3.34966C3.64759 3.37843 3.65439 3.41325 3.648 3.4469C3.64161 3.48055 3.62251 3.51045 3.59467 3.5304L3.156 3.8464L3.66533 3.55307C3.6946 3.53601 3.72926 3.53074 3.76227 3.53831C3.79529 3.54589 3.82418 3.56574 3.84309 3.59385C3.862 3.62195 3.8695 3.6562 3.86407 3.68963C3.85864 3.72307 3.84069 3.75319 3.81387 3.77387L2.98213 4.41973L5.52533 2.95147C5.55516 2.93441 5.59043 2.92954 5.62376 2.93785C5.6571 2.94616 5.68594 2.96703 5.70428 2.99609C5.72261 3.02515 5.72901 3.06017 5.72215 3.09383C5.7153 3.1275 5.6957 3.15722 5.66747 3.1768L4.78747 3.7808L5.52427 3.35413C5.55379 3.33707 5.58873 3.33198 5.6219 3.33989C5.65507 3.3478 5.68395 3.36813 5.7026 3.39668C5.72124 3.42523 5.72824 3.45984 5.72216 3.49339C5.71607 3.52694 5.69736 3.55689 5.66987 3.57707L4.1744 4.6728L5.52373 3.89387C5.5532 3.87672 5.58811 3.87151 5.62129 3.87931C5.65448 3.88711 5.68342 3.90733 5.70216 3.9358C5.7209 3.96427 5.72803 3.99884 5.72207 4.03241C5.71612 4.06597 5.69753 4.09598 5.67013 4.11627L3.76 5.54187C3.7842 5.54763 3.8063 5.56004 3.8238 5.57771C3.84131 5.59537 3.85353 5.61758 3.85908 5.64183C3.86463 5.66607 3.86328 5.69139 3.8552 5.71491C3.84712 5.73843 3.83261 5.75922 3.81333 5.77493L3.48853 6.03867L3.67253 5.932C3.70132 5.91564 3.73515 5.91057 3.76746 5.91779C3.79977 5.925 3.82825 5.94397 3.84734 5.97101C3.86644 5.99806 3.87479 6.03124 3.87077 6.0641C3.86675 6.09696 3.85065 6.12715 3.8256 6.1488L3.28 6.61333L3.68187 6.38133C3.71119 6.36439 3.74587 6.35925 3.77885 6.36694C3.81184 6.37464 3.84066 6.3946 3.85946 6.42277C3.87826 6.45094 3.88564 6.48521 3.88009 6.51862C3.87455 6.55203 3.8565 6.58208 3.8296 6.60267L3.72987 6.6792C3.75885 6.67319 3.78901 6.67699 3.81559 6.69002C3.84218 6.70304 3.86367 6.72453 3.87669 6.75112C3.88971 6.77771 3.89351 6.80787 3.88749 6.83685C3.88148 6.86583 3.86599 6.89199 3.84347 6.9112L3.24373 7.42507L3.7024 7.16027C3.7308 7.14377 3.76429 7.13834 3.79645 7.14501C3.82861 7.15169 3.85717 7.16999 3.87667 7.19643C3.89616 7.22286 3.90521 7.25556 3.90209 7.28825C3.89896 7.32095 3.88388 7.35134 3.85973 7.3736L3.0064 8.1656L3.71707 7.7552C3.74601 7.7385 3.78017 7.73328 3.81278 7.74056C3.84539 7.74785 3.87408 7.76712 3.89316 7.79455C3.91224 7.82198 3.92032 7.85558 3.91581 7.88869C3.9113 7.9218 3.89452 7.95201 3.8688 7.97333L3.3528 8.4L3.72827 8.1832C3.75691 8.1666 3.7907 8.16124 3.82307 8.16817C3.85543 8.17511 3.88407 8.19383 3.90339 8.22071C3.92272 8.24759 3.93136 8.28069 3.92762 8.31358C3.92389 8.34648 3.90806 8.3768 3.8832 8.39867L3.1064 9.0856L3.7424 8.7184C3.77121 8.70198 3.80511 8.69689 3.83748 8.70412C3.86984 8.71135 3.89835 8.73038 3.91744 8.75749C3.93653 8.78461 3.94483 8.81787 3.94072 8.85078C3.9366 8.88369 3.92038 8.91388 3.8952 8.93547L3.22027 9.5088L3.756 9.2C3.78539 9.18316 3.82008 9.17814 3.85304 9.18595C3.886 9.19377 3.91475 9.21383 3.93345 9.24207C3.95215 9.27031 3.9594 9.30461 3.95374 9.338C3.94807 9.3714 3.92991 9.40138 3.90293 9.42187L3.7992 9.49973C3.82539 9.49362 3.85281 9.49543 3.87797 9.50492C3.90314 9.51442 3.92491 9.53118 3.94053 9.55307C3.95956 9.58083 3.96738 9.61475 3.96243 9.64804C3.95749 9.68132 3.94014 9.71151 3.91387 9.73253L3.416 10.1333L3.77493 9.92613C3.8043 9.90905 3.83908 9.90382 3.87216 9.91151C3.90525 9.9192 3.93416 9.93923 3.95298 9.96752C3.9718 9.9958 3.97912 10.0302 3.97343 10.0637C3.96775 10.0972 3.9495 10.1272 3.9224 10.1477L3.74107 10.2853L3.78347 10.2608C3.81208 10.244 3.84594 10.2384 3.87842 10.2453C3.9109 10.2521 3.93967 10.2708 3.95911 10.2977C3.97854 10.3246 3.98724 10.3578 3.98351 10.3907C3.97978 10.4237 3.96389 10.4541 3.93893 10.476L3.0416 11.272L3.79867 10.8352C3.82733 10.8188 3.86106 10.8136 3.89332 10.8207C3.92558 10.8277 3.95408 10.8465 3.9733 10.8733C3.99252 10.9002 4.00109 10.9332 3.99735 10.966C3.99361 10.9988 3.97783 11.0291 3.95307 11.0509L3.07307 11.8203L3.81387 11.3936C3.84259 11.3774 3.87631 11.3723 3.90852 11.3795C3.94072 11.3867 3.96913 11.4055 3.98823 11.4324C4.00734 11.4593 4.01579 11.4924 4.01196 11.5251C4.00812 11.5579 3.99227 11.5881 3.96747 11.6099L3.10933 12.3467L3.82747 11.932C3.85629 11.9153 3.89031 11.91 3.92285 11.9171C3.95538 11.9243 3.98407 11.9433 4.00326 11.9705C4.02246 11.9978 4.03077 12.0312 4.02656 12.0642C4.02236 12.0973 4.00594 12.1275 3.98053 12.1491L3.1296 12.8731L3.84133 12.4621C3.87009 12.4456 3.90399 12.4403 3.93641 12.4474C3.96883 12.4545 3.99743 12.4735 4.01664 12.5005C4.03584 12.5276 4.04425 12.5609 4.04024 12.5938C4.03623 12.6267 4.02007 12.657 3.99493 12.6787L3.0848 13.4603L3.85573 13.0155C3.8852 12.9983 3.92011 12.9931 3.95329 13.0009C3.98648 13.0087 4.01542 13.0289 4.03416 13.0574C4.0529 13.0859 4.06003 13.1204 4.05407 13.154C4.04812 13.1876 4.02953 13.2176 4.00213 13.2379L3.81947 13.3736L3.86453 13.3469C3.89344 13.3303 3.92753 13.3251 3.96008 13.3324C3.99262 13.3397 4.02126 13.3589 4.04034 13.3862C4.05943 13.4136 4.06756 13.4471 4.06316 13.4801C4.05875 13.5132 4.04211 13.5434 4.01653 13.5648L3.26987 14.1861L3.87813 13.8352C3.90727 13.8183 3.94174 13.813 3.97461 13.8204C4.00747 13.8279 4.0363 13.8475 4.05529 13.8753C4.07428 13.9032 4.08202 13.9372 4.07696 13.9705C4.0719 14.0038 4.0544 14.034 4.028 14.0549L3.64373 14.3605L3.88827 14.2195C3.91609 14.2036 3.94871 14.1983 3.98014 14.2045C4.01157 14.2107 4.03972 14.228 4.05943 14.2532C4.07915 14.2785 4.08911 14.31 4.0875 14.342C4.08589 14.374 4.07282 14.4043 4.05067 14.4275L3.41067 15.0883L3.8664 14.8253C3.88158 14.8157 3.89855 14.8092 3.91629 14.8063C3.93403 14.8034 3.95219 14.8041 3.96965 14.8084C3.98712 14.8126 4.00354 14.8204 4.01792 14.8312C4.03231 14.842 4.04437 14.8556 4.05337 14.8711C4.06237 14.8867 4.06812 14.9039 4.07029 14.9218C4.07246 14.9396 4.07099 14.9577 4.06598 14.975C4.06097 14.9923 4.05252 15.0084 4.04114 15.0223C4.02975 15.0362 4.01567 15.0477 3.99973 15.056L2.716 15.7973C2.69556 15.81 2.67203 15.8167 2.648 15.8168Z" fill="#A4BFC1"/>
<path d="M15.08 9.4624C15.0507 9.4623 15.0223 9.45257 14.9991 9.43472C14.9759 9.41686 14.9593 9.39188 14.9517 9.36361C14.9441 9.33534 14.946 9.30537 14.9572 9.27831C14.9683 9.25124 14.988 9.2286 15.0133 9.21386L15.6267 8.85893C15.6418 8.84928 15.6588 8.84281 15.6766 8.83989C15.6943 8.83697 15.7124 8.83767 15.7299 8.84195C15.7474 8.84623 15.7638 8.85399 15.7782 8.86478C15.7926 8.87557 15.8046 8.88916 15.8136 8.90473C15.8226 8.9203 15.8284 8.93752 15.8306 8.95538C15.8327 8.97323 15.8313 8.99133 15.8262 9.0086C15.8212 9.02587 15.8128 9.04195 15.8014 9.05587C15.79 9.06979 15.7759 9.08126 15.76 9.0896L15.1467 9.44453C15.1264 9.45631 15.1034 9.46247 15.08 9.4624Z" fill="#A4BFC1"/>
<path d="M14.3979 15.8477C14.3722 15.8478 14.3472 15.8404 14.3256 15.8265C14.3041 15.8127 14.287 15.7929 14.2764 15.7696C14.2658 15.7463 14.2621 15.7204 14.2658 15.695C14.2695 15.6697 14.2805 15.646 14.2973 15.6267L14.564 15.3224L13.8768 15.7189C13.8488 15.7343 13.8163 15.7391 13.785 15.7325C13.7538 15.7259 13.726 15.7084 13.7066 15.683C13.6872 15.6576 13.6776 15.6261 13.6795 15.5943C13.6814 15.5624 13.6946 15.5323 13.7168 15.5093L14.3621 14.8629L13.5227 15.3467C13.4943 15.3627 13.461 15.3678 13.4291 15.3609C13.3972 15.3541 13.369 15.3358 13.3497 15.3095C13.3304 15.2833 13.3213 15.2508 13.3243 15.2184C13.3273 15.1859 13.3421 15.1556 13.3659 15.1333L14.1549 14.4101L13.4083 14.8411C13.3789 14.8579 13.3442 14.8629 13.3112 14.8551C13.2783 14.8473 13.2495 14.8272 13.2308 14.799C13.2121 14.7708 13.2049 14.7365 13.2105 14.7031C13.2162 14.6697 13.2344 14.6397 13.2613 14.6192L13.3584 14.5464C13.3295 14.5501 13.3001 14.5441 13.2749 14.5295C13.2497 14.515 13.2299 14.4925 13.2186 14.4656C13.2074 14.4387 13.2053 14.4088 13.2126 14.3806C13.2199 14.3524 13.2363 14.3274 13.2592 14.3093L13.5728 14.0619L13.4083 14.1571C13.3795 14.1735 13.3456 14.1786 13.3132 14.1713C13.2808 14.1641 13.2523 14.1451 13.2332 14.118C13.2141 14.0908 13.2058 14.0576 13.2099 14.0247C13.2141 13.9918 13.2303 13.9616 13.2555 13.94L13.8755 13.4133L13.408 13.6835C13.3789 13.7003 13.3445 13.7055 13.3117 13.6981C13.2789 13.6906 13.2502 13.6711 13.2312 13.6433C13.2122 13.6156 13.2044 13.5817 13.2094 13.5484C13.2143 13.5152 13.2316 13.485 13.2579 13.464L13.6312 13.164L13.4077 13.2931C13.3785 13.31 13.3439 13.3152 13.311 13.3076C13.2781 13.3 13.2493 13.2803 13.2304 13.2523C13.2115 13.2243 13.2039 13.1901 13.2092 13.1568C13.2145 13.1234 13.2323 13.0933 13.2589 13.0725L13.4792 12.9003L13.4077 12.9413C13.3794 12.9569 13.3463 12.9617 13.3147 12.9547C13.283 12.9477 13.255 12.9294 13.2359 12.9033C13.2168 12.8772 13.2078 12.845 13.2107 12.8127C13.2135 12.7805 13.228 12.7503 13.2515 12.728L14.0163 12.0347L13.408 12.3851C13.3792 12.4012 13.3454 12.4061 13.3132 12.3988C13.281 12.3915 13.2527 12.3725 13.2337 12.3454C13.2147 12.3184 13.2064 12.2853 13.2104 12.2525C13.2145 12.2197 13.2305 12.1896 13.2555 12.168L13.7792 11.7256L13.408 11.9389C13.3796 11.9545 13.3465 11.9593 13.3149 11.9523C13.2833 11.9453 13.2553 11.927 13.2362 11.9009C13.217 11.8748 13.2081 11.8426 13.2109 11.8103C13.2138 11.7781 13.2283 11.7479 13.2517 11.7256L13.9717 11.072L13.408 11.3979C13.3794 11.4141 13.3459 11.4192 13.3137 11.4123C13.2816 11.4053 13.2532 11.3867 13.234 11.36C13.2147 11.3334 13.206 11.3006 13.2095 11.2679C13.213 11.2352 13.2284 11.2049 13.2528 11.1829L13.8899 10.6176L13.408 10.8957C13.3789 10.9123 13.3446 10.9174 13.3119 10.9098C13.2792 10.9022 13.2506 10.8827 13.2317 10.8549C13.2129 10.8272 13.2051 10.7934 13.2101 10.7603C13.215 10.7271 13.2323 10.697 13.2584 10.676L13.456 10.5189L13.408 10.5456C13.3785 10.5625 13.3437 10.5675 13.3106 10.5596C13.2776 10.5516 13.2488 10.5314 13.2302 10.503C13.2116 10.4745 13.2045 10.4401 13.2104 10.4066C13.2164 10.3731 13.2349 10.3432 13.2621 10.3229L13.7373 9.97333L13.408 10.1632C13.379 10.1795 13.345 10.1843 13.3126 10.1768C13.2802 10.1693 13.2518 10.15 13.2329 10.1226C13.2141 10.0952 13.2061 10.0618 13.2106 10.0288C13.2151 9.99589 13.2318 9.96582 13.2573 9.94453L14.3365 9.06826L13.408 9.60426C13.379 9.62123 13.3446 9.62659 13.3117 9.61927C13.2789 9.61196 13.2501 9.5925 13.231 9.56481C13.2119 9.53712 13.204 9.50324 13.2088 9.46995C13.2136 9.43667 13.2309 9.40644 13.2571 9.38533L14.3592 8.48586L13.408 9.0352C13.3785 9.05209 13.3437 9.05708 13.3106 9.04916C13.2776 9.04124 13.2488 9.02099 13.2302 8.99257C13.2116 8.96414 13.2045 8.92967 13.2104 8.89621C13.2164 8.86275 13.2349 8.83282 13.2621 8.81253L13.7488 8.45333L13.408 8.65013C13.3783 8.66726 13.3432 8.67228 13.3098 8.66417C13.2765 8.65606 13.2476 8.63543 13.2291 8.60657C13.2106 8.57771 13.204 8.54283 13.2105 8.50918C13.2171 8.47553 13.2363 8.44569 13.2643 8.42586L13.3659 8.35386C13.3363 8.35943 13.3057 8.35483 13.2791 8.34081C13.2525 8.32679 13.2313 8.30418 13.2192 8.27664C13.2071 8.24911 13.2046 8.21828 13.2122 8.18916C13.2198 8.16004 13.237 8.13435 13.2611 8.11626L13.8795 7.652L13.408 7.924C13.3791 7.94062 13.345 7.94581 13.3125 7.93853C13.2799 7.93126 13.2513 7.91205 13.2322 7.8847C13.2131 7.85735 13.205 7.82384 13.2094 7.79079C13.2138 7.75773 13.2304 7.72753 13.256 7.70613L14.4451 6.71547L13.408 7.3136C13.3785 7.33093 13.3435 7.33625 13.3101 7.32847C13.2768 7.32068 13.2478 7.30039 13.229 7.27179C13.2102 7.24318 13.2032 7.20845 13.2093 7.17479C13.2154 7.14113 13.2342 7.1111 13.2619 7.09093L13.7685 6.7176L13.4093 6.92506C13.3798 6.94239 13.3448 6.94772 13.3115 6.93993C13.2782 6.93215 13.2491 6.91186 13.2303 6.88325C13.2116 6.85465 13.2045 6.81992 13.2106 6.78626C13.2167 6.75259 13.2356 6.72257 13.2632 6.7024L13.7915 6.31013L13.4093 6.53066C13.38 6.54725 13.3455 6.55213 13.3127 6.54432C13.28 6.53651 13.2514 6.51658 13.2327 6.48855C13.214 6.46052 13.2067 6.42646 13.2121 6.39321C13.2175 6.35996 13.2353 6.33 13.2619 6.30933L14.0117 5.73333L13.408 6.08213C13.3784 6.09938 13.3434 6.1046 13.3101 6.0967C13.2768 6.08881 13.2478 6.0684 13.2291 6.03972C13.2104 6.01103 13.2035 5.97626 13.2097 5.94261C13.216 5.90895 13.2349 5.87899 13.2627 5.85893L13.6179 5.6L13.408 5.72133C13.3787 5.73827 13.344 5.74342 13.311 5.73572C13.278 5.72803 13.2492 5.70807 13.2304 5.6799C13.2116 5.65173 13.2042 5.61746 13.2098 5.58405C13.2153 5.55063 13.2334 5.52058 13.2603 5.5L14.0352 4.90506L13.408 5.26693C13.3787 5.2833 13.3442 5.288 13.3116 5.28007C13.2789 5.27215 13.2505 5.25219 13.2319 5.22418C13.2133 5.19618 13.206 5.1622 13.2114 5.12904C13.2168 5.09588 13.2346 5.06598 13.2611 5.04533L13.9437 4.52773L13.408 4.83706C13.3788 4.85355 13.3445 4.85845 13.3119 4.85077C13.2792 4.84308 13.2507 4.82339 13.2319 4.79562C13.2132 4.76784 13.2055 4.73401 13.2106 4.70088C13.2157 4.66774 13.233 4.63772 13.2592 4.6168L14.1392 3.92613L13.408 4.34666C13.3789 4.3636 13.3444 4.36888 13.3115 4.36143C13.2787 4.35398 13.2498 4.33436 13.2308 4.30652C13.2119 4.27868 13.2041 4.24468 13.2092 4.21136C13.2142 4.17804 13.2317 4.14788 13.2581 4.12693L14.1648 3.4016L13.408 3.84C13.3791 3.85655 13.3451 3.8617 13.3126 3.85444C13.2801 3.84718 13.2515 3.82803 13.2325 3.80076C13.2134 3.77349 13.2052 3.74007 13.2095 3.70706C13.2138 3.67406 13.2303 3.64386 13.2557 3.6224L14.236 2.8L13.4093 3.27813C13.3806 3.29485 13.3467 3.30025 13.3143 3.29328C13.2818 3.28631 13.2531 3.26747 13.2338 3.24045C13.2144 3.21343 13.2059 3.18018 13.2098 3.14719C13.2137 3.11421 13.2298 3.08388 13.2549 3.06213L14.1648 2.26666L13.408 2.70426C13.3796 2.71968 13.3466 2.72427 13.3151 2.7172C13.2836 2.71013 13.2558 2.69187 13.2367 2.66581C13.2177 2.63975 13.2087 2.60766 13.2115 2.5755C13.2143 2.54334 13.2287 2.51329 13.252 2.49093L13.9971 1.81867L13.4077 2.16C13.3787 2.17687 13.3444 2.18218 13.3117 2.17487C13.2789 2.16756 13.2501 2.14817 13.231 2.12057C13.212 2.09297 13.204 2.05918 13.2087 2.02596C13.2134 1.99274 13.2305 1.96252 13.2565 1.94133L13.476 1.76107L13.4077 1.80053C13.3789 1.81716 13.345 1.82243 13.3125 1.81532C13.28 1.8082 13.2514 1.78921 13.2322 1.76206C13.213 1.73492 13.2046 1.70158 13.2087 1.66859C13.2128 1.6356 13.2291 1.60534 13.2544 1.58373L13.3877 1.46933C13.3605 1.47959 13.3307 1.48068 13.3029 1.47244C13.275 1.4642 13.2506 1.44707 13.2333 1.42367C13.2161 1.40027 13.207 1.37187 13.2073 1.34281C13.2077 1.31374 13.2176 1.2856 13.2355 1.26267L13.5616 0.842398L13.4075 0.931465C13.3818 0.946386 13.3519 0.952324 13.3225 0.948337C13.2931 0.944351 13.2659 0.930668 13.2451 0.909456C13.2244 0.888244 13.2113 0.860715 13.2079 0.831229C13.2046 0.801742 13.2112 0.771984 13.2267 0.746665L13.3232 0.583465C13.2975 0.576958 13.2743 0.562919 13.2566 0.543146C13.2389 0.523372 13.2275 0.498764 13.2238 0.472472C13.2202 0.44618 13.2245 0.419401 13.2361 0.395563C13.2478 0.371725 13.2663 0.351914 13.2893 0.338665L13.5901 0.165332C13.6157 0.15048 13.6454 0.144529 13.6747 0.148413C13.704 0.152297 13.7311 0.165796 13.7519 0.186791C13.7727 0.207786 13.7859 0.235088 13.7895 0.264411C13.7931 0.293733 13.7868 0.323416 13.7717 0.348798L13.7144 0.445598L14.0171 0.270665C14.0439 0.254999 14.0753 0.249164 14.1059 0.254167C14.1365 0.259169 14.1644 0.274695 14.1848 0.298071C14.2052 0.321446 14.2169 0.351206 14.2177 0.382224C14.2185 0.413242 14.2085 0.443575 14.1893 0.467998L13.8632 0.888265L14.5005 0.520265C14.5293 0.503637 14.5633 0.498365 14.5958 0.505481C14.6282 0.512598 14.6569 0.53159 14.6761 0.558733C14.6953 0.585876 14.7036 0.619212 14.6995 0.652203C14.6954 0.685194 14.6791 0.71546 14.6539 0.737065L14.5277 0.843732L14.7448 0.718398C14.7738 0.701529 14.8081 0.696218 14.8409 0.703527C14.8736 0.710836 14.9024 0.730226 14.9215 0.757828C14.9406 0.78543 14.9486 0.819213 14.9438 0.852437C14.9391 0.88566 14.922 0.91588 14.896 0.937065L14.6768 1.11707L14.9613 0.952798C14.9897 0.937387 15.0227 0.932791 15.0542 0.939864C15.0857 0.946936 15.1136 0.965196 15.1326 0.991255C15.1517 1.01731 15.1606 1.0494 15.1578 1.08156C15.155 1.11372 15.1406 1.14377 15.1173 1.16613L14.3733 1.84L15.2213 1.34907C15.25 1.33235 15.2839 1.32695 15.3164 1.33391C15.3489 1.34088 15.3776 1.35972 15.3969 1.38674C15.4162 1.41376 15.4248 1.44702 15.4208 1.48C15.4169 1.51299 15.4008 1.54332 15.3757 1.56507L14.4643 2.35973L15.4229 1.80613C15.4518 1.78958 15.4858 1.78443 15.5183 1.79169C15.5508 1.79895 15.5794 1.8181 15.5985 1.84537C15.6176 1.87264 15.6258 1.90606 15.6214 1.93907C15.6171 1.97207 15.6006 2.00227 15.5752 2.02373L14.5944 2.84667L15.5565 2.29147C15.5857 2.27453 15.6201 2.26925 15.653 2.2767C15.6859 2.28415 15.7147 2.30377 15.7337 2.33161C15.7527 2.35945 15.7604 2.39345 15.7554 2.42677C15.7503 2.46009 15.7328 2.49025 15.7064 2.5112L14.7997 3.23626L15.628 2.75813C15.6572 2.74132 15.6917 2.73618 15.7245 2.74375C15.7573 2.75133 15.7861 2.77104 15.805 2.79895C15.8238 2.82685 15.8315 2.86086 15.8263 2.89416C15.8211 2.92745 15.8035 2.95754 15.7771 2.9784L14.8971 3.6688L15.6549 3.2312C15.6843 3.21396 15.7192 3.20863 15.7524 3.21631C15.7856 3.224 15.8146 3.2441 15.8335 3.2725C15.8523 3.3009 15.8596 3.33544 15.8537 3.36902C15.8479 3.4026 15.8294 3.43268 15.8021 3.45307L15.12 3.97066L15.6584 3.65973C15.6877 3.64325 15.7221 3.63844 15.7548 3.64625C15.7875 3.65405 15.816 3.67391 15.8347 3.70184C15.8533 3.72978 15.8608 3.76373 15.8555 3.79691C15.8502 3.83009 15.8326 3.86005 15.8061 3.8808L15.0312 4.476L15.6584 4.11386C15.688 4.09572 15.7236 4.08985 15.7574 4.09751C15.7913 4.10517 15.8209 4.12575 15.8398 4.15487C15.8588 4.18399 15.8656 4.21935 15.8588 4.25343C15.8521 4.28751 15.8323 4.31761 15.8037 4.33733L15.4485 4.596L15.6584 4.47467C15.6877 4.45808 15.7222 4.4532 15.755 4.46101C15.7878 4.46882 15.8163 4.48875 15.835 4.51678C15.8537 4.54481 15.8611 4.57887 15.8557 4.61212C15.8503 4.64537 15.8325 4.67533 15.8059 4.696L15.0547 5.2712L15.6584 4.9224C15.6879 4.90507 15.7229 4.89975 15.7563 4.90753C15.7896 4.91531 15.8186 4.93561 15.8374 4.96421C15.8562 4.99282 15.8632 5.02754 15.8571 5.06121C15.851 5.09487 15.8322 5.12489 15.8045 5.14506L15.2763 5.53733L15.6584 5.3168C15.6879 5.29947 15.7229 5.29415 15.7563 5.30193C15.7896 5.30971 15.8186 5.33001 15.8374 5.35861C15.8562 5.38722 15.8632 5.42194 15.8571 5.45561C15.851 5.48927 15.8322 5.51929 15.8045 5.53946L15.2979 5.9128L15.6587 5.70666C15.6876 5.68965 15.7219 5.68419 15.7547 5.69137C15.7875 5.69855 15.8164 5.71785 15.8356 5.7454C15.8548 5.77295 15.8629 5.80672 15.8583 5.83998C15.8537 5.87324 15.8367 5.90353 15.8107 5.9248L14.6216 6.91546L15.6587 6.3168C15.6881 6.29938 15.7231 6.29394 15.7564 6.30161C15.7898 6.30928 15.8189 6.32946 15.8378 6.35799C15.8566 6.38652 15.8638 6.42121 15.8578 6.45489C15.8519 6.48857 15.8331 6.51865 15.8056 6.53893L15.1872 7.00293L15.6587 6.73093C15.6884 6.71381 15.7235 6.70878 15.7568 6.71689C15.7901 6.725 15.819 6.74563 15.8375 6.77449C15.856 6.80335 15.8627 6.83823 15.8562 6.87188C15.8496 6.90553 15.8304 6.93537 15.8024 6.9552L15.7008 7.0272C15.7266 7.02277 15.7532 7.02588 15.7773 7.03614C15.8014 7.0464 15.8221 7.06338 15.8368 7.08506C15.8555 7.11355 15.8625 7.14809 15.8565 7.18161C15.8505 7.21513 15.8319 7.24509 15.8045 7.26533L15.3184 7.624L15.6587 7.42773C15.6877 7.41117 15.7218 7.40609 15.7544 7.4135C15.787 7.42092 15.8156 7.44028 15.8345 7.46777C15.8535 7.49526 15.8615 7.52886 15.8568 7.56194C15.8522 7.59501 15.8354 7.62516 15.8096 7.6464L14.7067 8.54666L15.6587 7.99706C15.6877 7.98042 15.7219 7.9753 15.7546 7.98272C15.7872 7.99015 15.8159 8.00958 15.8348 8.03715C15.8538 8.06472 15.8617 8.09841 15.857 8.13155C15.8523 8.16468 15.8353 8.19483 15.8093 8.216L14.7301 9.09333L15.6587 8.55733C15.6882 8.54044 15.723 8.53545 15.756 8.54337C15.7891 8.55129 15.8179 8.57154 15.8365 8.59996C15.8551 8.62839 15.8622 8.66286 15.8562 8.69632C15.8503 8.72978 15.8318 8.75971 15.8045 8.78L14.992 9.37866C15.0183 9.38836 15.0409 9.40597 15.0568 9.42906C15.0758 9.45682 15.0836 9.49075 15.0787 9.52403C15.0738 9.55732 15.0564 9.5875 15.0301 9.60853L14.8312 9.76666L14.8963 9.72906C14.9249 9.71251 14.9586 9.70718 14.9909 9.71409C15.0232 9.721 15.0518 9.73968 15.0712 9.76648C15.0905 9.79329 15.0992 9.82632 15.0956 9.85917C15.0919 9.89202 15.0762 9.92235 15.0515 9.94426L14.4141 10.5093L14.9187 10.2179C14.947 10.2023 14.9801 10.1975 15.0118 10.2045C15.0434 10.2115 15.0714 10.2298 15.0905 10.2559C15.1096 10.282 15.1186 10.3142 15.1158 10.3465C15.1129 10.3787 15.0984 10.4089 15.0749 10.4312L14.3549 11.0843L14.9432 10.7467C14.972 10.7305 15.0058 10.7256 15.038 10.7329C15.0702 10.7403 15.0985 10.7593 15.1175 10.7863C15.1365 10.8133 15.1448 10.8464 15.1408 10.8792C15.1368 10.912 15.1207 10.9421 15.0957 10.9637L14.5715 11.4067L14.9635 11.1805C14.9918 11.1649 15.0249 11.1602 15.0566 11.1672C15.0882 11.1742 15.1162 11.1924 15.1353 11.2186C15.1544 11.2447 15.1634 11.2769 15.1606 11.3091C15.1577 11.3414 15.1432 11.3715 15.1197 11.3939L14.3552 12.0872L14.9888 11.7216C15.018 11.7048 15.0525 11.6996 15.0853 11.7072C15.1181 11.7148 15.1469 11.7345 15.1658 11.7624C15.1846 11.7903 15.1923 11.8243 15.1871 11.8576C15.1819 11.8909 15.1643 11.921 15.1379 11.9419L14.9165 12.1152L15.0051 12.064C15.0342 12.0472 15.0686 12.0419 15.1013 12.0494C15.1341 12.0568 15.1629 12.0764 15.1819 12.1041C15.2009 12.1319 15.2087 12.1658 15.2037 12.199C15.1988 12.2323 15.1814 12.2624 15.1552 12.2835L14.7819 12.5827L15.0219 12.444C15.0507 12.4276 15.0846 12.4225 15.1169 12.4297C15.1493 12.4369 15.1778 12.456 15.1969 12.4831C15.216 12.5102 15.2243 12.5435 15.2202 12.5764C15.2161 12.6093 15.1998 12.6395 15.1747 12.6611L14.5549 13.1867L15.0432 12.9051C15.0724 12.8884 15.1068 12.8833 15.1395 12.8908C15.1722 12.8984 15.2009 12.9181 15.2198 12.9459C15.2387 12.9737 15.2464 13.0076 15.2413 13.0408C15.2362 13.074 15.2188 13.1041 15.1925 13.1251L14.8781 13.3728L15.0603 13.2677C15.0896 13.2512 15.1242 13.2465 15.1569 13.2544C15.1896 13.2623 15.2182 13.2824 15.2367 13.3105C15.2553 13.3386 15.2626 13.3727 15.257 13.4059C15.2515 13.4391 15.2336 13.469 15.2069 13.4896L15.1203 13.5547C15.1445 13.5512 15.1692 13.5543 15.1919 13.5636C15.2145 13.573 15.2342 13.5884 15.2488 13.608C15.2682 13.6345 15.2771 13.6672 15.2739 13.6999C15.2706 13.7326 15.2554 13.7629 15.2312 13.7851L14.4432 14.5067L15.1013 14.1269C15.1293 14.1116 15.1619 14.1067 15.1931 14.1133C15.2243 14.1199 15.2522 14.1375 15.2715 14.1629C15.2909 14.1883 15.3005 14.2197 15.2986 14.2516C15.2968 14.2835 15.2835 14.3136 15.2613 14.3365L14.616 14.9829L15.124 14.6896C15.1513 14.6737 15.1834 14.6681 15.2146 14.6737C15.2457 14.6793 15.2738 14.6958 15.2939 14.7202C15.314 14.7446 15.3247 14.7754 15.3242 14.807C15.3238 14.8386 15.312 14.869 15.2912 14.8928L14.9901 15.2373C15.0194 15.2374 15.0478 15.2472 15.071 15.265C15.0942 15.2829 15.1109 15.3079 15.1185 15.3361C15.126 15.3644 15.1241 15.3944 15.113 15.4214C15.1018 15.4485 15.0821 15.4711 15.0568 15.4859L14.4629 15.8288C14.4433 15.8407 14.4208 15.8473 14.3979 15.8477Z" fill="#A4BFC1"/>
<path d="M7.948 11.8421C7.91963 11.8421 7.89201 11.8331 7.86914 11.8163C7.84627 11.7995 7.82936 11.7758 7.82085 11.7488C7.81234 11.7217 7.81269 11.6926 7.82184 11.6658C7.83099 11.6389 7.84847 11.6157 7.87173 11.5995L9.0016 10.8101L7.42613 11.7195C7.39614 11.7362 7.36084 11.7408 7.32757 11.7322C7.29431 11.7235 7.26566 11.7024 7.24761 11.6732C7.22955 11.6439 7.22348 11.6089 7.23065 11.5752C7.23783 11.5416 7.25771 11.5121 7.28613 11.4928L7.69067 11.2267L7.0552 11.5933C7.02528 11.6101 6.99005 11.6147 6.95682 11.6062C6.9236 11.5976 6.89495 11.5766 6.87682 11.5475C6.85869 11.5184 6.85247 11.4834 6.85947 11.4498C6.86647 11.4162 6.88615 11.3866 6.9144 11.3672L8.3544 10.4005L6.63573 11.3928C6.62089 11.4021 6.60435 11.4083 6.58709 11.4112C6.56982 11.4141 6.55215 11.4136 6.53509 11.4097C6.50063 11.4017 6.47074 11.3804 6.452 11.3504C6.43326 11.3204 6.4272 11.2842 6.43515 11.2498C6.4431 11.2153 6.46441 11.1854 6.4944 11.1667L8.40933 9.87787L6.23813 11.1312C6.20819 11.1486 6.17267 11.1536 6.13908 11.1452C6.10549 11.1369 6.07647 11.1158 6.05815 11.0864C6.03983 11.057 6.03365 11.0217 6.04091 10.9879C6.04817 10.954 6.06831 10.9243 6.09707 10.9051L8.34667 9.392L5.87973 10.816C5.84957 10.8345 5.81331 10.8402 5.77893 10.8319C5.74455 10.8236 5.71486 10.802 5.6964 10.7719C5.67794 10.7417 5.67222 10.7054 5.6805 10.6711C5.68877 10.6367 5.71037 10.607 5.74053 10.5885L6.90667 9.83493L5.65067 10.56C5.62063 10.5771 5.58513 10.5818 5.55166 10.5732C5.51819 10.5647 5.48935 10.5434 5.47123 10.514C5.45312 10.4846 5.44713 10.4493 5.45454 10.4155C5.46194 10.3818 5.48216 10.3522 5.51093 10.3331L7.3672 9.11467L5.41893 10.24C5.38915 10.2562 5.35431 10.2604 5.32152 10.2518C5.28872 10.2432 5.26043 10.2225 5.24239 10.1938C5.22436 10.1651 5.21793 10.1306 5.22442 10.0973C5.23091 10.064 5.24983 10.0345 5.27733 10.0147L8 8.16213L5.1768 9.792C5.14683 9.80905 5.11143 9.81382 5.07801 9.80532C5.0446 9.79683 5.01578 9.77572 4.99759 9.74642C4.97941 9.71713 4.97328 9.68193 4.98049 9.64822C4.9877 9.6145 5.00769 9.58489 5.03627 9.5656L7.2648 8.08L5.0216 9.37493C4.99183 9.39133 4.95693 9.39574 4.92402 9.38726C4.89111 9.37879 4.86268 9.35807 4.84454 9.32934C4.82639 9.30061 4.8199 9.26603 4.8264 9.23267C4.83289 9.19932 4.85187 9.1697 4.87947 9.14987L7.49893 7.3504L4.90667 8.8472C4.87672 8.86456 4.8412 8.86959 4.80761 8.86123C4.77402 8.85287 4.745 8.83178 4.72668 8.80241C4.70836 8.77305 4.70218 8.73771 4.70944 8.70386C4.71671 8.67002 4.73684 8.64033 4.7656 8.62107L6.7088 7.31253L4.87573 8.37093C4.84601 8.3878 4.81095 8.3926 4.77779 8.38436C4.74463 8.37613 4.7159 8.35547 4.69752 8.32666C4.67915 8.29785 4.67254 8.26309 4.67905 8.22954C4.68557 8.196 4.70471 8.16624 4.73253 8.1464L6.89707 6.6264L4.93333 7.76C4.90366 7.77741 4.86841 7.78268 4.83494 7.77471C4.80147 7.76673 4.77238 7.74613 4.75375 7.7172C4.73512 7.68828 4.7284 7.65327 4.73498 7.6195C4.74156 7.58573 4.76094 7.55581 4.78907 7.536L6.46187 6.34107L5.116 7.11733C5.08608 7.13506 5.05041 7.1404 5.0166 7.1322C4.9828 7.124 4.95354 7.10292 4.93507 7.07345C4.91659 7.04398 4.91036 7.00845 4.91771 6.97445C4.92506 6.94046 4.9454 6.91068 4.9744 6.89147L5.27067 6.6912C5.24766 6.69264 5.22466 6.68815 5.20388 6.67816C5.1831 6.66817 5.16524 6.65301 5.152 6.63413C5.13297 6.60669 5.12494 6.57311 5.12948 6.54002C5.13402 6.50694 5.15081 6.47677 5.17653 6.45547L5.97333 5.79707C5.94573 5.79337 5.91997 5.78113 5.89968 5.76205C5.87938 5.74297 5.86558 5.71801 5.86019 5.69068C5.85481 5.66335 5.85812 5.63502 5.86966 5.60967C5.8812 5.58432 5.90039 5.56322 5.92453 5.54933L7.0912 4.87573C7.12018 4.85895 7.15441 4.85369 7.18709 4.86099C7.21977 4.86829 7.2485 4.88761 7.26759 4.91513C7.28667 4.94264 7.2947 4.97633 7.29008 5.0095C7.28547 5.04266 7.26854 5.07288 7.24267 5.09413L6.5744 5.6464L8.22507 4.69333C8.25497 4.6763 8.29029 4.67148 8.32366 4.67988C8.35703 4.68829 8.38586 4.70928 8.40411 4.73845C8.42237 4.76762 8.42864 4.80272 8.42161 4.83641C8.41458 4.8701 8.3948 4.89976 8.3664 4.9192L8.2272 5.0136L8.71493 4.732C8.74455 4.71526 8.77944 4.71048 8.81247 4.71863C8.84549 4.72677 8.87416 4.74723 8.89259 4.77582C8.91103 4.80441 8.91784 4.83897 8.91163 4.87241C8.90542 4.90586 8.88667 4.93566 8.8592 4.95573L7.18693 6.15013L9.3624 4.89413C9.39214 4.87676 9.42745 4.87157 9.46093 4.87965C9.49441 4.88773 9.52346 4.90845 9.54201 4.93748C9.56055 4.9665 9.56715 5.00157 9.56041 5.03535C9.55367 5.06912 9.53413 5.09898 9.50587 5.11867L7.34053 6.63867L9.91867 5.15013C9.94865 5.13139 9.98486 5.12533 10.0193 5.13328C10.0538 5.14123 10.0837 5.16255 10.1024 5.19253C10.1211 5.22252 10.1272 5.25873 10.1193 5.29318C10.1113 5.32764 10.09 5.35753 10.06 5.37627L8.11707 6.68453L10.3155 5.41547C10.3453 5.39842 10.3806 5.39354 10.4139 5.40185C10.4472 5.41017 10.4761 5.43103 10.4944 5.46009C10.5127 5.48915 10.5191 5.52417 10.5123 5.55784C10.5054 5.5915 10.4858 5.62123 10.4576 5.6408L7.83733 7.44133L10.7139 5.78053C10.7438 5.76349 10.7792 5.75871 10.8127 5.76721C10.8461 5.77571 10.8749 5.79682 10.8931 5.82611C10.9113 5.8554 10.9174 5.8906 10.9102 5.92432C10.903 5.95803 10.883 5.98764 10.8544 6.00693L8.62427 7.49333L10.9976 6.12267C11.0275 6.10494 11.0632 6.0996 11.097 6.1078C11.1308 6.116 11.1601 6.13709 11.1785 6.16656C11.197 6.19603 11.2032 6.23155 11.1959 6.26555C11.1885 6.29954 11.1682 6.32932 11.1392 6.34853L8.4176 8.20053L11.2667 6.55573C11.2967 6.53866 11.3322 6.53391 11.3657 6.54249C11.3991 6.55107 11.428 6.57231 11.4461 6.60174C11.4642 6.63116 11.4702 6.66647 11.4628 6.70022C11.4554 6.73397 11.4352 6.76353 11.4064 6.78267L9.55147 8L11.4288 6.916C11.459 6.89754 11.4952 6.89182 11.5296 6.9001C11.564 6.90837 11.5937 6.92997 11.6121 6.96013C11.6306 6.9903 11.6363 7.02656 11.628 7.06094C11.6198 7.09532 11.5982 7.12501 11.568 7.14347L10.4 7.8984L11.5381 7.24133C11.568 7.22479 11.6031 7.22033 11.6362 7.22889C11.6692 7.23745 11.6977 7.25837 11.7158 7.28734C11.7339 7.31631 11.7402 7.35111 11.7334 7.38458C11.7266 7.41804 11.7072 7.44762 11.6792 7.4672L9.43173 8.98133L11.6299 7.712C11.6599 7.69326 11.6961 7.6872 11.7305 7.69515C11.765 7.7031 11.7949 7.72441 11.8136 7.7544C11.8323 7.78439 11.8384 7.82059 11.8305 7.85505C11.8225 7.88951 11.8012 7.91939 11.7712 7.93813L9.8544 9.22827L11.6576 8.18827C11.6875 8.17149 11.7228 8.1669 11.756 8.17543C11.7892 8.18397 11.8179 8.20498 11.836 8.2341C11.8541 8.26322 11.8603 8.2982 11.8533 8.33178C11.8463 8.36536 11.8267 8.39495 11.7984 8.4144L10.3584 9.38L11.6213 8.65093C11.6513 8.63463 11.6864 8.63043 11.7193 8.6392C11.7523 8.64797 11.7807 8.66904 11.7986 8.69808C11.8165 8.72712 11.8226 8.76192 11.8156 8.79531C11.8086 8.8287 11.7891 8.85815 11.7611 8.8776L11.3587 9.1416L11.5427 9.03493C11.5724 9.01785 11.6076 9.01291 11.641 9.02112C11.6743 9.02933 11.7031 9.05008 11.7215 9.07904C11.74 9.108 11.7465 9.14294 11.7398 9.17659C11.7331 9.21025 11.7137 9.24003 11.6856 9.25973L10.5547 10.0501L11.3395 9.5968C11.3688 9.58009 11.4034 9.57515 11.4363 9.58296C11.4691 9.59078 11.4978 9.61077 11.5165 9.6389C11.5352 9.66704 11.5425 9.70121 11.537 9.73453C11.5314 9.76785 11.5134 9.79782 11.4867 9.8184L10.5923 10.496L10.8856 10.3275C10.9008 10.3178 10.9177 10.3113 10.9355 10.3084C10.9532 10.3055 10.9714 10.3062 10.9889 10.3105C11.0063 10.3148 11.0227 10.3225 11.0371 10.3333C11.0515 10.3441 11.0636 10.3577 11.0726 10.3733C11.0816 10.3888 11.0873 10.4061 11.0895 10.4239C11.0917 10.4418 11.0902 10.4599 11.0852 10.4771C11.0802 10.4944 11.0717 10.5105 11.0603 10.5244C11.049 10.5383 11.0349 10.5498 11.0189 10.5581L8.87147 11.7973C8.84212 11.814 8.80752 11.819 8.77466 11.8112C8.7418 11.8034 8.71313 11.7834 8.69445 11.7552C8.67576 11.7271 8.66844 11.6929 8.67398 11.6596C8.67951 11.6263 8.69749 11.5963 8.72427 11.5757L9.62027 10.8973L8.01467 11.8243C7.99443 11.836 7.97142 11.8422 7.948 11.8421Z" fill="#D1E6EA"/>
<path d="M15.9293 4.36267C16.0069 2.72693 15.7693 0.534933 13.8347 0.146133C12.4955 -0.247467 13.3752 4.24827 13.1373 5.15227C11.6376 2.7368 8.32347 1.88853 5.79307 3.1224C5.6496 2.27947 6.2768 0.199199 4.97333 0.222399C4.4968 0.370666 4.348 0.962666 4.34027 1.4048C4.23973 2.08293 4.55893 2.99093 4.20187 3.59147C2.9536 3.76453 4.30853 0.610933 3.17227 0.209066C1.37307 -0.156267 2.93067 4.23573 1.676 3.4992C1.15333 2.72347 2.20427 -0.467467 0.4144 0.399999C-0.104267 0.929066 0.0736 2.04507 0.0736 2.7184C-0.121333 4.05173 0.237867 5.8384 1.94027 5.6784C1.8744 8.74907 1.7504 11.8275 1.71387 14.8981C1.7598 15.1624 1.90055 15.4009 2.10973 15.5688C2.31891 15.7368 2.58216 15.8227 2.85013 15.8104C4.73093 15.7304 4.03093 13.5072 4.10347 12.2637C6.57013 14.8859 11.2501 14.3704 13.1384 11.3235C13.4251 12.7163 12.3565 15.2104 14.0117 15.8568C14.1771 15.8893 14.3476 15.8855 14.5113 15.8456C14.6751 15.8057 14.8282 15.7307 14.9601 15.6258C15.092 15.5208 15.1995 15.3885 15.2752 15.2379C15.3509 15.0873 15.3929 14.9221 15.3984 14.7536C15.3541 12.9912 15.2133 11.2275 15.152 9.464C16.6864 9.30907 15.6413 5.5752 15.9293 4.36267ZM3.47173 15.4635C2.7 16.1333 1.9344 14.9973 2.09813 14.2712C2.1744 11.3635 2.25049 8.45582 2.3264 5.54827C1.35973 5.5776 0.402667 4.94613 0.459733 3.87333C0.562133 2.83333 0.232267 1.65067 0.614667 0.670399C0.62836 0.637462 0.651031 0.609035 0.680095 0.588355C0.709159 0.567676 0.743448 0.555577 0.779053 0.553436C0.814659 0.551296 0.85015 0.559201 0.881482 0.57625C0.912814 0.593299 0.938726 0.618807 0.956267 0.649866C1.3632 1.36187 1.03627 2.38053 1.14 3.172C1.1632 4.08133 2.53493 3.95307 2.5928 3.14053C2.70667 2.32373 2.40267 1.3824 2.74987 0.618933C2.76471 0.588855 2.78724 0.563233 2.81517 0.54466C2.8431 0.526087 2.87545 0.515222 2.90892 0.513165C2.9424 0.511108 2.97583 0.517932 3.00583 0.532946C3.03582 0.54796 3.06132 0.570632 3.07973 0.598666C3.68667 1.48613 2.72533 3.1168 3.6664 3.7784C5.44 4 4.42667 1.74133 4.83867 0.641866C4.85255 0.608456 4.87574 0.57974 4.90548 0.559134C4.93522 0.538528 4.97026 0.526902 5.00641 0.525637C5.04257 0.524373 5.07833 0.533525 5.10944 0.552003C5.14054 0.570481 5.16568 0.597508 5.18187 0.629866C5.7024 1.6072 5.33253 3.41947 5.3488 4.47333C5.26729 4.79754 5.07193 5.08163 4.79838 5.27378C4.52482 5.46593 4.1913 5.55331 3.85867 5.52C3.79093 5.52 3.53867 5.5496 3.54027 5.65093C3.61298 8.43902 3.68596 11.227 3.7592 14.0149C3.772 14.508 3.86987 15.0875 3.47173 15.4635ZM9.07947 13.6995C8.14607 13.8221 7.19681 13.7029 6.32273 13.3532C5.44865 13.0036 4.67905 12.4352 4.08773 11.7027C4.0344 9.69093 3.98169 7.67929 3.9296 5.66773C5.18293 5.6904 5.97893 4.55653 5.79307 3.36587C8.50587 1.99093 11.8301 3.21547 13.1373 5.92587C13.2883 9.5584 13.5467 12.9259 9.07947 13.6995ZM15.5373 8.7928C15.5469 9.35787 14.916 9.00613 14.7507 9.34827C14.8291 11.1845 14.9355 13.0216 15.0019 14.8571C14.9541 15.8752 13.5029 15.7397 13.5293 14.7579C13.5365 10.0179 13.5165 5.2576 13.5293 0.526933C16.6667 0.606933 15.2197 6.6344 15.5373 8.79147V8.7928Z" fill="#262626"/>
<path d="M10.7067 5.57333C5.48373 1.78373 1.49333 11.1467 8.14187 11.8133C11.38 11.9635 13.2875 7.70293 10.7067 5.57333ZM11.5248 8.6448C11.308 12.0477 6.4512 12.6981 5.25813 9.54347C3.42427 4.21333 11.724 3.06667 11.5248 8.64373V8.6448Z" fill="#262626"/>
</g>
<defs>
<clipPath id="clip0_230_11562">
<rect width="16" height="16" fill="white"/>
</clipPath>
</defs>
</svg>
