<svg width="24" height="24" viewBox="0 0 24 24" fill="none" xmlns="http://www.w3.org/2000/svg">
<g clip-path="url(#clip0_187_8022)">
<path d="M23.2809 14.63L21.0749 12.905C21.1029 12.639 21.1269 12.328 21.1269 11.999C21.1269 11.67 21.1039 11.359 21.0749 11.093L23.2829 9.36703C23.6929 9.04303 23.8049 8.46802 23.5439 7.98905L21.2499 4.02C21.0049 3.57202 20.4679 3.342 19.9229 3.543L17.3199 4.58798C16.8209 4.22798 16.2979 3.924 15.7569 3.681L15.3609 0.920016C15.2959 0.396 14.8399 0 14.3009 0H9.70092C9.16191 0 8.70694 0.396 8.64291 0.912L8.24592 3.68302C7.72191 3.91903 7.20694 4.21903 6.68592 4.59L4.07592 3.54202C3.58688 3.35302 3.00188 3.56498 2.75888 4.011L0.461907 7.98502C0.190923 8.44303 0.302907 9.03802 0.721923 9.37003L2.92791 11.095C2.89289 11.432 2.87592 11.725 2.87592 12C2.87592 12.2751 2.89294 12.568 2.92791 12.906L0.719907 14.632C0.309891 14.957 0.198892 15.532 0.459891 16.01L2.75391 19.979C2.99892 20.426 3.53091 20.658 4.08089 20.456L6.68391 19.411C7.18191 19.77 7.70489 20.074 8.24592 20.318L8.64192 23.078C8.70689 23.604 9.16191 24 9.70191 24H14.3019C14.8409 24 15.2969 23.604 15.3609 23.088L15.7579 20.318C16.2819 20.081 16.7959 19.782 17.3179 19.41L19.9279 20.458C20.0539 20.507 20.1849 20.532 20.3199 20.532C20.7079 20.532 21.0649 20.32 21.2449 19.99L23.5489 16C23.8049 15.532 23.6929 14.957 23.2809 14.63ZM12.0009 16C9.79491 16 8.00091 14.206 8.00091 12C8.00091 9.79402 9.79491 8.00002 12.0009 8.00002C14.2069 8.00002 16.0009 9.79402 16.0009 12C16.0009 14.206 14.2069 16 12.0009 16Z" fill="black"/>
</g>
<defs>
<clipPath id="clip0_187_8022">
<rect width="24" height="24" fill="white"/>
</clipPath>
</defs>
</svg>
