<svg width="24" height="24" viewBox="0 0 24 24" fill="none" xmlns="http://www.w3.org/2000/svg">
<path d="M22.9663 14.63L20.7604 12.905C20.7883 12.639 20.8123 12.328 20.8123 11.999C20.8123 11.67 20.7893 11.359 20.7604 11.093L22.9684 9.36703C23.3784 9.04303 23.4904 8.46802 23.2294 7.98905L20.9353 4.02C20.6903 3.57202 20.1533 3.342 19.6084 3.543L17.0053 4.58798C16.5064 4.22798 15.9833 3.924 15.4423 3.681L15.0463 0.920016C14.9813 0.396 14.5253 0 13.9864 0H9.38638C8.84736 0 8.39239 0.396 8.32836 0.912L7.93138 3.68302C7.40736 3.91903 6.89239 4.21903 6.37138 4.59L3.76138 3.54202C3.27233 3.35302 2.68733 3.56498 2.44433 4.011L0.147362 7.98502C-0.123622 8.44303 -0.0116376 9.03802 0.407378 9.37003L2.61336 11.095C2.57835 11.432 2.56138 11.725 2.56138 12C2.56138 12.2751 2.57839 12.568 2.61336 12.906L0.405362 14.632C-0.00465319 14.957 -0.115653 15.532 0.145347 16.01L2.43936 19.979C2.68438 20.426 3.21636 20.658 3.76635 20.456L6.36936 19.411C6.86736 19.77 7.39035 20.074 7.93138 20.318L8.32738 23.078C8.39235 23.604 8.84736 24 9.38736 24H13.9873C14.5264 24 14.9824 23.604 15.0463 23.088L15.4433 20.318C15.9673 20.081 16.4813 19.782 17.0033 19.41L19.6133 20.458C19.7393 20.507 19.8703 20.532 20.0053 20.532C20.3933 20.532 20.7503 20.32 20.9303 19.99L23.2343 16C23.4904 15.532 23.3783 14.957 22.9663 14.63ZM11.6863 16C9.48036 16 7.68636 14.206 7.68636 12C7.68636 9.79402 9.48036 8.00002 11.6863 8.00002C13.8923 8.00002 15.6863 9.79402 15.6863 12C15.6863 14.206 13.8923 16 11.6863 16Z" fill="url(#paint0_linear_726_10491)"/>
<defs>
<linearGradient id="paint0_linear_726_10491" x1="11.6855" y1="0" x2="11.6855" y2="24" gradientUnits="userSpaceOnUse">
<stop stop-color="#9F7D33"/>
<stop offset="1" stop-color="#FFFDD1"/>
</linearGradient>
</defs>
</svg>
