<svg width="24" height="24" viewBox="0 0 24 24" fill="none" xmlns="http://www.w3.org/2000/svg">
<path d="M10.6363 5.02575C10.5893 5.02575 10.5433 5.00613 10.5101 4.96925C10.457 4.9097 10.4526 4.82071 10.5003 4.75608L10.7981 4.35241L10.2743 4.65457C10.2032 4.69619 10.1119 4.67961 10.0587 4.61566C10.0063 4.55171 10.008 4.459 10.0625 4.39708L10.253 4.17917L9.86723 4.40147C9.80092 4.44005 9.71768 4.42888 9.66286 4.37474C9.60873 4.32094 9.5979 4.23737 9.63579 4.17071L9.9728 3.58399L9.14584 4.06142C9.07276 4.10405 8.97802 4.0851 8.92658 4.01743C8.87515 3.94976 8.88192 3.854 8.94283 3.79445L8.99866 3.73963L8.70259 3.91051C8.62984 3.95314 8.53645 3.93487 8.484 3.86754C8.43223 3.80088 8.43765 3.70546 8.4972 3.64557L8.63559 3.50481L8.16188 3.77855C8.09522 3.8178 8.01063 3.80595 7.9565 3.75046C7.90236 3.69497 7.89288 3.61004 7.93315 3.54406L8.30738 2.93061L7.02904 3.66858C6.94817 3.71527 6.84429 3.68786 6.79794 3.60666C6.75091 3.52579 6.77865 3.42225 6.85986 3.37555L8.71274 2.30599C8.7794 2.26674 8.86365 2.27858 8.91812 2.33407C8.97226 2.38956 8.98174 2.47449 8.94147 2.54047L8.56724 3.15393L9.5485 2.58751C9.62158 2.54487 9.71497 2.56314 9.76708 2.63048C9.81885 2.69747 9.81344 2.79255 9.75388 2.85244L9.61549 2.9932L9.98228 2.78139C10.055 2.73808 10.1494 2.75736 10.2015 2.82538C10.253 2.89305 10.2462 2.98881 10.1853 3.04836L10.1298 3.10283L10.3484 2.97696C10.414 2.93771 10.4976 2.94888 10.5528 3.00369C10.6069 3.05749 10.6177 3.14107 10.5798 3.20773L10.2428 3.79411L10.9689 3.37522C11.0403 3.3336 11.131 3.35018 11.1845 3.41413C11.2369 3.47808 11.2352 3.57079 11.1808 3.63271L10.9903 3.85062L11.3296 3.65504C11.399 3.61512 11.4873 3.62899 11.5404 3.68888C11.5936 3.74843 11.598 3.83742 11.5503 3.90205L11.2528 4.30538L11.7357 4.02691C11.8162 3.97987 11.9194 4.00762 11.9668 4.08883C12.0138 4.16969 11.9861 4.27323 11.9049 4.31993L10.7213 5.00376C10.6949 5.01933 10.6658 5.02643 10.6367 5.02643L10.6363 5.02575Z" fill="#2A904C"/>
<path d="M7.14544 6.75468C7.09468 6.75468 7.04461 6.73167 7.01145 6.68904C6.95968 6.62204 6.96543 6.52696 7.02498 6.46673L7.79239 5.69087L6.66361 6.34255C6.58849 6.38688 6.4907 6.36522 6.44063 6.29349C6.39055 6.22176 6.40307 6.12363 6.46973 6.06679L6.54484 6.00318L6.20005 6.20213C6.12967 6.24308 6.03967 6.22785 5.98688 6.16593C5.9341 6.10401 5.93274 6.01299 5.98384 5.94938L6.33336 5.51627L5.69859 5.88272C5.63058 5.92231 5.54396 5.90945 5.4905 5.85159C5.4367 5.79407 5.4296 5.70711 5.47358 5.6418L5.81296 5.13832L5.30948 5.42897C5.2374 5.47127 5.14469 5.45333 5.09191 5.38769C5.04014 5.32171 5.04386 5.22765 5.10172 5.16674L5.31557 4.9397L5.12439 5.05C5.04758 5.09467 4.9498 5.07166 4.90006 4.99925C4.85032 4.92616 4.86487 4.82702 4.93423 4.77187L6.4139 3.58523L5.00427 4.39899C4.92713 4.44433 4.82731 4.41997 4.77791 4.34486C4.72851 4.26974 4.74712 4.16891 4.81986 4.11578L5.01848 3.9713C4.9498 3.99668 4.87062 3.97638 4.82494 3.91716C4.77317 3.85051 4.77825 3.75576 4.83712 3.6952L5.51216 2.99918C5.44313 3.01542 5.36531 2.98497 5.32741 2.91899C5.28038 2.83812 5.30812 2.73458 5.38933 2.68789L6.37634 2.11775C6.44909 2.07511 6.54247 2.09338 6.59458 2.16004C6.64669 2.2267 6.64128 2.32144 6.5824 2.38201L5.9253 3.05941L7.58937 2.0988C7.66686 2.05346 7.76667 2.07782 7.81574 2.15294C7.86514 2.22839 7.84653 2.32888 7.77378 2.38201L7.59377 2.51329L8.16763 2.18203C8.2441 2.13669 8.34189 2.16004 8.39197 2.23279C8.44171 2.30588 8.42716 2.40502 8.35779 2.46017L6.33506 4.08195C6.34555 4.09007 6.35536 4.09988 6.36416 4.11071C6.41593 4.17669 6.4122 4.27075 6.35434 4.33166L6.14084 4.55836L6.27821 4.47919C6.34588 4.43892 6.43251 4.45212 6.48631 4.51031C6.5401 4.56784 6.54721 4.6548 6.50322 4.7201L6.16384 5.22325L6.95189 4.76815C7.0216 4.72687 7.11194 4.74209 7.16506 4.80435C7.21785 4.86661 7.2192 4.95729 7.16811 5.02091L6.81824 5.45435L8.00691 4.76815C8.08169 4.72382 8.17948 4.74548 8.22989 4.81721C8.27997 4.88894 8.26745 4.98707 8.20079 5.04391L8.12534 5.10753L8.71308 4.76815C8.78616 4.72551 8.87955 4.74446 8.93166 4.81112C8.98343 4.87812 8.97768 4.9732 8.91812 5.03343L8.15072 5.80929L9.95419 4.76815C10.0293 4.7245 10.1257 4.74514 10.1762 4.8162C10.2269 4.88691 10.2154 4.9847 10.1501 5.04188L9.54545 5.57108L11.8433 4.24436C11.9191 4.20004 12.0169 4.22169 12.0666 4.2941C12.1167 4.36617 12.1031 4.46497 12.0355 4.52114L10.9466 5.42119L11.9028 4.86932C11.9759 4.82668 12.07 4.8453 12.1214 4.91263C12.1728 4.97963 12.1671 5.07471 12.1072 5.13493L11.4555 5.79068L11.9093 5.52913C11.9776 5.48886 12.0652 5.50274 12.1187 5.56127C12.1722 5.61981 12.1779 5.70778 12.1322 5.77275L11.9417 6.04547C12.0162 6.01773 12.1042 6.04784 12.1458 6.11991C12.1928 6.20078 12.1651 6.30432 12.0839 6.35101L11.4535 6.71475C11.3851 6.75502 11.2978 6.74115 11.244 6.68261C11.1906 6.62407 11.1848 6.5361 11.2305 6.47113L11.4176 6.20383L10.5264 6.71848C10.454 6.76111 10.3599 6.7425 10.3078 6.67517C10.2564 6.60817 10.2621 6.51309 10.322 6.45286L10.9737 5.79711L9.36916 6.72321C9.29337 6.76754 9.19558 6.74588 9.14584 6.67347C9.09577 6.6014 9.1093 6.5026 9.17697 6.44643L10.2652 5.54672L8.21907 6.72795C8.14496 6.77194 8.04785 6.7513 7.9971 6.6799C7.94634 6.60918 7.95785 6.5114 8.02315 6.45421L8.62747 5.92535L7.23037 6.73201C7.20397 6.74758 7.17488 6.75468 7.14578 6.75468H7.14544Z" fill="#2A904C"/>
<path d="M17.2801 6.38699C17.2219 6.38699 17.1647 6.35654 17.1336 6.3024C17.0866 6.22153 17.1143 6.11799 17.1955 6.0713L18.62 5.24873C18.7006 5.2017 18.8044 5.22911 18.8511 5.31065C18.8982 5.39152 18.8704 5.49506 18.7892 5.54176L17.3647 6.36432C17.338 6.37988 17.3089 6.38699 17.2801 6.38699Z" fill="#2A904C"/>
<path d="M17.6696 4.75236C17.6205 4.75236 17.5721 4.73104 17.539 4.69078C17.4865 4.62716 17.4875 4.53479 17.5417 4.47219L18.0468 3.88919L17.7816 4.04213C17.7119 4.08274 17.6229 4.06819 17.5697 4.00728C17.5166 3.94638 17.5136 3.85671 17.5626 3.79242L17.8692 3.39281L17.3485 3.69328C17.276 3.73625 17.182 3.7173 17.1299 3.65031C17.0784 3.58297 17.0842 3.48823 17.1437 3.42766L17.2199 3.35119L16.6308 3.69125C16.5584 3.73388 16.464 3.71561 16.4122 3.64794C16.3604 3.5806 16.3665 3.48552 16.4268 3.4253L16.735 3.11671L15.2239 3.98901C15.1427 4.0357 15.0391 4.0083 14.9928 3.92709C14.9457 3.84622 14.9735 3.74268 15.0547 3.69599L17.6773 2.18181C17.7504 2.13951 17.8442 2.15779 17.8959 2.22512C17.9477 2.29245 17.9416 2.38753 17.8814 2.44776L17.5735 2.75601L18.1463 2.42509C18.2194 2.3828 18.3135 2.40141 18.3649 2.46807C18.4163 2.5354 18.4106 2.63014 18.351 2.69071L18.2746 2.76752L18.4363 2.67447C18.5053 2.63352 18.5947 2.64841 18.6481 2.70932C18.7012 2.77022 18.7043 2.85989 18.6552 2.92418L18.349 3.32379L18.7496 3.09235C18.8207 3.05107 18.912 3.06731 18.9648 3.13092C19.0176 3.19453 19.0163 3.28691 18.9621 3.3495L18.4566 3.93284L18.9577 3.64388C19.0382 3.59651 19.1421 3.62459 19.1888 3.7058C19.2359 3.78667 19.2081 3.89021 19.1269 3.9369L17.7542 4.72935C17.7278 4.74491 17.6987 4.75236 17.6696 4.75236Z" fill="#2A904C"/>
<path d="M12.3958 6.75378C12.3417 6.75378 12.2882 6.72739 12.2558 6.67934C12.206 6.60558 12.2212 6.5061 12.2913 6.45128L12.5511 6.24725L12.1075 6.50305C12.0338 6.54704 11.9374 6.52674 11.8859 6.45568C11.8352 6.3853 11.8457 6.28819 11.9103 6.23033L12.2994 5.88283L12.1072 5.99381C12.0284 6.03983 11.9275 6.01445 11.8792 5.93697C11.8308 5.85948 11.8524 5.75831 11.9282 5.70722L13.2739 4.79905L12.1075 5.4724C12.0307 5.5174 11.9323 5.49405 11.8825 5.42063C11.8331 5.34686 11.8487 5.24705 11.9191 5.19257L13.8687 3.67602L12.1133 4.68942C12.0358 4.73442 11.937 4.71108 11.8876 4.6363C11.8382 4.56152 11.8555 4.46136 11.9272 4.4079L12.5948 3.90679C12.5599 3.89325 12.5298 3.86855 12.5099 3.8337C12.4628 3.75283 12.4906 3.64929 12.5718 3.6026L14.4321 2.52863C14.5089 2.48329 14.6084 2.50664 14.6578 2.58175C14.7072 2.65653 14.6899 2.75669 14.6182 2.81015L14.3753 2.99287L15.8272 2.1544C15.904 2.1094 16.0021 2.13241 16.0522 2.20617C16.1016 2.27993 16.086 2.37975 16.0156 2.43423L14.066 3.95077L17.2967 2.08639C17.3755 2.0397 17.4764 2.06575 17.5248 2.14324C17.5731 2.22072 17.5515 2.32189 17.4757 2.37298L13.797 4.85488C13.821 4.91883 13.8044 4.99327 13.7513 5.04098L13.3615 5.38882L14.4368 4.76826C14.513 4.72292 14.6118 4.74661 14.6615 4.81969C14.7113 4.89346 14.696 4.99293 14.626 5.04775L14.3658 5.25212L15.2043 4.76826C15.2797 4.72393 15.3768 4.74593 15.4269 4.81699C15.4773 4.88838 15.4651 4.98651 15.3988 5.04335L14.8392 5.52349L16.1466 4.7686C16.2183 4.7263 16.3104 4.7439 16.3635 4.8092C16.4156 4.87417 16.4125 4.96823 16.356 5.02948L15.5771 5.87539L18.996 3.90205C19.0748 3.85603 19.1743 3.88107 19.223 3.9572C19.2721 4.03333 19.2521 4.13417 19.1783 4.18661L18.6136 4.58588L18.979 4.37508C19.0558 4.33008 19.1546 4.35309 19.204 4.42719C19.2535 4.50129 19.2375 4.60077 19.1672 4.65525L18.507 5.16584L18.7696 5.01425C18.8505 4.96722 18.9543 4.99463 19.0007 5.07617C19.0477 5.15704 19.02 5.26058 18.9388 5.30727L16.4992 6.71588C16.4224 6.76055 16.3236 6.73788 16.2742 6.66377C16.2248 6.58967 16.2407 6.49019 16.311 6.43572L16.9715 5.92513L15.5954 6.7196C15.5176 6.76562 15.4167 6.74058 15.3684 6.66445C15.3193 6.58832 15.3393 6.48749 15.413 6.43504L15.9798 6.03408L14.7877 6.72231C14.7157 6.76461 14.6236 6.74701 14.5708 6.68171C14.5187 6.61674 14.5218 6.52268 14.5783 6.46143L15.3572 5.61552L13.4302 6.72806C13.3551 6.77171 13.2576 6.75073 13.2076 6.67934C13.1572 6.60794 13.1693 6.50982 13.2357 6.45297L13.7956 5.97284L12.4811 6.73145C12.4547 6.74701 12.4253 6.75412 12.3965 6.75412L12.3958 6.75378Z" fill="#2A904C"/>
<path d="M10.7466 6.75513C10.6939 6.75513 10.6421 6.73043 10.6093 6.68475C10.5589 6.61403 10.5697 6.51658 10.6346 6.45906L11.7905 5.43957L10.7443 6.04321C10.6705 6.0872 10.5737 6.06656 10.523 5.99618C10.4722 5.9258 10.4824 5.82869 10.5467 5.77083L11.1997 5.18479L10.7443 5.44736C10.6769 5.48661 10.5923 5.47442 10.5385 5.41893C10.4847 5.36378 10.4749 5.27851 10.5155 5.21287L10.8258 4.70634C10.7483 4.74153 10.6536 4.71277 10.6099 4.63664C10.5629 4.55577 10.5907 4.45223 10.6719 4.40553L11.2322 4.08206C11.2989 4.04281 11.3838 4.05465 11.4379 4.11048C11.4917 4.16563 11.5015 4.2509 11.4609 4.31654L11.1517 4.82138L12.4341 4.08104C12.5088 4.03739 12.6049 4.05803 12.6554 4.12808C12.7061 4.19846 12.696 4.29557 12.6317 4.35343L11.9783 4.93981L13.0864 4.29996C13.1612 4.25632 13.2573 4.27696 13.3084 4.34767C13.3588 4.41839 13.348 4.51584 13.283 4.57336L12.1272 5.59285L13.2624 4.93744C13.3331 4.89582 13.4245 4.9124 13.4772 4.97568C13.53 5.03929 13.529 5.13166 13.4752 5.19426L12.8367 5.93528L13.2668 5.68726C13.3351 5.64733 13.4221 5.66086 13.4759 5.7194C13.5293 5.77794 13.5354 5.86557 13.4901 5.93054L13.3666 6.10716C13.4207 6.11123 13.4718 6.141 13.5006 6.19142C13.5476 6.27229 13.5199 6.37583 13.4387 6.42252L12.9166 6.724C12.8482 6.76427 12.7613 6.75073 12.7075 6.69186C12.654 6.63332 12.6479 6.54568 12.6932 6.48072L12.7772 6.3606L12.1424 6.72705C12.0717 6.76833 11.9803 6.75242 11.9275 6.68881C11.8747 6.6252 11.8758 6.53283 11.9296 6.47023L12.5681 5.72921L10.8306 6.73212C10.8042 6.74769 10.7751 6.75479 10.746 6.75479L10.7466 6.75513Z" fill="#2A904C"/>
<path d="M4.43515 21.9717C4.37729 21.9717 4.32112 21.9419 4.28965 21.8888C4.24228 21.8093 4.26799 21.7061 4.34717 21.658L8.35644 19.2198L3.62916 21.9487C3.54897 21.995 3.44645 21.9683 3.39942 21.8891C3.35171 21.8099 3.37708 21.7071 3.45525 21.6584L11.6988 16.5541L3.02518 21.5623C2.94432 21.609 2.84179 21.5822 2.79476 21.5017C2.74739 21.4215 2.77378 21.3183 2.85363 21.2706L3.18489 21.072L2.96225 21.2006C2.88138 21.2472 2.77919 21.2202 2.73182 21.14C2.68445 21.0605 2.71085 20.9573 2.79002 20.9092L6.72249 18.5315L2.96225 20.7025C2.88138 20.7488 2.77886 20.7221 2.73182 20.6419C2.68445 20.5617 2.71085 20.4585 2.7907 20.4108L3.1338 20.2054L2.96225 20.3042C2.88138 20.3509 2.77919 20.3235 2.73182 20.244C2.68445 20.1641 2.71051 20.0613 2.78968 20.0129L7.91556 16.901L2.96191 19.7608C2.88104 19.8075 2.77886 19.7801 2.73182 19.7006C2.68445 19.6211 2.71017 19.5182 2.78935 19.4698L8.4231 16.0398L2.96191 19.1937C2.88172 19.2404 2.77953 19.2137 2.73182 19.1338C2.68445 19.0547 2.70983 18.9515 2.78867 18.9031L9.30318 14.8982L2.96191 18.5596C2.88104 18.6063 2.77886 18.5793 2.73149 18.4994C2.68411 18.4195 2.71017 18.3167 2.78935 18.2683L5.84917 16.4107L2.96191 18.0775C2.88172 18.1242 2.77953 18.0974 2.73216 18.0179C2.68445 17.9387 2.70949 17.8362 2.78799 17.7871L8.92862 13.9704L2.96191 17.4156C2.88172 17.462 2.77953 17.4352 2.73182 17.3561C2.68445 17.2766 2.70983 17.174 2.78833 17.125L7.16574 14.4201L2.96191 16.8472C2.88172 16.8939 2.77953 16.8668 2.73216 16.788C2.68445 16.7088 2.70949 16.6063 2.78765 16.5572L7.44658 13.6476L2.96191 16.2364C2.88172 16.2828 2.77953 16.256 2.73216 16.1769C2.68445 16.0977 2.70949 15.9948 2.78799 15.9461L5.75713 14.1041L2.96157 15.718C2.88206 15.7644 2.78055 15.7387 2.7325 15.6599C2.68445 15.5817 2.70814 15.4795 2.78495 15.4294L7.82657 12.175L2.96123 14.9838C2.88172 15.0298 2.78021 15.0044 2.73216 14.9256C2.68411 14.8468 2.7078 14.7449 2.78495 14.6948L6.53402 12.2826L2.9609 14.3456C2.88104 14.3927 2.77919 14.3659 2.73115 14.2864C2.68344 14.2076 2.70848 14.1047 2.7863 14.0557L3.62037 13.5339L2.9609 13.9146C2.88172 13.9602 2.78122 13.9349 2.73284 13.8577C2.68445 13.7802 2.70611 13.6791 2.7819 13.628L6.40205 11.185L2.9609 13.1715C2.88206 13.2179 2.7819 13.1925 2.73318 13.1154C2.68445 13.0382 2.70577 12.937 2.78089 12.8853L5.54667 10.9948L2.9609 12.4877C2.88307 12.5334 2.78258 12.5087 2.73352 12.4322C2.68479 12.3557 2.70509 12.2549 2.77919 12.2028L4.95284 10.6761L2.9609 11.8259C2.88341 11.8712 2.78325 11.8468 2.73453 11.7717C2.68513 11.6963 2.70408 11.5954 2.77683 11.5426L4.37965 10.377L2.9609 11.1962C2.88409 11.2418 2.78393 11.2175 2.73487 11.1424C2.68547 11.0672 2.7034 10.9667 2.77581 10.9136L3.63559 10.2792L2.9609 10.6686C2.88476 10.7133 2.78732 10.691 2.73724 10.6186C2.68716 10.5462 2.70103 10.4474 2.76938 10.3915L3.48028 9.80954L2.96123 10.109C2.88679 10.1533 2.7907 10.132 2.73927 10.0613C2.68885 9.99057 2.69968 9.89312 2.76498 9.8356L3.00894 9.6204L2.96123 9.6478C2.90405 9.68096 2.83266 9.67758 2.77852 9.63935C2.72472 9.60111 2.69799 9.53445 2.71051 9.46949L2.82386 8.88344C2.78562 8.87092 2.75179 8.84521 2.73047 8.80731C2.68344 8.72644 2.71118 8.6229 2.79239 8.57621L2.96157 8.47842C3.01808 8.44492 3.08981 8.44864 3.14429 8.48688C3.19809 8.52511 3.22482 8.59177 3.2123 8.65674L3.11316 9.1697L4.31131 8.47774C4.38608 8.43443 4.48218 8.45473 4.53327 8.52545C4.58369 8.59617 4.57286 8.69362 4.50756 8.75114L4.26292 8.96702L5.11052 8.47774C5.18665 8.43308 5.2841 8.45575 5.33418 8.52782C5.38426 8.59989 5.37038 8.69903 5.30203 8.75486L4.59147 9.33685L6.08061 8.47707C6.15809 8.43206 6.25723 8.45575 6.30664 8.53087C6.35604 8.60598 6.3381 8.70648 6.26569 8.7596L5.40422 9.39505L6.99521 8.47673C7.07269 8.43105 7.17251 8.45575 7.22157 8.53087C7.27097 8.60632 7.25202 8.70715 7.17928 8.75994L5.5778 9.92459L8.08677 8.47605C8.16425 8.43037 8.26508 8.45507 8.31415 8.53154C8.36287 8.60801 8.34257 8.70884 8.26847 8.76095L6.09381 10.2883L9.23382 8.47571C9.313 8.43037 9.41315 8.45507 9.46154 8.53188C9.51026 8.60903 9.48895 8.7102 9.41383 8.76197L6.64804 10.6521L10.4191 8.47504C10.4983 8.42868 10.5984 8.4544 10.6472 8.53188C10.6956 8.60937 10.6739 8.71054 10.5981 8.76163L6.97795 11.2046L11.7069 8.4747C11.7871 8.42868 11.889 8.45473 11.9367 8.53391C11.9844 8.61309 11.9593 8.71561 11.8815 8.76467L11.0512 9.28406L12.454 8.47402C12.5335 8.428 12.6351 8.45372 12.6831 8.53222C12.7311 8.61072 12.7075 8.71291 12.6303 8.76298L8.8782 11.1769L13.5605 8.47402C13.6397 8.42766 13.7415 8.45338 13.7895 8.53222C13.8376 8.61038 13.8139 8.71257 13.7371 8.76264L8.6965 12.0164L14.8341 8.47301C14.9139 8.42597 15.0158 8.4527 15.0638 8.53256C15.1115 8.61173 15.0865 8.7146 15.008 8.76332L12.0365 10.6067L15.7331 8.47267C15.813 8.42563 15.9151 8.4527 15.9629 8.53188C16.0106 8.61106 15.9855 8.71358 15.9074 8.76264L11.2501 11.6712L16.7912 8.47233C16.871 8.4253 16.9732 8.45203 17.0213 8.53188C17.0686 8.6114 17.0433 8.71392 16.9648 8.76298L12.589 11.4668L17.7765 8.47165C17.8563 8.42496 17.9582 8.45169 18.0062 8.5312C18.0539 8.61038 18.0289 8.71291 17.9504 8.76197L11.8047 12.5818L18.9242 8.47165C19.0044 8.42462 19.1066 8.45203 19.1546 8.53188C19.202 8.61173 19.176 8.7146 19.0968 8.76298L16.0498 10.6132L19.7596 8.47131C19.8398 8.42462 19.942 8.45101 19.9897 8.5312C20.0371 8.61038 20.0117 8.71358 19.9329 8.76197L13.4129 12.7702L20.8597 8.47098C20.9402 8.4236 21.0427 8.45101 21.0897 8.5312C21.1371 8.61072 21.1114 8.71392 21.0322 8.76197L15.4042 12.1882L21.0441 8.93217C21.1243 8.88513 21.2268 8.91254 21.2745 8.99239C21.3219 9.07225 21.2958 9.17511 21.2166 9.2235L16.0908 12.3354L21.0444 9.47558C21.1246 9.42854 21.2275 9.45595 21.2748 9.53614C21.3222 9.61634 21.2958 9.71954 21.216 9.76725L20.8729 9.97297L21.0444 9.87383C21.1246 9.8268 21.2271 9.85387 21.2748 9.9344C21.3222 10.0139 21.2958 10.1171 21.2166 10.1652L17.2842 12.5428L21.0444 10.3719C21.1246 10.3249 21.2275 10.3519 21.2748 10.4325C21.3222 10.513 21.2958 10.6159 21.216 10.6636L20.8888 10.8595L21.0444 10.7698C21.1243 10.7228 21.2268 10.7495 21.2742 10.8294C21.3219 10.9085 21.2965 11.0114 21.2183 11.0601L12.968 16.1687L21.0444 11.5061C21.1246 11.4587 21.2271 11.4861 21.2745 11.5663C21.3219 11.6458 21.2961 11.749 21.217 11.7971L17.207 14.2357L21.0444 12.0204C21.1243 11.9734 21.2271 12.0008 21.2745 12.0803C21.3219 12.1598 21.2961 12.263 21.2173 12.3114L16.9637 14.9117L21.0447 12.5557C21.1249 12.5097 21.2264 12.5354 21.2742 12.6149C21.3219 12.6934 21.2975 12.7963 21.2197 12.8453L14.1925 17.2722L21.0447 13.3163C21.1249 13.27 21.2264 13.296 21.2742 13.3752C21.3219 13.4537 21.2978 13.5562 21.22 13.6056L14.9109 17.6085L21.0447 14.0672C21.1249 14.0208 21.2271 14.0475 21.2745 14.1264C21.3222 14.2052 21.2975 14.3077 21.2193 14.3571L16.9546 17.0316L21.0447 14.6701C21.1246 14.6234 21.2264 14.6502 21.2745 14.7297C21.3222 14.8089 21.2972 14.9114 21.2187 14.9605L18.8877 16.4083L21.0447 15.1628C21.1246 15.1164 21.2251 15.1422 21.2738 15.221C21.3219 15.2988 21.2982 15.4013 21.2214 15.4514L16.715 18.3722L21.0451 15.8723C21.1249 15.8253 21.2268 15.852 21.2748 15.9319C21.3225 16.0107 21.2975 16.1136 21.2193 16.1627L20.4492 16.6425L21.0454 16.2983C21.1256 16.2523 21.2268 16.2784 21.2745 16.3569C21.3225 16.435 21.2989 16.5376 21.2214 16.5873L18.9537 18.0423L21.0458 16.8346C21.1256 16.7883 21.2268 16.8143 21.2745 16.8925C21.3225 16.9703 21.2995 17.0725 21.2231 17.1226L18.9012 18.6429L21.0461 17.4048C21.1246 17.3588 21.2244 17.3838 21.2731 17.4599C21.3222 17.5364 21.3022 17.6372 21.2281 17.6894L18.2441 19.7943L21.0461 18.1766C21.1249 18.1309 21.2258 18.1556 21.2742 18.2331C21.3225 18.3103 21.3012 18.4118 21.2258 18.4629L19.9095 19.3578L21.0458 18.7021C21.1236 18.6561 21.2241 18.6811 21.2728 18.7572C21.3219 18.8337 21.3019 18.9345 21.2278 18.9866L20.0882 19.7903L21.0458 19.2374C21.1219 19.1924 21.2207 19.2154 21.2701 19.2885C21.3198 19.3615 21.3053 19.461 21.2356 19.5162L19.9671 20.5262L21.0458 19.9036C21.1226 19.8586 21.2214 19.882 21.2704 19.9554C21.3202 20.0291 21.3046 20.1286 21.2346 20.1831L20.8925 20.4507L21.0458 20.3621C21.1202 20.3191 21.2156 20.3384 21.2667 20.4084C21.3175 20.4778 21.3083 20.5746 21.2447 20.6331L20.9625 20.8926L21.0458 20.8446C21.1158 20.8033 21.2055 20.8185 21.2589 20.8808C21.3117 20.9427 21.3131 21.0334 21.2623 21.097L21.0823 21.3203C21.1222 21.3322 21.1578 21.3586 21.1801 21.3978C21.2271 21.4787 21.1994 21.5822 21.1182 21.6289L20.5585 21.9521C20.4881 21.993 20.3981 21.9778 20.3453 21.9159C20.2926 21.8539 20.2912 21.7633 20.342 21.6996L20.4293 21.5914L19.8029 21.9527C19.7292 21.9964 19.6334 21.9764 19.582 21.9064C19.5312 21.837 19.5404 21.7402 19.604 21.6817L19.8858 21.4225L18.9675 21.9524C18.8911 21.9974 18.7923 21.9741 18.7429 21.9006C18.6931 21.8269 18.7087 21.7274 18.7787 21.6729L19.1215 21.4049L18.1727 21.9524C18.0962 21.9971 17.9978 21.9744 17.9484 21.9013C17.8986 21.8282 17.9132 21.7287 17.9829 21.6739L19.2511 20.6636L17.0186 21.9527C16.9411 21.9984 16.8402 21.9737 16.7915 21.8976C16.7424 21.8211 16.7624 21.7203 16.8365 21.6682L17.9771 20.8639L16.0911 21.9527C16.0126 21.9988 15.9118 21.9737 15.863 21.8962C15.8147 21.8191 15.836 21.7176 15.9114 21.6665L17.2273 20.7718L15.1819 21.9524C15.1031 21.9981 15.0036 21.9734 14.9549 21.8972C14.9058 21.8208 14.9258 21.7199 14.9999 21.6678L17.9836 19.5632L13.8457 21.9524C13.7662 21.9988 13.665 21.9727 13.617 21.8945C13.5689 21.8164 13.5919 21.7145 13.6684 21.6645L15.9889 20.1452L12.8584 21.9524C12.7789 21.9991 12.6773 21.9724 12.6293 21.8939C12.5813 21.8154 12.6049 21.7132 12.6824 21.6634L14.9515 20.2075L11.9296 21.9521C11.8494 21.9984 11.7472 21.9717 11.6998 21.8925C11.6521 21.8137 11.6771 21.7108 11.7553 21.6617L12.5305 21.1786L11.1913 21.9517C11.1121 21.9981 11.0106 21.9724 10.9622 21.8935C10.9141 21.8157 10.9378 21.7132 11.0146 21.6631L15.5189 18.744L9.96299 21.9514C9.88246 21.9977 9.78062 21.971 9.73324 21.8918C9.68554 21.8127 9.71057 21.7101 9.78907 21.6611L12.1218 20.2122L9.10964 21.9514C9.03013 21.9981 8.92794 21.9713 8.87989 21.8922C8.83218 21.8133 8.85688 21.7108 8.93505 21.6614L13.1998 18.987L8.06477 21.9514C7.98492 21.9981 7.88341 21.9717 7.83536 21.8925C7.78765 21.814 7.81168 21.7115 7.8895 21.6621L14.1983 17.6596L6.76444 21.9514C6.68493 21.9981 6.58308 21.972 6.53503 21.8922C6.48732 21.8137 6.51168 21.7108 6.58951 21.6617L13.6194 17.2329L5.44685 21.951C5.36666 21.9974 5.2638 21.9707 5.21677 21.8912C5.1694 21.8116 5.19511 21.7084 5.27395 21.6601L9.5265 19.0604L4.52008 21.9507C4.49335 21.9663 4.46425 21.9734 4.43548 21.9734L4.43515 21.9717Z" fill="#41E578"/>
<path d="M14.9731 9.79059C14.9166 9.79059 14.8611 9.76217 14.8293 9.71074C14.781 9.63291 14.8036 9.53107 14.8794 9.48031L15.3741 9.15277L14.3086 9.76758C14.2308 9.81292 14.1306 9.78856 14.0816 9.71277C14.0328 9.63664 14.0521 9.5358 14.1259 9.48336L15.9574 8.1793L13.2055 9.76758C13.1267 9.81394 13.0265 9.78856 12.9778 9.71141C12.9291 9.63427 12.9504 9.5331 13.0255 9.48133L14.2809 8.62324L12.2984 9.76758C12.2209 9.81292 12.1207 9.78856 12.072 9.71344C12.0226 9.63799 12.0416 9.53716 12.1143 9.48437L14.1496 8.00268L11.0921 9.76758C11.0136 9.81326 10.9138 9.78856 10.8651 9.71243C10.816 9.6363 10.836 9.53546 10.9097 9.48302L12.6709 8.23649L10.0192 9.76724C9.94066 9.8136 9.83983 9.78822 9.79111 9.71074C9.74272 9.63359 9.76404 9.53242 9.83949 9.48099L11.02 8.6767L9.13096 9.76724C9.05347 9.81258 8.95298 9.78822 8.90426 9.71243C8.85519 9.63664 8.87448 9.53614 8.9479 9.48336L10.8319 8.13464L8.00387 9.76724C7.92638 9.81292 7.82555 9.78822 7.77683 9.71209C7.72777 9.63596 7.74773 9.53513 7.82149 9.48268L9.57692 8.24088L6.93329 9.76724C6.85377 9.81326 6.75328 9.78788 6.70489 9.71006C6.65651 9.63257 6.67884 9.53107 6.75463 9.47997L7.49362 8.9863L6.14084 9.76724C6.06099 9.81326 5.96015 9.78755 5.91211 9.70972C5.86406 9.6319 5.88673 9.53005 5.96286 9.4793L6.29141 9.26308L5.41809 9.7669C5.34129 9.81258 5.24181 9.78822 5.19207 9.71344C5.14267 9.63833 5.1606 9.53817 5.23267 9.48471L7.40903 7.86767L4.11878 9.7669C4.0396 9.81292 3.93843 9.78721 3.89004 9.70938C3.842 9.63156 3.86467 9.52971 3.9408 9.4793L4.2883 9.24989L3.39299 9.76657C3.31449 9.81191 3.21501 9.78755 3.16628 9.71175C3.11722 9.63596 3.13651 9.53513 3.20993 9.48234L5.07973 8.14614L2.53354 9.61599C2.4564 9.66201 2.35658 9.63765 2.30718 9.56186C2.25778 9.4864 2.27639 9.38591 2.34914 9.33312L4.201 7.98068L2.28519 9.08679C2.2077 9.13146 2.1089 9.10811 2.05984 9.03401C2.01043 8.95957 2.02701 8.85975 2.09807 8.80561L3.49687 7.74281L2.28519 8.44221C2.20973 8.48688 2.11296 8.46522 2.06254 8.39315C2.01213 8.32175 2.02431 8.22363 2.09096 8.16678L3.07425 7.32798L2.28519 7.78376C2.20905 7.82808 2.11127 7.80609 2.06119 7.73334C2.01145 7.66093 2.02566 7.56179 2.09401 7.5063L2.21853 7.40479C2.16777 7.41156 2.11397 7.39193 2.07709 7.352C2.02329 7.29448 2.01619 7.20752 2.06017 7.14222L2.32477 6.74836C2.25947 6.75987 2.1874 6.72874 2.15119 6.66614C2.10416 6.58527 2.13191 6.48173 2.21311 6.43504L2.77412 6.11122C2.84179 6.0713 2.92841 6.08449 2.98221 6.14235C3.03601 6.19988 3.04312 6.28683 2.99913 6.35214L2.74841 6.72535L3.8129 6.11089C3.88869 6.06622 3.98682 6.08855 4.03689 6.1613C4.08663 6.23371 4.07242 6.33285 4.00407 6.38834L3.95163 6.43132L4.50688 6.11089C4.58267 6.0669 4.67945 6.08822 4.72952 6.15995C4.77994 6.23134 4.76776 6.32947 4.7011 6.38631L3.71748 7.22512L5.64717 6.11122C5.72398 6.06588 5.82312 6.08957 5.87252 6.16401C5.92192 6.23845 5.90534 6.33827 5.83428 6.3924L4.43583 7.45487L6.76309 6.11122C6.84058 6.06622 6.94005 6.08957 6.98946 6.16536C7.03886 6.24082 7.02025 6.34131 6.9475 6.3941L5.09496 7.74721L7.92875 6.11122C8.0059 6.06521 8.10639 6.08991 8.15546 6.16604C8.20452 6.24183 8.18523 6.34266 8.11181 6.39545L6.24099 7.73232L9.04975 6.11122C9.12859 6.06487 9.22976 6.09058 9.27849 6.16875C9.32653 6.24657 9.30386 6.34842 9.22773 6.39883L8.88226 6.62689L9.77554 6.11156C9.85303 6.06656 9.95251 6.09058 10.0016 6.16502C10.051 6.24014 10.033 6.3403 9.96097 6.39376L7.78461 8.0108L11.0749 6.11156C11.1537 6.06521 11.2552 6.09092 11.3036 6.16908C11.3516 6.24691 11.329 6.34876 11.2528 6.39951L10.9243 6.61572L11.7976 6.1119C11.8764 6.06554 11.9776 6.09092 12.026 6.16908C12.0744 6.24657 12.0521 6.34808 11.9763 6.39917L11.2373 6.89284L12.5901 6.1119C12.6675 6.06622 12.7684 6.09092 12.8171 6.16705C12.8662 6.24319 12.8462 6.34402 12.7724 6.39646L11.017 7.63826L13.6606 6.1119C13.7381 6.06588 13.8383 6.09058 13.8873 6.16672C13.9364 6.24251 13.9171 6.343 13.8437 6.39579L11.9597 7.74451L14.7877 6.1119C14.8672 6.06622 14.9674 6.09092 15.0158 6.16841C15.0642 6.24555 15.0429 6.34673 14.9674 6.39816L13.7868 7.20245L15.6759 6.1119C15.7544 6.06622 15.8542 6.09092 15.903 6.16705C15.952 6.24319 15.9321 6.34402 15.8583 6.39646L14.0971 7.643L16.7489 6.11224C16.826 6.06622 16.9262 6.09126 16.9752 6.16638C17.0246 6.24183 17.0057 6.34266 16.9329 6.39545L14.8977 7.87714L17.9551 6.11224C18.0343 6.06656 18.1345 6.0916 18.1829 6.16841C18.2316 6.24555 18.2103 6.34673 18.1352 6.39849L16.8798 7.25659L18.8623 6.11224C18.9394 6.06622 19.0399 6.09092 19.0893 6.16705C19.1381 6.24319 19.1188 6.34402 19.045 6.39646L17.2135 7.70052L19.9654 6.11224C20.0442 6.06588 20.1454 6.09126 20.1938 6.16942C20.2421 6.24758 20.2195 6.34909 20.1437 6.39985L19.649 6.72738L20.7145 6.11258C20.791 6.06724 20.8908 6.09058 20.9402 6.1657C20.9896 6.24048 20.9723 6.34063 20.9006 6.3941L18.664 8.07441L21.5909 6.38462C21.668 6.3386 21.7682 6.3633 21.8176 6.4391C21.8666 6.51489 21.8477 6.61539 21.7743 6.66817L20.2066 7.79797L21.7211 6.92364C21.7976 6.87863 21.8971 6.90198 21.9465 6.97608C21.9959 7.05018 21.9796 7.15 21.9086 7.20414L20.6363 8.1793L21.7211 7.55299C21.7969 7.50833 21.8947 7.531 21.9448 7.60307C21.9949 7.67514 21.981 7.77428 21.9126 7.83011L21.1757 8.43274L21.7208 8.11806C21.7932 8.07543 21.8866 8.0937 21.9387 8.16002C21.9908 8.22634 21.9861 8.32108 21.9275 8.38164L21.4501 8.87836L21.7211 8.72204C21.802 8.67467 21.9059 8.70275 21.9522 8.78396C21.9993 8.86483 21.9715 8.96837 21.8903 9.01506L20.5852 9.7686C20.5128 9.81123 20.4194 9.7933 20.3673 9.72664C20.3156 9.66032 20.32 9.56558 20.3785 9.50501L20.8556 9.00863L19.539 9.7686C19.4632 9.81292 19.3651 9.79059 19.3154 9.71852C19.2653 9.64611 19.2792 9.54731 19.3475 9.49148L20.0851 8.88817L18.5595 9.76894C18.483 9.81394 18.3835 9.79059 18.3341 9.71649C18.2847 9.64239 18.301 9.54257 18.372 9.48843L19.6436 8.51361L17.4693 9.76894C17.3914 9.81428 17.2916 9.78991 17.2426 9.71446C17.1935 9.639 17.2124 9.53817 17.2859 9.48539L18.8535 8.35559L16.4058 9.76894C16.3283 9.81394 16.2295 9.79025 16.1801 9.71581C16.1307 9.64137 16.1479 9.54088 16.2197 9.48742L18.4566 7.8071L15.0581 9.76894C15.0313 9.7845 15.0022 9.79161 14.9735 9.79161L14.9731 9.79059Z" fill="#4DFC87"/>
<path d="M9.88551 21.9812C9.82935 21.9812 9.77453 21.9531 9.74239 21.9023C9.69366 21.8255 9.71464 21.7243 9.78976 21.6726L10.7409 21.0182L9.72919 21.6025C9.6517 21.6479 9.55121 21.6235 9.50215 21.5477C9.45342 21.4716 9.47271 21.3708 9.54647 21.3183L11.3713 20.0197L9.72919 20.9674C9.65035 21.0134 9.54986 20.9884 9.50113 20.9109C9.45275 20.8334 9.4744 20.7323 9.54986 20.6808L10.3998 20.1046L9.72953 20.4917C9.6517 20.5377 9.55121 20.5127 9.50249 20.4365C9.45342 20.3604 9.47339 20.2596 9.54715 20.2071L11.2894 18.9734L9.72919 19.8742C9.65137 19.9195 9.55121 19.8951 9.50249 19.8197C9.45342 19.7436 9.47271 19.6431 9.5458 19.5903L11.507 18.1813L9.72919 19.2076C9.65204 19.2533 9.55256 19.2292 9.50282 19.1535C9.45342 19.078 9.47203 18.9775 9.54478 18.9244L11.709 17.3452L9.72851 18.4886C9.65103 18.5342 9.5502 18.5095 9.50113 18.4331C9.45241 18.3566 9.47271 18.2558 9.54681 18.2037L11.1205 17.0999L9.72851 17.9035C9.64967 17.9499 9.54918 17.9245 9.50046 17.847C9.45207 17.7695 9.47373 17.6684 9.54918 17.6169L10.3758 17.057L9.72818 17.4305C9.65137 17.4765 9.55155 17.4518 9.50215 17.377C9.45275 17.3016 9.47068 17.2014 9.54309 17.148L11.8575 15.4372L9.72818 16.6665C9.65035 16.7122 9.5502 16.6875 9.50079 16.611C9.45207 16.5345 9.47237 16.4337 9.54647 16.3816L11.1013 15.2924L9.72784 16.0852C9.65069 16.1309 9.55155 16.1065 9.50181 16.0317C9.45241 15.9563 9.47034 15.8561 9.54275 15.8026L11.8568 14.0922L9.72784 15.3211C9.64934 15.3675 9.54884 15.3421 9.50012 15.265C9.45139 15.1882 9.47237 15.087 9.54749 15.0352L10.6989 14.2445L9.7275 14.8051C9.65001 14.8505 9.54952 14.8261 9.50079 14.7503C9.45173 14.6745 9.47102 14.5737 9.54444 14.5209L11.4237 13.1783L9.7275 14.1575C9.649 14.2032 9.5485 14.1785 9.50012 14.1017C9.45139 14.0252 9.4717 13.924 9.54647 13.8723L10.9757 12.8778L9.72784 13.5982C9.65069 13.6439 9.55087 13.6199 9.50147 13.5441C9.45207 13.4686 9.47068 13.3681 9.54343 13.315L11.7076 11.7358L9.7275 12.8788C9.64798 12.9249 9.54715 12.8995 9.4991 12.8217C9.45072 12.7442 9.47305 12.6427 9.5485 12.5916L9.95048 12.3229L9.72716 12.4518C9.65035 12.4968 9.55155 12.4738 9.50215 12.3997C9.45275 12.326 9.46865 12.2261 9.53903 12.1717L11.4416 10.6998L9.72682 11.6898C9.65137 11.7338 9.55493 11.7125 9.50452 11.6414C9.4541 11.5704 9.4656 11.4723 9.53159 11.4154L10.7781 10.3371L9.72716 10.9437C9.65137 10.9881 9.55358 10.9657 9.5035 10.894C9.45376 10.8216 9.4673 10.7231 9.53497 10.667L9.78637 10.4592L9.72682 10.4937C9.66287 10.5303 9.58166 10.5215 9.52719 10.4714C9.47271 10.421 9.45748 10.3408 9.48997 10.2738L9.76607 9.70228C9.70178 9.70939 9.63445 9.67927 9.59994 9.6187C9.5529 9.53784 9.58065 9.4343 9.66186 9.3876L10.0625 9.15616C10.1264 9.11928 10.2076 9.12808 10.2621 9.17849C10.3166 9.22891 10.3318 9.3091 10.2993 9.3761L10.0337 9.92594L11.3692 9.15515C11.4447 9.11082 11.5428 9.13281 11.5929 9.20489C11.6426 9.2773 11.6291 9.37576 11.5614 9.43193L11.3097 9.63968L12.1502 9.15447C12.2253 9.11116 12.3221 9.1318 12.3725 9.20286C12.4229 9.27391 12.4114 9.37204 12.3454 9.42888L11.0992 10.5072L13.4434 9.15379C13.5202 9.10879 13.6194 9.1318 13.6684 9.2059C13.7178 9.27966 13.7019 9.37948 13.6315 9.43396L11.7299 10.9052L14.2453 9.45291C14.3245 9.40689 14.425 9.43193 14.4737 9.51009C14.5221 9.58758 14.4998 9.68908 14.4243 9.74018L14.0203 10.0102L14.2782 9.86165C14.3556 9.81631 14.4551 9.84033 14.5045 9.91579C14.5539 9.99124 14.5353 10.0917 14.4626 10.1449L12.2991 11.7237L14.2788 10.5807C14.3563 10.535 14.4578 10.5594 14.5062 10.6365C14.5549 10.713 14.5346 10.8141 14.4599 10.8659L13.0296 11.8614L14.2788 11.14C14.3563 11.094 14.4565 11.1183 14.5055 11.1948C14.5546 11.2706 14.5353 11.3714 14.4619 11.4242L12.5823 12.7672L14.2795 11.7873C14.359 11.7419 14.4585 11.7666 14.5072 11.8434C14.5559 11.9203 14.535 12.0214 14.4599 12.0732L13.3084 12.864L14.2798 12.3033C14.3573 12.2583 14.4565 12.2823 14.5059 12.3567C14.5553 12.4322 14.5373 12.5324 14.4649 12.5858L12.1509 14.2966L14.2805 13.067C14.359 13.0213 14.4588 13.046 14.5079 13.1225C14.5566 13.1989 14.5363 13.2998 14.4622 13.3519L12.9081 14.4404L14.2812 13.6479C14.3587 13.6026 14.4582 13.627 14.5072 13.7014C14.5566 13.7769 14.5387 13.877 14.4663 13.9305L12.1505 15.6423L14.2819 14.412C14.3607 14.3666 14.4615 14.391 14.5099 14.4685C14.5583 14.546 14.5367 14.6471 14.4612 14.6986L13.637 15.2569L14.2819 14.8843C14.3594 14.8386 14.4602 14.8633 14.5093 14.9398C14.558 15.0163 14.5377 15.1171 14.4636 15.1692L12.8909 16.2723L14.2822 15.469C14.3597 15.424 14.4592 15.4477 14.5086 15.5232C14.558 15.5986 14.5394 15.6991 14.4666 15.7522L12.3018 17.3317L14.2829 16.188C14.3604 16.142 14.4609 16.1671 14.5096 16.2425C14.5587 16.3186 14.5394 16.4191 14.4663 16.4719L12.5048 17.8809L14.2836 16.8543C14.3614 16.8086 14.4619 16.8333 14.5106 16.9094C14.5597 16.9856 14.5397 17.0864 14.4659 17.1388L12.7251 18.3715L14.2836 17.4718C14.3627 17.4258 14.4632 17.4511 14.5116 17.5283C14.56 17.6058 14.5384 17.707 14.4629 17.7584L13.6099 18.337L14.2842 17.9479C14.3614 17.9022 14.4619 17.9265 14.5113 18.0027C14.56 18.0788 14.5407 18.1796 14.467 18.2321L12.6432 19.5304L14.2846 18.5826C14.3638 18.537 14.4639 18.5617 14.5123 18.6388C14.561 18.7156 14.54 18.8168 14.4649 18.8686L13.5124 19.524L14.2853 19.078C14.3617 19.033 14.4615 19.0567 14.5106 19.1304C14.56 19.2045 14.5438 19.3044 14.4727 19.3585L13.1588 20.3651L14.2856 19.7148C14.3604 19.6705 14.4575 19.6918 14.5086 19.7639C14.5587 19.8356 14.5461 19.9337 14.4795 19.9902L13.6139 20.7248L14.2859 20.3371C14.3594 20.2937 14.4544 20.3134 14.5059 20.3824C14.5573 20.4511 14.5492 20.5472 14.4866 20.6061L14.1293 20.9451L14.2859 20.8547C14.3435 20.8212 14.4159 20.8253 14.47 20.8642C14.5238 20.9031 14.5499 20.9705 14.536 21.0361L14.4284 21.547C14.4646 21.5602 14.4971 21.5856 14.5181 21.6218C14.5647 21.703 14.537 21.8066 14.4558 21.8533L14.2859 21.951C14.2277 21.9842 14.1567 21.9805 14.1019 21.9412C14.0481 21.9023 14.022 21.835 14.0359 21.7693L14.1269 21.3376L13.06 21.9534C12.9863 21.9964 12.8915 21.9771 12.8401 21.9081C12.7887 21.8394 12.7968 21.7433 12.8594 21.6844L13.2164 21.3454L12.16 21.9554C12.0849 22.0001 11.9878 21.9785 11.937 21.9064C11.8869 21.8347 11.8995 21.7365 11.9661 21.68L12.832 20.9454L11.0782 21.9575C11.0018 22.0025 10.9023 21.9791 10.8529 21.905C10.8035 21.8309 10.8197 21.7311 10.8908 21.677L12.2053 20.6697L9.97078 21.9595C9.94405 21.9751 9.91495 21.9822 9.88619 21.9822L9.88551 21.9812Z" fill="#2A904C"/>
<path d="M9.96028 9.80006C9.90513 9.80006 9.85099 9.77266 9.81851 9.72292C9.76911 9.64746 9.78772 9.54697 9.86046 9.49384L11.6961 8.15562L9.72952 9.29083C9.65068 9.33684 9.55018 9.31147 9.50146 9.23432C9.45307 9.15683 9.47473 9.05533 9.55018 9.00423L9.88483 8.77787L9.72952 8.86753C9.65271 8.91186 9.55458 8.88953 9.50518 8.81644C9.45544 8.74302 9.47033 8.64354 9.54003 8.58872L10.8505 7.55028L9.72986 8.19723C9.65406 8.24156 9.55661 8.21991 9.50654 8.14783C9.45646 8.07576 9.46965 7.9773 9.53699 7.92113L10.1802 7.38449L9.72986 7.64469C9.65474 7.68901 9.55831 7.66736 9.50789 7.59664C9.45713 7.52592 9.4683 7.42813 9.53394 7.37095L9.68452 7.23865C9.63782 7.24982 9.58673 7.24068 9.54612 7.21124C9.49199 7.17233 9.46627 7.105 9.4798 7.03969L9.58876 6.51489C9.55221 6.50169 9.51973 6.47632 9.49841 6.43977C9.45172 6.35857 9.47947 6.25503 9.56067 6.20833L9.73053 6.11055C9.78907 6.07772 9.86046 6.08145 9.91426 6.12002C9.9684 6.15927 9.99412 6.22627 9.98058 6.29157L9.88787 6.73821L10.9801 6.10784C11.0549 6.06419 11.1517 6.08483 11.2021 6.15589C11.2528 6.2266 11.2417 6.32439 11.176 6.38158L11.0518 6.49019L11.7171 6.10649C11.7932 6.06216 11.8903 6.08382 11.9404 6.15589C11.9905 6.22796 11.9773 6.32642 11.9099 6.38259L11.267 6.9189L12.6784 6.10412C12.7545 6.05878 12.8533 6.08212 12.9027 6.15521C12.9524 6.22863 12.9375 6.32811 12.8678 6.38293L11.557 7.42171L13.8437 6.10175C13.9232 6.05607 14.023 6.08145 14.0717 6.15826C14.1201 6.23574 14.0985 6.33725 14.023 6.38834L13.6907 6.61302L14.2781 6.27398C14.3556 6.22863 14.4551 6.253 14.5045 6.32811C14.5539 6.40323 14.5353 6.50406 14.4625 6.55719L12.6256 7.89643L14.2802 6.94157C14.3577 6.89555 14.4582 6.92025 14.5069 6.99638C14.5559 7.07218 14.5367 7.17267 14.4632 7.22545L13.729 7.75127L14.2815 7.43253C14.3573 7.38787 14.4551 7.40986 14.5052 7.48227C14.5549 7.55468 14.5414 7.65315 14.4737 7.70931L13.554 8.46928L14.2832 8.04835C14.3553 8.00606 14.448 8.02332 14.5004 8.08964C14.5526 8.15494 14.5488 8.249 14.4916 8.31025L13.9323 8.90881L14.2856 8.70478C14.3533 8.66485 14.4399 8.67771 14.494 8.73591C14.5475 8.79377 14.5546 8.88107 14.5103 8.94603L14.3719 9.15041C14.4301 9.15041 14.4869 9.18086 14.518 9.235C14.5651 9.31587 14.5373 9.4194 14.4561 9.4661L13.9327 9.7686C13.8643 9.80785 13.778 9.79533 13.7242 9.73747C13.6708 9.67961 13.6637 9.59231 13.708 9.52734L13.8173 9.36561L13.1169 9.76995C13.0448 9.81224 12.9521 9.79465 12.8996 9.72867C12.8475 9.66337 12.8513 9.5693 12.9084 9.50806L13.4681 8.90949L11.9732 9.77232C11.8974 9.81664 11.7996 9.79499 11.7499 9.72258C11.6998 9.65017 11.7133 9.5517 11.781 9.49554L12.7014 8.73523L10.9003 9.77469C10.8228 9.82003 10.7223 9.79566 10.6736 9.71987C10.6245 9.64408 10.6438 9.54358 10.7172 9.4908L11.4508 8.96532L10.0459 9.77638C10.0195 9.79194 9.99006 9.79905 9.9613 9.79905L9.96028 9.80006Z" fill="#2A904C"/>
<path d="M21.939 6.46955C20.9378 5.6409 19.29 6.26857 18.0587 6.096C19.3925 5.56409 19.7979 3.70174 18.7435 2.69815C16.7526 1.22052 13.7253 2.60747 12.0696 4.06616C10.4695 2.53912 7.65603 1.28312 5.56562 2.46705C4.31705 3.32176 4.36747 5.37461 5.71078 6.09397C4.42499 6.25706 1.64127 5.36987 1.94411 7.51611C1.94411 8.22769 1.67849 9.58047 2.62185 9.76116C3.23903 23.8885 -0.2539 21.8215 9.41958 21.9196C10.93 21.9541 12.5887 21.8956 14.1496 21.9196C14.2271 22.0377 14.4544 22.0228 14.5617 21.9196C24.2653 22.016 20.7595 23.3265 21.3838 9.72597C22.4689 9.37982 22.0943 7.33949 21.939 6.46955ZM16.6034 2.29956C18.8911 1.96729 19.7728 5.45345 17.5268 6.096C16.2102 6.10378 14.9038 6.0801 13.6014 6.096V5.04064C14.963 4.83695 16.7452 5.52552 17.8614 4.61735C18.5716 2.28264 14.3901 3.79513 13.5341 4.5463C13.3639 4.11285 12.8648 4.06379 12.4591 4.08747C13.5649 3.00776 15.0608 2.37197 16.6034 2.29956ZM14.1222 19.883V21.7057H9.88145V9.78349H14.1222V19.883ZM13.6112 9.4793H9.88145V6.39951H14.1222V9.4793H13.6112ZM6.82501 3.65741C8.01977 3.6652 9.22367 4.0445 10.1697 4.7818C9.38067 4.69179 5.28308 5.3154 6.82501 3.65741ZM10.8945 5.11001C10.8086 4.19474 11.355 4.37542 11.9999 4.34801C13.2888 4.10473 13.1335 5.18716 13.1111 6.096H10.8945V5.10967V5.11001ZM13.7994 4.74864C14.3756 4.04078 18.464 2.77902 17.2669 4.72258C16.1263 4.79736 14.9515 4.72394 13.7994 4.74864ZM5.14875 4.08781C5.62212 0.998214 9.92205 2.68123 11.4166 4.09255C11.0809 4.10304 10.7169 4.23196 10.5358 4.53073C9.66151 3.73964 5.47358 2.37772 6.14388 4.69653C7.32612 5.42435 9.03926 4.82511 10.4049 5.01087C10.4029 5.37258 10.4049 5.73429 10.4042 6.096C8.58517 5.95524 5.18462 6.84818 5.14841 4.08747L5.14875 4.08781ZM2.43677 8.32514C2.5085 7.65789 2.09367 6.23778 3.1612 6.39985C5.24113 6.39985 7.30921 6.40459 9.38743 6.39985V9.47964C7.24525 9.47558 5.09935 9.48539 2.9592 9.47964C2.3427 9.4123 2.43677 8.76874 2.43677 8.32514ZM4.94844 21.7061C3.21771 21.9169 2.94228 21.4976 3.11248 19.8082C3.11248 16.4723 3.11248 13.1363 3.11248 9.80041C5.20729 9.80447 7.29364 9.76826 9.38743 9.78383V21.7061H4.94844ZM20.566 21.7061H14.6206V9.78349H20.8935V19.9395C20.8935 20.2261 21.0661 21.6655 20.566 21.7057V21.7061ZM21.1747 9.47998H14.6206V6.40019C16.7482 6.40594 18.8792 6.39139 21.0051 6.40019C21.8142 6.46448 21.5692 7.74383 21.5692 8.29976C21.5692 8.65741 21.6914 9.43091 21.1747 9.47998Z" fill="#262626"/>
</svg>
