<svg width="24" height="24" viewBox="0 0 24 24" fill="none" xmlns="http://www.w3.org/2000/svg">
<path d="M12.1401 7.12624C12.0842 7.12624 12.0296 7.09811 11.9978 7.04755C11.9499 6.97088 11.9716 6.87043 12.0467 6.81987L12.4819 6.52689C12.4133 6.54999 12.3359 6.52522 12.2931 6.46327C12.2435 6.39195 12.2566 6.29452 12.3236 6.23894L13.4884 5.27195C13.4312 5.26994 13.3696 5.24382 13.3378 5.18824C13.2912 5.10822 13.3187 5.00576 13.399 4.95955L14.9402 4.06958C15.0152 4.02605 15.1117 4.04781 15.1612 4.1188C15.2108 4.18978 15.1977 4.28755 15.1308 4.34313L14.055 5.23646L16.5042 3.82214C16.5826 3.77694 16.6824 3.80171 16.7299 3.87839C16.7778 3.95506 16.7564 4.05551 16.6814 4.10607L16.291 4.36858L17.1387 3.87906C17.2184 3.83285 17.3212 3.85997 17.3674 3.94033C17.414 4.02036 17.3865 4.12281 17.3062 4.16902L12.2238 7.10313C12.1973 7.1182 12.1685 7.12557 12.1401 7.12557V7.12624Z" fill="#E5283F"/>
<path d="M11.6077 20.0316C11.5518 20.0316 11.4969 20.0034 11.4654 19.9526C11.4175 19.8759 11.4393 19.7754 11.5143 19.7249L15.5048 17.0549L10.9411 19.6897C10.862 19.7356 10.7609 19.7095 10.714 19.6315C10.6668 19.5534 10.6909 19.452 10.7679 19.4031L13.3471 17.7725L10.4415 19.45C10.3625 19.4962 10.2613 19.4697 10.2145 19.3914C10.1676 19.313 10.1917 19.2119 10.269 19.163L13.1144 17.378L9.96034 19.1989C9.88132 19.2447 9.7802 19.2186 9.73332 19.1403C9.68645 19.0619 9.71055 18.9608 9.7879 18.9119L13.4694 16.6016L9.45943 18.9166C9.38041 18.9625 9.27929 18.9367 9.23242 18.858C9.1852 18.7803 9.20931 18.6785 9.28666 18.63L13.9535 15.6929L8.92939 18.5935C8.85004 18.6394 8.74892 18.6129 8.70205 18.5349C8.65517 18.4569 8.67928 18.3551 8.75696 18.3065L13.6103 15.268L8.42213 18.263C8.34277 18.3092 8.24098 18.2828 8.19444 18.2037C8.14757 18.1251 8.17268 18.0233 8.25069 17.9751L10.5999 16.5363L8.05248 18.0072C7.97379 18.0531 7.87267 18.0269 7.82546 17.9489C7.77825 17.8709 7.80236 17.7695 7.87937 17.7206L14.4373 13.5811L7.48862 17.593C7.4096 17.6389 7.30815 17.6124 7.26127 17.5341C7.2144 17.4557 7.23917 17.3539 7.31686 17.3057L12.2044 14.2822L7.05803 17.2535C6.97868 17.2994 6.87722 17.2732 6.83068 17.1946C6.78347 17.1162 6.80825 17.0148 6.88593 16.9662L12.6487 13.3869L6.60434 16.8765C6.52498 16.9223 6.42386 16.8959 6.37699 16.8175C6.33011 16.7392 6.35489 16.6374 6.43257 16.5892L12.204 13.0119L6.17073 16.4951C6.09104 16.5413 5.98993 16.5149 5.94305 16.4358C5.89617 16.3572 5.92129 16.2554 5.99964 16.2072L9.97105 13.777L5.82285 16.1717C5.74316 16.2179 5.6417 16.1911 5.59483 16.1121C5.54829 16.033 5.57407 15.9309 5.65242 15.8834L7.00446 15.0654L5.54895 15.9058C5.4696 15.952 5.36781 15.9252 5.32127 15.8462C5.27439 15.7675 5.29984 15.6657 5.37819 15.6179L8.50617 13.7133L5.24426 15.5964C5.16491 15.643 5.06312 15.6158 5.01624 15.5365C4.9697 15.4578 4.99548 15.3557 5.07383 15.3081L5.98356 14.7587L4.9928 15.3306C4.91345 15.3768 4.81233 15.3503 4.76545 15.2716C4.71858 15.193 4.74335 15.0915 4.82103 15.0433L11.0616 11.1767L4.61143 14.9006C4.53174 14.9469 4.43062 14.9201 4.38375 14.841C4.33687 14.7624 4.36232 14.6606 4.44067 14.6127L8.05649 12.4068L4.32716 14.5598C4.24781 14.6057 4.14635 14.5792 4.09981 14.5009C4.0526 14.4225 4.07738 14.3211 4.15506 14.2725L10.5697 10.288L3.97124 14.0974C3.89222 14.1433 3.79043 14.1168 3.74389 14.0385C3.69701 13.9601 3.72179 13.8583 3.79947 13.8101L9.88533 10.0342L3.64947 13.6343C3.56978 13.6805 3.46832 13.6534 3.42178 13.5747C3.37491 13.496 3.40035 13.3942 3.4787 13.3464L6.20589 11.6856L3.4325 13.2868C3.35314 13.333 3.25169 13.3065 3.20481 13.2275C3.15794 13.1488 3.18305 13.047 3.26106 12.9991L7.37913 10.4692L3.20749 12.8776C3.12847 12.9235 3.02735 12.8977 2.98048 12.819C2.93327 12.741 2.95771 12.6395 3.03472 12.591L4.365 11.7543L3.04175 12.518C2.9624 12.5639 2.86128 12.5374 2.8144 12.4594C2.76719 12.3811 2.79197 12.2793 2.86931 12.231L3.38127 11.912L2.90681 12.1858C2.82846 12.2314 2.72768 12.2059 2.68013 12.1283C2.63259 12.0509 2.65603 11.9495 2.73237 11.9002L5.82619 9.90365L2.73471 11.6886C2.65636 11.7342 2.55558 11.7087 2.50803 11.6307C2.46082 11.553 2.48426 11.4519 2.56093 11.4027L5.13511 9.75364L2.60279 11.2158C2.52377 11.2614 2.42265 11.2356 2.37577 11.1576C2.32856 11.0796 2.35267 10.9781 2.42968 10.9292L3.92403 9.98468L2.51473 10.7986C2.43571 10.8438 2.33492 10.8181 2.28771 10.7404C2.2405 10.6624 2.26428 10.5613 2.34129 10.5124L4.06867 9.41446L2.44743 10.3503C2.36874 10.3958 2.26829 10.3704 2.22075 10.2924C2.1732 10.215 2.19664 10.1136 2.27298 10.0644L4.54045 8.60384L2.40423 9.83735C2.32622 9.88255 2.22577 9.85778 2.17822 9.78077C2.13034 9.70409 2.15244 9.60331 2.22778 9.55308L5.41435 7.43361L2.40591 9.17405C2.32856 9.21926 2.22845 9.19448 2.18057 9.11814C2.13235 9.0418 2.15311 8.94168 2.22744 8.89079L5.53623 6.62533L2.50301 8.37682C2.42432 8.42169 2.32388 8.39658 2.27666 8.31957C2.22912 8.24222 2.25189 8.1411 2.32789 8.09155L3.40303 7.39142L2.63761 7.8334C2.5596 7.87826 2.45982 7.85349 2.41194 7.77748C2.36405 7.70114 2.38515 7.60069 2.45982 7.55013L4.09412 6.44084L2.90112 7.12958C2.82311 7.17512 2.72266 7.14967 2.67511 7.073C2.62723 6.99632 2.64933 6.8952 2.72467 6.84531L3.13081 6.57511C3.07691 6.57511 3.02434 6.54899 2.9922 6.50178C2.94298 6.42912 2.95804 6.33068 3.02702 6.27644L4.13631 5.40052C4.08977 5.39182 4.04758 5.36369 4.02213 5.3195C3.97592 5.23947 4.00338 5.13701 4.08341 5.09081L5.74818 4.12985C5.82385 4.08565 5.92095 4.10842 5.97051 4.18074C6.01973 4.2534 6.00466 4.35184 5.93568 4.40608L5.04571 5.10889L7.26496 3.82749C7.34331 3.78263 7.44376 3.80707 7.49097 3.88408C7.53885 3.96076 7.51675 4.06188 7.44141 4.11176L7.3279 4.1871L7.9152 3.84792C7.99321 3.80272 8.09299 3.82749 8.14087 3.90384C8.18875 3.98018 8.16766 4.08063 8.09299 4.13118L6.45802 5.24081L8.63608 3.98319C8.71443 3.93765 8.81488 3.9631 8.86243 4.04045C8.90998 4.11779 8.88721 4.21891 8.8112 4.26847L7.73606 4.96859L9.14302 4.1563C9.22137 4.11176 9.32081 4.13587 9.36836 4.21221C9.41657 4.28855 9.39581 4.38867 9.32148 4.43956L6.01336 6.70469L9.8254 4.50385C9.90408 4.45898 10.0039 4.48376 10.0514 4.56044C10.0993 4.63711 10.0772 4.7379 10.0019 4.78812L6.81562 6.90726L10.3444 4.86982C10.4231 4.82495 10.5235 4.8504 10.5711 4.92774C10.6186 5.00509 10.5952 5.10654 10.5188 5.15576L8.25003 6.61696L10.7117 5.19561C10.7904 5.14974 10.8912 5.17585 10.9387 5.25387C10.9859 5.33188 10.9621 5.433 10.8851 5.48189L9.15808 6.57946L11.005 5.51303C11.0837 5.46715 11.1848 5.49327 11.232 5.57129C11.2792 5.6493 11.2551 5.75076 11.1781 5.79964L9.68343 6.7442L11.2571 5.83547C11.3358 5.79027 11.4366 5.81571 11.4838 5.89339C11.531 5.97107 11.5076 6.07219 11.4309 6.12141L8.8554 7.77112L11.5143 6.23626C11.5933 6.19106 11.6937 6.2165 11.741 6.29385C11.7885 6.3712 11.7651 6.47265 11.6887 6.52187L8.59624 8.51779L11.746 6.69933C11.8247 6.65379 11.9261 6.67957 11.9733 6.75826C12.0205 6.83661 11.9958 6.93806 11.9184 6.98661L11.4068 7.3057L11.8789 7.03315C11.9576 6.98762 12.0587 7.0134 12.1059 7.09175C12.1531 7.16976 12.1287 7.27155 12.0517 7.3201L10.7227 8.15584L17.8452 4.04346C17.9246 3.99792 18.0257 4.02404 18.0729 4.10272C18.1198 4.18141 18.0947 4.2832 18.0167 4.33108L13.8932 6.86406L18.4158 4.25306C18.4948 4.20719 18.5966 4.23364 18.6435 4.31266C18.6903 4.39135 18.6649 4.49347 18.5866 4.54102L15.8587 6.20244L18.8578 4.47104C18.9368 4.4255 19.0376 4.45128 19.0851 4.52997C19.1323 4.60832 19.1075 4.71011 19.0299 4.75832L12.9457 8.53319L19.3988 4.80721C19.4779 4.76133 19.579 4.78779 19.6262 4.86614C19.6734 4.94449 19.6486 5.04627 19.571 5.09449L13.1593 9.07729L19.8867 5.19293C19.9657 5.14706 20.0675 5.17317 20.1144 5.25253C20.1613 5.33121 20.1358 5.43334 20.0578 5.48088L16.4376 7.68942L20.2152 5.50834C20.2942 5.4628 20.3956 5.48858 20.4425 5.56727C20.4897 5.64562 20.4646 5.74741 20.3873 5.79562L14.147 9.6619L20.5848 5.94496C20.6645 5.89875 20.7656 5.92554 20.8128 6.00489C20.8597 6.08391 20.8336 6.18603 20.7552 6.23358L19.8442 6.78337L20.7901 6.23726C20.8698 6.19106 20.9712 6.21784 21.0177 6.29686C21.0646 6.37555 21.0392 6.47767 20.9608 6.52522L17.8335 8.42906L21.0007 6.60055C21.08 6.55468 21.1815 6.58113 21.2287 6.66049C21.2756 6.73951 21.2495 6.84163 21.1711 6.88884L19.8241 7.70382L21.1597 6.9327C21.2391 6.88683 21.3402 6.91295 21.3874 6.9923C21.4343 7.07099 21.4088 7.17278 21.3308 7.22066L17.3547 9.65387L21.3255 7.36129C21.4048 7.31541 21.5059 7.34187 21.5528 7.42022C21.6 7.49857 21.5749 7.60035 21.4976 7.64857L15.7278 11.2246L21.4788 7.90405C21.5582 7.85817 21.6586 7.88429 21.7062 7.96298C21.7534 8.04133 21.7286 8.14311 21.6509 8.19133L15.8875 11.7713L21.5813 8.48397C21.6603 8.4381 21.7617 8.46455 21.8086 8.54323C21.8558 8.62158 21.8307 8.72337 21.753 8.77159L16.8685 11.7931L21.6241 9.04749C21.7031 9.00229 21.8039 9.02807 21.8511 9.10608C21.8984 9.1841 21.8742 9.28555 21.7972 9.3341L15.2346 13.4766L21.605 9.79851C21.6841 9.75297 21.7852 9.77876 21.8327 9.85811C21.8796 9.9368 21.8542 10.0386 21.7761 10.0865L19.4333 11.5215L21.5434 10.3031C21.6228 10.2576 21.7236 10.2833 21.7708 10.3617C21.818 10.44 21.7932 10.5415 21.7162 10.59L16.8622 13.6293L21.3998 11.0093C21.4791 10.9641 21.5799 10.9895 21.6268 11.0679C21.6744 11.1459 21.6499 11.2477 21.5729 11.2962L16.907 14.2323L21.1637 11.7747C21.2428 11.7295 21.3439 11.7549 21.3911 11.8333C21.4383 11.9113 21.4139 12.0131 21.3365 12.0613L17.651 14.3746L20.8467 12.5297C20.9257 12.4842 21.0268 12.5096 21.074 12.5883C21.1212 12.6663 21.0968 12.7678 21.0194 12.8167L18.1767 14.6L20.392 13.3213C20.471 13.2754 20.5718 13.3015 20.619 13.3795C20.6662 13.4575 20.6421 13.559 20.5654 13.6079L17.9855 15.2388L19.7297 14.232C19.808 14.1861 19.9075 14.2116 19.9557 14.2882C20.0036 14.3649 19.9815 14.4657 19.9068 14.5163L15.9143 17.1872L18.2494 15.8395C18.3277 15.7943 18.4268 15.8187 18.4747 15.8951C18.5229 15.9714 18.5018 16.0715 18.4275 16.1224L16.1008 17.7162C16.1363 17.7293 16.1677 17.7544 16.1882 17.7899C16.2347 17.8699 16.2073 17.9724 16.1269 18.0186L13.1446 19.7406C13.0666 19.7865 12.9671 19.7614 12.9192 19.685C12.871 19.6087 12.8921 19.5086 12.9664 19.4577L14.6496 18.3049L11.6944 20.0108C11.668 20.0262 11.6392 20.0332 11.6107 20.0332L11.6077 20.0316Z" fill="#E5283F"/>
<path d="M7.27567 17.6292C8.72213 18.639 10.3059 19.7768 12.04 20.1411C15.7747 18.719 19.3359 16.0625 21.2511 12.4966C24.6627 6.08726 15.8718 0.0653489 12.0363 6.68895C6.49016 -1.67945 -4.35866 9.78579 7.27567 17.6292ZM2.67243 8.09122C3.47837 3.41565 10.333 2.66731 11.7677 7.34488C11.8253 7.50895 12.2101 7.36765 12.2522 7.24677C17.2834 -2.47065 30.1104 12.1129 12.0875 19.8695C7.47623 17.9339 1.72788 13.7421 2.67243 8.09122Z" fill="#262626"/>
</svg>
