<svg width="24" height="24" viewBox="0 0 24 24" fill="none" xmlns="http://www.w3.org/2000/svg">
<path d="M6.974 20.8466C6.93779 20.8466 6.90254 20.835 6.87348 20.8135C6.84441 20.792 6.82308 20.7617 6.81265 20.7272C6.80221 20.6926 6.80323 20.6557 6.81554 20.6218C6.82785 20.5879 6.85081 20.5588 6.88101 20.5389L11.2946 17.6231L6.31331 20.4866C6.27542 20.5077 6.23081 20.5134 6.18878 20.5025C6.14676 20.4917 6.11056 20.4651 6.08775 20.4283C6.06493 20.3915 6.05726 20.3474 6.06633 20.3051C6.0754 20.2628 6.10051 20.2256 6.13642 20.2014L10.5837 17.2791L6.31331 19.7343C6.27526 19.7558 6.23028 19.7618 6.18789 19.7509C6.14549 19.74 6.10903 19.7131 6.08621 19.6759C6.06339 19.6387 6.05601 19.5941 6.06563 19.5516C6.07526 19.5091 6.10113 19.4719 6.13777 19.4481L9.34858 17.3768L6.31331 19.1216C6.2753 19.1424 6.23069 19.1478 6.18878 19.1367C6.14686 19.1256 6.11087 19.0988 6.08829 19.0619C6.06571 19.025 6.05829 18.9809 6.06757 18.9387C6.07685 18.8965 6.10212 18.8595 6.13811 18.8354L8.58614 17.2677L6.31331 18.5747C6.27518 18.5952 6.23056 18.6004 6.18873 18.589C6.14689 18.5776 6.11107 18.5506 6.08872 18.5136C6.06637 18.4766 6.0592 18.4325 6.06871 18.3903C6.07823 18.3482 6.10369 18.3113 6.13979 18.2874L6.4474 18.0955L6.32442 18.166C6.28659 18.1878 6.24171 18.1941 6.19927 18.1836C6.15684 18.1731 6.12017 18.1466 6.09702 18.1096C6.07388 18.0727 6.06607 18.0282 6.07524 17.9856C6.08442 17.943 6.10986 17.9057 6.1462 17.8814L9.88597 15.379L6.4629 17.3473C6.42489 17.3681 6.38028 17.3735 6.33837 17.3624C6.29645 17.3513 6.26046 17.3245 6.23788 17.2876C6.2153 17.2507 6.20788 17.2066 6.21716 17.1644C6.22644 17.1222 6.25171 17.0851 6.2877 17.061L7.82977 16.0756L6.66943 16.7429C6.6315 16.7648 6.58649 16.7712 6.54397 16.7605C6.50144 16.7499 6.46475 16.7232 6.44168 16.6861C6.41861 16.649 6.41098 16.6043 6.42042 16.5617C6.42985 16.5191 6.45561 16.4818 6.49221 16.4577L9.25863 14.6344L7.19603 15.8202C7.15798 15.8418 7.113 15.8477 7.07061 15.8369C7.02821 15.826 6.99175 15.7991 6.96893 15.7619C6.94611 15.7246 6.93873 15.6801 6.94835 15.6375C6.95798 15.595 6.98385 15.5579 7.02049 15.534L8.47664 14.5945L8.3786 14.6505C8.34059 14.6713 8.29599 14.6768 8.25407 14.6656C8.21216 14.6545 8.17616 14.6277 8.15358 14.5908C8.13101 14.554 8.12358 14.5098 8.13286 14.4676C8.14215 14.4254 8.16741 14.3884 8.20341 14.3643L9.36577 13.6197C9.33622 13.6095 9.31011 13.5913 9.29038 13.5671C9.27065 13.5429 9.25807 13.5138 9.25405 13.4829C9.25002 13.452 9.25472 13.4206 9.26761 13.3922C9.2805 13.3638 9.30107 13.3395 9.32702 13.3221L11.9385 11.5682L9.94897 12.7118C9.91113 12.7336 9.86625 12.7399 9.82382 12.7294C9.78138 12.7189 9.74471 12.6924 9.72157 12.6554C9.69842 12.6185 9.69061 12.574 9.69979 12.5314C9.70897 12.4888 9.73441 12.4515 9.77074 12.4272L12.9378 10.3066L10.0224 11.9843C9.98437 12.0059 9.93939 12.0119 9.897 12.001C9.8546 11.9901 9.81814 11.9632 9.79532 11.926C9.7725 11.8888 9.76512 11.8442 9.77474 11.8016C9.78437 11.7591 9.81024 11.722 9.84688 11.6981L11.7943 10.4422L9.95099 11.5018C9.91299 11.5218 9.86875 11.5266 9.82733 11.5152C9.78591 11.5037 9.75044 11.477 9.72819 11.4404C9.70593 11.4037 9.69856 11.36 9.7076 11.3182C9.71664 11.2763 9.7414 11.2395 9.7768 11.2153L10.6902 10.6378L9.82566 11.1347C9.78791 11.1556 9.74358 11.1612 9.70181 11.1504C9.66004 11.1396 9.62401 11.1133 9.60115 11.0768C9.5783 11.0404 9.57035 10.9966 9.57896 10.9545C9.58757 10.9124 9.61208 10.8752 9.64743 10.8505L13.5924 8.19977L9.47796 10.5623C9.43972 10.5853 9.39386 10.5922 9.35049 10.5816C9.30711 10.5709 9.26976 10.5435 9.24667 10.5054C9.22357 10.4673 9.21661 10.4217 9.22732 10.3785C9.23803 10.3353 9.26553 10.2981 9.30377 10.2751L10.1181 9.76472L9.21415 10.2841C9.17599 10.3054 9.13099 10.3111 9.0887 10.3C9.0464 10.2888 9.01012 10.2617 8.98754 10.2244C8.96495 10.1871 8.95783 10.1425 8.96768 10.1C8.97752 10.0576 9.00357 10.0206 9.04031 9.99692L9.57566 9.66339L8.93081 10.0325C8.89273 10.0537 8.84789 10.0593 8.80571 10.0483C8.76353 10.0372 8.72731 10.0103 8.70466 9.97317C8.682 9.93605 8.67469 9.89162 8.68426 9.84924C8.69382 9.80686 8.71952 9.76983 8.75595 9.74593L11.1127 8.24943L8.56727 9.71439C8.52918 9.73526 8.48445 9.74065 8.44245 9.72943C8.40046 9.71821 8.36445 9.69125 8.34195 9.6542C8.31945 9.61714 8.31221 9.57286 8.32174 9.53061C8.33127 9.48836 8.35684 9.45142 8.39309 9.42751L10.1114 8.35042L8.24047 9.4265C8.20222 9.4495 8.15637 9.45644 8.11299 9.44577C8.06962 9.4351 8.03227 9.40771 8.00917 9.36963C7.98607 9.33154 7.97912 9.28587 7.98982 9.24267C8.00053 9.19947 8.02804 9.16228 8.06628 9.13928L10.3934 7.67599L7.8867 9.11646C7.84887 9.13726 7.80446 9.14279 7.76266 9.1319C7.72085 9.121 7.68485 9.09453 7.66209 9.05794C7.63933 9.02136 7.63156 8.97747 7.64038 8.93534C7.6492 8.89321 7.67394 8.85606 7.70949 8.83159L11.9209 6.04661L7.40694 8.63999C7.3691 8.66079 7.32469 8.66632 7.28289 8.65543C7.24108 8.64454 7.20508 8.61806 7.18232 8.58148C7.15956 8.54489 7.15179 8.501 7.16061 8.45887C7.16943 8.41674 7.19417 8.3796 7.22972 8.35512L10.7363 6.03319L7.04206 8.15715C7.00401 8.17872 6.95903 8.18469 6.91663 8.1738C6.87424 8.16291 6.83778 8.13601 6.81496 8.0988C6.79214 8.06159 6.78476 8.017 6.79438 7.97446C6.80401 7.93193 6.82988 7.8948 6.86652 7.87094L8.70373 6.68682L6.817 7.77128C6.77931 7.79274 6.73476 7.79888 6.69264 7.78841C6.65051 7.77795 6.61407 7.7517 6.59091 7.71514C6.56775 7.67857 6.55966 7.63451 6.56833 7.59214C6.57699 7.54978 6.60174 7.51238 6.63742 7.48775L9.49177 5.53759L6.57408 7.21529C6.53619 7.23888 6.49045 7.2465 6.44692 7.2365C6.40338 7.22649 6.36562 7.19967 6.34194 7.16194C6.31826 7.12421 6.31061 7.07866 6.32065 7.0353C6.3307 6.99194 6.35763 6.95434 6.39551 6.93076L8.0208 5.84327L6.43729 6.75359C6.39934 6.77508 6.35449 6.78105 6.3122 6.77026C6.26991 6.75946 6.23348 6.73273 6.21059 6.69571C6.1877 6.65868 6.18013 6.61426 6.18949 6.57179C6.19885 6.52932 6.22439 6.49212 6.26075 6.46805L6.58857 6.25364L6.36418 6.38248C6.32666 6.40403 6.28225 6.41036 6.24017 6.40015C6.19809 6.38994 6.16157 6.36399 6.1382 6.32767C6.11483 6.29136 6.1064 6.24747 6.11467 6.20513C6.12293 6.16279 6.14725 6.12525 6.18258 6.10029L7.46556 5.19702L6.32004 5.85569C6.28357 5.87617 6.24074 5.88239 6.19991 5.87313C6.15908 5.86388 6.12318 5.83981 6.0992 5.80562C6.07522 5.77144 6.06489 5.72958 6.07021 5.68821C6.07554 5.64685 6.09614 5.60894 6.128 5.58189L7.60471 4.3518L6.31331 5.09334C6.27746 5.11298 6.23565 5.11896 6.1957 5.11016C6.15575 5.10135 6.12038 5.07836 6.0962 5.04549C6.07202 5.01261 6.06068 4.9721 6.0643 4.93151C6.06792 4.89092 6.08625 4.85302 6.11587 4.82491L6.84058 4.17027L6.31331 4.47226C6.27947 4.49158 6.23996 4.49862 6.20149 4.49217C6.16303 4.48572 6.12801 4.46617 6.10241 4.43687C6.0768 4.40757 6.0622 4.37032 6.06109 4.3315C6.05998 4.29267 6.07244 4.25466 6.09633 4.22396L6.41573 3.81661L6.31465 3.87533C6.28496 3.89229 6.25078 3.89983 6.21667 3.89696C6.18256 3.89409 6.15014 3.88094 6.12372 3.85926C6.09731 3.83758 6.07815 3.8084 6.0688 3.7756C6.05945 3.74281 6.06036 3.70795 6.0714 3.67568L6.13878 3.47805C6.11624 3.4638 6.0976 3.4442 6.08454 3.42101C6.06228 3.38255 6.05624 3.33687 6.06773 3.29397C6.07922 3.25108 6.10732 3.21447 6.14586 3.19217L6.31432 3.0952C6.34398 3.07881 6.37792 3.07173 6.4117 3.07487C6.44547 3.07801 6.47751 3.09123 6.50361 3.1128C6.52971 3.13438 6.54867 3.1633 6.558 3.19578C6.56733 3.22826 6.56659 3.26279 6.55589 3.29485L6.53331 3.36195L6.99758 3.09654C7.03141 3.07721 7.07093 3.07018 7.10939 3.07663C7.14786 3.08308 7.18288 3.10263 7.20848 3.13193C7.23409 3.16123 7.24869 3.19847 7.2498 3.2373C7.25091 3.27613 7.23845 3.31414 7.21456 3.34484L6.89482 3.75286L8.03832 3.09419C8.07417 3.07455 8.11597 3.06857 8.15592 3.07738C8.19587 3.08618 8.23124 3.10917 8.25542 3.14205C8.2796 3.17492 8.29094 3.21544 8.28732 3.25603C8.2837 3.29662 8.26537 3.33451 8.23575 3.36263L7.51138 4.01693L9.11847 3.09319C9.15496 3.07236 9.19794 3.06588 9.23898 3.07502C9.28002 3.08415 9.31615 3.10824 9.34026 3.14256C9.36437 3.17687 9.37472 3.21893 9.36928 3.26046C9.36384 3.30198 9.34299 3.33999 9.31085 3.36699L7.83617 4.59674L10.453 3.09185C10.4905 3.06957 10.5353 3.06269 10.5778 3.07267C10.6204 3.08265 10.6574 3.1087 10.681 3.14533C10.7046 3.18195 10.713 3.22628 10.7044 3.26895C10.6958 3.31163 10.6709 3.34931 10.6349 3.37403L9.35094 4.27999L11.4172 3.09218C11.4552 3.07069 11.5 3.06472 11.5423 3.07552C11.5846 3.08631 11.6211 3.11304 11.6439 3.15006C11.6668 3.18709 11.6744 3.23152 11.665 3.27399C11.6557 3.31645 11.6301 3.35365 11.5938 3.37773L11.2683 3.59079L12.1372 3.09151C12.1751 3.06967 12.22 3.06334 12.2624 3.07386C12.3048 3.08437 12.3415 3.11091 12.3646 3.14787C12.3878 3.18482 12.3956 3.22928 12.3864 3.27187C12.3772 3.31445 12.3518 3.35181 12.3155 3.37605L10.6895 4.46185L13.0766 3.0895C13.1142 3.06804 13.1588 3.0619 13.2009 3.07236C13.243 3.08282 13.2795 3.10908 13.3026 3.14564C13.3258 3.18221 13.3339 3.22627 13.3252 3.26863C13.3166 3.311 13.2918 3.3484 13.2561 3.37303L10.4011 5.32352L14.2884 3.08849C14.3266 3.06526 14.3724 3.05807 14.4158 3.06848C14.4593 3.07889 14.4968 3.10607 14.5201 3.14402C14.5434 3.18198 14.5506 3.2276 14.5402 3.27086C14.5297 3.31413 14.5024 3.35148 14.4643 3.37471L12.6308 4.55581L15.1846 3.08748C15.2225 3.06603 15.2672 3.06003 15.3095 3.07072C15.3517 3.08141 15.3881 3.10797 15.4111 3.14483C15.434 3.18169 15.4418 3.22598 15.4327 3.2684C15.4236 3.31082 15.3983 3.34808 15.3622 3.37236L11.8546 5.6953L16.3915 3.08648C16.4293 3.06503 16.4741 3.05902 16.5163 3.06971C16.5585 3.0804 16.5949 3.10697 16.6179 3.14383C16.6409 3.18068 16.6486 3.22497 16.6395 3.26739C16.6304 3.30982 16.6051 3.34707 16.569 3.37135L12.3576 6.15935L17.5798 3.15593C17.618 3.13463 17.6629 3.12896 17.7052 3.14011C17.7475 3.15126 17.7838 3.17836 17.8064 3.21568C17.829 3.253 17.8361 3.2976 17.8263 3.34006C17.8164 3.38251 17.7904 3.41949 17.7536 3.44316L15.4266 4.90678L17.5798 3.66897C17.6178 3.64871 17.6623 3.64378 17.7039 3.65518C17.7455 3.66658 17.7811 3.69345 17.8034 3.73025C17.8257 3.76705 17.833 3.81097 17.8237 3.85295C17.8145 3.89493 17.7894 3.93176 17.7536 3.95586L16.0411 5.02959L17.5798 4.1451C17.6178 4.12458 17.6623 4.11941 17.7041 4.13067C17.7458 4.14193 17.7816 4.16876 17.8041 4.2056C17.8265 4.24244 17.8339 4.28646 17.8246 4.32854C17.8153 4.37063 17.7902 4.40755 17.7543 4.43166L15.3976 5.92816L17.5798 4.67358C17.6179 4.65301 17.6625 4.64788 17.7044 4.65924C17.7462 4.67061 17.782 4.6976 17.8044 4.73461C17.8267 4.77161 17.8339 4.81577 17.8244 4.8579C17.8149 4.90004 17.7894 4.93689 17.7533 4.9608L17.2189 5.29399L17.5798 5.08663C17.618 5.06533 17.6629 5.05966 17.7052 5.07081C17.7475 5.08196 17.7838 5.10906 17.8064 5.14638C17.829 5.18369 17.8361 5.2283 17.8263 5.27075C17.8164 5.31321 17.7904 5.35018 17.7536 5.37385L16.9329 5.88857L17.5764 5.51948C17.6142 5.49865 17.6585 5.49305 17.7003 5.50382C17.742 5.51459 17.7781 5.54092 17.8009 5.57736C17.8238 5.61381 17.8317 5.6576 17.8231 5.69971C17.8145 5.74182 17.79 5.77903 17.7546 5.80368L13.8087 8.45578L17.4841 6.34188C17.5222 6.32102 17.5669 6.31563 17.6089 6.32685C17.6509 6.33807 17.6869 6.36503 17.7094 6.40208C17.7319 6.43914 17.7392 6.48342 17.7296 6.52567C17.7201 6.56792 17.6945 6.60486 17.6583 6.62877L16.753 7.2012L17.3389 6.86566C17.3769 6.84409 17.4219 6.83812 17.4643 6.84901C17.5067 6.85991 17.5432 6.88681 17.566 6.92401C17.5888 6.96122 17.5962 7.00582 17.5866 7.04835C17.5769 7.09088 17.5511 7.12801 17.5144 7.15188L15.5657 8.40881L17.034 7.56459C17.0718 7.54275 17.1167 7.53642 17.1591 7.54694C17.2016 7.55745 17.2382 7.58399 17.2614 7.62095C17.2845 7.6579 17.2923 7.70236 17.2832 7.74495C17.274 7.78753 17.2485 7.82489 17.2122 7.84913L14.0452 9.97007L15.9545 8.87219C15.9922 8.85137 16.0366 8.84576 16.0783 8.85653C16.1201 8.86731 16.1561 8.89363 16.179 8.93008C16.2019 8.96652 16.2098 9.01032 16.2012 9.05243C16.1926 9.09453 16.1681 9.13175 16.1327 9.15639L13.522 10.9103L14.2564 10.4878C14.2945 10.4662 14.3395 10.4603 14.3819 10.4712C14.4243 10.4821 14.4607 10.509 14.4835 10.5462C14.5064 10.5834 14.5137 10.628 14.5041 10.6705C14.4945 10.713 14.4686 10.7502 14.432 10.774L14.0553 11.0153C14.0932 11.0105 14.1315 11.0187 14.1641 11.0385C14.1967 11.0583 14.2216 11.0885 14.2347 11.1243C14.2477 11.16 14.2482 11.1991 14.2361 11.2351C14.224 11.2711 14.1999 11.302 14.1678 11.3226L12.7127 12.2621L13.8764 11.5934C13.9142 11.5712 13.9592 11.5647 14.0017 11.5754C14.0442 11.5861 14.0808 11.6131 14.1035 11.6505C14.1266 11.6875 14.1343 11.732 14.1249 11.7746C14.1156 11.8172 14.0901 11.8545 14.0536 11.8786L11.2879 13.6996L13.8983 12.1991C13.9363 12.1788 13.9806 12.1738 14.0221 12.1851C14.0637 12.1964 14.0993 12.2231 14.1217 12.2598C14.1441 12.2964 14.1516 12.3402 14.1425 12.3822C14.1335 12.4241 14.1087 12.461 14.0732 12.4853L12.5331 13.4694L14.0064 12.6222C14.0443 12.5986 14.0901 12.591 14.1336 12.601C14.1771 12.611 14.2149 12.6378 14.2386 12.6755C14.2623 12.7133 14.2699 12.7588 14.2599 12.8022C14.2498 12.8455 14.2229 12.8831 14.185 12.9067L10.4442 15.4109L14.2992 13.1929C14.3375 13.17 14.3834 13.1631 14.4268 13.1738C14.4701 13.1846 14.5075 13.212 14.5305 13.2501C14.5536 13.2883 14.5605 13.334 14.5497 13.3772C14.5389 13.4204 14.5114 13.4575 14.4731 13.4805L14.1608 13.6754L14.5189 13.4698C14.5569 13.4489 14.6015 13.4435 14.6434 13.4546C14.6853 13.4658 14.7213 13.4925 14.7439 13.5294C14.7665 13.5663 14.7739 13.6105 14.7646 13.6527C14.7554 13.6949 14.7301 13.7319 14.6941 13.756L12.2464 15.3233L14.8841 13.807C14.9221 13.7865 14.9665 13.7812 15.0082 13.7924C15.0499 13.8035 15.0857 13.8302 15.1082 13.8669C15.1307 13.9036 15.1382 13.9475 15.1292 13.9895C15.1202 14.0316 15.0953 14.0686 15.0596 14.0929L11.8505 16.1628L15.3049 14.1767C15.3428 14.1556 15.3874 14.1499 15.4295 14.1608C15.4715 14.1716 15.5077 14.1982 15.5305 14.235C15.5533 14.2718 15.561 14.3159 15.5519 14.3582C15.5428 14.4005 15.5177 14.4377 15.4818 14.4619L11.0345 17.3845L15.8224 14.6331C15.8603 14.6123 15.9047 14.6067 15.9465 14.6176C15.9883 14.6285 16.0243 14.655 16.047 14.6916C16.0698 14.7282 16.0776 14.7721 16.0688 14.8142C16.0599 14.8563 16.0352 14.8935 15.9996 14.9179L11.586 17.8341L16.3332 15.1045C16.3714 15.0836 16.4163 15.0782 16.4583 15.0895C16.5004 15.1008 16.5365 15.1279 16.5589 15.1652C16.5814 15.2024 16.5884 15.2469 16.5786 15.2892C16.5688 15.3315 16.5429 15.3684 16.5064 15.3921L16.3396 15.4954L16.565 15.3659C16.5839 15.3545 16.6049 15.3469 16.6268 15.3436C16.6487 15.3402 16.671 15.3412 16.6925 15.3465C16.714 15.3518 16.7342 15.3612 16.7521 15.3743C16.7699 15.3873 16.785 15.4037 16.7965 15.4226C16.8079 15.4415 16.8155 15.4624 16.8189 15.4842C16.8222 15.506 16.8212 15.5282 16.8159 15.5496C16.8106 15.571 16.8012 15.5912 16.7881 15.6089C16.7749 15.6267 16.7585 15.6417 16.7395 15.6531L15.5906 16.3765L16.8005 15.6793C16.8382 15.6584 16.8824 15.6527 16.9242 15.6634C16.9659 15.674 17.002 15.7002 17.0249 15.7365C17.0479 15.7728 17.056 15.8165 17.0476 15.8586C17.0392 15.9007 17.0149 15.938 16.9797 15.9628L13.5439 18.2965L17.126 16.2373C17.1639 16.2165 17.2084 16.211 17.2502 16.222C17.2921 16.233 17.3281 16.2597 17.3507 16.2964C17.3734 16.3331 17.381 16.3771 17.372 16.4193C17.3629 16.4615 17.3379 16.4985 17.3022 16.5228L15.8241 17.4845L17.2998 16.6362C17.3372 16.6146 17.3816 16.6082 17.4237 16.6183C17.4657 16.6283 17.5023 16.6541 17.5258 16.6903C17.5493 16.7265 17.5579 16.7704 17.5498 16.8127C17.5417 16.855 17.5176 16.8927 17.4824 16.9178L14.7891 18.8461L17.4871 17.2946C17.5247 17.273 17.5691 17.2667 17.6111 17.2769C17.6532 17.2871 17.6897 17.3131 17.7131 17.3494C17.7365 17.3857 17.7449 17.4296 17.7366 17.4719C17.7284 17.5143 17.7041 17.5518 17.6687 17.5768L16.0647 18.7069L17.5656 17.8442C17.6032 17.8235 17.6472 17.8178 17.6888 17.8284C17.7303 17.8389 17.7663 17.8648 17.7893 17.9009C17.8124 17.9369 17.8207 17.9803 17.8127 18.0223C17.8047 18.0643 17.7809 18.1016 17.7462 18.1267L17.128 18.5559L17.5805 18.2958C17.6177 18.2749 17.6616 18.2688 17.7032 18.279C17.7448 18.2891 17.781 18.3146 17.8044 18.3503C17.8278 18.386 17.8366 18.4293 17.8291 18.4713C17.8216 18.5132 17.7984 18.5508 17.7641 18.5763L17.225 18.9696L17.5835 18.7639C17.6207 18.7433 17.6643 18.7374 17.7057 18.7476C17.747 18.7577 17.783 18.783 17.8063 18.8185C17.8297 18.8539 17.8387 18.8969 17.8315 18.9386C17.8244 18.9804 17.8016 19.018 17.7678 19.0437L17.6505 19.1306C17.6866 19.1266 17.723 19.1342 17.7543 19.1524C17.7857 19.1706 17.8103 19.1984 17.8245 19.2317C17.8387 19.265 17.8417 19.3019 17.8331 19.337C17.8246 19.3721 17.8048 19.4035 17.7769 19.4266L17.6276 19.5494C17.6633 19.5399 17.7011 19.5424 17.7352 19.5564C17.7694 19.5704 17.7979 19.5952 17.8165 19.627C17.8351 19.6587 17.8427 19.6957 17.8382 19.7322C17.8337 19.7686 17.8172 19.8026 17.7914 19.8289L17.662 19.9608C17.7039 19.9576 17.7455 19.9707 17.7779 19.9973C17.8043 20.0183 17.8237 20.0467 17.8337 20.0789C17.8437 20.111 17.8437 20.1454 17.8338 20.1775L17.7577 20.4248C17.784 20.4395 17.8058 20.4611 17.8207 20.4872C17.8429 20.5257 17.8489 20.5714 17.8373 20.6143C17.8258 20.6572 17.7976 20.6938 17.759 20.7161L17.5906 20.813C17.5613 20.8299 17.5276 20.8375 17.4939 20.835C17.4602 20.8325 17.428 20.82 17.4016 20.799C17.3751 20.778 17.3556 20.7497 17.3456 20.7175C17.3355 20.6854 17.3354 20.651 17.3453 20.6188L17.3861 20.4872L16.8173 20.8137C16.7821 20.8337 16.7408 20.8404 16.7011 20.8325C16.6613 20.8246 16.6257 20.8027 16.6008 20.7708C16.576 20.7389 16.5635 20.6992 16.5657 20.6588C16.5679 20.6185 16.5846 20.5803 16.6128 20.5513L16.6971 20.4651L16.0906 20.8144C16.0541 20.8349 16.0112 20.8412 15.9703 20.8319C15.9294 20.8227 15.8934 20.7985 15.8695 20.7642C15.8455 20.7299 15.8352 20.688 15.8407 20.6466C15.8461 20.6051 15.8669 20.5672 15.8989 20.5402L16.0205 20.4396L15.3676 20.8147C15.3304 20.8353 15.2867 20.8412 15.2454 20.8311C15.2041 20.8209 15.1681 20.7956 15.1448 20.7602C15.1214 20.7247 15.1124 20.6818 15.1196 20.64C15.1267 20.5982 15.1495 20.5606 15.1833 20.5349L15.2032 20.5201L14.6894 20.8154C14.6521 20.8363 14.6082 20.8424 14.5666 20.8323C14.525 20.8221 14.4888 20.7966 14.4655 20.7609C14.4421 20.7252 14.4332 20.6819 14.4407 20.64C14.4482 20.598 14.4715 20.5604 14.5058 20.5349L15.0462 20.142L13.8717 20.8174C13.8341 20.8389 13.7896 20.8451 13.7475 20.8348C13.7054 20.8244 13.6689 20.7983 13.6457 20.7619C13.6224 20.7255 13.6142 20.6815 13.6226 20.6392C13.6311 20.5968 13.6556 20.5593 13.6911 20.5345L14.305 20.1064L13.0685 20.8181C13.031 20.8396 12.9865 20.8459 12.9445 20.8357C12.9024 20.8255 12.8659 20.7996 12.8425 20.7633C12.8191 20.7269 12.8107 20.6831 12.819 20.6407C12.8272 20.5984 12.8515 20.5608 12.8869 20.5359L14.4906 19.4061L12.0331 20.8191C11.9957 20.8407 11.9513 20.8471 11.9093 20.8371C11.8672 20.827 11.8306 20.8012 11.8071 20.765C11.7837 20.7288 11.7751 20.685 11.7831 20.6426C11.7912 20.6003 11.8153 20.5627 11.8505 20.5376L14.5438 18.6092L10.7 20.8201C10.6619 20.8434 10.6161 20.8507 10.5726 20.8404C10.5291 20.8301 10.4916 20.803 10.4682 20.7651C10.4447 20.7271 10.4374 20.6815 10.4478 20.6382C10.4581 20.5949 10.4853 20.5575 10.5234 20.5342L12.0031 19.5715L9.82903 20.8218C9.79128 20.8436 9.7465 20.85 9.70413 20.8396C9.66176 20.8291 9.6251 20.8028 9.60186 20.766C9.57863 20.7292 9.57064 20.6848 9.57958 20.6423C9.58852 20.5998 9.61369 20.5623 9.64979 20.5379L13.0863 18.2035L8.53021 20.8221C8.51128 20.8335 8.49027 20.8411 8.4684 20.8444C8.44653 20.8477 8.42422 20.8467 8.40274 20.8414C8.38126 20.8361 8.36104 20.8266 8.34323 20.8136C8.32541 20.8005 8.31036 20.7841 8.29892 20.7652C8.28748 20.7464 8.27989 20.7254 8.27657 20.7037C8.27325 20.6819 8.27427 20.6597 8.27957 20.6383C8.28488 20.6169 8.29436 20.5967 8.30748 20.579C8.32059 20.5613 8.33709 20.5463 8.35603 20.5349L9.50761 19.8098L7.74554 20.8228C7.7072 20.8456 7.66132 20.8524 7.61797 20.8416C7.57463 20.8308 7.53738 20.8032 7.51441 20.7651C7.49145 20.7269 7.48465 20.6812 7.49552 20.638C7.50639 20.5948 7.53403 20.5577 7.57236 20.5349L7.7324 20.4342L7.05856 20.8221C7.0331 20.8377 7.00388 20.8461 6.974 20.8466Z" fill="#D6E6E7"/>
<path d="M11.9035 11.6885C11.8726 11.6885 11.8422 11.68 11.8158 11.664C11.7893 11.648 11.7678 11.6251 11.7535 11.5977C11.7392 11.5704 11.7326 11.5396 11.7346 11.5088C11.7366 11.478 11.747 11.4483 11.7647 11.423L12.2255 10.7628L11.6926 11.0694C11.6557 11.0901 11.6124 11.0963 11.5712 11.0868C11.53 11.0773 11.4939 11.0527 11.4699 11.0179C11.446 10.9832 11.436 10.9407 11.4418 10.8989C11.4477 10.8571 11.469 10.819 11.5016 10.7922L13.0695 9.52738L11.313 10.5406C11.2751 10.5621 11.2302 10.5682 11.1879 10.5576C11.1455 10.5469 11.1089 10.5204 11.0857 10.4834C11.0625 10.4465 11.0546 10.402 11.0635 10.3594C11.0724 10.3167 11.0976 10.2791 11.1336 10.2545L11.7522 9.83809L11.0527 10.2403C11.015 10.2609 10.9709 10.2665 10.9293 10.2559C10.8877 10.2453 10.8516 10.2193 10.8285 10.1832C10.8054 10.1471 10.7969 10.1035 10.8048 10.0614C10.8126 10.0193 10.8363 9.98169 10.8709 9.95629L12.9927 8.4703L10.6471 9.8212C10.609 9.84213 10.5643 9.84763 10.5222 9.83655C10.4801 9.82547 10.444 9.79867 10.4212 9.7617C10.3984 9.72473 10.3908 9.68044 10.3999 9.638C10.409 9.59557 10.4341 9.55825 10.47 9.5338L11.094 9.12684L10.3603 9.54798C10.3226 9.56903 10.2782 9.57486 10.2362 9.56427C10.1943 9.55369 10.158 9.52749 10.1348 9.49105C10.1116 9.45462 10.1033 9.41072 10.1116 9.36836C10.1198 9.326 10.144 9.2884 10.1792 9.26328L12.8163 7.44395L9.8931 9.12785C9.85514 9.14943 9.81029 9.15553 9.76792 9.14488C9.72555 9.13424 9.68895 9.10766 9.66578 9.07071C9.6426 9.03377 9.63464 8.98931 9.64357 8.94665C9.65249 8.90399 9.67761 8.86642 9.71366 8.8418L11.7234 7.4909L9.4919 8.77425C9.45391 8.79466 9.40955 8.79983 9.36787 8.7887C9.32619 8.77758 9.29035 8.75099 9.26765 8.71439C9.24496 8.67779 9.23714 8.63392 9.24578 8.59175C9.25442 8.54959 9.27888 8.51231 9.31415 8.48752L10.2804 7.84922L9.16857 8.4909C9.13123 8.51194 9.08727 8.51805 9.04558 8.508C9.0039 8.49796 8.96759 8.4725 8.94399 8.43679C8.92039 8.40107 8.91126 8.35774 8.91844 8.31557C8.92563 8.27339 8.94859 8.23551 8.9827 8.20958L11.2711 6.5071L8.64108 8.02146C8.60391 8.04233 8.56021 8.04843 8.51872 8.03854C8.47723 8.02865 8.44101 8.00351 8.41731 7.96813C8.39361 7.93275 8.38417 7.88975 8.39089 7.84773C8.3976 7.80571 8.41997 7.76777 8.45352 7.74149L10.2743 6.34466L8.21449 7.53075C8.17747 7.55191 8.1338 7.55834 8.09222 7.54876C8.05065 7.53917 8.01424 7.51428 7.99027 7.47907C7.96631 7.44385 7.95656 7.4009 7.96298 7.35883C7.9694 7.31675 7.99151 7.27864 8.02489 7.25213L9.31144 6.24199L7.92942 7.03868C7.89215 7.05984 7.84822 7.06611 7.80651 7.05621C7.76479 7.04631 7.72839 7.02099 7.70467 6.98536C7.68094 6.94973 7.67165 6.90645 7.67868 6.86425C7.68571 6.82206 7.70853 6.7841 7.74253 6.75803L8.18571 6.42335L7.78451 6.65401C7.74939 6.67408 7.70822 6.68093 7.66847 6.67332C7.62872 6.66571 7.59301 6.64415 7.56783 6.61254C7.54265 6.58092 7.52966 6.54136 7.53121 6.50101C7.53276 6.46067 7.54876 6.42221 7.57629 6.39261L8.28491 5.63712L7.65382 6.00052C7.62307 6.01823 7.5875 6.02585 7.55216 6.02229C7.51683 6.01873 7.48351 6.00417 7.45692 5.98068C7.43034 5.95718 7.41183 5.92594 7.40403 5.89138C7.39623 5.85682 7.39952 5.82068 7.41344 5.78809L7.61658 5.31156C7.58063 5.32046 7.54275 5.31755 7.50859 5.30325C7.47442 5.28895 7.4458 5.26403 7.42699 5.23219C7.41588 5.21297 7.40869 5.19175 7.40581 5.16975C7.40294 5.14775 7.40443 5.1254 7.41022 5.10398C7.416 5.08256 7.42596 5.06249 7.43953 5.04491C7.4531 5.02733 7.47 5.01259 7.48928 5.00153L7.8854 4.77593C7.91619 4.75814 7.95181 4.75048 7.98721 4.75404C8.02261 4.7576 8.05599 4.77219 8.0826 4.79574C8.10921 4.8193 8.12771 4.85062 8.13546 4.88525C8.14321 4.91989 8.13983 4.95608 8.12579 4.98869L7.92569 5.45577L9.10424 4.77593C9.13936 4.75586 9.18053 4.74901 9.22029 4.75661C9.26004 4.76422 9.29574 4.78579 9.32092 4.8174C9.3461 4.84901 9.35909 4.88858 9.35754 4.92893C9.35599 4.96927 9.34 5.00773 9.31246 5.03732L8.60452 5.7891L10.3681 4.77593C10.4054 4.75477 10.4493 4.7485 10.491 4.7584C10.5327 4.7683 10.5691 4.79362 10.5929 4.82925C10.6166 4.86487 10.6259 4.90816 10.6188 4.95035C10.6118 4.99255 10.589 5.03051 10.555 5.05657L10.1115 5.3916L11.1807 4.77593C11.2177 4.75477 11.2614 4.74833 11.3029 4.75792C11.3445 4.7675 11.3809 4.79239 11.4049 4.82761C11.4289 4.86282 11.4386 4.90577 11.4322 4.94785C11.4258 4.98993 11.4036 5.02804 11.3703 5.05455L10.0837 6.06435L12.3223 4.77593C12.3595 4.75463 12.4034 4.74821 12.4452 4.75795C12.4869 4.7677 12.5234 4.79289 12.5473 4.82843C12.5711 4.86398 12.5806 4.90723 12.5737 4.94945C12.5668 4.99167 12.5441 5.02971 12.5102 5.0559L10.6897 6.45273L13.6014 4.77593C13.6388 4.75489 13.6827 4.74878 13.7244 4.75882C13.7661 4.76887 13.8024 4.79432 13.826 4.83004C13.8496 4.86576 13.8587 4.90908 13.8515 4.95126C13.8444 4.99343 13.8214 5.03131 13.7873 5.05725L11.4982 6.76006L14.9442 4.77593C14.9822 4.75552 15.0265 4.75035 15.0682 4.76148C15.1099 4.7726 15.1457 4.79918 15.1684 4.83579C15.1911 4.87239 15.1989 4.91626 15.1903 4.95842C15.1816 5.00059 15.1572 5.03787 15.1219 5.06265L14.156 5.70028L15.7611 4.77593C15.7991 4.75497 15.8436 4.74933 15.8856 4.76017C15.9276 4.77101 15.9638 4.79751 15.9867 4.83419C16.0097 4.87088 16.0177 4.91495 16.009 4.95734C16.0004 4.99972 15.9758 5.03717 15.9402 5.06198L13.9315 6.41288L16.2517 5.07684C16.2895 5.05554 16.3341 5.04955 16.3762 5.06011C16.4183 5.07068 16.4548 5.09698 16.478 5.13359C16.5012 5.1702 16.5094 5.21431 16.501 5.2568C16.4925 5.29929 16.468 5.33691 16.4325 5.36188L13.7961 7.18019L16.2338 5.77627C16.2719 5.75464 16.317 5.74862 16.3595 5.75949C16.402 5.77036 16.4386 5.79726 16.4616 5.83453C16.4846 5.87179 16.4922 5.91651 16.4828 5.95925C16.4734 6.002 16.4477 6.03944 16.4112 6.06367L15.7889 6.46894L16.141 6.26631C16.1787 6.24495 16.2232 6.23886 16.2653 6.2493C16.3075 6.25973 16.3439 6.28589 16.3673 6.32238C16.3906 6.35886 16.399 6.40289 16.3907 6.44537C16.3824 6.48785 16.3581 6.52555 16.3228 6.55067L14.2003 8.03666L15.7428 7.14844C15.7808 7.12686 15.8257 7.12076 15.868 7.13141C15.9104 7.14206 15.947 7.16863 15.9702 7.20558C15.9933 7.24253 16.0013 7.28698 15.9924 7.32964C15.9835 7.37231 15.9583 7.40988 15.9223 7.4345L14.8802 8.13629C14.9035 8.13941 14.9259 8.14739 14.9459 8.15973C14.9659 8.17207 14.9831 8.18848 14.9963 8.20789C15.0204 8.24301 15.0302 8.2859 15.024 8.32798C15.0177 8.37006 14.9957 8.40822 14.9625 8.43484L12.8972 10.1012C12.9065 10.108 12.9151 10.1157 12.9229 10.1241C12.949 10.1524 12.9646 10.1887 12.9671 10.227C12.9697 10.2653 12.9592 10.3034 12.9371 10.3349L12.1828 11.4156C12.1912 11.451 12.1879 11.4881 12.1734 11.5214C12.159 11.5547 12.1341 11.5825 12.1026 11.6007L11.9881 11.6655C11.9624 11.6805 11.9333 11.6884 11.9035 11.6885Z" fill="#EFAC54"/>
<path d="M7.8986 20.489C7.86248 20.4889 7.82732 20.4773 7.79832 20.4558C7.76932 20.4342 7.74802 20.404 7.73756 20.3694C7.72711 20.3348 7.72805 20.2978 7.74025 20.2638C7.75245 20.2298 7.77526 20.2007 7.80532 20.1806L8.50071 19.7178L7.20321 20.4654C7.16562 20.4861 7.12155 20.4917 7.07999 20.481C7.03843 20.4703 7.00253 20.4441 6.97962 20.4079C6.9567 20.3716 6.94851 20.3279 6.95671 20.2858C6.9649 20.2437 6.98887 20.2063 7.02372 20.1813L8.96879 18.8436L8.89807 18.8844C8.86116 18.9057 8.81751 18.9123 8.77594 18.9027C8.73437 18.8932 8.69798 18.8682 8.67412 18.8329C8.65026 18.7975 8.64071 18.7544 8.64741 18.7123C8.6541 18.6702 8.67653 18.6322 8.71017 18.606L11.023 16.8008C11.0081 16.7632 11.0072 16.7216 11.0205 16.6835C11.0338 16.6453 11.0604 16.6133 11.0954 16.5931L11.8483 16.1568C11.8853 16.1355 11.9289 16.1289 11.9705 16.1385C12.012 16.148 12.0484 16.173 12.0723 16.2084C12.0961 16.2437 12.1057 16.2868 12.099 16.3289C12.0923 16.371 12.0699 16.409 12.0362 16.4352L10.8175 17.3878L12.4764 16.4305C12.514 16.409 12.5586 16.4028 12.6007 16.4133C12.6428 16.4238 12.6792 16.4501 12.7023 16.4868C12.7255 16.5235 12.7336 16.5677 12.7249 16.6102C12.7163 16.6527 12.6915 16.6902 12.6559 16.7149L10.7081 18.0553L12.901 16.7897C12.9389 16.7672 12.9841 16.7604 13.0269 16.7709C13.0697 16.7813 13.1067 16.8081 13.13 16.8455C13.1533 16.8829 13.1609 16.9279 13.1514 16.9709C13.1418 17.0139 13.1158 17.0514 13.0788 17.0754L12.3828 17.5386L13.2176 17.0569C13.2546 17.0355 13.2984 17.029 13.34 17.0388C13.3817 17.0485 13.4181 17.0737 13.4418 17.1092C13.4656 17.1448 13.4749 17.188 13.4679 17.2302C13.4609 17.2724 13.4381 17.3103 13.4041 17.3363L11.4021 18.8628L13.7506 17.5076C13.7882 17.4861 13.8327 17.4798 13.8748 17.4902C13.9168 17.5006 13.9533 17.5268 13.9765 17.5633C13.9998 17.5999 14.008 17.644 13.9996 17.6865C13.9911 17.7289 13.9666 17.7665 13.9311 17.7914L13.3129 18.2236L14.0773 17.783C14.1136 17.7623 14.1564 17.7559 14.1972 17.765C14.238 17.7742 14.2739 17.7981 14.298 17.8322C14.3221 17.8664 14.3327 17.9083 14.3276 17.9497C14.3225 17.9912 14.3022 18.0293 14.2706 18.0567L12.869 19.2472L14.6164 18.2391C14.6535 18.218 14.6972 18.2118 14.7387 18.2216C14.7802 18.2315 14.8164 18.2567 14.84 18.2922C14.8636 18.3278 14.8728 18.3709 14.8658 18.4129C14.8588 18.455 14.8361 18.4928 14.8023 18.5188L14.3884 18.8325L14.9414 18.5138C14.9766 18.4937 15.0179 18.487 15.0576 18.4949C15.0974 18.5028 15.1329 18.5248 15.1578 18.5568C15.1826 18.5888 15.1951 18.6287 15.1929 18.6691C15.1907 18.7096 15.174 18.7479 15.1458 18.777L14.378 19.5606L15.4489 18.9429C15.4844 18.9218 15.5266 18.9146 15.5671 18.9225C15.6077 18.9305 15.644 18.9531 15.669 18.9861C15.6939 19.019 15.7059 19.06 15.7026 19.1012C15.6993 19.1425 15.6809 19.181 15.6509 19.2095L15.361 19.4889L15.7988 19.2371C15.8312 19.2185 15.8689 19.2112 15.9059 19.2163C15.9429 19.2215 15.9772 19.2388 16.0033 19.2656C16.0294 19.2924 16.0458 19.3271 16.05 19.3642C16.0542 19.4014 16.0459 19.4388 16.0264 19.4707L15.7977 19.843L16.2244 19.597C16.2467 19.5841 16.2716 19.5765 16.2973 19.5748C16.3229 19.5731 16.3486 19.5772 16.3724 19.587C16.3962 19.5967 16.4175 19.6118 16.4346 19.631C16.4516 19.6503 16.4641 19.6732 16.4709 19.6979L16.5719 20.0652L16.6918 19.9942C16.711 19.982 16.7324 19.9738 16.7548 19.9701C16.7772 19.9664 16.8001 19.9673 16.8222 19.9727C16.8443 19.9781 16.865 19.9879 16.8832 20.0015C16.9013 20.0152 16.9166 20.0323 16.9279 20.052C16.9393 20.0716 16.9465 20.0934 16.9493 20.1159C16.952 20.1384 16.9502 20.1613 16.9439 20.1831C16.9375 20.2049 16.9268 20.2252 16.9125 20.2428C16.8981 20.2603 16.8803 20.2748 16.8602 20.2853L16.5473 20.4658C16.5251 20.4786 16.5001 20.4862 16.4745 20.4879C16.4488 20.4896 16.4231 20.4855 16.3993 20.4757C16.3755 20.466 16.3543 20.4509 16.3372 20.4317C16.3201 20.4124 16.3077 20.3896 16.3008 20.3648L16.1998 19.9972L15.3879 20.4654C15.3555 20.484 15.3178 20.4914 15.2808 20.4862C15.2437 20.4811 15.2095 20.4637 15.1834 20.4369C15.1573 20.4102 15.1408 20.3755 15.1367 20.3383C15.1325 20.3012 15.1408 20.2637 15.1603 20.2318L15.3889 19.8615L14.3393 20.4674C14.3037 20.4885 14.2616 20.4958 14.221 20.4878C14.1804 20.4799 14.1442 20.4573 14.1192 20.4243C14.0942 20.3913 14.0822 20.3503 14.0856 20.3091C14.0889 20.2679 14.1073 20.2294 14.1372 20.2008L14.4272 19.9211L13.4812 20.4654C13.446 20.4855 13.4048 20.4922 13.365 20.4843C13.3253 20.4764 13.2897 20.4544 13.2649 20.4224C13.24 20.3904 13.2275 20.3505 13.2297 20.3101C13.2319 20.2696 13.2487 20.2313 13.2768 20.2022L14.0446 19.4186L12.2295 20.4654C12.1925 20.4865 12.1488 20.4927 12.1073 20.4829C12.0658 20.473 12.0296 20.4478 12.006 20.4123C11.9824 20.3768 11.9732 20.3336 11.9801 20.2916C11.9871 20.2495 12.0098 20.2117 12.0437 20.1857L12.4579 19.872L11.4287 20.4654C11.3924 20.4861 11.3497 20.4925 11.3089 20.4834C11.2681 20.4743 11.2321 20.4503 11.208 20.4162C11.1839 20.382 11.1733 20.3401 11.1784 20.2987C11.1835 20.2572 11.2038 20.2191 11.2355 20.1918L12.6363 19.0015L10.0993 20.4654C10.0618 20.4862 10.0177 20.4918 9.97619 20.4813C9.93464 20.4707 9.89868 20.4447 9.87566 20.4086C9.85264 20.3724 9.84428 20.3288 9.85229 20.2867C9.8603 20.2446 9.88407 20.2072 9.91876 20.182L10.538 19.7491L9.29679 20.4654C9.25977 20.4864 9.21619 20.4925 9.17481 20.4826C9.13344 20.4728 9.09733 20.4476 9.07374 20.4123C9.05016 20.3769 9.04085 20.3339 9.04768 20.2919C9.05451 20.2499 9.07697 20.2121 9.11056 20.186L11.1125 18.6599L7.98279 20.4654C7.95729 20.4805 7.92825 20.4887 7.8986 20.489Z" fill="#EFAC54"/>
<path d="M6.06809 3.68591C6.03362 3.68595 5.99998 3.67576 5.97172 3.65674C5.94347 3.63772 5.92198 3.61078 5.91017 3.57959C5.89836 3.54839 5.89681 3.51445 5.90572 3.48237C5.91463 3.4503 5.93357 3.42164 5.95997 3.40029L6.0607 3.31781L5.50534 3.62736C5.47104 3.64644 5.43084 3.65323 5.39185 3.64652C5.35286 3.6398 5.31759 3.62003 5.29227 3.59068C5.26696 3.56134 5.25322 3.52432 5.2535 3.48616C5.25379 3.44801 5.26806 3.41117 5.29381 3.38218L5.75549 2.86464L5.33074 3.10044C5.29897 3.11804 5.26209 3.12514 5.22573 3.12065C5.18938 3.11617 5.15555 3.10034 5.1294 3.0756C5.10326 3.05085 5.08624 3.01854 5.08094 2.98361C5.07565 2.94867 5.08236 2.91302 5.10007 2.88211L5.24613 2.62754C5.21094 2.62398 5.17782 2.60981 5.15149 2.58703C5.12516 2.56426 5.10698 2.53406 5.09953 2.50073C5.09209 2.46741 5.09576 2.43268 5.11002 2.40148C5.12429 2.37029 5.14842 2.34424 5.17897 2.32705L5.57048 2.11065C5.60224 2.09299 5.63913 2.08583 5.67551 2.09027C5.71189 2.09471 5.74576 2.1105 5.77194 2.13523C5.79821 2.16004 5.81529 2.19246 5.82057 2.22752C5.82584 2.26258 5.81902 2.29835 5.80115 2.32931L5.68565 2.53083L6.44012 2.11065C6.47439 2.09176 6.51446 2.0851 6.55332 2.09185C6.59217 2.0986 6.62731 2.11833 6.65256 2.14756C6.67782 2.17679 6.69157 2.21366 6.6914 2.25169C6.69124 2.28973 6.67717 2.32648 6.65166 2.35551L6.18964 2.87305L7.56293 2.11065C7.59924 2.09098 7.64185 2.08501 7.68247 2.09392C7.72309 2.10282 7.75882 2.12595 7.78273 2.15882C7.80663 2.19168 7.817 2.23194 7.81181 2.27176C7.80662 2.31158 7.78625 2.34811 7.75466 2.37427L7.65191 2.45708L8.27577 2.11065C8.31148 2.09219 8.35291 2.0868 8.39242 2.09547C8.43193 2.10413 8.46686 2.12627 8.49075 2.1578C8.51464 2.18933 8.52589 2.22812 8.52242 2.26702C8.51895 2.30591 8.50099 2.34228 8.47186 2.36942L8.19217 2.61169L9.09606 2.11065C9.13179 2.09146 9.17357 2.08551 9.21355 2.0939C9.25353 2.1023 9.28894 2.12447 9.31315 2.15624C9.33735 2.18802 9.34868 2.22722 9.34499 2.26647C9.34131 2.30573 9.32288 2.34234 9.29315 2.36942L8.98492 2.6408L9.93951 2.11065C9.97528 2.08894 10.0182 2.08104 10.0598 2.08851C10.1014 2.09599 10.1385 2.1183 10.1637 2.15098C10.1889 2.18366 10.2004 2.22431 10.1959 2.2648C10.1914 2.3053 10.1712 2.34266 10.1393 2.36942L9.76961 2.70517L10.841 2.11065C10.8768 2.09219 10.9182 2.0868 10.9577 2.09547C10.9972 2.10413 11.0321 2.12627 11.056 2.1578C11.0799 2.18933 11.0912 2.22812 11.0877 2.26702C11.0842 2.30591 11.0663 2.34228 11.0371 2.36942L10.7635 2.60619L11.657 2.11065C11.6927 2.0912 11.7346 2.08504 11.7748 2.09334C11.8149 2.10164 11.8505 2.12382 11.8748 2.15569C11.8991 2.18756 11.9105 2.2269 11.9067 2.26629C11.9029 2.30567 11.8843 2.34236 11.8544 2.36942L11.5438 2.64275L12.5021 2.11065C12.5379 2.09035 12.5802 2.08353 12.6209 2.09151C12.6615 2.0995 12.6977 2.12172 12.7224 2.15389C12.747 2.18605 12.7585 2.22589 12.7544 2.26569C12.7504 2.3055 12.7312 2.34245 12.7005 2.36942L12.355 2.68091L13.3808 2.11065C13.4153 2.09182 13.4555 2.08534 13.4945 2.09234C13.5334 2.09935 13.5685 2.11939 13.5936 2.14894C13.6187 2.17848 13.6321 2.21561 13.6315 2.25377C13.6309 2.29193 13.6163 2.32866 13.5903 2.35745L13.1031 2.88696L14.5019 2.11065C14.5377 2.09146 14.5795 2.08551 14.6194 2.0939C14.6594 2.1023 14.6948 2.12447 14.719 2.15624C14.7432 2.18802 14.7546 2.22722 14.7509 2.26647C14.7472 2.30573 14.7288 2.34234 14.699 2.36942L14.3938 2.63757L15.3434 2.11065C15.3794 2.09082 15.4218 2.08456 15.4624 2.09308C15.5029 2.10161 15.5388 2.1243 15.563 2.15679C15.5872 2.18928 15.5981 2.22926 15.5935 2.269C15.5889 2.30875 15.5692 2.34545 15.5381 2.37201L15.3098 2.5635L16.1254 2.11065C16.1594 2.09185 16.1992 2.08513 16.2379 2.09165C16.2765 2.09817 16.3116 2.11752 16.3369 2.14635C16.3623 2.17518 16.3764 2.21166 16.3768 2.24945C16.3771 2.28725 16.3637 2.32397 16.3389 2.35325L15.8386 2.94098L17.3321 2.11065C17.3685 2.09066 17.4112 2.08445 17.452 2.09324C17.4929 2.10202 17.5288 2.12518 17.5528 2.15816C17.5769 2.19115 17.5873 2.23159 17.582 2.27156C17.5767 2.31154 17.5561 2.34816 17.5242 2.37427L17.4208 2.45773L18.0453 2.11065C18.0789 2.09192 18.1182 2.08498 18.1565 2.09102C18.1948 2.09705 18.2298 2.11569 18.2554 2.14375C18.2811 2.17182 18.2958 2.20758 18.2972 2.24495C18.2985 2.28232 18.2864 2.31899 18.2629 2.34872L17.7609 2.97947L18.5735 2.52824C18.6057 2.5104 18.6432 2.50338 18.6801 2.5083C18.7169 2.51322 18.751 2.52978 18.7771 2.5554C18.8031 2.58102 18.8195 2.61423 18.8238 2.64983C18.8281 2.68543 18.82 2.72139 18.8008 2.75208L18.5993 3.07327C18.6384 3.06061 18.681 3.06225 18.7189 3.07789C18.7568 3.09352 18.7874 3.12206 18.8049 3.15804C18.8224 3.19403 18.8255 3.23496 18.8136 3.27301C18.8018 3.31107 18.7758 3.3436 18.7407 3.36439L18.2035 3.66327C18.1712 3.68121 18.1336 3.6883 18.0966 3.68339C18.0597 3.67849 18.0255 3.66189 17.9995 3.63619C17.9734 3.6105 17.957 3.57719 17.9528 3.5415C17.9485 3.50582 17.9568 3.46979 17.9761 3.43911L18.1753 3.12276L17.2022 3.66327C17.1686 3.682 17.1293 3.68894 17.091 3.6829C17.0527 3.67686 17.0177 3.65823 16.9921 3.63016C16.9664 3.6021 16.9517 3.56634 16.9503 3.52897C16.949 3.4916 16.9611 3.45493 16.9846 3.4252L17.4856 2.79445L15.9219 3.66327C15.8856 3.68294 15.843 3.6889 15.8024 3.68C15.7617 3.6711 15.726 3.64797 15.7021 3.6151C15.6782 3.58223 15.6678 3.54198 15.673 3.50216C15.6782 3.46234 15.6986 3.4258 15.7302 3.39965L15.8343 3.31555L15.2091 3.66327C15.175 3.68207 15.1352 3.68879 15.0966 3.68227C15.0579 3.67575 15.0229 3.65639 14.9975 3.62757C14.9721 3.59874 14.958 3.56226 14.9577 3.52447C14.9573 3.48667 14.9707 3.44995 14.9955 3.42067L15.4958 2.83294L14.0003 3.66327C13.9642 3.6831 13.9218 3.68935 13.8813 3.68083C13.8407 3.67231 13.8049 3.64962 13.7807 3.61713C13.7565 3.58464 13.7456 3.54466 13.7502 3.50491C13.7548 3.46517 13.7745 3.42847 13.8056 3.40191L14.0339 3.21042L13.2183 3.66327C13.1826 3.6822 13.1409 3.68797 13.1011 3.67948C13.0613 3.67099 13.026 3.64883 13.0019 3.61714C12.9778 3.58545 12.9665 3.54639 12.9701 3.50726C12.9737 3.46813 12.992 3.4316 13.0215 3.4045L13.3261 3.13667L12.3785 3.66327C12.3441 3.6821 12.3038 3.68858 12.2649 3.68158C12.2259 3.67457 12.1908 3.65452 12.1657 3.62498C12.1407 3.59544 12.1272 3.55831 12.1278 3.52015C12.1284 3.48199 12.143 3.44526 12.169 3.41647L12.6572 2.88696L11.2571 3.66327C11.2213 3.68389 11.1788 3.69095 11.138 3.68308C11.0971 3.67521 11.0607 3.65297 11.0359 3.62069C11.0111 3.58841 10.9997 3.54839 11.0038 3.50843C11.0079 3.46847 11.0274 3.43142 11.0583 3.4045L11.4051 3.09203L10.3784 3.66327C10.3426 3.68245 10.3008 3.68841 10.2609 3.68002C10.2209 3.67162 10.1855 3.64945 10.1613 3.61767C10.1371 3.5859 10.1257 3.5467 10.1294 3.50744C10.1331 3.46819 10.1515 3.43158 10.1813 3.4045L10.4918 3.13085L9.53457 3.66327C9.49886 3.68172 9.45743 3.68712 9.41792 3.67845C9.37841 3.66979 9.34348 3.64765 9.31959 3.61612C9.2957 3.58459 9.28445 3.54579 9.28792 3.5069C9.29139 3.46801 9.30935 3.43163 9.33848 3.4045L9.61213 3.16772L8.71731 3.66327C8.68173 3.68308 8.63985 3.68963 8.59959 3.68168C8.55934 3.67374 8.52351 3.65185 8.49888 3.62015C8.47426 3.58846 8.46256 3.54917 8.466 3.50972C8.46943 3.47027 8.48777 3.43341 8.51753 3.40611L8.88687 3.06842L7.8161 3.66327C7.78037 3.68245 7.73858 3.68841 7.69861 3.68002C7.65863 3.67162 7.62322 3.64945 7.59901 3.61767C7.57481 3.5859 7.56349 3.5467 7.56717 3.50744C7.57085 3.46819 7.58928 3.43158 7.61901 3.4045L7.92724 3.13311L6.97265 3.66327C6.93695 3.68172 6.89551 3.68712 6.856 3.67845C6.81649 3.66979 6.78157 3.64765 6.75767 3.61612C6.73378 3.58459 6.72253 3.54579 6.726 3.5069C6.72948 3.46801 6.74743 3.43163 6.77656 3.4045L7.0566 3.1619L6.15203 3.66327C6.12661 3.6778 6.09765 3.68561 6.06809 3.68591Z" fill="#5B6A7C"/>
<path d="M7.94549 21.8238C7.91121 21.8238 7.87775 21.8137 7.84961 21.7948C7.82146 21.7759 7.79999 21.7492 7.78807 21.7182C7.77615 21.6873 7.77435 21.6535 7.78292 21.6215C7.79148 21.5896 7.81 21.5609 7.83599 21.5393L8.01435 21.3914L7.27538 21.8018C7.24111 21.8207 7.20101 21.8273 7.16215 21.8206C7.12328 21.8138 7.08813 21.7941 7.06287 21.7648C7.0376 21.7356 7.02385 21.6987 7.02401 21.6607C7.02418 21.6226 7.03825 21.5858 7.06377 21.5568L7.55888 21.0012L6.11924 21.8011C6.08303 21.8209 6.04048 21.827 5.99985 21.8183C5.95921 21.8096 5.92339 21.7866 5.89934 21.7539C5.87528 21.7212 5.8647 21.681 5.86964 21.6412C5.87459 21.6013 5.89471 21.5647 5.9261 21.5384L6.08296 21.4089L5.47399 21.7477C5.43968 21.7668 5.39946 21.7736 5.36046 21.7669C5.32145 21.7602 5.28617 21.7404 5.26084 21.711C5.23552 21.6817 5.22178 21.6446 5.22206 21.6065C5.22234 21.5683 5.23662 21.5314 5.26238 21.5024L5.71012 20.9973L5.3272 21.2102C5.29549 21.2268 5.25908 21.2331 5.22336 21.2282C5.18765 21.2232 5.15452 21.2074 5.1289 21.1829C5.10327 21.1584 5.08651 21.1267 5.08109 21.0923C5.07567 21.0579 5.08188 21.0228 5.0988 20.9921L5.23315 20.7656C5.19916 20.76 5.16779 20.7444 5.14329 20.721C5.1188 20.6976 5.10237 20.6675 5.09624 20.6348C5.09011 20.6021 5.09458 20.5684 5.10904 20.5382C5.1235 20.5081 5.14725 20.4829 5.17706 20.4662L5.56703 20.2494C5.59899 20.2317 5.63613 20.2245 5.67271 20.2291C5.70929 20.2338 5.74327 20.2498 5.76942 20.2749C5.79556 20.3 5.8124 20.3327 5.81735 20.3679C5.8223 20.4031 5.81507 20.4389 5.79678 20.4698L5.70005 20.6316L6.38863 20.2478C6.4229 20.2289 6.463 20.2222 6.50186 20.229C6.54073 20.2357 6.57588 20.2555 6.60114 20.2847C6.62641 20.314 6.64017 20.3508 6.64 20.3889C6.63983 20.4269 6.62576 20.4637 6.60024 20.4928L6.15216 20.9982L7.50211 20.2478C7.53831 20.2283 7.58072 20.2224 7.62116 20.2312C7.6616 20.2401 7.69722 20.263 7.72115 20.2956C7.74509 20.3283 7.75565 20.3683 7.75081 20.408C7.74597 20.4476 7.72606 20.4842 7.69492 20.5106L7.53738 20.64L8.24276 20.2475C8.27703 20.2286 8.31713 20.2219 8.35599 20.2287C8.39486 20.2354 8.43001 20.2551 8.45527 20.2844C8.48054 20.3136 8.4943 20.3505 8.49413 20.3886C8.49396 20.4266 8.47989 20.4634 8.45437 20.4924L7.95926 21.0481L9.40058 20.2478C9.43675 20.2281 9.47923 20.222 9.5198 20.2307C9.56037 20.2394 9.59614 20.2623 9.62021 20.2949C9.64428 20.3276 9.65492 20.3677 9.65009 20.4074C9.64526 20.4472 9.6253 20.4838 9.59405 20.5102L9.4157 20.6581L10.1547 20.2478C10.1894 20.2286 10.2302 20.222 10.2696 20.2292C10.309 20.2364 10.3444 20.2569 10.3694 20.2871C10.3945 20.3173 10.4075 20.3551 10.4061 20.3937C10.4047 20.4323 10.389 20.4692 10.3619 20.4976L9.89166 20.9847L11.2171 20.2478C11.2529 20.2268 11.2955 20.2195 11.3366 20.2272C11.3777 20.235 11.4143 20.2573 11.4393 20.2897C11.4642 20.3221 11.4757 20.3623 11.4714 20.4025C11.4672 20.4426 11.4475 20.4798 11.4163 20.5067L11.0622 20.8271L12.1035 20.2488C12.1382 20.2297 12.1788 20.2233 12.218 20.2305C12.2572 20.2377 12.2925 20.2581 12.3175 20.2881C12.3425 20.3181 12.3556 20.3557 12.3544 20.3942C12.3532 20.4326 12.3379 20.4694 12.3111 20.4979L11.8365 20.9963L13.18 20.2488C13.2149 20.2295 13.2558 20.223 13.2953 20.2303C13.3347 20.2376 13.3702 20.2584 13.3951 20.2887C13.4201 20.3191 13.4329 20.357 13.4313 20.3957C13.4297 20.4344 13.4137 20.4712 13.3863 20.4996L12.9251 20.9717L14.2267 20.2478C14.261 20.2287 14.3013 20.2219 14.3403 20.2287C14.3793 20.2355 14.4146 20.2553 14.4399 20.2847C14.4652 20.3141 14.4789 20.3512 14.4785 20.3894C14.4782 20.4276 14.4638 20.4644 14.438 20.4934L13.9445 21.0435L15.3771 20.2478C15.4118 20.2288 15.4523 20.2222 15.4915 20.2294C15.5306 20.2365 15.5659 20.2568 15.591 20.2867C15.616 20.3166 15.6292 20.3541 15.6282 20.3925C15.6271 20.4309 15.612 20.4677 15.5854 20.4963L15.1061 21.006L16.4698 20.2478C16.5056 20.2278 16.5477 20.2212 16.5883 20.2293C16.6288 20.2374 16.6647 20.2596 16.6893 20.2917C16.7139 20.3237 16.7253 20.3634 16.7213 20.4031C16.7174 20.4428 16.6984 20.4797 16.668 20.5067L16.3391 20.7999L17.3317 20.2497C17.3654 20.2311 17.4048 20.2243 17.4432 20.2305C17.4815 20.2367 17.5164 20.2556 17.542 20.2839C17.5675 20.3121 17.582 20.348 17.5831 20.3855C17.5842 20.4229 17.5718 20.4596 17.548 20.4892L17.0442 21.1089L18.4569 20.3235C18.4917 20.3043 18.5324 20.2977 18.5718 20.3048C18.6111 20.312 18.6466 20.3325 18.6716 20.3626C18.6967 20.3927 18.7097 20.4305 18.7084 20.4691C18.7071 20.5077 18.6916 20.5445 18.6645 20.573L18.2598 20.9982L18.5738 20.8238C18.6076 20.8052 18.6471 20.7986 18.6855 20.8049C18.7238 20.8113 18.7587 20.8303 18.7842 20.8587C18.8096 20.8871 18.824 20.9231 18.8249 20.9606C18.8258 20.9981 18.8132 21.0348 18.7891 21.0643L18.6884 21.185C18.7119 21.1895 18.7341 21.1988 18.7536 21.2123C18.7731 21.2257 18.7895 21.243 18.8016 21.263C18.8239 21.3001 18.8299 21.3442 18.8185 21.3857C18.807 21.4271 18.7789 21.4625 18.7404 21.484L18.165 21.8011C18.1312 21.8199 18.0917 21.8267 18.0532 21.8204C18.0147 21.8141 17.9797 21.7951 17.9542 21.7667C17.9287 21.7382 17.9142 21.7021 17.9134 21.6645C17.9125 21.6269 17.9252 21.5902 17.9494 21.5607L17.979 21.5248L17.4815 21.8011C17.4468 21.8201 17.4062 21.8266 17.367 21.8194C17.3278 21.8122 17.2925 21.7917 17.2675 21.7617C17.2425 21.7317 17.2294 21.6942 17.2306 21.6557C17.2318 21.6173 17.2471 21.5805 17.2739 21.5519L17.677 21.1264L16.4661 21.8011C16.4324 21.8198 16.393 21.8266 16.3546 21.8203C16.3163 21.8141 16.2814 21.7953 16.2558 21.767C16.2303 21.7387 16.2157 21.7028 16.2146 21.6654C16.2135 21.6279 16.226 21.5913 16.2498 21.5617L16.7519 20.9419L15.2068 21.8011C15.1711 21.8209 15.129 21.8272 15.0887 21.819C15.0484 21.8108 15.0126 21.7886 14.9881 21.7566C14.9637 21.7247 14.9523 21.6851 14.9562 21.6456C14.96 21.6061 14.9788 21.5693 15.009 21.5422L15.3378 21.249L14.3453 21.7992C14.3106 21.8182 14.2701 21.8247 14.2309 21.8176C14.1917 21.8105 14.1565 21.7901 14.1314 21.7602C14.1064 21.7304 14.0932 21.6929 14.0942 21.6545C14.0952 21.6161 14.1104 21.5793 14.137 21.5506L14.6167 21.0413L13.2523 21.8011C13.2179 21.8202 13.1777 21.827 13.1387 21.8202C13.0996 21.8134 13.0644 21.7936 13.0391 21.7642C13.0138 21.7348 13.0001 21.6977 13.0004 21.6595C13.0008 21.6213 13.0152 21.5845 13.041 21.5555L13.5348 21.0054L12.1025 21.8011C12.0676 21.8204 12.0267 21.8269 11.9873 21.8196C11.9478 21.8122 11.9124 21.7915 11.8874 21.7612C11.8625 21.7308 11.8496 21.6929 11.8513 21.6542C11.8529 21.6155 11.8689 21.5786 11.8963 21.5503L12.3595 21.0766L11.0559 21.8011C11.0212 21.8201 10.9806 21.8266 10.9413 21.8194C10.9021 21.8122 10.8669 21.7917 10.8419 21.7617C10.8169 21.7317 10.8038 21.6942 10.805 21.6557C10.8062 21.6173 10.8215 21.5805 10.8483 21.5519L11.3229 21.0536L9.97932 21.8011C9.94354 21.8221 9.90091 21.8294 9.8598 21.8217C9.8187 21.8139 9.78208 21.7916 9.75714 21.7592C9.7322 21.7268 9.72073 21.6866 9.72498 21.6464C9.72924 21.6063 9.74891 21.5691 9.78014 21.5422L10.1342 21.2219L9.09257 21.8011C9.05779 21.8201 9.01712 21.8266 8.97787 21.8193C8.93861 21.812 8.90334 21.7914 8.87841 21.7613C8.85347 21.7312 8.8405 21.6935 8.84183 21.655C8.84316 21.6165 8.8587 21.5797 8.88566 21.5513L9.35591 21.0643L8.02946 21.8011C8.00408 21.8158 7.97508 21.8236 7.94549 21.8238Z" fill="#5B6A7C"/>
<path d="M4.97715 21.2132C4.52975 22.6812 16.5095 21.5853 18.2314 21.8816C19.3898 21.8856 19.2489 19.8211 17.9448 20.1842C18.6009 14.9928 15.6242 15.5964 14.2411 12.1707C14.5517 8.63579 18.7479 9.27559 17.9461 3.74508C18.8211 3.92409 19.1616 3.1046 18.9276 2.36807C18.1545 1.64699 16.6757 2.23138 15.6579 2.0517C12.3109 2.06614 8.95996 2.03054 5.61572 2.05203C4.51593 2.18637 4.84836 4.10075 5.99064 3.74508C5.31633 8.88533 8.32544 8.34393 9.69462 11.7582C9.4367 15.3153 5.19091 14.6577 5.98929 20.17C5.24587 20.0777 4.88747 20.5119 4.97715 21.2132ZM5.47176 2.79326C5.32577 1.86563 12.4967 2.63575 13.6943 2.39662C15.2435 2.40871 16.8116 2.37915 18.3497 2.39662C18.4863 2.46379 18.5598 3.36858 18.3969 3.39478C16.8716 3.08109 4.65146 4.13064 5.47176 2.79326ZM6.70811 16.8881C7.15787 15.5447 8.24688 14.743 9.26239 13.8415C12.7182 9.88517 5.23137 9.43479 6.4785 3.75079C10.1387 3.74306 13.7968 3.76086 17.4573 3.7528C18.7422 9.46636 11.3406 9.92447 14.582 13.8835C16.7563 15.3368 17.8359 17.5779 17.4583 20.1842H17.1457C11.1825 15.1329 12.8922 15.1228 6.92995 20.1741C6.78026 20.1707 6.63056 20.1687 6.48053 20.167C6.47007 19.0876 6.36252 17.9181 6.70811 16.8881ZM16.4856 20.1842C13.4333 20.1808 10.3807 20.1905 7.32847 20.1805C13.0446 15.4798 10.7728 15.502 16.4856 20.1842ZM6.63393 20.5375C10.4923 20.5428 14.3585 20.5301 18.2128 20.5375C18.5544 20.387 18.5443 21.4819 18.3962 21.5276C16.8851 21.2172 4.63258 22.2537 5.47176 20.9318C5.37904 20.2456 6.23643 20.6335 6.63393 20.5375Z" fill="#262626"/>
<path d="M11.7202 11.6857C11.5139 14.3003 12.4539 13.9117 12.2081 11.5849C12.8753 9.68433 14.8888 8.77718 16.0682 7.26315C16.9957 5.24735 16.9879 4.57564 14.579 4.81712C12.2863 4.90109 9.94578 4.64919 7.67639 4.90209C6.78597 5.68463 7.70336 7.33704 8.42285 8.01513C9.6184 9.10531 11.1531 10.1119 11.7202 11.6857ZM8.10795 6.80169C7.2563 4.15213 8.11065 5.18421 10.0881 5.00587C11.4131 5.22149 15.4269 4.54844 16.1066 5.31217C16.3335 8.07189 13.1015 8.94847 12.0014 11.0852C11.1423 9.30246 9.0422 8.51253 8.10795 6.80169Z" fill="#262626"/>
<path d="M12.1597 14.523C11.779 14.3462 11.5889 14.863 11.7763 15.1162C12.157 15.2931 12.3471 14.7766 12.1597 14.523Z" fill="#262626"/>
</svg>
