<svg xmlns="http://www.w3.org/2000/svg" width="79" height="61" viewBox="0 0 79 61" fill="none">
  <g clip-path="url(#clip0_595_3166)">
    <g opacity="0.5" style="mix-blend-mode:multiply">
      <path d="M42.1612 57.31L44.8952 56.6625L45.1548 55.6184C42.6804 54.9709 42.4208 51.7171 42.4208 51.7171C46.7206 35.586 62.2403 33.7649 62.2403 33.7649C52.075 28.0425 45.2928 34.6714 45.2928 34.6714C45.2928 34.6714 45.9418 33.4978 48.6839 24.6592C50.8906 17.5447 42.7048 6.88507 39.4272 3C36.1497 6.89316 27.9639 17.5447 30.1706 24.6592C32.9046 33.5059 33.5617 34.6714 33.5617 34.6714C33.5617 34.6714 26.7794 28.0344 16.6142 33.7649C16.6142 33.7649 32.1257 35.586 36.4336 51.7171C36.4336 51.7171 36.174 54.9709 33.6996 55.6184L33.9592 56.6625L36.6932 57.31C36.6932 57.31 37.8696 68.1072 26.0006 70.4464C26.0006 70.4464 32.9127 74.3476 36.1659 71.62L34.0809 78.1194C34.0809 78.1194 34.3243 83.4047 39.4272 86.2375C44.5302 83.3966 44.7735 78.1194 44.7735 78.1194L42.6886 71.62C45.9499 74.3476 52.8538 70.4464 52.8538 70.4464C40.993 68.1072 42.1612 57.31 42.1612 57.31Z" fill="url(#paint0_linear_595_3166)"/>
      <path d="M63.8953 35.497C57.3727 35.8855 51.5558 41.1303 51.5558 41.1303C51.5558 41.1303 59.4495 40.4585 61.2505 46.1404C60.3825 45.5253 59.3278 45.1611 58.1839 45.1611C55.2471 45.1611 52.862 47.5407 52.862 50.4707C52.862 53.4006 55.2471 55.7803 58.1839 55.7803C58.3137 55.7803 58.4354 55.7479 58.5652 55.7398L58.549 55.7803C58.549 55.7803 68.3249 56.5573 68.5034 45.6305C68.6088 39.204 63.8953 35.4889 63.8953 35.4889V35.497Z" fill="url(#paint1_linear_595_3166)"/>
      <path d="M20.6705 45.1692C19.5266 45.1692 18.472 45.5334 17.6039 46.1485C19.4049 40.4585 27.2987 41.1384 27.2987 41.1384C27.2987 41.1384 21.4737 35.8936 14.9591 35.5051C14.9591 35.497 10.2537 39.2201 10.3511 45.6467C10.5215 56.5734 20.3055 55.7964 20.3055 55.7964L20.2892 55.756C20.419 55.7641 20.5407 55.7964 20.6705 55.7964C23.6074 55.7964 25.9925 53.4168 25.9925 50.4868C25.9925 47.5569 23.6074 45.1773 20.6705 45.1773V45.1692Z" fill="url(#paint2_linear_595_3166)"/>
    </g>
  </g>
  <defs>
    <linearGradient id="paint0_linear_595_3166" x1="39.4274" y1="3" x2="39.4274" y2="86.2375" gradientUnits="userSpaceOnUse">
      <stop stop-color="#C2D6E0"/>
      <stop offset="1" stop-color="#86969D"/>
    </linearGradient>
    <linearGradient id="paint1_linear_595_3166" x1="39.4274" y1="3" x2="39.4274" y2="86.2375" gradientUnits="userSpaceOnUse">
      <stop stop-color="#C2D6E0"/>
      <stop offset="1" stop-color="#86969D"/>
    </linearGradient>
    <linearGradient id="paint2_linear_595_3166" x1="39.4274" y1="3" x2="39.4274" y2="86.2375" gradientUnits="userSpaceOnUse">
      <stop stop-color="#C2D6E0"/>
      <stop offset="1" stop-color="#86969D"/>
    </linearGradient>
    <clipPath id="clip0_595_3166">
      <rect width="79" height="61" fill="white"/>
    </clipPath>
  </defs>
</svg>
