<svg xmlns="http://www.w3.org/2000/svg" width="79" height="61" viewBox="0 0 79 61" fill="none">
  <g clip-path="url(#clip0_595_2233)">
    <g opacity="0.5" style="mix-blend-mode:multiply">
      <path d="M33.521 36.5616C34.3426 40.9501 37.5784 51.7764 39.4334 57.8988C41.2884 51.7681 44.5241 40.9501 45.3458 36.5616C46.3707 31.0862 40.8225 24.5075 39.4334 22.9562C38.0442 24.5075 32.4961 31.0945 33.521 36.5616Z" fill="url(#paint0_linear_595_2233)"/>
      <path d="M31.3948 35.7071C31.2169 34.8692 30.2089 28.2822 39.4333 19.0736C48.6576 28.2822 47.6412 34.8775 47.4718 35.7071L49.3183 27.6434C50.0976 9.58302 39.4333 2.64758 39.4333 2.64758C39.4333 2.64758 28.769 9.58302 29.5482 27.6434L31.3948 35.7071Z" fill="url(#paint1_linear_595_2233)"/>
      <path d="M31.3948 35.7071C31.4032 35.7647 31.4116 35.7977 31.4116 35.7977L31.3948 35.7071Z" fill="url(#paint2_linear_595_2233)"/>
      <path d="M47.4718 35.7071L47.4548 35.7977C47.4548 35.7977 47.4633 35.7647 47.4718 35.7071Z" fill="url(#paint3_linear_595_2233)"/>
      <path d="M63.0915 29.0952C45.0409 31.3019 43.7958 56.6793 43.7958 56.6793C44.575 54.008 46.9722 41.8793 59.7456 40.9833C72.7393 40.0708 69.9356 53.4024 69.9356 53.4024C82.9293 49.8185 81.142 26.8801 63.0915 29.0952Z" fill="url(#paint4_linear_595_2233)"/>
      <path d="M35.0796 56.6793C35.0796 56.6793 33.8345 31.3019 15.7839 29.0952C-2.26665 26.8884 -4.06239 49.8268 8.93977 53.4024C8.93977 53.4024 6.13605 40.0625 19.1297 40.9833C31.9032 41.8793 34.3004 54.0163 35.0796 56.6793Z" fill="url(#paint5_linear_595_2233)"/>
      <path d="M43.7871 61.3333L39.4333 58.8197L35.0795 61.3333C35.0795 61.3333 35.7232 72.0766 23.2378 75.0466C23.2378 75.0466 34.063 80.9948 39.4333 71.2056C44.8036 80.9948 55.6288 75.0466 55.6288 75.0466C43.1518 72.0766 43.7871 61.3333 43.7871 61.3333Z" fill="url(#paint6_linear_595_2233)"/>
      <path d="M39.4333 75.8845C39.4333 75.8845 37.6461 78.8545 32.5045 79.4684C32.5045 79.4684 33.3939 83.8155 39.4333 87.6233C45.4728 83.8072 46.3622 79.4684 46.3622 79.4684C41.2291 78.8545 39.4333 75.8845 39.4333 75.8845Z" fill="url(#paint7_linear_595_2233)"/>
    </g>
  </g>
  <defs>
    <linearGradient id="paint0_linear_595_2233" x1="39.4359" y1="2.64758" x2="39.4359" y2="87.6233" gradientUnits="userSpaceOnUse">
      <stop stop-color="#DDAF4A"/>
      <stop offset="1" stop-color="#FFE18F"/>
    </linearGradient>
    <linearGradient id="paint1_linear_595_2233" x1="39.4359" y1="2.64758" x2="39.4359" y2="87.6233" gradientUnits="userSpaceOnUse">
      <stop stop-color="#DDAF4A"/>
      <stop offset="1" stop-color="#FFE18F"/>
    </linearGradient>
    <linearGradient id="paint2_linear_595_2233" x1="39.4359" y1="2.64758" x2="39.4359" y2="87.6233" gradientUnits="userSpaceOnUse">
      <stop stop-color="#DDAF4A"/>
      <stop offset="1" stop-color="#FFE18F"/>
    </linearGradient>
    <linearGradient id="paint3_linear_595_2233" x1="39.4359" y1="2.64758" x2="39.4359" y2="87.6233" gradientUnits="userSpaceOnUse">
      <stop stop-color="#DDAF4A"/>
      <stop offset="1" stop-color="#FFE18F"/>
    </linearGradient>
    <linearGradient id="paint4_linear_595_2233" x1="39.4359" y1="2.64758" x2="39.4359" y2="87.6233" gradientUnits="userSpaceOnUse">
      <stop stop-color="#DDAF4A"/>
      <stop offset="1" stop-color="#FFE18F"/>
    </linearGradient>
    <linearGradient id="paint5_linear_595_2233" x1="39.4359" y1="2.64758" x2="39.4359" y2="87.6233" gradientUnits="userSpaceOnUse">
      <stop stop-color="#DDAF4A"/>
      <stop offset="1" stop-color="#FFE18F"/>
    </linearGradient>
    <linearGradient id="paint6_linear_595_2233" x1="39.4359" y1="2.64758" x2="39.4359" y2="87.6233" gradientUnits="userSpaceOnUse">
      <stop stop-color="#DDAF4A"/>
      <stop offset="1" stop-color="#FFE18F"/>
    </linearGradient>
    <linearGradient id="paint7_linear_595_2233" x1="39.4359" y1="2.64758" x2="39.4359" y2="87.6233" gradientUnits="userSpaceOnUse">
      <stop stop-color="#DDAF4A"/>
      <stop offset="1" stop-color="#FFE18F"/>
    </linearGradient>
    <clipPath id="clip0_595_2233">
      <rect width="79" height="61" fill="white"/>
    </clipPath>
  </defs>
</svg>
