<svg xmlns="http://www.w3.org/2000/svg" width="55" height="58" viewBox="0 0 55 58" fill="none">
  <g opacity="0.3" style="mix-blend-mode:multiply">
    <path d="M27.4953 0C28.678 0.00602038 34.5801 13.1575 34.5801 29.3775C34.5799 45.5971 28.678 58.7469 27.4953 58.753C26.3145 58.753 20.4108 45.6008 20.4105 29.3775C20.4105 13.1538 26.3145 0 27.4953 0Z" fill="url(#paint0_linear_595_3365)"/>
    <path d="M0.22952 23.0292C0.923558 22.5985 8.50013 28.1489 13.577 37.66C18.6546 47.1725 19.3088 57.0459 18.6165 57.4783C17.9196 57.9063 10.3448 52.3566 5.26893 42.8474C0.191755 33.3352 -0.46281 23.4616 0.22952 23.0292Z" fill="url(#paint1_linear_595_3365)"/>
    <path d="M54.7592 23.0292C55.4515 23.4616 54.7971 33.3351 49.7198 42.8474C44.643 52.3583 37.0668 57.9085 36.3722 57.4783C35.6799 57.0459 36.3341 47.1725 41.4116 37.66C46.4877 28.1505 54.0628 22.6006 54.7592 23.0292Z" fill="url(#paint2_linear_595_3365)"/>
  </g>
  <defs>
    <linearGradient id="paint0_linear_595_3365" x1="27.4944" y1="9.15044e-06" x2="27.4944" y2="58.753" gradientUnits="userSpaceOnUse">
      <stop stop-color="#281508"/>
      <stop offset="1" stop-color="#684227"/>
    </linearGradient>
    <linearGradient id="paint1_linear_595_3365" x1="27.4944" y1="9.15044e-06" x2="27.4944" y2="58.753" gradientUnits="userSpaceOnUse">
      <stop stop-color="#281508"/>
      <stop offset="1" stop-color="#684227"/>
    </linearGradient>
    <linearGradient id="paint2_linear_595_3365" x1="27.4944" y1="9.15044e-06" x2="27.4944" y2="58.753" gradientUnits="userSpaceOnUse">
      <stop stop-color="#281508"/>
      <stop offset="1" stop-color="#684227"/>
    </linearGradient>
  </defs>
</svg>
