<svg width="24" height="24" viewBox="0 0 24 24" fill="none" xmlns="http://www.w3.org/2000/svg">
<g clip-path="url(#clip0_108_3052)">
<path d="M9.30885 20.3123C9.27192 20.2908 9.24309 20.2577 9.2268 20.2182C9.21052 20.1787 9.20768 20.135 9.21873 20.0937C9.22977 20.0524 9.25409 20.016 9.28793 19.9899C9.32177 19.9638 9.36325 19.9496 9.40597 19.9494L13.3998 19.9491C13.426 19.948 13.4522 19.9522 13.4767 19.9615C13.5013 19.9707 13.5237 19.9849 13.5427 20.003C13.5616 20.0212 13.5767 20.043 13.5871 20.0671C13.5974 20.0913 13.6027 20.1172 13.6027 20.1435C13.6027 20.1697 13.5974 20.1957 13.5871 20.2199C13.5768 20.244 13.5618 20.2659 13.5428 20.284C13.5239 20.3022 13.5015 20.3164 13.4769 20.3257C13.4524 20.3349 13.4262 20.3392 13.4 20.3381L9.40617 20.3384C9.37199 20.3385 9.33839 20.3295 9.30885 20.3123Z" fill="#9CC824"/>
<path d="M5.95189 21.7299C5.91877 21.7107 5.89205 21.6821 5.87508 21.6478C5.85811 21.6134 5.85164 21.5749 5.85649 21.5369C5.86134 21.4989 5.87729 21.4632 5.90234 21.4342C5.92739 21.4052 5.96043 21.3843 5.99732 21.374L6.26419 21.3011L5.74008 21.301C5.69127 21.3012 5.64416 21.2831 5.60809 21.2502C5.57202 21.2173 5.54963 21.1721 5.54535 21.1234C5.54107 21.0748 5.55521 21.0263 5.58498 20.9877C5.61475 20.949 5.65797 20.9229 5.70607 20.9146L6.14308 20.8374L5.53229 20.8372C5.48343 20.837 5.43641 20.8185 5.40057 20.7853C5.36473 20.7521 5.34269 20.7066 5.33883 20.6579C5.33497 20.6092 5.34956 20.5608 5.37972 20.5224C5.40987 20.4839 5.45338 20.4582 5.50161 20.4504L6.60803 20.2742L5.93355 20.2745C5.88328 20.2738 5.83524 20.2537 5.79948 20.2183C5.76372 20.183 5.74302 20.1352 5.7417 20.085C5.74039 20.0347 5.75858 19.9859 5.79244 19.9487C5.82631 19.9116 5.87324 19.889 5.9234 19.8857L6.96738 19.8316L6.63705 19.8315C6.58705 19.8309 6.53919 19.8112 6.50338 19.7763C6.46758 19.7414 6.44657 19.694 6.44473 19.6441C6.44288 19.5941 6.46034 19.5453 6.49347 19.5079C6.5266 19.4704 6.57288 19.4472 6.6227 19.4429L10.206 19.1742L7.5475 19.1718C7.52196 19.1727 7.49648 19.1685 7.47254 19.1596C7.4486 19.1506 7.42665 19.137 7.40795 19.1196C7.37019 19.0844 7.34796 19.0356 7.34616 18.984C7.34435 18.9324 7.36311 18.8822 7.39832 18.8445C7.43352 18.8067 7.48229 18.7845 7.53388 18.7827L10.4162 18.5826L8.25836 18.5829C8.20777 18.5826 8.1593 18.5626 8.1232 18.5271C8.0871 18.4917 8.06621 18.4436 8.06496 18.393C8.06371 18.3425 8.08219 18.2934 8.1165 18.2562C8.15081 18.219 8.19824 18.1967 8.24874 18.1939L8.61006 18.1777C8.56932 18.1608 8.53556 18.1305 8.51429 18.0918C8.49303 18.0531 8.48553 18.0084 8.49303 17.9649C8.50052 17.9215 8.52257 17.8818 8.55555 17.8525C8.58853 17.8232 8.63049 17.806 8.67454 17.8036L9.64048 17.7508L9.13323 17.7488C9.08241 17.749 9.03354 17.7293 8.99707 17.6939C8.96059 17.6585 8.93941 17.6102 8.93804 17.5594C8.93667 17.5086 8.95523 17.4593 8.98974 17.422C9.02425 17.3847 9.07199 17.3624 9.12275 17.3598L9.79256 17.3239L9.53094 17.3239C9.48124 17.3233 9.43366 17.3038 9.39793 17.2692C9.3622 17.2347 9.34103 17.1878 9.33877 17.1381C9.33651 17.0885 9.35333 17.0399 9.38577 17.0022C9.41821 16.9646 9.46382 16.9408 9.51325 16.9357L13.2434 16.5962L10.1535 16.5968C10.103 16.5969 10.0545 16.5775 10.0182 16.5425C9.9818 16.5076 9.96041 16.4599 9.95851 16.4095C9.95661 16.3591 9.97434 16.31 10.008 16.2724C10.0416 16.2348 10.0885 16.2117 10.1388 16.2081L12.7776 16.0063L10.607 16.0059C10.5575 16.0046 10.5104 15.9846 10.4752 15.9498C10.44 15.915 10.4194 15.8681 10.4175 15.8186C10.4157 15.7692 10.4327 15.7209 10.4652 15.6835C10.4977 15.6462 10.5432 15.6227 10.5925 15.6177L12.8683 15.4482L11.0002 15.4494C10.9502 15.4495 10.9021 15.4304 10.8658 15.3959C10.8296 15.3615 10.808 15.3144 10.8055 15.2645C10.803 15.2146 10.8198 15.1656 10.8524 15.1277C10.8851 15.0898 10.931 15.066 10.9808 15.0611L14.5296 14.7072L11.4724 14.7079C11.4229 14.7071 11.3755 14.6875 11.3399 14.6531C11.3044 14.6186 11.2833 14.5719 11.281 14.5224C11.2786 14.4729 11.2953 14.4244 11.3275 14.3868C11.3596 14.3491 11.405 14.3252 11.4542 14.3198L14.4091 14.0478L11.8501 14.0476C11.8003 14.0464 11.753 14.0262 11.7176 13.9912C11.6823 13.9562 11.6618 13.909 11.6601 13.8593C11.6585 13.8096 11.676 13.7611 11.709 13.7239C11.7419 13.6867 11.7879 13.6635 11.8374 13.6591L12.615 13.6095L12.0792 13.6094C12.0291 13.6093 11.981 13.5898 11.9449 13.5551C11.9087 13.5204 11.8874 13.4731 11.8852 13.4231C11.8831 13.373 11.9003 13.3241 11.9334 13.2864C11.9664 13.2487 12.0127 13.2253 12.0626 13.2209L14.262 13.0342L12.3588 13.034C12.3087 13.0339 12.2606 13.0145 12.2244 12.9798C12.1883 12.9451 12.167 12.8978 12.1648 12.8477C12.1627 12.7977 12.1799 12.7487 12.2129 12.711C12.246 12.6734 12.2923 12.6499 12.3422 12.6455L14.3906 12.4697L12.6088 12.4695C12.558 12.47 12.509 12.4507 12.4723 12.4157C12.4355 12.3807 12.4139 12.3327 12.4121 12.2819C12.4102 12.2312 12.4283 12.1817 12.4624 12.1441C12.4965 12.1065 12.5439 12.0837 12.5946 12.0805L13.6068 12.0068L12.7311 12.0069C12.7048 12.0081 12.6787 12.0039 12.6541 11.9946C12.6295 11.9853 12.6071 11.9712 12.5881 11.953C12.5692 11.9349 12.5541 11.9131 12.5438 11.8889C12.5335 11.8648 12.5281 11.8388 12.5281 11.8126C12.5281 11.7863 12.5334 11.7603 12.5437 11.7362C12.554 11.712 12.569 11.6902 12.588 11.672C12.6069 11.6538 12.6294 11.6397 12.6539 11.6304C12.6785 11.6211 12.7046 11.6169 12.7309 11.618L18.9614 11.6171C19.013 11.6152 19.0632 11.6339 19.1011 11.669C19.1389 11.7041 19.1613 11.7528 19.1632 11.8044C19.1651 11.856 19.1465 11.9063 19.1113 11.9441C19.0762 11.982 19.0275 12.0043 18.9759 12.0062L17.9653 12.0795L18.9272 12.0797C18.9767 12.0806 19.0241 12.1004 19.0596 12.135C19.095 12.1696 19.116 12.2164 19.1181 12.2659C19.1203 12.3154 19.1035 12.3639 19.0711 12.4014C19.0387 12.439 18.9933 12.4628 18.944 12.4679L16.8962 12.6441L18.8541 12.6439C18.9042 12.6441 18.9523 12.6635 18.9884 12.6982C19.0245 12.7329 19.0459 12.7802 19.048 12.8303C19.0502 12.8803 19.0329 12.9293 18.9999 12.9669C18.9669 13.0046 18.9206 13.0281 18.8707 13.0325L16.6683 13.2196L18.7455 13.2196C18.7965 13.219 18.8456 13.2383 18.8825 13.2735C18.9193 13.3087 18.9408 13.357 18.9425 13.4079C18.9442 13.4588 18.9258 13.5083 18.8914 13.5458C18.8569 13.5834 18.8092 13.6059 18.7583 13.6086L17.9794 13.6574L18.6409 13.6577C18.691 13.6578 18.7391 13.6771 18.7753 13.7116C18.8115 13.7462 18.833 13.7934 18.8353 13.8434C18.8376 13.8934 18.8206 13.9423 18.7877 13.9801C18.7549 14.0179 18.7088 14.0415 18.659 14.0462L15.7064 14.3195L18.4412 14.3183C18.4912 14.3182 18.5393 14.3374 18.5756 14.3718C18.6118 14.4062 18.6334 14.4533 18.6359 14.5032C18.6384 14.5532 18.6216 14.6022 18.589 14.64C18.5563 14.6779 18.5104 14.7018 18.4606 14.7067L14.9099 15.0607L18.1459 15.0617C18.1959 15.0623 18.2438 15.0821 18.2796 15.117C18.3154 15.1519 18.3364 15.1992 18.3382 15.2492C18.3401 15.2991 18.3226 15.3479 18.2895 15.3853C18.2564 15.4228 18.2101 15.4461 18.1603 15.4503L15.8838 15.6194L17.8708 15.6176C17.9212 15.6175 17.9697 15.637 18.0061 15.6719C18.0425 15.7069 18.0639 15.7545 18.0658 15.8049C18.0677 15.8553 18.0499 15.9045 18.0163 15.9421C17.9827 15.9797 17.9358 16.0027 17.8855 16.0064L15.247 16.2084L17.5329 16.2083C17.5826 16.2089 17.6302 16.2285 17.6659 16.263C17.7017 16.2976 17.7228 16.3445 17.7251 16.3941C17.7273 16.4438 17.7105 16.4924 17.6781 16.53C17.6456 16.5677 17.6 16.5915 17.5506 16.5966L13.8213 16.9361L17.0577 16.9364C17.1074 16.938 17.1546 16.9584 17.1896 16.9936C17.2247 17.0289 17.2449 17.0761 17.2463 17.1258C17.2476 17.1755 17.2299 17.2238 17.1967 17.2608C17.1636 17.2978 17.1176 17.3208 17.0681 17.3249L16.3952 17.3613L16.7458 17.3614C16.7966 17.3613 16.8455 17.381 16.882 17.4164C16.9184 17.4518 16.9396 17.5 16.941 17.5508C16.9424 17.6016 16.9238 17.651 16.8893 17.6883C16.8548 17.7256 16.8071 17.7479 16.7563 17.7505L15.7921 17.8025L16.385 17.8027C16.4356 17.803 16.484 17.823 16.5201 17.8584C16.5562 17.8938 16.5771 17.9419 16.5784 17.9925C16.5796 18.0431 16.5611 18.0921 16.5268 18.1293C16.4925 18.1665 16.4451 18.1888 16.3946 18.1917L16.0937 18.2059C16.1356 18.2212 16.171 18.2505 16.1939 18.2888C16.2167 18.3271 16.2258 18.3721 16.2194 18.4162C16.2131 18.4604 16.1918 18.501 16.1591 18.5314C16.1264 18.5617 16.0842 18.5799 16.0397 18.5828L13.155 18.7838L15.3949 18.7841C15.4443 18.7854 15.4915 18.8055 15.5267 18.8403C15.5619 18.8751 15.5825 18.922 15.5843 18.9714C15.5862 19.0209 15.5691 19.0692 15.5366 19.1065C15.5041 19.1438 15.4586 19.1674 15.4094 19.1724L11.8265 19.4413L14.4727 19.4407C14.5243 19.4394 14.5744 19.4587 14.6118 19.4942C14.6492 19.5298 14.671 19.5788 14.6723 19.6304C14.6736 19.682 14.6544 19.732 14.6188 19.7694C14.5833 19.8069 14.5343 19.8286 14.4827 19.8299L9.25815 20.1019C9.25327 20.1441 9.23472 20.1835 9.20532 20.2142C9.17592 20.2449 9.1373 20.2651 9.09534 20.2717L7.98805 20.4479L8.35865 20.4483C8.40715 20.4485 8.45383 20.4669 8.48953 20.4997C8.52523 20.5325 8.5474 20.5775 8.55168 20.6258C8.55596 20.6741 8.54205 20.7223 8.51267 20.7609C8.48329 20.7995 8.44057 20.8257 8.39286 20.8344L7.79599 20.9394C7.82849 20.9591 7.85451 20.9879 7.87082 21.0223C7.88713 21.0566 7.89303 21.095 7.88778 21.1326C7.88253 21.1703 7.86637 21.2056 7.84129 21.2342C7.81622 21.2627 7.78331 21.2833 7.74666 21.2934L7.09431 21.4742C7.10797 21.5011 7.11498 21.5309 7.11473 21.5611C7.11478 21.6127 7.09435 21.6622 7.05791 21.6987C7.02148 21.7353 6.97202 21.7558 6.92043 21.7559L6.05096 21.7561C6.01616 21.7566 5.9819 21.7475 5.95189 21.7299Z" fill="#9CC824"/>
<path d="M5.75878 17.863C5.72658 17.8444 5.70038 17.817 5.68326 17.784C5.66614 17.751 5.65883 17.7138 5.66219 17.6768C5.66555 17.6398 5.67944 17.6045 5.70222 17.5751C5.72499 17.5458 5.7557 17.5235 5.79072 17.511L6.32108 17.3228L5.35465 17.3227C5.30652 17.3224 5.26018 17.3044 5.22458 17.272C5.18898 17.2396 5.16665 17.1951 5.16189 17.1473C5.15713 17.0994 5.17029 17.0514 5.19882 17.0126C5.22736 16.9739 5.26924 16.947 5.31639 16.9374L6.15134 16.7712L5.03875 16.7712C4.9893 16.7714 4.94163 16.7528 4.90542 16.7191C4.86921 16.6854 4.84717 16.6392 4.84378 16.5899C4.84039 16.5406 4.85591 16.4918 4.88717 16.4535C4.91844 16.4152 4.96312 16.3902 5.01213 16.3836L5.80892 16.275L4.80324 16.2752C4.75448 16.2749 4.70758 16.2564 4.67182 16.2233C4.63607 16.1901 4.61405 16.1448 4.61012 16.0962C4.6062 16.0476 4.62066 15.9993 4.65064 15.9608C4.68062 15.9224 4.72394 15.8966 4.77203 15.8885L7.0212 15.5238L4.53492 15.5237C4.48528 15.5234 4.43765 15.5041 4.40175 15.4699C4.36585 15.4356 4.3444 15.3889 4.34178 15.3393C4.33917 15.2898 4.35558 15.2411 4.38767 15.2032C4.41977 15.1654 4.46511 15.1412 4.51443 15.1356L6.28022 14.9495L4.39276 14.9485C4.34276 14.948 4.2949 14.9282 4.25909 14.8933C4.22329 14.8584 4.20229 14.811 4.20044 14.7611C4.1986 14.7111 4.21605 14.6623 4.24918 14.6249C4.28232 14.5874 4.32859 14.5642 4.37841 14.5599L5.06514 14.5096L4.31673 14.5095C4.26922 14.5055 4.22483 14.4842 4.19199 14.4496C4.15914 14.4151 4.14012 14.3697 4.13852 14.322C4.13693 14.2744 4.15288 14.2278 4.18335 14.1911C4.21382 14.1545 4.25668 14.1302 4.30382 14.1231L5.22708 14.0578L4.26799 14.0574C4.21775 14.0572 4.16957 14.0375 4.13352 14.0025C4.09747 13.9675 4.07634 13.9199 4.07455 13.8697C4.07277 13.8195 4.09047 13.7706 4.12394 13.7331C4.15742 13.6956 4.20408 13.6726 4.25417 13.6687L5.61322 13.5727L4.24494 13.5726C4.19461 13.5723 4.14636 13.5525 4.11032 13.5173C4.07428 13.4822 4.05325 13.4345 4.05164 13.3841C4.05004 13.3338 4.06798 13.2849 4.10171 13.2475C4.13543 13.2101 4.18232 13.1873 4.23253 13.1838L5.19536 13.1247L4.25597 13.1245C4.2067 13.1231 4.15977 13.1032 4.12465 13.0686C4.08953 13.034 4.06883 12.9874 4.06674 12.9382C4.06465 12.8889 4.08132 12.8407 4.11338 12.8033C4.14544 12.7658 4.19051 12.742 4.23949 12.7365L7.40467 12.4709L4.32647 12.4729C4.2766 12.4716 4.22914 12.4512 4.19388 12.4159C4.15862 12.3806 4.13826 12.3331 4.13701 12.2832C4.13575 12.2334 4.15369 12.1849 4.18712 12.1479C4.22055 12.1108 4.26692 12.0881 4.31666 12.0842L11.3843 11.7212L4.48401 11.7196C4.43325 11.7194 4.38458 11.6994 4.34838 11.6638C4.31219 11.6282 4.29133 11.5799 4.29026 11.5291C4.28919 11.4783 4.30799 11.4292 4.34265 11.3921C4.37731 11.355 4.42509 11.3329 4.4758 11.3306L9.28368 11.1395L4.66261 11.1386C4.61276 11.1369 4.56545 11.1162 4.53043 11.0807C4.4954 11.0452 4.47534 10.9977 4.47437 10.9478C4.4734 10.8979 4.49161 10.8496 4.52523 10.8128C4.55885 10.776 4.60532 10.7534 4.65506 10.7499L8.79267 10.5908L4.8893 10.5902C4.83903 10.5895 4.79099 10.5694 4.75522 10.534C4.71946 10.4987 4.69876 10.4509 4.69745 10.4007C4.69614 10.3504 4.71432 10.3016 4.74819 10.2644C4.78206 10.2273 4.82899 10.2047 4.87915 10.2014L11.3232 9.86886L5.27258 9.86794C5.24701 9.86832 5.22161 9.86366 5.19784 9.85422C5.17407 9.84478 5.15239 9.83076 5.13404 9.81294C5.11569 9.79512 5.10103 9.77387 5.0909 9.75039C5.08076 9.72691 5.07535 9.70166 5.07498 9.67608C5.0746 9.65051 5.07926 9.62512 5.0887 9.60134C5.09814 9.57757 5.11216 9.55589 5.12998 9.53755C5.14779 9.5192 5.16905 9.50454 5.19253 9.4944C5.21601 9.48427 5.24126 9.47885 5.26683 9.47848L5.50077 9.47194C5.4525 9.46572 5.40831 9.44165 5.37691 9.40446C5.34551 9.36728 5.32918 9.31969 5.33114 9.27106C5.33309 9.22243 5.3532 9.1763 5.38748 9.14176C5.42176 9.10722 5.46774 9.08677 5.51635 9.08445L10.8614 8.81872L6.03257 8.81788C5.98256 8.81687 5.93486 8.79665 5.89937 8.76141C5.86387 8.72617 5.8433 8.67862 5.84193 8.62862C5.84055 8.57862 5.85848 8.53001 5.89199 8.49287C5.9255 8.45573 5.97202 8.43292 6.02189 8.42917L11.1637 8.15891L6.69251 8.15914C6.64185 8.15923 6.59315 8.13957 6.55676 8.10434C6.52036 8.0691 6.49914 8.02106 6.49759 7.97043C6.49604 7.9198 6.5143 7.87055 6.54847 7.83316C6.58265 7.79577 6.63005 7.77318 6.68062 7.77018L11.9711 7.4464L7.63299 7.44659C7.58234 7.44668 7.53364 7.42703 7.49724 7.39179C7.46085 7.35655 7.43962 7.30852 7.43807 7.25788C7.43653 7.20725 7.45478 7.15801 7.48896 7.12062C7.52313 7.08322 7.57054 7.06063 7.62111 7.05763L11.597 6.82047L8.68531 6.82064C8.65976 6.82129 8.63432 6.81691 8.61046 6.80773C8.5866 6.79856 8.56479 6.78477 8.54625 6.76716C8.52772 6.74956 8.51284 6.72847 8.50246 6.70511C8.49207 6.68175 8.48639 6.65657 8.48574 6.63102C8.48508 6.60546 8.48947 6.58003 8.49865 6.55617C8.50782 6.53231 8.52161 6.51049 8.53922 6.49196C8.55682 6.47343 8.57791 6.45855 8.60127 6.44816C8.62463 6.43778 8.6498 6.4321 8.67536 6.43145L10.0845 6.36167L9.53418 6.36178C9.48417 6.36077 9.43646 6.34054 9.40097 6.3053C9.36547 6.27006 9.3449 6.22251 9.34353 6.17251C9.34215 6.12251 9.36008 6.0739 9.39359 6.03676C9.4271 5.99963 9.47362 5.97682 9.5235 5.97306L10.5335 5.91874L10.3251 5.91844C10.2756 5.91716 10.2285 5.89708 10.1933 5.86229C10.1581 5.82749 10.1375 5.7806 10.1356 5.73114C10.1338 5.68169 10.1508 5.63339 10.1833 5.59606C10.2158 5.55873 10.2613 5.53518 10.3105 5.5302L12.3232 5.38048L11.1663 5.38011C11.1164 5.37963 11.0685 5.35998 11.0327 5.32522C10.9968 5.29046 10.9757 5.24325 10.9737 5.19335C10.9717 5.14346 10.9889 5.09469 11.0218 5.05714C11.0547 5.0196 11.1008 4.99614 11.1506 4.99162L12.5924 4.87288L11.8235 4.87259C11.7741 4.87154 11.7269 4.85174 11.6916 4.81722C11.6562 4.7827 11.6354 4.73603 11.6332 4.68667C11.6309 4.63732 11.6476 4.58898 11.6797 4.55144C11.7118 4.5139 11.757 4.48998 11.8061 4.48452L12.6965 4.40384L12.3364 4.40455C12.2877 4.40412 12.2409 4.38542 12.2053 4.35215C12.1697 4.31888 12.1478 4.27346 12.1441 4.22487C12.1403 4.17628 12.155 4.12805 12.185 4.08971C12.2151 4.05138 12.2585 4.02573 12.3066 4.01783L14.2107 3.72364L12.9482 3.72338C12.8987 3.72339 12.8511 3.70458 12.815 3.67078C12.779 3.63697 12.7571 3.5907 12.7539 3.54136C12.7507 3.49202 12.7664 3.44331 12.7978 3.40511C12.8292 3.36692 12.8739 3.3421 12.923 3.33571L13.4878 3.26217L13.298 3.26229C13.2497 3.26214 13.2032 3.24406 13.1675 3.21154C13.1318 3.17902 13.1095 3.1344 13.1048 3.08633C13.1002 3.03827 13.1136 2.9902 13.1424 2.95146C13.1712 2.91272 13.2134 2.88607 13.2608 2.87669L14.1432 2.70466L13.6625 2.70494C13.6145 2.70506 13.5682 2.68748 13.5324 2.65557C13.4967 2.62366 13.4739 2.57966 13.4686 2.53201C13.4632 2.48437 13.4756 2.43642 13.5034 2.39736C13.5313 2.35831 13.5725 2.33089 13.6193 2.32038L14.1215 2.20576L13.9499 2.20557C13.9039 2.20552 13.8595 2.18919 13.8244 2.15948C13.7893 2.12978 13.7658 2.08861 13.7582 2.04327C13.7505 1.99794 13.7592 1.95136 13.7826 1.91179C13.806 1.87222 13.8427 1.84222 13.8861 1.8271L14.3426 1.66858L14.22 1.66837C14.1821 1.66831 14.145 1.65714 14.1133 1.63626C14.0816 1.61537 14.0567 1.58566 14.0416 1.5508C14.0266 1.51594 14.0221 1.47744 14.0286 1.44005C14.0352 1.40266 14.0526 1.368 14.0786 1.34035L14.5047 0.888727C14.4669 0.874977 14.4343 0.850008 14.411 0.817163C14.3878 0.784318 14.3752 0.745165 14.3748 0.704945C14.3749 0.653439 14.3953 0.604047 14.4317 0.567589C14.4681 0.531131 14.5175 0.51058 14.569 0.510438L14.9462 0.510235C14.9842 0.510295 15.0213 0.521457 15.053 0.542345C15.0847 0.563234 15.1096 0.592938 15.1247 0.627799C15.1397 0.66266 15.1442 0.701158 15.1376 0.738551C15.1311 0.775944 15.1137 0.810601 15.0877 0.838255L14.6716 1.27949L15.4946 1.2804C15.5406 1.28046 15.585 1.29678 15.6201 1.32649C15.6552 1.3562 15.6787 1.39736 15.6863 1.4427C15.6939 1.48804 15.6853 1.53461 15.6619 1.57418C15.6385 1.61375 15.6018 1.64375 15.5584 1.65887L15.1018 1.8174L15.8488 1.81845C15.8966 1.81862 15.9426 1.83636 15.9781 1.86827C16.0137 1.90019 16.0363 1.94406 16.0416 1.99153C16.0468 2.03901 16.0345 2.08678 16.0069 2.12574C15.9792 2.1647 15.9382 2.19213 15.8917 2.20282L15.3904 2.31803L16.1603 2.31749C16.2088 2.31731 16.2556 2.33523 16.2916 2.36774C16.3276 2.40026 16.3501 2.44503 16.3548 2.49329C16.3595 2.54155 16.346 2.58983 16.317 2.62867C16.288 2.66751 16.2455 2.69412 16.1979 2.70329L15.3147 2.87353L16.4906 2.87364C16.5398 2.87407 16.587 2.89309 16.6227 2.92689C16.6584 2.96068 16.68 3.00674 16.6832 3.05582C16.6863 3.10489 16.6708 3.15334 16.6397 3.19142C16.6086 3.22951 16.5642 3.25441 16.5155 3.26112L15.9507 3.33466L16.7481 3.33473C16.7968 3.33516 16.8436 3.35386 16.8793 3.38713C16.9149 3.4204 16.9367 3.46582 16.9405 3.51441C16.9442 3.56301 16.9296 3.61124 16.8995 3.64957C16.8694 3.68791 16.826 3.71356 16.7779 3.72145L14.8741 4.01584L17.1066 4.01641C17.1565 4.01679 17.2043 4.0363 17.2402 4.07092C17.2762 4.10554 17.2974 4.15263 17.2996 4.20247C17.3018 4.25231 17.2848 4.30108 17.2521 4.33874C17.2193 4.37639 17.1734 4.40004 17.1238 4.40482L16.2329 4.4825L17.3321 4.48238C17.382 4.48285 17.4298 4.50251 17.4657 4.53727C17.5015 4.57203 17.5227 4.61924 17.5247 4.66913C17.5267 4.71903 17.5095 4.7678 17.4766 4.80534C17.4436 4.84289 17.3975 4.86635 17.3478 4.87087L15.9077 4.98972L17.5638 4.9897C17.6154 4.98776 17.6658 5.00643 17.7037 5.04159C17.7416 5.07676 17.764 5.12554 17.7659 5.17721C17.7678 5.22888 17.7492 5.27921 17.714 5.31712C17.6788 5.35503 17.6301 5.37741 17.5784 5.37935L15.5663 5.52892L17.7918 5.52908C17.8426 5.52892 17.8915 5.54864 17.928 5.58404C17.9644 5.61943 17.9856 5.66768 17.987 5.71848C17.9883 5.76929 17.9698 5.81861 17.9353 5.85592C17.9008 5.89322 17.853 5.91555 17.8023 5.91813L16.7873 5.97093L17.9655 5.97101C18.0158 5.97171 18.0638 5.99184 18.0996 6.02718C18.1353 6.06251 18.156 6.11031 18.1573 6.16056C18.1586 6.21082 18.1405 6.25963 18.1066 6.29678C18.0727 6.33393 18.0258 6.35654 17.9756 6.35986L16.5676 6.42936L18.1314 6.42956C18.1813 6.43052 18.229 6.45062 18.2645 6.48572C18.3 6.52082 18.3207 6.56822 18.3222 6.61813C18.3238 6.66804 18.3061 6.71663 18.2728 6.75387C18.2395 6.7911 18.1932 6.81413 18.1435 6.81819L14.1737 7.05484L18.3382 7.0547C18.3898 7.05308 18.44 7.07202 18.4776 7.10737C18.5152 7.14271 18.5373 7.19156 18.5389 7.24316C18.5405 7.29477 18.5216 7.3449 18.4862 7.38254C18.4509 7.42018 18.4021 7.44223 18.3504 7.44385L13.0523 7.76856L18.5366 7.76845C18.5866 7.76946 18.6343 7.78968 18.6698 7.82492C18.7053 7.86016 18.7259 7.90772 18.7272 7.95772C18.7286 8.00772 18.7107 8.05633 18.6772 8.09346C18.6437 8.1306 18.5972 8.15341 18.5473 8.15716L13.4051 8.42897L18.6942 8.42987C18.7447 8.43018 18.7932 8.45017 18.8293 8.48561C18.8654 8.52104 18.8863 8.56914 18.8876 8.61971C18.8888 8.67028 18.8703 8.71935 18.836 8.75653C18.8017 8.7937 18.7543 8.81606 18.7038 8.81887L13.3635 9.08419L18.8146 9.08471C18.8654 9.08524 18.9139 9.10558 18.9499 9.14138C18.9859 9.17719 19.0064 9.22562 19.0072 9.27637C19.008 9.32712 18.9889 9.37616 18.954 9.41305C18.9192 9.44994 18.8713 9.47175 18.8206 9.47383L18.6413 9.47912L18.874 9.47861C18.9243 9.47932 18.9723 9.49945 19.0081 9.53478C19.0438 9.57011 19.0645 9.61791 19.0658 9.66817C19.0672 9.71842 19.049 9.76723 19.0151 9.80438C18.9812 9.84153 18.9343 9.86414 18.8841 9.86747L12.4405 10.2002L18.9451 10.2002C18.9957 10.2009 19.044 10.2212 19.0798 10.2568C19.1157 10.2925 19.1363 10.3407 19.1372 10.3912C19.1382 10.4418 19.1194 10.4907 19.0849 10.5277C19.0504 10.5646 19.0029 10.5867 18.9524 10.5893L14.8152 10.7477L18.9734 10.7493C19.0236 10.7503 19.0715 10.7707 19.107 10.8063C19.1425 10.8418 19.1629 10.8897 19.1639 10.9399C19.1649 10.9902 19.1465 11.0388 19.1125 11.0758C19.0784 11.1127 19.0314 11.1351 18.9812 11.1382L14.172 11.3316L18.9716 11.3308C19.0215 11.3321 19.0689 11.3526 19.1042 11.3878C19.1394 11.4231 19.1598 11.4706 19.1611 11.5205C19.1623 11.5704 19.1444 11.6188 19.111 11.6559C19.0775 11.6929 19.0312 11.7157 18.9814 11.7195L11.9099 12.083L12.0579 12.0836C12.1072 12.0849 12.1541 12.1049 12.1893 12.1394C12.2244 12.174 12.2451 12.2206 12.2472 12.2699C12.2493 12.3191 12.2326 12.3673 12.2005 12.4048C12.1685 12.4422 12.1234 12.4661 12.0744 12.4716L8.90924 12.7372L11.5474 12.7373C11.5974 12.7383 11.645 12.7584 11.6805 12.7935C11.716 12.8286 11.7367 12.876 11.7383 12.9259C11.7398 12.9758 11.7221 13.0244 11.6889 13.0616C11.6556 13.0989 11.6093 13.1219 11.5595 13.1259L10.5993 13.1852L11.184 13.1847C11.2333 13.1862 11.2802 13.2065 11.3152 13.2413C11.3502 13.2762 11.3706 13.323 11.3724 13.3724C11.3741 13.4217 11.357 13.4699 11.3246 13.5071C11.2921 13.5443 11.2468 13.5679 11.1976 13.5729L9.83917 13.6678L10.7776 13.6675C10.8274 13.6684 10.875 13.6884 10.9106 13.7233C10.9461 13.7583 10.9669 13.8055 10.9686 13.8554C10.9704 13.9052 10.9529 13.9538 10.9199 13.9911C10.8868 14.0284 10.8407 14.0517 10.791 14.056L9.86796 14.121L10.3839 14.1212C10.4339 14.1218 10.4817 14.1416 10.5175 14.1765C10.5533 14.2114 10.5743 14.2587 10.5762 14.3087C10.578 14.3587 10.5606 14.4074 10.5274 14.4449C10.4943 14.4823 10.448 14.5056 10.3982 14.5098L9.70897 14.5614L9.98822 14.5613C10.0379 14.5616 10.0855 14.5808 10.1214 14.6151C10.1573 14.6494 10.1787 14.6961 10.1814 14.7456C10.184 14.7952 10.1676 14.8439 10.1355 14.8818C10.1034 14.9196 10.058 14.9438 10.0087 14.9493L8.24398 15.1352L9.44412 15.1354C9.49266 15.136 9.53923 15.1547 9.57469 15.1878C9.61016 15.2209 9.63197 15.2661 9.63583 15.3145C9.6397 15.3629 9.62534 15.411 9.59559 15.4493C9.56583 15.4877 9.52282 15.5135 9.47499 15.5218L7.22582 15.8865L8.68049 15.8858C8.72979 15.8859 8.77722 15.9047 8.81318 15.9384C8.84914 15.9722 8.87095 16.0183 8.87422 16.0675C8.87749 16.1167 8.86197 16.1653 8.83079 16.2035C8.79961 16.2417 8.75509 16.2666 8.70624 16.2733L7.90857 16.3819L8.1278 16.3821C8.17621 16.382 8.22293 16.3999 8.25884 16.4323C8.29476 16.4648 8.31729 16.5095 8.32205 16.5576C8.3268 16.6058 8.31344 16.654 8.28456 16.6929C8.25568 16.7317 8.21337 16.7584 8.16587 16.7678L7.33256 16.9326L7.45009 16.933C7.49584 16.9332 7.54008 16.9494 7.57504 16.9789C7.61 17.0084 7.63345 17.0493 7.64128 17.0944C7.64911 17.1395 7.64081 17.1859 7.61784 17.2254C7.59487 17.265 7.5587 17.2952 7.51567 17.3108L6.77677 17.5737C6.80423 17.6079 6.81916 17.6505 6.81906 17.6943C6.81922 17.72 6.81429 17.7455 6.80457 17.7693C6.79484 17.793 6.78051 17.8146 6.76239 17.8328C6.74427 17.851 6.72273 17.8655 6.69901 17.8753C6.67529 17.8852 6.64985 17.8902 6.62417 17.8902L5.85552 17.8901C5.82144 17.8899 5.78803 17.8805 5.75878 17.863Z" fill="#9CC824"/>
<path d="M6.62776 7.65695C3.65046 9.84262 2.58681 16.2335 6.30735 17.9959C8.74945 17.1281 10.4062 14.6268 12.0767 12.7269C10.6804 15.8044 8.36623 18.3745 5.45152 20.0848C5.10467 20.4208 5.25279 20.8183 5.4784 21.1625C6.37787 22.958 8.22223 21.0038 9.23477 20.288C18.2342 22.8203 21.5738 10.3617 17.3706 4.15627C16.6296 3.16158 15.8087 0.09161 14.3265 0.544902C13.1431 4.24769 9.60768 5.69487 6.62776 7.65695ZM12.4099 4.49373C13.5031 3.5992 14.3098 1.84294 14.8124 0.893771C17.8676 5.08469 20.2781 11.0993 17.453 16.0057C15.2161 19.8264 12.8837 20.695 8.75165 20.0176C7.99092 20.4639 7.10559 21.6408 6.19955 21.3959C5.75888 20.9617 5.66734 20.3627 6.32743 20.114C9.10018 18.388 11.2964 15.8757 12.6361 12.897C12.8156 12.5084 13.3568 11.6948 12.6277 11.5467C12.1453 11.448 11.8717 12.083 11.6252 12.401C10.2528 14.1427 8.78393 15.8592 6.9828 17.1717C5.46505 18.5431 4.83423 15.4507 4.5934 14.3806C3.63054 9.04713 8.89222 7.0026 12.4092 4.49334L12.4099 4.49373Z" fill="#262626"/>
</g>
<defs>
<clipPath id="clip0_108_3052">
<rect width="24" height="24" fill="white"/>
</clipPath>
</defs>
</svg>
