<svg width="24" height="24" viewBox="0 0 24 24" fill="none" xmlns="http://www.w3.org/2000/svg">
<path d="M16.36 9.60348C16.3225 9.60342 16.2859 9.59369 16.2541 9.57538C16.2224 9.55707 16.1969 9.53092 16.1805 9.49992C16.1641 9.46892 16.1575 9.43431 16.1615 9.40003C16.1654 9.36575 16.1797 9.33318 16.2028 9.30602L16.4028 9.07152L15.7116 9.43966C15.6699 9.46183 15.6209 9.46941 15.5736 9.46099C15.5263 9.45258 15.4839 9.42875 15.4542 9.39387C15.4245 9.35899 15.4094 9.31541 15.4118 9.27114C15.4142 9.22686 15.4339 9.18487 15.4672 9.15288L16.0864 8.55575L15.7116 8.75491C15.669 8.77647 15.6194 8.78302 15.572 8.77336C15.5245 8.7637 15.4826 8.73848 15.4538 8.70241C15.4251 8.66634 15.4117 8.62189 15.416 8.57735C15.4203 8.53282 15.442 8.49125 15.4772 8.4604L15.6864 8.28553C15.6429 8.30181 15.5946 8.3035 15.55 8.29032C15.5053 8.27713 15.467 8.2499 15.442 8.2134C15.4169 8.17689 15.4066 8.13343 15.4128 8.09063C15.419 8.04782 15.4414 8.00839 15.476 7.97923L15.7228 7.7705L15.7116 7.77639C15.6707 7.79809 15.6228 7.80578 15.5763 7.79809C15.5298 7.7904 15.4878 7.76784 15.4577 7.73438C15.4276 7.70092 15.4113 7.65874 15.4117 7.61529C15.4121 7.57184 15.4292 7.52992 15.46 7.49697L16.26 6.63919L15.7096 6.9315C15.6675 6.95357 15.6181 6.96081 15.5706 6.95188C15.5231 6.94295 15.4808 6.91846 15.4515 6.88295C15.4221 6.84745 15.4078 6.80335 15.4111 6.75885C15.4145 6.71436 15.4352 6.67249 15.4696 6.64103L15.8696 6.27694L15.7096 6.36271C15.6681 6.38485 15.6193 6.39252 15.5722 6.38432C15.5251 6.37613 15.4827 6.35261 15.4528 6.31807C15.423 6.28353 15.4076 6.24026 15.4095 6.19615C15.4114 6.15204 15.4305 6.11003 15.4632 6.07777L15.9396 5.60692L15.6628 5.75417C15.6215 5.7763 15.573 5.78408 15.526 5.77611C15.479 5.76814 15.4366 5.74495 15.4066 5.71073C15.3766 5.67651 15.3609 5.63353 15.3623 5.58957C15.3637 5.54561 15.3822 5.50357 15.4144 5.47107L15.8044 5.07532L15.5224 5.22515C15.4826 5.24645 15.436 5.25446 15.3906 5.24783C15.3451 5.24119 15.3035 5.22032 15.2728 5.18874C15.2421 5.15716 15.2242 5.1168 15.2221 5.07448C15.22 5.03215 15.2338 4.99044 15.2612 4.95641L15.764 4.33093L15.2296 4.61514C15.1875 4.63691 15.1383 4.64395 15.0911 4.63495C15.0438 4.62596 15.0017 4.60154 14.9724 4.5662C14.9432 4.53087 14.9288 4.48699 14.932 4.44267C14.9351 4.39834 14.9556 4.35657 14.9896 4.32504L15.054 4.26614L15.0004 4.29448C14.9617 4.3151 14.9166 4.32318 14.8723 4.31742C14.828 4.31166 14.7871 4.29241 14.7561 4.26273C14.7251 4.23305 14.7058 4.19467 14.7013 4.15371C14.6968 4.11275 14.7073 4.07158 14.7312 4.03678L15.182 3.37744L14.462 3.7592C14.4201 3.78144 14.3708 3.78895 14.3234 3.78033C14.2759 3.77171 14.2334 3.74754 14.2039 3.71231C14.1743 3.67708 14.1596 3.63317 14.1625 3.58873C14.1654 3.54428 14.1857 3.5023 14.2196 3.47058L14.2896 3.40505L14.0992 3.50629C14.0594 3.52735 14.0129 3.53516 13.9675 3.52839C13.9222 3.52162 13.8807 3.50068 13.8502 3.46911C13.8196 3.43753 13.8018 3.39724 13.7998 3.355C13.7977 3.31277 13.8115 3.27116 13.8388 3.23717L14.2044 2.78399L13.4444 3.18895C13.4049 3.2099 13.3587 3.21777 13.3137 3.21127C13.2686 3.20478 13.2273 3.18429 13.1966 3.15321C13.1659 3.12214 13.1477 3.08234 13.145 3.04043C13.1422 2.99852 13.1552 2.957 13.1816 2.92278L13.5816 2.40738L12.5172 2.97101C12.4766 2.99259 12.429 3.00034 12.3828 2.99291C12.3366 2.98547 12.2947 2.96333 12.2644 2.93034C12.2342 2.89735 12.2174 2.85563 12.2172 2.81245C12.217 2.76928 12.2333 2.72741 12.2632 2.69416L12.68 2.23067L11.0716 3.08623C11.0257 3.11026 10.9713 3.1166 10.9203 3.10386C10.8694 3.09112 10.826 3.06035 10.7995 3.01826C10.7731 2.97616 10.7659 2.92616 10.7794 2.87917C10.7929 2.83218 10.826 2.792 10.8716 2.76742L13.4504 1.39903C13.491 1.37745 13.5386 1.3697 13.5848 1.37713C13.631 1.38456 13.6729 1.40671 13.7032 1.4397C13.7335 1.47268 13.7502 1.51441 13.7504 1.55758C13.7506 1.60076 13.7343 1.64263 13.7044 1.67588L13.286 2.13974L14.1784 1.6652C14.2179 1.64406 14.2642 1.63603 14.3094 1.64244C14.3546 1.64886 14.396 1.66934 14.4268 1.70047C14.4576 1.7316 14.4758 1.77149 14.4785 1.81351C14.4812 1.85552 14.4682 1.89712 14.4416 1.93137L14.0416 2.44677L14.8416 2.02193C14.8814 2.00086 14.9279 1.99306 14.9733 1.99983C15.0186 2.0066 15.0601 2.02753 15.0906 2.05911C15.1212 2.09068 15.139 2.13098 15.141 2.17321C15.1431 2.21545 15.1293 2.25706 15.102 2.29104L14.7364 2.74423L15.3708 2.40701C15.4127 2.38477 15.462 2.37726 15.5094 2.38588C15.5569 2.3945 15.5994 2.41867 15.6289 2.4539C15.6585 2.48913 15.6732 2.53304 15.6704 2.57749C15.6675 2.62193 15.6472 2.66391 15.6132 2.69563L15.5432 2.7608L15.6804 2.68717C15.7191 2.66655 15.7642 2.65847 15.8085 2.66423C15.8528 2.66999 15.8937 2.68924 15.9247 2.71892C15.9557 2.7486 15.975 2.78698 15.9795 2.82794C15.9841 2.8689 15.9735 2.91007 15.9496 2.94487L15.4988 3.60384L16.1724 3.24601C16.2144 3.22452 16.2634 3.21767 16.3105 3.22673C16.3575 3.23578 16.3995 3.26012 16.4286 3.2953C16.4577 3.33048 16.4721 3.37415 16.4692 3.4183C16.4662 3.46245 16.446 3.50414 16.4124 3.53574L16.348 3.59501L16.394 3.57034C16.4338 3.54905 16.4804 3.54104 16.5258 3.54767C16.5713 3.5543 16.6129 3.57517 16.6436 3.60675C16.6743 3.63833 16.6922 3.67869 16.6943 3.72102C16.6964 3.76335 16.6826 3.80505 16.6552 3.83909L16.156 4.46236L16.7104 4.16784C16.7517 4.14597 16.8 4.13835 16.8469 4.14638C16.8937 4.1544 16.9358 4.17752 16.9658 4.2116C16.9957 4.24568 17.0114 4.28846 17.0102 4.33227C17.0089 4.37608 16.9907 4.41803 16.9588 4.45058L16.5692 4.8467L16.8984 4.67183C16.9399 4.6497 16.9887 4.64203 17.0358 4.65022C17.0829 4.65842 17.1253 4.68193 17.1552 4.71647C17.185 4.75101 17.2004 4.79428 17.1985 4.83839C17.1966 4.88251 17.1776 4.92452 17.1448 4.95677L16.6684 5.42763L17.0284 5.23656C17.0705 5.21449 17.1199 5.20725 17.1674 5.21618C17.2149 5.22511 17.2572 5.2496 17.2866 5.2851C17.3159 5.32061 17.3302 5.36471 17.3269 5.40921C17.3235 5.4537 17.3028 5.49557 17.2684 5.52703L16.8684 5.89075L17.0828 5.77663C17.1237 5.7547 17.1718 5.74686 17.2185 5.7545C17.2651 5.76214 17.3073 5.78477 17.3375 5.81836C17.3677 5.85195 17.3839 5.89431 17.3834 5.93791C17.3828 5.9815 17.3655 6.0235 17.3344 6.05642L16.5344 6.91383L17.0944 6.6171C17.137 6.59496 17.1869 6.58796 17.2347 6.5974C17.2825 6.60685 17.3249 6.63209 17.3539 6.66836C17.3829 6.70463 17.3964 6.74941 17.3919 6.79424C17.3874 6.83906 17.3653 6.88082 17.3296 6.91162L17.0824 7.12072L17.096 7.11336C17.1386 7.09181 17.1882 7.08525 17.2356 7.09491C17.2831 7.10457 17.3251 7.12979 17.3538 7.16586C17.3825 7.20193 17.3959 7.24638 17.3916 7.29092C17.3873 7.33545 17.3656 7.37703 17.3304 7.40787L17.12 7.58385C17.1624 7.56772 17.2096 7.5655 17.2535 7.57757C17.2975 7.58964 17.3356 7.61526 17.3615 7.65013C17.3874 7.68501 17.3995 7.72701 17.3957 7.7691C17.3919 7.81119 17.3725 7.85081 17.3408 7.88131L16.72 8.47807L17.0968 8.2778C17.137 8.25641 17.1841 8.24856 17.2299 8.25561C17.2757 8.26266 17.3174 8.28416 17.3478 8.31642C17.3783 8.34868 17.3956 8.38969 17.3968 8.43242C17.398 8.47515 17.383 8.51693 17.3544 8.55059L17.1444 8.79725C17.1915 8.78472 17.2419 8.78853 17.2861 8.80793C17.3303 8.82733 17.3652 8.86099 17.3842 8.90253C17.4033 8.94406 17.4051 8.99058 17.3894 9.03326C17.3736 9.07594 17.3414 9.11183 17.2988 9.1341L16.4616 9.57882C16.4307 9.59523 16.3957 9.60374 16.36 9.60348Z" fill="#D1D7DB"/>
<path d="M6.88 9.60864C6.84042 9.60863 6.80174 9.59782 6.76885 9.57757C6.73595 9.55732 6.71033 9.52854 6.69521 9.49488C6.68009 9.46122 6.67616 9.42419 6.68392 9.38847C6.69168 9.35276 6.71078 9.31996 6.7388 9.29424L7.1788 8.88928L6.914 9.03028C6.87096 9.05299 6.82028 9.06017 6.77181 9.05042C6.72334 9.04066 6.68055 9.01468 6.65173 8.97751C6.62291 8.94034 6.61013 8.89464 6.61587 8.84929C6.62161 8.80393 6.64547 8.76216 6.6828 8.73209L6.812 8.62827C6.77199 8.62793 6.73301 8.61655 6.7001 8.59561C6.66719 8.57467 6.64187 8.54512 6.62739 8.51079C6.61292 8.47646 6.60997 8.43892 6.61892 8.40303C6.62787 8.36714 6.64831 8.33455 6.6776 8.30946L6.964 8.06427L6.914 8.09078C6.87225 8.11296 6.82321 8.12052 6.77588 8.11207C6.72856 8.10361 6.68615 8.07971 6.65645 8.04477C6.62676 8.00982 6.61178 7.96617 6.61426 7.92187C6.61675 7.87756 6.63655 7.83557 6.67 7.80363L7.2612 7.23963L6.914 7.4237C6.87278 7.44558 6.82444 7.45322 6.77765 7.44525C6.73087 7.43727 6.6887 7.41421 6.65873 7.38019C6.62876 7.34618 6.61295 7.30345 6.61414 7.25967C6.61532 7.21589 6.63343 7.17394 6.6652 7.14134L7.4456 6.34099L6.914 6.62336C6.87138 6.64683 6.82081 6.65487 6.77211 6.64591C6.72341 6.63696 6.68007 6.61165 6.65053 6.5749C6.62099 6.53816 6.60736 6.49262 6.61229 6.44714C6.61722 6.40166 6.64035 6.35949 6.6772 6.32885L7.2332 5.85026L6.9236 6.01519C6.88027 6.03844 6.82903 6.04586 6.78004 6.03597C6.73105 6.02609 6.68788 5.99963 6.65909 5.96183C6.6303 5.92403 6.61799 5.87765 6.62461 5.8319C6.63122 5.78614 6.65627 5.74434 6.6948 5.71478L7.3348 5.22073L7.0044 5.39671C6.95951 5.42118 6.90601 5.42855 6.85531 5.41723C6.8046 5.40591 6.76071 5.3768 6.733 5.33612C6.70529 5.29543 6.69594 5.24639 6.70697 5.19945C6.71799 5.15252 6.7485 5.11141 6.792 5.08489L8.4412 4.05077L7.1948 4.71233C7.15051 4.73588 7.0981 4.74291 7.04834 4.73199C6.99859 4.72106 6.95527 4.69301 6.9273 4.65359C6.89933 4.61418 6.88883 4.5664 6.89797 4.52008C6.9071 4.47376 6.93517 4.43242 6.9764 4.40456L8.7724 3.1941L7.68 3.7743C7.63636 3.7971 7.585 3.80397 7.53611 3.79355C7.48722 3.78313 7.44438 3.75617 7.41608 3.71803C7.38778 3.67989 7.3761 3.63335 7.38334 3.58765C7.39059 3.54195 7.41624 3.50042 7.4552 3.47131L8.514 2.69195C8.46989 2.67735 8.43288 2.64877 8.4096 2.61133C8.38308 2.56905 8.37589 2.51881 8.38962 2.47166C8.40335 2.4245 8.43686 2.3843 8.4828 2.35989L10.2324 1.43032C10.2761 1.40644 10.3281 1.39878 10.3777 1.40889C10.4273 1.419 10.4709 1.44614 10.4996 1.48477C10.5283 1.5234 10.5399 1.57064 10.5321 1.61687C10.5243 1.66311 10.4977 1.70487 10.4576 1.73367L9.772 2.2373L11.76 1.18146C11.8043 1.15791 11.8567 1.15087 11.9065 1.1618C11.9562 1.17272 11.9995 1.20078 12.0275 1.24019C12.0555 1.27961 12.066 1.32739 12.0568 1.37371C12.0477 1.42003 12.0196 1.46137 11.9784 1.48923L10.182 2.70042L12.8844 1.26466C12.9293 1.24018 12.9828 1.23282 13.0335 1.24414C13.0842 1.25546 13.1281 1.28456 13.1558 1.32525C13.1835 1.36593 13.1929 1.41498 13.1818 1.46191C13.1708 1.50885 13.1403 1.54996 13.0968 1.57648L9.3684 3.91345C9.39565 3.95116 9.40684 3.9968 9.39983 4.04162C9.39282 4.08645 9.3681 4.12732 9.3304 4.15643L8.6212 4.70533C8.66306 4.70077 8.70541 4.7085 8.74221 4.72741C8.77902 4.74633 8.80839 4.77546 8.82613 4.81065C8.84387 4.84584 8.84908 4.88529 8.84101 4.92336C8.83294 4.96144 8.81201 4.9962 8.7812 5.02267L8.2256 5.50126L8.3316 5.4453C8.37282 5.42342 8.42116 5.41578 8.46794 5.42376C8.51473 5.43173 8.55689 5.4548 8.58686 5.48881C8.61683 5.52282 8.63264 5.56556 8.63146 5.60933C8.63028 5.65311 8.61217 5.69507 8.5804 5.72767L7.8 6.52691L8.2896 6.267C8.33135 6.24481 8.38039 6.23725 8.42771 6.24571C8.47504 6.25416 8.51745 6.27807 8.54714 6.31301C8.57684 6.34796 8.59182 6.3916 8.58933 6.43591C8.58684 6.48022 8.56705 6.52221 8.5336 6.55415L7.9424 7.11815L8.292 6.93407C8.3346 6.9113 8.38484 6.9038 8.43307 6.91302C8.48131 6.92223 8.52416 6.9475 8.5534 6.98399C8.58264 7.02049 8.59622 7.06563 8.59153 7.11076C8.58684 7.1559 8.56422 7.19786 8.528 7.22859L8.24 7.4734L8.2916 7.44579C8.33465 7.42272 8.38551 7.41526 8.43422 7.42488C8.48294 7.4345 8.52599 7.46051 8.55496 7.49781C8.58394 7.53511 8.59674 7.58103 8.59086 7.62656C8.58499 7.67209 8.56086 7.71397 8.5232 7.74399L8.3944 7.84707C8.43382 7.84729 8.47229 7.85824 8.50498 7.87853C8.53767 7.89881 8.56311 7.92754 8.57811 7.96109C8.59312 7.99465 8.59701 8.03154 8.5893 8.06712C8.5816 8.1027 8.56263 8.1354 8.5348 8.1611L8.0948 8.56605L8.2948 8.45892C8.33505 8.43735 8.38222 8.42938 8.42817 8.43639C8.47412 8.4434 8.51597 8.46495 8.54651 8.49733C8.57704 8.5297 8.59433 8.57087 8.59541 8.61373C8.59648 8.65659 8.58127 8.69845 8.5524 8.73209L8.4324 8.87419C8.47291 8.88065 8.51027 8.89845 8.5394 8.92516C8.56852 8.95187 8.588 8.98619 8.59517 9.02346C8.60234 9.06072 8.59686 9.09911 8.57947 9.1334C8.56208 9.16769 8.53363 9.19622 8.498 9.21509L7.8128 9.57919C7.77255 9.60055 7.72548 9.60835 7.67967 9.60125C7.63385 9.59416 7.59215 9.5726 7.56173 9.54028C7.5313 9.50797 7.51405 9.46691 7.51293 9.42417C7.51181 9.38142 7.5269 9.33965 7.5556 9.30602L7.6 9.25264L6.9772 9.58397C6.94762 9.5997 6.91416 9.60819 6.88 9.60864Z" fill="#D1D7DB"/>
<path d="M7.19401 22.8508C7.15063 22.8508 7.10842 22.8379 7.07373 22.8139C7.03905 22.7899 7.01377 22.7562 7.00172 22.7178C6.98967 22.6795 6.99149 22.6386 7.00691 22.6013C7.02233 22.564 7.05051 22.5323 7.08721 22.511L11.1844 20.1239L6.25601 22.7429C6.21072 22.7667 6.15712 22.7733 6.10662 22.7613C6.05613 22.7492 6.01274 22.7195 5.98571 22.6785C5.95869 22.6374 5.95016 22.5883 5.96194 22.5415C5.97373 22.4947 6.0049 22.4541 6.04881 22.4281L11.4036 19.2989L5.52601 22.4241C5.48072 22.4479 5.42712 22.4545 5.37662 22.4425C5.32613 22.4304 5.28274 22.4007 5.25572 22.3597C5.22869 22.3186 5.22016 22.2694 5.23194 22.2227C5.24373 22.1759 5.2749 22.1352 5.31881 22.1093L11.802 18.3057L4.97961 21.9308C4.93399 21.9557 4.87947 21.963 4.82805 21.9509C4.77663 21.9389 4.73251 21.9085 4.70541 21.8665C4.6783 21.8246 4.67043 21.7744 4.68352 21.7271C4.69661 21.6797 4.72959 21.6391 4.77521 21.6142L5.67601 21.1076L4.76001 21.5958C4.7146 21.621 4.66016 21.6286 4.60866 21.6169C4.55717 21.6052 4.51283 21.5752 4.48541 21.5334C4.45798 21.4916 4.44972 21.4415 4.46243 21.3941C4.47515 21.3467 4.5078 21.3059 4.55321 21.2806L11 17.5311L4.54241 20.9622C4.49717 20.9851 4.44407 20.991 4.39422 20.9787C4.34436 20.9664 4.3016 20.9368 4.27489 20.8961C4.24818 20.8555 4.23958 20.8069 4.2509 20.7606C4.26221 20.7142 4.29257 20.6737 4.33561 20.6474L11.4504 16.4904L4.51201 20.1769C4.46678 20.1989 4.41415 20.2041 4.36491 20.1914C4.31566 20.1788 4.27356 20.1492 4.24724 20.1089C4.22092 20.0685 4.21239 20.0205 4.22339 19.9745C4.23439 19.9286 4.2641 19.8882 4.30641 19.8618L9.61441 16.8117L4.51201 19.5235C4.46654 19.5466 4.41308 19.5526 4.36294 19.5401C4.3128 19.5276 4.26991 19.4976 4.24335 19.4565C4.21679 19.4154 4.20865 19.3664 4.22064 19.3199C4.23263 19.2734 4.26382 19.233 4.30761 19.2073L7.01481 17.6761L4.51201 19.0059C4.46663 19.0285 4.4135 19.0341 4.36372 19.0216C4.31394 19.009 4.27138 18.9792 4.24493 18.9384C4.21847 18.8976 4.21019 18.849 4.22179 18.8027C4.2334 18.7564 4.26401 18.716 4.30721 18.69L7.94401 16.6225L4.51201 18.4459C4.46672 18.4698 4.41312 18.4763 4.36262 18.4643C4.31213 18.4523 4.26874 18.4226 4.24171 18.3815C4.21469 18.3404 4.20616 18.2913 4.21794 18.2445C4.22973 18.1978 4.2609 18.1571 4.30481 18.1312L11.1688 14.114L4.51201 17.6515C4.4668 17.6747 4.41357 17.6809 4.36349 17.6688C4.31341 17.6567 4.2704 17.6271 4.24351 17.5864C4.21662 17.5457 4.20793 17.4969 4.21929 17.4504C4.23065 17.4039 4.26116 17.3633 4.30441 17.3371L11.1464 13.3059L4.51201 16.8313C4.46696 16.8538 4.41424 16.8595 4.36473 16.8472C4.31522 16.835 4.27271 16.8058 4.24597 16.7655C4.21923 16.7253 4.2103 16.6771 4.22102 16.631C4.23175 16.5848 4.26131 16.5442 4.30361 16.5176L10.8524 12.6274L4.51201 15.9959C4.46665 16.0213 4.41222 16.029 4.36069 16.0174C4.30915 16.0058 4.26474 15.9758 4.23721 15.9341C4.20968 15.8923 4.20129 15.8423 4.21389 15.7948C4.2265 15.7474 4.25905 15.7065 4.30441 15.6812L8.90721 12.9764L4.51201 15.3116C4.46706 15.3341 4.41445 15.3399 4.36499 15.3278C4.31554 15.3156 4.27302 15.2866 4.24616 15.2465C4.21931 15.2064 4.21017 15.1583 4.22064 15.1122C4.2311 15.0661 4.26036 15.0255 4.30241 14.9986L9.15121 12.0686L4.51121 14.5351C4.46585 14.5605 4.41142 14.5682 4.35989 14.5566C4.30835 14.545 4.26394 14.515 4.23641 14.4733C4.20888 14.4316 4.20049 14.3815 4.21309 14.334C4.2257 14.2866 4.25825 14.2457 4.30361 14.2204L6.40001 12.9889L4.51201 13.9896C4.46729 14.0124 4.41475 14.0187 4.36519 14.007C4.31562 13.9953 4.27281 13.9666 4.24555 13.9268C4.21829 13.8869 4.20866 13.839 4.21864 13.7928C4.22862 13.7466 4.25745 13.7057 4.29921 13.6785L8.08481 11.3021L4.51201 13.2003C4.4673 13.2242 4.41424 13.2313 4.36399 13.22C4.31373 13.2087 4.27019 13.1799 4.24249 13.1397C4.2148 13.0995 4.20511 13.051 4.21546 13.0043C4.22581 12.9577 4.2554 12.9165 4.29801 12.8895L7.10961 11.097L4.51201 12.4776C4.46716 12.5011 4.41417 12.5078 4.36411 12.4962C4.31406 12.4845 4.27082 12.4556 4.24343 12.4153C4.21605 12.375 4.20665 12.3266 4.21719 12.2801C4.22774 12.2336 4.25741 12.1926 4.30001 12.1658L5.50001 11.4181L4.51201 11.9423C4.46756 11.966 4.4149 11.9731 4.36495 11.962C4.31499 11.951 4.27157 11.9227 4.24369 11.8829C4.21582 11.8432 4.20561 11.7952 4.2152 11.7487C4.22479 11.7022 4.25344 11.661 4.29521 11.6334L5.68401 10.716L4.51201 11.3389C4.46859 11.362 4.41735 11.3692 4.36844 11.3591C4.31952 11.3491 4.27649 11.3225 4.24787 11.2846C4.21925 11.2467 4.20712 11.2003 4.21389 11.1546C4.22065 11.1089 4.24582 11.0672 4.28441 11.0378L5.71321 9.94733L4.57801 10.5507C4.53599 10.5722 4.48697 10.5791 4.43993 10.57C4.39288 10.5609 4.35094 10.5366 4.3218 10.5014C4.29266 10.4662 4.27826 10.4226 4.28123 10.3784C4.28421 10.3343 4.30436 10.2926 4.33801 10.261L5.08801 9.56925C5.04256 9.573 4.99708 9.56235 4.95912 9.53904C4.92117 9.51573 4.89301 9.48118 4.87932 9.44112C4.86564 9.40106 4.86725 9.35789 4.88389 9.31879C4.90053 9.27968 4.9312 9.24699 4.97081 9.22614L6.14481 8.6025C6.18677 8.58128 6.23561 8.57462 6.28245 8.58373C6.3293 8.59284 6.37104 8.61711 6.40009 8.65214C6.42914 8.68716 6.44358 8.73062 6.44077 8.77461C6.43797 8.8186 6.41811 8.8602 6.38481 8.89186L5.68641 9.53501L7.56201 8.54102C7.60543 8.51754 7.65689 8.51 7.70609 8.51991C7.75529 8.52983 7.79862 8.55646 7.82741 8.59449C7.85621 8.63253 7.86835 8.67916 7.86142 8.72507C7.85448 8.77099 7.82898 8.8128 7.79001 8.84216L6.36001 9.93077L8.97921 8.54102C9.02365 8.5173 9.07631 8.51024 9.12627 8.52129C9.17622 8.53234 9.21964 8.56066 9.24752 8.60038C9.2754 8.6401 9.2856 8.68817 9.27601 8.73462C9.26642 8.78108 9.23777 8.82235 9.19601 8.84989L7.80761 9.76731L10.1152 8.54102C10.1601 8.5175 10.213 8.51085 10.2631 8.52245C10.3132 8.53406 10.3564 8.56303 10.3838 8.60331C10.4112 8.64358 10.4206 8.69204 10.41 8.73854C10.3995 8.78505 10.3698 8.826 10.3272 8.85284L9.12721 9.60054L11.1224 8.54102C11.1671 8.51708 11.2202 8.51001 11.2704 8.5213C11.3207 8.53258 11.3642 8.56136 11.3919 8.60157C11.4196 8.64178 11.4293 8.6903 11.419 8.73695C11.4086 8.7836 11.379 8.82474 11.3364 8.85174L8.52361 10.645L12.4836 8.54102C12.5284 8.51709 12.5816 8.51009 12.6319 8.52151C12.6822 8.53293 12.7257 8.56187 12.7533 8.60224C12.7809 8.64261 12.7904 8.69125 12.7798 8.73793C12.7691 8.78461 12.7393 8.82567 12.6964 8.85247L8.91041 11.2285L13.9712 8.54102C14.0164 8.51777 14.0696 8.51156 14.1197 8.52369C14.1698 8.53583 14.2128 8.56537 14.2397 8.6061C14.2666 8.64683 14.2753 8.69557 14.2639 8.74207C14.2526 8.78857 14.2221 8.8292 14.1788 8.85542L12.0864 10.085L14.9916 8.54102C15.0367 8.51616 15.0907 8.50864 15.1418 8.52011C15.1928 8.53158 15.237 8.56111 15.2646 8.6023C15.2922 8.64349 15.3011 8.69303 15.2893 8.7402C15.2775 8.78736 15.246 8.82836 15.2016 8.85431L10.3496 11.7858L16.4568 8.54102C16.502 8.51777 16.5552 8.51156 16.6053 8.52369C16.6554 8.53583 16.6984 8.56537 16.7253 8.6061C16.7522 8.64683 16.7609 8.69557 16.7495 8.74207C16.7382 8.78857 16.7077 8.8292 16.6644 8.85542L12.0644 11.558L17.6336 8.59845C17.6788 8.57479 17.7322 8.56824 17.7825 8.58019C17.8328 8.59214 17.8761 8.62165 17.9032 8.66248C17.9303 8.7033 17.9391 8.75223 17.9277 8.79889C17.9162 8.84556 17.8855 8.8863 17.842 8.91248L11.2948 12.8019L18.5108 8.96733C18.5561 8.94292 18.6099 8.93585 18.6608 8.94765C18.7117 8.95945 18.7555 8.98917 18.7828 9.03041C18.81 9.07165 18.8186 9.1211 18.8067 9.16811C18.7947 9.21512 18.7631 9.25593 18.7188 9.28173L11.8748 13.314L19.0668 9.49231C19.1122 9.46697 19.1666 9.45925 19.2181 9.47085C19.2697 9.48245 19.3141 9.51241 19.3416 9.55415C19.3691 9.59589 19.3775 9.64599 19.3649 9.69342C19.3523 9.74085 19.3198 9.78173 19.2744 9.80707L12.4084 13.825L19.3896 10.1156C19.435 10.0929 19.4881 10.0873 19.5379 10.0999C19.5877 10.1125 19.6302 10.1423 19.6567 10.1831C19.6831 10.2239 19.6914 10.2725 19.6798 10.3188C19.6682 10.3651 19.6376 10.4054 19.5944 10.4314L15.9544 12.5008L19.4816 10.6266C19.5272 10.6016 19.5817 10.5942 19.6331 10.6062C19.6845 10.6182 19.7286 10.6485 19.7558 10.6904C19.783 10.7324 19.7909 10.7825 19.7779 10.8298C19.7649 10.8772 19.732 10.9178 19.6864 10.9428L16.9908 12.4673L19.4876 11.142C19.533 11.119 19.5862 11.1131 19.6362 11.1255C19.6862 11.1379 19.729 11.1677 19.7556 11.2085C19.7822 11.2494 19.7906 11.2981 19.779 11.3446C19.7673 11.391 19.7366 11.4315 19.6932 11.4575L14.3828 14.5072L19.488 11.7943C19.5332 11.7714 19.5863 11.7655 19.6362 11.7778C19.6861 11.7901 19.7288 11.8197 19.7555 11.8604C19.7822 11.901 19.7908 11.9496 19.7795 11.996C19.7682 12.0423 19.7378 12.0828 19.6948 12.1091L12.5784 16.2691L19.488 12.5958C19.5333 12.5724 19.5867 12.5662 19.637 12.5784C19.6872 12.5906 19.7302 12.6204 19.7571 12.6613C19.7839 12.7023 19.7923 12.7512 19.7806 12.7978C19.7689 12.8444 19.738 12.8849 19.6944 12.9109L13.2488 16.6586L19.4888 13.3453C19.5342 13.323 19.5872 13.3176 19.6368 13.3303C19.6864 13.3431 19.7288 13.3729 19.7551 13.4137C19.7813 13.4544 19.7895 13.5029 19.7779 13.5491C19.7663 13.5953 19.7359 13.6355 19.6928 13.6615L18.7852 14.1718L19.4888 13.7981C19.534 13.7756 19.5868 13.7699 19.6364 13.7823C19.686 13.7946 19.7285 13.8241 19.7551 13.8645C19.7817 13.9049 19.7905 13.9532 19.7795 13.9994C19.7685 14.0456 19.7386 14.0861 19.696 14.1125L13.2108 17.9154L19.488 14.5804C19.5331 14.5585 19.5856 14.5532 19.6348 14.5658C19.684 14.5783 19.7261 14.6077 19.7525 14.6478C19.779 14.688 19.7877 14.736 19.777 14.7819C19.7662 14.8278 19.7368 14.8682 19.6948 14.8948L14.342 18.0211L19.488 15.2869C19.5332 15.264 19.5863 15.2581 19.6362 15.2704C19.6861 15.2827 19.7288 15.3123 19.7555 15.3529C19.7822 15.3936 19.7908 15.4422 19.7795 15.4885C19.7682 15.5349 19.7378 15.5754 19.6948 15.6017L15.5956 17.9898L19.488 15.9216C19.533 15.8984 19.586 15.8921 19.6358 15.904C19.6857 15.916 19.7287 15.9451 19.7558 15.9855C19.7829 16.0259 19.792 16.0743 19.7812 16.1207C19.7705 16.1671 19.7406 16.2078 19.698 16.2345L14.45 19.4211L19.49 16.7447C19.5352 16.7225 19.5879 16.7171 19.6373 16.7296C19.6867 16.7421 19.729 16.7716 19.7555 16.812C19.782 16.8523 19.7906 16.9005 19.7796 16.9466C19.7686 16.9926 19.7388 17.0331 19.6964 17.0595L18.4604 17.777L19.488 17.2292C19.533 17.2046 19.5867 17.1972 19.6375 17.2086C19.6884 17.2201 19.7323 17.2494 19.76 17.2903C19.7876 17.3312 19.7967 17.3804 19.7854 17.4274C19.774 17.4745 19.7431 17.5155 19.6992 17.5418L16.1844 19.7039L19.488 17.9486C19.5327 17.925 19.5855 17.9182 19.6354 17.9295C19.6854 17.9408 19.7287 17.9695 19.7563 18.0095C19.7839 18.0494 19.7938 18.0977 19.7837 18.1441C19.7737 18.1906 19.7445 18.2317 19.7024 18.2589L16.4092 20.3772L19.4892 18.7416C19.5335 18.7186 19.5856 18.7119 19.635 18.723C19.6844 18.7341 19.7273 18.7621 19.755 18.8013C19.7828 18.8405 19.7933 18.888 19.7844 18.934C19.7755 18.9801 19.7479 19.0213 19.7072 19.0493L17.1028 20.8021L19.4892 19.5345C19.5332 19.5116 19.5849 19.5049 19.6341 19.5157C19.6832 19.5265 19.7261 19.554 19.7541 19.5927C19.7822 19.6314 19.7932 19.6784 19.7851 19.7243C19.777 19.7702 19.7503 19.8116 19.7104 19.8401L17.9584 21.0701L19.4892 20.2568C19.533 20.2339 19.5846 20.2271 19.6337 20.2377C19.6828 20.2483 19.7257 20.2756 19.7538 20.3141C19.782 20.3526 19.7933 20.3994 19.7856 20.4452C19.7778 20.4911 19.7515 20.5325 19.712 20.5613L18.85 21.1798L19.4032 20.8853C19.4458 20.861 19.4968 20.8523 19.546 20.861C19.5952 20.8697 19.6391 20.895 19.669 20.9321C19.6989 20.9691 19.7125 21.0151 19.7073 21.061C19.7021 21.1068 19.6784 21.1492 19.6408 21.1798L18.9736 21.7614C19.0169 21.763 19.0585 21.7774 19.0921 21.8025C19.1257 21.8277 19.1496 21.8622 19.16 21.9009C19.1705 21.9396 19.167 21.9804 19.1501 22.0171C19.1333 22.0538 19.1039 22.0845 19.0664 22.1045L17.8 22.7771C17.7574 22.8014 17.7064 22.8101 17.6572 22.8014C17.608 22.7927 17.5641 22.7674 17.5342 22.7303C17.5043 22.6933 17.4907 22.6473 17.4959 22.6014C17.5011 22.5556 17.5248 22.5132 17.5624 22.4826L18.1344 21.9834L16.552 22.825C16.5082 22.8484 16.4563 22.8556 16.4069 22.8451C16.3576 22.8346 16.3143 22.8073 16.286 22.7687C16.2577 22.73 16.2463 22.6829 16.2543 22.6368C16.2622 22.5908 16.2888 22.5492 16.3288 22.5205L17.1912 21.9046L15.454 22.825C15.41 22.8484 15.358 22.8555 15.3085 22.8449C15.2591 22.8342 15.2158 22.8067 15.1876 22.7678C15.1594 22.7289 15.1483 22.6816 15.1567 22.6355C15.165 22.5893 15.1921 22.5479 15.2324 22.5194L16.9856 21.2887L14.094 22.825C14.0497 22.848 13.9976 22.8546 13.9482 22.8435C13.8989 22.8324 13.8559 22.8044 13.8282 22.7652C13.8004 22.726 13.7899 22.6786 13.7988 22.6325C13.8077 22.5865 13.8353 22.5452 13.876 22.5172L16.4796 20.7649L12.602 22.8265C12.5575 22.8492 12.5052 22.8554 12.4558 22.8438C12.4065 22.8323 12.3638 22.8038 12.3364 22.7643C12.3091 22.7247 12.2991 22.6771 12.3086 22.6311C12.3182 22.585 12.3464 22.544 12.3876 22.5165L15.68 20.3971L11.1096 22.825C11.0647 22.8482 11.0119 22.8545 10.962 22.8427C10.9122 22.8309 10.8692 22.8019 10.842 22.7617C10.8148 22.7215 10.8055 22.6732 10.816 22.6269C10.8265 22.5805 10.856 22.5397 10.8984 22.5128L14.412 20.3514L9.75641 22.825C9.71117 22.8479 9.65807 22.8538 9.60822 22.8415C9.55836 22.8292 9.5156 22.7996 9.48889 22.759C9.46218 22.7183 9.45358 22.6697 9.4649 22.6234C9.47621 22.577 9.50657 22.5365 9.54961 22.5102L10.7896 21.7916L8.84241 22.825C8.79753 22.8472 8.74511 22.8529 8.69587 22.8408C8.64663 22.8286 8.60428 22.7996 8.57747 22.7597C8.55066 22.7198 8.54142 22.672 8.55163 22.6261C8.56184 22.5801 8.59073 22.5395 8.63241 22.5124L13.88 19.3276L7.29401 22.825C7.26372 22.8415 7.22922 22.8504 7.19401 22.8508Z" fill="#ADADAD"/>
<path d="M11.7964 18.433C11.7574 18.4331 11.7192 18.4226 11.6866 18.4029C11.654 18.3832 11.6283 18.3551 11.6128 18.3222C11.5973 18.2892 11.5926 18.2528 11.5993 18.2175C11.6059 18.1821 11.6237 18.1493 11.6504 18.1231L12.3304 17.4538L10.82 18.2567C10.7762 18.2802 10.7244 18.2876 10.675 18.2773C10.6255 18.267 10.5822 18.2399 10.5537 18.2013C10.5252 18.1627 10.5137 18.1156 10.5215 18.0695C10.5292 18.0234 10.5557 17.9818 10.5956 17.953L11.0136 17.6493L10.5476 17.8967C10.5039 17.9197 10.4523 17.9267 10.4031 17.9163C10.354 17.9058 10.311 17.8787 10.2827 17.8403C10.2544 17.8019 10.2429 17.7551 10.2505 17.7093C10.258 17.6634 10.2842 17.6218 10.3236 17.5929L11.56 16.6928L10.6108 17.1972C10.5665 17.2211 10.514 17.2285 10.464 17.2177C10.414 17.207 10.3705 17.179 10.3423 17.1395C10.3141 17.1 10.3036 17.052 10.3127 17.0056C10.3219 16.9591 10.3501 16.9176 10.3916 16.8898L11.0316 16.4543L10.7516 16.6015C10.7081 16.6247 10.6568 16.632 10.6078 16.6219C10.5588 16.6118 10.5156 16.5851 10.487 16.5471C10.4584 16.5092 10.4464 16.4627 10.4533 16.4169C10.4602 16.3711 10.4856 16.3294 10.5244 16.3L11.8704 15.2839L10.6156 15.9503C10.5719 15.9734 10.5203 15.9804 10.4711 15.9699C10.422 15.9595 10.379 15.9323 10.3507 15.8939C10.3224 15.8556 10.3109 15.8087 10.3185 15.7629C10.326 15.717 10.3522 15.6755 10.3916 15.6466L11.3152 14.9777L10.3024 15.5173C10.2582 15.5402 10.2062 15.5467 10.157 15.5355C10.1078 15.5244 10.065 15.4965 10.0372 15.4575C10.0095 15.4185 9.9989 15.3712 10.0076 15.3252C10.0163 15.2793 10.0436 15.2381 10.084 15.2099L10.314 15.0539L10.16 15.1356C10.1162 15.1581 10.0648 15.1646 10.016 15.1538C9.96724 15.1431 9.92463 15.1158 9.89665 15.0775C9.86866 15.0392 9.85734 14.9926 9.86492 14.947C9.87251 14.9013 9.89845 14.86 9.9376 14.8311L10.4732 14.4479L10.1184 14.636C10.0775 14.6577 10.0296 14.6654 9.98311 14.6577C9.93664 14.65 9.89463 14.6275 9.8645 14.594C9.83438 14.5605 9.81808 14.5184 9.8185 14.4749C9.81893 14.4315 9.83603 14.3895 9.8668 14.3566L10.6768 13.4896L10.622 13.5187C10.5992 13.532 10.5738 13.541 10.5472 13.545C10.5205 13.549 10.4933 13.548 10.4671 13.5421C10.4409 13.5362 10.4163 13.5255 10.3947 13.5106C10.3731 13.4957 10.3551 13.477 10.3416 13.4555C10.3281 13.434 10.3194 13.4102 10.3162 13.3856C10.3129 13.3609 10.3151 13.3359 10.3226 13.3121C10.3301 13.2882 10.3428 13.266 10.3599 13.2468C10.377 13.2276 10.3981 13.2118 10.422 13.2003L11.4952 12.6296C11.5361 12.6079 11.584 12.6002 11.6305 12.6079C11.677 12.6156 11.719 12.6382 11.7491 12.6716C11.7792 12.7051 11.7955 12.7473 11.7951 12.7907C11.7947 12.8342 11.7776 12.8761 11.7468 12.9091L10.9364 13.7764L12.7972 12.7879C12.841 12.765 12.8926 12.7582 12.9417 12.7688C12.9908 12.7794 13.0337 12.8067 13.0618 12.8452C13.09 12.8837 13.1013 12.9305 13.0936 12.9763C13.0858 13.0222 13.0595 13.0636 13.02 13.0924L12.484 13.476L13.24 13.0732C13.2842 13.0504 13.3362 13.0439 13.3854 13.055C13.4346 13.0661 13.4774 13.094 13.5052 13.1331C13.5329 13.1721 13.5435 13.2194 13.5348 13.2653C13.5261 13.3113 13.4988 13.3525 13.4584 13.3806L13.2292 13.536L13.5288 13.377C13.5726 13.3533 13.6246 13.3458 13.6742 13.3561C13.7237 13.3664 13.7672 13.3936 13.7957 13.4323C13.8242 13.4711 13.8357 13.5183 13.8277 13.5645C13.8197 13.6107 13.7929 13.6524 13.7528 13.681L12.8288 14.3503L13.7852 13.8423C13.8287 13.8195 13.8798 13.8126 13.9285 13.8228C13.9773 13.833 14.0201 13.8597 14.0486 13.8975C14.077 13.9353 14.0891 13.9816 14.0823 14.0272C14.0755 14.0728 14.0504 14.1144 14.012 14.1438L12.6672 15.1591L13.882 14.5138C13.9263 14.4899 13.9788 14.4825 14.0288 14.4933C14.0788 14.504 14.1223 14.532 14.1505 14.5715C14.1787 14.611 14.1892 14.6589 14.1801 14.7054C14.1709 14.7519 14.1427 14.7933 14.1012 14.8212L13.4612 15.2567L13.738 15.1094C13.7818 15.0857 13.8338 15.0783 13.8834 15.0886C13.9329 15.0988 13.9764 15.1261 14.0049 15.1648C14.0334 15.2035 14.0449 15.2508 14.0369 15.297C14.0289 15.3432 14.0021 15.3849 13.962 15.4135L12.722 16.3144L13.1892 16.0663C13.2329 16.0432 13.2845 16.0362 13.3337 16.0466C13.3828 16.0571 13.4258 16.0842 13.4541 16.1226C13.4824 16.161 13.4939 16.2078 13.4863 16.2537C13.4788 16.2995 13.4526 16.3411 13.4132 16.37L12.996 16.6733L13.2972 16.5135C13.3387 16.4917 13.3873 16.4842 13.4343 16.4925C13.4813 16.5008 13.5234 16.5243 13.5532 16.5588C13.5829 16.5932 13.5983 16.6363 13.5965 16.6803C13.5946 16.7243 13.5757 16.7662 13.5432 16.7985L12.8632 17.4685L13.4548 17.1556C13.4961 17.1337 13.5445 17.1261 13.5914 17.1342C13.6382 17.1423 13.6804 17.1655 13.7103 17.1996C13.7402 17.2337 13.7558 17.2766 13.7545 17.3204C13.7531 17.3642 13.7348 17.4062 13.7028 17.4387L13.5608 17.5823C13.603 17.5861 13.6427 17.6022 13.6743 17.6281C13.7059 17.6541 13.7277 17.6887 13.7366 17.7268C13.7455 17.7649 13.741 17.8046 13.7238 17.8403C13.7066 17.8759 13.6775 17.9056 13.6408 17.925L12.7324 18.4073C12.6912 18.4289 12.6429 18.4363 12.5962 18.4282C12.5496 18.4201 12.5076 18.397 12.4778 18.363C12.4479 18.329 12.4322 18.2863 12.4335 18.2426C12.4347 18.199 12.4527 18.1571 12.4844 18.1245L12.5448 18.0631L11.8964 18.4073C11.8662 18.424 11.8316 18.4329 11.7964 18.433Z" fill="#616161"/>
<path d="M4.1084 18.0137C3.7032 23.3087 5.5084 22.9137 10.4124 22.8519H16.7104C18.3056 22.9877 19.862 21.9764 19.8916 20.435C19.8984 17.8164 19.8872 15.1974 19.8916 12.5785C20.042 10.8548 19.8448 8.68423 17.4916 8.52187C17.6784 5.86645 17.446 2.84547 14.4036 1.64826C11.0512 0.237167 6.84 2.34258 6.5296 5.76742C6.4468 6.68778 6.4996 7.62692 6.5076 8.55133C4.7256 8.71368 3.856 10.3225 4.1076 11.8495L4.1084 18.0137ZM8.7292 2.59034C9.45592 1.98178 10.3703 1.59633 11.3457 1.48743C12.321 1.37853 13.3091 1.55155 14.1728 1.98254C16.88 3.20809 17.08 6.05826 16.9112 8.5042C16.5704 8.5042 16.2284 8.51488 15.8916 8.51488C15.8684 6.69294 16.2404 4.52126 14.382 3.32C13.7679 2.91463 13.0413 2.67805 12.2868 2.63777C11.5323 2.5975 10.7809 2.75518 10.12 3.09249C7.868 4.12771 8.0492 6.53832 8.1092 8.51304C7.77 8.51304 7.4292 8.51304 7.0908 8.51304C7.0672 6.44002 6.8428 4.08832 8.7292 2.59034ZM15.3084 8.51414C13.1028 8.51414 10.8972 8.51329 8.6916 8.51157C8.7612 6.88842 8.322 5.00868 9.76 3.76877C10.296 3.3107 10.9856 3.03426 11.7151 2.98494C12.4446 2.93563 13.1706 3.11638 13.7736 3.49745C15.6512 4.5982 15.2896 6.75221 15.3084 8.51414ZM4.6916 19.5169C4.8644 6.52359 2.5056 9.11017 16.4312 8.86241C18.222 8.67355 19.4768 9.77945 19.308 11.4394C19.308 13.2873 19.308 15.135 19.308 16.9826C19.108 18.8505 20.2348 22.2838 17.2424 22.5021H7.212C5.332 22.5905 4.4332 21.0984 4.6916 19.5169Z" fill="#262626"/>
<path d="M10.44 16.0953C9.7036 18.2913 10.3268 18.6013 12.6584 18.4651C14.3012 18.4168 13.8552 17.0415 13.5672 16.0408C13.8226 15.8236 14.0183 15.5536 14.1384 15.2533C14.2585 14.9529 14.2995 14.6305 14.258 14.3127C14.2166 13.9949 14.0939 13.6907 13.8999 13.425C13.706 13.1593 13.4464 12.9397 13.1424 12.7842C10.8852 11.6529 8.4532 14.4383 10.44 16.0953ZM10.4228 13.9314C11.7124 11.4703 15.1224 14.121 13.0588 15.8825C12.6988 16.5857 14.1752 18.2556 12.3672 18.0546C10.1736 18.2862 10.7044 17.4711 11.044 15.9967C10.5232 15.4051 10.0436 14.7494 10.4212 13.9314H10.4228Z" fill="#262626"/>
</svg>
