<svg width="24" height="24" viewBox="0 0 24 24" fill="none" xmlns="http://www.w3.org/2000/svg">
<path d="M10.5778 2.91086C10.5193 2.91086 10.4618 2.88025 10.4306 2.82584C10.3833 2.74455 10.4112 2.64048 10.4928 2.59354L11.4084 2.06468C11.4893 2.01706 11.5937 2.04529 11.6407 2.12691C11.6879 2.2082 11.66 2.31227 11.5784 2.35921L10.6628 2.88808C10.636 2.90372 10.6067 2.91086 10.5778 2.91086Z" fill="#E3AB61"/>
<path d="M10.7477 7.41003C10.6923 7.41003 10.6379 7.38284 10.6053 7.33287C10.556 7.25708 10.5743 7.15612 10.6471 7.10276L12.9771 5.39337L9.67017 7.30228C9.59029 7.34851 9.48866 7.32302 9.44005 7.24382C9.39178 7.16564 9.41524 7.06299 9.4924 7.01268L9.80715 6.80806L9.51041 6.97937C9.43121 7.02526 9.33128 7.00045 9.28199 6.92363C9.23305 6.84715 9.25344 6.74586 9.32788 6.69317L11.4758 5.18365L9.25514 6.46543C9.17526 6.51132 9.07431 6.48617 9.02571 6.40799C8.9771 6.32981 8.99953 6.22784 9.07601 6.17685L9.37649 5.97699L9.09267 6.14048C9.01279 6.18671 8.9115 6.16122 8.86357 6.08338C8.81496 6.00554 8.83672 5.90357 8.91286 5.85224L9.31972 5.57896L8.92611 5.80601C8.84691 5.85156 8.74732 5.82709 8.69838 5.75129C8.64909 5.67481 8.66846 5.57386 8.74222 5.52083L10.299 4.40424L8.68988 5.3332C8.61102 5.37977 8.50973 5.35428 8.46078 5.27644C8.41217 5.19894 8.43359 5.09697 8.50939 5.0453L8.88464 4.79071L8.52366 4.99908C8.45092 5.0419 8.35745 5.02355 8.30442 4.95659C8.25242 4.88997 8.25718 4.79479 8.31632 4.73395L9.12836 3.8937L8.35711 4.33898C8.28471 4.38112 8.19259 4.36413 8.13957 4.29853C8.08722 4.23327 8.08994 4.13945 8.14637 4.07759L8.46758 3.72511C8.42203 3.71559 8.3809 3.68738 8.35609 3.64387C8.30884 3.56263 8.33671 3.45862 8.41829 3.41171L9.14773 2.99057C9.21945 2.94808 9.31225 2.96507 9.36527 3.03102C9.41762 3.09628 9.4149 3.19009 9.35847 3.25195L9.13448 3.49805L10.0074 2.99397C10.0801 2.95114 10.1732 2.96949 10.2266 3.03645C10.2786 3.10308 10.2738 3.19825 10.2147 3.25909L9.40232 4.09968L12.7456 2.16935C12.8255 2.12346 12.9261 2.14828 12.9747 2.22612C13.0233 2.30362 13.0019 2.40559 12.9261 2.45725L12.5488 2.7132L13.1151 2.38655C13.1926 2.34066 13.2936 2.36514 13.3429 2.44128C13.3921 2.51742 13.3728 2.61871 13.299 2.67173L11.7416 3.78867L13.4792 2.7856C13.5587 2.7387 13.66 2.76487 13.7083 2.84271C13.7569 2.92055 13.7351 3.02252 13.659 3.07384L13.2541 3.34577L13.8748 2.98751C13.9544 2.9406 14.0553 2.96677 14.1043 3.04495C14.1529 3.12279 14.1304 3.2251 14.0539 3.27609L13.7531 3.47629L14.6104 2.98139C14.6882 2.9355 14.7892 2.96031 14.8388 3.03713C14.8877 3.11361 14.8673 3.21491 14.7929 3.26759L12.6444 4.7778L15.2718 3.26079C15.3514 3.21423 15.4533 3.24006 15.5019 3.31926C15.5502 3.39744 15.5268 3.50009 15.4496 3.55039L15.1376 3.75332L15.4958 3.54665C15.5737 3.50111 15.6739 3.52558 15.7232 3.6007C15.7725 3.6765 15.7542 3.77745 15.6814 3.83082L13.351 5.54055L15.6332 4.22307C15.7103 4.17752 15.8099 4.20131 15.8595 4.27575C15.9092 4.35019 15.8928 4.45081 15.8215 4.50519L14.1518 5.78324L15.2525 5.14795C15.3272 5.10445 15.4234 5.12518 15.4748 5.19486C15.5257 5.26522 15.5159 5.36278 15.4516 5.4209L14.489 6.2931L14.7586 6.13742C14.8289 6.09663 14.9183 6.11193 14.9717 6.17277C15.0251 6.2343 15.0274 6.32437 14.9778 6.38895L14.5924 6.88352C14.608 6.89609 14.6213 6.91173 14.6318 6.93009C14.679 7.01132 14.6512 7.11533 14.5696 7.16224L14.1875 7.38284C14.1178 7.42397 14.0281 7.40901 13.9744 7.34749C13.921 7.28631 13.9187 7.19589 13.9683 7.13131L14.1739 6.8672L13.2779 7.3842C13.2035 7.42805 13.1073 7.40765 13.0556 7.33729C13.0047 7.26693 13.0145 7.16938 13.0788 7.11126L14.0414 6.23906L12.0556 7.38556C11.9781 7.43077 11.8785 7.40697 11.8293 7.33287C11.7796 7.25844 11.7959 7.15782 11.8673 7.10344L13.5369 5.82505L10.832 7.38692C10.8055 7.40256 10.7759 7.40969 10.747 7.40969L10.7477 7.41003Z" fill="#E3AB61"/>
<path d="M10.6355 22.0219C10.5777 22.0219 10.5213 21.9924 10.4897 21.9393C10.4418 21.8598 10.4672 21.7565 10.5458 21.7075L10.6709 21.63L10.0315 21.9988C9.95127 22.0457 9.84896 22.0192 9.80103 21.9397C9.7531 21.8608 9.77724 21.7578 9.85542 21.7082L12.9717 19.7293L9.04066 21.9988C8.95976 22.0454 8.85711 22.0185 8.80952 21.939C8.76194 21.8591 8.78743 21.7558 8.86629 21.7069L9.91592 21.0587L8.28743 21.9988C8.20755 22.0451 8.10524 22.0196 8.05731 21.9404C8.00904 21.8618 8.03284 21.7589 8.10999 21.7089L13.5461 18.2028L7.03895 21.9594C6.95907 22.0066 6.85676 21.9798 6.80849 21.9006C6.76056 21.8214 6.7847 21.7187 6.86254 21.6688L12.4255 18.1287L6.17593 21.7364C6.09571 21.7837 5.9934 21.7568 5.94547 21.6773C5.89754 21.5984 5.92201 21.4954 5.99985 21.4458L11.8507 17.7364L5.49849 21.4037C5.41759 21.4506 5.31494 21.4237 5.26769 21.3438C5.21977 21.2643 5.24526 21.161 5.32378 21.112L9.36357 18.6069L5.06273 21.0903C4.98285 21.1372 4.8802 21.111 4.83227 21.0311C4.78435 20.9519 4.80882 20.8489 4.887 20.7993L10.9917 16.9441L4.59366 20.6378C4.51276 20.6844 4.41011 20.6576 4.36286 20.578C4.31494 20.4985 4.34043 20.3952 4.41895 20.3462L8.65555 17.7218L4.28876 20.2429C4.20889 20.2898 4.10623 20.2633 4.05831 20.1837C4.01038 20.1042 4.03485 20.0015 4.11269 19.9519L10.5492 15.8798L3.96891 19.679C3.88801 19.7255 3.7857 19.6987 3.73811 19.6191C3.69019 19.5399 3.71534 19.4366 3.79386 19.3873L8.78607 16.2765L3.77278 19.1708C3.69291 19.2177 3.59059 19.1912 3.54233 19.1117C3.4944 19.0325 3.51887 18.9295 3.59671 18.8798L9.77928 14.973L3.62968 18.5233C3.54981 18.5702 3.44749 18.544 3.39923 18.4641C3.3513 18.3853 3.37543 18.2823 3.45361 18.2327L9.67153 14.2894L3.60215 17.7935C3.52227 17.8404 3.41962 17.8139 3.37169 17.7344C3.32377 17.6555 3.3479 17.5525 3.42608 17.5029L9.31394 13.7666L3.7235 16.9944C3.6426 17.041 3.53961 17.0141 3.49236 16.9339C3.44477 16.8543 3.47061 16.7507 3.54981 16.7021L4.25851 16.2694L3.88903 16.4825C3.80881 16.5297 3.70752 16.5029 3.65858 16.4237C3.61065 16.3448 3.63478 16.2418 3.71262 16.1919L9.01279 12.8125L4.28264 15.5433C4.20209 15.5899 4.09944 15.5634 4.05151 15.4832C4.00392 15.4033 4.02975 15.2999 4.10861 15.2513L4.50086 15.0107C4.42677 15.0372 4.34043 15.0097 4.2976 14.9386C4.24967 14.8598 4.27381 14.7568 4.35165 14.7072L8.19701 12.2612L4.94376 14.1392C4.86389 14.1857 4.76191 14.1592 4.71365 14.0804C4.66538 14.0015 4.68917 13.8989 4.76667 13.8489L8.46146 11.4767L5.42439 13.2296C5.34451 13.2765 5.24186 13.2503 5.19359 13.1701C5.14567 13.0909 5.17048 12.9879 5.249 12.9383L6.54438 12.1252L5.81732 12.5447C5.73745 12.5916 5.63445 12.5647 5.58653 12.4852C5.5386 12.4056 5.56375 12.3027 5.64227 12.2534L6.11882 11.9553C6.05798 11.9593 5.99747 11.9311 5.9628 11.8764C5.91386 11.7992 5.93493 11.6976 6.01039 11.6456L9.07125 9.53887L7.00972 10.7289C6.92984 10.7748 6.82821 10.7496 6.78028 10.6714C6.73167 10.5936 6.75411 10.4909 6.83059 10.44L7.52433 9.97973C7.46451 9.98381 7.40673 9.95695 7.37206 9.90495C7.32209 9.83085 7.33773 9.73092 7.40809 9.67585L8.78607 8.59971C8.72115 8.62248 8.64671 8.60141 8.60116 8.54566C8.54847 8.48108 8.55085 8.38727 8.60626 8.3254L9.39246 7.44572C9.36697 7.37026 9.39722 7.28495 9.4686 7.24382L9.7079 7.10582C9.77928 7.06333 9.87173 7.081 9.92476 7.14559C9.97744 7.21017 9.97506 7.30398 9.91966 7.36585L9.56649 7.76082L10.7035 7.10446C10.7803 7.05925 10.8796 7.0827 10.9292 7.15646C10.9791 7.23056 10.9635 7.3305 10.8932 7.38556L9.5359 8.44539L11.8619 7.10276C11.9411 7.05619 12.0427 7.08168 12.0913 7.1602C12.1399 7.23804 12.1175 7.34069 12.041 7.39168L11.575 7.70065L12.6121 7.10208C12.6916 7.05585 12.7922 7.08134 12.8408 7.1585C12.8898 7.23566 12.8687 7.33729 12.7932 7.3893L9.73373 9.49536L13.882 7.10038C13.9622 7.05415 14.0648 7.08032 14.1127 7.15986C14.1607 7.2394 14.1355 7.34239 14.057 7.39168L13.9968 7.42907L14.3463 7.2275C14.4268 7.18128 14.5291 7.20711 14.5771 7.28699C14.625 7.36619 14.6002 7.46918 14.5217 7.5188L13.2202 8.3356L14.5268 7.58135C14.607 7.53478 14.7089 7.56095 14.7569 7.64015C14.8051 7.71867 14.7813 7.82166 14.7038 7.87163L11.0111 10.2428L14.8806 8.00895C14.9612 7.96272 15.0631 7.98889 15.1111 8.06809C15.159 8.14729 15.1348 8.24994 15.057 8.29957L11.2103 10.7466L15.28 8.39712C15.3605 8.34988 15.4632 8.37673 15.5111 8.45729C15.5587 8.53716 15.5329 8.6405 15.454 8.6891L15.1447 8.87911L15.5285 8.65783C15.609 8.6116 15.7106 8.63778 15.7589 8.71664C15.8068 8.79549 15.7827 8.89848 15.7049 8.94845L10.4057 12.3271L15.9489 9.1269C16.0291 9.08 16.1325 9.10685 16.1801 9.18741C16.2276 9.26728 16.2018 9.37062 16.1226 9.41922L15.4166 9.8509L16.1858 9.40665C16.2664 9.36042 16.3684 9.38659 16.4163 9.46579C16.4642 9.54499 16.4401 9.64764 16.3619 9.69727L10.4744 13.4332L16.5856 9.90495C16.6661 9.85838 16.7681 9.88455 16.816 9.96409C16.864 10.043 16.8398 10.1459 16.7616 10.1956L10.5464 14.1375L16.9768 10.4247C17.0577 10.3784 17.1593 10.4046 17.2073 10.4838C17.2552 10.563 17.2307 10.666 17.1529 10.7156L10.9656 14.6256L17.3425 10.944C17.4228 10.8971 17.5251 10.924 17.5733 11.0039C17.6213 11.0831 17.5961 11.1864 17.5176 11.2357L12.525 14.3469L17.6427 11.3927C17.7232 11.3462 17.8252 11.3723 17.8731 11.4519C17.9211 11.5314 17.8966 11.6341 17.8188 11.6837L11.3836 15.7551L17.9907 11.9407C18.0713 11.8934 18.174 11.9203 18.2215 12.0005C18.2695 12.08 18.244 12.1833 18.1655 12.2323L13.9272 14.8574L18.245 12.3649C18.3256 12.3183 18.4275 12.3445 18.4755 12.424C18.5234 12.5035 18.4989 12.6062 18.4207 12.6558L12.318 16.5097L18.5553 12.9087C18.6355 12.8618 18.7385 12.8887 18.7861 12.9685C18.8341 13.0481 18.8086 13.1514 18.73 13.2003L14.6879 15.7065L18.7888 13.339C18.8694 13.2928 18.9714 13.319 19.0193 13.3982C19.0672 13.4774 19.0428 13.58 18.9649 13.6296L13.1148 17.3387L19.0767 13.8965C19.1573 13.8499 19.2593 13.8764 19.3072 13.9553C19.3551 14.0345 19.331 14.1371 19.2532 14.1871L13.6885 17.7282L19.3517 14.459C19.4316 14.4121 19.5336 14.4386 19.5818 14.5175C19.6301 14.5963 19.6063 14.699 19.5292 14.749L14.0924 18.2554L19.6291 15.0593C19.7093 15.0124 19.812 15.0392 19.8602 15.1191C19.9078 15.199 19.8823 15.3023 19.8035 15.3513L18.7579 15.9968L19.7814 15.4063C19.8623 15.3598 19.9639 15.3859 20.0118 15.4655C20.0598 15.5443 20.0356 15.6473 19.9574 15.697L16.8422 17.6752L19.9755 15.8666C20.056 15.8193 20.1587 15.8462 20.2063 15.9264C20.2542 16.0059 20.2287 16.1093 20.1502 16.1582L20.0237 16.2364L20.1073 16.1881C20.1879 16.1416 20.2906 16.1677 20.3381 16.2476C20.3861 16.3268 20.3613 16.4298 20.2827 16.4794L19.2464 17.13L20.2345 16.5596C20.3147 16.5131 20.417 16.5392 20.4649 16.6188C20.5129 16.6983 20.4884 16.801 20.4102 16.8506L19.554 17.3911L20.3273 16.9448C20.4068 16.8985 20.5091 16.9247 20.5574 17.0036C20.6056 17.0824 20.5819 17.1851 20.5044 17.235L19.1655 18.0943L20.3905 17.3873C20.4683 17.3411 20.5696 17.3662 20.6186 17.4427C20.6678 17.5195 20.6478 17.6208 20.5734 17.6735L17.521 19.8244L20.3738 18.1776C20.4537 18.1314 20.554 18.1569 20.6026 18.234C20.6515 18.3115 20.6301 18.4132 20.5547 18.4648L19.0489 19.4961L20.2484 18.8037C20.3259 18.7578 20.4269 18.782 20.4765 18.8588C20.5254 18.9353 20.5061 19.0362 20.432 19.0892L19.2494 19.9322L19.9673 19.5179C20.0438 19.4726 20.1427 19.4954 20.193 19.5695C20.2426 19.6433 20.2277 19.7429 20.1576 19.7983L19.3358 20.4475C19.4078 20.4295 19.486 20.4594 19.5251 20.527C19.5723 20.6083 19.5445 20.7123 19.4629 20.7592L17.5128 21.885C17.436 21.9298 17.3371 21.9071 17.2871 21.8333C17.2375 21.7595 17.2525 21.6599 17.3225 21.6045L18.1104 20.9818L16.3487 21.9988C16.2705 22.0444 16.1699 22.0199 16.1206 21.9438C16.0716 21.8673 16.091 21.7663 16.1651 21.7133L17.348 20.87L15.3922 21.9988C15.3133 22.0451 15.2123 22.0199 15.1634 21.9424C15.1145 21.8649 15.1359 21.7633 15.2113 21.7116L16.7161 20.681L14.4333 21.9988C14.3551 22.0447 14.2541 22.0199 14.2052 21.9434C14.1559 21.8666 14.176 21.7653 14.2504 21.7126L17.3024 19.562L13.0818 21.9988C13.0016 22.0451 12.8996 22.0192 12.8517 21.94C12.8034 21.8615 12.8272 21.7585 12.9047 21.7086L14.244 20.8489L12.2524 21.9988C12.1722 22.0457 12.0702 22.0192 12.022 21.9397C11.9741 21.8605 11.9985 21.7575 12.0767 21.7079L12.9343 21.1664L11.4927 21.9985C11.4125 22.0454 11.3102 22.0192 11.2619 21.939C11.214 21.8598 11.2388 21.7568 11.3174 21.7072L12.3531 21.0569L10.7222 21.9985C10.6953 22.0141 10.6661 22.0213 10.6372 22.0213L10.6355 22.0219Z" fill="#E3AB61"/>
<path d="M11.6552 8.08577C11.6029 8.08577 11.5512 8.06164 11.5186 8.01677C11.4673 7.94709 11.4764 7.84987 11.5397 7.79107L11.8717 7.48447L10.8694 8.063C10.7953 8.10582 10.7001 8.08645 10.6484 8.01779C10.5971 7.94913 10.6049 7.85259 10.6671 7.79311L11.0471 7.42975L9.94957 8.063C9.87921 8.10412 9.78845 8.08883 9.73543 8.02663C9.6824 7.96442 9.68104 7.87333 9.73203 7.80943L10.2395 7.17958L8.78709 8.01813C8.71469 8.06062 8.62122 8.04294 8.56853 7.97632C8.51618 7.91004 8.52026 7.8152 8.57839 7.75436L9.00089 7.30874L8.40809 7.65069C8.34079 7.6908 8.25378 7.67788 8.19973 7.62044C8.14569 7.56299 8.13787 7.47632 8.18104 7.41071L8.40503 7.06809C8.33569 7.08508 8.25751 7.05415 8.21945 6.98753C8.1722 6.90629 8.20007 6.80228 8.28165 6.75537L8.84453 6.43042C8.91252 6.39065 8.99919 6.40357 9.0529 6.46068C9.10694 6.51812 9.11476 6.6048 9.07159 6.6704L8.85609 6.99977L9.84352 6.42974C9.91592 6.38726 10.0094 6.40527 10.0621 6.47155C10.1148 6.53783 10.1103 6.63267 10.0522 6.69351L9.63006 7.13879L10.8585 6.42974C10.9288 6.38794 11.0193 6.40357 11.0726 6.46611C11.1256 6.52832 11.127 6.61941 11.076 6.68331L10.5685 7.3135L12.0991 6.42974C12.1726 6.38624 12.2684 6.40561 12.3201 6.47495C12.3714 6.54361 12.3636 6.64015 12.3014 6.69963L11.9214 7.06299L13.0189 6.42974C13.0934 6.38624 13.1896 6.40629 13.2405 6.47597C13.2919 6.54565 13.2827 6.64287 13.2195 6.70167L12.8874 7.00827L13.8898 6.42974C13.9628 6.38624 14.0573 6.40561 14.1093 6.47359C14.1614 6.54123 14.1552 6.63675 14.0947 6.69725L13.6709 7.11941L14.8663 6.42974C14.9397 6.38624 15.0339 6.40561 15.0862 6.47359C15.1379 6.54123 15.1314 6.63709 15.0709 6.69725L14.6505 7.11534L15.4635 6.64592C15.537 6.60276 15.6318 6.62179 15.6838 6.69045C15.7355 6.75877 15.7283 6.85497 15.6668 6.91479L15.4894 7.0878L15.6345 7.00419C15.7154 6.95694 15.8198 6.98447 15.8667 7.06639C15.9139 7.14763 15.886 7.25164 15.8045 7.29855L14.4802 8.063C14.4064 8.10582 14.3116 8.08679 14.2599 8.01847C14.2083 7.95015 14.2154 7.85395 14.2769 7.79413L14.4544 7.62112L13.6889 8.063C13.6155 8.10582 13.5206 8.08747 13.469 8.01915C13.4173 7.95151 13.4238 7.85565 13.4843 7.79549L13.9051 7.3774L12.7168 8.06334C12.643 8.10616 12.5492 8.08781 12.4972 8.01949C12.4452 7.95185 12.4513 7.85633 12.5118 7.79583L12.9357 7.37367L11.7402 8.06334C11.7137 8.07897 11.6845 8.08611 11.6552 8.08611V8.08577Z" fill="#543631"/>
<path d="M20.4218 16.2041C19.2025 13.1922 17.5356 10.2612 15.1573 8.01371C16.3215 7.85123 16.2028 6.34205 15.0016 6.43586C15.2878 5.86686 15.5903 5.30261 15.8555 4.72409C16.4071 3.41613 15.0533 2.74515 13.9173 3.04869C13.3656 1.64692 10.8167 1.75093 10.1471 3.02218C9.07601 2.79308 7.60931 3.53068 8.11475 4.78222C8.35677 5.3553 8.6654 5.90731 8.94957 6.46305C7.82685 6.49806 7.64636 8.03818 8.87513 8.046C6.68375 10.0899 3.41249 14.9842 3.25477 17.9913C3.26395 20.4084 5.50733 22.1688 7.83433 22.024H15.4761C16.5699 22.024 17.6134 22.0111 18.6033 21.4461C20.4469 20.3938 21.1984 18.1681 20.4224 16.2044L20.4218 16.2041ZM8.50905 4.10716C8.55833 3.22918 9.37955 3.06739 10.0984 3.26215C10.1987 3.28051 10.5019 3.24482 10.5437 3.12347C10.9805 1.85936 13.0349 2.03305 13.4493 3.23326C13.469 3.29036 13.6127 3.26385 13.6495 3.25705C14.2977 3.13877 15.0883 3.15542 15.3935 3.85053C15.7246 4.78459 14.8554 5.60887 14.5533 6.44606C12.8694 6.4566 11.1862 6.4515 9.50225 6.44674C9.18988 5.66699 8.57159 4.95999 8.50905 4.10716ZM8.52196 7.05959C8.62631 6.58236 9.0393 6.68229 9.39892 6.68229H14.6009C14.9166 6.64864 15.2844 6.69895 15.4282 7.02594C15.5845 7.3859 15.4265 7.92465 14.9295 7.81078C14.8548 7.73431 14.7164 7.75402 14.6032 7.81078H9.46452C9.38771 7.76422 9.25208 7.75878 9.15487 7.81316C8.75582 7.83186 8.43291 7.45286 8.52196 7.05959ZM16.745 21.695C14.0601 21.713 11.3738 21.695 8.68818 21.7011C7.68613 21.7011 6.71298 21.7449 5.79421 21.2459C3.76973 20.1997 3.28434 17.6419 4.29488 15.7065C5.47878 12.9257 7.10591 10.0589 9.41218 8.04226H14.5128C17.5604 10.8642 24.2525 20.3061 16.745 21.695Z" fill="#262626"/>
<path d="M12.2446 11.4906C12.9873 11.5814 13.6569 11.9644 14.1491 12.5549C14.2582 12.6857 14.731 12.5114 14.6063 12.3615C14.0081 11.6436 13.1416 11.2438 12.2446 11.1908V10.5793C12.2446 10.5117 11.7521 10.5776 11.7521 10.7112V11.1973C8.66676 11.5766 8.50599 14.4522 11.7521 14.8414V17.9573C11.0094 17.8666 10.3398 17.4835 9.8476 16.8931C9.73849 16.7622 9.26568 16.9366 9.39042 17.0865C9.98866 17.8044 10.8551 18.2041 11.7521 18.2571V18.8686C11.7521 18.9363 12.2446 18.8703 12.2446 18.7367V18.2507C15.33 17.8713 15.4907 14.9957 12.2446 14.6065V11.4906ZM9.86629 13.0161C9.8459 12.0413 10.904 11.5042 11.7521 11.4746V14.4937C10.9707 14.2976 9.89043 13.9988 9.86629 13.0161ZM14.1308 16.4322C14.1512 17.407 13.093 17.9441 12.245 17.9737V14.9546C13.0264 15.1507 14.1066 15.4495 14.1308 16.4322Z" fill="#074A00"/>
</svg>
