<svg width="24" height="24" viewBox="0 0 24 24" fill="none" xmlns="http://www.w3.org/2000/svg">
<path d="M1.24353 14.2318C0.8908 10.435 2.5124 6.99588 5.20199 4.8109C6.25039 3.95846 7.8181 4.68842 7.8181 6.03567C7.8181 6.53047 7.58294 6.98609 7.20081 7.29473C5.29507 8.84774 4.14869 11.2973 4.42794 14.0016C4.79047 17.524 7.61234 20.3753 11.1299 20.7672C15.7203 21.2816 19.62 17.6857 19.62 13.1981C19.62 10.8172 18.5177 8.68607 16.7981 7.28983C16.416 6.98119 16.1857 6.52557 16.1857 6.03567C16.1857 4.70312 17.7289 3.94866 18.7675 4.7815C21.2269 6.76563 22.8044 9.79816 22.8044 13.1981C22.8044 19.4151 17.5232 24.4268 11.2083 23.9712C5.98584 23.6038 1.72854 19.4444 1.24353 14.2318ZM11.997 0C11.1152 0 10.4048 0.715266 10.4048 1.5922V8.92612C10.4048 9.80796 11.1201 10.5183 11.997 10.5183C12.8739 10.5183 13.5892 9.80306 13.5892 8.92612V1.5922C13.5892 0.715266 12.8788 0 11.997 0Z" fill="black"/>
</svg>
