<svg width="24" height="24" viewBox="0 0 24 24" fill="none" xmlns="http://www.w3.org/2000/svg">
<path d="M12 2C6.47301 2 2 6.4725 2 12C2 17.5269 6.4725 22 12 22C17.527 22 22 17.5275 22 12C22 6.47301 17.5275 2 12 2ZM12 20.6046C7.25539 20.6046 3.39535 16.7446 3.39535 12C3.39535 7.25535 7.25539 3.39535 12 3.39535C16.7446 3.39535 20.6046 7.25535 20.6046 12C20.6046 16.7446 16.7446 20.6046 12 20.6046Z" fill="black"/>
<path d="M11.7041 14.6533C11.1512 14.6533 10.7037 15.114 10.7037 15.6668C10.7037 16.2065 11.1381 16.6804 11.7041 16.6804C12.2701 16.6804 12.7176 16.2065 12.7176 15.6668C12.7176 15.114 12.2569 14.6533 11.7041 14.6533Z" fill="black"/>
<path d="M11.8752 6.97926C10.0982 6.97926 9.28207 8.03234 9.28207 8.74312C9.28207 9.25648 9.71645 9.49344 10.0718 9.49344C10.7827 9.49344 10.4931 8.47984 11.8357 8.47984C12.4938 8.47984 13.0204 8.76945 13.0204 9.37496C13.0204 10.0857 12.2832 10.4938 11.8489 10.8623C11.4671 11.1914 10.967 11.7311 10.967 12.8631C10.967 13.5476 11.1513 13.745 11.6909 13.745C12.3359 13.745 12.4675 13.4555 12.4675 13.2053C12.4675 12.5209 12.4807 12.126 13.2047 11.56C13.56 11.2836 14.6789 10.3884 14.6789 9.15113C14.6789 7.91383 13.56 6.97926 11.8752 6.97926Z" fill="black"/>
</svg>
