<svg width="24" height="24" viewBox="0 0 24 24" fill="none" xmlns="http://www.w3.org/2000/svg">
<path d="M17.5204 21.3785C17.4649 21.3785 17.4132 21.3512 17.3818 21.3056C17.3507 21.2598 17.3439 21.2016 17.364 21.15L17.5709 20.6156L16.9205 20.9914C16.8506 21.0318 16.7618 21.0167 16.7092 20.9556C16.6566 20.8945 16.655 20.8045 16.7053 20.7415L17.1157 20.2264L16.3334 20.6781C16.2613 20.7192 16.1701 20.7017 16.1187 20.6368C16.0671 20.5719 16.0706 20.479 16.1269 20.4184L16.7979 19.7004L15.6945 20.3379C15.6186 20.3812 15.522 20.3588 15.4727 20.2864C15.4236 20.2143 15.4381 20.1161 15.5063 20.0613L15.7213 19.891L15.3058 20.1309C15.2299 20.173 15.1345 20.1504 15.0857 20.079C15.0368 20.0074 15.0504 19.9103 15.1172 19.855L15.7278 19.3645L14.835 19.8799C14.7582 19.9249 14.6595 19.902 14.6104 19.8279C14.5611 19.7537 14.5784 19.654 14.6498 19.6007L15.1959 19.1888L14.4001 19.648C14.323 19.6919 14.225 19.6681 14.1766 19.5936C14.1283 19.5192 14.1462 19.42 14.2176 19.3673L14.7079 19.011L13.9865 19.4253C13.9093 19.468 13.812 19.4434 13.7643 19.3693C13.7165 19.2949 13.7345 19.1965 13.8053 19.1438L14.3479 18.7593L13.5728 19.2062C13.4951 19.2484 13.3978 19.2229 13.3507 19.148C13.3037 19.073 13.3229 18.9744 13.3946 18.9227L13.4135 18.9096L13.2229 19.0197C13.1457 19.0635 13.0477 19.0397 12.9993 18.9652C12.9509 18.8909 12.9689 18.7915 13.0405 18.7388L14.5256 17.6558L12.6723 18.7261C12.5948 18.7702 12.4962 18.7456 12.4481 18.6703C12.4002 18.5951 12.4195 18.4954 12.4922 18.4436L13.8426 17.4978L12.1747 18.4607C12.0978 18.5042 12.0001 18.4804 11.9519 18.4062C11.9035 18.3321 11.921 18.2332 11.992 18.1803L14.3874 16.4245L6.03724 21.2454C5.95846 21.2893 5.85894 21.2632 5.81194 21.1861C5.7651 21.1089 5.78768 21.0084 5.86308 20.9588L11.683 17.2586L6.17301 20.4391C6.09391 20.4815 5.99562 20.454 5.9497 20.3769C5.90394 20.2997 5.92697 20.2001 6.00192 20.151L6.73204 19.7067L6.25026 19.9853C6.1704 20.0324 6.0675 20.006 6.02035 19.9261C5.9732 19.8464 5.99962 19.7435 6.07948 19.6964L7.54263 18.8076L6.32935 19.5067C6.24964 19.554 6.14659 19.5276 6.09944 19.4479C6.05214 19.3682 6.07856 19.2651 6.15826 19.218L8.66714 17.6937L6.41597 18.9935C6.33672 19.0372 6.2369 19.0104 6.19067 18.9325C6.14429 18.8546 6.16825 18.754 6.24458 18.7053L10.6503 16.0031L6.51994 18.3853C6.441 18.4295 6.34102 18.4031 6.29433 18.3255C6.24749 18.2478 6.27084 18.1472 6.34686 18.0981L12.4463 14.276L6.64849 17.6237C6.56924 17.6682 6.4688 17.6417 6.42211 17.5636C6.37542 17.4855 6.39954 17.3844 6.47633 17.3357L10.0552 15.1239L6.74847 17.0332C6.66907 17.0809 6.56586 17.0553 6.5181 16.9759C6.47034 16.8965 6.49598 16.7934 6.57539 16.7457L11.127 13.8848L6.86411 16.3464C6.78487 16.3943 6.68182 16.3688 6.6339 16.2895C6.58598 16.2101 6.61148 16.1071 6.69072 16.0592L10.8325 13.44L6.9793 15.6646C6.90021 15.7098 6.79976 15.6837 6.75262 15.606C6.70547 15.5281 6.72896 15.4269 6.80545 15.3777L10.3733 13.1104L7.09034 15.0061C7.0114 15.0512 6.9108 15.0251 6.86365 14.9474C6.8165 14.8695 6.84 14.7683 6.91648 14.7192L9.70963 12.9411L6.92155 14.5515C6.84277 14.5948 6.74371 14.5682 6.69717 14.4913C6.65064 14.4143 6.67306 14.3144 6.74816 14.2646L8.55349 13.124L6.61086 14.2451C6.53238 14.2867 6.43501 14.2597 6.38909 14.1837C6.34302 14.1076 6.36421 14.009 6.43747 13.9587L8.22068 12.8269L6.29894 13.9361C6.2197 13.9819 6.11833 13.9556 6.07134 13.8773C6.02419 13.7988 6.04861 13.6971 6.12617 13.6486L6.31369 13.5319L6.04523 13.6862C5.9669 13.73 5.86784 13.7043 5.8207 13.628C5.77339 13.5515 5.79474 13.4515 5.86907 13.401L9.75156 10.8459L5.59862 13.2433C5.54763 13.2748 5.48374 13.2765 5.43091 13.2481C5.37823 13.2195 5.34475 13.165 5.34306 13.1051C5.34137 13.0452 5.37178 12.989 5.42293 12.9575L9.16197 10.5168L5.16952 12.8206C5.09119 12.8621 4.99413 12.8355 4.9479 12.7598C4.90168 12.6841 4.92241 12.5855 4.99505 12.5348L8.32588 10.3876L4.77866 12.4341C4.69987 12.4782 4.60035 12.4519 4.55351 12.3748C4.50667 12.2977 4.52925 12.1973 4.60465 12.1477L7.59054 10.2384L4.41498 12.0729C4.33819 12.1171 4.24006 12.0941 4.19122 12.0199C4.14238 11.9459 4.15958 11.8466 4.23054 11.7934L6.19988 10.3191L3.9521 11.6158C3.87653 11.6594 3.78024 11.6379 3.73048 11.5664C3.68072 11.4948 3.69408 11.397 3.7612 11.3414L5.18058 10.1722L3.48368 11.1515C3.40919 11.1939 3.31489 11.1734 3.26467 11.1039C3.21461 11.0345 3.22474 10.9384 3.28848 10.8811L4.05208 10.2038L3.08775 10.7599C3.01895 10.7997 2.93171 10.7857 2.87873 10.7264C2.8259 10.6672 2.8219 10.579 2.86905 10.5151L3.24486 10.0065L2.66479 10.342C2.60997 10.3735 2.54208 10.3717 2.4891 10.3371C2.43611 10.3026 2.40724 10.2411 2.41415 10.1783L2.43965 9.94979L2.36608 9.99233C2.31417 10.0223 2.25013 10.0223 2.19822 9.99233C2.14631 9.96223 2.11436 9.90678 2.11436 9.84689C2.11436 9.78684 2.14646 9.7314 2.19837 9.70145L2.55913 9.4935C2.61411 9.46248 2.68184 9.46448 2.73483 9.49888C2.78766 9.53343 2.81653 9.59471 2.80962 9.65752L2.78412 9.88574L3.77425 9.31535C3.8429 9.27557 3.93013 9.28955 3.98312 9.34868C4.0361 9.4078 4.04025 9.49596 3.99325 9.55985L3.6176 10.0685L5.3168 9.08759C5.39144 9.04444 5.48651 9.06471 5.53688 9.13459C5.58726 9.20447 5.57666 9.30122 5.51216 9.35835L4.74887 10.0339L6.75983 8.87319C6.83539 8.82942 6.932 8.85093 6.98176 8.92265C7.03152 8.99452 7.01785 9.09251 6.95043 9.14795L5.53258 10.3171L8.47086 8.62225C8.5478 8.57786 8.64579 8.60105 8.69478 8.67508C8.74362 8.7491 8.72642 8.84847 8.65546 8.90161L6.68704 10.3735L13.8446 6.24008C13.9231 6.19815 14.0208 6.22472 14.0671 6.30089C14.1134 6.37692 14.0922 6.47597 14.0188 6.52635L11.0304 8.43872L14.0619 6.68837C14.1404 6.64583 14.2385 6.67209 14.2851 6.74827C14.3318 6.82445 14.3104 6.92381 14.2368 6.97419L10.9056 9.12138L14.2941 7.16478C14.3726 7.12162 14.4711 7.14758 14.5181 7.22391C14.5649 7.30023 14.5435 7.39975 14.4697 7.45028L10.7332 9.89173L14.5491 7.68818C14.6277 7.64348 14.7275 7.66913 14.7748 7.74608C14.8223 7.82302 14.8002 7.92361 14.7249 7.97368L10.8443 10.5282L14.8175 8.23538C14.8966 8.19176 14.9958 8.21864 15.0424 8.29604C15.0888 8.37345 15.0656 8.47358 14.99 8.52288L14.7977 8.64267L14.9991 8.52657C15.0778 8.48326 15.1769 8.50983 15.2234 8.58677C15.27 8.66371 15.2476 8.76369 15.1725 8.81345L13.3917 9.9438L15.616 8.65941C15.6951 8.61426 15.7955 8.64037 15.8427 8.71808C15.8898 8.79594 15.8663 8.89715 15.7898 8.9463L13.9871 10.0849L16.2853 8.75801C16.3641 8.71409 16.4636 8.74019 16.5106 8.81745C16.5574 8.89454 16.5349 8.99498 16.4594 9.04459L13.6625 10.8244L17.0472 8.87043C17.126 8.82789 17.2243 8.85446 17.2707 8.93094C17.317 9.00742 17.2952 9.10694 17.221 9.15701L13.652 11.4249L17.8676 8.9913C17.9466 8.94614 18.0472 8.9721 18.0943 9.04996C18.1414 9.12783 18.118 9.22904 18.0413 9.27803L13.901 11.895L18.7163 9.11508C18.7954 9.0707 18.8952 9.09727 18.9421 9.17482C18.9887 9.25238 18.9656 9.35298 18.8895 9.40228L14.3401 12.2613L19.5716 9.24179C19.6508 9.19725 19.7513 9.22382 19.7978 9.30199C19.8445 9.38001 19.8205 9.48106 19.7437 9.52975L16.1595 11.745L20.3069 9.35052C20.3862 9.30491 20.4874 9.33101 20.5345 9.40949C20.5817 9.48782 20.5573 9.58949 20.4797 9.63802L14.3837 13.458L21.2565 9.49043C21.3361 9.44297 21.439 9.46908 21.4864 9.54864C21.5339 9.62819 21.5078 9.73124 21.4282 9.7787L17.0239 12.4825L21.4715 9.91446C21.5511 9.86916 21.6521 9.89603 21.6988 9.97467C21.7455 10.0535 21.7205 10.155 21.6426 10.203L19.1244 11.733L20.3468 11.0284C20.4267 10.9811 20.5296 11.0075 20.5769 11.0872C20.6241 11.1671 20.5978 11.27 20.5179 11.3173L19.0652 12.1999L19.3002 12.0641C19.3796 12.0188 19.4808 12.0455 19.5275 12.1243C19.5742 12.2029 19.5492 12.3046 19.4713 12.3525L18.3594 13.0286C18.4277 13.0172 18.4964 13.0482 18.5329 13.1071C18.5799 13.1851 18.556 13.2865 18.4792 13.3353L12.6607 17.0346L16.8879 14.5945C16.965 14.5498 17.0636 14.5733 17.1123 14.6479C17.161 14.7226 17.1429 14.8222 17.0712 14.8749L14.6753 16.6309L17.005 15.2859C17.0827 15.2418 17.1813 15.2662 17.2292 15.3417C17.2773 15.4169 17.2579 15.5166 17.1851 15.5683L15.8364 16.5128L17.0899 15.7892C17.1671 15.744 17.2662 15.7675 17.315 15.8425C17.3637 15.9174 17.3451 16.0176 17.2726 16.0699L15.7875 17.1522L17.1842 16.3471C17.2622 16.3032 17.3608 16.3282 17.4084 16.4041C17.456 16.4798 17.4358 16.5797 17.3623 16.6309L17.2825 16.6853C17.3608 16.6632 17.4437 16.7008 17.4789 16.7742C17.5142 16.8477 17.4917 16.9358 17.4253 16.9831L16.8832 17.3694L17.315 17.1201C17.3921 17.0762 17.4903 17.1 17.5386 17.1745C17.587 17.249 17.5689 17.3482 17.4975 17.4008L17.0083 17.7562L17.3858 17.5385C17.4625 17.4941 17.5605 17.5169 17.6096 17.5908C17.6587 17.6647 17.6419 17.7641 17.5709 17.8175L17.0251 18.2296L17.4612 17.9783C17.5371 17.9355 17.6331 17.9576 17.6822 18.0294C17.7314 18.1013 17.7176 18.1988 17.6501 18.254L17.0389 18.7448L17.5422 18.4547C17.618 18.4122 17.7139 18.4347 17.7629 18.5068C17.8117 18.5786 17.7976 18.6762 17.73 18.7311L17.5145 18.9022L17.6085 18.8479C17.6804 18.8067 17.7716 18.8242 17.8232 18.889C17.8748 18.954 17.8713 19.0468 17.8149 19.1076L17.144 19.8252L17.7173 19.4944C17.787 19.4544 17.8754 19.4694 17.928 19.5304C17.9803 19.5913 17.9822 19.6809 17.9323 19.744L17.5221 20.259L17.8179 20.0882C17.8796 20.0527 17.9568 20.0599 18.0109 20.1061C18.065 20.1525 18.0839 20.2279 18.0581 20.2943L17.8512 20.8283L17.935 20.7804C18.0146 20.7387 18.113 20.7671 18.158 20.845C18.203 20.9229 18.1786 21.0224 18.1027 21.0706L17.6065 21.3567C17.5803 21.3716 17.5505 21.3792 17.5204 21.3785Z" fill="#FDCD56"/>
<path d="M9.03251 8.68936C8.95894 8.68921 8.89413 8.64114 8.87248 8.57095C8.85082 8.50061 8.87754 8.42444 8.93821 8.38297L9.65481 7.8952L9.42813 8.02574C9.35042 8.07043 9.25136 8.04632 9.20298 7.97092C9.15476 7.89551 9.17411 7.79537 9.24721 7.74346L10.2765 7.01181L9.78167 7.29732C9.70457 7.34124 9.60643 7.31728 9.55805 7.24295C9.50968 7.16846 9.5278 7.06925 9.59921 7.01642L10.4282 6.41255L10.1263 6.5867C10.0498 6.63001 9.95275 6.60682 9.90407 6.53372C9.85523 6.46062 9.87136 6.36217 9.94077 6.30827L10.6945 5.73419L10.4809 5.85766C10.4046 5.90097 10.3078 5.87824 10.259 5.80545C10.21 5.7328 10.2252 5.63467 10.294 5.58015L10.7466 5.22768C10.672 5.24319 10.5964 5.20649 10.5623 5.1383C10.5284 5.07026 10.5445 4.98764 10.6016 4.93742L11.1384 4.46439C11.0662 4.49158 10.9848 4.46593 10.941 4.40235C10.8974 4.33876 10.9026 4.25368 10.9539 4.19593L11.4978 3.59206C11.436 3.58853 11.3812 3.55136 11.3551 3.49515C11.3291 3.43894 11.336 3.37306 11.3734 3.3236L11.6753 2.91662C11.6712 2.91017 11.6673 2.90341 11.6638 2.8965C11.6176 2.81633 11.645 2.71374 11.7252 2.66736L11.9937 2.51209C12.0623 2.47231 12.1496 2.48629 12.2025 2.54542C12.2554 2.60455 12.2597 2.6927 12.2127 2.75659L12.1242 2.87607L12.1913 2.83814C12.2627 2.79698 12.3535 2.81387 12.4054 2.87807C12.4573 2.94227 12.4549 3.03457 12.3996 3.09585L11.9161 3.63261L12.4328 3.33466C12.5074 3.29212 12.6022 3.31285 12.6522 3.38258C12.7023 3.4523 12.6917 3.54875 12.6273 3.60573L12.096 4.07107L12.6369 3.75747C12.713 3.71416 12.8098 3.73689 12.8588 3.80968C12.9078 3.88233 12.8924 3.98046 12.8236 4.03498L12.4188 4.35059L12.8142 4.12206C12.8907 4.07968 12.987 4.10302 13.0354 4.17597C13.0838 4.24877 13.0681 4.34644 12.9995 4.40066L12.2449 4.97627L13.0139 4.53273C13.0911 4.48881 13.1891 4.51277 13.2375 4.58726C13.2859 4.66159 13.2679 4.76095 13.1963 4.81363L12.3678 5.4175L13.2071 4.93173C13.2848 4.88689 13.3839 4.911 13.4321 4.98656C13.4805 5.06197 13.4611 5.1621 13.388 5.21386L12.3587 5.94428L13.4054 5.34041C13.4835 5.29495 13.5835 5.31967 13.6316 5.39616C13.6797 5.47264 13.6586 5.57339 13.584 5.62422L12.8663 6.11261L13.5806 5.7004C13.6608 5.65478 13.7626 5.68243 13.8087 5.76229C13.8549 5.84215 13.8279 5.94428 13.7483 5.99082L9.11513 8.6654C9.0901 8.68045 9.06169 8.68859 9.03251 8.68936Z" fill="#FDCD56"/>
<path d="M3.99972 11.9437L5.78416 13.7086C6.0027 13.9247 6.68644 14.3844 6.77429 14.688C6.85922 14.9806 6.63269 15.5731 6.58369 15.8623C6.44686 16.6735 6.30971 17.4847 6.17241 18.2959C6.03818 19.0937 5.43001 20.6569 5.75099 21.438C5.77664 21.5066 5.8396 21.5544 5.91271 21.5604C6.74987 21.6161 7.74291 20.7625 8.44707 20.3861L10.6648 19.2028C10.9667 19.0411 11.6589 18.4819 12.011 18.4845C12.6321 18.4896 14.4089 19.808 15.1011 20.1771C15.8636 20.5841 17.0825 21.6221 17.9863 21.5618C18.0922 21.5587 18.1885 21.4993 18.2387 21.406C18.5452 20.6603 18.0039 19.2925 17.8767 18.5363C17.736 17.706 17.5956 16.8754 17.4556 16.0447C17.3986 15.7093 17.1234 14.9712 17.2332 14.6421C17.3338 14.3402 17.922 13.9516 18.139 13.7361L19.903 11.9916C20.4834 11.4175 21.7655 10.5942 21.9664 9.76288C21.9699 9.71128 21.9465 9.66152 21.9046 9.63142C21.2911 9.11477 19.8413 9.20631 19.0864 9.0945L16.8999 8.77245C16.5226 8.71685 15.6361 8.75878 15.3154 8.53762C14.7357 8.1397 14.2582 6.47905 13.9523 5.84998L12.4056 2.66613C12.4028 2.64048 12.391 2.61652 12.3721 2.59902C12.3509 2.56062 12.3142 2.53328 12.2715 2.52376L12.1852 2.46986C12.095 2.41426 11.9822 2.41088 11.8889 2.4611C11.1915 2.89727 10.873 4.19701 10.5308 4.90117C10.1403 5.70393 9.74989 6.50669 9.35964 7.30945C9.19685 7.73287 9.00825 8.14584 8.79493 8.54638C8.24573 8.96611 5.84436 8.96872 5.00997 9.09189C4.2218 9.208 2.75696 9.11477 2.11484 9.65583C2.05433 9.69745 2.02362 9.7704 2.03606 9.84274C2.22189 10.6143 3.46296 11.4125 3.99972 11.9437ZM2.79197 9.79375C3.41904 9.54311 4.30596 9.57029 4.97265 9.472C6.06767 9.31059 7.86562 9.40489 8.85882 8.89869C9.58341 8.52964 9.88365 7.26245 10.2182 6.57457L11.4595 4.02285C11.5938 3.7441 11.7215 3.45814 11.8671 3.18415C11.9342 3.05791 11.9719 2.98619 11.9903 2.94288L13.4399 5.9234C13.7896 6.64215 14.2086 8.24905 14.8407 8.76538C15.4503 9.26405 16.9124 9.17206 17.6488 9.28049L19.8353 9.60285C20.0191 9.63003 21.3183 9.66996 21.4198 9.83767C21.7298 10.3483 17.1533 13.6624 16.8041 14.5011C16.5252 15.1701 17.0053 16.3917 17.1191 17.061C17.2533 17.8537 17.3875 18.6465 17.5216 19.4393C17.5858 19.8179 17.9444 20.7707 17.8088 21.1397C17.8073 21.1456 17.806 21.1514 17.8051 21.1574C17.6522 21.0812 17.5052 20.9934 17.3657 20.8948C16.7181 20.518 16.0388 20.1868 15.3778 19.8343C14.5304 19.382 13.1907 18.2809 12.2282 18.154C11.5712 18.0675 10.8707 18.6666 10.3195 18.9609C9.12006 19.6007 7.72771 20.6861 6.41706 21.043C6.33182 21.0616 6.25089 21.0957 6.17809 21.1437C6.2214 21.0613 6.23829 20.9676 6.22678 20.8753C6.20097 20.2519 6.45622 19.5179 6.55989 18.9036C6.69412 18.1108 6.82835 17.3181 6.96257 16.5253C7.04366 16.0461 7.33593 15.265 7.25837 14.7756C7.16714 14.2002 6.56926 13.8244 6.15736 13.4168C5.05927 12.3304 3.90373 11.2804 2.85294 10.1484C2.46546 9.7314 2.36349 9.96422 2.79197 9.79375Z" fill="#262626"/>
</svg>
