<svg width="24" height="24" viewBox="0 0 24 24" fill="none" xmlns="http://www.w3.org/2000/svg">
<path d="M11.0821 4.91976C11.0451 4.9198 11.009 4.90855 10.9786 4.8875C10.9482 4.86646 10.9249 4.83663 10.912 4.802C10.899 4.76738 10.8969 4.72962 10.9059 4.69377C10.915 4.65791 10.9348 4.62569 10.9627 4.6014L11.5645 4.0743L11.0131 4.39266C10.9755 4.41423 10.9315 4.42164 10.8889 4.41355C10.8463 4.40546 10.8081 4.3824 10.781 4.34855C10.754 4.3147 10.7399 4.27229 10.7414 4.22898C10.7429 4.18567 10.7598 4.14432 10.7892 4.11242L11.5235 3.31597L11.0131 3.61037C10.9828 3.62783 10.9481 3.63615 10.9131 3.63433C10.8782 3.6325 10.8445 3.62061 10.8161 3.60009C10.7878 3.57957 10.766 3.55128 10.7533 3.51865C10.7407 3.48602 10.7377 3.45043 10.7449 3.41616L10.8625 2.84732C10.8296 2.8359 10.8007 2.81526 10.7792 2.78787C10.7577 2.76047 10.7445 2.72747 10.7413 2.6928C10.738 2.65813 10.7448 2.62325 10.7608 2.59234C10.7768 2.56142 10.8014 2.53576 10.8316 2.51843L11.0131 2.41279C11.0435 2.39533 11.0782 2.38701 11.1131 2.38884C11.1481 2.39066 11.1818 2.40255 11.2101 2.42307C11.2385 2.4436 11.2603 2.47188 11.2729 2.50451C11.2856 2.53714 11.2885 2.57274 11.2814 2.607L11.1808 3.09344L12.3715 2.40589C12.4091 2.38408 12.4533 2.37647 12.496 2.38446C12.5387 2.39246 12.5772 2.41551 12.6043 2.44945C12.6315 2.48338 12.6456 2.52593 12.644 2.56936C12.6425 2.6128 12.6254 2.65424 12.5959 2.68614L11.8626 3.48295L12.9897 2.83243C13.0288 2.81011 13.0747 2.80306 13.1186 2.81265C13.1625 2.82224 13.2013 2.84779 13.2275 2.88435C13.2536 2.9209 13.2653 2.96586 13.2602 3.01053C13.2551 3.05519 13.2336 3.09638 13.1999 3.12611L12.5973 3.65321L12.9926 3.42487C13.0294 3.40351 13.0724 3.39572 13.1143 3.40285C13.1562 3.40998 13.1943 3.43158 13.2219 3.46389C13.2495 3.4962 13.2649 3.53716 13.2654 3.57965C13.2659 3.62214 13.2514 3.66346 13.2246 3.6964L12.9099 4.08483L12.9955 4.0351C13.0275 4.01662 13.0643 4.00831 13.1011 4.0113C13.1379 4.01428 13.1729 4.02841 13.2014 4.05179C13.23 4.07518 13.2507 4.10671 13.2609 4.14219C13.2711 4.17767 13.2702 4.2154 13.2584 4.25036L13.1858 4.46817C13.2123 4.48477 13.2341 4.50796 13.2491 4.53549C13.264 4.56302 13.2716 4.59394 13.271 4.62526C13.2705 4.65658 13.2618 4.68722 13.246 4.71421C13.2301 4.7412 13.2074 4.76361 13.1803 4.77927L12.9988 4.88491C12.9669 4.90339 12.93 4.91169 12.8933 4.90871C12.8565 4.90572 12.8215 4.8916 12.7929 4.86821C12.7644 4.84483 12.7436 4.81329 12.7335 4.77782C12.7233 4.74234 12.7242 4.7046 12.736 4.66964L12.7632 4.58905L12.2448 4.88854C12.2081 4.9099 12.165 4.91769 12.1231 4.91056C12.0813 4.90343 12.0432 4.88183 12.0156 4.84952C11.988 4.81721 11.9726 4.77625 11.9721 4.73376C11.9716 4.69127 11.986 4.64995 12.0129 4.61701L12.3269 4.23003L11.1739 4.8958C11.146 4.91179 11.1143 4.92006 11.0821 4.91976Z" fill="#347984"/>
<path d="M4.80161 7.95672C4.76524 7.95653 4.72976 7.94542 4.69978 7.92482C4.66981 7.90422 4.64671 7.8751 4.63348 7.84121C4.62026 7.80733 4.61752 7.77026 4.62562 7.7348C4.63372 7.69934 4.65228 7.66713 4.67891 7.64235L4.92467 7.4162L4.57654 7.61731C4.53865 7.63918 4.49414 7.64664 4.4512 7.6383C4.40825 7.62996 4.36976 7.60639 4.34281 7.57193C4.31586 7.53747 4.30226 7.49444 4.30452 7.45075C4.30678 7.40706 4.32474 7.36565 4.3551 7.33416L4.9577 6.7076L4.16815 7.16427C4.13113 7.18594 4.08764 7.1938 4.04538 7.18646C4.00312 7.17911 3.96482 7.15704 3.93728 7.12415C3.90975 7.09126 3.89475 7.04969 3.89495 7.00679C3.89514 6.9639 3.91052 6.92246 3.93836 6.88983L4.68327 6.00553C4.64305 5.99111 4.60931 5.96279 4.58816 5.92567C4.56409 5.88398 4.55757 5.83444 4.57002 5.78794C4.58248 5.74144 4.6129 5.7018 4.65459 5.67773L5.27498 5.3198C5.31195 5.29857 5.35522 5.29103 5.39719 5.29851C5.43917 5.30598 5.47717 5.328 5.50454 5.36069C5.53191 5.39339 5.54689 5.43467 5.54687 5.47731C5.54684 5.51995 5.53181 5.56121 5.5044 5.59387L4.88292 6.33224L5.89391 5.74852C5.93179 5.7269 5.97619 5.71965 6.01898 5.72809C6.06176 5.73653 6.10008 5.76009 6.12692 5.79447C6.15376 5.82884 6.16733 5.87173 6.16514 5.91529C6.16294 5.95885 6.14514 6.00016 6.11499 6.03167L5.51093 6.65786L6.17017 6.27743C6.20881 6.2556 6.25412 6.24869 6.29752 6.258C6.34091 6.26731 6.37939 6.29221 6.40568 6.32797C6.43197 6.36374 6.44424 6.40789 6.44017 6.45209C6.43611 6.49629 6.41599 6.53747 6.38362 6.56784L5.29022 7.57266C5.29503 7.60836 5.2891 7.64468 5.2732 7.677C5.2573 7.70933 5.23214 7.73619 5.20092 7.75416L4.89236 7.9324C4.86477 7.94833 4.83347 7.95672 4.80161 7.95672Z" fill="#347984"/>
<path d="M19.0811 7.95709C19.0467 7.95712 19.0131 7.94741 18.984 7.92908C18.955 7.91074 18.9317 7.88454 18.917 7.85352C18.9022 7.8225 18.8966 7.78793 18.9007 7.75383C18.9048 7.71972 18.9185 7.68749 18.9402 7.66087L19.2031 7.33815L18.8038 7.56866C18.7676 7.58963 18.7253 7.59748 18.684 7.59089C18.6428 7.5843 18.605 7.56366 18.5772 7.53247C18.5494 7.50128 18.5332 7.46145 18.5314 7.41969C18.5295 7.37794 18.5421 7.33683 18.5671 7.3033L18.949 6.78782L18.3594 7.12833C18.3211 7.15072 18.2759 7.15831 18.2324 7.14965C18.1889 7.14099 18.15 7.11668 18.1232 7.08132C18.0964 7.04597 18.0835 7.00201 18.0868 6.95776C18.0902 6.91351 18.1097 6.87204 18.1416 6.84118L18.1808 6.80488L18.0861 6.8597C18.0514 6.87985 18.011 6.88793 17.9712 6.88269C17.9314 6.87744 17.8945 6.85916 17.8662 6.83071C17.8379 6.80225 17.8198 6.76522 17.8148 6.72541C17.8098 6.6856 17.8181 6.64525 17.8385 6.61067L18.2077 5.97758L18.1815 5.99246C18.1398 6.01653 18.0902 6.02303 18.0437 6.01054C17.9972 5.99805 17.9575 5.96758 17.9334 5.92585C17.9094 5.88411 17.9029 5.83452 17.9153 5.78799C17.9278 5.74146 17.9583 5.7018 18 5.67773L18.6204 5.3198C18.6551 5.29965 18.6955 5.29156 18.7353 5.29681C18.7751 5.30205 18.812 5.32033 18.8403 5.34879C18.8686 5.37724 18.8867 5.41427 18.8917 5.45408C18.8967 5.49389 18.8884 5.53424 18.868 5.56882L18.4981 6.2001L19.251 5.76449C19.2893 5.74209 19.3345 5.73451 19.378 5.74317C19.4215 5.75183 19.4604 5.77614 19.4872 5.81149C19.514 5.84685 19.5269 5.89081 19.5236 5.93505C19.5202 5.9793 19.5007 6.02077 19.4688 6.05163L19.4299 6.08793L19.5229 6.03421C19.559 6.01324 19.6013 6.00539 19.6426 6.01198C19.6839 6.01857 19.7216 6.03921 19.7494 6.0704C19.7772 6.10159 19.7934 6.14142 19.7953 6.18317C19.7971 6.22493 19.7845 6.26604 19.7596 6.29957L19.3773 6.81541L19.8746 6.52827C19.9114 6.50693 19.9545 6.49918 19.9964 6.50636C20.0383 6.51354 20.0763 6.5352 20.1039 6.56756C20.1315 6.59992 20.1468 6.64093 20.1472 6.68344C20.1477 6.72595 20.1332 6.76726 20.1062 6.80016L19.5363 7.50368L19.5403 7.51022C19.5644 7.55191 19.5709 7.60145 19.5584 7.64794C19.546 7.69444 19.5156 7.73409 19.4739 7.75816L19.1718 7.93276C19.1443 7.9487 19.113 7.95709 19.0811 7.95709Z" fill="#347984"/>
<path d="M11.7 22.6889C11.6607 22.6889 11.6225 22.6762 11.5911 22.6527C11.5597 22.6292 11.5367 22.5961 11.5257 22.5584C11.5146 22.5208 11.5161 22.4805 11.5299 22.4438C11.5436 22.407 11.5689 22.3757 11.6019 22.3545L13.5259 21.1232L10.967 22.6003C10.9262 22.6228 10.8782 22.6287 10.8331 22.6168C10.788 22.6049 10.7493 22.5761 10.7248 22.5363C10.7004 22.4966 10.6922 22.449 10.702 22.4034C10.7117 22.3578 10.7386 22.3177 10.7772 22.2914L15.0517 19.4998L9.98799 22.4242C9.94668 22.449 9.89724 22.4563 9.85054 22.4446C9.80384 22.4329 9.7637 22.4031 9.73896 22.3618C9.71422 22.3205 9.70689 22.2711 9.7186 22.2244C9.73031 22.1777 9.7601 22.1375 9.8014 22.1128L10.9496 21.4005L9.43439 22.2758C9.39314 22.3006 9.34371 22.308 9.29697 22.2964C9.25023 22.2848 9.21002 22.2551 9.18518 22.2139C9.16035 22.1726 9.15291 22.1232 9.16452 22.0765C9.17613 22.0297 9.20582 21.9895 9.24708 21.9647L12.2844 20.0628L8.82163 22.062C8.78042 22.0857 8.73152 22.0924 8.68547 22.0804C8.63942 22.0685 8.59989 22.039 8.57538 21.9982C8.55088 21.9574 8.54337 21.9087 8.55445 21.8624C8.56554 21.8161 8.59435 21.7761 8.63468 21.7509L12.6815 19.2098L8.20051 21.7959C8.15953 21.8181 8.11158 21.8237 8.06659 21.8115C8.02159 21.7993 7.98302 21.7703 7.95884 21.7304C7.93467 21.6906 7.92675 21.6429 7.93674 21.5974C7.94672 21.5519 7.97384 21.5119 8.01247 21.4859L13.9499 17.7033L7.50353 21.4249C7.46232 21.4486 7.41342 21.4553 7.36737 21.4433C7.32132 21.4314 7.28179 21.4019 7.25728 21.3611C7.23278 21.3203 7.22527 21.2716 7.23635 21.2253C7.24744 21.1791 7.27625 21.139 7.31658 21.1138L12.2775 18.01L6.9601 21.0796C6.91886 21.1029 6.87019 21.1091 6.82444 21.0969C6.7787 21.0848 6.73951 21.0553 6.71522 21.0146C6.69094 20.974 6.68348 20.9255 6.69443 20.8795C6.70539 20.8334 6.73389 20.7935 6.77387 20.7682L10.9053 18.2089L6.5096 20.7471C6.46825 20.7718 6.4188 20.779 6.37213 20.7672C6.32546 20.7554 6.2854 20.7255 6.26075 20.6841C6.23611 20.6428 6.2289 20.5933 6.24071 20.5467C6.25252 20.5 6.28238 20.4599 6.32374 20.4353L9.86493 18.255L6.11464 20.4204C6.07363 20.4423 6.02577 20.4477 5.98094 20.4353C5.9361 20.423 5.89771 20.3939 5.87369 20.3541C5.84966 20.3143 5.84183 20.2668 5.85181 20.2214C5.86179 20.176 5.88882 20.1361 5.92733 20.11L12.7059 15.8374L5.60497 19.9369C5.56392 19.9595 5.51573 19.9653 5.47048 19.9531C5.42523 19.941 5.38643 19.9118 5.36219 19.8717C5.33795 19.8317 5.33015 19.7838 5.34042 19.738C5.35069 19.6923 5.37823 19.6524 5.41729 19.6265L12.3733 15.2478L5.13922 19.4239C5.09799 19.4472 5.04931 19.4534 5.00357 19.4412C4.95783 19.4291 4.91864 19.3996 4.89435 19.3589C4.87006 19.3183 4.8626 19.2698 4.87356 19.2238C4.88451 19.1777 4.91302 19.1378 4.953 19.1125L9.5128 16.3017L4.81505 19.0141C4.7737 19.0377 4.72475 19.044 4.67874 19.0319C4.63273 19.0197 4.59335 18.9899 4.56907 18.949C4.54479 18.908 4.53757 18.8592 4.54895 18.813C4.56033 18.7668 4.58941 18.7269 4.62992 18.7019L5.87614 17.9458L4.58527 18.691C4.54406 18.7148 4.49516 18.7214 4.44911 18.7095C4.40306 18.6976 4.36353 18.668 4.33902 18.6273C4.31452 18.5865 4.307 18.5377 4.31809 18.4915C4.32918 18.4452 4.35799 18.4051 4.39832 18.3799L11.2208 14.1062L4.24004 18.1356C4.19875 18.1581 4.15037 18.1636 4.10506 18.1511C4.05976 18.1386 4.02107 18.109 3.99713 18.0686C3.97319 18.0282 3.96587 17.98 3.97672 17.9343C3.98756 17.8885 4.01572 17.8488 4.05527 17.8234L4.41828 17.6031L4.05926 17.8103C4.01791 17.835 3.96846 17.8422 3.92179 17.8304C3.87513 17.8186 3.83506 17.7887 3.81042 17.7474C3.78577 17.706 3.77856 17.6566 3.79037 17.6099C3.80218 17.5632 3.83205 17.5232 3.8734 17.4985L8.03171 14.9429L3.84145 17.3628C3.80017 17.3852 3.75178 17.3908 3.70647 17.3783C3.66117 17.3658 3.62248 17.3362 3.59854 17.2957C3.5746 17.2553 3.56729 17.2072 3.57813 17.1614C3.58897 17.1157 3.61713 17.076 3.65668 17.0506L4.87314 16.3126L3.68463 16.9983C3.64358 17.0209 3.59539 17.0267 3.55014 17.0146C3.5049 17.0024 3.46609 16.9732 3.44185 16.9332C3.41761 16.8931 3.40981 16.8452 3.42008 16.7995C3.43035 16.7537 3.45789 16.7138 3.49695 16.6879L10.5637 12.2396L3.44867 16.347C3.40749 16.3694 3.35927 16.3749 3.3141 16.3625C3.26892 16.3501 3.23029 16.3207 3.20629 16.2805C3.18228 16.2403 3.17476 16.1923 3.1853 16.1467C3.19583 16.101 3.2236 16.0612 3.26281 16.0356L8.01828 13.0952L3.29911 15.8178C3.25806 15.8403 3.20987 15.8462 3.16462 15.834C3.11938 15.8219 3.08057 15.7927 3.05633 15.7526C3.03209 15.7126 3.02429 15.6646 3.03456 15.6189C3.04483 15.5732 3.07237 15.5333 3.11143 15.5074L10.2011 11.0184L3.14882 15.0881C3.10761 15.1119 3.05872 15.1185 3.01267 15.1066C2.96662 15.0947 2.92708 15.0651 2.90258 15.0244C2.87808 14.9836 2.87056 14.9348 2.88165 14.8886C2.89274 14.8423 2.92155 14.8022 2.96187 14.777L8.88697 11.0547L3.06424 14.4162C3.02298 14.439 2.97447 14.4448 2.92896 14.4325C2.88346 14.4202 2.84453 14.3906 2.82043 14.3501C2.79633 14.3096 2.78893 14.2613 2.79982 14.2154C2.8107 14.1696 2.83901 14.1297 2.87874 14.1043L3.96088 13.444L3.03593 13.978C2.99485 14.0003 2.94677 14.0058 2.9017 13.9935C2.85663 13.9812 2.81803 13.952 2.79395 13.912C2.76986 13.872 2.76214 13.8242 2.77239 13.7786C2.78264 13.733 2.81007 13.6931 2.84898 13.6673L7.25777 10.9156L3.03375 13.3544C2.99252 13.3776 2.94384 13.3838 2.8981 13.3717C2.85235 13.3595 2.81316 13.33 2.78888 13.2894C2.76459 13.2487 2.75713 13.2003 2.76808 13.1542C2.77904 13.1082 2.80754 13.0682 2.84752 13.0429L5.19404 11.5952L3.06315 12.8251C3.02213 12.848 2.97382 12.8541 2.92837 12.8422C2.88292 12.8302 2.84389 12.8011 2.81948 12.7609C2.79508 12.7208 2.7872 12.6727 2.79751 12.6268C2.80781 12.581 2.8355 12.5409 2.87475 12.5151L8.06583 9.20404L3.16552 12.0348C3.1245 12.0577 3.07618 12.0639 3.03074 12.0519C2.98529 12.0399 2.94626 12.0108 2.92185 11.9706C2.89745 11.9305 2.88957 11.8824 2.89988 11.8366C2.91018 11.7907 2.93787 11.7507 2.97712 11.7248L7.67233 8.71179L3.35247 11.2071C3.31117 11.2319 3.26173 11.2392 3.21503 11.2275C3.16833 11.2158 3.12819 11.186 3.10345 11.1447C3.0787 11.1034 3.07138 11.054 3.08309 11.0073C3.0948 10.9606 3.12458 10.9204 3.16589 10.8957L4.08612 10.3239L3.52563 10.6474C3.48464 10.6707 3.43617 10.6772 3.3905 10.6654C3.34482 10.6536 3.30553 10.6245 3.28094 10.5842C3.25636 10.544 3.24841 10.4957 3.25878 10.4497C3.26915 10.4037 3.29702 10.3635 3.3365 10.3377L6.6882 8.16945L3.86868 9.79647C3.84835 9.80892 3.82576 9.81723 3.80222 9.82095C3.77867 9.82466 3.75463 9.8237 3.73145 9.81812C3.68465 9.80686 3.64424 9.77746 3.61911 9.7364C3.59398 9.69533 3.58619 9.64597 3.59746 9.59917C3.60873 9.55236 3.63812 9.51195 3.67919 9.48682L5.72622 8.16401L4.29014 8.99204C4.24947 9.01564 4.20122 9.02254 4.15557 9.01128C4.10991 9.00002 4.07041 8.97148 4.04538 8.93168C4.02035 8.89187 4.01174 8.8439 4.02137 8.79788C4.031 8.75185 4.05812 8.71136 4.09701 8.68493L6.41304 7.10873L5.05791 7.89102C5.01777 7.91401 4.97036 7.92081 4.92537 7.91003C4.88038 7.89924 4.84121 7.87168 4.81586 7.83298C4.79051 7.79429 4.7809 7.74737 4.78898 7.70182C4.79706 7.65627 4.82223 7.61552 4.85934 7.5879L6.35459 6.4858C6.31355 6.47164 6.27908 6.44298 6.25767 6.40521C6.23357 6.36356 6.22699 6.31405 6.23938 6.26756C6.25177 6.22107 6.28211 6.1814 6.32374 6.15727L8.53485 4.88055C8.57506 4.85667 8.62294 4.84924 8.66851 4.8598C8.71407 4.87036 8.7538 4.8981 8.7794 4.93724C8.80501 4.97638 8.81452 5.02389 8.80595 5.06987C8.79739 5.11585 8.7714 5.15675 8.73341 5.18403L7.69411 5.94999L10.4781 4.34257C10.5187 4.31971 10.5666 4.31337 10.6118 4.32486C10.6569 4.33635 10.696 4.36479 10.7208 4.40428C10.7455 4.44377 10.7542 4.49128 10.7449 4.53697C10.7356 4.58266 10.7091 4.62302 10.6708 4.64968L8.35334 6.22661L11.8099 4.23003C11.8512 4.20481 11.9008 4.19701 11.9478 4.20834C11.9948 4.21968 12.0354 4.24922 12.0606 4.29048C12.0858 4.33173 12.0936 4.38132 12.0823 4.42832C12.071 4.47533 12.0414 4.51591 12.0002 4.54114L9.9535 5.86359L12.7186 4.26634C12.7596 4.243 12.808 4.23654 12.8537 4.24833C12.8994 4.26011 12.9387 4.28921 12.9633 4.32947C12.9878 4.36972 12.9958 4.41797 12.9854 4.46398C12.9751 4.51 12.9472 4.55017 12.9077 4.57599L9.55673 6.7439L13.6276 4.39375C13.6689 4.36887 13.7184 4.3614 13.7652 4.37301C13.812 4.38462 13.8522 4.41434 13.8771 4.45565C13.902 4.49695 13.9095 4.54645 13.8979 4.59325C13.8863 4.64006 13.8565 4.68033 13.8152 4.70522L12.891 5.2795L14.2015 4.52044C14.2426 4.49637 14.2914 4.4894 14.3376 4.50104C14.3838 4.51267 14.4235 4.54198 14.4483 4.58265C14.473 4.62331 14.4808 4.67207 14.47 4.71843C14.4591 4.76478 14.4305 4.80502 14.3902 4.83046L9.69685 7.84347L15.0132 4.77455C15.0543 4.75107 15.1029 4.74456 15.1487 4.75643C15.1946 4.7683 15.2339 4.7976 15.2585 4.83809C15.283 4.87858 15.2907 4.92704 15.28 4.97316C15.2694 5.01927 15.2411 5.05938 15.2012 5.08493L10.0069 8.39706L15.7486 5.08166C15.79 5.05697 15.8395 5.04971 15.8862 5.06149C15.9329 5.07327 15.973 5.10311 15.9977 5.14446C16.0224 5.18582 16.0296 5.23528 16.0178 5.28198C16.0061 5.32869 15.9762 5.3688 15.9349 5.39349L13.5913 6.83973L16.2238 5.31907C16.265 5.29641 16.3133 5.29058 16.3587 5.30282C16.404 5.31506 16.4429 5.34441 16.467 5.3847C16.4912 5.42499 16.4988 5.47309 16.4882 5.51886C16.4777 5.56464 16.4498 5.60454 16.4104 5.63018L12.0023 8.38218L16.7578 5.63635C16.7992 5.61175 16.8487 5.6046 16.8954 5.61648C16.942 5.62836 16.9821 5.65829 17.0067 5.69969C17.0313 5.74109 17.0384 5.79057 17.0265 5.83723C17.0146 5.8839 16.9847 5.92394 16.9433 5.94854L15.8517 6.6143L17.1223 5.88029C17.1635 5.85545 17.213 5.84802 17.2597 5.85963C17.3064 5.87123 17.3467 5.90093 17.3715 5.94218C17.3963 5.98344 17.4038 6.03287 17.3922 6.07961C17.3805 6.12634 17.3509 6.16655 17.3096 6.19139L11.3896 9.91119L17.6632 6.28904C17.7042 6.26647 17.7524 6.26064 17.7977 6.27278C17.8429 6.28492 17.8817 6.31408 17.9059 6.35417C17.9302 6.39426 17.938 6.44217 17.9277 6.48788C17.9175 6.53359 17.8899 6.57355 17.8508 6.59942L10.7576 11.0935L18.2171 6.7871C18.2584 6.76387 18.307 6.75766 18.3528 6.7698C18.3985 6.78194 18.4377 6.81147 18.462 6.85209C18.4863 6.89271 18.4937 6.94121 18.4828 6.98725C18.4718 7.03329 18.4433 7.07324 18.4034 7.09856L13.6479 10.039L18.5994 7.18024C18.6405 7.1572 18.689 7.15106 18.7346 7.16312C18.7801 7.17519 18.8192 7.20451 18.8435 7.24488C18.8679 7.28525 18.8756 7.33351 18.865 7.37944C18.8543 7.42537 18.8263 7.46537 18.7867 7.49098L11.7243 11.9375L19.047 7.70988C19.0883 7.68631 19.1373 7.67993 19.1833 7.69211C19.2293 7.70429 19.2687 7.73406 19.293 7.77499C19.3172 7.81593 19.3245 7.86476 19.3131 7.91098C19.3017 7.95719 19.2726 7.99709 19.2321 8.02207L18.0077 8.76515L19.2851 8.02751C19.3265 8.00287 19.3759 7.99565 19.4226 8.00747C19.4692 8.01928 19.5093 8.04914 19.534 8.0905C19.5586 8.13185 19.5658 8.18129 19.554 8.22796C19.5422 8.27463 19.5123 8.31469 19.471 8.33934L15.3159 10.8931L19.5632 8.44062C19.6046 8.41612 19.6541 8.40908 19.7007 8.42107C19.7474 8.43305 19.7873 8.46306 19.8118 8.50451C19.8363 8.54596 19.8434 8.59544 19.8314 8.64208C19.8194 8.68871 19.7894 8.72867 19.748 8.75317L19.3795 8.97607L19.7559 8.75826C19.7972 8.73342 19.8466 8.72598 19.8934 8.73759C19.9401 8.7492 19.9803 8.7789 20.0051 8.82015C20.03 8.86141 20.0374 8.91084 20.0258 8.95757C20.0142 9.00431 19.9845 9.04452 19.9433 9.06936L13.1219 13.3417L20.0652 9.33472C20.1066 9.31116 20.1555 9.30478 20.2015 9.31696C20.2475 9.32914 20.2869 9.3589 20.3112 9.39984C20.3355 9.44078 20.3427 9.48961 20.3313 9.53582C20.32 9.58204 20.2909 9.62193 20.2504 9.64691L19.0063 10.4013L20.2308 9.6941C20.2721 9.66941 20.3216 9.66215 20.3683 9.67393C20.415 9.68571 20.4551 9.71556 20.4798 9.75691C20.5045 9.79826 20.5117 9.84772 20.5 9.89443C20.4882 9.94113 20.4583 9.98124 20.417 10.0059L15.8594 12.8157L20.4257 10.1791C20.4669 10.1542 20.5163 10.1467 20.563 10.1582C20.6098 10.1698 20.65 10.1994 20.6749 10.2406C20.6998 10.2818 20.7073 10.3312 20.6958 10.378C20.6842 10.4247 20.6546 10.4649 20.6134 10.4898L13.6562 14.8692L20.6352 10.8398C20.6764 10.8149 20.7258 10.8074 20.7725 10.8189C20.8192 10.8305 20.8595 10.8601 20.8844 10.9013C20.9093 10.9425 20.9168 10.9919 20.9052 11.0387C20.8937 11.0854 20.864 11.1256 20.8228 11.1505L14.0432 15.4235L20.7996 11.5226C20.841 11.498 20.8904 11.4907 20.9371 11.5026C20.9837 11.5144 21.0238 11.5442 21.0484 11.5856C21.0731 11.6269 21.0803 11.6764 21.0685 11.7231C21.0567 11.7697 21.0268 11.8098 20.9855 11.8344L17.4428 14.0158L20.8842 12.0286C20.9255 12.0039 20.975 11.9967 21.0217 12.0085C21.0684 12.0202 21.1085 12.0501 21.1332 12.0914C21.1579 12.1328 21.1652 12.1823 21.1534 12.229C21.1416 12.2757 21.1118 12.3158 21.0704 12.3405L16.94 14.8983L20.9441 12.587C20.9853 12.5632 21.0342 12.5566 21.0802 12.5685C21.1263 12.5804 21.1658 12.6099 21.1903 12.6507C21.2148 12.6915 21.2223 12.7402 21.2113 12.7865C21.2002 12.8328 21.1714 12.8728 21.131 12.8981L16.1697 16.0022L20.9724 13.2298C21.0134 13.2076 21.0613 13.202 21.1063 13.2142C21.1513 13.2264 21.1899 13.2554 21.2141 13.2953C21.2382 13.3352 21.2462 13.3828 21.2362 13.4283C21.2262 13.4738 21.1991 13.5138 21.1604 13.5399L15.2237 17.3221L20.9423 14.0205C20.9835 13.9967 21.0324 13.9901 21.0784 14.002C21.1245 14.0139 21.164 14.0435 21.1885 14.0842C21.213 14.125 21.2205 14.1738 21.2094 14.22C21.1984 14.2663 21.1695 14.3064 21.1292 14.3316L17.0798 16.8752L20.8668 14.6888C20.908 14.665 20.9569 14.6584 21.0029 14.6703C21.049 14.6822 21.0885 14.7118 21.113 14.7525C21.1375 14.7933 21.145 14.8421 21.1339 14.8883C21.1228 14.9346 21.094 14.9747 21.0537 14.9999L18.0189 16.8992L20.7415 15.3273C20.7827 15.3047 20.831 15.2988 20.8764 15.3111C20.9217 15.3233 20.9606 15.3527 20.9847 15.393C21.0089 15.4333 21.0165 15.4814 21.0059 15.5271C20.9954 15.5729 20.9675 15.6128 20.9281 15.6384L19.7784 16.3514L20.5974 15.8795C20.6384 15.8557 20.687 15.8488 20.733 15.8604C20.7789 15.872 20.8185 15.901 20.8433 15.9414C20.8681 15.9818 20.8761 16.0303 20.8657 16.0765C20.8552 16.1227 20.827 16.163 20.7873 16.1888L16.5128 18.9803L20.2645 16.8146C20.3054 16.7927 20.3532 16.7873 20.398 16.7995C20.4427 16.8117 20.4811 16.8406 20.5052 16.8803C20.5294 16.9199 20.5374 16.9673 20.5277 17.0127C20.5179 17.0581 20.4912 17.098 20.4529 17.1243L18.529 18.3556L19.9084 17.557C19.9491 17.5334 19.9973 17.5265 20.043 17.5377C20.0886 17.549 20.1281 17.5775 20.1532 17.6173C20.1782 17.6571 20.1868 17.7051 20.1772 17.7511C20.1675 17.7972 20.1404 17.8376 20.1015 17.8641L17.1187 19.9053L19.1711 18.7204C19.211 18.6975 19.2581 18.6906 19.3028 18.7011C19.3476 18.7116 19.3867 18.7387 19.4123 18.7769C19.4379 18.8151 19.448 18.8616 19.4406 18.9069C19.4333 18.9523 19.409 18.9932 19.3726 19.0214L17.5695 20.4059C17.6039 20.4034 17.6383 20.4104 17.6689 20.4263C17.6994 20.4422 17.725 20.4663 17.7427 20.4959C17.7668 20.5376 17.7733 20.5871 17.761 20.6336C17.7486 20.6801 17.7182 20.7197 17.6766 20.7439L15.4655 22.0202C15.4256 22.0431 15.3785 22.05 15.3338 22.0395C15.289 22.029 15.2499 22.002 15.2243 21.9638C15.1987 21.9256 15.1886 21.8791 15.196 21.8337C15.2033 21.7883 15.2277 21.7474 15.264 21.7193L16.9647 20.4124L13.1647 22.6068C13.124 22.6304 13.0758 22.6373 13.0301 22.6261C12.9845 22.6148 12.945 22.5863 12.92 22.5465C12.8949 22.5067 12.8863 22.4587 12.8959 22.4127C12.9056 22.3666 12.9327 22.3262 12.9716 22.2997L15.9556 20.26L11.7907 22.6646C11.7632 22.6806 11.7318 22.689 11.7 22.6889Z" fill="#4295A8"/>
<path d="M11.8637 21.2405C11.8244 21.2405 11.7862 21.2278 11.7548 21.2043C11.7234 21.1807 11.7004 21.1477 11.6894 21.11C11.6784 21.0723 11.6798 21.0321 11.6936 20.9954C11.7073 20.9586 11.7326 20.9273 11.7657 20.9061L12.5777 20.3841L11.2153 21.1704C11.1743 21.1955 11.1249 21.2033 11.0781 21.192C11.0313 21.1808 10.9909 21.1514 10.9658 21.1103C10.9406 21.0693 10.9328 21.0199 10.9441 20.9731C10.9554 20.9263 10.9848 20.8859 11.0258 20.8607L13.0032 19.5855L10.4726 21.0466C10.4318 21.0694 10.3837 21.0756 10.3384 21.0639C10.2932 21.0521 10.2542 21.0234 10.2296 20.9836C10.205 20.9438 10.1967 20.896 10.2065 20.8503C10.2163 20.8045 10.2433 20.7643 10.282 20.738L14.2726 18.1051L9.60174 20.8016C9.56076 20.8238 9.51281 20.8294 9.46781 20.8172C9.42282 20.805 9.38424 20.776 9.36007 20.7361C9.3359 20.6963 9.32798 20.6486 9.33797 20.6031C9.34795 20.5576 9.37507 20.5176 9.4137 20.4916L12.1795 18.7357L9.00713 20.5656C8.96592 20.5894 8.91702 20.596 8.87097 20.5841C8.82492 20.5722 8.78539 20.5426 8.76088 20.5019C8.73638 20.4611 8.72886 20.4123 8.73995 20.3661C8.75104 20.3198 8.77985 20.2797 8.82017 20.2545L10.6124 19.1353L8.53412 20.3351C8.4931 20.358 8.44478 20.3642 8.39934 20.3522C8.35389 20.3402 8.31486 20.3111 8.29045 20.2709C8.26604 20.2308 8.25817 20.1827 8.26847 20.1369C8.27878 20.091 8.30647 20.0509 8.34572 20.0251L12.7781 17.19L7.93769 19.9848C7.89654 20.0075 7.8482 20.0133 7.80284 20.001C7.75748 19.9888 7.71863 19.9595 7.69447 19.9192C7.6703 19.8789 7.6627 19.8308 7.67326 19.785C7.68383 19.7392 7.71173 19.6993 7.7511 19.6737L9.58395 18.5378L7.54854 19.7125C7.50739 19.7352 7.45905 19.741 7.41369 19.7288C7.36833 19.7165 7.32948 19.6872 7.30532 19.6469C7.28115 19.6066 7.27355 19.5585 7.28411 19.5127C7.29468 19.467 7.32258 19.4271 7.36195 19.4014L10.4428 17.4775L7.13942 19.3844C7.09824 19.4067 7.05002 19.4122 7.00485 19.3998C6.95968 19.3874 6.92105 19.358 6.89704 19.3178C6.87303 19.2776 6.86551 19.2296 6.87605 19.184C6.88658 19.1384 6.91436 19.0985 6.95356 19.0729L9.238 17.6572L6.79384 19.0678C6.75258 19.0906 6.70406 19.0965 6.65855 19.0842C6.61305 19.0718 6.57413 19.0423 6.55002 19.0018C6.52592 18.9613 6.51853 18.9129 6.52941 18.8671C6.54029 18.8212 6.5686 18.7814 6.60834 18.756L7.1024 18.4536L6.52158 18.7894C6.48045 18.8124 6.43198 18.8186 6.3864 18.8065C6.34083 18.7944 6.30174 18.7651 6.27741 18.7248C6.25307 18.6844 6.2454 18.6361 6.25601 18.5902C6.26662 18.5443 6.29468 18.5043 6.33426 18.4787L11.1456 15.4471L6.13061 18.3422C6.08945 18.3671 6.04006 18.3748 5.99329 18.3633C5.94652 18.3519 5.90621 18.3223 5.88122 18.2812C5.85624 18.24 5.84863 18.1906 5.86006 18.1438C5.8715 18.0971 5.90105 18.0568 5.94221 18.0318L11.8706 14.2456L5.73202 17.7897C5.69094 17.8119 5.64287 17.8175 5.59779 17.8052C5.55272 17.7929 5.51413 17.7637 5.49004 17.7236C5.46596 17.6836 5.45824 17.6358 5.46849 17.5902C5.47874 17.5447 5.50617 17.5048 5.54507 17.4789L9.79849 14.8173L5.44815 17.3286C5.4068 17.3533 5.35735 17.3605 5.31068 17.3487C5.26401 17.3369 5.22395 17.307 5.1993 17.2656C5.17466 17.2243 5.16744 17.1748 5.17926 17.1282C5.19107 17.0815 5.22093 17.0414 5.26228 17.0168L6.99422 15.9524L5.25176 16.9573C5.21041 16.9808 5.16145 16.9872 5.11544 16.975C5.06944 16.9628 5.03005 16.9331 5.00577 16.8921C4.9815 16.8512 4.97427 16.8024 4.98565 16.7562C4.99703 16.71 5.02611 16.6701 5.06662 16.6451L5.69137 16.2632L5.09312 16.6084C5.05207 16.631 5.00388 16.6368 4.95863 16.6247C4.91338 16.6125 4.87458 16.5834 4.85034 16.5433C4.8261 16.5032 4.8183 16.4553 4.82857 16.4096C4.83884 16.3639 4.86638 16.3239 4.90544 16.298L9.87146 13.162L4.87894 16.0443C4.83789 16.0669 4.7897 16.0727 4.74446 16.0606C4.69921 16.0484 4.6604 16.0193 4.63616 15.9792C4.61192 15.9391 4.60412 15.8912 4.61439 15.8455C4.62466 15.7997 4.65221 15.7598 4.69127 15.7339L9.12765 12.9423L4.71631 15.4907C4.67516 15.5134 4.62682 15.5192 4.58146 15.5069C4.5361 15.4947 4.49726 15.4654 4.47309 15.4251C4.44893 15.3848 4.44133 15.3367 4.45189 15.2909C4.46245 15.2451 4.49035 15.2052 4.52972 15.1796L7.4262 13.378L4.6085 15.005C4.5675 15.0283 4.51904 15.0348 4.47336 15.023C4.42769 15.0112 4.3884 14.9821 4.36381 14.9419C4.33922 14.9016 4.33127 14.8534 4.34164 14.8073C4.35201 14.7613 4.37989 14.7211 4.41937 14.6953L9.78579 11.2522L4.5123 14.296C4.47142 14.3182 4.42357 14.3239 4.37864 14.3118C4.33371 14.2997 4.29513 14.2709 4.27087 14.2312C4.2466 14.1915 4.23849 14.144 4.24823 14.0985C4.25796 14.053 4.28479 14.013 4.32317 13.9867L9.54039 10.6165L4.48036 13.5377C4.4394 13.5602 4.39134 13.5661 4.34618 13.554C4.30102 13.542 4.26223 13.513 4.23791 13.4731C4.21358 13.4332 4.20558 13.3855 4.21558 13.3398C4.22558 13.2942 4.25281 13.2541 4.29159 13.228L8.5991 10.4593L4.5221 12.8131C4.48109 12.835 4.43323 12.8404 4.3884 12.828C4.34356 12.8157 4.30517 12.7866 4.28115 12.7468C4.25712 12.707 4.24929 12.6595 4.25927 12.6141C4.26925 12.5687 4.29628 12.5288 4.33479 12.5027L6.68239 11.0206L4.60741 12.2185C4.5662 12.2434 4.5168 12.2509 4.47006 12.2393C4.42333 12.2278 4.38309 12.1982 4.3582 12.157C4.33331 12.1158 4.32581 12.0664 4.33735 12.0196C4.34889 11.9729 4.37853 11.9326 4.41973 11.9078L5.77123 11.0576L4.7341 11.6562C4.69289 11.68 4.644 11.6866 4.59795 11.6747C4.55189 11.6627 4.51236 11.6332 4.48786 11.5924C4.46335 11.5517 4.45584 11.5029 4.46693 11.4566C4.47802 11.4104 4.50682 11.3703 4.54715 11.3451L4.84264 11.16C4.80148 11.1692 4.75836 11.1639 4.72071 11.1448C4.68306 11.1258 4.65322 11.0942 4.63633 11.0555C4.61945 11.0169 4.61656 10.9735 4.62818 10.9329C4.63979 10.8924 4.66518 10.8571 4.69998 10.8332L6.83304 9.4458L5.19222 10.3929C5.15158 10.4158 5.10371 10.4221 5.05852 10.4106C5.01334 10.3991 4.97431 10.3707 4.94952 10.3312C4.92473 10.2917 4.91609 10.2442 4.92539 10.1985C4.93469 10.1528 4.96121 10.1125 4.99946 10.0858L7.41967 8.43518L5.74981 9.39861C5.71019 9.42153 5.66338 9.42863 5.61875 9.4185C5.57412 9.40836 5.53497 9.38175 5.50913 9.34397C5.48329 9.3062 5.47267 9.26006 5.4794 9.21479C5.48614 9.16952 5.50972 9.12847 5.54543 9.09985L7.30169 7.68664C7.25917 7.70626 7.21071 7.70868 7.16645 7.6934C7.12219 7.67812 7.08554 7.64633 7.06417 7.60466C7.0428 7.563 7.03835 7.51469 7.05177 7.46982C7.06519 7.42496 7.09542 7.38702 7.13616 7.36392L9.15233 6.19938C9.19196 6.17599 9.23899 6.16853 9.28391 6.17851C9.32883 6.18848 9.36829 6.21514 9.3943 6.25309C9.42031 6.29105 9.43093 6.33747 9.42402 6.38296C9.41711 6.42845 9.39318 6.46962 9.35707 6.49814L7.60771 7.90699L11.4368 5.69624C11.4774 5.67264 11.5257 5.66574 11.5713 5.677C11.617 5.68826 11.6565 5.7168 11.6815 5.75661C11.7066 5.79641 11.7152 5.84438 11.7055 5.89041C11.6959 5.93643 11.6688 5.97692 11.6299 6.00335L9.20932 7.65397L12.5719 5.71258C12.6129 5.68876 12.6615 5.6819 12.7075 5.69348C12.7534 5.70505 12.7931 5.73414 12.8178 5.77453C12.8426 5.81492 12.8506 5.8634 12.8402 5.90962C12.8297 5.95583 12.8016 5.99612 12.7618 6.02187L10.6287 7.4093L13.3738 5.82439C13.3942 5.81209 13.4169 5.80393 13.4405 5.80039C13.464 5.79684 13.4881 5.79797 13.5112 5.80372C13.5344 5.80947 13.5562 5.81972 13.5753 5.83388C13.5945 5.84805 13.6107 5.86585 13.623 5.88628C13.6353 5.90671 13.6435 5.92936 13.647 5.95294C13.6506 5.97652 13.6494 6.00056 13.6437 6.0237C13.6379 6.04684 13.6277 6.06863 13.6135 6.08781C13.5994 6.10699 13.5815 6.12319 13.5611 6.13549L13.4315 6.21608L13.8995 5.94636C13.9406 5.92332 13.9891 5.91718 14.0346 5.92924C14.0802 5.94131 14.1193 5.97063 14.1436 6.011C14.168 6.05137 14.1756 6.09963 14.165 6.14556C14.1544 6.19149 14.1263 6.23149 14.0868 6.2571L12.736 7.10655L14.4501 6.1177C14.4913 6.09281 14.5408 6.08531 14.5875 6.09685C14.6342 6.10839 14.6745 6.13803 14.6994 6.17923C14.7242 6.22044 14.7317 6.26984 14.7202 6.31658C14.7087 6.36332 14.679 6.40355 14.6378 6.42844L12.2873 7.91244L15.007 6.34241C15.048 6.31907 15.0965 6.31261 15.1421 6.3244C15.1878 6.33618 15.2271 6.36528 15.2517 6.40554C15.2763 6.44579 15.2842 6.49404 15.2739 6.54005C15.2635 6.58607 15.2356 6.62624 15.1961 6.65206L10.8912 9.41749L15.6561 6.66621C15.6971 6.64109 15.7465 6.6333 15.7933 6.64456C15.8401 6.65583 15.8805 6.68523 15.9056 6.72629C15.9308 6.76735 15.9386 6.81672 15.9273 6.86352C15.916 6.91032 15.8866 6.95074 15.8456 6.97586L10.6276 10.3464L16.2968 7.07315C16.3379 7.04908 16.3868 7.04211 16.4329 7.05375C16.4791 7.06538 16.5188 7.09469 16.5436 7.13535C16.5683 7.17602 16.5761 7.22478 16.5653 7.27113C16.5544 7.31749 16.5258 7.35772 16.4856 7.38316L11.1184 10.8274L16.8591 7.51349C16.9002 7.49153 16.9482 7.48623 16.9931 7.49868C17.038 7.51113 17.0764 7.54037 17.1003 7.58036C17.1243 7.62035 17.1319 7.66801 17.1217 7.71348C17.1114 7.75894 17.0841 7.79873 17.0453 7.82459L14.1525 9.62368L17.2265 7.84855C17.2677 7.82366 17.3172 7.81618 17.3639 7.82775C17.4107 7.83933 17.451 7.869 17.4759 7.91026C17.5007 7.95151 17.5082 8.00097 17.4966 8.04773C17.4851 8.0945 17.4554 8.13476 17.4141 8.15965L12.9781 10.9501L17.6247 8.26746C17.6659 8.24258 17.7153 8.23508 17.762 8.24662C17.8088 8.25816 17.849 8.28779 17.8739 8.32899C17.8988 8.3702 17.9063 8.41961 17.8947 8.46634C17.8832 8.51308 17.8536 8.55331 17.8124 8.5782L12.8438 11.7157L18.0044 8.73611C18.0458 8.71151 18.0953 8.70437 18.1419 8.71625C18.1651 8.72213 18.1868 8.73251 18.2059 8.74678C18.225 8.76106 18.2411 8.77896 18.2532 8.79946C18.2654 8.81996 18.2734 8.84265 18.2769 8.86625C18.2803 8.88985 18.279 8.91389 18.2731 8.937C18.2672 8.96011 18.2569 8.98183 18.2426 9.00093C18.2283 9.02003 18.2104 9.03612 18.1899 9.0483L17.5641 9.43092L18.2258 9.04867C18.2672 9.02402 18.3166 9.01681 18.3633 9.02862C18.41 9.04043 18.45 9.0703 18.4747 9.11165C18.4993 9.153 18.5065 9.20245 18.4947 9.24912C18.4829 9.29578 18.4531 9.33585 18.4117 9.3605L16.683 10.4219L18.4491 9.40261C18.4903 9.37884 18.5392 9.37221 18.5852 9.38413C18.6313 9.39605 18.6708 9.42558 18.6953 9.46635C18.7198 9.50713 18.7274 9.55589 18.7163 9.60215C18.7052 9.64841 18.6764 9.68847 18.636 9.71371L14.3863 12.3742L18.7119 9.8767C18.753 9.85263 18.8019 9.84566 18.848 9.85729C18.8942 9.86893 18.934 9.89824 18.9587 9.9389C18.9835 9.97956 18.9913 10.0283 18.9804 10.0747C18.9696 10.121 18.9409 10.1613 18.9007 10.1867L12.972 13.9729L18.9893 10.4989C19.0305 10.474 19.0799 10.4665 19.1266 10.4781C19.1733 10.4896 19.2136 10.5192 19.2385 10.5604C19.2634 10.6016 19.2709 10.651 19.2593 10.6978C19.2478 10.7445 19.2181 10.7848 19.1769 10.8096L14.3645 13.8455L19.1878 11.0608C19.2291 11.038 19.2776 11.0322 19.3231 11.0445C19.3686 11.0568 19.4075 11.0864 19.4316 11.1269C19.4557 11.1674 19.4631 11.2157 19.4522 11.2616C19.4414 11.3075 19.4131 11.3473 19.3733 11.3727L18.8782 11.6758L19.2916 11.4373C19.3329 11.4141 19.3816 11.4079 19.4273 11.42C19.473 11.4321 19.5122 11.4617 19.5365 11.5023C19.5608 11.5429 19.5683 11.5914 19.5573 11.6374C19.5464 11.6835 19.5178 11.7234 19.4779 11.7488L17.1934 13.1645L19.3918 11.894C19.433 11.8702 19.4819 11.8636 19.528 11.8755C19.574 11.8874 19.6136 11.9169 19.6381 11.9577C19.6626 11.9985 19.6701 12.0472 19.659 12.0935C19.6479 12.1398 19.6191 12.1798 19.5788 12.2051L16.4932 14.129L19.4699 12.4109C19.511 12.3882 19.5594 12.3824 19.6047 12.3946C19.6501 12.4069 19.6889 12.4362 19.7131 12.4765C19.7373 12.5168 19.7449 12.5649 19.7343 12.6107C19.7237 12.6565 19.6958 12.6964 19.6565 12.722L17.8298 13.8542L19.5087 12.8846C19.5498 12.8606 19.5987 12.8536 19.6449 12.8652C19.691 12.8769 19.7308 12.9062 19.7555 12.9468C19.7803 12.9875 19.7881 13.0363 19.7772 13.0826C19.7664 13.129 19.7377 13.1692 19.6975 13.1946L15.2673 16.0305L19.5145 13.5787C19.5556 13.5565 19.6037 13.5509 19.6488 13.5632C19.6938 13.5755 19.7324 13.6047 19.7565 13.6447C19.7806 13.6848 19.7883 13.7325 19.7781 13.7781C19.7678 13.8237 19.7404 13.8636 19.7015 13.8894L17.9097 15.0082L19.4782 14.104C19.5192 14.0824 19.5668 14.0772 19.6115 14.0895C19.6561 14.1019 19.6943 14.1309 19.7183 14.1705C19.7423 14.2101 19.7502 14.2574 19.7405 14.3026C19.7307 14.3479 19.7041 14.3877 19.6659 14.414L16.8972 16.1717L19.3835 14.7367C19.4243 14.7139 19.4724 14.7077 19.5177 14.7194C19.5629 14.7312 19.6019 14.7599 19.6265 14.7997C19.6511 14.8395 19.6594 14.8873 19.6496 14.933C19.6398 14.9788 19.6128 15.019 19.5741 15.0453L15.5846 17.6746L19.1599 15.6105C19.2009 15.5872 19.2493 15.5807 19.295 15.5925C19.3407 15.6043 19.38 15.6334 19.4046 15.6736C19.4291 15.7139 19.4371 15.7621 19.4267 15.8081C19.4164 15.8542 19.3885 15.8943 19.349 15.9201L17.3702 17.1972L18.8974 16.3184C18.9384 16.295 18.9869 16.2886 19.0325 16.3004C19.0782 16.3121 19.1175 16.3412 19.1421 16.3815C19.1667 16.4217 19.1746 16.47 19.1643 16.516C19.1539 16.562 19.126 16.6022 19.0865 16.628L18.2745 17.1508L18.5732 16.9783C18.6137 16.955 18.6615 16.9482 18.7069 16.9592C18.7522 16.9702 18.7915 16.9983 18.8167 17.0376C18.8419 17.0769 18.851 17.1244 18.8421 17.1702C18.8332 17.216 18.807 17.2566 18.7689 17.2836L16.548 18.8587L17.767 18.1552C17.8073 18.1326 17.8546 18.1263 17.8994 18.1374C17.9442 18.1485 17.9831 18.1762 18.0081 18.215C18.0332 18.2537 18.0426 18.3006 18.0343 18.346C18.0261 18.3914 18.0008 18.4319 17.9637 18.4594L16.8812 19.237C16.9007 19.2515 16.9168 19.27 16.9288 19.2911C16.9528 19.3327 16.9593 19.3821 16.9469 19.4285C16.9345 19.4749 16.9043 19.5145 16.8627 19.5387L14.8466 20.7028C14.8063 20.7254 14.7589 20.7318 14.7141 20.7207C14.6693 20.7096 14.6305 20.6818 14.6054 20.6431C14.5803 20.6043 14.571 20.5575 14.5792 20.5121C14.5875 20.4667 14.6127 20.4261 14.6498 20.3986L14.836 20.264L13.3662 21.1123C13.3258 21.1348 13.2784 21.141 13.2337 21.1298C13.1889 21.1185 13.15 21.0906 13.1251 21.0518C13.1002 21.0129 13.091 20.966 13.0994 20.9206C13.1079 20.8752 13.1333 20.8347 13.1705 20.8074L15.3907 19.2323L11.9544 21.2161C11.9269 21.2322 11.8955 21.2406 11.8637 21.2405Z" fill="white"/>
<path d="M11.6371 3.0938C11.6025 3.09382 11.5685 3.0839 11.5393 3.06524C11.5101 3.04657 11.4869 3.01993 11.4723 2.98847C11.4578 2.95701 11.4525 2.92204 11.4572 2.8877C11.4619 2.85336 11.4764 2.82108 11.4988 2.79468L12.0365 2.16594L10.5118 3.04407C10.4741 3.06565 10.4298 3.07297 10.3872 3.06471C10.3445 3.05644 10.3062 3.03313 10.2793 2.99902C10.2523 2.96492 10.2385 2.92227 10.2403 2.87884C10.2422 2.83541 10.2595 2.79408 10.2893 2.76237L10.7659 2.26105L10.2878 2.53694C10.2541 2.55654 10.215 2.56477 10.1763 2.56042C10.1376 2.55606 10.1013 2.53936 10.0728 2.51277C10.0443 2.48618 10.0251 2.45112 10.018 2.41279C10.011 2.37445 10.0165 2.33487 10.0337 2.29989L10.2261 1.90675C10.1923 1.90962 10.1585 1.9026 10.1286 1.88655C10.0988 1.8705 10.0743 1.84611 10.058 1.81636C10.034 1.77467 10.0274 1.72513 10.0399 1.67863C10.0524 1.63214 10.0828 1.59249 10.1245 1.56842L10.5459 1.32593C10.5796 1.30633 10.6187 1.2981 10.6575 1.30246C10.6962 1.30681 10.7325 1.32352 10.761 1.3501C10.7895 1.37669 10.8087 1.41175 10.8157 1.45009C10.8227 1.48842 10.8172 1.52801 10.8 1.56298L10.6222 1.92599L11.66 1.32593C11.6978 1.3041 11.7421 1.29657 11.7849 1.30474C11.8277 1.31291 11.8662 1.33622 11.8933 1.37041C11.9203 1.4046 11.9342 1.44739 11.9323 1.49095C11.9303 1.53451 11.9128 1.57592 11.8829 1.60763L11.4088 2.10786L12.7654 1.32593C12.8024 1.3045 12.8459 1.29686 12.888 1.30434C12.9301 1.31183 12.9683 1.33396 12.9957 1.36683C13.0231 1.39971 13.038 1.44121 13.0378 1.48401C13.0375 1.52681 13.0222 1.56815 12.9944 1.60073L12.4586 2.22838L13.6784 1.52414C13.7152 1.50305 13.7583 1.49555 13.8 1.50291C13.8418 1.51028 13.8797 1.53206 13.9071 1.56447C13.9345 1.59688 13.9497 1.63786 13.95 1.6803C13.9504 1.72274 13.9358 1.76394 13.9089 1.79676L13.5343 2.24944L13.7136 2.14561C13.7553 2.12154 13.8049 2.11504 13.8514 2.12753C13.898 2.14003 13.9376 2.17049 13.9617 2.21223C13.9858 2.25396 13.9923 2.30355 13.9798 2.35008C13.9673 2.39661 13.9368 2.43628 13.8951 2.46035L12.8394 3.06839C12.8026 3.08946 12.7595 3.09693 12.7177 3.08951C12.6759 3.08209 12.638 3.06025 12.6106 3.02779C12.5833 2.99533 12.5681 2.9543 12.5679 2.91184C12.5677 2.86938 12.5823 2.82818 12.6093 2.79541L12.9843 2.34309L11.7275 3.06912C11.7001 3.08512 11.6689 3.09363 11.6371 3.0938Z" fill="#4295A8"/>
<path d="M12.1951 15.0602C12.1599 15.0601 12.1255 15.0499 12.096 15.0307C12.0666 15.0114 12.0433 14.9841 12.0292 14.9519C12.015 14.9197 12.0104 14.8841 12.0161 14.8493C12.0218 14.8146 12.0374 14.7823 12.0612 14.7563L12.5127 14.2612L11.4295 14.8866C11.3909 14.9076 11.346 14.9139 11.3031 14.9043C11.2602 14.8946 11.2223 14.8698 11.1963 14.8343C11.1704 14.7988 11.1582 14.7551 11.162 14.7114C11.1659 14.6676 11.1854 14.6267 11.2171 14.5962L11.8176 14.0553L10.9888 14.5323C10.9498 14.5544 10.9039 14.5612 10.8602 14.5515C10.8164 14.5417 10.7778 14.5161 10.7517 14.4796C10.7257 14.4431 10.7141 14.3982 10.7192 14.3537C10.7243 14.3091 10.7458 14.268 10.7794 14.2383L11.2629 13.8205L10.7456 14.1189C10.7075 14.1408 10.6628 14.1482 10.6197 14.1397C10.5765 14.1311 10.538 14.1072 10.5112 14.0724C10.4843 14.0376 10.4711 13.9943 10.4738 13.9504C10.4765 13.9065 10.495 13.8651 10.526 13.8339L11.2317 13.1239L10.6585 13.4549C10.6208 13.477 10.5764 13.4848 10.5334 13.4767C10.4904 13.4687 10.4518 13.4455 10.4246 13.4113C10.3974 13.377 10.3835 13.3342 10.3854 13.2905C10.3873 13.2468 10.4048 13.2053 10.4349 13.1736L10.8705 12.7093C10.8327 12.7047 10.7973 12.6884 10.7692 12.6626C10.7412 12.6369 10.722 12.6029 10.7144 12.5656C10.7067 12.5283 10.711 12.4896 10.7265 12.4548C10.7421 12.4201 10.7682 12.3911 10.8011 12.3721L11.6637 11.874C11.7014 11.8522 11.7456 11.8446 11.7884 11.8528C11.8312 11.8609 11.8697 11.8841 11.8968 11.9182C11.9239 11.9524 11.9378 11.9951 11.936 12.0386C11.9341 12.0822 11.9167 12.1236 11.8869 12.1553L11.5377 12.5281L12.2347 12.1256C12.2728 12.1033 12.3177 12.0957 12.361 12.1042C12.4043 12.1127 12.4431 12.1366 12.47 12.1716C12.4969 12.2066 12.5102 12.2502 12.5073 12.2942C12.5044 12.3383 12.4856 12.3797 12.4543 12.4109L11.749 13.1191L12.7393 12.5474C12.7783 12.5253 12.8241 12.5185 12.8679 12.5283C12.9117 12.538 12.9503 12.5636 12.9763 12.6001C13.0024 12.6367 13.0139 12.6815 13.0088 12.7261C13.0037 12.7706 12.9823 12.8117 12.9487 12.8414L12.4652 13.2596L13.1317 12.8748C13.1703 12.8538 13.2152 12.8476 13.2581 12.8572C13.301 12.8668 13.3389 12.8917 13.3648 12.9272C13.3908 12.9627 13.403 13.0063 13.3991 13.0501C13.3953 13.0939 13.3757 13.1348 13.344 13.1652L12.7433 13.7061L13.3466 13.358C13.3841 13.3367 13.4279 13.3294 13.4703 13.3374C13.5126 13.3455 13.5507 13.3683 13.5778 13.4019C13.6048 13.4355 13.619 13.4776 13.6178 13.5207C13.6166 13.5638 13.6001 13.6051 13.5713 13.6372L13.0994 14.1537C13.1368 14.1461 13.1757 14.1505 13.2106 14.1661C13.2455 14.1817 13.2746 14.2078 13.2939 14.2408C13.3179 14.2825 13.3244 14.3319 13.3121 14.3783C13.2997 14.4247 13.2694 14.4643 13.2279 14.4884L12.284 15.0329C12.2573 15.0497 12.2266 15.0591 12.1951 15.0602Z" fill="#BFDBF0"/>
<path d="M12.6801 13.6005C12.6416 13.6005 12.6042 13.5882 12.5732 13.5655C12.5421 13.5428 12.5191 13.5109 12.5074 13.4743C12.4957 13.4376 12.4959 13.3982 12.508 13.3618C12.5201 13.3253 12.5435 13.2936 12.5748 13.2712L15.2074 11.3952L12.186 13.1398C12.1457 13.1629 12.098 13.1695 12.0529 13.1584C12.0077 13.1474 11.9686 13.1194 11.9434 13.0803C11.9183 13.0412 11.9091 12.994 11.9178 12.9483C11.9264 12.9027 11.9523 12.8621 11.99 12.8349L14.8291 10.8082L12.1018 12.3826C12.0615 12.4054 12.014 12.4119 11.969 12.4008C11.9241 12.3897 11.8851 12.3618 11.86 12.3229C11.8349 12.284 11.8256 12.237 11.8341 12.1914C11.8425 12.1459 11.868 12.1053 11.9054 12.078L14.457 10.2484L12.1018 11.6083C12.0614 11.632 12.0134 11.6392 11.9679 11.6283C11.9223 11.6174 11.8827 11.5894 11.8574 11.55C11.832 11.5106 11.8228 11.463 11.8318 11.417C11.8408 11.371 11.8671 11.3303 11.9054 11.3033L14.0026 9.79974L12.1018 10.8968C12.0613 10.9191 12.0138 10.9251 11.969 10.9136C11.9242 10.902 11.8855 10.8738 11.8608 10.8347C11.8361 10.7956 11.8272 10.7485 11.8361 10.7031C11.8449 10.6577 11.8708 10.6174 11.9083 10.5904L12.8714 9.92934L12.1018 10.3715C12.0614 10.3945 12.0138 10.4012 11.9686 10.3901C11.9235 10.379 11.8843 10.3511 11.8592 10.312C11.8341 10.2729 11.8249 10.2256 11.8336 10.18C11.8422 10.1343 11.8681 10.0937 11.9058 10.0666L13.1164 9.20331L12.1 9.78921C12.0599 9.81255 12.0124 9.81964 11.9672 9.80902C11.922 9.79841 11.8826 9.77089 11.8571 9.73213C11.8316 9.69337 11.8219 9.64631 11.83 9.60062C11.8381 9.55493 11.8634 9.51408 11.9007 9.48646L13.1713 8.53936L12.1007 9.15648C12.0609 9.17937 12.0138 9.18627 11.969 9.1758C11.9242 9.16532 11.8851 9.13825 11.8595 9.10004C11.834 9.06184 11.8238 9.01535 11.8312 8.96996C11.8386 8.92458 11.8629 8.88369 11.8993 8.85554L12.944 8.04857L12.1018 8.53537C12.0619 8.55825 12.0149 8.56516 11.9701 8.55468C11.9253 8.54421 11.8862 8.51713 11.8606 8.47893C11.8351 8.44072 11.8249 8.39423 11.8323 8.34885C11.8397 8.30347 11.864 8.26257 11.9003 8.23443L12.4332 7.82386L12.1018 8.01517C12.0626 8.0379 12.0163 8.04511 11.972 8.03541C11.9277 8.0257 11.8886 7.99976 11.8625 7.96271C11.8364 7.92565 11.8251 7.88016 11.8308 7.83518C11.8365 7.79021 11.8589 7.749 11.8934 7.71968L12.4129 7.27825L12.1018 7.45758C12.0649 7.47886 12.0218 7.48651 11.9798 7.47918C11.9379 7.47185 11.8999 7.45001 11.8724 7.41748C11.8449 7.38496 11.8298 7.34381 11.8296 7.30124C11.8294 7.25867 11.8441 7.21738 11.8713 7.1846L12.3632 6.58708L12.1011 6.73845C12.0704 6.75606 12.0353 6.76433 12 6.76225C11.9647 6.76017 11.9308 6.74783 11.9024 6.72674C11.874 6.70565 11.8524 6.67673 11.8403 6.64354C11.8281 6.61034 11.8259 6.57432 11.8339 6.53988L11.9348 6.10826C11.9045 6.09441 11.8786 6.07248 11.8599 6.04487C11.8412 6.01726 11.8305 5.98503 11.8289 5.95173C11.8274 5.91843 11.835 5.88534 11.851 5.85609C11.867 5.82684 11.8907 5.80256 11.9196 5.78591L12.0931 5.68608C12.1238 5.66847 12.1589 5.6602 12.1942 5.66228C12.2295 5.66436 12.2634 5.6767 12.2918 5.69779C12.3202 5.71888 12.3418 5.7478 12.3539 5.78099C12.3661 5.81419 12.3683 5.85021 12.3603 5.88465L12.283 6.21426L13.0547 5.76848C13.0916 5.74698 13.1349 5.73916 13.1769 5.7464C13.219 5.75364 13.2572 5.77547 13.2847 5.80807C13.3123 5.84066 13.3275 5.88193 13.3277 5.92461C13.3278 5.9673 13.3129 6.00867 13.2856 6.04147L12.793 6.63717L13.9626 5.96161C14.0019 5.93888 14.0482 5.93166 14.0925 5.94137C14.1368 5.95108 14.1758 5.97701 14.2019 6.01406C14.2281 6.05112 14.2394 6.09661 14.2336 6.14159C14.2279 6.18657 14.2056 6.22777 14.171 6.2571L13.6522 6.69852L14.5776 6.16417C14.6174 6.14128 14.6645 6.13437 14.7093 6.14485C14.754 6.15533 14.7932 6.1824 14.8187 6.22061C14.8443 6.25881 14.8545 6.3053 14.8471 6.35068C14.8397 6.39606 14.8154 6.43696 14.779 6.4651L14.2458 6.88003L15.1047 6.38415C15.1445 6.36186 15.1912 6.35538 15.2356 6.366C15.28 6.37662 15.3187 6.40356 15.3441 6.44146C15.3695 6.47936 15.3797 6.52544 15.3727 6.57052C15.3656 6.6156 15.3419 6.65637 15.3061 6.68473L14.2617 7.49025L15.6713 6.67638C15.7114 6.65304 15.759 6.64595 15.8041 6.65657C15.8493 6.66718 15.8887 6.6947 15.9142 6.73346C15.9397 6.77222 15.9494 6.81928 15.9413 6.86497C15.9332 6.91067 15.9079 6.95152 15.8706 6.97913L14.6001 7.92623L16.1973 7.00418C16.2377 6.98047 16.2857 6.9733 16.3313 6.98416C16.3768 6.99501 16.4164 7.02306 16.4418 7.06244C16.4672 7.10181 16.4763 7.14947 16.4674 7.19544C16.4584 7.24141 16.432 7.28214 16.3937 7.30911L15.1842 8.17272L16.6395 7.33234C16.68 7.31002 16.7275 7.30402 16.7723 7.31556C16.8171 7.32709 16.8558 7.3553 16.8805 7.39441C16.9052 7.43353 16.914 7.48059 16.9052 7.526C16.8964 7.57141 16.8705 7.61173 16.833 7.63872L15.871 8.30159L17.0097 7.6449C17.0501 7.62119 17.0981 7.61402 17.1437 7.62487C17.1893 7.63573 17.2289 7.66378 17.2542 7.70316C17.2796 7.74253 17.2887 7.79019 17.2798 7.83616C17.2708 7.88213 17.2444 7.92286 17.2061 7.94983L15.1097 9.45306L17.4693 8.0914C17.5097 8.0677 17.5577 8.06052 17.6033 8.07138C17.6488 8.08224 17.6884 8.11029 17.7138 8.14966C17.7391 8.18904 17.7483 8.23669 17.7393 8.28266C17.7304 8.32863 17.704 8.36936 17.6657 8.39633L15.1137 10.2259L17.9089 8.61124C17.9493 8.58821 17.997 8.58154 18.0421 8.59261C18.0872 8.60369 18.1264 8.63165 18.1515 8.67074C18.1767 8.70984 18.1859 8.75708 18.1772 8.80275C18.1685 8.84841 18.1427 8.889 18.105 8.91617L15.2658 10.9432L18.3166 9.18153C18.357 9.15743 18.4053 9.14999 18.4511 9.16079C18.4969 9.17158 18.5368 9.19977 18.5622 9.23939C18.5877 9.27901 18.5967 9.32697 18.5875 9.37314C18.5782 9.41931 18.5514 9.46007 18.5126 9.48682L15.3399 11.7462C15.3811 11.7605 15.4157 11.7891 15.4375 11.8268C15.4616 11.8685 15.4681 11.918 15.4557 11.9645C15.4432 12.011 15.4128 12.0507 15.3711 12.0747L12.7701 13.5762C12.7428 13.5921 12.7117 13.6005 12.6801 13.6005Z" fill="#E3C84C"/>
<path d="M11.9831 5.61348C2.01694 5.90389 1.63034 20.3456 11.5163 21.2713C17.4817 21.7951 21.7845 14.8482 18.794 9.75436C18.8934 9.66724 18.794 9.56088 18.6618 9.52131C17.9928 8.3382 17.0224 7.35336 15.8493 6.66695C14.6762 5.98055 13.3423 5.61707 11.9831 5.61348ZM18.3238 9.61787C16.6903 10.7559 15.0259 11.8286 13.4185 13.0048C13.3915 12.9949 13.3617 12.9957 13.3354 13.0071C13.309 13.0185 13.2881 13.0397 13.2769 13.0661C12.9796 13.1297 12.3501 12.9384 12.2147 12.6029C12.1664 10.4412 12.2466 8.22535 12.2147 6.048C13.4515 6.07938 14.6602 6.42316 15.7283 7.04733C16.7965 7.67151 17.6894 8.55579 18.3238 9.61787ZM11.717 12.2642C11.7359 13.1899 12.41 13.8372 13.266 13.493C12.5835 16.2937 8.97409 13.5007 11.717 12.2642ZM12.4844 20.8437C2.49503 21.1606 1.84814 6.69417 11.786 6.04909C11.7838 8.06781 11.8223 9.74747 11.6952 11.8283C11.4022 11.8946 11.1324 12.0389 10.9145 12.2457C10.6966 12.4526 10.5385 12.7145 10.4569 13.0037C10.3754 13.2929 10.3734 13.5988 10.4511 13.889C10.5289 14.1793 10.6836 14.4432 10.8988 14.6529C12.0023 15.7187 13.6842 14.7668 13.604 13.346C15.3235 12.1793 16.8123 11.083 18.5152 9.95257C21.1564 14.4441 17.7089 20.6139 12.4844 20.8437Z" fill="#262626"/>
<path d="M13.5063 22.5713C20.1857 21.7189 23.6601 13.0284 19.3051 7.96544C20.0964 7.36175 20.5281 6.63282 19.6089 5.90715C18.774 4.81812 18.1728 5.26498 17.4729 6.18304C16.2433 5.26757 14.8167 4.65222 13.307 4.38613V3.09997C14.233 3.10469 14.3801 1.36768 13.4159 1.29689C12.8946 1.25333 12.3534 1.29689 11.8303 1.29689C11.4168 1.2693 11.0019 1.2693 10.5884 1.29689C9.66853 1.43483 9.70882 3.1773 10.6933 3.10687V4.30917C9.14262 4.48961 7.66944 5.08548 6.42936 6.03385C5.76214 5.13684 5.13776 4.9782 4.42226 5.90534C3.56846 6.56312 3.74416 7.27934 4.578 7.87795C-0.309246 14.3011 5.35266 23.8745 13.5063 22.5713ZM12.4641 22.348C-0.19998 22.3967 0.389916 3.78861 12.9937 4.59668C23.569 6.00335 23.2111 21.5225 12.4641 22.348ZM18.3246 5.86359C18.7388 5.50929 18.9874 5.81822 19.2771 6.10754C20.0968 6.71304 19.6989 7.13414 19.0593 7.65579C18.6694 7.2033 18.2383 6.78794 17.7717 6.41501C17.951 6.22878 18.1278 6.03167 18.3246 5.86359ZM10.5176 1.64538C11.4288 1.63776 12.4456 1.60908 13.3571 1.64538C13.5902 1.73577 13.8091 2.62806 13.4489 2.74894C12.5723 2.76201 11.6909 2.71809 10.8182 2.77835C10.3666 2.83425 10.1993 1.88134 10.5176 1.64538ZM11.1286 3.13374C11.705 3.15297 12.2935 3.12539 12.871 3.10832V4.32623C12.2932 4.25307 11.7097 4.23533 11.1286 4.27323V3.13374ZM4.36636 7.05355C4.02876 6.6212 4.419 6.38343 4.69307 6.10972C5.20129 5.43088 5.63473 5.7467 6.09358 6.29848C5.6389 6.67102 5.2234 7.08895 4.85352 7.54579C4.67857 7.39464 4.51569 7.23006 4.36636 7.05355Z" fill="#262626"/>
<path d="M9.09604 7.98649C8.96753 7.81116 8.62666 8.0355 8.73303 8.22572C8.84193 8.39234 8.93523 8.7303 9.18607 8.55678C9.43146 8.3996 9.1828 8.16546 9.09604 7.98649Z" fill="#262626"/>
<path d="M6.89111 10.7359C7.11509 10.8619 7.21782 10.4644 7.04939 10.357C6.88748 10.2923 6.63374 10.0048 6.51285 10.2575C6.39923 10.5283 6.70888 10.6249 6.89111 10.7359Z" fill="#262626"/>
<path d="M6.17889 13.2876C5.99375 13.3086 5.64127 13.2015 5.61186 13.4691C5.6812 13.7094 6.01807 13.5841 6.20503 13.6143C6.48237 13.6077 6.45224 13.2531 6.17889 13.2876Z" fill="#262626"/>
<path d="M6.89547 16.1634C6.71723 16.2744 6.39923 16.3706 6.51031 16.64C6.63047 16.8981 6.88095 16.612 7.04467 16.546C7.21855 16.4443 7.12235 16.041 6.89547 16.1634Z" fill="#262626"/>
<path d="M8.96684 18.3378C8.87645 18.5273 8.64013 18.7524 8.81401 18.9589C9.14508 19.2609 9.49538 17.9537 8.96684 18.3378Z" fill="#262626"/>
<path d="M12.0205 19.0453C11.7442 18.997 11.7696 19.7862 11.9798 19.8352C12.2561 19.8835 12.2307 19.0943 12.0205 19.0453Z" fill="#262626"/>
<path d="M15.0604 18.3469C14.934 18.1291 14.6451 18.4358 14.7482 18.6141L14.9297 18.9284C15.056 19.1462 15.345 18.8399 15.2419 18.6612L15.0604 18.3469Z" fill="#262626"/>
<path d="M17.4762 16.367L17.1618 16.1855C16.9803 16.0813 16.6968 16.4077 16.8983 16.5238L17.2127 16.7053C17.3931 16.8095 17.678 16.4832 17.4762 16.367Z" fill="#262626"/>
<path d="M18.142 13.2854C17.9677 13.3104 17.6029 13.1925 17.5938 13.4564C17.6759 13.7021 18.0037 13.5918 18.2004 13.6157C18.4926 13.6088 18.3892 13.2571 18.142 13.2854Z" fill="#262626"/>
</svg>
